<svg xmlns="http://www.w3.org/2000/svg" viewBox="0 0 970.03 160.8"><g id="Layer_2" data-name="Layer 2"><g id="Layer_1-2" data-name="Layer 1"><path d="M57.57,68.16H51.14l-1.45,4H48.43L53.79,58h1.13l5.36,14.15H59Zm-6.06-1h5.68l-2.84-7.7Z" transform="translate(-1.79)" style="fill:#bbbdbf"/><path d="M63.81,72.14H62.62V58h1.19Z" transform="translate(-1.79)" style="fill:#bbbdbf"/><path d="M94.63,68.16H88.21l-1.45,4H85.5L90.86,58H92l5.35,14.15H96.1Zm-6-1h5.68l-2.84-7.7Z" transform="translate(-1.79)" style="fill:#bbbdbf"/><path d="M105.81,70.81a3.8,3.8,0,0,1-3.36,1.52,3.21,3.21,0,0,1-2.55-1A4.27,4.27,0,0,1,99,68.46V61.63h1.15v6.69q0,3,2.43,3a3,3,0,0,0,3.2-2.09v-7.6H107V72.14h-1.12Z" transform="translate(-1.79)" style="fill:#bbbdbf"/><path d="M111.78,58.94v2.69H114v.95h-2.18v7a2.11,2.11,0,0,0,.32,1.3,1.21,1.21,0,0,0,1.05.43,6.49,6.49,0,0,0,.94-.1l0,1a3.77,3.77,0,0,1-1.24.16,2.07,2.07,0,0,1-1.74-.69,3.32,3.32,0,0,1-.55-2v-7h-1.93v-.95h1.93V58.94Z" transform="translate(-1.79)" style="fill:#bbbdbf"/><path d="M115.53,66.73a6.21,6.21,0,0,1,.59-2.73,4.43,4.43,0,0,1,4.09-2.57,4.33,4.33,0,0,1,3.4,1.47,5.66,5.66,0,0,1,1.3,3.9v.25a6.26,6.26,0,0,1-.58,2.74,4.48,4.48,0,0,1-1.66,1.88,4.55,4.55,0,0,1-2.44.66,4.32,4.32,0,0,1-3.39-1.47,5.61,5.61,0,0,1-1.31-3.9Zm1.17.32a4.78,4.78,0,0,0,1,3.09,3.3,3.3,0,0,0,5.11,0,4.94,4.94,0,0,0,1-3.19v-.22a5.32,5.32,0,0,0-.45-2.21A3.66,3.66,0,0,0,122.06,63a3.27,3.27,0,0,0-1.85-.55,3.11,3.11,0,0,0-2.53,1.22,4.92,4.92,0,0,0-1,3.19Z" transform="translate(-1.79)" style="fill:#bbbdbf"/><path d="M133.63,71.13h7v1h-8.19V58h1.21Z" transform="translate(-1.79)" style="fill:#bbbdbf"/><path d="M149.27,72.14a5.63,5.63,0,0,1-.23-1.47,4,4,0,0,1-1.56,1.23,4.73,4.73,0,0,1-2,.43,3.56,3.56,0,0,1-2.46-.84,2.94,2.94,0,0,1,.35-4.57,6.09,6.09,0,0,1,3.56-.89H149v-1.2a2.3,2.3,0,0,0-.69-1.77,2.88,2.88,0,0,0-2-.65,3.14,3.14,0,0,0-2,.63,1.83,1.83,0,0,0-.79,1.49h-1.17a2.7,2.7,0,0,1,1.17-2.17,4.48,4.48,0,0,1,2.86-.92,4.1,4.1,0,0,1,2.78.88,3.17,3.17,0,0,1,1,2.45v5a6.28,6.28,0,0,0,.32,2.28v.12Zm-3.66-.84a4,4,0,0,0,2.09-.56A3.35,3.35,0,0,0,149,69.23V66.92H147a5.2,5.2,0,0,0-2.72.64,1.91,1.91,0,0,0-1,1.69,1.88,1.88,0,0,0,.66,1.47A2.45,2.45,0,0,0,145.61,71.3Z" transform="translate(-1.79)" style="fill:#bbbdbf"/><path d="M156.47,70.47l3.07-8.84h1.26l-4.49,12.29-.23.55a2.84,2.84,0,0,1-2.68,1.91,3.3,3.3,0,0,1-.89-.13v-1l.6.06a2.19,2.19,0,0,0,1.39-.42,3.29,3.29,0,0,0,.9-1.45l.51-1.42-4-10.42h1.27Z" transform="translate(-1.79)" style="fill:#bbbdbf"/><path d="M161.81,66.73a6.21,6.21,0,0,1,.58-2.73,4.52,4.52,0,0,1,1.67-1.89,4.45,4.45,0,0,1,2.43-.68,4.33,4.33,0,0,1,3.4,1.47,5.66,5.66,0,0,1,1.3,3.9v.25a6.26,6.26,0,0,1-.59,2.74A4.39,4.39,0,0,1,169,71.67a4.58,4.58,0,0,1-2.44.66,4.34,4.34,0,0,1-3.4-1.47,5.66,5.66,0,0,1-1.3-3.9Zm1.16.32a4.78,4.78,0,0,0,1,3.09,3.3,3.3,0,0,0,5.11,0A4.93,4.93,0,0,0,170,67v-.22a5.32,5.32,0,0,0-.44-2.21A3.61,3.61,0,0,0,168.33,63a3.22,3.22,0,0,0-1.84-.55A3.13,3.13,0,0,0,164,63.64a5,5,0,0,0-1,3.19Z" transform="translate(-1.79)" style="fill:#bbbdbf"/><path d="M180.35,70.81A3.79,3.79,0,0,1,177,72.33a3.25,3.25,0,0,1-2.56-1,4.27,4.27,0,0,1-.89-2.89V61.63h1.16v6.69q0,3,2.43,3a3,3,0,0,0,3.19-2.09v-7.6h1.17V72.14h-1.13Z" transform="translate(-1.79)" style="fill:#bbbdbf"/><path d="M186.33,58.94v2.69h2.17v.95h-2.17v7a2.19,2.19,0,0,0,.31,1.3,1.21,1.21,0,0,0,1.05.43,6.59,6.59,0,0,0,.95-.1l.05,1a3.83,3.83,0,0,1-1.25.16,2.1,2.1,0,0,1-1.74-.69,3.32,3.32,0,0,1-.54-2v-7h-1.93v-.95h1.93V58.94Z" transform="translate(-1.79)" style="fill:#bbbdbf"/><path d="M220.55,67.73a5.08,5.08,0,0,1-1.6,3.42,5.29,5.29,0,0,1-3.61,1.18,4.92,4.92,0,0,1-2.78-.79,5,5,0,0,1-1.87-2.23A7.83,7.83,0,0,1,210,66V64.18a8,8,0,0,1,.66-3.34,5.08,5.08,0,0,1,1.9-2.25,5,5,0,0,1,8,3.82h-1.21c-.29-2.4-1.6-3.6-3.91-3.6a3.72,3.72,0,0,0-3.07,1.44,6.23,6.23,0,0,0-1.14,4V66a6.27,6.27,0,0,0,1.11,3.9,3.61,3.61,0,0,0,3,1.46,4,4,0,0,0,2.83-.9,4.34,4.34,0,0,0,1.17-2.69Z" transform="translate(-1.79)" style="fill:#bbbdbf"/><path d="M224.66,71.13h7v1h-8.19V58h1.21Z" transform="translate(-1.79)" style="fill:#bbbdbf"/><path d="M235.39,72.14H234.2V58h1.19Z" transform="translate(-1.79)" style="fill:#bbbdbf"/><path d="M268.59,67.73A5.07,5.07,0,0,1,267,71.15a5.3,5.3,0,0,1-3.61,1.18,5,5,0,0,1-2.79-.79,5.1,5.1,0,0,1-1.87-2.23,8,8,0,0,1-.67-3.29V64.18a8,8,0,0,1,.66-3.34,5,5,0,0,1,4.75-3A5.07,5.07,0,0,1,267.06,59a5.12,5.12,0,0,1,1.53,3.39h-1.2c-.3-2.4-1.6-3.6-3.92-3.6a3.7,3.7,0,0,0-3.06,1.44,6.23,6.23,0,0,0-1.14,4V66a6.27,6.27,0,0,0,1.11,3.9,3.59,3.59,0,0,0,3,1.46,4,4,0,0,0,2.82-.9,4.29,4.29,0,0,0,1.18-2.69Z" transform="translate(-1.79)" style="fill:#bbbdbf"/><path d="M270.58,66.73a6.21,6.21,0,0,1,.59-2.73,4.43,4.43,0,0,1,4.1-2.57,4.33,4.33,0,0,1,3.4,1.47,5.7,5.7,0,0,1,1.3,3.9v.25a6.26,6.26,0,0,1-.59,2.74,4.35,4.35,0,0,1-1.66,1.88,4.52,4.52,0,0,1-2.43.66,4.33,4.33,0,0,1-3.4-1.47,5.66,5.66,0,0,1-1.31-3.9Zm1.17.32a4.78,4.78,0,0,0,1,3.09,3.3,3.3,0,0,0,5.11,0,4.93,4.93,0,0,0,1-3.19v-.22a5.48,5.48,0,0,0-.44-2.21A3.61,3.61,0,0,0,277.11,63a3.24,3.24,0,0,0-1.84-.55,3.13,3.13,0,0,0-2.54,1.22,5,5,0,0,0-1,3.19Z" transform="translate(-1.79)" style="fill:#bbbdbf"/><path d="M283.48,61.63l0,1.79A4.28,4.28,0,0,1,285,61.94a3.84,3.84,0,0,1,1.95-.51,3.17,3.17,0,0,1,2.52,1,4.28,4.28,0,0,1,.83,2.86v6.9h-1.15V65.23a3.25,3.25,0,0,0-.6-2.1,2.34,2.34,0,0,0-1.88-.69,3,3,0,0,0-1.91.68,4,4,0,0,0-1.23,1.82v7.2h-1.15V61.63Z" transform="translate(-1.79)" style="fill:#bbbdbf"/><path d="M294.13,72.14V62.58h-1.74v-.95h1.74V60.35a3.47,3.47,0,0,1,.82-2.47,3,3,0,0,1,2.29-.87,4.4,4.4,0,0,1,1.23.17l-.08,1a4.47,4.47,0,0,0-1.06-.12,1.91,1.91,0,0,0-1.5.6,2.51,2.51,0,0,0-.53,1.7v1.31h2.5v.95h-2.5v9.56Z" transform="translate(-1.79)" style="fill:#bbbdbf"/><path d="M301.18,72.14H300V57.22h1.16Z" transform="translate(-1.79)" style="fill:#bbbdbf"/><path d="M311.1,70.81a3.78,3.78,0,0,1-3.35,1.52,3.21,3.21,0,0,1-2.55-1,4.22,4.22,0,0,1-.9-2.89V61.63h1.16v6.69q0,3,2.43,3a3,3,0,0,0,3.19-2.09v-7.6h1.17V72.14h-1.13Z" transform="translate(-1.79)" style="fill:#bbbdbf"/><path d="M319.34,72.33a4.56,4.56,0,0,1-2.42-.66,4.43,4.43,0,0,1-1.69-1.84,5.77,5.77,0,0,1-.6-2.65v-.42a6,6,0,0,1,.59-2.72,4.62,4.62,0,0,1,1.63-1.91,4,4,0,0,1,2.28-.7,3.8,3.8,0,0,1,3,1.31,5.29,5.29,0,0,1,1.12,3.57V67h-7.5v.22a4.42,4.42,0,0,0,1,3,3.26,3.26,0,0,0,2.58,1.19,3.45,3.45,0,0,0,2.94-1.43l.73.56A4.25,4.25,0,0,1,319.34,72.33Zm-.21-9.91a2.89,2.89,0,0,0-2.21,1,4.49,4.49,0,0,0-1.1,2.59h6.31v-.13a3.84,3.84,0,0,0-.87-2.46A2.65,2.65,0,0,0,319.13,62.42Z" transform="translate(-1.79)" style="fill:#bbbdbf"/><path d="M326.65,61.63l0,1.79a4.28,4.28,0,0,1,1.48-1.48,3.84,3.84,0,0,1,1.95-.51,3.17,3.17,0,0,1,2.52,1,4.28,4.28,0,0,1,.83,2.86v6.9h-1.15V65.23a3.25,3.25,0,0,0-.6-2.1,2.34,2.34,0,0,0-1.88-.69,3,3,0,0,0-1.91.68,4,4,0,0,0-1.23,1.82v7.2h-1.15V61.63Z" transform="translate(-1.79)" style="fill:#bbbdbf"/><path d="M340.36,71.35a3.12,3.12,0,0,0,2-.68,2.42,2.42,0,0,0,.88-1.78h1.12a3.29,3.29,0,0,1-.6,1.76,3.77,3.77,0,0,1-1.47,1.23,4.41,4.41,0,0,1-2,.45,4.06,4.06,0,0,1-3.28-1.44A5.83,5.83,0,0,1,335.87,67v-.35a6.43,6.43,0,0,1,.55-2.75A4.18,4.18,0,0,1,338,62.08a4.29,4.29,0,0,1,2.37-.65,4.09,4.09,0,0,1,2.85,1,3.75,3.75,0,0,1,1.2,2.71h-1.12a2.86,2.86,0,0,0-.88-2,2.94,2.94,0,0,0-2-.76,2.89,2.89,0,0,0-2.44,1.14,5.15,5.15,0,0,0-.87,3.19v.33a5,5,0,0,0,.87,3.14A2.91,2.91,0,0,0,340.36,71.35Z" transform="translate(-1.79)" style="fill:#bbbdbf"/><path d="M350.79,72.33a4.52,4.52,0,0,1-4.11-2.5,5.77,5.77,0,0,1-.6-2.65v-.42a6.14,6.14,0,0,1,.59-2.72,4.65,4.65,0,0,1,1.64-1.91,4,4,0,0,1,2.27-.7,3.81,3.81,0,0,1,3,1.31,5.34,5.34,0,0,1,1.12,3.57V67h-7.5v.22a4.42,4.42,0,0,0,1,3,3.29,3.29,0,0,0,2.58,1.19,3.45,3.45,0,0,0,3-1.43l.72.56A4.24,4.24,0,0,1,350.79,72.33Zm-.21-9.91a2.92,2.92,0,0,0-2.21,1A4.49,4.49,0,0,0,347.28,66h6.3v-.13a3.83,3.83,0,0,0-.86-2.46A2.68,2.68,0,0,0,350.58,62.42Z" transform="translate(-1.79)" style="fill:#bbbdbf"/><path d="M363.31,66.38v5.76h-1.2V58h4.82a5.08,5.08,0,0,1,3.48,1.13,3.92,3.92,0,0,1,1.28,3.1,3.86,3.86,0,0,1-1.23,3.07,5.19,5.19,0,0,1-3.56,1.09Zm0-1h3.62a3.83,3.83,0,0,0,2.65-.83,3,3,0,0,0,.91-2.31,3.1,3.1,0,0,0-.9-2.34A3.69,3.69,0,0,0,367,59h-3.7Z" transform="translate(-1.79)" style="fill:#bbbdbf"/><path d="M375.39,72.14h-1.17V57.22h1.17Z" transform="translate(-1.79)" style="fill:#bbbdbf"/><path d="M385.31,70.81A3.79,3.79,0,0,1,382,72.33a3.23,3.23,0,0,1-2.56-1,4.27,4.27,0,0,1-.89-2.89V61.63h1.15v6.69q0,3,2.43,3a3,3,0,0,0,3.2-2.09v-7.6h1.16V72.14h-1.12Z" transform="translate(-1.79)" style="fill:#bbbdbf"/><path d="M389,66.78a6.29,6.29,0,0,1,1.09-3.9,3.52,3.52,0,0,1,3-1.45,3.64,3.64,0,0,1,3.26,1.71l.06-1.51h1.09V71.92a4.44,4.44,0,0,1-1.14,3.22,4.06,4.06,0,0,1-3.08,1.18,4.62,4.62,0,0,1-2.09-.49,4,4,0,0,1-1.57-1.3l.65-.7a3.68,3.68,0,0,0,2.94,1.51,3,3,0,0,0,2.27-.86,3.44,3.44,0,0,0,.84-2.38V70.78a3.76,3.76,0,0,1-3.25,1.55,3.47,3.47,0,0,1-2.93-1.46A6.33,6.33,0,0,1,389,66.94Zm1.17.21a5.45,5.45,0,0,0,.81,3.17,2.62,2.62,0,0,0,2.27,1.16,3.1,3.1,0,0,0,3-1.92V64.51A3.31,3.31,0,0,0,395.13,63a3.2,3.2,0,0,0-1.85-.53A2.64,2.64,0,0,0,391,63.59,5.9,5.9,0,0,0,390.18,67Z" transform="translate(-1.79)" style="fill:#bbbdbf"/><path d="M400.44,58.59a.74.74,0,0,1,.22-.55.72.72,0,0,1,.58-.23.79.79,0,0,1,.59,1.33.8.8,0,0,1-.59.22.75.75,0,0,1-.58-.22A.74.74,0,0,1,400.44,58.59Zm1.37,13.55h-1.16V61.63h1.16Z" transform="translate(-1.79)" style="fill:#bbbdbf"/><path d="M406.08,61.63l0,1.79a4.17,4.17,0,0,1,1.47-1.48,3.84,3.84,0,0,1,2-.51,3.17,3.17,0,0,1,2.52,1,4.34,4.34,0,0,1,.84,2.86v6.9h-1.16V65.23a3.25,3.25,0,0,0-.6-2.1,2.34,2.34,0,0,0-1.88-.69,3,3,0,0,0-1.91.68,4,4,0,0,0-1.23,1.82v7.2H405V61.63Z" transform="translate(-1.79)" style="fill:#bbbdbf"/><path d="M445.53,67.73a5.07,5.07,0,0,1-1.59,3.42,5.3,5.3,0,0,1-3.61,1.18,5,5,0,0,1-2.79-.79,5.17,5.17,0,0,1-1.87-2.23A8,8,0,0,1,435,66V64.18a7.84,7.84,0,0,1,.67-3.34,5.12,5.12,0,0,1,1.89-2.25,5.19,5.19,0,0,1,2.86-.79A5.06,5.06,0,0,1,444,59a5.12,5.12,0,0,1,1.53,3.39h-1.2q-.45-3.6-3.91-3.6a3.71,3.71,0,0,0-3.07,1.44,6.23,6.23,0,0,0-1.14,4V66a6.27,6.27,0,0,0,1.11,3.9,3.59,3.59,0,0,0,3,1.46,4,4,0,0,0,2.82-.9,4.29,4.29,0,0,0,1.18-2.69Z" transform="translate(-1.79)" style="fill:#bbbdbf"/><path d="M447.53,66.73a6.21,6.21,0,0,1,.58-2.73,4.57,4.57,0,0,1,1.66-1.89,4.5,4.5,0,0,1,2.44-.68,4.33,4.33,0,0,1,3.4,1.47,5.66,5.66,0,0,1,1.3,3.9v.25a6.26,6.26,0,0,1-.59,2.74,4.39,4.39,0,0,1-1.65,1.88,4.58,4.58,0,0,1-2.44.66,4.34,4.34,0,0,1-3.4-1.47,5.66,5.66,0,0,1-1.3-3.9Zm1.16.32a4.78,4.78,0,0,0,1,3.09,3.3,3.3,0,0,0,5.11,0,4.93,4.93,0,0,0,1-3.19v-.22a5.48,5.48,0,0,0-.44-2.21A3.61,3.61,0,0,0,454.05,63a3.22,3.22,0,0,0-1.84-.55,3.13,3.13,0,0,0-2.54,1.22,5,5,0,0,0-1,3.19Z" transform="translate(-1.79)" style="fill:#bbbdbf"/><path d="M460.42,61.63l0,1.79a4.17,4.17,0,0,1,1.47-1.48,3.84,3.84,0,0,1,1.95-.51,3.17,3.17,0,0,1,2.52,1,4.34,4.34,0,0,1,.84,2.86v6.9h-1.16V65.23a3.25,3.25,0,0,0-.6-2.1,2.34,2.34,0,0,0-1.88-.69,3,3,0,0,0-1.91.68,4,4,0,0,0-1.23,1.82v7.2h-1.15V61.63Z" transform="translate(-1.79)" style="fill:#bbbdbf"/><path d="M472,58.94v2.69h2.18v.95H472v7a2.18,2.18,0,0,0,.32,1.3,1.21,1.21,0,0,0,1.05.43,6.59,6.59,0,0,0,.95-.1l0,1a3.73,3.73,0,0,1-1.24.16,2.09,2.09,0,0,1-1.74-.69,3.32,3.32,0,0,1-.54-2v-7H469v-.95h1.93V58.94Z" transform="translate(-1.79)" style="fill:#bbbdbf"/><path d="M476.56,58.59a.77.77,0,0,1,.21-.55.75.75,0,0,1,.59-.23.79.79,0,0,1,.59,1.33.8.8,0,0,1-.59.22.78.78,0,0,1-.59-.22A.77.77,0,0,1,476.56,58.59Zm1.37,13.55h-1.16V61.63h1.16Z" transform="translate(-1.79)" style="fill:#bbbdbf"/><path d="M482.2,61.63l0,1.79a4.28,4.28,0,0,1,1.48-1.48,3.84,3.84,0,0,1,2-.51,3.17,3.17,0,0,1,2.52,1,4.28,4.28,0,0,1,.83,2.86v6.9h-1.15V65.23a3.25,3.25,0,0,0-.6-2.1,2.34,2.34,0,0,0-1.88-.69,3,3,0,0,0-1.91.68,4,4,0,0,0-1.23,1.82v7.2h-1.15V61.63Z" transform="translate(-1.79)" style="fill:#bbbdbf"/><path d="M498.78,70.81a3.79,3.79,0,0,1-3.35,1.52,3.23,3.23,0,0,1-2.56-1,4.27,4.27,0,0,1-.89-2.89V61.63h1.15v6.69q0,3,2.43,3a3,3,0,0,0,3.2-2.09v-7.6h1.16V72.14H498.8Z" transform="translate(-1.79)" style="fill:#bbbdbf"/><path d="M502.3,66.73a6.21,6.21,0,0,1,.59-2.73,4.43,4.43,0,0,1,4.1-2.57,4.34,4.34,0,0,1,3.4,1.47,5.7,5.7,0,0,1,1.3,3.9v.25a6.26,6.26,0,0,1-.59,2.74,4.35,4.35,0,0,1-1.66,1.88,4.53,4.53,0,0,1-2.44.66,4.32,4.32,0,0,1-3.39-1.47A5.66,5.66,0,0,1,502.3,67Zm1.17.32a4.73,4.73,0,0,0,1,3.09A3.11,3.11,0,0,0,507,71.35a3.14,3.14,0,0,0,2.56-1.21,4.93,4.93,0,0,0,1-3.19v-.22a5.32,5.32,0,0,0-.45-2.21A3.52,3.52,0,0,0,508.83,63a3.24,3.24,0,0,0-1.84-.55,3.11,3.11,0,0,0-2.54,1.22,5,5,0,0,0-1,3.19Z" transform="translate(-1.79)" style="fill:#bbbdbf"/><path d="M520.85,70.81a3.79,3.79,0,0,1-3.35,1.52,3.23,3.23,0,0,1-2.56-1,4.27,4.27,0,0,1-.89-2.89V61.63h1.15v6.69q0,3,2.43,3a3,3,0,0,0,3.2-2.09v-7.6H522V72.14h-1.12Z" transform="translate(-1.79)" style="fill:#bbbdbf"/><path d="M531.31,69.47a1.66,1.66,0,0,0-.69-1.39,5.33,5.33,0,0,0-2.1-.82,10,10,0,0,1-2.17-.68,3,3,0,0,1-1.15-.94,2.42,2.42,0,0,1-.37-1.34,2.52,2.52,0,0,1,1-2.06,4.19,4.19,0,0,1,2.66-.81,4.32,4.32,0,0,1,2.82.87,2.8,2.8,0,0,1,1.07,2.27h-1.17a1.87,1.87,0,0,0-.77-1.53,3.47,3.47,0,0,0-3.79-.11,1.58,1.58,0,0,0-.69,1.33,1.45,1.45,0,0,0,.57,1.22,6.14,6.14,0,0,0,2.11.79A9.64,9.64,0,0,1,531,67a3.06,3.06,0,0,1,1.13,1,2.55,2.55,0,0,1,.37,1.39,2.51,2.51,0,0,1-1.08,2.12,4.52,4.52,0,0,1-2.8.8,4.68,4.68,0,0,1-3-.89,2.73,2.73,0,0,1-1.14-2.25h1.17a2,2,0,0,0,.86,1.59,3.47,3.47,0,0,0,2.09.57,3.34,3.34,0,0,0,2-.53A1.61,1.61,0,0,0,531.31,69.47Z" transform="translate(-1.79)" style="fill:#bbbdbf"/><path d="M541.65,72.14h-1.19V58h1.19Z" transform="translate(-1.79)" style="fill:#bbbdbf"/><path d="M546.33,61.63l0,1.79a4.17,4.17,0,0,1,1.47-1.48,3.85,3.85,0,0,1,2-.51,3.16,3.16,0,0,1,2.51,1,4.34,4.34,0,0,1,.84,2.86v6.9H552V65.23a3.25,3.25,0,0,0-.6-2.1,2.34,2.34,0,0,0-1.88-.69,3,3,0,0,0-1.91.68,3.89,3.89,0,0,0-1.22,1.82v7.2h-1.16V61.63Z" transform="translate(-1.79)" style="fill:#bbbdbf"/><path d="M558,58.94v2.69h2.17v.95H558v7a2.19,2.19,0,0,0,.31,1.3,1.21,1.21,0,0,0,1.05.43,6.59,6.59,0,0,0,.95-.1l.05,1a3.83,3.83,0,0,1-1.25.16,2.1,2.1,0,0,1-1.74-.69,3.32,3.32,0,0,1-.54-2v-7h-1.93v-.95h1.93V58.94Z" transform="translate(-1.79)" style="fill:#bbbdbf"/><path d="M566.61,72.33a4.56,4.56,0,0,1-2.42-.66,4.43,4.43,0,0,1-1.69-1.84,5.77,5.77,0,0,1-.6-2.65v-.42a6.14,6.14,0,0,1,.59-2.72,4.62,4.62,0,0,1,1.63-1.91,4,4,0,0,1,2.28-.7,3.8,3.8,0,0,1,3,1.31,5.29,5.29,0,0,1,1.12,3.57V67h-7.49v.22a4.42,4.42,0,0,0,1,3,3.26,3.26,0,0,0,2.58,1.19,3.77,3.77,0,0,0,1.65-.34,3.73,3.73,0,0,0,1.29-1.09l.73.56A4.24,4.24,0,0,1,566.61,72.33Zm-.21-9.91a2.9,2.9,0,0,0-2.21,1,4.49,4.49,0,0,0-1.1,2.59h6.31v-.13a3.78,3.78,0,0,0-.87-2.46A2.65,2.65,0,0,0,566.4,62.42Z" transform="translate(-1.79)" style="fill:#bbbdbf"/><path d="M572.35,66.78a6.36,6.36,0,0,1,1.09-3.9,3.52,3.52,0,0,1,3-1.45,3.67,3.67,0,0,1,3.27,1.71l.05-1.51h1.09V71.92a4.48,4.48,0,0,1-1.13,3.22,4.08,4.08,0,0,1-3.08,1.18,4.66,4.66,0,0,1-2.1-.49,4.12,4.12,0,0,1-1.57-1.3l.66-.7a3.67,3.67,0,0,0,2.93,1.51,3,3,0,0,0,2.27-.86,3.4,3.4,0,0,0,.85-2.38V70.78a3.78,3.78,0,0,1-3.26,1.55,3.49,3.49,0,0,1-2.93-1.46,6.33,6.33,0,0,1-1.11-3.93Zm1.18.21a5.53,5.53,0,0,0,.8,3.17,2.63,2.63,0,0,0,2.28,1.16,3.11,3.11,0,0,0,3-1.92V64.51A3.39,3.39,0,0,0,578.47,63a3.19,3.19,0,0,0-1.84-.53,2.67,2.67,0,0,0-2.29,1.15A5.91,5.91,0,0,0,573.53,67Z" transform="translate(-1.79)" style="fill:#bbbdbf"/><path d="M588.71,62.62a4,4,0,0,0-.79-.07,2.82,2.82,0,0,0-1.84.61A3.29,3.29,0,0,0,585,64.92v7.22h-1.16V61.63H585l0,1.67a3.08,3.08,0,0,1,3-1.87,1.81,1.81,0,0,1,.77.13Z" transform="translate(-1.79)" style="fill:#bbbdbf"/><path d="M596.79,72.14a5.71,5.71,0,0,1-.22-1.47A4.11,4.11,0,0,1,595,71.9a4.75,4.75,0,0,1-2,.43,3.54,3.54,0,0,1-2.45-.84,2.79,2.79,0,0,1-.94-2.14,2.83,2.83,0,0,1,1.28-2.43,6.11,6.11,0,0,1,3.56-.89h2.11v-1.2a2.28,2.28,0,0,0-.7-1.77,2.85,2.85,0,0,0-2-.65,3.14,3.14,0,0,0-2,.63,1.84,1.84,0,0,0-.8,1.49h-1.16A2.69,2.69,0,0,1,591,62.35a4.51,4.51,0,0,1,2.87-.92,4.07,4.07,0,0,1,2.77.88,3.15,3.15,0,0,1,1.05,2.45v5A6.06,6.06,0,0,0,598,72v.12Zm-3.65-.84a3.93,3.93,0,0,0,2.08-.56,3.31,3.31,0,0,0,1.34-1.51V66.92h-2.08a5.18,5.18,0,0,0-2.72.64,1.91,1.91,0,0,0-1,1.69,1.88,1.88,0,0,0,.66,1.47A2.44,2.44,0,0,0,593.14,71.3Z" transform="translate(-1.79)" style="fill:#bbbdbf"/><path d="M602.62,58.94v2.69h2.18v.95h-2.18v7a2.18,2.18,0,0,0,.32,1.3,1.21,1.21,0,0,0,1,.43,6.49,6.49,0,0,0,.94-.1l.05,1a3.77,3.77,0,0,1-1.24.16,2.07,2.07,0,0,1-1.74-.69,3.32,3.32,0,0,1-.55-2v-7h-1.93v-.95h1.93V58.94Z" transform="translate(-1.79)" style="fill:#bbbdbf"/><path d="M607.14,58.59a.77.77,0,0,1,.21-.55.73.73,0,0,1,.58-.23.79.79,0,0,1,.59,1.33.77.77,0,0,1-.59.22.76.76,0,0,1-.58-.22A.77.77,0,0,1,607.14,58.59Zm1.37,13.55h-1.17V61.63h1.17Z" transform="translate(-1.79)" style="fill:#bbbdbf"/><path d="M611,66.73a6.21,6.21,0,0,1,.59-2.73,4.43,4.43,0,0,1,4.1-2.57,4.31,4.31,0,0,1,3.39,1.47,5.66,5.66,0,0,1,1.31,3.9v.25a6.26,6.26,0,0,1-.59,2.74,4.35,4.35,0,0,1-1.66,1.88,4.52,4.52,0,0,1-2.43.66,4.33,4.33,0,0,1-3.4-1.47A5.66,5.66,0,0,1,611,67Zm1.17.32a4.73,4.73,0,0,0,1,3.09,3.29,3.29,0,0,0,5.1,0,4.88,4.88,0,0,0,1-3.19v-.22a5.32,5.32,0,0,0-.45-2.21A3.52,3.52,0,0,0,617.55,63a3.24,3.24,0,0,0-1.84-.55,3.11,3.11,0,0,0-2.54,1.22,5,5,0,0,0-1,3.19Z" transform="translate(-1.79)" style="fill:#bbbdbf"/><path d="M623.91,61.63l0,1.79a4.28,4.28,0,0,1,1.48-1.48,3.84,3.84,0,0,1,2-.51,3.17,3.17,0,0,1,2.52,1,4.28,4.28,0,0,1,.83,2.86v6.9h-1.15V65.23a3.25,3.25,0,0,0-.6-2.1,2.34,2.34,0,0,0-1.88-.69,2.94,2.94,0,0,0-1.91.68A4,4,0,0,0,624,64.94v7.2h-1.15V61.63Z" transform="translate(-1.79)" style="fill:#bbbdbf"/><path d="M653.36,72.14V58h3.95a6.14,6.14,0,0,1,3.12.8,5.4,5.4,0,0,1,2.15,2.26,7.11,7.11,0,0,1,.77,3.36v1.31a7.17,7.17,0,0,1-.76,3.36,5.56,5.56,0,0,1-2.17,2.26,6.33,6.33,0,0,1-3.2.8ZM654.55,59V71.13h2.68a4.63,4.63,0,0,0,3.59-1.49,5.71,5.71,0,0,0,1.35-4V64.39a5.63,5.63,0,0,0-1.33-3.91A4.56,4.56,0,0,0,657.33,59Z" transform="translate(-1.79)" style="fill:#bbbdbf"/><path d="M670.18,72.33a4.56,4.56,0,0,1-2.42-.66,4.49,4.49,0,0,1-1.69-1.84,5.77,5.77,0,0,1-.6-2.65v-.42a6.14,6.14,0,0,1,.59-2.72,4.7,4.7,0,0,1,1.63-1.91,4,4,0,0,1,2.28-.7,3.79,3.79,0,0,1,3,1.31,5.29,5.29,0,0,1,1.13,3.57V67h-7.5v.22a4.42,4.42,0,0,0,1,3,3.26,3.26,0,0,0,2.58,1.19,3.77,3.77,0,0,0,1.65-.34,3.73,3.73,0,0,0,1.29-1.09l.73.56A4.24,4.24,0,0,1,670.18,72.33ZM670,62.42a2.9,2.9,0,0,0-2.21,1A4.42,4.42,0,0,0,666.67,66H673v-.13a3.78,3.78,0,0,0-.87-2.46A2.65,2.65,0,0,0,670,62.42Z" transform="translate(-1.79)" style="fill:#bbbdbf"/><path d="M680.46,72.33a4.53,4.53,0,0,1-2.42-.66,4.43,4.43,0,0,1-1.69-1.84,5.77,5.77,0,0,1-.6-2.65v-.42a6,6,0,0,1,.59-2.72A4.62,4.62,0,0,1,678,62.13a4,4,0,0,1,2.28-.7,3.8,3.8,0,0,1,3,1.31,5.29,5.29,0,0,1,1.12,3.57V67h-7.5v.22a4.42,4.42,0,0,0,1,3,3.26,3.26,0,0,0,2.58,1.19,3.45,3.45,0,0,0,2.94-1.43l.73.56A4.26,4.26,0,0,1,680.46,72.33Zm-.21-9.91a2.89,2.89,0,0,0-2.21,1,4.49,4.49,0,0,0-1.1,2.59h6.31v-.13a3.84,3.84,0,0,0-.87-2.46A2.65,2.65,0,0,0,680.25,62.42Z" transform="translate(-1.79)" style="fill:#bbbdbf"/><path d="M695.12,67a6.36,6.36,0,0,1-1.09,3.9,3.48,3.48,0,0,1-2.91,1.44,3.91,3.91,0,0,1-3.31-1.51v5.36h-1.15V61.63h1.07l.06,1.48a3.74,3.74,0,0,1,3.3-1.68A3.49,3.49,0,0,1,694,62.86a6.43,6.43,0,0,1,1.08,4ZM694,66.78a5.37,5.37,0,0,0-.82-3.17,2.67,2.67,0,0,0-2.31-1.17A3.15,3.15,0,0,0,689,63a3.23,3.23,0,0,0-1.18,1.49v5a3,3,0,0,0,1.2,1.38,3.4,3.4,0,0,0,1.83.48,2.64,2.64,0,0,0,2.29-1.17A5.87,5.87,0,0,0,694,66.78Z" transform="translate(-1.79)" style="fill:#bbbdbf"/><path d="M704,71.13h7v1H702.8V58H704Z" transform="translate(-1.79)" style="fill:#bbbdbf"/><path d="M712.94,58.59a.74.74,0,0,1,.22-.55.72.72,0,0,1,.58-.23.75.75,0,0,1,.59.23.77.77,0,0,1-.59,1.32.75.75,0,0,1-.58-.22A.74.74,0,0,1,712.94,58.59Zm1.37,13.55h-1.16V61.63h1.16Z" transform="translate(-1.79)" style="fill:#bbbdbf"/><path d="M718.58,61.63l0,1.79a4.17,4.17,0,0,1,1.47-1.48,3.85,3.85,0,0,1,2-.51,3.16,3.16,0,0,1,2.51,1,4.34,4.34,0,0,1,.84,2.86v6.9h-1.16V65.23a3.25,3.25,0,0,0-.6-2.1,2.34,2.34,0,0,0-1.88-.69,3,3,0,0,0-1.91.68,3.89,3.89,0,0,0-1.22,1.82v7.2h-1.16V61.63Z" transform="translate(-1.79)" style="fill:#bbbdbf"/><path d="M730.89,66.84l-1.33,1.28v4H728.4V57.22h1.16v9.54l1.1-1.18,4-3.95h1.47l-4.46,4.43,4.85,6.08h-1.39Z" transform="translate(-1.79)" style="fill:#bbbdbf"/><path d="M744.44,69.47a1.67,1.67,0,0,0-.7-1.39,5.22,5.22,0,0,0-2.09-.82,9.82,9.82,0,0,1-2.17-.68,2.91,2.91,0,0,1-1.15-.94A2.34,2.34,0,0,1,738,64.3a2.49,2.49,0,0,1,1-2.06,4.19,4.19,0,0,1,2.66-.81,4.32,4.32,0,0,1,2.82.87,2.79,2.79,0,0,1,1.06,2.27h-1.16A1.85,1.85,0,0,0,743.6,63a3.45,3.45,0,0,0-3.78-.11,1.56,1.56,0,0,0-.7,1.33,1.43,1.43,0,0,0,.58,1.22,6.14,6.14,0,0,0,2.11.79,9.54,9.54,0,0,1,2.29.77,2.9,2.9,0,0,1,1.13,1,2.46,2.46,0,0,1,.37,1.39,2.52,2.52,0,0,1-1.07,2.12,4.53,4.53,0,0,1-2.8.8,4.66,4.66,0,0,1-3-.89,2.73,2.73,0,0,1-1.14-2.25h1.16a2,2,0,0,0,.86,1.59,3.53,3.53,0,0,0,2.1.57,3.36,3.36,0,0,0,2-.53A1.61,1.61,0,0,0,744.44,69.47Z" transform="translate(-1.79)" style="fill:#bbbdbf"/><path d="M767.84,72.14V58h3.95a6.14,6.14,0,0,1,3.12.8,5.4,5.4,0,0,1,2.15,2.26,7.23,7.23,0,0,1,.77,3.36v1.31a7.05,7.05,0,0,1-.77,3.36,5.48,5.48,0,0,1-2.16,2.26,6.33,6.33,0,0,1-3.2.8ZM769,59V71.13h2.68a4.63,4.63,0,0,0,3.59-1.49,5.71,5.71,0,0,0,1.35-4V64.39a5.63,5.63,0,0,0-1.33-3.91A4.56,4.56,0,0,0,771.81,59Z" transform="translate(-1.79)" style="fill:#bbbdbf"/><path d="M784.66,72.33a4.56,4.56,0,0,1-2.42-.66,4.49,4.49,0,0,1-1.69-1.84,5.77,5.77,0,0,1-.6-2.65v-.42a6.14,6.14,0,0,1,.59-2.72,4.7,4.7,0,0,1,1.63-1.91,4,4,0,0,1,2.28-.7,3.8,3.8,0,0,1,3,1.31,5.29,5.29,0,0,1,1.12,3.57V67h-7.49v.22a4.42,4.42,0,0,0,1,3,3.26,3.26,0,0,0,2.58,1.19,3.77,3.77,0,0,0,1.65-.34,3.73,3.73,0,0,0,1.29-1.09l.73.56A4.24,4.24,0,0,1,784.66,72.33Zm-.21-9.91a2.9,2.9,0,0,0-2.21,1A4.42,4.42,0,0,0,781.15,66h6.3v-.13a3.78,3.78,0,0,0-.87-2.46A2.65,2.65,0,0,0,784.45,62.42Z" transform="translate(-1.79)" style="fill:#bbbdbf"/><path d="M799.32,67a6.29,6.29,0,0,1-1.09,3.9,3.46,3.46,0,0,1-2.91,1.44,3.87,3.87,0,0,1-3.3-1.51v5.36h-1.16V61.63h1.08l.06,1.48a3.71,3.71,0,0,1,3.29-1.68,3.52,3.52,0,0,1,3,1.43,6.49,6.49,0,0,1,1.07,4Zm-1.17-.21a5.37,5.37,0,0,0-.82-3.17,2.66,2.66,0,0,0-2.3-1.17,3.16,3.16,0,0,0-1.84.52A3.21,3.21,0,0,0,792,64.45v5a2.94,2.94,0,0,0,1.19,1.38,3.43,3.43,0,0,0,1.84.48,2.63,2.63,0,0,0,2.28-1.17A5.87,5.87,0,0,0,798.15,66.78Z" transform="translate(-1.79)" style="fill:#bbbdbf"/><path d="M806,72.33a4.52,4.52,0,0,1-4.11-2.5,5.77,5.77,0,0,1-.6-2.65v-.42a6.14,6.14,0,0,1,.59-2.72,4.65,4.65,0,0,1,1.64-1.91,4,4,0,0,1,2.27-.7,3.81,3.81,0,0,1,3,1.31,5.34,5.34,0,0,1,1.12,3.57V67h-7.5v.22a4.42,4.42,0,0,0,1,3A3.29,3.29,0,0,0,806,71.35a3.77,3.77,0,0,0,1.65-.34,3.67,3.67,0,0,0,1.3-1.09l.72.56A4.24,4.24,0,0,1,806,72.33Zm-.21-9.91a2.92,2.92,0,0,0-2.21,1A4.49,4.49,0,0,0,802.45,66h6.3v-.13a3.83,3.83,0,0,0-.86-2.46A2.68,2.68,0,0,0,805.75,62.42Z" transform="translate(-1.79)" style="fill:#bbbdbf"/><path d="M813.28,61.63l0,1.79a4.17,4.17,0,0,1,1.47-1.48,3.85,3.85,0,0,1,2-.51,3.16,3.16,0,0,1,2.51,1,4.34,4.34,0,0,1,.84,2.86v6.9h-1.16V65.23a3.13,3.13,0,0,0-.6-2.1,2.33,2.33,0,0,0-1.88-.69,2.93,2.93,0,0,0-1.9.68,3.84,3.84,0,0,0-1.23,1.82v7.2h-1.16V61.63Z" transform="translate(-1.79)" style="fill:#bbbdbf"/><path d="M822.63,66.78a6.33,6.33,0,0,1,1.1-3.9,3.51,3.51,0,0,1,3-1.45,3.67,3.67,0,0,1,3.25,1.68V57.22h1.15V72.14H830l0-1.4a3.77,3.77,0,0,1-3.29,1.59,3.5,3.5,0,0,1-2.92-1.46,6.33,6.33,0,0,1-1.12-4Zm1.18.21a5.45,5.45,0,0,0,.81,3.17,2.6,2.6,0,0,0,2.27,1.16,3.13,3.13,0,0,0,3.05-1.89V64.49a3.1,3.1,0,0,0-3-2,2.67,2.67,0,0,0-2.29,1.15A5.91,5.91,0,0,0,823.81,67Z" transform="translate(-1.79)" style="fill:#bbbdbf"/><path d="M838.23,72.33a4.57,4.57,0,0,1-2.43-.66,4.47,4.47,0,0,1-1.68-1.84,5.65,5.65,0,0,1-.61-2.65v-.42A6.14,6.14,0,0,1,834.1,64a4.65,4.65,0,0,1,1.64-1.91,4,4,0,0,1,2.27-.7,3.81,3.81,0,0,1,3,1.31,5.34,5.34,0,0,1,1.12,3.57V67h-7.5v.22a4.42,4.42,0,0,0,1,3,3.29,3.29,0,0,0,2.58,1.19,3.74,3.74,0,0,0,1.65-.34,3.67,3.67,0,0,0,1.3-1.09l.72.56A4.23,4.23,0,0,1,838.23,72.33ZM838,62.42a2.92,2.92,0,0,0-2.21,1A4.49,4.49,0,0,0,834.71,66H841v-.13a3.83,3.83,0,0,0-.86-2.46A2.68,2.68,0,0,0,838,62.42Z" transform="translate(-1.79)" style="fill:#bbbdbf"/><path d="M845.54,61.63l0,1.79a4.25,4.25,0,0,1,1.47-1.48,3.85,3.85,0,0,1,2-.51,3.16,3.16,0,0,1,2.51,1,4.34,4.34,0,0,1,.84,2.86v6.9H851.2V65.23a3.13,3.13,0,0,0-.6-2.1,2.32,2.32,0,0,0-1.87-.69,2.94,2.94,0,0,0-1.91.68,3.84,3.84,0,0,0-1.23,1.82v7.2h-1.16V61.63Z" transform="translate(-1.79)" style="fill:#bbbdbf"/><path d="M859.25,71.35a3.09,3.09,0,0,0,2-.68,2.43,2.43,0,0,0,.89-1.78h1.12a3.47,3.47,0,0,1-.6,1.76,3.73,3.73,0,0,1-1.48,1.23,4.37,4.37,0,0,1-2,.45A4.05,4.05,0,0,1,856,70.89,5.78,5.78,0,0,1,854.76,67v-.35a6.58,6.58,0,0,1,.54-2.75,4.25,4.25,0,0,1,1.56-1.85,4.35,4.35,0,0,1,2.38-.65,4.09,4.09,0,0,1,2.85,1,3.75,3.75,0,0,1,1.2,2.71h-1.12a2.82,2.82,0,0,0-2.93-2.75,2.91,2.91,0,0,0-2.45,1.14,5.15,5.15,0,0,0-.87,3.19v.33a5,5,0,0,0,.87,3.14A2.93,2.93,0,0,0,859.25,71.35Z" transform="translate(-1.79)" style="fill:#bbbdbf"/><path d="M868.94,70.47,872,61.63h1.25l-4.48,12.29-.24.55a2.81,2.81,0,0,1-2.67,1.91,3.19,3.19,0,0,1-.89-.13v-1l.6.06a2.14,2.14,0,0,0,1.38-.42,3.12,3.12,0,0,0,.9-1.45l.52-1.42-4-10.42h1.28Z" transform="translate(-1.79)" style="fill:#bbbdbf"/><path d="M889.38,59h-4.85V72.14h-1.19V59H878.5V58h10.88Z" transform="translate(-1.79)" style="fill:#bbbdbf"/><path d="M896.93,72.14a5.63,5.63,0,0,1-.23-1.47,4,4,0,0,1-1.56,1.23,4.73,4.73,0,0,1-2,.43,3.52,3.52,0,0,1-2.45-.84,2.76,2.76,0,0,1-.94-2.14A2.81,2.81,0,0,1,891,66.92a6.09,6.09,0,0,1,3.56-.89h2.1v-1.2a2.3,2.3,0,0,0-.69-1.77,2.88,2.88,0,0,0-2-.65,3.14,3.14,0,0,0-2,.63,1.83,1.83,0,0,0-.79,1.49H890a2.7,2.7,0,0,1,1.17-2.17,4.48,4.48,0,0,1,2.86-.92,4.1,4.1,0,0,1,2.78.88,3.17,3.17,0,0,1,1,2.45v5a6.28,6.28,0,0,0,.32,2.28v.12Zm-3.66-.84a4,4,0,0,0,2.09-.56,3.29,3.29,0,0,0,1.33-1.51V66.92h-2.08a5.16,5.16,0,0,0-2.71.64,2,2,0,0,0-.33,3.16A2.45,2.45,0,0,0,893.27,71.3Z" transform="translate(-1.79)" style="fill:#bbbdbf"/><path d="M909.41,67a6.29,6.29,0,0,1-1.09,3.9,3.47,3.47,0,0,1-2.92,1.44,3.76,3.76,0,0,1-3.32-1.63L902,72.14h-1.09V57.22h1.16v5.93a3.63,3.63,0,0,1,3.28-1.72,3.53,3.53,0,0,1,3,1.43,6.37,6.37,0,0,1,1.08,4Zm-1.17-.21a5.48,5.48,0,0,0-.8-3.21,2.65,2.65,0,0,0-2.28-1.13,3.17,3.17,0,0,0-1.89.55,3.29,3.29,0,0,0-1.17,1.61v4.74a3.11,3.11,0,0,0,3.08,2,2.61,2.61,0,0,0,2.25-1.14A5.84,5.84,0,0,0,908.24,66.78Z" transform="translate(-1.79)" style="fill:#bbbdbf"/><path d="M913.28,72.14h-1.17V57.22h1.17Z" transform="translate(-1.79)" style="fill:#bbbdbf"/><path d="M920.5,72.33a4.56,4.56,0,0,1-2.42-.66,4.49,4.49,0,0,1-1.69-1.84,5.77,5.77,0,0,1-.6-2.65v-.42a6.14,6.14,0,0,1,.59-2.72A4.65,4.65,0,0,1,918,62.13a4,4,0,0,1,2.27-.7,3.79,3.79,0,0,1,3,1.31,5.29,5.29,0,0,1,1.13,3.57V67H917v.22a4.42,4.42,0,0,0,1,3,3.26,3.26,0,0,0,2.58,1.19A3.77,3.77,0,0,0,922.2,71a3.73,3.73,0,0,0,1.29-1.09l.73.56A4.24,4.24,0,0,1,920.5,72.33Zm-.21-9.91a2.9,2.9,0,0,0-2.21,1A4.42,4.42,0,0,0,917,66h6.3v-.13a3.83,3.83,0,0,0-.86-2.46A2.68,2.68,0,0,0,920.29,62.42Z" transform="translate(-1.79)" style="fill:#bbbdbf"/><path d="M1.79,114.37V100.23h4a6.13,6.13,0,0,1,3.12.79A5.42,5.42,0,0,1,11,103.29a7.05,7.05,0,0,1,.77,3.36V108a7.17,7.17,0,0,1-.76,3.36,5.53,5.53,0,0,1-2.17,2.27,6.33,6.33,0,0,1-3.2.79ZM3,101.24v12.12H5.66a4.62,4.62,0,0,0,3.59-1.48,5.74,5.74,0,0,0,1.35-4v-1.24a5.63,5.63,0,0,0-1.33-3.91,4.56,4.56,0,0,0-3.51-1.48Z" transform="translate(-1.79)" style="fill:#bbbdbf"/><path d="M14.47,100.83a.76.76,0,0,1,.22-.56.75.75,0,0,1,.58-.23.79.79,0,0,1,.59.23.8.8,0,0,1,.22.56.75.75,0,0,1-.81.77.75.75,0,0,1-.58-.22A.74.74,0,0,1,14.47,100.83Zm1.37,13.54H14.68V103.86h1.16Z" transform="translate(-1.79)" style="fill:#bbbdbf"/><path d="M25.64,114.37a5.22,5.22,0,0,1-.23-1.46,4,4,0,0,1-1.56,1.22,4.74,4.74,0,0,1-2,.44,3.52,3.52,0,0,1-2.46-.85,2.75,2.75,0,0,1-.93-2.14,2.79,2.79,0,0,1,1.27-2.42,6.13,6.13,0,0,1,3.56-.9H25.4v-1.19a2.34,2.34,0,0,0-.69-1.78,2.89,2.89,0,0,0-2-.64,3.19,3.19,0,0,0-2,.62,1.85,1.85,0,0,0-.79,1.5H18.71a2.69,2.69,0,0,1,1.17-2.17,4.42,4.42,0,0,1,2.86-.92,4.06,4.06,0,0,1,2.77.88,3.13,3.13,0,0,1,1,2.45v5a6.3,6.3,0,0,0,.32,2.29v.11ZM22,113.54a3.9,3.9,0,0,0,2.09-.57,3.27,3.27,0,0,0,1.33-1.5v-2.31H23.32a5.21,5.21,0,0,0-2.72.63,1.92,1.92,0,0,0-1,1.7,1.88,1.88,0,0,0,.66,1.47A2.5,2.5,0,0,0,22,113.54Z" transform="translate(-1.79)" style="fill:#bbbdbf"/><path d="M29.19,109a6.39,6.39,0,0,1,1.09-3.91,3.53,3.53,0,0,1,3-1.44,3.67,3.67,0,0,1,3.27,1.71l0-1.52h1.09v10.3a4.48,4.48,0,0,1-1.14,3.22,4,4,0,0,1-3.07,1.18,4.66,4.66,0,0,1-2.1-.49,4.14,4.14,0,0,1-1.57-1.31l.65-.7a3.7,3.7,0,0,0,2.94,1.52,3,3,0,0,0,2.27-.86,3.4,3.4,0,0,0,.85-2.39V113a3.76,3.76,0,0,1-3.26,1.56,3.5,3.5,0,0,1-2.93-1.46,6.33,6.33,0,0,1-1.11-3.93Zm1.18.2a5.48,5.48,0,0,0,.8,3.18,2.63,2.63,0,0,0,2.28,1.16,3.11,3.11,0,0,0,3-1.93v-4.88a3.34,3.34,0,0,0-1.18-1.54,3.13,3.13,0,0,0-1.85-.53,2.64,2.64,0,0,0-2.28,1.15A5.89,5.89,0,0,0,30.37,109.22Z" transform="translate(-1.79)" style="fill:#bbbdbf"/><path d="M45.55,104.85a5,5,0,0,0-.79-.06,2.87,2.87,0,0,0-1.84.6,3.31,3.31,0,0,0-1.07,1.77v7.21H40.69V103.86h1.14l0,1.67a3.08,3.08,0,0,1,3-1.86,2,2,0,0,1,.77.12Z" transform="translate(-1.79)" style="fill:#bbbdbf"/><path d="M53.63,114.37a5.28,5.28,0,0,1-.22-1.46,4,4,0,0,1-1.56,1.22,4.75,4.75,0,0,1-2,.44,3.48,3.48,0,0,1-2.45-.85,2.73,2.73,0,0,1-.94-2.14,2.8,2.8,0,0,1,1.28-2.42,6.1,6.1,0,0,1,3.56-.9H53.4v-1.19a2.31,2.31,0,0,0-.7-1.78,2.87,2.87,0,0,0-2-.64,3.19,3.19,0,0,0-2,.62,1.86,1.86,0,0,0-.8,1.5H46.71a2.68,2.68,0,0,1,1.16-2.17,4.45,4.45,0,0,1,2.87-.92,4.07,4.07,0,0,1,2.77.88,3.13,3.13,0,0,1,1,2.45v5a6.3,6.3,0,0,0,.32,2.29v.11ZM50,113.54a3.84,3.84,0,0,0,2.08-.57,3.29,3.29,0,0,0,1.34-1.5v-2.31H51.32a5.18,5.18,0,0,0-2.72.63,2,2,0,0,0-.33,3.17A2.53,2.53,0,0,0,50,113.54Z" transform="translate(-1.79)" style="fill:#bbbdbf"/><path d="M58.71,103.86l0,1.71a3.92,3.92,0,0,1,1.46-1.43,4.06,4.06,0,0,1,1.94-.47,3,3,0,0,1,3.16,2,3.82,3.82,0,0,1,1.5-1.51,4.1,4.1,0,0,1,2.08-.53c2.26,0,3.4,1.23,3.45,3.69v7H71.17v-6.92a3.09,3.09,0,0,0-.6-2.09,2.49,2.49,0,0,0-1.95-.68,3.07,3.07,0,0,0-2.12.81,2.88,2.88,0,0,0-1,1.93v7H64.37v-7a2.86,2.86,0,0,0-.63-2,2.55,2.55,0,0,0-1.93-.66,3,3,0,0,0-1.88.62,3.64,3.64,0,0,0-1.17,1.87v7.2H57.59V103.86Z" transform="translate(-1.79)" style="fill:#bbbdbf"/><path d="M81.58,111.7a1.64,1.64,0,0,0-.7-1.39,5.37,5.37,0,0,0-2.09-.82,9.31,9.31,0,0,1-2.17-.68,2.83,2.83,0,0,1-1.15-.94,2.32,2.32,0,0,1-.37-1.34,2.51,2.51,0,0,1,1-2,4.19,4.19,0,0,1,2.66-.81,4.32,4.32,0,0,1,2.82.87,2.79,2.79,0,0,1,1.07,2.27H81.52a1.9,1.9,0,0,0-.77-1.54,3.49,3.49,0,0,0-3.79-.1,1.58,1.58,0,0,0-.69,1.33,1.42,1.42,0,0,0,.57,1.21,6.11,6.11,0,0,0,2.11.8,10.08,10.08,0,0,1,2.29.76,3,3,0,0,1,1.14,1,2.59,2.59,0,0,1,.36,1.39,2.5,2.5,0,0,1-1.07,2.13,4.58,4.58,0,0,1-2.8.8,4.72,4.72,0,0,1-3-.89,2.73,2.73,0,0,1-1.14-2.25h1.17a2,2,0,0,0,.85,1.59,3.53,3.53,0,0,0,2.1.57,3.27,3.27,0,0,0,2-.54A1.59,1.59,0,0,0,81.58,111.7Z" transform="translate(-1.79)" style="fill:#bbbdbf"/><path d="M100.92,108.07a8.2,8.2,0,0,1-.68,3.43,5.18,5.18,0,0,1-1.92,2.27,5.31,5.31,0,0,1-2.9.8,5,5,0,0,1-4-1.78A7.05,7.05,0,0,1,89.89,108v-1.46a8,8,0,0,1,.69-3.42,5.1,5.1,0,0,1,1.94-2.29,5.16,5.16,0,0,1,2.88-.8,5.31,5.31,0,0,1,2.88.78,5.2,5.2,0,0,1,1.93,2.23,8,8,0,0,1,.71,3.33Zm-1.2-1.54a6.26,6.26,0,0,0-1.15-4,4.15,4.15,0,0,0-6.31,0,6.28,6.28,0,0,0-1.17,4v1.48a6.29,6.29,0,0,0,1.16,4,4.17,4.17,0,0,0,6.34,0,6.42,6.42,0,0,0,1.13-4Z" transform="translate(-1.79)" style="fill:#bbbdbf"/><path d="M108.52,104.85a5,5,0,0,0-.79-.06,2.85,2.85,0,0,0-1.84.6,3.39,3.39,0,0,0-1.08,1.77v7.21h-1.15V103.86h1.13l0,1.67a3.11,3.11,0,0,1,3-1.86,2,2,0,0,1,.76.12Z" transform="translate(-1.79)" style="fill:#bbbdbf"/><path d="M109.7,109a6.32,6.32,0,0,1,1.09-3.91,3.53,3.53,0,0,1,3-1.44,3.64,3.64,0,0,1,3.26,1.71l.06-1.52h1.09v10.3a4.48,4.48,0,0,1-1.14,3.22,4,4,0,0,1-3.07,1.18,4.66,4.66,0,0,1-2.1-.49,4.14,4.14,0,0,1-1.57-1.31l.65-.7a3.7,3.7,0,0,0,2.94,1.52,3,3,0,0,0,2.27-.86,3.45,3.45,0,0,0,.85-2.39V113a3.76,3.76,0,0,1-3.26,1.56,3.5,3.5,0,0,1-2.93-1.46,6.33,6.33,0,0,1-1.11-3.93Zm1.18.2a5.48,5.48,0,0,0,.8,3.18,2.63,2.63,0,0,0,2.28,1.16,3.11,3.11,0,0,0,3-1.93v-4.88a3.34,3.34,0,0,0-1.18-1.54,3.13,3.13,0,0,0-1.85-.53,2.64,2.64,0,0,0-2.28,1.15A5.89,5.89,0,0,0,110.88,109.22Z" transform="translate(-1.79)" style="fill:#bbbdbf"/><path d="M127.84,114.37a5.62,5.62,0,0,1-.23-1.46,3.86,3.86,0,0,1-1.56,1.22,4.74,4.74,0,0,1-2,.44,3.48,3.48,0,0,1-2.45-.85,2.73,2.73,0,0,1-.94-2.14,2.78,2.78,0,0,1,1.28-2.42,6.08,6.08,0,0,1,3.56-.9h2.1v-1.19a2.34,2.34,0,0,0-.69-1.78,2.88,2.88,0,0,0-2-.64,3.19,3.19,0,0,0-2,.62,1.85,1.85,0,0,0-.79,1.5h-1.17a2.69,2.69,0,0,1,1.17-2.17,4.42,4.42,0,0,1,2.86-.92,4.1,4.1,0,0,1,2.78.88,3.16,3.16,0,0,1,1,2.45v5a6.3,6.3,0,0,0,.32,2.29v.11Zm-3.66-.83a3.88,3.88,0,0,0,2.09-.57,3.27,3.27,0,0,0,1.33-1.5v-2.31h-2.08a5.23,5.23,0,0,0-2.72.63,1.92,1.92,0,0,0-1,1.7,1.88,1.88,0,0,0,.66,1.47A2.5,2.5,0,0,0,124.18,113.54Z" transform="translate(-1.79)" style="fill:#bbbdbf"/><path d="M133,103.86l0,1.8a4.19,4.19,0,0,1,1.48-1.48,3.84,3.84,0,0,1,2-.51,3.17,3.17,0,0,1,2.52,1,4.26,4.26,0,0,1,.83,2.86v6.89h-1.15v-6.9a3.25,3.25,0,0,0-.6-2.1,2.34,2.34,0,0,0-1.88-.69,3,3,0,0,0-1.91.67,4,4,0,0,0-1.23,1.82v7.2h-1.15V103.86Z" transform="translate(-1.79)" style="fill:#bbbdbf"/><path d="M142.72,100.83a.79.79,0,0,1,.21-.56.86.86,0,0,1,1.17,0,.76.76,0,0,1,.22.56.74.74,0,0,1-.22.55.76.76,0,0,1-.58.22.74.74,0,0,1-.8-.77Zm1.37,13.54h-1.17V103.86h1.17Z" transform="translate(-1.79)" style="fill:#bbbdbf"/><path d="M148,113.39h6.83v1h-8.26v-.85l6.37-8.65h-6.18v-1h7.64v.88Z" transform="translate(-1.79)" style="fill:#bbbdbf"/><path d="M163.56,114.37a5.22,5.22,0,0,1-.23-1.46,4,4,0,0,1-1.56,1.22,4.74,4.74,0,0,1-2,.44,3.52,3.52,0,0,1-2.46-.85,2.75,2.75,0,0,1-.93-2.14,2.79,2.79,0,0,1,1.27-2.42,6.13,6.13,0,0,1,3.56-.9h2.11v-1.19a2.34,2.34,0,0,0-.69-1.78,2.89,2.89,0,0,0-2-.64,3.19,3.19,0,0,0-2,.62,1.86,1.86,0,0,0-.8,1.5h-1.16a2.7,2.7,0,0,1,1.16-2.17,4.47,4.47,0,0,1,2.87-.92,4.06,4.06,0,0,1,2.77.88,3.13,3.13,0,0,1,1,2.45v5a6.09,6.09,0,0,0,.32,2.29v.11Zm-3.66-.83A3.9,3.9,0,0,0,162,113a3.27,3.27,0,0,0,1.33-1.5v-2.31h-2.08a5.21,5.21,0,0,0-2.72.63,1.92,1.92,0,0,0-1,1.7,1.88,1.88,0,0,0,.66,1.47A2.5,2.5,0,0,0,159.9,113.54Z" transform="translate(-1.79)" style="fill:#bbbdbf"/><path d="M169.38,101.17v2.69h2.18v1h-2.18v7a2.2,2.2,0,0,0,.32,1.3,1.23,1.23,0,0,0,1.05.43,8.49,8.49,0,0,0,.95-.1l0,.94a3.69,3.69,0,0,1-1.24.17,2.05,2.05,0,0,1-1.74-.7,3.27,3.27,0,0,1-.54-2v-7h-1.93v-1h1.93v-2.69Z" transform="translate(-1.79)" style="fill:#bbbdbf"/><path d="M173.9,100.83a.75.75,0,0,1,.8-.79.77.77,0,0,1,.8.79.74.74,0,0,1-.22.55.76.76,0,0,1-.58.22.78.78,0,0,1-.59-.22A.77.77,0,0,1,173.9,100.83Zm1.37,13.54H174.1V103.86h1.17Z" transform="translate(-1.79)" style="fill:#bbbdbf"/><path d="M177.79,109a6.21,6.21,0,0,1,.58-2.73,4.52,4.52,0,0,1,1.67-1.89,4.44,4.44,0,0,1,2.43-.67,4.33,4.33,0,0,1,3.4,1.47,5.66,5.66,0,0,1,1.3,3.9v.24a6.3,6.3,0,0,1-.59,2.75,4.39,4.39,0,0,1-1.65,1.88,4.58,4.58,0,0,1-2.44.66,4.34,4.34,0,0,1-3.4-1.47,5.69,5.69,0,0,1-1.3-3.9Zm1.16.32a4.79,4.79,0,0,0,1,3.1,3.3,3.3,0,0,0,5.11,0,4.93,4.93,0,0,0,1-3.19V109a5.27,5.27,0,0,0-.44-2.2,3.55,3.55,0,0,0-1.26-1.55,3.29,3.29,0,0,0-4.38.67,4.94,4.94,0,0,0-1,3.19Z" transform="translate(-1.79)" style="fill:#bbbdbf"/><path d="M190.68,103.86l0,1.8a4.09,4.09,0,0,1,1.47-1.48,3.85,3.85,0,0,1,2-.51,3.16,3.16,0,0,1,2.51,1,4.32,4.32,0,0,1,.84,2.86v6.89h-1.16v-6.9a3.25,3.25,0,0,0-.6-2.1,2.34,2.34,0,0,0-1.88-.69,3,3,0,0,0-1.91.67,3.94,3.94,0,0,0-1.22,1.82v7.2h-1.16V103.86Z" transform="translate(-1.79)" style="fill:#bbbdbf"/><path d="M220.12,114.37V100.23h3.95a6.13,6.13,0,0,1,3.12.79,5.42,5.42,0,0,1,2.15,2.27,7.06,7.06,0,0,1,.78,3.36V108a7.17,7.17,0,0,1-.77,3.36,5.44,5.44,0,0,1-2.16,2.27,6.35,6.35,0,0,1-3.2.79Zm1.19-13.13v12.12H224a4.6,4.6,0,0,0,3.58-1.48,5.74,5.74,0,0,0,1.35-4v-1.24a5.58,5.58,0,0,0-1.33-3.91,4.56,4.56,0,0,0-3.51-1.48Z" transform="translate(-1.79)" style="fill:#bbbdbf"/><path d="M232.23,109a6.21,6.21,0,0,1,.59-2.73,4.4,4.4,0,0,1,4.1-2.56,4.34,4.34,0,0,1,3.4,1.47,5.7,5.7,0,0,1,1.3,3.9v.24A6.3,6.3,0,0,1,241,112a4.35,4.35,0,0,1-1.66,1.88,4.52,4.52,0,0,1-2.43.66,4.33,4.33,0,0,1-3.4-1.47,5.69,5.69,0,0,1-1.31-3.9Zm1.17.32a4.74,4.74,0,0,0,1,3.1,3.3,3.3,0,0,0,5.11,0,4.93,4.93,0,0,0,1-3.19V109a5.28,5.28,0,0,0-.45-2.2,3.47,3.47,0,0,0-1.25-1.55,3.17,3.17,0,0,0-1.84-.55,3.11,3.11,0,0,0-2.54,1.22,4.94,4.94,0,0,0-1,3.19Z" transform="translate(-1.79)" style="fill:#bbbdbf"/><path d="M247.9,113.59a3.07,3.07,0,0,0,2-.69,2.46,2.46,0,0,0,.89-1.77h1.11a3.26,3.26,0,0,1-.6,1.75,3.79,3.79,0,0,1-1.47,1.24,4.41,4.41,0,0,1-2,.45,4.06,4.06,0,0,1-3.28-1.44,5.86,5.86,0,0,1-1.21-3.87v-.35a6.57,6.57,0,0,1,.55-2.74,4.13,4.13,0,0,1,1.56-1.85,4.24,4.24,0,0,1,2.37-.65,4,4,0,0,1,2.85,1,3.73,3.73,0,0,1,1.2,2.71h-1.11a3,3,0,0,0-5.38-1.61,5.12,5.12,0,0,0-.87,3.18v.34a5,5,0,0,0,.87,3.14A2.93,2.93,0,0,0,247.9,113.59Z" transform="translate(-1.79)" style="fill:#bbbdbf"/><path d="M261,113a3.78,3.78,0,0,1-3.36,1.53,3.24,3.24,0,0,1-2.55-1,4.27,4.27,0,0,1-.89-2.89v-6.84h1.15v6.7q0,3,2.43,3a3,3,0,0,0,3.2-2.09v-7.61h1.16v10.51h-1.12Z" transform="translate(-1.79)" style="fill:#bbbdbf"/><path d="M271.49,111.7a1.64,1.64,0,0,0-.7-1.39,5.37,5.37,0,0,0-2.09-.82,9.31,9.31,0,0,1-2.17-.68,2.83,2.83,0,0,1-1.15-.94,2.32,2.32,0,0,1-.37-1.34,2.49,2.49,0,0,1,1-2,4.19,4.19,0,0,1,2.66-.81,4.32,4.32,0,0,1,2.82.87,2.79,2.79,0,0,1,1.07,2.27h-1.17a1.9,1.9,0,0,0-.77-1.54,3.49,3.49,0,0,0-3.79-.1,1.59,1.59,0,0,0-.7,1.33,1.43,1.43,0,0,0,.58,1.21,6.11,6.11,0,0,0,2.11.8,10.08,10.08,0,0,1,2.29.76,2.9,2.9,0,0,1,1.13,1,2.7,2.7,0,0,1-.7,3.52,4.6,4.6,0,0,1-2.8.8,4.72,4.72,0,0,1-3-.89,2.73,2.73,0,0,1-1.14-2.25h1.16a2.06,2.06,0,0,0,.86,1.59,3.53,3.53,0,0,0,2.1.57,3.27,3.27,0,0,0,2-.54A1.59,1.59,0,0,0,271.49,111.7Z" transform="translate(-1.79)" style="fill:#bbbdbf"/><path d="M281.9,114.37a5.69,5.69,0,0,1-.22-1.46,4,4,0,0,1-1.56,1.22,4.75,4.75,0,0,1-2,.44,3.5,3.5,0,0,1-2.45-.85,2.76,2.76,0,0,1-.94-2.14,2.8,2.8,0,0,1,1.28-2.42,6.1,6.1,0,0,1,3.56-.9h2.11v-1.19a2.31,2.31,0,0,0-.7-1.78,2.85,2.85,0,0,0-2-.64,3.19,3.19,0,0,0-2,.62,1.86,1.86,0,0,0-.8,1.5H275a2.68,2.68,0,0,1,1.16-2.17,4.45,4.45,0,0,1,2.87-.92,4.07,4.07,0,0,1,2.77.88,3.09,3.09,0,0,1,1,2.45v5a6.05,6.05,0,0,0,.33,2.29v.11Zm-3.65-.83a3.84,3.84,0,0,0,2.08-.57,3.29,3.29,0,0,0,1.34-1.5v-2.31h-2.08a5.18,5.18,0,0,0-2.72.63,2,2,0,0,0-.33,3.17A2.53,2.53,0,0,0,278.25,113.54Z" transform="translate(-1.79)" style="fill:#bbbdbf"/><path d="M292.68,113a3.77,3.77,0,0,1-3.35,1.53,3.24,3.24,0,0,1-2.55-1,4.32,4.32,0,0,1-.9-2.89v-6.84H287v6.7q0,3,2.43,3a3,3,0,0,0,3.19-2.09v-7.61h1.17v10.51H292.7Z" transform="translate(-1.79)" style="fill:#bbbdbf"/><path d="M301.71,104.85a5,5,0,0,0-.79-.06,2.87,2.87,0,0,0-1.84.6,3.31,3.31,0,0,0-1.07,1.77v7.21h-1.16V103.86H298l0,1.67a3.08,3.08,0,0,1,3-1.86,2,2,0,0,1,.77.12Z" transform="translate(-1.79)" style="fill:#bbbdbf"/><path d="M310.31,113a3.78,3.78,0,0,1-3.36,1.53,3.24,3.24,0,0,1-2.55-1,4.27,4.27,0,0,1-.89-2.89v-6.84h1.15v6.7q0,3,2.43,3a3,3,0,0,0,3.2-2.09v-7.61h1.16v10.51h-1.13Z" transform="translate(-1.79)" style="fill:#bbbdbf"/><path d="M320.77,111.7a1.64,1.64,0,0,0-.7-1.39,5.37,5.37,0,0,0-2.09-.82,9.31,9.31,0,0,1-2.17-.68,2.83,2.83,0,0,1-1.15-.94,2.32,2.32,0,0,1-.37-1.34,2.49,2.49,0,0,1,1-2,4.19,4.19,0,0,1,2.66-.81,4.32,4.32,0,0,1,2.82.87,2.78,2.78,0,0,1,1.06,2.27h-1.16a1.9,1.9,0,0,0-.77-1.54,3,3,0,0,0-1.95-.61,3,3,0,0,0-1.84.51,1.59,1.59,0,0,0-.7,1.33,1.43,1.43,0,0,0,.58,1.21,6.11,6.11,0,0,0,2.11.8,10.08,10.08,0,0,1,2.29.76,2.9,2.9,0,0,1,1.13,1,2.7,2.7,0,0,1-.7,3.52,4.6,4.6,0,0,1-2.8.8,4.72,4.72,0,0,1-3-.89,2.73,2.73,0,0,1-1.14-2.25h1.16A2.06,2.06,0,0,0,316,113a3.53,3.53,0,0,0,2.1.57,3.27,3.27,0,0,0,2-.54A1.59,1.59,0,0,0,320.77,111.7Z" transform="translate(-1.79)" style="fill:#bbbdbf"/><path d="M330.85,108.61v5.76h-1.19V100.23h4.81a5.12,5.12,0,0,1,3.49,1.13,4.43,4.43,0,0,1,0,6.17,5.21,5.21,0,0,1-3.56,1.08Zm0-1h3.62a3.85,3.85,0,0,0,2.66-.82,3,3,0,0,0,.91-2.31,3.07,3.07,0,0,0-.91-2.34,3.63,3.63,0,0,0-2.58-.89h-3.7Z" transform="translate(-1.79)" style="fill:#bbbdbf"/><path d="M342.93,114.37h-1.16V99.45h1.16Z" transform="translate(-1.79)" style="fill:#bbbdbf"/><path d="M352.85,113a3.77,3.77,0,0,1-3.35,1.53,3.24,3.24,0,0,1-2.55-1,4.27,4.27,0,0,1-.9-2.89v-6.84h1.16v6.7q0,3,2.43,3a3,3,0,0,0,3.19-2.09v-7.61H354v10.51h-1.13Z" transform="translate(-1.79)" style="fill:#bbbdbf"/><path d="M356.55,109a6.33,6.33,0,0,1,1.1-3.91,3.52,3.52,0,0,1,3-1.44,3.67,3.67,0,0,1,3.27,1.71l.06-1.52H365v10.3a4.47,4.47,0,0,1-1.13,3.22,4.08,4.08,0,0,1-3.08,1.18,4.69,4.69,0,0,1-2.1-.49,4,4,0,0,1-1.56-1.31l.65-.7a3.68,3.68,0,0,0,2.93,1.52,3,3,0,0,0,2.27-.86,3.4,3.4,0,0,0,.85-2.39V113a3.76,3.76,0,0,1-3.26,1.56,3.52,3.52,0,0,1-2.93-1.46,6.33,6.33,0,0,1-1.11-3.93Zm1.18.2a5.48,5.48,0,0,0,.81,3.18,2.6,2.6,0,0,0,2.27,1.16,3.11,3.11,0,0,0,3-1.93v-4.88a3.21,3.21,0,0,0-1.18-1.54,3.1,3.1,0,0,0-1.84-.53,2.65,2.65,0,0,0-2.29,1.15A5.89,5.89,0,0,0,357.73,109.22Z" transform="translate(-1.79)" style="fill:#bbbdbf"/><path d="M368,100.83a.79.79,0,0,1,.21-.56.81.81,0,0,1,1.39.56.74.74,0,0,1-.22.55.77.77,0,0,1-.59.22.76.76,0,0,1-.58-.22A.77.77,0,0,1,368,100.83Zm1.37,13.54h-1.17V103.86h1.17Z" transform="translate(-1.79)" style="fill:#bbbdbf"/><path d="M373.62,103.86l0,1.8a4.19,4.19,0,0,1,1.48-1.48,3.84,3.84,0,0,1,1.95-.51,3.15,3.15,0,0,1,2.51,1,4.26,4.26,0,0,1,.84,2.86v6.89h-1.16v-6.9a3.19,3.19,0,0,0-.59-2.1,2.34,2.34,0,0,0-1.88-.69,2.93,2.93,0,0,0-1.91.67,4,4,0,0,0-1.23,1.82v7.2h-1.16V103.86Z" transform="translate(-1.79)" style="fill:#bbbdbf"/><path d="M410.87,107.59h-6.61v5.77h7.61v1h-8.81V100.23h8.76v1h-7.56v5.34h6.61Z" transform="translate(-1.79)" style="fill:#bbbdbf"/><path d="M417.41,108.13l2.84-4.27h1.38L418.06,109l3.72,5.35h-1.37l-3-4.45-3,4.45h-1.37l3.71-5.35-3.56-5.16h1.37Z" transform="translate(-1.79)" style="fill:#bbbdbf"/><path d="M432.24,109.22a6.36,6.36,0,0,1-1.09,3.9,3.46,3.46,0,0,1-2.92,1.45,3.89,3.89,0,0,1-3.3-1.52v5.36h-1.16V103.86h1.08l.06,1.49a3.74,3.74,0,0,1,3.29-1.68,3.47,3.47,0,0,1,3,1.43,6.43,6.43,0,0,1,1.08,4Zm-1.17-.2a5.43,5.43,0,0,0-.83-3.18,2.66,2.66,0,0,0-2.3-1.16,3.06,3.06,0,0,0-3,2v5a3.12,3.12,0,0,0,1.2,1.38,3.4,3.4,0,0,0,1.83.48,2.64,2.64,0,0,0,2.29-1.17A5.89,5.89,0,0,0,431.07,109Z" transform="translate(-1.79)" style="fill:#bbbdbf"/><path d="M434.17,109a6.08,6.08,0,0,1,.59-2.73,4.4,4.4,0,0,1,4.09-2.56,4.33,4.33,0,0,1,3.4,1.47,5.66,5.66,0,0,1,1.3,3.9v.24A6.16,6.16,0,0,1,443,112a4.39,4.39,0,0,1-1.65,1.88,4.55,4.55,0,0,1-2.44.66,4.32,4.32,0,0,1-3.39-1.47,5.65,5.65,0,0,1-1.31-3.9Zm1.16.32a4.79,4.79,0,0,0,1,3.1,3.3,3.3,0,0,0,5.11,0,4.94,4.94,0,0,0,1-3.19V109a5.28,5.28,0,0,0-.45-2.2,3.6,3.6,0,0,0-1.25-1.55,3.2,3.2,0,0,0-1.85-.55,3.09,3.09,0,0,0-2.53,1.22,4.89,4.89,0,0,0-1,3.19Z" transform="translate(-1.79)" style="fill:#bbbdbf"/><path d="M450.81,104.85a5,5,0,0,0-.79-.06,2.87,2.87,0,0,0-1.84.6,3.31,3.31,0,0,0-1.07,1.77v7.21H446V103.86h1.14l0,1.67a3.08,3.08,0,0,1,3-1.86,2,2,0,0,1,.77.12Z" transform="translate(-1.79)" style="fill:#bbbdbf"/><path d="M454.94,101.17v2.69h2.17v1h-2.17v7a2.21,2.21,0,0,0,.31,1.3,1.24,1.24,0,0,0,1.06.43,8.37,8.37,0,0,0,.94-.1l.05.94a3.8,3.8,0,0,1-1.25.17,2,2,0,0,1-1.73-.7,3.2,3.2,0,0,1-.55-2v-7h-1.93v-1h1.93v-2.69Z" transform="translate(-1.79)" style="fill:#bbbdbf"/><path d="M489.63,114.37h-1.21v-6.78h-8.08v6.78h-1.19V100.23h1.19v6.35h8.08v-6.35h1.21Z" transform="translate(-1.79)" style="fill:#bbbdbf"/><path d="M492.31,109a6.08,6.08,0,0,1,.59-2.73,4.4,4.4,0,0,1,4.09-2.56,4.33,4.33,0,0,1,3.4,1.47,5.66,5.66,0,0,1,1.3,3.9v.24a6.3,6.3,0,0,1-.59,2.75,4.39,4.39,0,0,1-1.65,1.88,4.58,4.58,0,0,1-2.44.66,4.34,4.34,0,0,1-3.4-1.47,5.69,5.69,0,0,1-1.3-3.9Zm1.16.32a4.79,4.79,0,0,0,1,3.1,3.3,3.3,0,0,0,5.11,0,4.94,4.94,0,0,0,1-3.19V109a5.28,5.28,0,0,0-.45-2.2,3.6,3.6,0,0,0-1.25-1.55,3.2,3.2,0,0,0-1.85-.55,3.13,3.13,0,0,0-2.54,1.22,4.94,4.94,0,0,0-1,3.19Z" transform="translate(-1.79)" style="fill:#bbbdbf"/><path d="M503.45,109a6.21,6.21,0,0,1,.59-2.73,4.4,4.4,0,0,1,4.09-2.56,4.33,4.33,0,0,1,3.4,1.47,5.66,5.66,0,0,1,1.3,3.9v.24a6.3,6.3,0,0,1-.58,2.75,4.48,4.48,0,0,1-1.66,1.88,4.55,4.55,0,0,1-2.44.66,4.32,4.32,0,0,1-3.39-1.47,5.69,5.69,0,0,1-1.31-3.9Zm1.17.32a4.79,4.79,0,0,0,1,3.1,3.3,3.3,0,0,0,5.11,0,4.94,4.94,0,0,0,1-3.19V109a5.28,5.28,0,0,0-.45-2.2,3.6,3.6,0,0,0-1.25-1.55,3.2,3.2,0,0,0-1.85-.55,3.11,3.11,0,0,0-2.53,1.22,4.88,4.88,0,0,0-1,3.19Z" transform="translate(-1.79)" style="fill:#bbbdbf"/><path d="M517.73,109.08l-1.33,1.28v4h-1.17V99.45h1.17V109l1.1-1.18,4-4H523l-4.45,4.43,4.84,6.08H522Z" transform="translate(-1.79)" style="fill:#bbbdbf"/><path d="M531.27,111.7a1.66,1.66,0,0,0-.69-1.39,5.49,5.49,0,0,0-2.1-.82,9.47,9.47,0,0,1-2.17-.68,2.89,2.89,0,0,1-1.15-.94,2.4,2.4,0,0,1-.37-1.34,2.51,2.51,0,0,1,1-2,4.19,4.19,0,0,1,2.66-.81,4.32,4.32,0,0,1,2.82.87,2.79,2.79,0,0,1,1.07,2.27h-1.17a1.9,1.9,0,0,0-.77-1.54,3.49,3.49,0,0,0-3.79-.1,1.58,1.58,0,0,0-.69,1.33,1.4,1.4,0,0,0,.58,1.21,6,6,0,0,0,2.1.8,10.19,10.19,0,0,1,2.3.76,3.06,3.06,0,0,1,1.13,1,2.6,2.6,0,0,1,.37,1.39,2.51,2.51,0,0,1-1.08,2.13,4.58,4.58,0,0,1-2.8.8,4.74,4.74,0,0,1-3-.89,2.73,2.73,0,0,1-1.14-2.25h1.17a2,2,0,0,0,.86,1.59,3.47,3.47,0,0,0,2.09.57,3.27,3.27,0,0,0,2-.54A1.59,1.59,0,0,0,531.27,111.7Z" transform="translate(-1.79)" style="fill:#bbbdbf"/><path d="M556.13,114.37h-1.2V100.23h1.2Z" transform="translate(-1.79)" style="fill:#bbbdbf"/><path d="M560.8,103.86l0,1.8a4.11,4.11,0,0,1,1.48-1.48,3.84,3.84,0,0,1,1.95-.51,3.15,3.15,0,0,1,2.51,1,4.26,4.26,0,0,1,.84,2.86v6.89h-1.16v-6.9a3.19,3.19,0,0,0-.59-2.1,2.34,2.34,0,0,0-1.88-.69,2.93,2.93,0,0,0-1.91.67,3.89,3.89,0,0,0-1.23,1.82v7.2h-1.16V103.86Z" transform="translate(-1.79)" style="fill:#bbbdbf"/><path d="M572.43,101.17v2.69h2.17v1h-2.17v7a2.21,2.21,0,0,0,.31,1.3,1.27,1.27,0,0,0,1.06.43,8.37,8.37,0,0,0,.94-.1l0,.94a3.77,3.77,0,0,1-1.24.17,2.05,2.05,0,0,1-1.74-.7,3.2,3.2,0,0,1-.55-2v-7h-1.93v-1h1.93v-2.69Z" transform="translate(-1.79)" style="fill:#bbbdbf"/><path d="M581.08,114.57a4.49,4.49,0,0,1-4.1-2.5,5.65,5.65,0,0,1-.61-2.65V109a6.21,6.21,0,0,1,.59-2.73,4.71,4.71,0,0,1,1.64-1.91,4,4,0,0,1,2.27-.69,3.8,3.8,0,0,1,3,1.3,5.37,5.37,0,0,1,1.12,3.57v.66h-7.5v.22a4.44,4.44,0,0,0,1,3,3.29,3.29,0,0,0,2.58,1.19,3.92,3.92,0,0,0,1.65-.34,3.67,3.67,0,0,0,1.3-1.09l.72.55A4.23,4.23,0,0,1,581.08,114.57Zm-.21-9.91a2.92,2.92,0,0,0-2.21,1,4.43,4.43,0,0,0-1.09,2.59h6.3v-.13a3.88,3.88,0,0,0-.86-2.47A2.71,2.71,0,0,0,580.87,104.66Z" transform="translate(-1.79)" style="fill:#bbbdbf"/><path d="M588.59,114.37h-1.16V99.45h1.16Z" transform="translate(-1.79)" style="fill:#bbbdbf"/><path d="M593.05,114.37h-1.16V99.45h1.16Z" transform="translate(-1.79)" style="fill:#bbbdbf"/><path d="M596.14,100.83a.75.75,0,0,1,.8-.79.77.77,0,0,1,.8.79.74.74,0,0,1-.22.55.76.76,0,0,1-.58.22.78.78,0,0,1-.59-.22A.77.77,0,0,1,596.14,100.83Zm1.37,13.54h-1.17V103.86h1.17Z" transform="translate(-1.79)" style="fill:#bbbdbf"/><path d="M608.94,110.9a2.27,2.27,0,0,0-.82-1.86,8.63,8.63,0,0,0-3-1.31,10.64,10.64,0,0,1-3.21-1.34,3.26,3.26,0,0,1-.1-5.34,5.46,5.46,0,0,1,3.41-1,5.69,5.69,0,0,1,2.52.54,4.12,4.12,0,0,1,1.73,1.51,4,4,0,0,1,.61,2.17h-1.2a3,3,0,0,0-1-2.33,3.88,3.88,0,0,0-2.67-.89,4.2,4.2,0,0,0-2.58.73,2.25,2.25,0,0,0-1,1.89,2.15,2.15,0,0,0,.86,1.76,7.81,7.81,0,0,0,2.77,1.2,13.45,13.45,0,0,1,2.89,1.08,4.18,4.18,0,0,1,1.47,1.34,3.36,3.36,0,0,1,.5,1.84,3.21,3.21,0,0,1-1.34,2.68,5.7,5.7,0,0,1-3.52,1,6.8,6.8,0,0,1-2.74-.54,4.12,4.12,0,0,1-1.9-1.49,3.87,3.87,0,0,1-.64-2.21h1.19a2.8,2.8,0,0,0,1.12,2.36,4.68,4.68,0,0,0,3,.87,4.43,4.43,0,0,0,2.65-.73A2.27,2.27,0,0,0,608.94,110.9Z" transform="translate(-1.79)" style="fill:#bbbdbf"/><path d="M616.52,114.57a4.56,4.56,0,0,1-2.42-.66,4.49,4.49,0,0,1-1.69-1.84,5.77,5.77,0,0,1-.6-2.65V109a6.21,6.21,0,0,1,.59-2.73,4.69,4.69,0,0,1,1.63-1.91,4.07,4.07,0,0,1,2.28-.69,3.79,3.79,0,0,1,3,1.3,5.32,5.32,0,0,1,1.12,3.57v.66H613v.22a4.44,4.44,0,0,0,1,3,3.26,3.26,0,0,0,2.58,1.19,3.92,3.92,0,0,0,1.65-.34,3.73,3.73,0,0,0,1.29-1.09l.73.55A4.23,4.23,0,0,1,616.52,114.57Zm-.21-9.91a2.9,2.9,0,0,0-2.21,1,4.44,4.44,0,0,0-1.1,2.59h6.31v-.13a3.83,3.83,0,0,0-.87-2.47A2.67,2.67,0,0,0,616.31,104.66Z" transform="translate(-1.79)" style="fill:#bbbdbf"/><path d="M623.84,103.86l0,1.8a4.19,4.19,0,0,1,1.48-1.48,3.84,3.84,0,0,1,1.95-.51,3.17,3.17,0,0,1,2.52,1,4.26,4.26,0,0,1,.83,2.86v6.89H629.5v-6.9a3.25,3.25,0,0,0-.6-2.1,2.34,2.34,0,0,0-1.88-.69,3,3,0,0,0-1.91.67,4,4,0,0,0-1.23,1.82v7.2h-1.15V103.86Z" transform="translate(-1.79)" style="fill:#bbbdbf"/><path d="M640,111.7a1.66,1.66,0,0,0-.69-1.39,5.42,5.42,0,0,0-2.1-.82,9.47,9.47,0,0,1-2.17-.68,2.86,2.86,0,0,1-1.14-.94,2.32,2.32,0,0,1-.38-1.34,2.51,2.51,0,0,1,1-2,4.19,4.19,0,0,1,2.66-.81,4.28,4.28,0,0,1,2.82.87,2.79,2.79,0,0,1,1.07,2.27h-1.17a1.87,1.87,0,0,0-.77-1.54,3,3,0,0,0-2-.61,3.06,3.06,0,0,0-1.84.51,1.58,1.58,0,0,0-.69,1.33,1.4,1.4,0,0,0,.58,1.21,6,6,0,0,0,2.1.8,10.19,10.19,0,0,1,2.3.76,3.06,3.06,0,0,1,1.13,1,2.6,2.6,0,0,1,.37,1.39,2.51,2.51,0,0,1-1.08,2.13,4.58,4.58,0,0,1-2.8.8,4.74,4.74,0,0,1-3-.89,2.73,2.73,0,0,1-1.14-2.25h1.17a2,2,0,0,0,.86,1.59,3.5,3.5,0,0,0,2.09.57,3.27,3.27,0,0,0,2-.54A1.59,1.59,0,0,0,640,111.7Z" transform="translate(-1.79)" style="fill:#bbbdbf"/><path d="M647.8,114.57a4.56,4.56,0,0,1-2.42-.66,4.49,4.49,0,0,1-1.69-1.84,5.77,5.77,0,0,1-.6-2.65V109a6.08,6.08,0,0,1,.59-2.73,4.69,4.69,0,0,1,1.63-1.91,4.07,4.07,0,0,1,2.28-.69,3.79,3.79,0,0,1,3,1.3,5.32,5.32,0,0,1,1.12,3.57v.66h-7.5v.22a4.44,4.44,0,0,0,1,3,3.26,3.26,0,0,0,2.58,1.19,3.84,3.84,0,0,0,1.64-.34,3.67,3.67,0,0,0,1.3-1.09l.73.55A4.23,4.23,0,0,1,647.8,114.57Zm-.21-9.91a2.9,2.9,0,0,0-2.21,1,4.44,4.44,0,0,0-1.1,2.59h6.31v-.13a3.83,3.83,0,0,0-.87-2.47A2.67,2.67,0,0,0,647.59,104.66Z" transform="translate(-1.79)" style="fill:#bbbdbf"/><path d="M674.83,113.36h7v1h-8.19V100.23h1.2Z" transform="translate(-1.79)" style="fill:#bbbdbf"/><path d="M683.77,100.83a.75.75,0,0,1,.8-.79.81.81,0,0,1,.59.23.79.79,0,0,1,.21.56.77.77,0,0,1-.21.55.8.8,0,0,1-.59.22.78.78,0,0,1-.59-.22A.77.77,0,0,1,683.77,100.83Zm1.37,13.54H684V103.86h1.16Z" transform="translate(-1.79)" style="fill:#bbbdbf"/><path d="M696.76,109.22a6.29,6.29,0,0,1-1.09,3.9,3.45,3.45,0,0,1-2.92,1.45,3.78,3.78,0,0,1-3.32-1.63l0,1.43h-1.09V99.45h1.15v5.94a3.66,3.66,0,0,1,3.29-1.72,3.52,3.52,0,0,1,2.95,1.42,6.43,6.43,0,0,1,1.08,4Zm-1.17-.2a5.51,5.51,0,0,0-.8-3.21,2.65,2.65,0,0,0-2.28-1.13,3.17,3.17,0,0,0-1.89.55,3.34,3.34,0,0,0-1.18,1.6v4.75a3.13,3.13,0,0,0,3.09,2,2.61,2.61,0,0,0,2.25-1.14A5.86,5.86,0,0,0,695.59,109Z" transform="translate(-1.79)" style="fill:#bbbdbf"/><path d="M704.18,104.85a5,5,0,0,0-.79-.06,2.87,2.87,0,0,0-1.84.6,3.31,3.31,0,0,0-1.07,1.77v7.21h-1.16V103.86h1.14l0,1.67a3.08,3.08,0,0,1,3-1.86,2,2,0,0,1,.77.12Z" transform="translate(-1.79)" style="fill:#bbbdbf"/><path d="M712.26,114.37a5.69,5.69,0,0,1-.22-1.46,4,4,0,0,1-1.56,1.22,4.75,4.75,0,0,1-2,.44,3.5,3.5,0,0,1-2.45-.85,2.76,2.76,0,0,1-.94-2.14,2.8,2.8,0,0,1,1.28-2.42,6.1,6.1,0,0,1,3.56-.9H712v-1.19a2.31,2.31,0,0,0-.7-1.78,2.85,2.85,0,0,0-2-.64,3.19,3.19,0,0,0-2,.62,1.86,1.86,0,0,0-.8,1.5h-1.16a2.68,2.68,0,0,1,1.16-2.17,4.45,4.45,0,0,1,2.87-.92,4.07,4.07,0,0,1,2.77.88,3.13,3.13,0,0,1,1.05,2.45v5a6.09,6.09,0,0,0,.32,2.29v.11Zm-3.65-.83a3.84,3.84,0,0,0,2.08-.57,3.24,3.24,0,0,0,1.34-1.5v-2.31H710a5.18,5.18,0,0,0-2.72.63,2,2,0,0,0-.33,3.17A2.53,2.53,0,0,0,708.61,113.54Z" transform="translate(-1.79)" style="fill:#bbbdbf"/><path d="M721.14,104.85a5,5,0,0,0-.79-.06,2.87,2.87,0,0,0-1.84.6,3.31,3.31,0,0,0-1.07,1.77v7.21h-1.16V103.86h1.14l0,1.67a3.08,3.08,0,0,1,3-1.86,2,2,0,0,1,.77.12Z" transform="translate(-1.79)" style="fill:#bbbdbf"/><path d="M726.48,112.7l3.07-8.84h1.26l-4.49,12.3-.23.54a2.83,2.83,0,0,1-2.68,1.92,3.34,3.34,0,0,1-.89-.14v-1l.6.06a2.19,2.19,0,0,0,1.39-.42,3.33,3.33,0,0,0,.9-1.46l.51-1.41-4-10.43h1.27Z" transform="translate(-1.79)" style="fill:#bbbdbf"/><path d="M753.43,113.36h7v1h-8.18V100.23h1.2Z" transform="translate(-1.79)" style="fill:#bbbdbf"/><path d="M762.37,100.83a.79.79,0,0,1,.21-.56.77.77,0,0,1,.58-.23.79.79,0,0,1,.59.23.76.76,0,0,1,.22.56.74.74,0,0,1-.22.55.78.78,0,0,1-.59.22.76.76,0,0,1-.58-.22A.77.77,0,0,1,762.37,100.83Zm1.37,13.54h-1.17V103.86h1.17Z" transform="translate(-1.79)" style="fill:#bbbdbf"/><path d="M768,103.86l0,1.8a4.19,4.19,0,0,1,1.48-1.48,3.84,3.84,0,0,1,2-.51,3.15,3.15,0,0,1,2.51,1,4.26,4.26,0,0,1,.84,2.86v6.89h-1.16v-6.9a3.19,3.19,0,0,0-.59-2.1,2.34,2.34,0,0,0-1.88-.69,2.93,2.93,0,0,0-1.91.67,4,4,0,0,0-1.23,1.82v7.2h-1.16V103.86Z" transform="translate(-1.79)" style="fill:#bbbdbf"/><path d="M780.32,109.08,779,110.36v4h-1.17V99.45H779V109l1.1-1.18,4-4h1.46l-4.45,4.43,4.84,6.08h-1.39Z" transform="translate(-1.79)" style="fill:#bbbdbf"/><path d="M793.86,111.7a1.66,1.66,0,0,0-.69-1.39,5.42,5.42,0,0,0-2.1-.82,9.47,9.47,0,0,1-2.17-.68,2.79,2.79,0,0,1-1.14-.94,2.32,2.32,0,0,1-.38-1.34,2.51,2.51,0,0,1,1-2,4.19,4.19,0,0,1,2.66-.81,4.32,4.32,0,0,1,2.82.87,2.79,2.79,0,0,1,1.07,2.27H793.8a1.9,1.9,0,0,0-.77-1.54,3.49,3.49,0,0,0-3.79-.1,1.58,1.58,0,0,0-.69,1.33,1.42,1.42,0,0,0,.57,1.21,6.11,6.11,0,0,0,2.11.8,9.9,9.9,0,0,1,2.29.76,3,3,0,0,1,1.14,1,2.6,2.6,0,0,1,.37,1.39,2.51,2.51,0,0,1-1.08,2.13,4.58,4.58,0,0,1-2.8.8,4.74,4.74,0,0,1-3-.89,2.73,2.73,0,0,1-1.14-2.25h1.17a2,2,0,0,0,.86,1.59,3.47,3.47,0,0,0,2.09.57,3.27,3.27,0,0,0,2-.54A1.59,1.59,0,0,0,793.86,111.7Z" transform="translate(-1.79)" style="fill:#bbbdbf"/><path d="M818.47,113.36h7v1h-8.19V100.23h1.21Z" transform="translate(-1.79)" style="fill:#bbbdbf"/><path d="M827.4,100.83a.76.76,0,0,1,.22-.56.75.75,0,0,1,.58-.23.79.79,0,0,1,.59.23.8.8,0,0,1,.22.56.75.75,0,0,1-.81.77.75.75,0,0,1-.58-.22A.74.74,0,0,1,827.4,100.83Zm1.37,13.54h-1.16V103.86h1.16Z" transform="translate(-1.79)" style="fill:#bbbdbf"/><path d="M835.2,112.77l3.2-8.91h1.19l-3.92,10.51h-.94l-4-10.51H832Z" transform="translate(-1.79)" style="fill:#bbbdbf"/><path d="M845.44,114.57a4.52,4.52,0,0,1-4.11-2.5,5.77,5.77,0,0,1-.6-2.65V109a6.21,6.21,0,0,1,.59-2.73,4.76,4.76,0,0,1,1.63-1.91,4.07,4.07,0,0,1,2.28-.69,3.78,3.78,0,0,1,3,1.3,5.32,5.32,0,0,1,1.13,3.57v.66h-7.5v.22a4.44,4.44,0,0,0,1,3,3.26,3.26,0,0,0,2.58,1.19,3.92,3.92,0,0,0,1.65-.34,3.73,3.73,0,0,0,1.29-1.09l.73.55A4.23,4.23,0,0,1,845.44,114.57Zm-.21-9.91a2.9,2.9,0,0,0-2.21,1,4.37,4.37,0,0,0-1.09,2.59h6.3v-.13a3.83,3.83,0,0,0-.87-2.47A2.67,2.67,0,0,0,845.23,104.66Z" transform="translate(-1.79)" style="fill:#bbbdbf"/><path d="M872.48,113.36h7v1h-8.19V100.23h1.21Z" transform="translate(-1.79)" style="fill:#bbbdbf"/><path d="M880.84,109a6.21,6.21,0,0,1,.59-2.73,4.4,4.4,0,0,1,4.09-2.56,4.33,4.33,0,0,1,3.4,1.47,5.66,5.66,0,0,1,1.3,3.9v.24a6.3,6.3,0,0,1-.58,2.75,4.48,4.48,0,0,1-1.66,1.88,4.55,4.55,0,0,1-2.44.66,4.32,4.32,0,0,1-3.39-1.47,5.65,5.65,0,0,1-1.31-3.9Zm1.17.32a4.79,4.79,0,0,0,1,3.1,3.3,3.3,0,0,0,5.11,0,4.94,4.94,0,0,0,1-3.19V109a5.28,5.28,0,0,0-.45-2.2,3.6,3.6,0,0,0-1.25-1.55,3.2,3.2,0,0,0-1.85-.55,3.11,3.11,0,0,0-2.53,1.22,4.88,4.88,0,0,0-1,3.19Z" transform="translate(-1.79)" style="fill:#bbbdbf"/><path d="M895.14,112l.17.91.24-1,2.52-8h1l2.5,8,.27,1.11.22-1,2.16-8.06h1.21l-3.06,10.51h-1l-2.7-8.33-.12-.58-.13.59-2.65,8.32h-1l-3-10.51h1.19Z" transform="translate(-1.79)" style="fill:#bbbdbf"/><path d="M911.23,108.62h-4.65v-1h4.65Z" transform="translate(-1.79)" style="fill:#bbbdbf"/><path d="M923.6,110a5,5,0,0,1-1.6,3.42,5.27,5.27,0,0,1-3.61,1.19,5,5,0,0,1-2.78-.79,5.16,5.16,0,0,1-1.87-2.23,8,8,0,0,1-.67-3.3v-1.83a8,8,0,0,1,.66-3.34,5,5,0,0,1,1.9-2.25,5.18,5.18,0,0,1,2.85-.79,5,5,0,0,1,3.59,1.22,5.12,5.12,0,0,1,1.53,3.39h-1.2c-.3-2.4-1.61-3.61-3.92-3.61a3.73,3.73,0,0,0-3.06,1.44,6.26,6.26,0,0,0-1.14,4v1.73a6.3,6.3,0,0,0,1.11,3.91,3.58,3.58,0,0,0,3,1.46,4,4,0,0,0,2.83-.9,4.3,4.3,0,0,0,1.18-2.7Z" transform="translate(-1.79)" style="fill:#bbbdbf"/><path d="M925.59,109a6.21,6.21,0,0,1,.59-2.73,4.4,4.4,0,0,1,4.09-2.56,4.31,4.31,0,0,1,3.4,1.47A5.66,5.66,0,0,1,935,109v.24a6.3,6.3,0,0,1-.59,2.75,4.41,4.41,0,0,1-1.66,1.88,4.53,4.53,0,0,1-2.44.66,4.32,4.32,0,0,1-3.39-1.47,5.69,5.69,0,0,1-1.31-3.9Zm1.17.32a4.79,4.79,0,0,0,1,3.1,3.17,3.17,0,0,0,2.56,1.21,3.14,3.14,0,0,0,2.55-1.21,4.94,4.94,0,0,0,1-3.19V109a5.28,5.28,0,0,0-.45-2.2,3.47,3.47,0,0,0-1.25-1.55,3.18,3.18,0,0,0-1.85-.55,3.11,3.11,0,0,0-2.53,1.22,4.94,4.94,0,0,0-1,3.19Z" transform="translate(-1.79)" style="fill:#bbbdbf"/><path d="M936.91,109a6.33,6.33,0,0,1,1.09-3.9,3.52,3.52,0,0,1,3-1.45,3.64,3.64,0,0,1,3.24,1.68v-5.9h1.16v14.92h-1.09l0-1.4a3.73,3.73,0,0,1-3.28,1.6,3.52,3.52,0,0,1-2.93-1.46,6.41,6.41,0,0,1-1.11-4Zm1.17.2a5.48,5.48,0,0,0,.81,3.18,2.62,2.62,0,0,0,2.27,1.16,3.11,3.11,0,0,0,3.05-1.9v-4.93a3.1,3.1,0,0,0-3-2,2.63,2.63,0,0,0-2.28,1.15A5.89,5.89,0,0,0,938.08,109.22Z" transform="translate(-1.79)" style="fill:#bbbdbf"/><path d="M948.36,100.83a.76.76,0,0,1,.22-.56.75.75,0,0,1,.58-.23.81.81,0,0,1,.59.23.79.79,0,0,1,.21.56.77.77,0,0,1-.21.55.8.8,0,0,1-.59.22.75.75,0,0,1-.58-.22A.74.74,0,0,1,948.36,100.83Zm1.37,13.54h-1.16V103.86h1.16Z" transform="translate(-1.79)" style="fill:#bbbdbf"/><path d="M954,103.86l0,1.8a4.09,4.09,0,0,1,1.47-1.48,3.84,3.84,0,0,1,2-.51,3.17,3.17,0,0,1,2.52,1,4.32,4.32,0,0,1,.84,2.86v6.89h-1.16v-6.9a3.25,3.25,0,0,0-.6-2.1,2.34,2.34,0,0,0-1.88-.69,3,3,0,0,0-1.91.67,4,4,0,0,0-1.23,1.82v7.2h-1.15V103.86Z" transform="translate(-1.79)" style="fill:#bbbdbf"/><path d="M963.35,109a6.32,6.32,0,0,1,1.09-3.91,3.53,3.53,0,0,1,3-1.44,3.64,3.64,0,0,1,3.26,1.71l.06-1.52h1.09v10.3a4.48,4.48,0,0,1-1.14,3.22,4,4,0,0,1-3.08,1.18,4.65,4.65,0,0,1-2.09-.49,4.06,4.06,0,0,1-1.57-1.31l.65-.7a3.7,3.7,0,0,0,2.94,1.52,3,3,0,0,0,2.27-.86,3.45,3.45,0,0,0,.85-2.39V113a3.76,3.76,0,0,1-3.26,1.56,3.5,3.5,0,0,1-2.93-1.46,6.33,6.33,0,0,1-1.11-3.93Zm1.18.2a5.48,5.48,0,0,0,.8,3.18,2.62,2.62,0,0,0,2.27,1.16,3.11,3.11,0,0,0,3-1.93v-4.88a3.34,3.34,0,0,0-1.18-1.54,3.13,3.13,0,0,0-1.85-.53,2.64,2.64,0,0,0-2.28,1.15A5.89,5.89,0,0,0,964.53,109.22Z" transform="translate(-1.79)" style="fill:#bbbdbf"/><path d="M77.16,150.85v5.76H76V142.47h4.82a5.07,5.07,0,0,1,3.48,1.12,4.43,4.43,0,0,1,0,6.18,5.23,5.23,0,0,1-3.56,1.08Zm0-1h3.62a3.81,3.81,0,0,0,2.65-.83,3,3,0,0,0,.92-2.3,3.11,3.11,0,0,0-.91-2.34,3.65,3.65,0,0,0-2.58-.89h-3.7Z" transform="translate(-1.79)" style="fill:#bbbdbf"/><path d="M89.24,156.61H88.08V141.69h1.16Z" transform="translate(-1.79)" style="fill:#bbbdbf"/><path d="M99,156.61a5.71,5.71,0,0,1-.22-1.47,4.11,4.11,0,0,1-1.56,1.23,4.73,4.73,0,0,1-2,.43,3.56,3.56,0,0,1-2.46-.84,2.77,2.77,0,0,1-.93-2.14,2.82,2.82,0,0,1,1.27-2.43,6.18,6.18,0,0,1,3.56-.89H98.8v-1.2a2.3,2.3,0,0,0-.69-1.77,2.89,2.89,0,0,0-2-.64,3.13,3.13,0,0,0-2,.62,1.84,1.84,0,0,0-.8,1.49H92.11a2.72,2.72,0,0,1,1.16-2.17,4.53,4.53,0,0,1,2.87-.92,4.11,4.11,0,0,1,2.77.88,3.17,3.17,0,0,1,1,2.46v5a6,6,0,0,0,.32,2.28v.12Zm-3.65-.84a3.9,3.9,0,0,0,2.09-.56,3.37,3.37,0,0,0,1.33-1.5v-2.32H96.72A5.3,5.3,0,0,0,94,152a1.92,1.92,0,0,0-1,1.69,1.88,1.88,0,0,0,.66,1.47A2.44,2.44,0,0,0,95.38,155.77Z" transform="translate(-1.79)" style="fill:#bbbdbf"/><path d="M104.16,146.1l0,1.8a4.22,4.22,0,0,1,1.48-1.49,3.84,3.84,0,0,1,1.95-.51,3.14,3.14,0,0,1,2.52,1,4.23,4.23,0,0,1,.83,2.85v6.9h-1.15V149.7a3.25,3.25,0,0,0-.6-2.1,2.34,2.34,0,0,0-1.88-.68,2.93,2.93,0,0,0-1.91.67,4,4,0,0,0-1.23,1.82v7.2h-1.15V146.1Z" transform="translate(-1.79)" style="fill:#bbbdbf"/><path d="M115.79,143.41v2.69H118v1h-2.18v7a2.22,2.22,0,0,0,.32,1.31,1.23,1.23,0,0,0,1,.42,7.6,7.6,0,0,0,.94-.09l.05.94a3.77,3.77,0,0,1-1.24.16,2.07,2.07,0,0,1-1.74-.69,3.3,3.3,0,0,1-.54-2.05v-7h-1.94v-1h1.94v-2.69Z" transform="translate(-1.79)" style="fill:#bbbdbf"/><path d="M130.39,142.47v9.65a5,5,0,0,1-.63,2.49,4.18,4.18,0,0,1-1.75,1.63,5.85,5.85,0,0,1-2.6.56,5.1,5.1,0,0,1-3.58-1.22,4.47,4.47,0,0,1-1.4-3.37v-9.74h1.19V152a3.68,3.68,0,0,0,1,2.78,3.84,3.84,0,0,0,2.77,1,3.78,3.78,0,0,0,2.76-1,3.67,3.67,0,0,0,1-2.76v-9.57Z" transform="translate(-1.79)" style="fill:#bbbdbf"/><path d="M135.31,142.47,140.52,155l5.24-12.48h1.59v14.14h-1.19v-6.16l.09-6.31L141,156.61h-.92l-5.25-12.42.1,6.22v6.2h-1.2V142.47Z" transform="translate(-1.79)" style="fill:#bbbdbf"/><path d="M152.14,155.6h7v1h-8.19V142.47h1.2Z" transform="translate(-1.79)" style="fill:#bbbdbf"/><path d="M186.05,150.71h-4.11v5.9h-1.2V142.47h4.59a5.26,5.26,0,0,1,3.54,1.09,4.2,4.2,0,0,1,.48,5.46,4.06,4.06,0,0,1-2.14,1.44l3.53,6v.13h-1.27Zm-4.11-1h3.67a3.36,3.36,0,0,0,2.41-.85,2.9,2.9,0,0,0,.92-2.22,2.94,2.94,0,0,0-.95-2.33,4,4,0,0,0-2.68-.82h-3.37Z" transform="translate(-1.79)" style="fill:#bbbdbf"/><path d="M197.19,156.8a4.56,4.56,0,0,1-2.42-.66,4.47,4.47,0,0,1-1.68-1.84,5.61,5.61,0,0,1-.61-2.64v-.42a6.21,6.21,0,0,1,.59-2.73,4.65,4.65,0,0,1,1.64-1.91,4.07,4.07,0,0,1,2.27-.7,3.81,3.81,0,0,1,3,1.31,5.34,5.34,0,0,1,1.12,3.57v.65h-7.5v.23a4.39,4.39,0,0,0,1,3,3.26,3.26,0,0,0,2.58,1.19,3.74,3.74,0,0,0,1.65-.34,3.56,3.56,0,0,0,1.3-1.09l.73.56A4.25,4.25,0,0,1,197.19,156.8Zm-.21-9.9a2.92,2.92,0,0,0-2.21,1,4.43,4.43,0,0,0-1.09,2.58H200v-.13a3.83,3.83,0,0,0-.86-2.46A2.68,2.68,0,0,0,197,146.9Z" transform="translate(-1.79)" style="fill:#bbbdbf"/><path d="M210,156.61a5.63,5.63,0,0,1-.23-1.47,4,4,0,0,1-1.56,1.23,4.73,4.73,0,0,1-2,.43,3.52,3.52,0,0,1-2.45-.84,2.74,2.74,0,0,1-.94-2.14,2.81,2.81,0,0,1,1.28-2.43,6.16,6.16,0,0,1,3.56-.89h2.1v-1.2a2.3,2.3,0,0,0-.69-1.77,2.88,2.88,0,0,0-2-.64,3.13,3.13,0,0,0-2,.62,1.83,1.83,0,0,0-.79,1.49h-1.17a2.7,2.7,0,0,1,1.17-2.17,4.48,4.48,0,0,1,2.86-.92,4.15,4.15,0,0,1,2.78.88,3.2,3.2,0,0,1,1,2.46v5a6.2,6.2,0,0,0,.32,2.28v.12Zm-3.66-.84a3.87,3.87,0,0,0,2.09-.56,3.37,3.37,0,0,0,1.33-1.5v-2.32h-2.07A5.34,5.34,0,0,0,205,152a1.92,1.92,0,0,0-1,1.69,1.88,1.88,0,0,0,.66,1.47A2.47,2.47,0,0,0,206.38,155.77Z" transform="translate(-1.79)" style="fill:#bbbdbf"/><path d="M217.94,155.82a3.12,3.12,0,0,0,2-.68,2.43,2.43,0,0,0,.89-1.77H222a3.26,3.26,0,0,1-.6,1.75,3.79,3.79,0,0,1-1.47,1.24,4.54,4.54,0,0,1-2,.44,4.05,4.05,0,0,1-3.27-1.43,5.8,5.8,0,0,1-1.21-3.87v-.35a6.62,6.62,0,0,1,.54-2.75,4.1,4.1,0,0,1,1.56-1.84,4.27,4.27,0,0,1,2.37-.66,4.1,4.1,0,0,1,2.86,1,3.78,3.78,0,0,1,1.19,2.71h-1.11a3,3,0,0,0-5.38-1.61,5.15,5.15,0,0,0-.87,3.19v.34a5.05,5.05,0,0,0,.87,3.14A2.92,2.92,0,0,0,217.94,155.82Z" transform="translate(-1.79)" style="fill:#bbbdbf"/><path d="M226.11,143.41v2.69h2.18v1h-2.18v7a2.22,2.22,0,0,0,.32,1.31,1.23,1.23,0,0,0,1,.42,7.89,7.89,0,0,0,1-.09l0,.94a3.73,3.73,0,0,1-1.24.16,2.07,2.07,0,0,1-1.74-.69,3.3,3.3,0,0,1-.54-2.05v-7H223v-1H225v-2.69Z" transform="translate(-1.79)" style="fill:#bbbdbf"/><path d="M245.82,152.2a5.07,5.07,0,0,1-1.59,3.42,5.3,5.3,0,0,1-3.61,1.18,5.05,5.05,0,0,1-2.79-.78,5.21,5.21,0,0,1-1.87-2.23,8,8,0,0,1-.67-3.3v-1.84a8,8,0,0,1,.66-3.34,5.14,5.14,0,0,1,1.9-2.25,5.26,5.26,0,0,1,2.85-.79,4.73,4.73,0,0,1,5.12,4.62h-1.2c-.3-2.41-1.6-3.61-3.92-3.61a3.7,3.7,0,0,0-3.06,1.44,6.24,6.24,0,0,0-1.14,4v1.73a6.27,6.27,0,0,0,1.11,3.9,3.56,3.56,0,0,0,3,1.46,4,4,0,0,0,2.82-.9,4.24,4.24,0,0,0,1.18-2.69Z" transform="translate(-1.79)" style="fill:#bbbdbf"/><path d="M247.81,151.2a6.21,6.21,0,0,1,.59-2.73,4.43,4.43,0,0,1,4.1-2.57,4.34,4.34,0,0,1,3.4,1.48,5.7,5.7,0,0,1,1.3,3.9v.24a6.23,6.23,0,0,1-.59,2.74,4.29,4.29,0,0,1-1.66,1.88,4.52,4.52,0,0,1-2.43.66,4.33,4.33,0,0,1-3.4-1.47,5.66,5.66,0,0,1-1.31-3.9Zm1.17.32a4.75,4.75,0,0,0,1,3.09,3.3,3.3,0,0,0,5.11,0,4.92,4.92,0,0,0,1-3.19v-.22a5.52,5.52,0,0,0-.44-2.21,3.67,3.67,0,0,0-1.26-1.55,3.23,3.23,0,0,0-1.84-.54,3.12,3.12,0,0,0-2.54,1.21,5,5,0,0,0-1,3.2Z" transform="translate(-1.79)" style="fill:#bbbdbf"/><path d="M260.66,146.1l0,1.71a3.82,3.82,0,0,1,1.45-1.43,4,4,0,0,1,2-.48,2.94,2.94,0,0,1,3.15,2,4.05,4.05,0,0,1,1.51-1.51,4.21,4.21,0,0,1,2.08-.53q3.38,0,3.45,3.7v7h-1.17v-6.93a3.16,3.16,0,0,0-.61-2.09,2.47,2.47,0,0,0-1.95-.67,3.05,3.05,0,0,0-2.11.81,2.81,2.81,0,0,0-1,1.92v7h-1.17v-7a2.89,2.89,0,0,0-.64-2,2.52,2.52,0,0,0-1.92-.66,2.92,2.92,0,0,0-1.89.62,3.7,3.7,0,0,0-1.16,1.86v7.21h-1.17V146.1Z" transform="translate(-1.79)" style="fill:#bbbdbf"/><path d="M285.68,151.46a6.29,6.29,0,0,1-1.09,3.9,3.45,3.45,0,0,1-2.91,1.44,3.87,3.87,0,0,1-3.3-1.51v5.36h-1.16V146.1h1.08l.06,1.48a3.71,3.71,0,0,1,3.29-1.68,3.52,3.52,0,0,1,3,1.43,6.53,6.53,0,0,1,1.07,4Zm-1.17-.2a5.43,5.43,0,0,0-.82-3.18,2.65,2.65,0,0,0-2.3-1.16,3.23,3.23,0,0,0-1.84.51,3.19,3.19,0,0,0-1.17,1.5v5a3,3,0,0,0,1.19,1.38,3.52,3.52,0,0,0,1.84.47,2.63,2.63,0,0,0,2.28-1.17A5.85,5.85,0,0,0,284.51,151.26Z" transform="translate(-1.79)" style="fill:#bbbdbf"/><path d="M287.61,151.2a6.21,6.21,0,0,1,.59-2.73,4.43,4.43,0,0,1,4.1-2.57,4.35,4.35,0,0,1,3.4,1.48,5.7,5.7,0,0,1,1.3,3.9v.24a6.23,6.23,0,0,1-.59,2.74,4.29,4.29,0,0,1-1.66,1.88,4.53,4.53,0,0,1-2.44.66,4.32,4.32,0,0,1-3.39-1.47,5.66,5.66,0,0,1-1.31-3.9Zm1.17.32a4.74,4.74,0,0,0,1,3.09,3.14,3.14,0,0,0,2.56,1.21,3.11,3.11,0,0,0,2.55-1.21,4.86,4.86,0,0,0,1-3.19v-.22a5.36,5.36,0,0,0-.45-2.21,3.58,3.58,0,0,0-1.25-1.55,3.23,3.23,0,0,0-1.84-.54,3.1,3.1,0,0,0-2.54,1.21,5,5,0,0,0-1,3.2Z" transform="translate(-1.79)" style="fill:#bbbdbf"/><path d="M300.5,146.1l0,1.8a4.22,4.22,0,0,1,1.48-1.49,3.84,3.84,0,0,1,2-.51,3.14,3.14,0,0,1,2.52,1,4.23,4.23,0,0,1,.83,2.85v6.9h-1.15V149.7a3.25,3.25,0,0,0-.6-2.1,2.34,2.34,0,0,0-1.88-.68,2.93,2.93,0,0,0-1.91.67,4,4,0,0,0-1.23,1.82v7.2H299.4V146.1Z" transform="translate(-1.79)" style="fill:#bbbdbf"/><path d="M314.39,156.8a4.56,4.56,0,0,1-2.42-.66,4.47,4.47,0,0,1-1.68-1.84,5.61,5.61,0,0,1-.61-2.64v-.42a6.21,6.21,0,0,1,.59-2.73,4.65,4.65,0,0,1,1.64-1.91,4,4,0,0,1,2.27-.7,3.81,3.81,0,0,1,3,1.31,5.34,5.34,0,0,1,1.12,3.57v.65h-7.5v.23a4.39,4.39,0,0,0,1,3,3.26,3.26,0,0,0,2.58,1.19,3.77,3.77,0,0,0,1.65-.34,3.56,3.56,0,0,0,1.3-1.09l.73.56A4.25,4.25,0,0,1,314.39,156.8Zm-.21-9.9a2.92,2.92,0,0,0-2.21,1,4.43,4.43,0,0,0-1.09,2.58h6.3v-.13a3.83,3.83,0,0,0-.86-2.46A2.68,2.68,0,0,0,314.18,146.9Z" transform="translate(-1.79)" style="fill:#bbbdbf"/><path d="M321.71,146.1l0,1.8a4.2,4.2,0,0,1,1.47-1.49,3.85,3.85,0,0,1,2-.51,3.13,3.13,0,0,1,2.51,1,4.29,4.29,0,0,1,.84,2.85v6.9h-1.16V149.7a3.13,3.13,0,0,0-.6-2.1,2.31,2.31,0,0,0-1.87-.68,2.93,2.93,0,0,0-1.91.67,3.89,3.89,0,0,0-1.23,1.82v7.2H320.6V146.1Z" transform="translate(-1.79)" style="fill:#bbbdbf"/><path d="M333.34,143.41v2.69h2.17v1h-2.17v7a2.22,2.22,0,0,0,.31,1.31,1.24,1.24,0,0,0,1.06.42,8,8,0,0,0,.94-.09l.05.94a3.83,3.83,0,0,1-1.25.16,2.07,2.07,0,0,1-1.73-.69,3.23,3.23,0,0,1-.55-2.05v-7h-1.93v-1h1.93v-2.69Z" transform="translate(-1.79)" style="fill:#bbbdbf"/><path d="M344.22,153.94a1.64,1.64,0,0,0-.7-1.39,5.37,5.37,0,0,0-2.09-.82,9.82,9.82,0,0,1-2.17-.68,2.91,2.91,0,0,1-1.15-.94,2.34,2.34,0,0,1-.37-1.34,2.47,2.47,0,0,1,1-2.05,4.14,4.14,0,0,1,2.66-.82,4.32,4.32,0,0,1,2.82.87,2.79,2.79,0,0,1,1.06,2.27h-1.16a1.89,1.89,0,0,0-.77-1.53,3,3,0,0,0-1.95-.61,3,3,0,0,0-1.84.51,1.56,1.56,0,0,0-.7,1.32,1.45,1.45,0,0,0,.58,1.22,6.14,6.14,0,0,0,2.11.79,10,10,0,0,1,2.29.77,2.9,2.9,0,0,1,1.13,1,2.49,2.49,0,0,1,.37,1.39,2.53,2.53,0,0,1-1.07,2.13,4.6,4.6,0,0,1-2.8.79,4.72,4.72,0,0,1-3-.88,2.76,2.76,0,0,1-1.14-2.25h1.16a2,2,0,0,0,.86,1.58,3.53,3.53,0,0,0,2.1.57,3.34,3.34,0,0,0,2-.53A1.61,1.61,0,0,0,344.22,153.94Z" transform="translate(-1.79)" style="fill:#bbbdbf"/><path d="M375.62,153.13a2.3,2.3,0,0,0-.82-1.86,8.85,8.85,0,0,0-3-1.3,10.36,10.36,0,0,1-3.21-1.35,3.25,3.25,0,0,1-.1-5.33,5.46,5.46,0,0,1,3.41-1,5.56,5.56,0,0,1,2.52.55,4.12,4.12,0,0,1,1.73,1.51,4,4,0,0,1,.61,2.17h-1.21a3,3,0,0,0-1-2.34,3.88,3.88,0,0,0-2.66-.88,4.14,4.14,0,0,0-2.58.73,2.25,2.25,0,0,0-1,1.89,2.12,2.12,0,0,0,.86,1.76,8.19,8.19,0,0,0,2.77,1.2,13.12,13.12,0,0,1,2.88,1.08,4,4,0,0,1,1.48,1.34,3.32,3.32,0,0,1,.5,1.83,3.19,3.19,0,0,1-1.34,2.68,5.64,5.64,0,0,1-3.52,1,7,7,0,0,1-2.74-.53,4.2,4.2,0,0,1-1.9-1.5,3.84,3.84,0,0,1-.64-2.2h1.19a2.81,2.81,0,0,0,1.12,2.36,4.74,4.74,0,0,0,3,.86,4.38,4.38,0,0,0,2.65-.73A2.26,2.26,0,0,0,375.62,153.13Z" transform="translate(-1.79)" style="fill:#bbbdbf"/><path d="M383.2,156.8a4.56,4.56,0,0,1-2.42-.66,4.43,4.43,0,0,1-1.69-1.84,5.73,5.73,0,0,1-.6-2.64v-.42a6.08,6.08,0,0,1,.59-2.73,4.62,4.62,0,0,1,1.63-1.91,4.08,4.08,0,0,1,2.28-.7,3.8,3.8,0,0,1,3,1.31,5.29,5.29,0,0,1,1.12,3.57v.65h-7.5v.23a4.4,4.4,0,0,0,1,3,3.23,3.23,0,0,0,2.58,1.19,3.7,3.7,0,0,0,1.64-.34,3.56,3.56,0,0,0,1.3-1.09l.73.56A4.24,4.24,0,0,1,383.2,156.8Zm-.21-9.9a2.89,2.89,0,0,0-2.21,1,4.43,4.43,0,0,0-1.1,2.58H386v-.13a3.84,3.84,0,0,0-.87-2.46A2.64,2.64,0,0,0,383,146.9Z" transform="translate(-1.79)" style="fill:#bbbdbf"/><path d="M396,156.61a5.3,5.3,0,0,1-.22-1.47,4.11,4.11,0,0,1-1.56,1.23,4.75,4.75,0,0,1-2,.43,3.52,3.52,0,0,1-2.45-.84,2.74,2.74,0,0,1-.94-2.14,2.83,2.83,0,0,1,1.28-2.43,6.18,6.18,0,0,1,3.56-.89h2.11v-1.2a2.28,2.28,0,0,0-.7-1.77,2.85,2.85,0,0,0-2-.64,3.13,3.13,0,0,0-2,.62,1.84,1.84,0,0,0-.8,1.49h-1.16a2.69,2.69,0,0,1,1.16-2.17,4.51,4.51,0,0,1,2.87-.92,4.13,4.13,0,0,1,2.77.88,3.16,3.16,0,0,1,1,2.46v5a6.2,6.2,0,0,0,.32,2.28v.12Zm-3.65-.84a3.84,3.84,0,0,0,2.08-.56,3.4,3.4,0,0,0,1.34-1.5v-2.32h-2.08A5.28,5.28,0,0,0,391,152a2,2,0,0,0-.33,3.16A2.48,2.48,0,0,0,392.39,155.77Z" transform="translate(-1.79)" style="fill:#bbbdbf"/><path d="M404.92,147.09a4,4,0,0,0-.79-.07,2.82,2.82,0,0,0-1.84.61,3.29,3.29,0,0,0-1.07,1.76v7.22h-1.16V146.1h1.14l0,1.67a3.09,3.09,0,0,1,3-1.87,2,2,0,0,1,.77.13Z" transform="translate(-1.79)" style="fill:#bbbdbf"/><path d="M410.46,155.82a3.09,3.09,0,0,0,2-.68,2.39,2.39,0,0,0,.89-1.77h1.12a3.35,3.35,0,0,1-.6,1.75,3.75,3.75,0,0,1-1.48,1.24,4.5,4.5,0,0,1-2,.44,4.07,4.07,0,0,1-3.28-1.43A5.8,5.8,0,0,1,406,151.5v-.35a6.62,6.62,0,0,1,.54-2.75,4.23,4.23,0,0,1,1.56-1.84,4.28,4.28,0,0,1,2.38-.66,4.09,4.09,0,0,1,2.85,1,3.75,3.75,0,0,1,1.2,2.71h-1.12a2.8,2.8,0,0,0-2.93-2.74A2.9,2.9,0,0,0,408,148a5.15,5.15,0,0,0-.87,3.19v.34a5.05,5.05,0,0,0,.87,3.14A2.93,2.93,0,0,0,410.46,155.82Z" transform="translate(-1.79)" style="fill:#bbbdbf"/><path d="M418,147.88a4.08,4.08,0,0,1,1.46-1.46,3.91,3.91,0,0,1,2-.52,3.13,3.13,0,0,1,2.51,1,4.29,4.29,0,0,1,.84,2.85v6.9h-1.16V149.7a3.25,3.25,0,0,0-.6-2.1,2.34,2.34,0,0,0-1.88-.68,3,3,0,0,0-1.91.67,3.94,3.94,0,0,0-1.22,1.82v7.2h-1.16V141.69H418Z" transform="translate(-1.79)" style="fill:#bbbdbf"/><path d="M455.37,153.13a2.3,2.3,0,0,0-.83-1.86,8.85,8.85,0,0,0-3-1.3,10.47,10.47,0,0,1-3.21-1.35,3.26,3.26,0,0,1-.1-5.33,5.46,5.46,0,0,1,3.41-1,5.63,5.63,0,0,1,2.53.55,4.09,4.09,0,0,1,1.72,1.51,4,4,0,0,1,.61,2.17h-1.2a3,3,0,0,0-1-2.34,3.91,3.91,0,0,0-2.67-.88A4.14,4.14,0,0,0,449,144a2.25,2.25,0,0,0-1,1.89,2.15,2.15,0,0,0,.86,1.76,8.19,8.19,0,0,0,2.77,1.2,13.45,13.45,0,0,1,2.89,1.08,4.09,4.09,0,0,1,1.47,1.34,3.32,3.32,0,0,1,.5,1.83,3.19,3.19,0,0,1-1.34,2.68,5.64,5.64,0,0,1-3.52,1,7,7,0,0,1-2.74-.53,4.26,4.26,0,0,1-1.9-1.5,3.84,3.84,0,0,1-.64-2.2h1.19a2.84,2.84,0,0,0,1.12,2.36,4.76,4.76,0,0,0,3,.86,4.36,4.36,0,0,0,2.65-.73A2.27,2.27,0,0,0,455.37,153.13Z" transform="translate(-1.79)" style="fill:#bbbdbf"/><path d="M462.94,156.8a4.56,4.56,0,0,1-2.42-.66,4.49,4.49,0,0,1-1.69-1.84,5.73,5.73,0,0,1-.6-2.64v-.42a6.21,6.21,0,0,1,.59-2.73,4.7,4.7,0,0,1,1.63-1.91,4.08,4.08,0,0,1,2.28-.7,3.79,3.79,0,0,1,3,1.31,5.29,5.29,0,0,1,1.13,3.57v.65h-7.5v.23a4.39,4.39,0,0,0,1,3,3.23,3.23,0,0,0,2.58,1.19,3.77,3.77,0,0,0,1.65-.34,3.62,3.62,0,0,0,1.29-1.09l.73.56A4.22,4.22,0,0,1,462.94,156.8Zm-.21-9.9a2.9,2.9,0,0,0-2.21,1,4.43,4.43,0,0,0-1.1,2.58h6.31v-.13a3.78,3.78,0,0,0-.87-2.46A2.64,2.64,0,0,0,462.73,146.9Z" transform="translate(-1.79)" style="fill:#bbbdbf"/><path d="M474,147.09a4,4,0,0,0-.79-.07,2.8,2.8,0,0,0-1.84.61,3.29,3.29,0,0,0-1.07,1.76v7.22h-1.16V146.1h1.14l0,1.67a3.09,3.09,0,0,1,3-1.87,2,2,0,0,1,.77.13Z" transform="translate(-1.79)" style="fill:#bbbdbf"/><path d="M479.29,155l3.2-8.91h1.19l-3.92,10.51h-.95l-3.94-10.51h1.2Z" transform="translate(-1.79)" style="fill:#bbbdbf"/><path d="M489.53,156.8a4.56,4.56,0,0,1-2.42-.66,4.43,4.43,0,0,1-1.69-1.84,5.73,5.73,0,0,1-.6-2.64v-.42a6.08,6.08,0,0,1,.59-2.73A4.62,4.62,0,0,1,487,146.6a4.08,4.08,0,0,1,2.28-.7,3.8,3.8,0,0,1,3,1.31,5.29,5.29,0,0,1,1.12,3.57v.65H486v.23a4.35,4.35,0,0,0,1,3,3.23,3.23,0,0,0,2.58,1.19,3.7,3.7,0,0,0,1.64-.34,3.56,3.56,0,0,0,1.3-1.09l.73.56A4.23,4.23,0,0,1,489.53,156.8Zm-.21-9.9a2.89,2.89,0,0,0-2.21,1,4.43,4.43,0,0,0-1.1,2.58h6.31v-.13a3.84,3.84,0,0,0-.87-2.46A2.64,2.64,0,0,0,489.32,146.9Z" transform="translate(-1.79)" style="fill:#bbbdbf"/><path d="M500.59,147.09a3.9,3.9,0,0,0-.78-.07,2.8,2.8,0,0,0-1.84.61,3.3,3.3,0,0,0-1.08,1.76v7.22h-1.15V146.1h1.13l0,1.67a3.11,3.11,0,0,1,3-1.87,1.93,1.93,0,0,1,.76.13Z" transform="translate(-1.79)" style="fill:#bbbdbf"/><path d="M515.54,153.13a2.3,2.3,0,0,0-.82-1.86,8.85,8.85,0,0,0-3-1.3,10.36,10.36,0,0,1-3.21-1.35,3.25,3.25,0,0,1-.1-5.33,5.46,5.46,0,0,1,3.41-1,5.56,5.56,0,0,1,2.52.55,4.12,4.12,0,0,1,1.73,1.51,4,4,0,0,1,.61,2.17h-1.2a3,3,0,0,0-1-2.34,3.92,3.92,0,0,0-2.67-.88,4.14,4.14,0,0,0-2.58.73,2.25,2.25,0,0,0-1,1.89,2.15,2.15,0,0,0,.86,1.76,8.19,8.19,0,0,0,2.77,1.2,13.45,13.45,0,0,1,2.89,1.08,4.09,4.09,0,0,1,1.47,1.34,3.32,3.32,0,0,1,.5,1.83,3.19,3.19,0,0,1-1.34,2.68,5.64,5.64,0,0,1-3.52,1,7,7,0,0,1-2.74-.53,4.2,4.2,0,0,1-1.9-1.5,3.84,3.84,0,0,1-.64-2.2h1.19a2.81,2.81,0,0,0,1.12,2.36,4.74,4.74,0,0,0,3,.86,4.36,4.36,0,0,0,2.65-.73A2.26,2.26,0,0,0,515.54,153.13Z" transform="translate(-1.79)" style="fill:#bbbdbf"/><path d="M519,143.06a.74.74,0,0,1,.22-.55.75.75,0,0,1,.58-.23.81.81,0,0,1,.59.23.77.77,0,0,1,.21.55.75.75,0,0,1-.21.55.8.8,0,0,1-.59.22.75.75,0,0,1-.58-.22A.72.72,0,0,1,519,143.06Zm1.37,13.55h-1.16V146.1h1.16Z" transform="translate(-1.79)" style="fill:#bbbdbf"/><path d="M523,151.26a6.31,6.31,0,0,1,1.1-3.9,3.49,3.49,0,0,1,3-1.46,3.67,3.67,0,0,1,3.25,1.68v-5.89h1.15v14.92h-1.08l0-1.4a3.77,3.77,0,0,1-3.29,1.59,3.5,3.5,0,0,1-2.93-1.46,6.37,6.37,0,0,1-1.11-4Zm1.18.2a5.53,5.53,0,0,0,.8,3.17,2.61,2.61,0,0,0,2.28,1.16,3.13,3.13,0,0,0,3.05-1.89V149a3.11,3.11,0,0,0-3-2,2.65,2.65,0,0,0-2.29,1.15A5.85,5.85,0,0,0,524.22,151.46Z" transform="translate(-1.79)" style="fill:#bbbdbf"/><path d="M538.63,156.8a4.52,4.52,0,0,1-4.11-2.5,5.73,5.73,0,0,1-.6-2.64v-.42a6.21,6.21,0,0,1,.59-2.73,4.65,4.65,0,0,1,1.64-1.91,4,4,0,0,1,2.27-.7,3.79,3.79,0,0,1,3,1.31,5.29,5.29,0,0,1,1.13,3.57v.65h-7.5v.23a4.39,4.39,0,0,0,1,3,3.26,3.26,0,0,0,2.58,1.19,3.77,3.77,0,0,0,1.65-.34,3.54,3.54,0,0,0,1.29-1.09l.73.56A4.22,4.22,0,0,1,538.63,156.8Zm-.21-9.9a2.92,2.92,0,0,0-2.21,1,4.43,4.43,0,0,0-1.09,2.58h6.3v-.13a3.83,3.83,0,0,0-.86-2.46A2.68,2.68,0,0,0,538.42,146.9Z" transform="translate(-1.79)" style="fill:#bbbdbf"/><path d="M555.23,150.71h-4.1v5.9h-1.21V142.47h4.6a5.25,5.25,0,0,1,3.53,1.09,4.2,4.2,0,0,1,.48,5.46,4,4,0,0,1-2.14,1.44l3.54,6v.13h-1.28Zm-4.1-1h3.66a3.4,3.4,0,0,0,2.42-.85,3.25,3.25,0,0,0,0-4.55,4,4,0,0,0-2.67-.82h-3.37Z" transform="translate(-1.79)" style="fill:#bbbdbf"/><path d="M566.38,156.8a4.59,4.59,0,0,1-2.43-.66,4.47,4.47,0,0,1-1.68-1.84,5.73,5.73,0,0,1-.6-2.64v-.42a6.21,6.21,0,0,1,.58-2.73,4.72,4.72,0,0,1,1.64-1.91,4.07,4.07,0,0,1,2.27-.7,3.81,3.81,0,0,1,3,1.31,5.29,5.29,0,0,1,1.12,3.57v.65h-7.5v.23a4.35,4.35,0,0,0,1,3,3.23,3.23,0,0,0,2.58,1.19,3.7,3.7,0,0,0,1.64-.34,3.56,3.56,0,0,0,1.3-1.09l.73.56A4.24,4.24,0,0,1,566.38,156.8Zm-.22-9.9a2.92,2.92,0,0,0-2.21,1,4.43,4.43,0,0,0-1.09,2.58h6.3v-.13a3.83,3.83,0,0,0-.86-2.46A2.66,2.66,0,0,0,566.16,146.9Z" transform="translate(-1.79)" style="fill:#bbbdbf"/><path d="M573.69,146.1l0,1.8a4.22,4.22,0,0,1,1.48-1.49,3.84,3.84,0,0,1,1.95-.51,3.16,3.16,0,0,1,2.52,1,4.29,4.29,0,0,1,.83,2.85v6.9h-1.16V149.7a3.19,3.19,0,0,0-.59-2.1,2.34,2.34,0,0,0-1.88-.68,2.93,2.93,0,0,0-1.91.67,4,4,0,0,0-1.23,1.82v7.2h-1.16V146.1Z" transform="translate(-1.79)" style="fill:#bbbdbf"/><path d="M583.05,151.26a6.31,6.31,0,0,1,1.09-3.9,3.53,3.53,0,0,1,3-1.46,3.65,3.65,0,0,1,3.24,1.68v-5.89h1.16v14.92h-1.09l0-1.4a3.75,3.75,0,0,1-3.28,1.59,3.49,3.49,0,0,1-2.93-1.46,6.37,6.37,0,0,1-1.11-4Zm1.17.2a5.45,5.45,0,0,0,.81,3.17,2.58,2.58,0,0,0,2.27,1.16,3.13,3.13,0,0,0,3.05-1.89V149a3.1,3.1,0,0,0-3-2,2.62,2.62,0,0,0-2.28,1.15A5.77,5.77,0,0,0,584.22,151.46Z" transform="translate(-1.79)" style="fill:#bbbdbf"/><path d="M598.64,156.8a4.59,4.59,0,0,1-2.43-.66,4.47,4.47,0,0,1-1.68-1.84,5.73,5.73,0,0,1-.6-2.64v-.42a6.21,6.21,0,0,1,.58-2.73,4.65,4.65,0,0,1,1.64-1.91,4.07,4.07,0,0,1,2.27-.7,3.81,3.81,0,0,1,3,1.31,5.29,5.29,0,0,1,1.12,3.57v.65h-7.5v.23a4.35,4.35,0,0,0,1,3,3.23,3.23,0,0,0,2.58,1.19,3.7,3.7,0,0,0,1.64-.34,3.56,3.56,0,0,0,1.3-1.09l.73.56A4.24,4.24,0,0,1,598.64,156.8Zm-.22-9.9a2.92,2.92,0,0,0-2.21,1,4.43,4.43,0,0,0-1.09,2.58h6.3v-.13a3.83,3.83,0,0,0-.86-2.46A2.66,2.66,0,0,0,598.42,146.9Z" transform="translate(-1.79)" style="fill:#bbbdbf"/><path d="M609.7,147.09a4,4,0,0,0-.79-.07,2.82,2.82,0,0,0-1.84.61,3.29,3.29,0,0,0-1.07,1.76v7.22h-1.16V146.1H606l0,1.67a3.09,3.09,0,0,1,3-1.87,2,2,0,0,1,.77.13Z" transform="translate(-1.79)" style="fill:#bbbdbf"/><path d="M611.47,143.06a.77.77,0,0,1,.21-.55.79.79,0,0,1,.59-.23.77.77,0,0,1,.58.23.74.74,0,0,1,.22.55.72.72,0,0,1-.22.55.76.76,0,0,1-.58.22.78.78,0,0,1-.59-.22A.75.75,0,0,1,611.47,143.06Zm1.37,13.55h-1.17V146.1h1.17Z" transform="translate(-1.79)" style="fill:#bbbdbf"/><path d="M617.1,146.1l0,1.8a4.22,4.22,0,0,1,1.48-1.49,3.84,3.84,0,0,1,2-.51,3.14,3.14,0,0,1,2.52,1,4.23,4.23,0,0,1,.83,2.85v6.9h-1.15V149.7a3.25,3.25,0,0,0-.6-2.1,2.34,2.34,0,0,0-1.88-.68,3,3,0,0,0-1.91.67,4,4,0,0,0-1.23,1.82v7.2H616V146.1Z" transform="translate(-1.79)" style="fill:#bbbdbf"/><path d="M626.46,151.26a6.3,6.3,0,0,1,1.09-3.91,3.54,3.54,0,0,1,3-1.45,3.64,3.64,0,0,1,3.26,1.71l.06-1.51h1.09v10.3a4.44,4.44,0,0,1-1.14,3.21,4.07,4.07,0,0,1-3.08,1.19,4.75,4.75,0,0,1-2.09-.49,4.15,4.15,0,0,1-1.57-1.31l.65-.7a3.69,3.69,0,0,0,2.94,1.52,3,3,0,0,0,2.27-.86,3.46,3.46,0,0,0,.84-2.39v-1.32a3.74,3.74,0,0,1-3.25,1.55,3.51,3.51,0,0,1-2.94-1.45,6.42,6.42,0,0,1-1.1-3.94Zm1.17.2a5.45,5.45,0,0,0,.81,3.17,2.59,2.59,0,0,0,2.27,1.16,3.1,3.1,0,0,0,3-1.92V149a3.36,3.36,0,0,0-1.17-1.54,3.19,3.19,0,0,0-1.85-.52,2.62,2.62,0,0,0-2.28,1.15A5.77,5.77,0,0,0,627.63,151.46Z" transform="translate(-1.79)" style="fill:#bbbdbf"/><path d="M666.79,143.48h-4.85v13.13h-1.19V143.48h-4.84v-1h10.88Z" transform="translate(-1.79)" style="fill:#bbbdbf"/><path d="M674.34,156.61a5.3,5.3,0,0,1-.22-1.47,4.11,4.11,0,0,1-1.56,1.23,4.75,4.75,0,0,1-2,.43,3.52,3.52,0,0,1-2.45-.84,2.74,2.74,0,0,1-.94-2.14,2.83,2.83,0,0,1,1.28-2.43,6.18,6.18,0,0,1,3.56-.89h2.11v-1.2a2.31,2.31,0,0,0-.7-1.77,2.87,2.87,0,0,0-2-.64,3.13,3.13,0,0,0-2,.62,1.82,1.82,0,0,0-.8,1.49h-1.17a2.7,2.7,0,0,1,1.17-2.17,4.5,4.5,0,0,1,2.86-.92,4.14,4.14,0,0,1,2.78.88,3.2,3.2,0,0,1,1,2.46v5a6.2,6.2,0,0,0,.32,2.28v.12Zm-3.65-.84a3.86,3.86,0,0,0,2.08-.56,3.4,3.4,0,0,0,1.34-1.5v-2.32H672a5.28,5.28,0,0,0-2.72.64,1.9,1.9,0,0,0-1,1.69,1.87,1.87,0,0,0,.65,1.47A2.48,2.48,0,0,0,670.69,155.77Z" transform="translate(-1.79)" style="fill:#bbbdbf"/><path d="M677.89,151.26a6.31,6.31,0,0,1,1.1-3.91,3.52,3.52,0,0,1,3-1.45,3.66,3.66,0,0,1,3.27,1.71l.06-1.51h1.08v10.3a4.43,4.43,0,0,1-1.13,3.21,4.08,4.08,0,0,1-3.08,1.19,4.75,4.75,0,0,1-2.09-.49,4.08,4.08,0,0,1-1.57-1.31l.65-.7a3.68,3.68,0,0,0,2.93,1.52,3,3,0,0,0,2.27-.86,3.42,3.42,0,0,0,.85-2.39v-1.32a3.75,3.75,0,0,1-3.25,1.55,3.51,3.51,0,0,1-2.94-1.45,6.36,6.36,0,0,1-1.11-3.94Zm1.18.2a5.45,5.45,0,0,0,.81,3.17,2.58,2.58,0,0,0,2.27,1.16,3.11,3.11,0,0,0,3-1.92V149a3.31,3.31,0,0,0-1.18-1.54,3.16,3.16,0,0,0-1.84-.52,2.62,2.62,0,0,0-2.28,1.15A5.77,5.77,0,0,0,679.07,151.46Z" transform="translate(-1.79)" style="fill:#bbbdbf"/><path d="M695.69,153.94a1.66,1.66,0,0,0-.69-1.39,5.42,5.42,0,0,0-2.1-.82,10,10,0,0,1-2.17-.68,2.87,2.87,0,0,1-1.14-.94,2.35,2.35,0,0,1-.38-1.34,2.5,2.5,0,0,1,1-2.05,4.14,4.14,0,0,1,2.66-.82,4.32,4.32,0,0,1,2.82.87A2.8,2.8,0,0,1,696.8,149h-1.17a1.89,1.89,0,0,0-.77-1.53,3.49,3.49,0,0,0-3.79-.1,1.57,1.57,0,0,0-.69,1.32A1.44,1.44,0,0,0,691,150a6.14,6.14,0,0,0,2.11.79,9.83,9.83,0,0,1,2.29.77,3,3,0,0,1,1.14,1,2.57,2.57,0,0,1,.37,1.39,2.51,2.51,0,0,1-1.08,2.13,4.58,4.58,0,0,1-2.8.79,4.73,4.73,0,0,1-3-.88,2.76,2.76,0,0,1-1.14-2.25H690a2,2,0,0,0,.86,1.58,3.47,3.47,0,0,0,2.09.57,3.34,3.34,0,0,0,2-.53A1.61,1.61,0,0,0,695.69,153.94Z" transform="translate(-1.79)" style="fill:#bbbdbf"/><path d="M728.3,143.48h-4.85v13.13h-1.19V143.48h-4.84v-1H728.3Z" transform="translate(-1.79)" style="fill:#bbbdbf"/><path d="M731.47,147.88a4.08,4.08,0,0,1,1.46-1.46,3.91,3.91,0,0,1,2-.52,3.13,3.13,0,0,1,2.51,1,4.29,4.29,0,0,1,.84,2.85v6.9h-1.16V149.7a3.19,3.19,0,0,0-.6-2.1,2.32,2.32,0,0,0-1.88-.68,2.92,2.92,0,0,0-1.9.67,3.89,3.89,0,0,0-1.23,1.82v7.2h-1.16V141.69h1.16Z" transform="translate(-1.79)" style="fill:#bbbdbf"/><path d="M745.3,156.8a4.56,4.56,0,0,1-2.42-.66,4.43,4.43,0,0,1-1.69-1.84,5.73,5.73,0,0,1-.6-2.64v-.42a6.08,6.08,0,0,1,.59-2.73,4.62,4.62,0,0,1,1.63-1.91,4.08,4.08,0,0,1,2.28-.7,3.8,3.8,0,0,1,3,1.31,5.29,5.29,0,0,1,1.12,3.57v.65h-7.5v.23a4.4,4.4,0,0,0,1,3,3.23,3.23,0,0,0,2.58,1.19,3.7,3.7,0,0,0,1.64-.34,3.56,3.56,0,0,0,1.3-1.09l.73.56A4.22,4.22,0,0,1,745.3,156.8Zm-.21-9.9a2.9,2.9,0,0,0-2.21,1,4.43,4.43,0,0,0-1.1,2.58h6.31v-.13a3.78,3.78,0,0,0-.87-2.46A2.64,2.64,0,0,0,745.09,146.9Z" transform="translate(-1.79)" style="fill:#bbbdbf"/><path d="M752.57,146.1l0,1.71a3.91,3.91,0,0,1,1.46-1.43,4,4,0,0,1,1.94-.48,3,3,0,0,1,3.16,2,4.05,4.05,0,0,1,1.51-1.51,4.21,4.21,0,0,1,2.08-.53q3.38,0,3.44,3.7v7H765v-6.93a3.16,3.16,0,0,0-.61-2.09,2.49,2.49,0,0,0-1.95-.67,3.05,3.05,0,0,0-2.11.81,2.81,2.81,0,0,0-1,1.92v7h-1.17v-7a2.89,2.89,0,0,0-.64-2,2.53,2.53,0,0,0-1.93-.66,2.92,2.92,0,0,0-1.88.62,3.78,3.78,0,0,0-1.17,1.86v7.21h-1.16V146.1Z" transform="translate(-1.79)" style="fill:#bbbdbf"/><path d="M773.21,156.8a4.59,4.59,0,0,1-2.43-.66,4.47,4.47,0,0,1-1.68-1.84,5.73,5.73,0,0,1-.6-2.64v-.42a6.21,6.21,0,0,1,.58-2.73,4.72,4.72,0,0,1,1.64-1.91,4.07,4.07,0,0,1,2.27-.7,3.81,3.81,0,0,1,3,1.31,5.29,5.29,0,0,1,1.12,3.57v.65h-7.5v.23a4.35,4.35,0,0,0,1,3,3.23,3.23,0,0,0,2.58,1.19,3.7,3.7,0,0,0,1.64-.34,3.56,3.56,0,0,0,1.3-1.09l.73.56A4.24,4.24,0,0,1,773.21,156.8Zm-.22-9.9a2.92,2.92,0,0,0-2.21,1,4.49,4.49,0,0,0-1.09,2.58H776v-.13a3.84,3.84,0,0,0-.87-2.46A2.65,2.65,0,0,0,773,146.9Z" transform="translate(-1.79)" style="fill:#bbbdbf"/><path d="M785.71,153.94a1.66,1.66,0,0,0-.69-1.39,5.49,5.49,0,0,0-2.1-.82,10,10,0,0,1-2.17-.68,3,3,0,0,1-1.15-.94,2.34,2.34,0,0,1-.37-1.34,2.5,2.5,0,0,1,1-2.05,4.14,4.14,0,0,1,2.66-.82,4.32,4.32,0,0,1,2.82.87,2.8,2.8,0,0,1,1.07,2.27h-1.17a1.89,1.89,0,0,0-.77-1.53,3.49,3.49,0,0,0-3.79-.1,1.57,1.57,0,0,0-.69,1.32A1.44,1.44,0,0,0,781,150a6.14,6.14,0,0,0,2.11.79,9.83,9.83,0,0,1,2.29.77,3,3,0,0,1,1.14,1,2.57,2.57,0,0,1,.37,1.39A2.51,2.51,0,0,1,785.8,156a4.58,4.58,0,0,1-2.8.79,4.73,4.73,0,0,1-3-.88,2.76,2.76,0,0,1-1.14-2.25h1.17a2,2,0,0,0,.86,1.58,3.47,3.47,0,0,0,2.09.57,3.34,3.34,0,0,0,2-.53A1.61,1.61,0,0,0,785.71,153.94Z" transform="translate(-1.79)" style="fill:#bbbdbf"/><path d="M813.38,154.86l.07.3.09-.3L818,142.47h1.31L814,156.61h-1.15l-5.27-14.14h1.31Z" transform="translate(-1.79)" style="fill:#bbbdbf"/><path d="M824.75,156.8a4.56,4.56,0,0,1-2.42-.66,4.43,4.43,0,0,1-1.69-1.84,5.73,5.73,0,0,1-.6-2.64v-.42a6.21,6.21,0,0,1,.59-2.73,4.62,4.62,0,0,1,1.63-1.91,4.08,4.08,0,0,1,2.28-.7,3.8,3.8,0,0,1,3,1.31,5.29,5.29,0,0,1,1.12,3.57v.65H821.2v.23a4.39,4.39,0,0,0,1,3,3.23,3.23,0,0,0,2.58,1.19,3.77,3.77,0,0,0,1.65-.34,3.62,3.62,0,0,0,1.29-1.09l.73.56A4.22,4.22,0,0,1,824.75,156.8Zm-.21-9.9a2.9,2.9,0,0,0-2.21,1,4.43,4.43,0,0,0-1.1,2.58h6.31v-.13a3.78,3.78,0,0,0-.87-2.46A2.64,2.64,0,0,0,824.54,146.9Z" transform="translate(-1.79)" style="fill:#bbbdbf"/><path d="M835.81,147.09A3.84,3.84,0,0,0,835,147a2.8,2.8,0,0,0-1.84.61,3.36,3.36,0,0,0-1.08,1.76v7.22H831V146.1h1.14v1.67a3.11,3.11,0,0,1,3-1.87,1.93,1.93,0,0,1,.76.13Z" transform="translate(-1.79)" style="fill:#bbbdbf"/><path d="M844,153.94a1.67,1.67,0,0,0-.7-1.39,5.37,5.37,0,0,0-2.09-.82,9.82,9.82,0,0,1-2.17-.68,2.91,2.91,0,0,1-1.15-.94,2.34,2.34,0,0,1-.37-1.34,2.47,2.47,0,0,1,1-2.05,4.14,4.14,0,0,1,2.66-.82,4.32,4.32,0,0,1,2.82.87,2.79,2.79,0,0,1,1.06,2.27h-1.16a1.88,1.88,0,0,0-.78-1.53,3.48,3.48,0,0,0-3.78-.1,1.56,1.56,0,0,0-.7,1.32,1.42,1.42,0,0,0,.58,1.22,6.14,6.14,0,0,0,2.11.79,10,10,0,0,1,2.29.77,2.9,2.9,0,0,1,1.13,1,2.49,2.49,0,0,1,.37,1.39A2.53,2.53,0,0,1,844,156a4.61,4.61,0,0,1-2.81.79,4.7,4.7,0,0,1-3-.88,2.76,2.76,0,0,1-1.14-2.25h1.16a2,2,0,0,0,.86,1.58,3.52,3.52,0,0,0,2.09.57,3.37,3.37,0,0,0,2-.53A1.61,1.61,0,0,0,844,153.94Z" transform="translate(-1.79)" style="fill:#bbbdbf"/><path d="M847.66,143.06a.81.81,0,0,1,1.38-.55.74.74,0,0,1,.22.55.72.72,0,0,1-.22.55.77.77,0,0,1-.59.22.74.74,0,0,1-.79-.77ZM849,156.61h-1.17V146.1H849Z" transform="translate(-1.79)" style="fill:#bbbdbf"/><path d="M851.54,151.2a6.21,6.21,0,0,1,.59-2.73,4.43,4.43,0,0,1,1.66-1.89,4.49,4.49,0,0,1,2.43-.68,4.32,4.32,0,0,1,3.4,1.48,5.66,5.66,0,0,1,1.31,3.9v.24a6.23,6.23,0,0,1-.59,2.74,4.36,4.36,0,0,1-1.66,1.88,4.53,4.53,0,0,1-2.44.66,4.32,4.32,0,0,1-3.39-1.47,5.66,5.66,0,0,1-1.31-3.9Zm1.17.32a4.74,4.74,0,0,0,1,3.09,3.3,3.3,0,0,0,5.11,0,4.92,4.92,0,0,0,1-3.19v-.22a5.36,5.36,0,0,0-.45-2.21,3.65,3.65,0,0,0-1.25-1.55,3.24,3.24,0,0,0-1.85-.54,3.1,3.1,0,0,0-2.53,1.21,4.93,4.93,0,0,0-1,3.2Z" transform="translate(-1.79)" style="fill:#bbbdbf"/><path d="M864.43,146.1l0,1.8a4.22,4.22,0,0,1,1.48-1.49,3.84,3.84,0,0,1,1.95-.51,3.14,3.14,0,0,1,2.52,1,4.23,4.23,0,0,1,.83,2.85v6.9H870.1V149.7a3.25,3.25,0,0,0-.6-2.1,2.34,2.34,0,0,0-1.88-.68,2.93,2.93,0,0,0-1.91.67,4,4,0,0,0-1.23,1.82v7.2h-1.15V146.1Z" transform="translate(-1.79)" style="fill:#bbbdbf"/><path d="M874.19,143.06a.75.75,0,0,1,.79-.78.79.79,0,0,1,.59.23.74.74,0,0,1,.22.55.72.72,0,0,1-.22.55.78.78,0,0,1-.59.22.74.74,0,0,1-.79-.77Zm1.37,13.55h-1.17V146.1h1.17Z" transform="translate(-1.79)" style="fill:#bbbdbf"/><path d="M879.82,146.1l0,1.8a4.2,4.2,0,0,1,1.47-1.49,3.85,3.85,0,0,1,2-.51,3.13,3.13,0,0,1,2.51,1,4.29,4.29,0,0,1,.84,2.85v6.9h-1.16V149.7a3.19,3.19,0,0,0-.59-2.1,2.35,2.35,0,0,0-1.88-.68,2.93,2.93,0,0,0-1.91.67,3.89,3.89,0,0,0-1.23,1.82v7.2h-1.16V146.1Z" transform="translate(-1.79)" style="fill:#bbbdbf"/><path d="M889.17,151.26a6.31,6.31,0,0,1,1.1-3.91,3.52,3.52,0,0,1,3-1.45,3.66,3.66,0,0,1,3.27,1.71l.06-1.51h1.09v10.3a4.44,4.44,0,0,1-1.14,3.21,4.08,4.08,0,0,1-3.08,1.19,4.75,4.75,0,0,1-2.09-.49,4.08,4.08,0,0,1-1.57-1.31l.65-.7a3.68,3.68,0,0,0,2.93,1.52,3,3,0,0,0,2.27-.86,3.42,3.42,0,0,0,.85-2.39v-1.32a3.74,3.74,0,0,1-3.25,1.55,3.51,3.51,0,0,1-2.94-1.45,6.36,6.36,0,0,1-1.11-3.94Zm1.18.2a5.45,5.45,0,0,0,.81,3.17,2.58,2.58,0,0,0,2.27,1.16,3.11,3.11,0,0,0,3-1.92V149a3.31,3.31,0,0,0-1.18-1.54,3.16,3.16,0,0,0-1.84-.52,2.62,2.62,0,0,0-2.28,1.15A5.77,5.77,0,0,0,890.35,151.46Z" transform="translate(-1.79)" style="fill:#bbbdbf"/><line x1="624.5" y1="1" x2="347.5" y2="1" style="fill:none;stroke:#1b75bb;stroke-linecap:square;stroke-miterlimit:10;stroke-width:2px"/></g></g></svg>