<svg xmlns="http://www.w3.org/2000/svg" viewBox="0 0 699.07 160.8"><g id="Layer_2" data-name="Layer 2"><g id="Layer_1-2" data-name="Layer 1"><path d="M9.42,68.16H3l-1.46,4H.29L5.64,58H6.78l5.35,14.15H10.89Zm-6-1H9l-2.83-7.7Z" transform="translate(-0.29)" style="fill:#bbbdbf"/><path d="M15.67,72.14h-1.2V58h1.2Z" transform="translate(-0.29)" style="fill:#bbbdbf"/><path d="M46.49,68.16H40.07l-1.46,4H37.36L42.71,58h1.14L49.2,72.14H48Zm-6.05-1h5.67l-2.83-7.7Z" transform="translate(-0.29)" style="fill:#bbbdbf"/><path d="M57.66,70.81a3.78,3.78,0,0,1-3.35,1.52,3.21,3.21,0,0,1-2.55-1,4.27,4.27,0,0,1-.9-2.89V61.63H52v6.69q0,3,2.43,3a3,3,0,0,0,3.19-2.09v-7.6h1.17V72.14H57.68Z" transform="translate(-0.29)" style="fill:#bbbdbf"/><path d="M63.64,58.94v2.69h2.17v.95H63.64v7a2.19,2.19,0,0,0,.31,1.3,1.21,1.21,0,0,0,1.06.43,6.63,6.63,0,0,0,.94-.1l0,1a3.83,3.83,0,0,1-1.25.16A2.07,2.07,0,0,1,63,71.64a3.25,3.25,0,0,1-.55-2v-7H60.54v-.95h1.93V58.94Z" transform="translate(-0.29)" style="fill:#bbbdbf"/><path d="M67.39,66.73A6.21,6.21,0,0,1,68,64a4.52,4.52,0,0,1,1.67-1.89,4.45,4.45,0,0,1,2.43-.68,4.33,4.33,0,0,1,3.4,1.47,5.66,5.66,0,0,1,1.3,3.9v.25a6.26,6.26,0,0,1-.59,2.74,4.39,4.39,0,0,1-1.65,1.88,4.58,4.58,0,0,1-2.44.66,4.34,4.34,0,0,1-3.4-1.47,5.66,5.66,0,0,1-1.3-3.9Zm1.16.32a4.78,4.78,0,0,0,1,3.09,3.3,3.3,0,0,0,5.11,0,4.93,4.93,0,0,0,1-3.19v-.22a5.32,5.32,0,0,0-.44-2.21A3.61,3.61,0,0,0,73.91,63a3.22,3.22,0,0,0-1.84-.55,3.13,3.13,0,0,0-2.54,1.22,5,5,0,0,0-1,3.19Z" transform="translate(-0.29)" style="fill:#bbbdbf"/><path d="M85.48,71.13h7v1H84.28V58h1.2Z" transform="translate(-0.29)" style="fill:#bbbdbf"/><path d="M101.12,72.14a5.71,5.71,0,0,1-.22-1.47,4.11,4.11,0,0,1-1.56,1.23,4.75,4.75,0,0,1-2,.43,3.54,3.54,0,0,1-2.45-.84,2.79,2.79,0,0,1-.94-2.14,2.83,2.83,0,0,1,1.28-2.43A6.11,6.11,0,0,1,98.78,66h2.11v-1.2a2.3,2.3,0,0,0-.69-1.77,2.89,2.89,0,0,0-2-.65,3.14,3.14,0,0,0-2,.63,1.84,1.84,0,0,0-.8,1.49H94.2a2.72,2.72,0,0,1,1.16-2.17,4.53,4.53,0,0,1,2.87-.92,4.06,4.06,0,0,1,2.77.88,3.15,3.15,0,0,1,1,2.45v5a6.06,6.06,0,0,0,.32,2.28v.12Zm-3.65-.84a3.93,3.93,0,0,0,2.08-.56,3.31,3.31,0,0,0,1.34-1.51V66.92H98.81a5.2,5.2,0,0,0-2.72.64,1.91,1.91,0,0,0-1,1.69,1.88,1.88,0,0,0,.66,1.47A2.44,2.44,0,0,0,97.47,71.3Z" transform="translate(-0.29)" style="fill:#bbbdbf"/><path d="M108.33,70.47l3.07-8.84h1.25l-4.48,12.29-.24.55a2.81,2.81,0,0,1-2.67,1.91,3.19,3.19,0,0,1-.89-.13v-1l.6.06a2.14,2.14,0,0,0,1.38-.42,3.12,3.12,0,0,0,.9-1.45l.52-1.42-4-10.42h1.28Z" transform="translate(-0.29)" style="fill:#bbbdbf"/><path d="M113.66,66.73a6.21,6.21,0,0,1,.59-2.73,4.43,4.43,0,0,1,4.1-2.57,4.34,4.34,0,0,1,3.4,1.47,5.7,5.7,0,0,1,1.3,3.9v.25a6.26,6.26,0,0,1-.59,2.74,4.35,4.35,0,0,1-1.66,1.88,4.52,4.52,0,0,1-2.43.66,4.33,4.33,0,0,1-3.4-1.47,5.66,5.66,0,0,1-1.31-3.9Zm1.17.32a4.73,4.73,0,0,0,1,3.09,3.3,3.3,0,0,0,5.11,0,4.93,4.93,0,0,0,1-3.19v-.22a5.32,5.32,0,0,0-.45-2.21A3.52,3.52,0,0,0,120.19,63a3.24,3.24,0,0,0-1.84-.55,3.11,3.11,0,0,0-2.54,1.22,5,5,0,0,0-1,3.19Z" transform="translate(-0.29)" style="fill:#bbbdbf"/><path d="M132.21,70.81a3.79,3.79,0,0,1-3.35,1.52,3.23,3.23,0,0,1-2.56-1,4.27,4.27,0,0,1-.89-2.89V61.63h1.15v6.69q0,3,2.43,3a3,3,0,0,0,3.2-2.09v-7.6h1.16V72.14h-1.12Z" transform="translate(-0.29)" style="fill:#bbbdbf"/><path d="M138.18,58.94v2.69h2.18v.95h-2.18v7a2.18,2.18,0,0,0,.32,1.3,1.21,1.21,0,0,0,1.05.43,6.36,6.36,0,0,0,.94-.1l0,1a3.77,3.77,0,0,1-1.24.16,2.07,2.07,0,0,1-1.74-.69,3.32,3.32,0,0,1-.54-2v-7h-1.94v-.95H137V58.94Z" transform="translate(-0.29)" style="fill:#bbbdbf"/><path d="M172.4,67.73a5.07,5.07,0,0,1-1.59,3.42,5.3,5.3,0,0,1-3.61,1.18,4.92,4.92,0,0,1-2.78-.79,5.12,5.12,0,0,1-1.88-2.23,8,8,0,0,1-.67-3.29V64.18a7.84,7.84,0,0,1,.67-3.34,5.12,5.12,0,0,1,1.89-2.25,5.19,5.19,0,0,1,2.86-.79A5.06,5.06,0,0,1,170.87,59a5.12,5.12,0,0,1,1.53,3.39h-1.2q-.45-3.6-3.91-3.6a3.71,3.71,0,0,0-3.07,1.44,6.23,6.23,0,0,0-1.14,4V66a6.27,6.27,0,0,0,1.11,3.9,3.6,3.6,0,0,0,3,1.46,4,4,0,0,0,2.82-.9,4.29,4.29,0,0,0,1.18-2.69Z" transform="translate(-0.29)" style="fill:#bbbdbf"/><path d="M176.51,71.13h7v1h-8.19V58h1.2Z" transform="translate(-0.29)" style="fill:#bbbdbf"/><path d="M187.25,72.14h-1.2V58h1.2Z" transform="translate(-0.29)" style="fill:#bbbdbf"/><path d="M220.45,67.73a5,5,0,0,1-1.6,3.42,5.27,5.27,0,0,1-3.61,1.18,4.94,4.94,0,0,1-2.78-.79,5,5,0,0,1-1.87-2.23,8,8,0,0,1-.67-3.29V64.18a8,8,0,0,1,.66-3.34,5.08,5.08,0,0,1,1.9-2.25,5.18,5.18,0,0,1,2.85-.79,4.71,4.71,0,0,1,5.12,4.61h-1.2q-.45-3.6-3.92-3.6a3.7,3.7,0,0,0-3.06,1.44,6.23,6.23,0,0,0-1.15,4V66a6.27,6.27,0,0,0,1.12,3.9,3.58,3.58,0,0,0,3,1.46,4,4,0,0,0,2.83-.9,4.29,4.29,0,0,0,1.18-2.69Z" transform="translate(-0.29)" style="fill:#bbbdbf"/><path d="M222.44,66.73A6.21,6.21,0,0,1,223,64a4.43,4.43,0,0,1,1.66-1.89,4.49,4.49,0,0,1,2.43-.68,4.31,4.31,0,0,1,3.4,1.47,5.66,5.66,0,0,1,1.31,3.9v.25a6.26,6.26,0,0,1-.59,2.74,4.41,4.41,0,0,1-1.66,1.88,4.53,4.53,0,0,1-2.44.66,4.32,4.32,0,0,1-3.39-1.47,5.66,5.66,0,0,1-1.31-3.9Zm1.17.32a4.78,4.78,0,0,0,1,3.09,3.3,3.3,0,0,0,5.11,0,4.94,4.94,0,0,0,1-3.19v-.22a5.32,5.32,0,0,0-.45-2.21A3.59,3.59,0,0,0,229,63a3.25,3.25,0,0,0-1.85-.55,3.11,3.11,0,0,0-2.53,1.22,4.92,4.92,0,0,0-1,3.19Z" transform="translate(-0.29)" style="fill:#bbbdbf"/><path d="M235.33,61.63l0,1.79a4.28,4.28,0,0,1,1.48-1.48,3.84,3.84,0,0,1,2-.51,3.17,3.17,0,0,1,2.52,1,4.28,4.28,0,0,1,.83,2.86v6.9H241V65.23a3.25,3.25,0,0,0-.6-2.1,2.34,2.34,0,0,0-1.88-.69,2.94,2.94,0,0,0-1.91.68,4,4,0,0,0-1.23,1.82v7.2h-1.15V61.63Z" transform="translate(-0.29)" style="fill:#bbbdbf"/><path d="M247,58.94v2.69h2.18v.95H247v7a2.11,2.11,0,0,0,.32,1.3,1.21,1.21,0,0,0,1.05.43,6.49,6.49,0,0,0,.94-.1l0,1a3.77,3.77,0,0,1-1.24.16,2.07,2.07,0,0,1-1.74-.69,3.32,3.32,0,0,1-.55-2v-7h-1.93v-.95h1.93V58.94Z" transform="translate(-0.29)" style="fill:#bbbdbf"/><path d="M251.48,58.59a.77.77,0,0,1,.21-.55.73.73,0,0,1,.58-.23.79.79,0,0,1,.59,1.33.77.77,0,0,1-.59.22.76.76,0,0,1-.58-.22A.77.77,0,0,1,251.48,58.59Zm1.37,13.55h-1.17V61.63h1.17Z" transform="translate(-0.29)" style="fill:#bbbdbf"/><path d="M257.11,61.63l0,1.79a4.19,4.19,0,0,1,1.48-1.48,3.84,3.84,0,0,1,1.95-.51,3.15,3.15,0,0,1,2.51,1,4.28,4.28,0,0,1,.84,2.86v6.9h-1.16V65.23a3.19,3.19,0,0,0-.59-2.1,2.34,2.34,0,0,0-1.88-.69,2.94,2.94,0,0,0-1.91.68,3.91,3.91,0,0,0-1.23,1.82v7.2H256V61.63Z" transform="translate(-0.29)" style="fill:#bbbdbf"/><path d="M273.69,70.81a3.78,3.78,0,0,1-3.35,1.52,3.21,3.21,0,0,1-2.55-1,4.27,4.27,0,0,1-.9-2.89V61.63h1.16v6.69q0,3,2.43,3a3,3,0,0,0,3.19-2.09v-7.6h1.17V72.14h-1.13Z" transform="translate(-0.29)" style="fill:#bbbdbf"/><path d="M277.22,66.73a6.08,6.08,0,0,1,.59-2.73,4.43,4.43,0,0,1,4.09-2.57,4.33,4.33,0,0,1,3.4,1.47,5.66,5.66,0,0,1,1.3,3.9v.25a6.26,6.26,0,0,1-.58,2.74,4.48,4.48,0,0,1-1.66,1.88,4.55,4.55,0,0,1-2.44.66,4.32,4.32,0,0,1-3.39-1.47,5.61,5.61,0,0,1-1.31-3.9Zm1.16.32a4.78,4.78,0,0,0,1,3.09,3.3,3.3,0,0,0,5.11,0,4.94,4.94,0,0,0,1-3.19v-.22a5.32,5.32,0,0,0-.45-2.21A3.66,3.66,0,0,0,283.75,63a3.27,3.27,0,0,0-1.85-.55,3.09,3.09,0,0,0-2.53,1.22,4.92,4.92,0,0,0-1,3.19Z" transform="translate(-0.29)" style="fill:#bbbdbf"/><path d="M295.76,70.81a3.78,3.78,0,0,1-3.35,1.52,3.21,3.21,0,0,1-2.55-1,4.27,4.27,0,0,1-.9-2.89V61.63h1.16v6.69q0,3,2.43,3a3,3,0,0,0,3.19-2.09v-7.6h1.17V72.14h-1.13Z" transform="translate(-0.29)" style="fill:#bbbdbf"/><path d="M306.23,69.47a1.67,1.67,0,0,0-.7-1.39,5.22,5.22,0,0,0-2.09-.82,9.65,9.65,0,0,1-2.17-.68,2.91,2.91,0,0,1-1.15-.94,2.34,2.34,0,0,1-.37-1.34,2.49,2.49,0,0,1,1-2.06,4.19,4.19,0,0,1,2.66-.81,4.32,4.32,0,0,1,2.82.87,2.79,2.79,0,0,1,1.06,2.27h-1.16a1.85,1.85,0,0,0-.78-1.53,3.45,3.45,0,0,0-3.78-.11,1.56,1.56,0,0,0-.7,1.33,1.43,1.43,0,0,0,.58,1.22,6.14,6.14,0,0,0,2.11.79,9.54,9.54,0,0,1,2.29.77A2.9,2.9,0,0,1,307,68a2.46,2.46,0,0,1,.37,1.39,2.52,2.52,0,0,1-1.07,2.12,4.53,4.53,0,0,1-2.8.8,4.66,4.66,0,0,1-3-.89,2.73,2.73,0,0,1-1.14-2.25h1.16a2,2,0,0,0,.86,1.59,3.53,3.53,0,0,0,2.1.57,3.36,3.36,0,0,0,2-.53A1.61,1.61,0,0,0,306.23,69.47Z" transform="translate(-0.29)" style="fill:#bbbdbf"/><path d="M316.57,72.14h-1.19V58h1.19Z" transform="translate(-0.29)" style="fill:#bbbdbf"/><path d="M321.24,61.63l0,1.79a4.28,4.28,0,0,1,1.48-1.48,3.84,3.84,0,0,1,1.95-.51,3.17,3.17,0,0,1,2.52,1,4.28,4.28,0,0,1,.83,2.86v6.9h-1.15V65.23a3.25,3.25,0,0,0-.6-2.1,2.34,2.34,0,0,0-1.88-.69,2.94,2.94,0,0,0-1.91.68,4,4,0,0,0-1.23,1.82v7.2h-1.15V61.63Z" transform="translate(-0.29)" style="fill:#bbbdbf"/><path d="M332.87,58.94v2.69h2.18v.95h-2.18v7a2.18,2.18,0,0,0,.32,1.3,1.21,1.21,0,0,0,1.05.43,6.36,6.36,0,0,0,.94-.1l.05,1a3.77,3.77,0,0,1-1.24.16,2.07,2.07,0,0,1-1.74-.69,3.32,3.32,0,0,1-.54-2v-7h-1.94v-.95h1.94V58.94Z" transform="translate(-0.29)" style="fill:#bbbdbf"/><path d="M341.53,72.33a4.57,4.57,0,0,1-2.43-.66,4.47,4.47,0,0,1-1.68-1.84,5.78,5.78,0,0,1-.61-2.65v-.42A6.14,6.14,0,0,1,337.4,64,4.65,4.65,0,0,1,339,62.13a4,4,0,0,1,2.27-.7,3.81,3.81,0,0,1,3,1.31,5.29,5.29,0,0,1,1.12,3.57V67H338v.22a4.37,4.37,0,0,0,1,3,3.26,3.26,0,0,0,2.57,1.19,3.71,3.71,0,0,0,1.65-.34,3.67,3.67,0,0,0,1.3-1.09l.73.56A4.26,4.26,0,0,1,341.53,72.33Zm-.22-9.91a2.92,2.92,0,0,0-2.21,1A4.49,4.49,0,0,0,338,66h6.3v-.13a3.83,3.83,0,0,0-.86-2.46A2.67,2.67,0,0,0,341.31,62.42Z" transform="translate(-0.29)" style="fill:#bbbdbf"/><path d="M347.27,66.78a6.29,6.29,0,0,1,1.09-3.9,3.52,3.52,0,0,1,3-1.45,3.64,3.64,0,0,1,3.26,1.71l.06-1.51h1.09V71.92a4.44,4.44,0,0,1-1.14,3.22,4.06,4.06,0,0,1-3.08,1.18,4.62,4.62,0,0,1-2.09-.49,4,4,0,0,1-1.57-1.3l.65-.7a3.67,3.67,0,0,0,2.93,1.51,3,3,0,0,0,2.28-.86,3.44,3.44,0,0,0,.84-2.38V70.78a3.76,3.76,0,0,1-3.25,1.55,3.47,3.47,0,0,1-2.93-1.46,6.33,6.33,0,0,1-1.11-3.93Zm1.17.21a5.45,5.45,0,0,0,.81,3.17,2.61,2.61,0,0,0,2.27,1.16,3.1,3.1,0,0,0,3-1.92V64.51A3.31,3.31,0,0,0,353.39,63a3.2,3.2,0,0,0-1.85-.53,2.64,2.64,0,0,0-2.28,1.15A5.82,5.82,0,0,0,348.44,67Z" transform="translate(-0.29)" style="fill:#bbbdbf"/><path d="M363.63,62.62a4,4,0,0,0-.79-.07,2.8,2.8,0,0,0-1.84.61,3.36,3.36,0,0,0-1.08,1.76v7.22h-1.15V61.63h1.13l0,1.67a3.1,3.1,0,0,1,3-1.87,1.76,1.76,0,0,1,.76.13Z" transform="translate(-0.29)" style="fill:#bbbdbf"/><path d="M371.71,72.14a5.63,5.63,0,0,1-.23-1.47,4,4,0,0,1-1.55,1.23,4.78,4.78,0,0,1-2,.43,3.52,3.52,0,0,1-2.45-.84,2.76,2.76,0,0,1-.94-2.14,2.81,2.81,0,0,1,1.28-2.43,6.09,6.09,0,0,1,3.56-.89h2.11v-1.2a2.31,2.31,0,0,0-.7-1.77,2.88,2.88,0,0,0-2-.65,3.14,3.14,0,0,0-2,.63,1.83,1.83,0,0,0-.79,1.49h-1.17A2.7,2.7,0,0,1,366,62.35a4.5,4.5,0,0,1,2.86-.92,4.1,4.1,0,0,1,2.78.88,3.17,3.17,0,0,1,1,2.45v5A6.28,6.28,0,0,0,373,72v.12Zm-3.65-.84a4,4,0,0,0,2.08-.56,3.37,3.37,0,0,0,1.34-1.51V66.92H369.4a5.18,5.18,0,0,0-2.72.64,2,2,0,0,0-.33,3.16A2.48,2.48,0,0,0,368.06,71.3Z" transform="translate(-0.29)" style="fill:#bbbdbf"/><path d="M377.54,58.94v2.69h2.17v.95h-2.17v7a2.19,2.19,0,0,0,.31,1.3,1.21,1.21,0,0,0,1.06.43,6.63,6.63,0,0,0,.94-.1l0,1a3.83,3.83,0,0,1-1.25.16,2.1,2.1,0,0,1-1.74-.69,3.32,3.32,0,0,1-.54-2v-7h-1.93v-.95h1.93V58.94Z" transform="translate(-0.29)" style="fill:#bbbdbf"/><path d="M382.05,58.59a.74.74,0,0,1,.22-.55.72.72,0,0,1,.58-.23.75.75,0,0,1,.59.23.77.77,0,0,1-.59,1.32.75.75,0,0,1-.58-.22A.74.74,0,0,1,382.05,58.59Zm1.37,13.55h-1.16V61.63h1.16Z" transform="translate(-0.29)" style="fill:#bbbdbf"/><path d="M385.94,66.73a6.08,6.08,0,0,1,.59-2.73,4.43,4.43,0,0,1,4.09-2.57A4.33,4.33,0,0,1,394,62.9a5.66,5.66,0,0,1,1.3,3.9v.25a6.12,6.12,0,0,1-.59,2.74,4.39,4.39,0,0,1-1.65,1.88,4.55,4.55,0,0,1-2.44.66,4.36,4.36,0,0,1-3.4-1.47,5.66,5.66,0,0,1-1.3-3.9Zm1.16.32a4.78,4.78,0,0,0,1,3.09,3.3,3.3,0,0,0,5.11,0,4.94,4.94,0,0,0,1-3.19v-.22a5.32,5.32,0,0,0-.45-2.21A3.66,3.66,0,0,0,392.47,63a3.27,3.27,0,0,0-1.85-.55,3.09,3.09,0,0,0-2.53,1.22,4.92,4.92,0,0,0-1,3.19Z" transform="translate(-0.29)" style="fill:#bbbdbf"/><path d="M398.83,61.63l0,1.79a4.25,4.25,0,0,1,1.47-1.48,3.85,3.85,0,0,1,2-.51,3.16,3.16,0,0,1,2.51,1,4.34,4.34,0,0,1,.84,2.86v6.9h-1.16V65.23a3.19,3.19,0,0,0-.59-2.1,2.35,2.35,0,0,0-1.88-.69,2.94,2.94,0,0,0-1.91.68,3.84,3.84,0,0,0-1.23,1.82v7.2h-1.16V61.63Z" transform="translate(-0.29)" style="fill:#bbbdbf"/><path d="M428.27,72.14V58h4a6.1,6.1,0,0,1,3.11.8,5.48,5.48,0,0,1,2.16,2.26,7.23,7.23,0,0,1,.77,3.36v1.31a7.17,7.17,0,0,1-.77,3.36,5.48,5.48,0,0,1-2.16,2.26,6.36,6.36,0,0,1-3.2.8ZM429.47,59V71.13h2.68a4.6,4.6,0,0,0,3.58-1.49,5.71,5.71,0,0,0,1.35-4V64.39a5.58,5.58,0,0,0-1.33-3.91,4.54,4.54,0,0,0-3.5-1.48Z" transform="translate(-0.29)" style="fill:#bbbdbf"/><path d="M445.1,72.33a4.59,4.59,0,0,1-2.43-.66A4.47,4.47,0,0,1,441,69.83a5.77,5.77,0,0,1-.6-2.65v-.42A6.14,6.14,0,0,1,441,64a4.65,4.65,0,0,1,1.64-1.91,4,4,0,0,1,2.27-.7,3.81,3.81,0,0,1,3,1.31A5.29,5.29,0,0,1,449,66.31V67h-7.5v.22a4.37,4.37,0,0,0,1,3,3.26,3.26,0,0,0,2.58,1.19,3.45,3.45,0,0,0,2.94-1.43l.73.56A4.26,4.26,0,0,1,445.1,72.33Zm-.22-9.91a2.92,2.92,0,0,0-2.21,1A4.49,4.49,0,0,0,441.58,66h6.3v-.13a3.83,3.83,0,0,0-.86-2.46A2.67,2.67,0,0,0,444.88,62.42Z" transform="translate(-0.29)" style="fill:#bbbdbf"/><path d="M455.37,72.33a4.56,4.56,0,0,1-2.42-.66,4.47,4.47,0,0,1-1.68-1.84,5.65,5.65,0,0,1-.61-2.65v-.42a6.14,6.14,0,0,1,.59-2.72,4.65,4.65,0,0,1,1.64-1.91,4,4,0,0,1,2.27-.7,3.81,3.81,0,0,1,3,1.31,5.34,5.34,0,0,1,1.12,3.57V67h-7.5v.22a4.42,4.42,0,0,0,1,3,3.29,3.29,0,0,0,2.58,1.19,3.77,3.77,0,0,0,1.65-.34,3.67,3.67,0,0,0,1.3-1.09l.72.56A4.24,4.24,0,0,1,455.37,72.33Zm-.21-9.91a2.92,2.92,0,0,0-2.21,1A4.49,4.49,0,0,0,451.86,66h6.3v-.13a3.83,3.83,0,0,0-.86-2.46A2.68,2.68,0,0,0,455.16,62.42Z" transform="translate(-0.29)" style="fill:#bbbdbf"/><path d="M470,67a6.36,6.36,0,0,1-1.08,3.9A3.48,3.48,0,0,1,466,72.33a3.87,3.87,0,0,1-3.3-1.51v5.36h-1.16V61.63h1.08l.06,1.48A3.72,3.72,0,0,1,466,61.43a3.51,3.51,0,0,1,3,1.43,6.43,6.43,0,0,1,1.07,4Zm-1.16-.21a5.37,5.37,0,0,0-.83-3.17,2.66,2.66,0,0,0-2.3-1.17,3.07,3.07,0,0,0-3,2v5a3,3,0,0,0,1.19,1.38,3.43,3.43,0,0,0,1.84.48,2.64,2.64,0,0,0,2.29-1.17A5.94,5.94,0,0,0,468.87,66.78Z" transform="translate(-0.29)" style="fill:#bbbdbf"/><path d="M478.92,71.13h7v1h-8.19V58h1.2Z" transform="translate(-0.29)" style="fill:#bbbdbf"/><path d="M487.86,58.59a.77.77,0,0,1,.21-.55.73.73,0,0,1,.58-.23.79.79,0,0,1,.59,1.33.77.77,0,0,1-.59.22.76.76,0,0,1-.58-.22A.77.77,0,0,1,487.86,58.59Zm1.37,13.55h-1.17V61.63h1.17Z" transform="translate(-0.29)" style="fill:#bbbdbf"/><path d="M493.49,61.63l0,1.79A4.28,4.28,0,0,1,495,61.94a3.84,3.84,0,0,1,1.95-.51,3.17,3.17,0,0,1,2.52,1,4.28,4.28,0,0,1,.83,2.86v6.9h-1.15V65.23a3.25,3.25,0,0,0-.6-2.1,2.34,2.34,0,0,0-1.88-.69,2.94,2.94,0,0,0-1.91.68,4,4,0,0,0-1.23,1.82v7.2h-1.15V61.63Z" transform="translate(-0.29)" style="fill:#bbbdbf"/><path d="M505.81,66.84l-1.33,1.28v4h-1.17V57.22h1.17v9.54l1.1-1.18,4-3.95h1.47l-4.46,4.43,4.84,6.08h-1.39Z" transform="translate(-0.29)" style="fill:#bbbdbf"/><path d="M519.35,69.47a1.66,1.66,0,0,0-.69-1.39,5.27,5.27,0,0,0-2.1-.82,10,10,0,0,1-2.17-.68,2.94,2.94,0,0,1-1.14-.94,2.35,2.35,0,0,1-.38-1.34,2.52,2.52,0,0,1,1-2.06,4.19,4.19,0,0,1,2.66-.81,4.33,4.33,0,0,1,2.83.87,2.82,2.82,0,0,1,1.06,2.27h-1.17a1.84,1.84,0,0,0-.77-1.53,3,3,0,0,0-1.95-.62,3.06,3.06,0,0,0-1.84.51,1.58,1.58,0,0,0-.69,1.33,1.43,1.43,0,0,0,.58,1.22,6,6,0,0,0,2.1.79A9.64,9.64,0,0,1,519,67a3.06,3.06,0,0,1,1.13,1,2.55,2.55,0,0,1,.37,1.39,2.51,2.51,0,0,1-1.08,2.12,4.52,4.52,0,0,1-2.8.8,4.7,4.7,0,0,1-3-.89,2.73,2.73,0,0,1-1.14-2.25h1.17a2,2,0,0,0,.86,1.59,3.5,3.5,0,0,0,2.09.57,3.34,3.34,0,0,0,2-.53A1.61,1.61,0,0,0,519.35,69.47Z" transform="translate(-0.29)" style="fill:#bbbdbf"/><path d="M542.75,72.14V58h4a6.1,6.1,0,0,1,3.11.8A5.48,5.48,0,0,1,552,61.05a7.23,7.23,0,0,1,.77,3.36v1.31a7.17,7.17,0,0,1-.77,3.36,5.48,5.48,0,0,1-2.16,2.26,6.36,6.36,0,0,1-3.2.8ZM544,59V71.13h2.68a4.6,4.6,0,0,0,3.58-1.49,5.71,5.71,0,0,0,1.35-4V64.39a5.58,5.58,0,0,0-1.33-3.91,4.52,4.52,0,0,0-3.5-1.48Z" transform="translate(-0.29)" style="fill:#bbbdbf"/><path d="M559.58,72.33a4.59,4.59,0,0,1-2.43-.66,4.47,4.47,0,0,1-1.68-1.84,5.77,5.77,0,0,1-.6-2.65v-.42a6.14,6.14,0,0,1,.58-2.72,4.72,4.72,0,0,1,1.64-1.91,4,4,0,0,1,2.27-.7,3.81,3.81,0,0,1,3,1.31,5.29,5.29,0,0,1,1.12,3.57V67H556v.22a4.37,4.37,0,0,0,1,3,3.26,3.26,0,0,0,2.58,1.19,3.45,3.45,0,0,0,2.94-1.43l.73.56A4.26,4.26,0,0,1,559.58,72.33Zm-.22-9.91a2.92,2.92,0,0,0-2.21,1A4.49,4.49,0,0,0,556.06,66h6.3v-.13a3.83,3.83,0,0,0-.86-2.46A2.67,2.67,0,0,0,559.36,62.42Z" transform="translate(-0.29)" style="fill:#bbbdbf"/><path d="M574.24,67a6.36,6.36,0,0,1-1.09,3.9,3.48,3.48,0,0,1-2.92,1.44,3.89,3.89,0,0,1-3.3-1.51v5.36h-1.16V61.63h1.08l.06,1.48a3.74,3.74,0,0,1,3.29-1.68,3.49,3.49,0,0,1,3,1.43,6.43,6.43,0,0,1,1.08,4Zm-1.17-.21a5.37,5.37,0,0,0-.83-3.17,2.65,2.65,0,0,0-2.3-1.17,3.1,3.1,0,0,0-3,2v5a3,3,0,0,0,1.2,1.38,3.4,3.4,0,0,0,1.83.48,2.64,2.64,0,0,0,2.29-1.17A5.87,5.87,0,0,0,573.07,66.78Z" transform="translate(-0.29)" style="fill:#bbbdbf"/><path d="M580.88,72.33a4.56,4.56,0,0,1-2.42-.66,4.43,4.43,0,0,1-1.69-1.84,5.77,5.77,0,0,1-.6-2.65v-.42a6,6,0,0,1,.59-2.72,4.62,4.62,0,0,1,1.63-1.91,4,4,0,0,1,2.28-.7,3.8,3.8,0,0,1,3,1.31,5.29,5.29,0,0,1,1.12,3.57V67h-7.5v.22a4.42,4.42,0,0,0,1,3,3.26,3.26,0,0,0,2.58,1.19,3.45,3.45,0,0,0,2.94-1.43l.73.56A4.24,4.24,0,0,1,580.88,72.33Zm-.21-9.91a2.9,2.9,0,0,0-2.21,1,4.49,4.49,0,0,0-1.1,2.59h6.31v-.13a3.78,3.78,0,0,0-.87-2.46A2.65,2.65,0,0,0,580.67,62.42Z" transform="translate(-0.29)" style="fill:#bbbdbf"/><path d="M588.19,61.63l0,1.79a4.28,4.28,0,0,1,1.48-1.48,3.84,3.84,0,0,1,1.95-.51,3.17,3.17,0,0,1,2.52,1,4.28,4.28,0,0,1,.83,2.86v6.9h-1.15V65.23a3.25,3.25,0,0,0-.6-2.1,2.34,2.34,0,0,0-1.88-.69,3,3,0,0,0-1.91.68,4,4,0,0,0-1.23,1.82v7.2h-1.15V61.63Z" transform="translate(-0.29)" style="fill:#bbbdbf"/><path d="M597.55,66.78a6.33,6.33,0,0,1,1.09-3.9,3.54,3.54,0,0,1,3-1.45,3.64,3.64,0,0,1,3.24,1.68V57.22H606V72.14h-1.09l0-1.4a3.75,3.75,0,0,1-3.28,1.59,3.52,3.52,0,0,1-2.93-1.46,6.39,6.39,0,0,1-1.11-4Zm1.18.21a5.45,5.45,0,0,0,.8,3.17,2.62,2.62,0,0,0,2.27,1.16,3.12,3.12,0,0,0,3.05-1.89V64.49a3.1,3.1,0,0,0-3-2,2.67,2.67,0,0,0-2.28,1.15A5.91,5.91,0,0,0,598.73,67Z" transform="translate(-0.29)" style="fill:#bbbdbf"/><path d="M613.14,72.33a4.56,4.56,0,0,1-2.42-.66A4.43,4.43,0,0,1,609,69.83a5.77,5.77,0,0,1-.6-2.65v-.42A6,6,0,0,1,609,64a4.62,4.62,0,0,1,1.63-1.91,4,4,0,0,1,2.28-.7,3.8,3.8,0,0,1,3,1.31,5.29,5.29,0,0,1,1.12,3.57V67h-7.5v.22a4.42,4.42,0,0,0,1,3,3.26,3.26,0,0,0,2.58,1.19,3.45,3.45,0,0,0,2.94-1.43l.73.56A4.24,4.24,0,0,1,613.14,72.33Zm-.21-9.91a2.89,2.89,0,0,0-2.21,1,4.49,4.49,0,0,0-1.1,2.59h6.31v-.13a3.78,3.78,0,0,0-.87-2.46A2.65,2.65,0,0,0,612.93,62.42Z" transform="translate(-0.29)" style="fill:#bbbdbf"/><path d="M620.46,61.63l0,1.79A4.28,4.28,0,0,1,622,61.94a3.84,3.84,0,0,1,1.95-.51,3.17,3.17,0,0,1,2.52,1,4.28,4.28,0,0,1,.83,2.86v6.9h-1.15V65.23a3.25,3.25,0,0,0-.6-2.1,2.34,2.34,0,0,0-1.88-.69,3,3,0,0,0-1.91.68,4,4,0,0,0-1.23,1.82v7.2h-1.15V61.63Z" transform="translate(-0.29)" style="fill:#bbbdbf"/><path d="M634.16,71.35a3.12,3.12,0,0,0,2-.68,2.47,2.47,0,0,0,.89-1.78h1.11a3.29,3.29,0,0,1-.6,1.76,3.77,3.77,0,0,1-1.47,1.23,4.41,4.41,0,0,1-2,.45,4.06,4.06,0,0,1-3.28-1.44A5.83,5.83,0,0,1,629.67,67v-.35a6.43,6.43,0,0,1,.55-2.75,4.18,4.18,0,0,1,1.56-1.85,4.29,4.29,0,0,1,2.37-.65,4.09,4.09,0,0,1,2.85,1,3.75,3.75,0,0,1,1.2,2.71h-1.11a3,3,0,0,0-5.38-1.61,5.15,5.15,0,0,0-.87,3.19v.33a5,5,0,0,0,.87,3.14A2.93,2.93,0,0,0,634.16,71.35Z" transform="translate(-0.29)" style="fill:#bbbdbf"/><path d="M643.86,70.47l3.07-8.84h1.25l-4.49,12.29-.23.55a2.83,2.83,0,0,1-2.67,1.91,3.32,3.32,0,0,1-.9-.13v-1l.6.06a2.17,2.17,0,0,0,1.39-.42,3.29,3.29,0,0,0,.9-1.45l.51-1.42-4-10.42h1.27Z" transform="translate(-0.29)" style="fill:#bbbdbf"/><path d="M664.29,59h-4.84V72.14h-1.2V59h-4.84V58h10.88Z" transform="translate(-0.29)" style="fill:#bbbdbf"/><path d="M671.84,72.14a5.71,5.71,0,0,1-.22-1.47,4.11,4.11,0,0,1-1.56,1.23,4.75,4.75,0,0,1-2,.43,3.54,3.54,0,0,1-2.45-.84,2.79,2.79,0,0,1-.94-2.14,2.83,2.83,0,0,1,1.28-2.43A6.11,6.11,0,0,1,669.5,66h2.11v-1.2a2.28,2.28,0,0,0-.7-1.77,2.85,2.85,0,0,0-2-.65,3.14,3.14,0,0,0-2,.63,1.84,1.84,0,0,0-.8,1.49h-1.16a2.69,2.69,0,0,1,1.16-2.17,4.51,4.51,0,0,1,2.87-.92,4.07,4.07,0,0,1,2.77.88,3.15,3.15,0,0,1,1,2.45v5a6.06,6.06,0,0,0,.32,2.28v.12Zm-3.65-.84a3.93,3.93,0,0,0,2.08-.56,3.31,3.31,0,0,0,1.34-1.51V66.92h-2.08a5.18,5.18,0,0,0-2.72.64,2,2,0,0,0-.33,3.16A2.48,2.48,0,0,0,668.19,71.3Z" transform="translate(-0.29)" style="fill:#bbbdbf"/><path d="M684.32,67a6.36,6.36,0,0,1-1.08,3.9,3.49,3.49,0,0,1-2.93,1.44A3.77,3.77,0,0,1,677,70.7l0,1.44h-1.09V57.22H677v5.93a3.64,3.64,0,0,1,3.28-1.72,3.5,3.5,0,0,1,3,1.43,6.37,6.37,0,0,1,1.08,4Zm-1.16-.21a5.48,5.48,0,0,0-.81-3.21,2.63,2.63,0,0,0-2.27-1.13,3.13,3.13,0,0,0-1.89.55A3.3,3.3,0,0,0,677,64.6v4.74a3.11,3.11,0,0,0,3.09,2,2.61,2.61,0,0,0,2.25-1.14A5.84,5.84,0,0,0,683.16,66.78Z" transform="translate(-0.29)" style="fill:#bbbdbf"/><path d="M688.19,72.14H687V57.22h1.17Z" transform="translate(-0.29)" style="fill:#bbbdbf"/><path d="M695.42,72.33a4.59,4.59,0,0,1-2.43-.66,4.47,4.47,0,0,1-1.68-1.84,5.77,5.77,0,0,1-.6-2.65v-.42a6.14,6.14,0,0,1,.58-2.72,4.72,4.72,0,0,1,1.64-1.91,4,4,0,0,1,2.27-.7,3.81,3.81,0,0,1,3,1.31,5.29,5.29,0,0,1,1.12,3.57V67h-7.5v.22a4.37,4.37,0,0,0,1,3,3.26,3.26,0,0,0,2.58,1.19,3.45,3.45,0,0,0,2.94-1.43l.73.56A4.26,4.26,0,0,1,695.42,72.33Zm-.22-9.91a2.92,2.92,0,0,0-2.21,1A4.55,4.55,0,0,0,691.9,66h6.31v-.13a3.84,3.84,0,0,0-.87-2.46A2.66,2.66,0,0,0,695.2,62.42Z" transform="translate(-0.29)" style="fill:#bbbdbf"/><path d="M45.25,114.37V100.23h4a6.13,6.13,0,0,1,3.12.79,5.55,5.55,0,0,1,2.15,2.27,7.17,7.17,0,0,1,.77,3.36V108a7.17,7.17,0,0,1-.77,3.36,5.44,5.44,0,0,1-2.16,2.27,6.35,6.35,0,0,1-3.2.79Zm1.2-13.13v12.12h2.68a4.6,4.6,0,0,0,3.58-1.48,5.74,5.74,0,0,0,1.35-4v-1.24a5.58,5.58,0,0,0-1.33-3.91,4.52,4.52,0,0,0-3.5-1.48Z" transform="translate(-0.29)" style="fill:#bbbdbf"/><path d="M57.94,100.83a.75.75,0,0,1,.8-.79.77.77,0,0,1,.8.79.74.74,0,0,1-.22.55.76.76,0,0,1-.58.22.78.78,0,0,1-.59-.22A.77.77,0,0,1,57.94,100.83Zm1.37,13.54H58.14V103.86h1.17Z" transform="translate(-0.29)" style="fill:#bbbdbf"/><path d="M69.1,114.37a5.28,5.28,0,0,1-.22-1.46,4,4,0,0,1-1.56,1.22,4.75,4.75,0,0,1-2,.44,3.48,3.48,0,0,1-2.45-.85,2.73,2.73,0,0,1-.94-2.14,2.8,2.8,0,0,1,1.28-2.42,6.1,6.1,0,0,1,3.56-.9h2.11v-1.19a2.31,2.31,0,0,0-.7-1.78,2.85,2.85,0,0,0-2-.64,3.19,3.19,0,0,0-2,.62,1.86,1.86,0,0,0-.8,1.5H62.18a2.68,2.68,0,0,1,1.16-2.17,4.45,4.45,0,0,1,2.87-.92,4.07,4.07,0,0,1,2.77.88A3.13,3.13,0,0,1,70,107v5a6.3,6.3,0,0,0,.32,2.29v.11Zm-3.65-.83a3.84,3.84,0,0,0,2.08-.57,3.29,3.29,0,0,0,1.34-1.5v-2.31H66.79a5.18,5.18,0,0,0-2.72.63,2,2,0,0,0-.33,3.17A2.53,2.53,0,0,0,65.45,113.54Z" transform="translate(-0.29)" style="fill:#bbbdbf"/><path d="M72.66,109a6.32,6.32,0,0,1,1.09-3.91,3.53,3.53,0,0,1,3-1.44A3.64,3.64,0,0,1,80,105.38l.06-1.52h1.09v10.3A4.48,4.48,0,0,1,80,117.38a4.06,4.06,0,0,1-3.08,1.18,4.62,4.62,0,0,1-2.09-.49,4,4,0,0,1-1.57-1.31l.65-.7a3.68,3.68,0,0,0,2.93,1.52,3,3,0,0,0,2.28-.86,3.45,3.45,0,0,0,.84-2.39V113a3.74,3.74,0,0,1-3.25,1.56,3.52,3.52,0,0,1-2.94-1.46,6.39,6.39,0,0,1-1.1-3.93Zm1.17.2a5.48,5.48,0,0,0,.81,3.18,2.61,2.61,0,0,0,2.27,1.16,3.1,3.1,0,0,0,3-1.93v-4.88a3.26,3.26,0,0,0-1.17-1.54,3.15,3.15,0,0,0-1.85-.53,2.62,2.62,0,0,0-2.28,1.15A5.81,5.81,0,0,0,73.83,109.22Z" transform="translate(-0.29)" style="fill:#bbbdbf"/><path d="M89,104.85a5,5,0,0,0-.79-.06,2.85,2.85,0,0,0-1.84.6,3.39,3.39,0,0,0-1.08,1.77v7.21H84.16V103.86h1.13l0,1.67a3.11,3.11,0,0,1,3-1.86,2,2,0,0,1,.76.12Z" transform="translate(-0.29)" style="fill:#bbbdbf"/><path d="M97.1,114.37a5.62,5.62,0,0,1-.23-1.46,3.86,3.86,0,0,1-1.56,1.22,4.74,4.74,0,0,1-2,.44,3.48,3.48,0,0,1-2.45-.85,2.73,2.73,0,0,1-.94-2.14,2.78,2.78,0,0,1,1.28-2.42,6.08,6.08,0,0,1,3.56-.9h2.1v-1.19a2.34,2.34,0,0,0-.69-1.78,2.88,2.88,0,0,0-2-.64,3.19,3.19,0,0,0-2,.62,1.85,1.85,0,0,0-.79,1.5H90.17a2.69,2.69,0,0,1,1.17-2.17,4.42,4.42,0,0,1,2.86-.92,4.1,4.1,0,0,1,2.78.88A3.16,3.16,0,0,1,98,107v5a6.3,6.3,0,0,0,.32,2.29v.11Zm-3.66-.83a3.88,3.88,0,0,0,2.09-.57,3.27,3.27,0,0,0,1.33-1.5v-2.31H94.79a5.25,5.25,0,0,0-2.73.63,1.92,1.92,0,0,0-1,1.7,1.88,1.88,0,0,0,.66,1.47A2.52,2.52,0,0,0,93.44,113.54Z" transform="translate(-0.29)" style="fill:#bbbdbf"/><path d="M102.18,103.86l0,1.71a3.89,3.89,0,0,1,1.45-1.43,4.1,4.1,0,0,1,2-.47,2.94,2.94,0,0,1,3.15,2,3.91,3.91,0,0,1,1.51-1.51,4.1,4.1,0,0,1,2.08-.53q3.38,0,3.45,3.69v7h-1.17v-6.92a3.14,3.14,0,0,0-.61-2.09,2.47,2.47,0,0,0-1.94-.68,3.06,3.06,0,0,0-2.12.81,2.83,2.83,0,0,0-1,1.93v7h-1.17v-7a2.91,2.91,0,0,0-.64-2,2.52,2.52,0,0,0-1.92-.66,3,3,0,0,0-1.89.62,3.69,3.69,0,0,0-1.16,1.87v7.2h-1.17V103.86Z" transform="translate(-0.29)" style="fill:#bbbdbf"/><path d="M125,111.7a1.66,1.66,0,0,0-.69-1.39,5.37,5.37,0,0,0-2.09-.82,9.16,9.16,0,0,1-2.17-.68,2.83,2.83,0,0,1-1.15-.94,2.32,2.32,0,0,1-.37-1.34,2.5,2.5,0,0,1,1-2,4.22,4.22,0,0,1,2.67-.81,4.32,4.32,0,0,1,2.82.87,2.78,2.78,0,0,1,1.06,2.27H125a1.88,1.88,0,0,0-.78-1.54,3.48,3.48,0,0,0-3.78-.1,1.56,1.56,0,0,0-.7,1.33,1.4,1.4,0,0,0,.58,1.21,6,6,0,0,0,2.11.8,10.08,10.08,0,0,1,2.29.76,3,3,0,0,1,1.13,1,2.7,2.7,0,0,1-.7,3.52,4.61,4.61,0,0,1-2.81.8,4.71,4.71,0,0,1-3-.89,2.73,2.73,0,0,1-1.14-2.25h1.16a2,2,0,0,0,.86,1.59,3.52,3.52,0,0,0,2.09.57,3.3,3.3,0,0,0,2-.54A1.6,1.6,0,0,0,125,111.7Z" transform="translate(-0.29)" style="fill:#bbbdbf"/><path d="M144.38,108.07a8.2,8.2,0,0,1-.67,3.43,5.14,5.14,0,0,1-1.93,2.27,5.27,5.27,0,0,1-2.89.8,5,5,0,0,1-4-1.78,7.1,7.1,0,0,1-1.52-4.78v-1.46a8.19,8.19,0,0,1,.68-3.42,5.09,5.09,0,0,1,4.83-3.09,5.08,5.08,0,0,1,4.81,3,7.88,7.88,0,0,1,.7,3.33Zm-1.19-1.54a6.26,6.26,0,0,0-1.16-4,4.15,4.15,0,0,0-6.31,0,6.28,6.28,0,0,0-1.17,4v1.48a6.23,6.23,0,0,0,1.17,4,4.16,4.16,0,0,0,6.33,0,6.42,6.42,0,0,0,1.14-4Z" transform="translate(-0.29)" style="fill:#bbbdbf"/><path d="M152,104.85a4.88,4.88,0,0,0-.79-.06,2.88,2.88,0,0,0-1.84.6,3.31,3.31,0,0,0-1.07,1.77v7.21h-1.16V103.86h1.14l0,1.67a3.09,3.09,0,0,1,3-1.86,2,2,0,0,1,.77.12Z" transform="translate(-0.29)" style="fill:#bbbdbf"/><path d="M153.17,109a6.32,6.32,0,0,1,1.09-3.91,3.53,3.53,0,0,1,3-1.44,3.64,3.64,0,0,1,3.26,1.71l.06-1.52h1.09v10.3a4.48,4.48,0,0,1-1.14,3.22,4.06,4.06,0,0,1-3.08,1.18,4.62,4.62,0,0,1-2.09-.49,4,4,0,0,1-1.57-1.31l.65-.7a3.68,3.68,0,0,0,2.93,1.52,3,3,0,0,0,2.28-.86,3.45,3.45,0,0,0,.84-2.39V113a3.74,3.74,0,0,1-3.25,1.56,3.52,3.52,0,0,1-2.94-1.46,6.39,6.39,0,0,1-1.1-3.93Zm1.17.2a5.48,5.48,0,0,0,.81,3.18,2.61,2.61,0,0,0,2.27,1.16,3.1,3.1,0,0,0,3-1.93v-4.88a3.26,3.26,0,0,0-1.17-1.54,3.15,3.15,0,0,0-1.85-.53,2.62,2.62,0,0,0-2.28,1.15A5.81,5.81,0,0,0,154.34,109.22Z" transform="translate(-0.29)" style="fill:#bbbdbf"/><path d="M171.3,114.37a5.69,5.69,0,0,1-.22-1.46,4,4,0,0,1-1.56,1.22,4.75,4.75,0,0,1-2,.44,3.5,3.5,0,0,1-2.45-.85,2.76,2.76,0,0,1-.94-2.14,2.8,2.8,0,0,1,1.28-2.42,6.1,6.1,0,0,1,3.56-.9h2.11v-1.19a2.31,2.31,0,0,0-.7-1.78,2.85,2.85,0,0,0-2-.64,3.19,3.19,0,0,0-2,.62,1.86,1.86,0,0,0-.8,1.5h-1.16a2.68,2.68,0,0,1,1.16-2.17,4.45,4.45,0,0,1,2.87-.92,4.07,4.07,0,0,1,2.77.88,3.13,3.13,0,0,1,1,2.45v5a6.09,6.09,0,0,0,.32,2.29v.11Zm-3.65-.83a3.84,3.84,0,0,0,2.08-.57,3.24,3.24,0,0,0,1.34-1.5v-2.31H169a5.18,5.18,0,0,0-2.72.63,1.92,1.92,0,0,0-1,1.7A1.88,1.88,0,0,0,166,113,2.48,2.48,0,0,0,167.65,113.54Z" transform="translate(-0.29)" style="fill:#bbbdbf"/><path d="M176.43,103.86l0,1.8a4.19,4.19,0,0,1,1.48-1.48,3.84,3.84,0,0,1,2-.51,3.19,3.19,0,0,1,2.52,1,4.32,4.32,0,0,1,.83,2.86v6.89h-1.16v-6.9a3.19,3.19,0,0,0-.59-2.1,2.34,2.34,0,0,0-1.88-.69,2.93,2.93,0,0,0-1.91.67,4,4,0,0,0-1.23,1.82v7.2h-1.16V103.86Z" transform="translate(-0.29)" style="fill:#bbbdbf"/><path d="M186.18,100.83a.8.8,0,0,1,.22-.56A.75.75,0,0,1,187,100a.79.79,0,0,1,.59.23.8.8,0,0,1,.22.56.75.75,0,0,1-.81.77.75.75,0,0,1-.58-.22A.78.78,0,0,1,186.18,100.83Zm1.37,13.54h-1.16V103.86h1.16Z" transform="translate(-0.29)" style="fill:#bbbdbf"/><path d="M191.48,113.39h6.83v1H190v-.85l6.37-8.65h-6.17v-1h7.64v.88Z" transform="translate(-0.29)" style="fill:#bbbdbf"/><path d="M207,114.37a5.28,5.28,0,0,1-.22-1.46,4,4,0,0,1-1.56,1.22,4.75,4.75,0,0,1-2,.44,3.48,3.48,0,0,1-2.45-.85,2.73,2.73,0,0,1-.94-2.14,2.8,2.8,0,0,1,1.28-2.42,6.1,6.1,0,0,1,3.56-.9h2.11v-1.19a2.31,2.31,0,0,0-.7-1.78,2.85,2.85,0,0,0-2-.64,3.19,3.19,0,0,0-2,.62,1.86,1.86,0,0,0-.8,1.5H200.1a2.68,2.68,0,0,1,1.16-2.17,4.45,4.45,0,0,1,2.87-.92,4.07,4.07,0,0,1,2.77.88,3.13,3.13,0,0,1,1,2.45v5a6.3,6.3,0,0,0,.32,2.29v.11Zm-3.65-.83a3.84,3.84,0,0,0,2.08-.57,3.29,3.29,0,0,0,1.34-1.5v-2.31h-2.08a5.18,5.18,0,0,0-2.72.63,2,2,0,0,0-.33,3.17A2.53,2.53,0,0,0,203.37,113.54Z" transform="translate(-0.29)" style="fill:#bbbdbf"/><path d="M212.85,101.17v2.69H215v1h-2.18v7a2.13,2.13,0,0,0,.32,1.3,1.23,1.23,0,0,0,1.05.43,8.37,8.37,0,0,0,.94-.1l.05.94a3.73,3.73,0,0,1-1.24.17,2.05,2.05,0,0,1-1.74-.7,3.26,3.26,0,0,1-.55-2v-7h-1.93v-1h1.93v-2.69Z" transform="translate(-0.29)" style="fill:#bbbdbf"/><path d="M217.37,100.83a.79.79,0,0,1,.21-.56.77.77,0,0,1,.58-.23.79.79,0,0,1,.59.23.76.76,0,0,1,.22.56.74.74,0,0,1-.22.55.78.78,0,0,1-.59.22.76.76,0,0,1-.58-.22A.77.77,0,0,1,217.37,100.83Zm1.37,13.54h-1.17V103.86h1.17Z" transform="translate(-0.29)" style="fill:#bbbdbf"/><path d="M221.25,109a6.21,6.21,0,0,1,.59-2.73,4.4,4.4,0,0,1,4.09-2.56,4.31,4.31,0,0,1,3.4,1.47,5.66,5.66,0,0,1,1.31,3.9v.24a6.3,6.3,0,0,1-.59,2.75,4.41,4.41,0,0,1-1.66,1.88,4.53,4.53,0,0,1-2.44.66,4.32,4.32,0,0,1-3.39-1.47,5.69,5.69,0,0,1-1.31-3.9Zm1.17.32a4.79,4.79,0,0,0,1,3.1,3.3,3.3,0,0,0,5.11,0,4.94,4.94,0,0,0,1-3.19V109a5.28,5.28,0,0,0-.45-2.2,3.47,3.47,0,0,0-1.25-1.55,3.18,3.18,0,0,0-1.85-.55,3.11,3.11,0,0,0-2.53,1.22,4.88,4.88,0,0,0-1,3.19Z" transform="translate(-0.29)" style="fill:#bbbdbf"/><path d="M234.14,103.86l0,1.8a4.19,4.19,0,0,1,1.48-1.48,3.84,3.84,0,0,1,2-.51,3.17,3.17,0,0,1,2.52,1,4.26,4.26,0,0,1,.83,2.86v6.89h-1.15v-6.9a3.25,3.25,0,0,0-.6-2.1,2.34,2.34,0,0,0-1.88-.69,2.93,2.93,0,0,0-1.91.67,4,4,0,0,0-1.23,1.82v7.2H233V103.86Z" transform="translate(-0.29)" style="fill:#bbbdbf"/><path d="M271.4,107.59h-6.62v5.77h7.61v1h-8.8V100.23h8.75v1h-7.56v5.34h6.62Z" transform="translate(-0.29)" style="fill:#bbbdbf"/><path d="M277.93,108.13l2.84-4.27h1.38L278.58,109l3.72,5.35h-1.36l-3-4.45-3,4.45h-1.37l3.71-5.35-3.56-5.16h1.37Z" transform="translate(-0.29)" style="fill:#bbbdbf"/><path d="M292.76,109.22a6.36,6.36,0,0,1-1.09,3.9,3.46,3.46,0,0,1-2.92,1.45,3.91,3.91,0,0,1-3.3-1.52v5.36H284.3V103.86h1.07l.06,1.49a3.74,3.74,0,0,1,3.3-1.68,3.46,3.46,0,0,1,2.95,1.43,6.43,6.43,0,0,1,1.08,4Zm-1.17-.2a5.43,5.43,0,0,0-.82-3.18,2.68,2.68,0,0,0-2.31-1.16,3.22,3.22,0,0,0-1.83.51,3.31,3.31,0,0,0-1.18,1.5v5a3.12,3.12,0,0,0,1.2,1.38,3.42,3.42,0,0,0,1.83.48,2.64,2.64,0,0,0,2.29-1.17A5.89,5.89,0,0,0,291.59,109Z" transform="translate(-0.29)" style="fill:#bbbdbf"/><path d="M294.69,109a6.21,6.21,0,0,1,.59-2.73,4.4,4.4,0,0,1,4.09-2.56,4.33,4.33,0,0,1,3.4,1.47,5.66,5.66,0,0,1,1.3,3.9v.24a6.3,6.3,0,0,1-.58,2.75,4.48,4.48,0,0,1-1.66,1.88,4.55,4.55,0,0,1-2.44.66A4.32,4.32,0,0,1,296,113.1a5.69,5.69,0,0,1-1.31-3.9Zm1.17.32a4.79,4.79,0,0,0,1,3.1,3.3,3.3,0,0,0,5.11,0,4.94,4.94,0,0,0,1-3.19V109a5.28,5.28,0,0,0-.45-2.2,3.53,3.53,0,0,0-1.25-1.55,3.18,3.18,0,0,0-1.85-.55,3.11,3.11,0,0,0-2.53,1.22,4.88,4.88,0,0,0-1,3.19Z" transform="translate(-0.29)" style="fill:#bbbdbf"/><path d="M311.33,104.85a5,5,0,0,0-.79-.06,2.87,2.87,0,0,0-1.84.6,3.31,3.31,0,0,0-1.07,1.77v7.21h-1.16V103.86h1.14l0,1.67a3.08,3.08,0,0,1,3-1.86,2,2,0,0,1,.77.12Z" transform="translate(-0.29)" style="fill:#bbbdbf"/><path d="M315.46,101.17v2.69h2.17v1h-2.17v7a2.21,2.21,0,0,0,.31,1.3,1.25,1.25,0,0,0,1.06.43,8.37,8.37,0,0,0,.94-.1l.05.94a3.73,3.73,0,0,1-1.24.17,2.05,2.05,0,0,1-1.74-.7,3.2,3.2,0,0,1-.55-2v-7h-1.93v-1h1.93v-2.69Z" transform="translate(-0.29)" style="fill:#bbbdbf"/><path d="M350.15,114.37h-1.21v-6.78h-8.08v6.78h-1.19V100.23h1.19v6.35h8.08v-6.35h1.21Z" transform="translate(-0.29)" style="fill:#bbbdbf"/><path d="M352.83,109a6.08,6.08,0,0,1,.59-2.73,4.4,4.4,0,0,1,4.09-2.56,4.33,4.33,0,0,1,3.4,1.47,5.66,5.66,0,0,1,1.3,3.9v.24a6.3,6.3,0,0,1-.58,2.75,4.48,4.48,0,0,1-1.66,1.88,4.55,4.55,0,0,1-2.44.66,4.32,4.32,0,0,1-3.39-1.47,5.65,5.65,0,0,1-1.31-3.9Zm1.16.32a4.79,4.79,0,0,0,1,3.1,3.3,3.3,0,0,0,5.11,0,4.94,4.94,0,0,0,1-3.19V109a5.28,5.28,0,0,0-.45-2.2,3.6,3.6,0,0,0-1.25-1.55,3.2,3.2,0,0,0-1.85-.55,3.11,3.11,0,0,0-2.53,1.22,4.89,4.89,0,0,0-1,3.19Z" transform="translate(-0.29)" style="fill:#bbbdbf"/><path d="M364,109a6.21,6.21,0,0,1,.59-2.73,4.4,4.4,0,0,1,4.09-2.56,4.33,4.33,0,0,1,3.4,1.47,5.66,5.66,0,0,1,1.3,3.9v.24a6.3,6.3,0,0,1-.58,2.75,4.48,4.48,0,0,1-1.66,1.88,4.55,4.55,0,0,1-2.44.66,4.32,4.32,0,0,1-3.39-1.47,5.69,5.69,0,0,1-1.31-3.9Zm1.17.32a4.79,4.79,0,0,0,1,3.1,3.3,3.3,0,0,0,5.11,0,4.94,4.94,0,0,0,1-3.19V109a5.28,5.28,0,0,0-.45-2.2,3.53,3.53,0,0,0-1.25-1.55,3.18,3.18,0,0,0-1.85-.55,3.11,3.11,0,0,0-2.53,1.22,4.88,4.88,0,0,0-1,3.19Z" transform="translate(-0.29)" style="fill:#bbbdbf"/><path d="M378.25,109.08l-1.33,1.28v4h-1.17V99.45h1.17V109l1.1-1.18,4-4h1.47l-4.46,4.43,4.84,6.08H382.5Z" transform="translate(-0.29)" style="fill:#bbbdbf"/><path d="M391.79,111.7a1.66,1.66,0,0,0-.69-1.39,5.42,5.42,0,0,0-2.1-.82,9.47,9.47,0,0,1-2.17-.68,2.86,2.86,0,0,1-1.14-.94,2.32,2.32,0,0,1-.38-1.34,2.51,2.51,0,0,1,1-2,4.19,4.19,0,0,1,2.66-.81,4.33,4.33,0,0,1,2.83.87,2.81,2.81,0,0,1,1.06,2.27h-1.17a1.87,1.87,0,0,0-.77-1.54,3,3,0,0,0-1.95-.61,3.06,3.06,0,0,0-1.84.51,1.58,1.58,0,0,0-.69,1.33,1.4,1.4,0,0,0,.58,1.21,6,6,0,0,0,2.1.8,10.19,10.19,0,0,1,2.3.76,3,3,0,0,1,1.13,1,2.6,2.6,0,0,1,.37,1.39,2.51,2.51,0,0,1-1.08,2.13,4.58,4.58,0,0,1-2.8.8,4.74,4.74,0,0,1-3-.89,2.73,2.73,0,0,1-1.14-2.25h1.17A2,2,0,0,0,387,113a3.5,3.5,0,0,0,2.09.57,3.25,3.25,0,0,0,2-.54A1.59,1.59,0,0,0,391.79,111.7Z" transform="translate(-0.29)" style="fill:#bbbdbf"/><path d="M416.65,114.37h-1.19V100.23h1.19Z" transform="translate(-0.29)" style="fill:#bbbdbf"/><path d="M421.32,103.86l0,1.8a4.19,4.19,0,0,1,1.48-1.48,3.84,3.84,0,0,1,2-.51,3.17,3.17,0,0,1,2.52,1,4.26,4.26,0,0,1,.83,2.86v6.89H427v-6.9a3.25,3.25,0,0,0-.6-2.1,2.34,2.34,0,0,0-1.88-.69,2.93,2.93,0,0,0-1.91.67,4,4,0,0,0-1.23,1.82v7.2h-1.15V103.86Z" transform="translate(-0.29)" style="fill:#bbbdbf"/><path d="M433,101.17v2.69h2.18v1H433v7a2.2,2.2,0,0,0,.32,1.3,1.23,1.23,0,0,0,1.05.43,8.37,8.37,0,0,0,.94-.1l.05.94a3.73,3.73,0,0,1-1.24.17,2.05,2.05,0,0,1-1.74-.7,3.26,3.26,0,0,1-.55-2v-7h-1.93v-1h1.93v-2.69Z" transform="translate(-0.29)" style="fill:#bbbdbf"/><path d="M441.61,114.57a4.49,4.49,0,0,1-4.11-2.5,5.78,5.78,0,0,1-.61-2.65V109a6.21,6.21,0,0,1,.59-2.73,4.71,4.71,0,0,1,1.64-1.91,4.06,4.06,0,0,1,2.27-.69,3.8,3.8,0,0,1,3,1.3,5.32,5.32,0,0,1,1.12,3.57v.66h-7.5v.22a4.44,4.44,0,0,0,1,3,3.29,3.29,0,0,0,2.58,1.19,3.89,3.89,0,0,0,1.65-.34,3.67,3.67,0,0,0,1.3-1.09l.73.55A4.25,4.25,0,0,1,441.61,114.57Zm-.22-9.91a2.92,2.92,0,0,0-2.21,1,4.43,4.43,0,0,0-1.09,2.59h6.3v-.13a3.88,3.88,0,0,0-.86-2.47A2.71,2.71,0,0,0,441.39,104.66Z" transform="translate(-0.29)" style="fill:#bbbdbf"/><path d="M449.11,114.37H448V99.45h1.16Z" transform="translate(-0.29)" style="fill:#bbbdbf"/><path d="M453.57,114.37h-1.16V99.45h1.16Z" transform="translate(-0.29)" style="fill:#bbbdbf"/><path d="M456.66,100.83a.76.76,0,0,1,.22-.56.75.75,0,0,1,.58-.23.81.81,0,0,1,.59.23.79.79,0,0,1,.21.56.77.77,0,0,1-.21.55.8.8,0,0,1-.59.22.75.75,0,0,1-.58-.22A.74.74,0,0,1,456.66,100.83ZM458,114.37h-1.16V103.86H458Z" transform="translate(-0.29)" style="fill:#bbbdbf"/><path d="M469.47,110.9a2.28,2.28,0,0,0-.83-1.86,8.63,8.63,0,0,0-3-1.31,10.75,10.75,0,0,1-3.21-1.34,3.27,3.27,0,0,1-.1-5.34,5.47,5.47,0,0,1,3.42-1,5.75,5.75,0,0,1,2.52.54,4.16,4.16,0,0,1,1.72,1.51,4,4,0,0,1,.61,2.17h-1.2a3,3,0,0,0-1-2.33,3.85,3.85,0,0,0-2.66-.89,4.21,4.21,0,0,0-2.59.73,2.25,2.25,0,0,0-1,1.89,2.15,2.15,0,0,0,.86,1.76,7.81,7.81,0,0,0,2.77,1.2,13.45,13.45,0,0,1,2.89,1.08,4.18,4.18,0,0,1,1.47,1.34,3.36,3.36,0,0,1,.5,1.84,3.21,3.21,0,0,1-1.34,2.68,5.7,5.7,0,0,1-3.52,1,6.8,6.8,0,0,1-2.74-.54,4.17,4.17,0,0,1-1.9-1.49,3.87,3.87,0,0,1-.64-2.21h1.19a2.83,2.83,0,0,0,1.12,2.36,4.7,4.7,0,0,0,3,.87,4.43,4.43,0,0,0,2.65-.73A2.28,2.28,0,0,0,469.47,110.9Z" transform="translate(-0.29)" style="fill:#bbbdbf"/><path d="M477,114.57a4.52,4.52,0,0,1-4.11-2.5,5.77,5.77,0,0,1-.6-2.65V109a6.21,6.21,0,0,1,.59-2.73,4.71,4.71,0,0,1,1.64-1.91,4,4,0,0,1,2.27-.69,3.78,3.78,0,0,1,3,1.3,5.32,5.32,0,0,1,1.13,3.57v.66h-7.5v.22a4.44,4.44,0,0,0,1,3,3.26,3.26,0,0,0,2.58,1.19,3.92,3.92,0,0,0,1.65-.34,3.64,3.64,0,0,0,1.29-1.09l.73.55A4.23,4.23,0,0,1,477,114.57Zm-.21-9.91a2.9,2.9,0,0,0-2.21,1,4.37,4.37,0,0,0-1.09,2.59h6.3v-.13a3.88,3.88,0,0,0-.86-2.47A2.71,2.71,0,0,0,476.83,104.66Z" transform="translate(-0.29)" style="fill:#bbbdbf"/><path d="M484.36,103.86l0,1.8a4.09,4.09,0,0,1,1.47-1.48,3.84,3.84,0,0,1,1.95-.51,3.17,3.17,0,0,1,2.52,1,4.32,4.32,0,0,1,.84,2.86v6.89H490v-6.9a3.25,3.25,0,0,0-.6-2.1,2.34,2.34,0,0,0-1.88-.69,3,3,0,0,0-1.91.67,4,4,0,0,0-1.23,1.82v7.2h-1.15V103.86Z" transform="translate(-0.29)" style="fill:#bbbdbf"/><path d="M500.47,111.7a1.66,1.66,0,0,0-.69-1.39,5.44,5.44,0,0,0-2.09-.82,9.42,9.42,0,0,1-2.18-.68,2.86,2.86,0,0,1-1.14-.94,2.32,2.32,0,0,1-.38-1.34,2.51,2.51,0,0,1,1-2,4.21,4.21,0,0,1,2.66-.81,4.33,4.33,0,0,1,2.83.87,2.78,2.78,0,0,1,1.06,2.27h-1.17a1.87,1.87,0,0,0-.77-1.54,3,3,0,0,0-1.95-.61,3.06,3.06,0,0,0-1.84.51,1.58,1.58,0,0,0-.69,1.33,1.4,1.4,0,0,0,.58,1.21,5.94,5.94,0,0,0,2.11.8,10.25,10.25,0,0,1,2.29.76,3,3,0,0,1,1.13,1,2.69,2.69,0,0,1-.71,3.52,4.56,4.56,0,0,1-2.8.8,4.76,4.76,0,0,1-3-.89,2.73,2.73,0,0,1-1.14-2.25h1.17a2,2,0,0,0,.86,1.59,3.52,3.52,0,0,0,2.09.57,3.3,3.3,0,0,0,2-.54A1.6,1.6,0,0,0,500.47,111.7Z" transform="translate(-0.29)" style="fill:#bbbdbf"/><path d="M508.32,114.57a4.52,4.52,0,0,1-4.11-2.5,5.77,5.77,0,0,1-.6-2.65V109a6.21,6.21,0,0,1,.59-2.73,4.76,4.76,0,0,1,1.63-1.91,4.07,4.07,0,0,1,2.28-.69,3.78,3.78,0,0,1,3,1.3,5.32,5.32,0,0,1,1.13,3.57v.66h-7.5v.22a4.44,4.44,0,0,0,1,3,3.26,3.26,0,0,0,2.58,1.19,3.92,3.92,0,0,0,1.65-.34,3.73,3.73,0,0,0,1.29-1.09l.73.55A4.23,4.23,0,0,1,508.32,114.57Zm-.21-9.91a2.9,2.9,0,0,0-2.21,1,4.37,4.37,0,0,0-1.09,2.59h6.3v-.13a3.83,3.83,0,0,0-.87-2.47A2.67,2.67,0,0,0,508.11,104.66Z" transform="translate(-0.29)" style="fill:#bbbdbf"/><path d="M535.36,113.36h7v1h-8.19V100.23h1.21Z" transform="translate(-0.29)" style="fill:#bbbdbf"/><path d="M544.29,100.83a.76.76,0,0,1,.22-.56.75.75,0,0,1,.58-.23.79.79,0,0,1,.59.23.8.8,0,0,1,.22.56.75.75,0,0,1-.81.77.75.75,0,0,1-.58-.22A.74.74,0,0,1,544.29,100.83Zm1.37,13.54H544.5V103.86h1.16Z" transform="translate(-0.29)" style="fill:#bbbdbf"/><path d="M557.28,109.22a6.29,6.29,0,0,1-1.09,3.9,3.45,3.45,0,0,1-2.92,1.45,3.78,3.78,0,0,1-3.32-1.63l-.05,1.43h-1.09V99.45H550v5.94a3.63,3.63,0,0,1,3.28-1.72,3.52,3.52,0,0,1,3,1.42,6.43,6.43,0,0,1,1.08,4Zm-1.17-.2a5.44,5.44,0,0,0-.8-3.21,2.65,2.65,0,0,0-2.28-1.13,3.17,3.17,0,0,0-1.89.55,3.26,3.26,0,0,0-1.17,1.6v4.75a3.11,3.11,0,0,0,3.08,2,2.61,2.61,0,0,0,2.25-1.14A5.86,5.86,0,0,0,556.11,109Z" transform="translate(-0.29)" style="fill:#bbbdbf"/><path d="M564.7,104.85a4.84,4.84,0,0,0-.78-.06,2.89,2.89,0,0,0-1.85.6,3.31,3.31,0,0,0-1.07,1.77v7.21h-1.15V103.86H561l0,1.67a3.09,3.09,0,0,1,3-1.86,2,2,0,0,1,.77.12Z" transform="translate(-0.29)" style="fill:#bbbdbf"/><path d="M572.78,114.37a5.69,5.69,0,0,1-.22-1.46,4,4,0,0,1-1.56,1.22,4.75,4.75,0,0,1-2,.44,3.5,3.5,0,0,1-2.45-.85,2.76,2.76,0,0,1-.94-2.14,2.8,2.8,0,0,1,1.28-2.42,6.1,6.1,0,0,1,3.56-.9h2.11v-1.19a2.34,2.34,0,0,0-.69-1.78,2.89,2.89,0,0,0-2-.64,3.19,3.19,0,0,0-2,.62,1.86,1.86,0,0,0-.8,1.5h-1.16a2.7,2.7,0,0,1,1.16-2.17,4.47,4.47,0,0,1,2.87-.92,4.07,4.07,0,0,1,2.77.88,3.13,3.13,0,0,1,1.05,2.45v5a6.09,6.09,0,0,0,.32,2.29v.11Zm-3.65-.83a3.84,3.84,0,0,0,2.08-.57,3.24,3.24,0,0,0,1.34-1.5v-2.31h-2.08a5.21,5.21,0,0,0-2.72.63,1.92,1.92,0,0,0-1,1.7,1.88,1.88,0,0,0,.66,1.47A2.48,2.48,0,0,0,569.13,113.54Z" transform="translate(-0.29)" style="fill:#bbbdbf"/><path d="M581.66,104.85a4.84,4.84,0,0,0-.78-.06,2.89,2.89,0,0,0-1.85.6,3.31,3.31,0,0,0-1.07,1.77v7.21h-1.15V103.86h1.13l0,1.67a3.09,3.09,0,0,1,3-1.86,2,2,0,0,1,.77.12Z" transform="translate(-0.29)" style="fill:#bbbdbf"/><path d="M587,112.7l3.06-8.84h1.26l-4.49,12.3-.23.54a2.83,2.83,0,0,1-2.67,1.92,3.35,3.35,0,0,1-.9-.14v-1l.6.06a2.17,2.17,0,0,0,1.39-.42,3.33,3.33,0,0,0,.9-1.46l.51-1.41-4-10.43h1.27Z" transform="translate(-0.29)" style="fill:#bbbdbf"/><path d="M614,113.36h7v1h-8.19V100.23H614Z" transform="translate(-0.29)" style="fill:#bbbdbf"/><path d="M622.89,100.83a.79.79,0,0,1,.21-.56.86.86,0,0,1,1.17,0,.76.76,0,0,1,.22.56.74.74,0,0,1-.22.55.76.76,0,0,1-.58.22.74.74,0,0,1-.8-.77Zm1.37,13.54h-1.17V103.86h1.17Z" transform="translate(-0.29)" style="fill:#bbbdbf"/><path d="M628.52,103.86l0,1.8a4.19,4.19,0,0,1,1.48-1.48,3.84,3.84,0,0,1,2-.51,3.17,3.17,0,0,1,2.52,1,4.26,4.26,0,0,1,.83,2.86v6.89h-1.15v-6.9a3.25,3.25,0,0,0-.6-2.1,2.34,2.34,0,0,0-1.88-.69,2.93,2.93,0,0,0-1.91.67,4,4,0,0,0-1.23,1.82v7.2h-1.15V103.86Z" transform="translate(-0.29)" style="fill:#bbbdbf"/><path d="M640.84,109.08l-1.33,1.28v4h-1.17V99.45h1.17V109l1.1-1.18,4-4h1.47l-4.46,4.43,4.84,6.08H645.1Z" transform="translate(-0.29)" style="fill:#bbbdbf"/><path d="M654.38,111.7a1.66,1.66,0,0,0-.69-1.39,5.42,5.42,0,0,0-2.1-.82,9.47,9.47,0,0,1-2.17-.68,2.86,2.86,0,0,1-1.14-.94,2.32,2.32,0,0,1-.38-1.34,2.51,2.51,0,0,1,1-2,4.21,4.21,0,0,1,2.66-.81,4.33,4.33,0,0,1,2.83.87,2.81,2.81,0,0,1,1.06,2.27h-1.17a1.87,1.87,0,0,0-.77-1.54,3,3,0,0,0-1.95-.61,3.06,3.06,0,0,0-1.84.51,1.58,1.58,0,0,0-.69,1.33,1.4,1.4,0,0,0,.58,1.21,6,6,0,0,0,2.1.8,10.19,10.19,0,0,1,2.3.76,3,3,0,0,1,1.13,1,2.6,2.6,0,0,1,.37,1.39,2.51,2.51,0,0,1-1.08,2.13,4.58,4.58,0,0,1-2.8.8,4.76,4.76,0,0,1-3-.89,2.73,2.73,0,0,1-1.14-2.25h1.17a2,2,0,0,0,.86,1.59,3.5,3.5,0,0,0,2.09.57,3.25,3.25,0,0,0,2-.54A1.59,1.59,0,0,0,654.38,111.7Z" transform="translate(-0.29)" style="fill:#bbbdbf"/><path d="M77.49,155.6h7v1H76.28V142.47h1.21Z" transform="translate(-0.29)" style="fill:#bbbdbf"/><path d="M85.85,151.2a6.21,6.21,0,0,1,.59-2.73,4.43,4.43,0,0,1,4.1-2.57,4.35,4.35,0,0,1,3.4,1.48,5.7,5.7,0,0,1,1.3,3.9v.24a6.23,6.23,0,0,1-.59,2.74A4.29,4.29,0,0,1,93,156.14a4.53,4.53,0,0,1-2.44.66,4.32,4.32,0,0,1-3.39-1.47,5.66,5.66,0,0,1-1.31-3.9Zm1.17.32a4.74,4.74,0,0,0,1,3.09,3.14,3.14,0,0,0,2.56,1.21,3.11,3.11,0,0,0,2.55-1.21,4.86,4.86,0,0,0,1-3.19v-.22a5.36,5.36,0,0,0-.45-2.21,3.58,3.58,0,0,0-1.25-1.55,3.23,3.23,0,0,0-1.84-.54A3.1,3.1,0,0,0,88,148.11a5,5,0,0,0-1,3.2Z" transform="translate(-0.29)" style="fill:#bbbdbf"/><path d="M100.15,154.19l.18.9.23-1,2.53-8h1l2.49,8,.27,1.11.23-1,2.15-8.06h1.21l-3.06,10.51h-1l-2.7-8.34-.13-.57-.12.58-2.66,8.33h-1l-3-10.51h1.2Z" transform="translate(-0.29)" style="fill:#bbbdbf"/><path d="M116.25,150.86H111.6v-1h4.65Z" transform="translate(-0.29)" style="fill:#bbbdbf"/><path d="M128.61,152.2a5.07,5.07,0,0,1-1.59,3.42,5.3,5.3,0,0,1-3.61,1.18,5.05,5.05,0,0,1-2.79-.78,5.21,5.21,0,0,1-1.87-2.23,8,8,0,0,1-.67-3.3v-1.84a8,8,0,0,1,.66-3.34,5.21,5.21,0,0,1,1.9-2.25,5.26,5.26,0,0,1,2.85-.79,4.73,4.73,0,0,1,5.12,4.62h-1.2c-.3-2.41-1.6-3.61-3.92-3.61a3.7,3.7,0,0,0-3.06,1.44,6.24,6.24,0,0,0-1.14,4v1.73a6.27,6.27,0,0,0,1.11,3.9,3.56,3.56,0,0,0,3,1.46,4,4,0,0,0,2.82-.9,4.24,4.24,0,0,0,1.18-2.69Z" transform="translate(-0.29)" style="fill:#bbbdbf"/><path d="M130.6,151.2a6.21,6.21,0,0,1,.59-2.73,4.43,4.43,0,0,1,4.1-2.57,4.34,4.34,0,0,1,3.4,1.48,5.66,5.66,0,0,1,1.3,3.9v.24a6.23,6.23,0,0,1-.59,2.74,4.34,4.34,0,0,1-1.65,1.88,4.58,4.58,0,0,1-2.44.66,4.33,4.33,0,0,1-3.4-1.47,5.66,5.66,0,0,1-1.31-3.9Zm1.17.32a4.75,4.75,0,0,0,1,3.09,3.3,3.3,0,0,0,5.11,0,4.92,4.92,0,0,0,1-3.19v-.22a5.52,5.52,0,0,0-.44-2.21,3.67,3.67,0,0,0-1.26-1.55,3.21,3.21,0,0,0-1.84-.54,3.12,3.12,0,0,0-2.54,1.21,5,5,0,0,0-1,3.2Z" transform="translate(-0.29)" style="fill:#bbbdbf"/><path d="M141.92,151.26a6.31,6.31,0,0,1,1.1-3.9,3.49,3.49,0,0,1,3-1.46,3.67,3.67,0,0,1,3.25,1.68v-5.89h1.15v14.92h-1.09l0-1.4A3.77,3.77,0,0,1,146,156.8a3.5,3.5,0,0,1-2.93-1.46,6.37,6.37,0,0,1-1.11-4Zm1.18.2a5.53,5.53,0,0,0,.8,3.17,2.61,2.61,0,0,0,2.28,1.16,3.14,3.14,0,0,0,3-1.89V149a3.12,3.12,0,0,0-3-2,2.65,2.65,0,0,0-2.29,1.15A5.85,5.85,0,0,0,143.1,151.46Z" transform="translate(-0.29)" style="fill:#bbbdbf"/><path d="M153.38,143.06a.75.75,0,0,1,.79-.78.79.79,0,0,1,.59.23.74.74,0,0,1,.22.55.72.72,0,0,1-.22.55.78.78,0,0,1-.59.22.74.74,0,0,1-.79-.77Zm1.36,13.55h-1.16V146.1h1.16Z" transform="translate(-0.29)" style="fill:#bbbdbf"/><path d="M159,146.1l0,1.8a4.2,4.2,0,0,1,1.47-1.49,3.85,3.85,0,0,1,2-.51,3.13,3.13,0,0,1,2.51,1,4.29,4.29,0,0,1,.84,2.85v6.9h-1.16V149.7a3.13,3.13,0,0,0-.6-2.1,2.31,2.31,0,0,0-1.87-.68,2.93,2.93,0,0,0-1.91.67,3.89,3.89,0,0,0-1.23,1.82v7.2H157.9V146.1Z" transform="translate(-0.29)" style="fill:#bbbdbf"/><path d="M168.36,151.26a6.31,6.31,0,0,1,1.1-3.91,3.52,3.52,0,0,1,3-1.45,3.66,3.66,0,0,1,3.27,1.71l.06-1.51h1.08v10.3a4.43,4.43,0,0,1-1.13,3.21,4.08,4.08,0,0,1-3.08,1.19,4.75,4.75,0,0,1-2.09-.49A4.08,4.08,0,0,1,169,159l.65-.7a3.68,3.68,0,0,0,2.93,1.52,3,3,0,0,0,2.27-.86,3.42,3.42,0,0,0,.85-2.39v-1.32a3.75,3.75,0,0,1-3.25,1.55,3.51,3.51,0,0,1-2.94-1.45,6.36,6.36,0,0,1-1.11-3.94Zm1.18.2a5.45,5.45,0,0,0,.81,3.17,2.58,2.58,0,0,0,2.27,1.16,3.11,3.11,0,0,0,3-1.92V149a3.31,3.31,0,0,0-1.18-1.54,3.16,3.16,0,0,0-1.84-.52,2.62,2.62,0,0,0-2.28,1.15A5.77,5.77,0,0,0,169.54,151.46Z" transform="translate(-0.29)" style="fill:#bbbdbf"/><path d="M200.68,150.85v5.76h-1.19V142.47h4.82a5.07,5.07,0,0,1,3.48,1.12,4.43,4.43,0,0,1,.05,6.18,5.24,5.24,0,0,1-3.56,1.08Zm0-1h3.63A3.84,3.84,0,0,0,207,149a2.94,2.94,0,0,0,.91-2.3,3.07,3.07,0,0,0-.91-2.34,3.61,3.61,0,0,0-2.58-.89h-3.7Z" transform="translate(-0.29)" style="fill:#bbbdbf"/><path d="M212.77,156.61H211.6V141.69h1.17Z" transform="translate(-0.29)" style="fill:#bbbdbf"/><path d="M222.56,156.61a5.63,5.63,0,0,1-.23-1.47,4,4,0,0,1-1.55,1.23,4.78,4.78,0,0,1-2,.43,3.52,3.52,0,0,1-2.45-.84,2.74,2.74,0,0,1-.94-2.14,2.83,2.83,0,0,1,1.28-2.43,6.18,6.18,0,0,1,3.56-.89h2.11v-1.2a2.31,2.31,0,0,0-.7-1.77,2.88,2.88,0,0,0-2-.64,3.17,3.17,0,0,0-2,.62,1.83,1.83,0,0,0-.79,1.49h-1.17a2.7,2.7,0,0,1,1.17-2.17,4.5,4.5,0,0,1,2.86-.92,4.14,4.14,0,0,1,2.78.88,3.2,3.2,0,0,1,1,2.46v5a6.2,6.2,0,0,0,.32,2.28v.12Zm-3.65-.84a3.86,3.86,0,0,0,2.08-.56,3.4,3.4,0,0,0,1.34-1.5v-2.32h-2.08a5.28,5.28,0,0,0-2.72.64,1.9,1.9,0,0,0-1,1.69,1.87,1.87,0,0,0,.65,1.47A2.48,2.48,0,0,0,218.91,155.77Z" transform="translate(-0.29)" style="fill:#bbbdbf"/><path d="M227.69,146.1l0,1.8a4.12,4.12,0,0,1,1.47-1.49,3.85,3.85,0,0,1,2-.51,3.13,3.13,0,0,1,2.51,1,4.29,4.29,0,0,1,.84,2.85v6.9h-1.16V149.7a3.19,3.19,0,0,0-.6-2.1,2.34,2.34,0,0,0-1.88-.68,3,3,0,0,0-1.91.67,3.94,3.94,0,0,0-1.22,1.82v7.2h-1.16V146.1Z" transform="translate(-0.29)" style="fill:#bbbdbf"/><path d="M239.32,143.41v2.69h2.17v1h-2.17v7a2.22,2.22,0,0,0,.31,1.31,1.24,1.24,0,0,0,1.06.42,8,8,0,0,0,.94-.09l.05.94a3.83,3.83,0,0,1-1.25.16,2.1,2.1,0,0,1-1.74-.69,3.3,3.3,0,0,1-.54-2.05v-7h-1.93v-1h1.93v-2.69Z" transform="translate(-0.29)" style="fill:#bbbdbf"/><path d="M253.92,142.47v9.65a4.9,4.9,0,0,1-.64,2.49,4.18,4.18,0,0,1-1.75,1.63,5.82,5.82,0,0,1-2.6.56,5.1,5.1,0,0,1-3.58-1.22,4.46,4.46,0,0,1-1.39-3.37v-9.74h1.18V152a3.68,3.68,0,0,0,1,2.78,3.86,3.86,0,0,0,2.77,1,3.8,3.8,0,0,0,2.77-1,3.7,3.7,0,0,0,1-2.76v-9.57Z" transform="translate(-0.29)" style="fill:#bbbdbf"/><path d="M258.83,142.47,264.05,155l5.23-12.48h1.6v14.14h-1.2v-6.16l.1-6.31-5.27,12.47h-.92l-5.24-12.42.09,6.22v6.2h-1.19V142.47Z" transform="translate(-0.29)" style="fill:#bbbdbf"/><path d="M275.67,155.6h7v1h-8.19V142.47h1.21Z" transform="translate(-0.29)" style="fill:#bbbdbf"/><path d="M312.3,153.13a2.3,2.3,0,0,0-.83-1.86,8.85,8.85,0,0,0-3-1.3,10.58,10.58,0,0,1-3.21-1.35,3.17,3.17,0,0,1-1.43-2.7,3.14,3.14,0,0,1,1.33-2.63,5.47,5.47,0,0,1,3.42-1,5.56,5.56,0,0,1,2.52.55,4.09,4.09,0,0,1,1.72,1.51,4,4,0,0,1,.61,2.17h-1.2a3,3,0,0,0-1-2.34,3.9,3.9,0,0,0-2.66-.88A4.17,4.17,0,0,0,306,144a2.25,2.25,0,0,0-1,1.89,2.13,2.13,0,0,0,.87,1.76,8.12,8.12,0,0,0,2.76,1.2,13.24,13.24,0,0,1,2.89,1.08,4.13,4.13,0,0,1,1.48,1.34,3.32,3.32,0,0,1,.49,1.83,3.18,3.18,0,0,1-1.33,2.68,5.69,5.69,0,0,1-3.53,1,7,7,0,0,1-2.74-.53,4.23,4.23,0,0,1-1.89-1.5,3.77,3.77,0,0,1-.65-2.2h1.19a2.84,2.84,0,0,0,1.12,2.36,4.78,4.78,0,0,0,3,.86,4.39,4.39,0,0,0,2.66-.73A2.29,2.29,0,0,0,312.3,153.13Z" transform="translate(-0.29)" style="fill:#bbbdbf"/><path d="M319.87,156.8a4.52,4.52,0,0,1-4.11-2.5,5.73,5.73,0,0,1-.6-2.64v-.42a6.21,6.21,0,0,1,.59-2.73,4.65,4.65,0,0,1,1.64-1.91,4,4,0,0,1,2.27-.7,3.81,3.81,0,0,1,3,1.31,5.34,5.34,0,0,1,1.12,3.57v.65h-7.5v.23a4.39,4.39,0,0,0,1,3,3.26,3.26,0,0,0,2.58,1.19,3.77,3.77,0,0,0,1.65-.34,3.65,3.65,0,0,0,1.3-1.09l.72.56A4.22,4.22,0,0,1,319.87,156.8Zm-.21-9.9a2.92,2.92,0,0,0-2.21,1,4.43,4.43,0,0,0-1.09,2.58h6.3v-.13a3.83,3.83,0,0,0-.86-2.46A2.68,2.68,0,0,0,319.66,146.9Z" transform="translate(-0.29)" style="fill:#bbbdbf"/><path d="M332.72,156.61a5.24,5.24,0,0,1-.23-1.47,4.11,4.11,0,0,1-1.56,1.23,4.73,4.73,0,0,1-2,.43,3.56,3.56,0,0,1-2.46-.84,2.77,2.77,0,0,1-.93-2.14,2.82,2.82,0,0,1,1.27-2.43,6.2,6.2,0,0,1,3.56-.89h2.11v-1.2a2.3,2.3,0,0,0-.69-1.77,2.89,2.89,0,0,0-2-.64,3.13,3.13,0,0,0-2,.62A1.83,1.83,0,0,0,327,149h-1.17a2.7,2.7,0,0,1,1.17-2.17,4.48,4.48,0,0,1,2.86-.92,4.11,4.11,0,0,1,2.77.88,3.17,3.17,0,0,1,1.05,2.46v5a6.2,6.2,0,0,0,.32,2.28v.12Zm-3.66-.84a3.9,3.9,0,0,0,2.09-.56,3.37,3.37,0,0,0,1.33-1.5v-2.32H330.4a5.3,5.3,0,0,0-2.72.64,1.92,1.92,0,0,0-1,1.69,1.88,1.88,0,0,0,.66,1.47A2.45,2.45,0,0,0,329.06,155.77Z" transform="translate(-0.29)" style="fill:#bbbdbf"/><path d="M341.59,147.09a3.84,3.84,0,0,0-.78-.07,2.8,2.8,0,0,0-1.84.61,3.3,3.3,0,0,0-1.08,1.76v7.22h-1.15V146.1h1.13l0,1.67a3.11,3.11,0,0,1,3-1.87,1.93,1.93,0,0,1,.76.13Z" transform="translate(-0.29)" style="fill:#bbbdbf"/><path d="M347.13,155.82a3.12,3.12,0,0,0,2-.68,2.42,2.42,0,0,0,.88-1.77h1.12a3.26,3.26,0,0,1-.6,1.75,3.79,3.79,0,0,1-1.47,1.24,4.54,4.54,0,0,1-2,.44,4.09,4.09,0,0,1-3.28-1.43,5.86,5.86,0,0,1-1.21-3.87v-.35a6.46,6.46,0,0,1,.55-2.75,4.1,4.1,0,0,1,1.56-1.84,4.22,4.22,0,0,1,2.37-.66,4.09,4.09,0,0,1,2.85,1,3.75,3.75,0,0,1,1.2,2.71h-1.12a2.86,2.86,0,0,0-.88-2,2.91,2.91,0,0,0-2.05-.75,2.88,2.88,0,0,0-2.44,1.13,5.15,5.15,0,0,0-.87,3.19v.34a5.05,5.05,0,0,0,.87,3.14A2.92,2.92,0,0,0,347.13,155.82Z" transform="translate(-0.29)" style="fill:#bbbdbf"/><path d="M354.65,147.88a4,4,0,0,1,1.47-1.46,3.84,3.84,0,0,1,1.95-.52,3.12,3.12,0,0,1,2.51,1,4.23,4.23,0,0,1,.84,2.85v6.9h-1.16V149.7a3.19,3.19,0,0,0-.59-2.1,2.34,2.34,0,0,0-1.88-.68,2.93,2.93,0,0,0-1.91.67,4,4,0,0,0-1.23,1.82v7.2h-1.16V141.69h1.16Z" transform="translate(-0.29)" style="fill:#bbbdbf"/><path d="M393.24,143.48H388.4v13.13h-1.2V143.48h-4.84v-1h10.88Z" transform="translate(-0.29)" style="fill:#bbbdbf"/><path d="M400.79,156.61a5.71,5.71,0,0,1-.22-1.47,4.11,4.11,0,0,1-1.56,1.23,4.75,4.75,0,0,1-2,.43,3.54,3.54,0,0,1-2.45-.84,2.77,2.77,0,0,1-.94-2.14,2.83,2.83,0,0,1,1.28-2.43,6.18,6.18,0,0,1,3.56-.89h2.11v-1.2a2.28,2.28,0,0,0-.7-1.77,2.85,2.85,0,0,0-2-.64,3.13,3.13,0,0,0-2,.62A1.84,1.84,0,0,0,395,149h-1.16a2.69,2.69,0,0,1,1.16-2.17,4.51,4.51,0,0,1,2.87-.92,4.13,4.13,0,0,1,2.77.88,3.16,3.16,0,0,1,1,2.46v5a6.2,6.2,0,0,0,.32,2.28v.12Zm-3.65-.84a3.84,3.84,0,0,0,2.08-.56,3.34,3.34,0,0,0,1.34-1.5v-2.32h-2.08a5.28,5.28,0,0,0-2.72.64,2,2,0,0,0-.33,3.16A2.48,2.48,0,0,0,397.14,155.77Z" transform="translate(-0.29)" style="fill:#bbbdbf"/><path d="M404.35,151.26a6.3,6.3,0,0,1,1.09-3.91,3.54,3.54,0,0,1,3-1.45,3.64,3.64,0,0,1,3.26,1.71l.06-1.51h1.09v10.3a4.44,4.44,0,0,1-1.14,3.21,4.07,4.07,0,0,1-3.08,1.19,4.75,4.75,0,0,1-2.09-.49,4.08,4.08,0,0,1-1.57-1.31l.65-.7a3.68,3.68,0,0,0,2.93,1.52,3,3,0,0,0,2.28-.86,3.46,3.46,0,0,0,.84-2.39v-1.32a3.74,3.74,0,0,1-3.25,1.55,3.51,3.51,0,0,1-2.94-1.45,6.42,6.42,0,0,1-1.1-3.94Zm1.17.2a5.45,5.45,0,0,0,.81,3.17,2.59,2.59,0,0,0,2.27,1.16,3.1,3.1,0,0,0,3-1.92V149a3.36,3.36,0,0,0-1.17-1.54,3.22,3.22,0,0,0-1.85-.52,2.62,2.62,0,0,0-2.28,1.15A5.77,5.77,0,0,0,405.52,151.46Z" transform="translate(-0.29)" style="fill:#bbbdbf"/><path d="M422.14,153.94a1.66,1.66,0,0,0-.69-1.39,5.42,5.42,0,0,0-2.1-.82,10,10,0,0,1-2.17-.68,2.94,2.94,0,0,1-1.14-.94,2.35,2.35,0,0,1-.38-1.34,2.5,2.5,0,0,1,1-2.05,4.16,4.16,0,0,1,2.66-.82,4.33,4.33,0,0,1,2.83.87,2.79,2.79,0,0,1,1.06,2.27h-1.17a1.87,1.87,0,0,0-.77-1.53,3,3,0,0,0-1.95-.61,3.06,3.06,0,0,0-1.84.51,1.57,1.57,0,0,0-.69,1.32,1.42,1.42,0,0,0,.58,1.22,6,6,0,0,0,2.11.79,10.18,10.18,0,0,1,2.29.77,3,3,0,0,1,1.13,1,2.49,2.49,0,0,1,.37,1.39,2.51,2.51,0,0,1-1.08,2.13,4.56,4.56,0,0,1-2.8.79,4.75,4.75,0,0,1-3-.88,2.76,2.76,0,0,1-1.14-2.25h1.17a2,2,0,0,0,.86,1.58,3.5,3.5,0,0,0,2.09.57,3.37,3.37,0,0,0,2-.53A1.63,1.63,0,0,0,422.14,153.94Z" transform="translate(-0.29)" style="fill:#bbbdbf"/><path d="M454.75,143.48h-4.84v13.13h-1.2V143.48h-4.84v-1h10.88Z" transform="translate(-0.29)" style="fill:#bbbdbf"/><path d="M457.92,147.88a4,4,0,0,1,1.47-1.46,3.84,3.84,0,0,1,1.95-.52,3.12,3.12,0,0,1,2.51,1,4.23,4.23,0,0,1,.84,2.85v6.9h-1.16V149.7a3.19,3.19,0,0,0-.59-2.1,2.34,2.34,0,0,0-1.88-.68,2.93,2.93,0,0,0-1.91.67,4,4,0,0,0-1.23,1.82v7.2h-1.16V141.69h1.16Z" transform="translate(-0.29)" style="fill:#bbbdbf"/><path d="M471.75,156.8a4.52,4.52,0,0,1-4.11-2.5,5.73,5.73,0,0,1-.6-2.64v-.42a6.21,6.21,0,0,1,.59-2.73,4.65,4.65,0,0,1,1.64-1.91,4,4,0,0,1,2.27-.7,3.79,3.79,0,0,1,3,1.31,5.29,5.29,0,0,1,1.13,3.57v.65h-7.5v.23a4.39,4.39,0,0,0,1,3,3.26,3.26,0,0,0,2.58,1.19,3.77,3.77,0,0,0,1.65-.34,3.54,3.54,0,0,0,1.29-1.09l.73.56A4.22,4.22,0,0,1,471.75,156.8Zm-.21-9.9a2.92,2.92,0,0,0-2.21,1,4.43,4.43,0,0,0-1.09,2.58h6.3v-.13a3.83,3.83,0,0,0-.86-2.46A2.68,2.68,0,0,0,471.54,146.9Z" transform="translate(-0.29)" style="fill:#bbbdbf"/><path d="M479,146.1l0,1.71a3.84,3.84,0,0,1,1.46-1.43,4,4,0,0,1,1.94-.48,2.93,2.93,0,0,1,3.15,2,4.05,4.05,0,0,1,1.51-1.51,4.21,4.21,0,0,1,2.08-.53q3.38,0,3.45,3.7v7h-1.17v-6.93a3.16,3.16,0,0,0-.6-2.09,2.49,2.49,0,0,0-1.95-.67,3.07,3.07,0,0,0-2.12.81,2.81,2.81,0,0,0-1,1.92v7h-1.17v-7a2.89,2.89,0,0,0-.63-2,2.55,2.55,0,0,0-1.93-.66,2.94,2.94,0,0,0-1.89.62,3.7,3.7,0,0,0-1.16,1.86v7.21H477.9V146.1Z" transform="translate(-0.29)" style="fill:#bbbdbf"/><path d="M499.66,156.8a4.56,4.56,0,0,1-2.42-.66,4.49,4.49,0,0,1-1.69-1.84,5.73,5.73,0,0,1-.6-2.64v-.42a6.21,6.21,0,0,1,.59-2.73,4.7,4.7,0,0,1,1.63-1.91,4.08,4.08,0,0,1,2.28-.7,3.8,3.8,0,0,1,3,1.31,5.29,5.29,0,0,1,1.12,3.57v.65h-7.49v.23a4.39,4.39,0,0,0,1,3,3.23,3.23,0,0,0,2.58,1.19,3.77,3.77,0,0,0,1.65-.34,3.62,3.62,0,0,0,1.29-1.09l.73.56A4.22,4.22,0,0,1,499.66,156.8Zm-.21-9.9a2.9,2.9,0,0,0-2.21,1,4.36,4.36,0,0,0-1.09,2.58h6.3v-.13a3.78,3.78,0,0,0-.87-2.46A2.64,2.64,0,0,0,499.45,146.9Z" transform="translate(-0.29)" style="fill:#bbbdbf"/><path d="M512.16,153.94a1.66,1.66,0,0,0-.69-1.39,5.37,5.37,0,0,0-2.09-.82,9.93,9.93,0,0,1-2.18-.68,2.94,2.94,0,0,1-1.14-.94,2.35,2.35,0,0,1-.38-1.34,2.5,2.5,0,0,1,1-2.05,4.17,4.17,0,0,1,2.67-.82,4.32,4.32,0,0,1,2.82.87,2.79,2.79,0,0,1,1.06,2.27H512.1a1.87,1.87,0,0,0-.77-1.53,3,3,0,0,0-1.94-.61,3.07,3.07,0,0,0-1.85.51,1.57,1.57,0,0,0-.69,1.32,1.42,1.42,0,0,0,.58,1.22,6.06,6.06,0,0,0,2.11.79,10,10,0,0,1,2.29.77,3,3,0,0,1,1.13,1,2.49,2.49,0,0,1,.37,1.39,2.53,2.53,0,0,1-1.07,2.13,4.61,4.61,0,0,1-2.81.79,4.7,4.7,0,0,1-3-.88,2.74,2.74,0,0,1-1.15-2.25h1.17a2,2,0,0,0,.86,1.58,3.52,3.52,0,0,0,2.09.57,3.37,3.37,0,0,0,2-.53A1.63,1.63,0,0,0,512.16,153.94Z" transform="translate(-0.29)" style="fill:#bbbdbf"/><path d="M539.83,154.86l.08.3.08-.3,4.45-12.39h1.31l-5.26,14.14h-1.15l-5.26-14.14h1.3Z" transform="translate(-0.29)" style="fill:#bbbdbf"/><path d="M551.2,156.8a4.56,4.56,0,0,1-2.42-.66,4.47,4.47,0,0,1-1.68-1.84,5.61,5.61,0,0,1-.61-2.64v-.42a6.21,6.21,0,0,1,.59-2.73,4.65,4.65,0,0,1,1.64-1.91,4,4,0,0,1,2.27-.7,3.81,3.81,0,0,1,3,1.31,5.34,5.34,0,0,1,1.12,3.57v.65h-7.5v.23a4.39,4.39,0,0,0,1,3,3.26,3.26,0,0,0,2.58,1.19,3.77,3.77,0,0,0,1.65-.34,3.56,3.56,0,0,0,1.3-1.09l.72.56A4.22,4.22,0,0,1,551.2,156.8Zm-.21-9.9a2.92,2.92,0,0,0-2.21,1,4.43,4.43,0,0,0-1.09,2.58H554v-.13a3.83,3.83,0,0,0-.86-2.46A2.68,2.68,0,0,0,551,146.9Z" transform="translate(-0.29)" style="fill:#bbbdbf"/><path d="M562.27,147.09a4,4,0,0,0-.79-.07,2.82,2.82,0,0,0-1.84.61,3.29,3.29,0,0,0-1.07,1.76v7.22h-1.16V146.1h1.14l0,1.67a3.09,3.09,0,0,1,3-1.87,2,2,0,0,1,.77.13Z" transform="translate(-0.29)" style="fill:#bbbdbf"/><path d="M570.4,153.94a1.64,1.64,0,0,0-.7-1.39,5.37,5.37,0,0,0-2.09-.82,9.82,9.82,0,0,1-2.17-.68,2.91,2.91,0,0,1-1.15-.94,2.34,2.34,0,0,1-.37-1.34,2.5,2.5,0,0,1,1-2.05,4.14,4.14,0,0,1,2.66-.82,4.32,4.32,0,0,1,2.82.87,2.8,2.8,0,0,1,1.07,2.27h-1.17a1.89,1.89,0,0,0-.77-1.53,3.49,3.49,0,0,0-3.79-.1,1.58,1.58,0,0,0-.7,1.32,1.45,1.45,0,0,0,.58,1.22,6.14,6.14,0,0,0,2.11.79,9.83,9.83,0,0,1,2.29.77,2.9,2.9,0,0,1,1.13,1,2.7,2.7,0,0,1-.7,3.52,4.6,4.6,0,0,1-2.8.79,4.72,4.72,0,0,1-3-.88,2.76,2.76,0,0,1-1.14-2.25h1.16a2,2,0,0,0,.87,1.58,3.47,3.47,0,0,0,2.09.57,3.34,3.34,0,0,0,2-.53A1.61,1.61,0,0,0,570.4,153.94Z" transform="translate(-0.29)" style="fill:#bbbdbf"/><path d="M574.11,143.06a.77.77,0,0,1,.21-.55.79.79,0,0,1,.59-.23.77.77,0,0,1,.58.23.74.74,0,0,1,.22.55.72.72,0,0,1-.22.55.76.76,0,0,1-.58.22.78.78,0,0,1-.59-.22A.75.75,0,0,1,574.11,143.06Zm1.37,13.55h-1.17V146.1h1.17Z" transform="translate(-0.29)" style="fill:#bbbdbf"/><path d="M578,151.2a6.21,6.21,0,0,1,.59-2.73,4.43,4.43,0,0,1,4.1-2.57,4.34,4.34,0,0,1,3.4,1.48,5.7,5.7,0,0,1,1.3,3.9v.24a6.23,6.23,0,0,1-.59,2.74,4.29,4.29,0,0,1-1.66,1.88,4.52,4.52,0,0,1-2.43.66,4.33,4.33,0,0,1-3.4-1.47,5.66,5.66,0,0,1-1.31-3.9Zm1.17.32a4.75,4.75,0,0,0,1,3.09,3.3,3.3,0,0,0,5.11,0,4.92,4.92,0,0,0,1-3.19v-.22a5.52,5.52,0,0,0-.44-2.21,3.67,3.67,0,0,0-1.26-1.55,3.23,3.23,0,0,0-1.84-.54,3.12,3.12,0,0,0-2.54,1.21,5,5,0,0,0-1,3.2Z" transform="translate(-0.29)" style="fill:#bbbdbf"/><path d="M590.89,146.1l0,1.8a4.12,4.12,0,0,1,1.47-1.49,3.84,3.84,0,0,1,2-.51,3.14,3.14,0,0,1,2.52,1,4.29,4.29,0,0,1,.84,2.85v6.9h-1.16V149.7a3.25,3.25,0,0,0-.6-2.1,2.34,2.34,0,0,0-1.88-.68,3,3,0,0,0-1.91.67,4,4,0,0,0-1.23,1.82v7.2h-1.15V146.1Z" transform="translate(-0.29)" style="fill:#bbbdbf"/><path d="M600.64,143.06a.81.81,0,0,1,1.38-.55.74.74,0,0,1,.22.55.72.72,0,0,1-.22.55.76.76,0,0,1-.58.22.77.77,0,0,1-.59-.22A.75.75,0,0,1,600.64,143.06ZM602,156.61h-1.17V146.1H602Z" transform="translate(-0.29)" style="fill:#bbbdbf"/><path d="M606.27,146.1l0,1.8a4.22,4.22,0,0,1,1.48-1.49,3.84,3.84,0,0,1,2-.51,3.14,3.14,0,0,1,2.52,1,4.23,4.23,0,0,1,.83,2.85v6.9h-1.15V149.7a3.25,3.25,0,0,0-.6-2.1,2.34,2.34,0,0,0-1.88-.68,2.93,2.93,0,0,0-1.91.67,4,4,0,0,0-1.23,1.82v7.2h-1.15V146.1Z" transform="translate(-0.29)" style="fill:#bbbdbf"/><path d="M615.63,151.26a6.3,6.3,0,0,1,1.09-3.91,3.54,3.54,0,0,1,3-1.45,3.64,3.64,0,0,1,3.26,1.71l.06-1.51h1.09v10.3a4.44,4.44,0,0,1-1.14,3.21,4.07,4.07,0,0,1-3.08,1.19,4.75,4.75,0,0,1-2.09-.49,4.08,4.08,0,0,1-1.57-1.31l.65-.7a3.68,3.68,0,0,0,2.93,1.52,3,3,0,0,0,2.28-.86,3.46,3.46,0,0,0,.84-2.39v-1.32a3.74,3.74,0,0,1-3.25,1.55,3.51,3.51,0,0,1-2.94-1.45,6.42,6.42,0,0,1-1.1-3.94Zm1.17.2a5.45,5.45,0,0,0,.81,3.17,2.59,2.59,0,0,0,2.27,1.16,3.1,3.1,0,0,0,3-1.92V149a3.36,3.36,0,0,0-1.17-1.54,3.22,3.22,0,0,0-1.85-.52,2.62,2.62,0,0,0-2.28,1.15A5.77,5.77,0,0,0,616.8,151.46Z" transform="translate(-0.29)" style="fill:#bbbdbf"/><line x1="489.39" y1="1" x2="212.39" y2="1" style="fill:none;stroke:#1b75bb;stroke-linecap:square;stroke-miterlimit:10;stroke-width:2px"/></g></g></svg>