<svg xmlns="http://www.w3.org/2000/svg" viewBox="0 0 650.78 160.8"><g id="Layer_2" data-name="Layer 2"><g id="Layer_1-2" data-name="Layer 1"><line x1="465.61" y1="1" x2="188.61" y2="1" style="fill:none;stroke:#1b75bb;stroke-linecap:square;stroke-miterlimit:10;stroke-width:2px"/><path d="M9.42,68.16H3l-1.46,4H.29L5.64,58H6.78l5.35,14.15H10.89Zm-6-1H9l-2.83-7.7Z" transform="translate(-0.29)" style="fill:#bbbdbf"/><path d="M15.67,72.14h-1.2V58h1.2Z" transform="translate(-0.29)" style="fill:#bbbdbf"/><path d="M46.49,68.16H40.07l-1.46,4H37.36L42.71,58h1.14L49.2,72.14H48Zm-6.05-1h5.67l-2.83-7.7Z" transform="translate(-0.29)" style="fill:#bbbdbf"/><path d="M57.66,70.81a3.78,3.78,0,0,1-3.35,1.52,3.21,3.21,0,0,1-2.55-1,4.27,4.27,0,0,1-.9-2.89V61.63H52v6.69q0,3,2.43,3a3,3,0,0,0,3.19-2.09v-7.6h1.17V72.14H57.68Z" transform="translate(-0.29)" style="fill:#bbbdbf"/><path d="M63.64,58.94v2.69h2.17v.95H63.64v7a2.19,2.19,0,0,0,.31,1.3,1.21,1.21,0,0,0,1.06.43,6.63,6.63,0,0,0,.94-.1l0,1a3.83,3.83,0,0,1-1.25.16A2.07,2.07,0,0,1,63,71.64a3.25,3.25,0,0,1-.55-2v-7H60.54v-.95h1.93V58.94Z" transform="translate(-0.29)" style="fill:#bbbdbf"/><path d="M67.39,66.73A6.21,6.21,0,0,1,68,64a4.52,4.52,0,0,1,1.67-1.89,4.45,4.45,0,0,1,2.43-.68,4.33,4.33,0,0,1,3.4,1.47,5.66,5.66,0,0,1,1.3,3.9v.25a6.26,6.26,0,0,1-.59,2.74,4.39,4.39,0,0,1-1.65,1.88,4.58,4.58,0,0,1-2.44.66,4.34,4.34,0,0,1-3.4-1.47,5.66,5.66,0,0,1-1.3-3.9Zm1.16.32a4.78,4.78,0,0,0,1,3.09,3.3,3.3,0,0,0,5.11,0,4.93,4.93,0,0,0,1-3.19v-.22a5.32,5.32,0,0,0-.44-2.21A3.61,3.61,0,0,0,73.91,63a3.22,3.22,0,0,0-1.84-.55,3.13,3.13,0,0,0-2.54,1.22,5,5,0,0,0-1,3.19Z" transform="translate(-0.29)" style="fill:#bbbdbf"/><path d="M85.48,71.13h7v1H84.28V58h1.2Z" transform="translate(-0.29)" style="fill:#bbbdbf"/><path d="M101.12,72.14a5.71,5.71,0,0,1-.22-1.47,4.11,4.11,0,0,1-1.56,1.23,4.75,4.75,0,0,1-2,.43,3.54,3.54,0,0,1-2.45-.84,2.79,2.79,0,0,1-.94-2.14,2.83,2.83,0,0,1,1.28-2.43A6.11,6.11,0,0,1,98.78,66h2.11v-1.2a2.3,2.3,0,0,0-.69-1.77,2.89,2.89,0,0,0-2-.65,3.14,3.14,0,0,0-2,.63,1.84,1.84,0,0,0-.8,1.49H94.2a2.72,2.72,0,0,1,1.16-2.17,4.53,4.53,0,0,1,2.87-.92,4.06,4.06,0,0,1,2.77.88,3.15,3.15,0,0,1,1,2.45v5a6.06,6.06,0,0,0,.32,2.28v.12Zm-3.65-.84a3.93,3.93,0,0,0,2.08-.56,3.31,3.31,0,0,0,1.34-1.51V66.92H98.81a5.2,5.2,0,0,0-2.72.64,1.91,1.91,0,0,0-1,1.69,1.88,1.88,0,0,0,.66,1.47A2.44,2.44,0,0,0,97.47,71.3Z" transform="translate(-0.29)" style="fill:#bbbdbf"/><path d="M108.33,70.47l3.07-8.84h1.25l-4.48,12.29-.24.55a2.81,2.81,0,0,1-2.67,1.91,3.19,3.19,0,0,1-.89-.13v-1l.6.06a2.14,2.14,0,0,0,1.38-.42,3.12,3.12,0,0,0,.9-1.45l.52-1.42-4-10.42h1.28Z" transform="translate(-0.29)" style="fill:#bbbdbf"/><path d="M113.66,66.73a6.21,6.21,0,0,1,.59-2.73,4.43,4.43,0,0,1,4.1-2.57,4.34,4.34,0,0,1,3.4,1.47,5.7,5.7,0,0,1,1.3,3.9v.25a6.26,6.26,0,0,1-.59,2.74,4.35,4.35,0,0,1-1.66,1.88,4.52,4.52,0,0,1-2.43.66,4.33,4.33,0,0,1-3.4-1.47,5.66,5.66,0,0,1-1.31-3.9Zm1.17.32a4.73,4.73,0,0,0,1,3.09,3.3,3.3,0,0,0,5.11,0,4.93,4.93,0,0,0,1-3.19v-.22a5.32,5.32,0,0,0-.45-2.21A3.52,3.52,0,0,0,120.19,63a3.24,3.24,0,0,0-1.84-.55,3.11,3.11,0,0,0-2.54,1.22,5,5,0,0,0-1,3.19Z" transform="translate(-0.29)" style="fill:#bbbdbf"/><path d="M132.21,70.81a3.79,3.79,0,0,1-3.35,1.52,3.23,3.23,0,0,1-2.56-1,4.27,4.27,0,0,1-.89-2.89V61.63h1.15v6.69q0,3,2.43,3a3,3,0,0,0,3.2-2.09v-7.6h1.16V72.14h-1.12Z" transform="translate(-0.29)" style="fill:#bbbdbf"/><path d="M138.18,58.94v2.69h2.18v.95h-2.18v7a2.18,2.18,0,0,0,.32,1.3,1.21,1.21,0,0,0,1.05.43,6.36,6.36,0,0,0,.94-.1l0,1a3.77,3.77,0,0,1-1.24.16,2.07,2.07,0,0,1-1.74-.69,3.32,3.32,0,0,1-.54-2v-7h-1.94v-.95H137V58.94Z" transform="translate(-0.29)" style="fill:#bbbdbf"/><path d="M162.39,72.14V58h4a6.14,6.14,0,0,1,3.12.8,5.4,5.4,0,0,1,2.15,2.26,7.12,7.12,0,0,1,.78,3.36v1.31a7.17,7.17,0,0,1-.77,3.36,5.48,5.48,0,0,1-2.16,2.26,6.36,6.36,0,0,1-3.2.8ZM163.58,59V71.13h2.69a4.62,4.62,0,0,0,3.58-1.49,5.71,5.71,0,0,0,1.35-4V64.39a5.58,5.58,0,0,0-1.33-3.91A4.56,4.56,0,0,0,166.36,59Z" transform="translate(-0.29)" style="fill:#bbbdbf"/><path d="M179.21,72.33a4.52,4.52,0,0,1-4.11-2.5,5.77,5.77,0,0,1-.6-2.65v-.42a6.14,6.14,0,0,1,.59-2.72,4.65,4.65,0,0,1,1.64-1.91,4,4,0,0,1,2.27-.7,3.81,3.81,0,0,1,3,1.31,5.34,5.34,0,0,1,1.12,3.57V67h-7.5v.22a4.42,4.42,0,0,0,1,3,3.29,3.29,0,0,0,2.58,1.19,3.77,3.77,0,0,0,1.65-.34,3.67,3.67,0,0,0,1.3-1.09l.72.56A4.24,4.24,0,0,1,179.21,72.33ZM179,62.42a2.92,2.92,0,0,0-2.21,1A4.49,4.49,0,0,0,175.7,66H182v-.13a3.83,3.83,0,0,0-.86-2.46A2.68,2.68,0,0,0,179,62.42Z" transform="translate(-0.29)" style="fill:#bbbdbf"/><path d="M189.49,72.33a4.56,4.56,0,0,1-2.42-.66,4.49,4.49,0,0,1-1.69-1.84,5.77,5.77,0,0,1-.6-2.65v-.42a6.14,6.14,0,0,1,.59-2.72A4.7,4.7,0,0,1,187,62.13a4,4,0,0,1,2.28-.7,3.79,3.79,0,0,1,3,1.31,5.29,5.29,0,0,1,1.13,3.57V67h-7.5v.22a4.42,4.42,0,0,0,1,3,3.26,3.26,0,0,0,2.58,1.19,3.77,3.77,0,0,0,1.65-.34,3.64,3.64,0,0,0,1.29-1.09l.73.56A4.24,4.24,0,0,1,189.49,72.33Zm-.21-9.91a2.9,2.9,0,0,0-2.21,1A4.42,4.42,0,0,0,186,66h6.3v-.13a3.83,3.83,0,0,0-.86-2.46A2.68,2.68,0,0,0,189.28,62.42Z" transform="translate(-0.29)" style="fill:#bbbdbf"/><path d="M204.15,67a6.29,6.29,0,0,1-1.09,3.9,3.45,3.45,0,0,1-2.91,1.44,3.87,3.87,0,0,1-3.3-1.51v5.36h-1.16V61.63h1.08l.06,1.48a3.71,3.71,0,0,1,3.29-1.68,3.51,3.51,0,0,1,3,1.43,6.49,6.49,0,0,1,1.07,4ZM203,66.78a5.37,5.37,0,0,0-.82-3.17,2.66,2.66,0,0,0-2.3-1.17A3.16,3.16,0,0,0,198,63a3.21,3.21,0,0,0-1.17,1.49v5A2.94,2.94,0,0,0,198,70.87a3.43,3.43,0,0,0,1.84.48,2.63,2.63,0,0,0,2.28-1.17A5.87,5.87,0,0,0,203,66.78Z" transform="translate(-0.29)" style="fill:#bbbdbf"/><path d="M213,71.13h7v1h-8.19V58H213Z" transform="translate(-0.29)" style="fill:#bbbdbf"/><path d="M222,58.59a.77.77,0,0,1,.21-.55.73.73,0,0,1,.58-.23.75.75,0,0,1,.59.23.8.8,0,0,1,0,1.1.78.78,0,0,1-.59.22.76.76,0,0,1-.58-.22A.77.77,0,0,1,222,58.59Zm1.36,13.55h-1.16V61.63h1.16Z" transform="translate(-0.29)" style="fill:#bbbdbf"/><path d="M227.61,61.63l0,1.79a4.25,4.25,0,0,1,1.47-1.48,3.87,3.87,0,0,1,2-.51,3.16,3.16,0,0,1,2.51,1,4.34,4.34,0,0,1,.84,2.86v6.9h-1.16V65.23a3.19,3.19,0,0,0-.59-2.1,2.35,2.35,0,0,0-1.88-.69,2.94,2.94,0,0,0-1.91.68,3.84,3.84,0,0,0-1.23,1.82v7.2H226.5V61.63Z" transform="translate(-0.29)" style="fill:#bbbdbf"/><path d="M239.93,66.84l-1.33,1.28v4h-1.17V57.22h1.17v9.54l1.09-1.18,4-3.95h1.46l-4.46,4.43,4.85,6.08h-1.39Z" transform="translate(-0.29)" style="fill:#bbbdbf"/><path d="M253.47,69.47a1.64,1.64,0,0,0-.7-1.39,5.22,5.22,0,0,0-2.09-.82,9.82,9.82,0,0,1-2.17-.68,2.91,2.91,0,0,1-1.15-.94A2.34,2.34,0,0,1,247,64.3a2.52,2.52,0,0,1,1-2.06,4.19,4.19,0,0,1,2.66-.81,4.32,4.32,0,0,1,2.82.87,2.8,2.8,0,0,1,1.07,2.27h-1.17a1.87,1.87,0,0,0-.77-1.53,3.47,3.47,0,0,0-3.79-.11,1.59,1.59,0,0,0-.7,1.33,1.46,1.46,0,0,0,.58,1.22,6.14,6.14,0,0,0,2.11.79,9.54,9.54,0,0,1,2.29.77,2.9,2.9,0,0,1,1.13,1,2.46,2.46,0,0,1,.37,1.39,2.5,2.5,0,0,1-1.07,2.12,4.53,4.53,0,0,1-2.8.8,4.66,4.66,0,0,1-3-.89,2.73,2.73,0,0,1-1.14-2.25h1.17a2,2,0,0,0,.85,1.59,3.53,3.53,0,0,0,2.1.57,3.34,3.34,0,0,0,2-.53A1.61,1.61,0,0,0,253.47,69.47Z" transform="translate(-0.29)" style="fill:#bbbdbf"/><path d="M276.87,72.14V58h3.95a6.14,6.14,0,0,1,3.12.8,5.4,5.4,0,0,1,2.15,2.26,7.12,7.12,0,0,1,.78,3.36v1.31a7.17,7.17,0,0,1-.77,3.36,5.48,5.48,0,0,1-2.16,2.26,6.36,6.36,0,0,1-3.2.8ZM278.06,59V71.13h2.69a4.62,4.62,0,0,0,3.58-1.49,5.71,5.71,0,0,0,1.35-4V64.39a5.58,5.58,0,0,0-1.33-3.91A4.56,4.56,0,0,0,280.84,59Z" transform="translate(-0.29)" style="fill:#bbbdbf"/><path d="M293.69,72.33a4.52,4.52,0,0,1-4.11-2.5,5.77,5.77,0,0,1-.6-2.65v-.42a6.14,6.14,0,0,1,.59-2.72,4.65,4.65,0,0,1,1.64-1.91,4,4,0,0,1,2.27-.7,3.81,3.81,0,0,1,3,1.31,5.34,5.34,0,0,1,1.12,3.57V67h-7.5v.22a4.42,4.42,0,0,0,1,3,3.29,3.29,0,0,0,2.58,1.19,3.77,3.77,0,0,0,1.65-.34,3.67,3.67,0,0,0,1.3-1.09l.72.56A4.24,4.24,0,0,1,293.69,72.33Zm-.21-9.91a2.92,2.92,0,0,0-2.21,1A4.49,4.49,0,0,0,290.18,66h6.3v-.13a3.83,3.83,0,0,0-.86-2.46A2.68,2.68,0,0,0,293.48,62.42Z" transform="translate(-0.29)" style="fill:#bbbdbf"/><path d="M308.35,67a6.29,6.29,0,0,1-1.09,3.9,3.45,3.45,0,0,1-2.91,1.44,3.87,3.87,0,0,1-3.3-1.51v5.36h-1.16V61.63H301l.06,1.48a3.72,3.72,0,0,1,3.29-1.68,3.51,3.51,0,0,1,3,1.43,6.43,6.43,0,0,1,1.07,4Zm-1.16-.21a5.37,5.37,0,0,0-.83-3.17,2.66,2.66,0,0,0-2.3-1.17,3.07,3.07,0,0,0-3,2v5a3,3,0,0,0,1.19,1.38,3.43,3.43,0,0,0,1.84.48,2.64,2.64,0,0,0,2.29-1.17A5.94,5.94,0,0,0,307.19,66.78Z" transform="translate(-0.29)" style="fill:#bbbdbf"/><path d="M315,72.33a4.59,4.59,0,0,1-2.43-.66,4.47,4.47,0,0,1-1.68-1.84,5.77,5.77,0,0,1-.6-2.65v-.42a6.14,6.14,0,0,1,.58-2.72,4.72,4.72,0,0,1,1.64-1.91,4,4,0,0,1,2.27-.7,3.81,3.81,0,0,1,3,1.31,5.29,5.29,0,0,1,1.12,3.57V67h-7.5v.22a4.37,4.37,0,0,0,1,3,3.26,3.26,0,0,0,2.58,1.19A3.45,3.45,0,0,0,318,69.92l.73.56A4.26,4.26,0,0,1,315,72.33Zm-.22-9.91a2.92,2.92,0,0,0-2.21,1A4.49,4.49,0,0,0,311.48,66h6.31v-.13a3.9,3.9,0,0,0-.87-2.46A2.67,2.67,0,0,0,314.78,62.42Z" transform="translate(-0.29)" style="fill:#bbbdbf"/><path d="M322.31,61.63l0,1.79a4.28,4.28,0,0,1,1.48-1.48,3.84,3.84,0,0,1,1.95-.51,3.17,3.17,0,0,1,2.52,1,4.34,4.34,0,0,1,.83,2.86v6.9H328V65.23a3.25,3.25,0,0,0-.6-2.1,2.34,2.34,0,0,0-1.88-.69,2.94,2.94,0,0,0-1.91.68,4,4,0,0,0-1.23,1.82v7.2H321.2V61.63Z" transform="translate(-0.29)" style="fill:#bbbdbf"/><path d="M331.67,66.78a6.33,6.33,0,0,1,1.09-3.9,3.54,3.54,0,0,1,3-1.45A3.64,3.64,0,0,1,339,63.11V57.22h1.16V72.14H339l-.05-1.4a3.75,3.75,0,0,1-3.28,1.59,3.52,3.52,0,0,1-2.93-1.46,6.39,6.39,0,0,1-1.11-4Zm1.17.21a5.45,5.45,0,0,0,.81,3.17,2.61,2.61,0,0,0,2.27,1.16A3.13,3.13,0,0,0,339,69.43V64.49a3.1,3.1,0,0,0-3-2,2.64,2.64,0,0,0-2.28,1.15A5.82,5.82,0,0,0,332.84,67Z" transform="translate(-0.29)" style="fill:#bbbdbf"/><path d="M347.26,72.33a4.59,4.59,0,0,1-2.43-.66,4.47,4.47,0,0,1-1.68-1.84,5.77,5.77,0,0,1-.6-2.65v-.42a6.14,6.14,0,0,1,.58-2.72,4.72,4.72,0,0,1,1.64-1.91,4,4,0,0,1,2.27-.7,3.81,3.81,0,0,1,3,1.31,5.29,5.29,0,0,1,1.12,3.57V67h-7.5v.22a4.37,4.37,0,0,0,1,3,3.26,3.26,0,0,0,2.58,1.19,3.45,3.45,0,0,0,2.94-1.43l.73.56A4.26,4.26,0,0,1,347.26,72.33ZM347,62.42a2.92,2.92,0,0,0-2.21,1A4.49,4.49,0,0,0,343.74,66h6.31v-.13a3.84,3.84,0,0,0-.87-2.46A2.67,2.67,0,0,0,347,62.42Z" transform="translate(-0.29)" style="fill:#bbbdbf"/><path d="M354.57,61.63l0,1.79a4.28,4.28,0,0,1,1.48-1.48,3.84,3.84,0,0,1,2-.51,3.17,3.17,0,0,1,2.52,1,4.28,4.28,0,0,1,.83,2.86v6.9h-1.16V65.23a3.19,3.19,0,0,0-.59-2.1,2.34,2.34,0,0,0-1.88-.69,2.94,2.94,0,0,0-1.91.68,4,4,0,0,0-1.23,1.82v7.2h-1.15V61.63Z" transform="translate(-0.29)" style="fill:#bbbdbf"/><path d="M368.28,71.35a3.07,3.07,0,0,0,2-.68,2.4,2.4,0,0,0,.89-1.78h1.12a3.29,3.29,0,0,1-.6,1.76,3.77,3.77,0,0,1-1.47,1.23,4.44,4.44,0,0,1-2,.45A4.06,4.06,0,0,1,365,70.89,5.78,5.78,0,0,1,363.79,67v-.35a6.58,6.58,0,0,1,.54-2.75,4.11,4.11,0,0,1,3.94-2.5,4.09,4.09,0,0,1,2.85,1,3.75,3.75,0,0,1,1.2,2.71H371.2a3,3,0,0,0-5.37-1.61,5.15,5.15,0,0,0-.87,3.19v.33a5,5,0,0,0,.87,3.14A2.9,2.9,0,0,0,368.28,71.35Z" transform="translate(-0.29)" style="fill:#bbbdbf"/><path d="M378,70.47,381,61.63h1.26l-4.49,12.29-.24.55a2.81,2.81,0,0,1-2.67,1.91,3.25,3.25,0,0,1-.89-.13v-1l.6.06a2.19,2.19,0,0,0,1.39-.42,3.29,3.29,0,0,0,.9-1.45l.51-1.42-4-10.42h1.27Z" transform="translate(-0.29)" style="fill:#bbbdbf"/><path d="M398.41,59h-4.85V72.14h-1.19V59h-4.84V58h10.88Z" transform="translate(-0.29)" style="fill:#bbbdbf"/><path d="M406,72.14a5.3,5.3,0,0,1-.22-1.47,4.11,4.11,0,0,1-1.56,1.23,4.75,4.75,0,0,1-2,.43,3.52,3.52,0,0,1-2.45-.84,2.76,2.76,0,0,1-.94-2.14,2.83,2.83,0,0,1,1.28-2.43,6.11,6.11,0,0,1,3.56-.89h2.11v-1.2a2.31,2.31,0,0,0-.7-1.77,2.87,2.87,0,0,0-2-.65,3.14,3.14,0,0,0-2,.63,1.82,1.82,0,0,0-.8,1.49H399a2.7,2.7,0,0,1,1.17-2.17,4.5,4.5,0,0,1,2.86-.92,4.08,4.08,0,0,1,2.78.88,3.17,3.17,0,0,1,1,2.45v5A6.28,6.28,0,0,0,407.2,72v.12Zm-3.65-.84a4,4,0,0,0,2.08-.56,3.37,3.37,0,0,0,1.34-1.51V66.92h-2.08a5.18,5.18,0,0,0-2.72.64,2,2,0,0,0-.33,3.16A2.48,2.48,0,0,0,402.31,71.3Z" transform="translate(-0.29)" style="fill:#bbbdbf"/><path d="M418.44,67a6.29,6.29,0,0,1-1.09,3.9,3.47,3.47,0,0,1-2.92,1.44,3.77,3.77,0,0,1-3.32-1.63l-.05,1.44H410V57.22h1.16v5.93a3.64,3.64,0,0,1,3.28-1.72,3.51,3.51,0,0,1,2.95,1.43,6.37,6.37,0,0,1,1.08,4Zm-1.16-.21a5.48,5.48,0,0,0-.81-3.21,2.64,2.64,0,0,0-2.27-1.13,3.18,3.18,0,0,0-1.9.55,3.29,3.29,0,0,0-1.17,1.61v4.74a3.11,3.11,0,0,0,3.09,2,2.63,2.63,0,0,0,2.25-1.14A5.84,5.84,0,0,0,417.28,66.78Z" transform="translate(-0.29)" style="fill:#bbbdbf"/><path d="M422.31,72.14h-1.17V57.22h1.17Z" transform="translate(-0.29)" style="fill:#bbbdbf"/><path d="M429.54,72.33a4.57,4.57,0,0,1-2.43-.66,4.47,4.47,0,0,1-1.68-1.84,5.65,5.65,0,0,1-.61-2.65v-.42a6.14,6.14,0,0,1,.59-2.72,4.65,4.65,0,0,1,1.64-1.91,4,4,0,0,1,2.27-.7,3.81,3.81,0,0,1,3,1.31,5.34,5.34,0,0,1,1.12,3.57V67H426v.22a4.42,4.42,0,0,0,1,3,3.29,3.29,0,0,0,2.58,1.19,3.74,3.74,0,0,0,1.65-.34,3.67,3.67,0,0,0,1.3-1.09l.73.56A4.26,4.26,0,0,1,429.54,72.33Zm-.22-9.91a2.92,2.92,0,0,0-2.21,1A4.49,4.49,0,0,0,426,66h6.3v-.13a3.83,3.83,0,0,0-.86-2.46A2.68,2.68,0,0,0,429.32,62.42Z" transform="translate(-0.29)" style="fill:#bbbdbf"/><path d="M455.36,72.14V58h4a6.14,6.14,0,0,1,3.12.8,5.46,5.46,0,0,1,2.15,2.26,7.23,7.23,0,0,1,.77,3.36v1.31a7.17,7.17,0,0,1-.77,3.36,5.48,5.48,0,0,1-2.16,2.26,6.33,6.33,0,0,1-3.2.8ZM456.56,59V71.13h2.68a4.63,4.63,0,0,0,3.59-1.49,5.71,5.71,0,0,0,1.35-4V64.39a5.63,5.63,0,0,0-1.33-3.91A4.56,4.56,0,0,0,459.34,59Z" transform="translate(-0.29)" style="fill:#bbbdbf"/><path d="M468.05,58.59a.74.74,0,0,1,.22-.55.72.72,0,0,1,.58-.23.79.79,0,0,1,.59,1.33.8.8,0,0,1-.59.22.75.75,0,0,1-.58-.22A.74.74,0,0,1,468.05,58.59Zm1.37,13.55h-1.16V61.63h1.16Z" transform="translate(-0.29)" style="fill:#bbbdbf"/><path d="M479.21,72.14a5.71,5.71,0,0,1-.22-1.47,4.11,4.11,0,0,1-1.56,1.23,4.75,4.75,0,0,1-2,.43,3.54,3.54,0,0,1-2.45-.84,2.79,2.79,0,0,1-.94-2.14,2.83,2.83,0,0,1,1.28-2.43,6.11,6.11,0,0,1,3.56-.89H479v-1.2a2.3,2.3,0,0,0-.69-1.77,2.89,2.89,0,0,0-2-.65,3.14,3.14,0,0,0-2,.63,1.84,1.84,0,0,0-.8,1.49h-1.16a2.72,2.72,0,0,1,1.16-2.17,4.53,4.53,0,0,1,2.87-.92,4.07,4.07,0,0,1,2.77.88,3.15,3.15,0,0,1,1.05,2.45v5a6.06,6.06,0,0,0,.32,2.28v.12Zm-3.65-.84a3.93,3.93,0,0,0,2.08-.56A3.31,3.31,0,0,0,479,69.23V66.92H476.9a5.2,5.2,0,0,0-2.72.64,1.91,1.91,0,0,0-1,1.69,1.88,1.88,0,0,0,.66,1.47A2.44,2.44,0,0,0,475.56,71.3Z" transform="translate(-0.29)" style="fill:#bbbdbf"/><path d="M482.77,66.78a6.29,6.29,0,0,1,1.09-3.9,3.52,3.52,0,0,1,3-1.45,3.64,3.64,0,0,1,3.26,1.71l.06-1.51h1.09V71.92a4.44,4.44,0,0,1-1.14,3.22A4,4,0,0,1,487,76.32a4.62,4.62,0,0,1-2.09-.49,4,4,0,0,1-1.57-1.3l.65-.7A3.68,3.68,0,0,0,487,75.34a3,3,0,0,0,2.27-.86,3.44,3.44,0,0,0,.84-2.38V70.78a3.76,3.76,0,0,1-3.25,1.55,3.47,3.47,0,0,1-2.93-1.46,6.33,6.33,0,0,1-1.11-3.93Zm1.17.21a5.45,5.45,0,0,0,.81,3.17A2.62,2.62,0,0,0,487,71.32a3.1,3.1,0,0,0,3-1.92V64.51A3.31,3.31,0,0,0,488.89,63a3.2,3.2,0,0,0-1.85-.53,2.64,2.64,0,0,0-2.28,1.15A5.9,5.9,0,0,0,483.94,67Z" transform="translate(-0.29)" style="fill:#bbbdbf"/><path d="M499.13,62.62a4,4,0,0,0-.79-.07,2.8,2.8,0,0,0-1.84.61,3.29,3.29,0,0,0-1.07,1.76v7.22h-1.16V61.63h1.14l0,1.67a3.08,3.08,0,0,1,3-1.87,1.84,1.84,0,0,1,.77.13Z" transform="translate(-0.29)" style="fill:#bbbdbf"/><path d="M507.21,72.14a5.63,5.63,0,0,1-.23-1.47,4,4,0,0,1-1.55,1.23,4.78,4.78,0,0,1-2,.43,3.52,3.52,0,0,1-2.45-.84,2.76,2.76,0,0,1-.94-2.14,2.83,2.83,0,0,1,1.28-2.43,6.11,6.11,0,0,1,3.56-.89H507v-1.2a2.31,2.31,0,0,0-.7-1.77,2.87,2.87,0,0,0-2-.65,3.16,3.16,0,0,0-2,.63,1.83,1.83,0,0,0-.79,1.49h-1.17a2.7,2.7,0,0,1,1.17-2.17,4.5,4.5,0,0,1,2.86-.92,4.08,4.08,0,0,1,2.78.88,3.17,3.17,0,0,1,1,2.45v5a6.28,6.28,0,0,0,.32,2.28v.12Zm-3.65-.84a4,4,0,0,0,2.08-.56A3.37,3.37,0,0,0,507,69.23V66.92H504.9a5.18,5.18,0,0,0-2.72.64,2,2,0,0,0-.33,3.16A2.48,2.48,0,0,0,503.56,71.3Z" transform="translate(-0.29)" style="fill:#bbbdbf"/><path d="M512.29,61.63l0,1.71a3.77,3.77,0,0,1,1.46-1.43,4,4,0,0,1,1.94-.48,3,3,0,0,1,3.16,2,3.89,3.89,0,0,1,1.5-1.51,4.21,4.21,0,0,1,2.08-.53q3.38,0,3.45,3.69v7h-1.17V65.21a3.16,3.16,0,0,0-.6-2.09,2.49,2.49,0,0,0-1.95-.68,3.17,3.17,0,0,0-2.12.81,2.83,2.83,0,0,0-1,1.93v7H518v-7a2.86,2.86,0,0,0-.63-2,2.51,2.51,0,0,0-1.93-.67,3,3,0,0,0-1.89.63,3.7,3.7,0,0,0-1.16,1.86v7.21h-1.17V61.63Z" transform="translate(-0.29)" style="fill:#bbbdbf"/><path d="M535.16,69.47a1.67,1.67,0,0,0-.7-1.39,5.22,5.22,0,0,0-2.09-.82,9.82,9.82,0,0,1-2.17-.68,2.91,2.91,0,0,1-1.15-.94,2.34,2.34,0,0,1-.37-1.34,2.49,2.49,0,0,1,1-2.06,4.19,4.19,0,0,1,2.66-.81,4.32,4.32,0,0,1,2.82.87,2.79,2.79,0,0,1,1.06,2.27H535.1a1.87,1.87,0,0,0-.77-1.53,3.05,3.05,0,0,0-2-.62,3,3,0,0,0-1.84.51,1.56,1.56,0,0,0-.7,1.33,1.46,1.46,0,0,0,.58,1.22,6.14,6.14,0,0,0,2.11.79,9.54,9.54,0,0,1,2.29.77A2.9,2.9,0,0,1,536,68a2.46,2.46,0,0,1,.37,1.39,2.52,2.52,0,0,1-1.07,2.12,4.53,4.53,0,0,1-2.8.8,4.66,4.66,0,0,1-3-.89,2.73,2.73,0,0,1-1.14-2.25h1.16a2,2,0,0,0,.86,1.59,3.53,3.53,0,0,0,2.1.57,3.34,3.34,0,0,0,2-.53A1.61,1.61,0,0,0,535.16,69.47Z" transform="translate(-0.29)" style="fill:#bbbdbf"/><path d="M554.5,65.83a8.17,8.17,0,0,1-.68,3.43,5.08,5.08,0,0,1-1.93,2.27,5.19,5.19,0,0,1-2.89.8,5,5,0,0,1-4-1.77,7.08,7.08,0,0,1-1.53-4.79V64.32a8.11,8.11,0,0,1,.69-3.43,5.2,5.2,0,0,1,1.93-2.29,5.3,5.3,0,0,1,2.89-.8,5.12,5.12,0,0,1,4.81,3,8.07,8.07,0,0,1,.71,3.33Zm-1.2-1.53a6.27,6.27,0,0,0-1.15-4A3.85,3.85,0,0,0,549,58.85a3.81,3.81,0,0,0-3.14,1.45,6.31,6.31,0,0,0-1.17,4.06v1.47a6.29,6.29,0,0,0,1.16,4,4.17,4.17,0,0,0,6.34,0,6.48,6.48,0,0,0,1.13-4Z" transform="translate(-0.29)" style="fill:#bbbdbf"/><path d="M562.09,62.62a3.9,3.9,0,0,0-.78-.07,2.8,2.8,0,0,0-1.84.61,3.24,3.24,0,0,0-1.08,1.76v7.22h-1.15V61.63h1.13l0,1.67a3.09,3.09,0,0,1,3-1.87,1.81,1.81,0,0,1,.77.13Z" transform="translate(-0.29)" style="fill:#bbbdbf"/><path d="M563.28,66.78a6.29,6.29,0,0,1,1.09-3.9,3.52,3.52,0,0,1,3-1.45,3.64,3.64,0,0,1,3.26,1.71l.06-1.51h1.09V71.92a4.44,4.44,0,0,1-1.14,3.22,4.06,4.06,0,0,1-3.08,1.18,4.62,4.62,0,0,1-2.09-.49,4,4,0,0,1-1.57-1.3l.65-.7a3.68,3.68,0,0,0,2.94,1.51,3,3,0,0,0,2.27-.86,3.44,3.44,0,0,0,.84-2.38V70.78a3.76,3.76,0,0,1-3.25,1.55,3.47,3.47,0,0,1-2.93-1.46,6.33,6.33,0,0,1-1.11-3.93Zm1.17.21a5.45,5.45,0,0,0,.81,3.17,2.62,2.62,0,0,0,2.27,1.16,3.1,3.1,0,0,0,3-1.92V64.51A3.31,3.31,0,0,0,569.4,63a3.2,3.2,0,0,0-1.85-.53,2.64,2.64,0,0,0-2.28,1.15A5.9,5.9,0,0,0,564.45,67Z" transform="translate(-0.29)" style="fill:#bbbdbf"/><path d="M581.41,72.14a5.71,5.71,0,0,1-.22-1.47,4.11,4.11,0,0,1-1.56,1.23,4.73,4.73,0,0,1-2,.43,3.56,3.56,0,0,1-2.46-.84,2.78,2.78,0,0,1-.93-2.14,2.82,2.82,0,0,1,1.27-2.43,6.11,6.11,0,0,1,3.56-.89h2.11v-1.2a2.3,2.3,0,0,0-.69-1.77,2.89,2.89,0,0,0-2-.65,3.14,3.14,0,0,0-2,.63,1.84,1.84,0,0,0-.8,1.49h-1.16a2.72,2.72,0,0,1,1.16-2.17,4.53,4.53,0,0,1,2.87-.92,4.06,4.06,0,0,1,2.77.88,3.15,3.15,0,0,1,1.05,2.45v5a6.06,6.06,0,0,0,.32,2.28v.12Zm-3.65-.84a4,4,0,0,0,2.09-.56,3.35,3.35,0,0,0,1.33-1.51V66.92H579.1a5.2,5.2,0,0,0-2.72.64,1.91,1.91,0,0,0-1,1.69,1.88,1.88,0,0,0,.66,1.47A2.44,2.44,0,0,0,577.76,71.3Z" transform="translate(-0.29)" style="fill:#bbbdbf"/><path d="M586.54,61.63l0,1.79a4.28,4.28,0,0,1,1.48-1.48,3.84,3.84,0,0,1,2-.51,3.17,3.17,0,0,1,2.52,1,4.28,4.28,0,0,1,.83,2.86v6.9h-1.15V65.23a3.25,3.25,0,0,0-.6-2.1,2.34,2.34,0,0,0-1.88-.69,2.94,2.94,0,0,0-1.91.68,4,4,0,0,0-1.23,1.82v7.2h-1.15V61.63Z" transform="translate(-0.29)" style="fill:#bbbdbf"/><path d="M596.3,58.59a.77.77,0,0,1,.21-.55.73.73,0,0,1,.58-.23.75.75,0,0,1,.59.23.8.8,0,0,1,0,1.1.78.78,0,0,1-.59.22.76.76,0,0,1-.58-.22A.77.77,0,0,1,596.3,58.59Zm1.37,13.55H596.5V61.63h1.17Z" transform="translate(-0.29)" style="fill:#bbbdbf"/><path d="M601.59,71.16h6.83v1h-8.27v-.86l6.37-8.64h-6.17v-1H608v.87Z" transform="translate(-0.29)" style="fill:#bbbdbf"/><path d="M617.13,72.14a5.71,5.71,0,0,1-.22-1.47,4.11,4.11,0,0,1-1.56,1.23,4.75,4.75,0,0,1-2,.43,3.54,3.54,0,0,1-2.45-.84,2.79,2.79,0,0,1-.94-2.14,2.83,2.83,0,0,1,1.28-2.43,6.11,6.11,0,0,1,3.56-.89h2.11v-1.2a2.3,2.3,0,0,0-.69-1.77,2.89,2.89,0,0,0-2-.65,3.14,3.14,0,0,0-2,.63,1.84,1.84,0,0,0-.8,1.49h-1.16a2.72,2.72,0,0,1,1.16-2.17,4.51,4.51,0,0,1,2.87-.92,4.07,4.07,0,0,1,2.77.88,3.15,3.15,0,0,1,1,2.45v5a6.06,6.06,0,0,0,.32,2.28v.12Zm-3.65-.84a3.93,3.93,0,0,0,2.08-.56,3.31,3.31,0,0,0,1.34-1.51V66.92h-2.08a5.2,5.2,0,0,0-2.72.64,1.91,1.91,0,0,0-1,1.69,1.88,1.88,0,0,0,.66,1.47A2.44,2.44,0,0,0,613.48,71.3Z" transform="translate(-0.29)" style="fill:#bbbdbf"/><path d="M623,58.94v2.69h2.18v.95H623v7a2.18,2.18,0,0,0,.32,1.3,1.21,1.21,0,0,0,1.05.43,6.49,6.49,0,0,0,.94-.1l.05,1a3.77,3.77,0,0,1-1.24.16,2.07,2.07,0,0,1-1.74-.69,3.32,3.32,0,0,1-.54-2v-7h-1.94v-.95h1.94V58.94Z" transform="translate(-0.29)" style="fill:#bbbdbf"/><path d="M627.48,58.59a.77.77,0,0,1,.21-.55.73.73,0,0,1,.58-.23.79.79,0,0,1,.59,1.33.77.77,0,0,1-.59.22.76.76,0,0,1-.58-.22A.77.77,0,0,1,627.48,58.59Zm1.37,13.55h-1.17V61.63h1.17Z" transform="translate(-0.29)" style="fill:#bbbdbf"/><path d="M631.36,66.73A6.21,6.21,0,0,1,632,64a4.43,4.43,0,0,1,4.1-2.57,4.34,4.34,0,0,1,3.4,1.47,5.7,5.7,0,0,1,1.3,3.9v.25a6.26,6.26,0,0,1-.59,2.74,4.35,4.35,0,0,1-1.66,1.88,4.52,4.52,0,0,1-2.43.66,4.33,4.33,0,0,1-3.4-1.47,5.66,5.66,0,0,1-1.31-3.9Zm1.17.32a4.73,4.73,0,0,0,1,3.09,3.3,3.3,0,0,0,5.11,0,4.93,4.93,0,0,0,1-3.19v-.22a5.48,5.48,0,0,0-.44-2.21A3.61,3.61,0,0,0,637.89,63a3.24,3.24,0,0,0-1.84-.55,3.11,3.11,0,0,0-2.54,1.22,5,5,0,0,0-1,3.19Z" transform="translate(-0.29)" style="fill:#bbbdbf"/><path d="M644.25,61.63l0,1.79a4.28,4.28,0,0,1,1.48-1.48,3.84,3.84,0,0,1,2-.51,3.17,3.17,0,0,1,2.52,1,4.28,4.28,0,0,1,.83,2.86v6.9h-1.15V65.23a3.25,3.25,0,0,0-.6-2.1,2.34,2.34,0,0,0-1.88-.69,3,3,0,0,0-1.91.68,4,4,0,0,0-1.23,1.82v7.2h-1.15V61.63Z" transform="translate(-0.29)" style="fill:#bbbdbf"/><path d="M24.45,107.59H17.83v5.77h7.61v1h-8.8V100.23h8.75v1H17.83v5.34h6.62Z" transform="translate(-0.29)" style="fill:#bbbdbf"/><path d="M31,108.13l2.83-4.27H35.2L31.64,109l3.72,5.35H34l-3-4.45-3,4.45H26.64L30.35,109l-3.57-5.16h1.37Z" transform="translate(-0.29)" style="fill:#bbbdbf"/><path d="M45.81,109.22a6.29,6.29,0,0,1-1.09,3.9,3.43,3.43,0,0,1-2.91,1.45,3.88,3.88,0,0,1-3.3-1.52v5.36H37.35V103.86h1.08l.06,1.49a3.71,3.71,0,0,1,3.29-1.68,3.48,3.48,0,0,1,3,1.43,6.49,6.49,0,0,1,1.07,4Zm-1.16-.2a5.43,5.43,0,0,0-.83-3.18,2.68,2.68,0,0,0-2.3-1.16,3.26,3.26,0,0,0-1.84.51,3.29,3.29,0,0,0-1.17,1.5v5a3,3,0,0,0,1.19,1.38,3.43,3.43,0,0,0,1.84.48,2.61,2.61,0,0,0,2.28-1.17A5.88,5.88,0,0,0,44.65,109Z" transform="translate(-0.29)" style="fill:#bbbdbf"/><path d="M47.74,109a6.21,6.21,0,0,1,.59-2.73,4.4,4.4,0,0,1,4.1-2.56,4.33,4.33,0,0,1,3.4,1.47,5.7,5.7,0,0,1,1.3,3.9v.24a6.3,6.3,0,0,1-.59,2.75,4.35,4.35,0,0,1-1.66,1.88,4.52,4.52,0,0,1-2.43.66,4.33,4.33,0,0,1-3.4-1.47,5.69,5.69,0,0,1-1.31-3.9Zm1.17.32a4.79,4.79,0,0,0,1,3.1,3.3,3.3,0,0,0,5.11,0,4.93,4.93,0,0,0,1-3.19V109a5.44,5.44,0,0,0-.44-2.2,3.55,3.55,0,0,0-1.26-1.55,3.17,3.17,0,0,0-1.84-.55,3.13,3.13,0,0,0-2.54,1.22,4.94,4.94,0,0,0-1,3.19Z" transform="translate(-0.29)" style="fill:#bbbdbf"/><path d="M64.38,104.85a4.75,4.75,0,0,0-.78-.06,2.85,2.85,0,0,0-1.84.6,3.33,3.33,0,0,0-1.08,1.77v7.21H59.53V103.86h1.13l0,1.67a3.11,3.11,0,0,1,3-1.86,2,2,0,0,1,.76.12Z" transform="translate(-0.29)" style="fill:#bbbdbf"/><path d="M68.51,101.17v2.69h2.18v1H68.51v7a2.2,2.2,0,0,0,.32,1.3,1.23,1.23,0,0,0,1,.43,8.14,8.14,0,0,0,.94-.1l.05.94a3.73,3.73,0,0,1-1.24.17,2.05,2.05,0,0,1-1.74-.7,3.27,3.27,0,0,1-.54-2v-7H65.41v-1h1.94v-2.69Z" transform="translate(-0.29)" style="fill:#bbbdbf"/><path d="M103.2,114.37H102v-6.78H93.92v6.78h-1.2V100.23h1.2v6.35H102v-6.35h1.2Z" transform="translate(-0.29)" style="fill:#bbbdbf"/><path d="M105.88,109a6.21,6.21,0,0,1,.59-2.73,4.4,4.4,0,0,1,4.09-2.56,4.31,4.31,0,0,1,3.4,1.47,5.66,5.66,0,0,1,1.31,3.9v.24a6.3,6.3,0,0,1-.59,2.75,4.41,4.41,0,0,1-1.66,1.88,4.53,4.53,0,0,1-2.44.66,4.32,4.32,0,0,1-3.39-1.47,5.69,5.69,0,0,1-1.31-3.9Zm1.17.32a4.79,4.79,0,0,0,1,3.1,3.17,3.17,0,0,0,2.56,1.21,3.14,3.14,0,0,0,2.55-1.21,4.88,4.88,0,0,0,1-3.19V109a5.28,5.28,0,0,0-.45-2.2,3.47,3.47,0,0,0-1.25-1.55,3.18,3.18,0,0,0-1.85-.55,3.11,3.11,0,0,0-2.53,1.22,4.94,4.94,0,0,0-1,3.19Z" transform="translate(-0.29)" style="fill:#bbbdbf"/><path d="M117,109a6.21,6.21,0,0,1,.59-2.73,4.4,4.4,0,0,1,4.1-2.56,4.33,4.33,0,0,1,3.4,1.47,5.7,5.7,0,0,1,1.3,3.9v.24a6.3,6.3,0,0,1-.59,2.75,4.35,4.35,0,0,1-1.66,1.88,4.52,4.52,0,0,1-2.43.66,4.33,4.33,0,0,1-3.4-1.47,5.69,5.69,0,0,1-1.31-3.9Zm1.17.32a4.79,4.79,0,0,0,1,3.1,3.3,3.3,0,0,0,5.11,0,4.93,4.93,0,0,0,1-3.19V109a5.44,5.44,0,0,0-.44-2.2,3.55,3.55,0,0,0-1.26-1.55,3.17,3.17,0,0,0-1.84-.55,3.13,3.13,0,0,0-2.54,1.22,4.94,4.94,0,0,0-1,3.19Z" transform="translate(-0.29)" style="fill:#bbbdbf"/><path d="M131.3,109.08,130,110.36v4h-1.16V99.45H130V109l1.1-1.18,4-4h1.47l-4.46,4.43,4.85,6.08h-1.39Z" transform="translate(-0.29)" style="fill:#bbbdbf"/><path d="M144.85,111.7a1.67,1.67,0,0,0-.7-1.39,5.37,5.37,0,0,0-2.09-.82,9.31,9.31,0,0,1-2.17-.68,2.83,2.83,0,0,1-1.15-.94,2.32,2.32,0,0,1-.37-1.34,2.49,2.49,0,0,1,1-2,4.19,4.19,0,0,1,2.66-.81,4.32,4.32,0,0,1,2.82.87,2.78,2.78,0,0,1,1.06,2.27h-1.16a1.9,1.9,0,0,0-.77-1.54,3,3,0,0,0-2-.61,3,3,0,0,0-1.84.51,1.56,1.56,0,0,0-.7,1.33,1.4,1.4,0,0,0,.58,1.21,6.11,6.11,0,0,0,2.11.8,10.08,10.08,0,0,1,2.29.76,2.9,2.9,0,0,1,1.13,1,2.7,2.7,0,0,1-.7,3.52,4.6,4.6,0,0,1-2.8.8,4.72,4.72,0,0,1-3-.89,2.73,2.73,0,0,1-1.14-2.25h1.16A2,2,0,0,0,140,113a3.53,3.53,0,0,0,2.1.57,3.29,3.29,0,0,0,2-.54A1.59,1.59,0,0,0,144.85,111.7Z" transform="translate(-0.29)" style="fill:#bbbdbf"/><path d="M169.7,114.37h-1.19V100.23h1.19Z" transform="translate(-0.29)" style="fill:#bbbdbf"/><path d="M174.38,103.86l0,1.8a4.09,4.09,0,0,1,1.47-1.48,3.84,3.84,0,0,1,2-.51,3.17,3.17,0,0,1,2.52,1,4.32,4.32,0,0,1,.84,2.86v6.89H180v-6.9a3.25,3.25,0,0,0-.6-2.1,2.34,2.34,0,0,0-1.88-.69,3,3,0,0,0-1.91.67,4,4,0,0,0-1.23,1.82v7.2h-1.15V103.86Z" transform="translate(-0.29)" style="fill:#bbbdbf"/><path d="M186,101.17v2.69h2.18v1H186v7a2.2,2.2,0,0,0,.32,1.3,1.23,1.23,0,0,0,1.05.43,8.49,8.49,0,0,0,.95-.1l0,.94a3.69,3.69,0,0,1-1.24.17,2.06,2.06,0,0,1-1.74-.7,3.27,3.27,0,0,1-.54-2v-7h-1.93v-1h1.93v-2.69Z" transform="translate(-0.29)" style="fill:#bbbdbf"/><path d="M194.66,114.57a4.56,4.56,0,0,1-2.42-.66,4.49,4.49,0,0,1-1.69-1.84,5.77,5.77,0,0,1-.6-2.65V109a6.08,6.08,0,0,1,.59-2.73,4.69,4.69,0,0,1,1.63-1.91,4.07,4.07,0,0,1,2.28-.69,3.79,3.79,0,0,1,3,1.3,5.32,5.32,0,0,1,1.12,3.57v.66h-7.5v.22a4.44,4.44,0,0,0,1,3,3.26,3.26,0,0,0,2.58,1.19,3.84,3.84,0,0,0,1.64-.34,3.67,3.67,0,0,0,1.3-1.09l.73.55A4.25,4.25,0,0,1,194.66,114.57Zm-.21-9.91a2.89,2.89,0,0,0-2.21,1,4.44,4.44,0,0,0-1.1,2.59h6.31v-.13a3.89,3.89,0,0,0-.87-2.47A2.67,2.67,0,0,0,194.45,104.66Z" transform="translate(-0.29)" style="fill:#bbbdbf"/><path d="M202.17,114.37H201V99.45h1.17Z" transform="translate(-0.29)" style="fill:#bbbdbf"/><path d="M206.63,114.37h-1.17V99.45h1.17Z" transform="translate(-0.29)" style="fill:#bbbdbf"/><path d="M209.72,100.83a.79.79,0,0,1,.21-.56.77.77,0,0,1,.58-.23.79.79,0,0,1,.59.23.76.76,0,0,1,.22.56.74.74,0,0,1-.22.55.78.78,0,0,1-.59.22.76.76,0,0,1-.58-.22A.77.77,0,0,1,209.72,100.83Zm1.37,13.54h-1.17V103.86h1.17Z" transform="translate(-0.29)" style="fill:#bbbdbf"/><path d="M222.52,110.9a2.28,2.28,0,0,0-.83-1.86,8.54,8.54,0,0,0-3-1.31,10.67,10.67,0,0,1-3.2-1.34,3.27,3.27,0,0,1-.11-5.34,5.49,5.49,0,0,1,3.42-1,5.69,5.69,0,0,1,2.52.54,4.1,4.1,0,0,1,1.72,1.51,4,4,0,0,1,.62,2.17h-1.21a3,3,0,0,0-1-2.33,3.85,3.85,0,0,0-2.66-.89,4.2,4.2,0,0,0-2.58.73,2.24,2.24,0,0,0-1,1.89,2.13,2.13,0,0,0,.87,1.76,7.73,7.73,0,0,0,2.77,1.2,13.12,13.12,0,0,1,2.88,1.08,4.13,4.13,0,0,1,1.48,1.34,3.35,3.35,0,0,1,.49,1.84,3.2,3.2,0,0,1-1.33,2.68,5.72,5.72,0,0,1-3.52,1,6.85,6.85,0,0,1-2.75-.54,4.14,4.14,0,0,1-1.89-1.49,3.88,3.88,0,0,1-.65-2.21h1.2a2.82,2.82,0,0,0,1.11,2.36,4.73,4.73,0,0,0,3,.87,4.45,4.45,0,0,0,2.65-.73A2.27,2.27,0,0,0,222.52,110.9Z" transform="translate(-0.29)" style="fill:#bbbdbf"/><path d="M230.1,114.57a4.49,4.49,0,0,1-4.11-2.5,5.78,5.78,0,0,1-.61-2.65V109a6.21,6.21,0,0,1,.59-2.73,4.71,4.71,0,0,1,1.64-1.91,4.06,4.06,0,0,1,2.27-.69,3.8,3.8,0,0,1,3,1.3,5.32,5.32,0,0,1,1.12,3.57v.66h-7.5v.22a4.39,4.39,0,0,0,1,3,3.26,3.26,0,0,0,2.58,1.19,3.84,3.84,0,0,0,1.64-.34,3.67,3.67,0,0,0,1.3-1.09l.73.55A4.25,4.25,0,0,1,230.1,114.57Zm-.22-9.91a2.92,2.92,0,0,0-2.21,1,4.43,4.43,0,0,0-1.09,2.59h6.3v-.13a3.88,3.88,0,0,0-.86-2.47A2.69,2.69,0,0,0,229.88,104.66Z" transform="translate(-0.29)" style="fill:#bbbdbf"/><path d="M237.41,103.86l0,1.8a4.11,4.11,0,0,1,1.48-1.48,3.84,3.84,0,0,1,1.95-.51,3.15,3.15,0,0,1,2.51,1,4.26,4.26,0,0,1,.84,2.86v6.89h-1.16v-6.9a3.19,3.19,0,0,0-.59-2.1,2.35,2.35,0,0,0-1.88-.69,2.93,2.93,0,0,0-1.91.67,4,4,0,0,0-1.23,1.82v7.2H236.3V103.86Z" transform="translate(-0.29)" style="fill:#bbbdbf"/><path d="M253.53,111.7a1.67,1.67,0,0,0-.7-1.39,5.37,5.37,0,0,0-2.09-.82,9.31,9.31,0,0,1-2.17-.68,2.83,2.83,0,0,1-1.15-.94,2.32,2.32,0,0,1-.37-1.34,2.49,2.49,0,0,1,1-2,4.19,4.19,0,0,1,2.66-.81,4.32,4.32,0,0,1,2.82.87,2.78,2.78,0,0,1,1.06,2.27h-1.16a1.9,1.9,0,0,0-.77-1.54,3,3,0,0,0-1.95-.61,3,3,0,0,0-1.84.51,1.56,1.56,0,0,0-.7,1.33,1.43,1.43,0,0,0,.58,1.21,6.11,6.11,0,0,0,2.11.8,10.08,10.08,0,0,1,2.29.76,2.9,2.9,0,0,1,1.13,1,2.7,2.7,0,0,1-.7,3.52,4.6,4.6,0,0,1-2.8.8,4.72,4.72,0,0,1-3-.89,2.73,2.73,0,0,1-1.14-2.25h1.16a2,2,0,0,0,.86,1.59,3.53,3.53,0,0,0,2.1.57,3.27,3.27,0,0,0,2-.54A1.59,1.59,0,0,0,253.53,111.7Z" transform="translate(-0.29)" style="fill:#bbbdbf"/><path d="M261.38,114.57a4.49,4.49,0,0,1-4.11-2.5,5.65,5.65,0,0,1-.61-2.65V109a6.21,6.21,0,0,1,.59-2.73,4.71,4.71,0,0,1,1.64-1.91,4.06,4.06,0,0,1,2.27-.69,3.8,3.8,0,0,1,3,1.3,5.37,5.37,0,0,1,1.12,3.57v.66h-7.5v.22a4.44,4.44,0,0,0,1,3,3.29,3.29,0,0,0,2.58,1.19,3.89,3.89,0,0,0,1.65-.34,3.67,3.67,0,0,0,1.3-1.09l.73.55A4.25,4.25,0,0,1,261.38,114.57Zm-.22-9.91a2.92,2.92,0,0,0-2.21,1,4.43,4.43,0,0,0-1.09,2.59h6.3v-.13a3.88,3.88,0,0,0-.86-2.47A2.71,2.71,0,0,0,261.16,104.66Z" transform="translate(-0.29)" style="fill:#bbbdbf"/><path d="M288.41,113.36h7v1h-8.18V100.23h1.2Z" transform="translate(-0.29)" style="fill:#bbbdbf"/><path d="M297.35,100.83a.79.79,0,0,1,.21-.56.77.77,0,0,1,.58-.23.79.79,0,0,1,.59.23.76.76,0,0,1,.22.56.74.74,0,0,1-.22.55.78.78,0,0,1-.59.22.76.76,0,0,1-.58-.22A.77.77,0,0,1,297.35,100.83Zm1.37,13.54h-1.17V103.86h1.17Z" transform="translate(-0.29)" style="fill:#bbbdbf"/><path d="M310.33,109.22a6.36,6.36,0,0,1-1.08,3.9,3.47,3.47,0,0,1-2.93,1.45,3.79,3.79,0,0,1-3.32-1.63l-.05,1.43h-1.09V99.45H303v5.94a3.64,3.64,0,0,1,3.28-1.72,3.49,3.49,0,0,1,2.95,1.42,6.43,6.43,0,0,1,1.08,4Zm-1.16-.2a5.44,5.44,0,0,0-.81-3.21,2.63,2.63,0,0,0-2.27-1.13,3.18,3.18,0,0,0-1.9.55,3.39,3.39,0,0,0-1.17,1.6v4.75a3.11,3.11,0,0,0,3.09,2,2.61,2.61,0,0,0,2.25-1.14A5.86,5.86,0,0,0,309.17,109Z" transform="translate(-0.29)" style="fill:#bbbdbf"/><path d="M317.76,104.85a5,5,0,0,0-.79-.06,2.85,2.85,0,0,0-1.84.6,3.39,3.39,0,0,0-1.08,1.77v7.21H312.9V103.86H314v1.67a3.11,3.11,0,0,1,3-1.86,2,2,0,0,1,.76.12Z" transform="translate(-0.29)" style="fill:#bbbdbf"/><path d="M325.84,114.37a5.62,5.62,0,0,1-.23-1.46,3.89,3.89,0,0,1-1.55,1.22,4.82,4.82,0,0,1-2,.44,3.48,3.48,0,0,1-2.45-.85,2.73,2.73,0,0,1-.94-2.14,2.78,2.78,0,0,1,1.28-2.42,6.08,6.08,0,0,1,3.56-.9h2.1v-1.19a2.34,2.34,0,0,0-.69-1.78,2.88,2.88,0,0,0-2-.64,3.19,3.19,0,0,0-2,.62,1.85,1.85,0,0,0-.79,1.5h-1.17a2.69,2.69,0,0,1,1.17-2.17,4.42,4.42,0,0,1,2.86-.92,4.1,4.1,0,0,1,2.78.88,3.16,3.16,0,0,1,1,2.45v5a6.3,6.3,0,0,0,.32,2.29v.11Zm-3.65-.83a3.87,3.87,0,0,0,2.08-.57,3.22,3.22,0,0,0,1.33-1.5v-2.31h-2.07a5.18,5.18,0,0,0-2.72.63,1.91,1.91,0,0,0-1,1.7,1.88,1.88,0,0,0,.66,1.47A2.53,2.53,0,0,0,322.19,113.54Z" transform="translate(-0.29)" style="fill:#bbbdbf"/><path d="M334.72,104.85a5,5,0,0,0-.79-.06,2.85,2.85,0,0,0-1.84.6,3.31,3.31,0,0,0-1.07,1.77v7.21h-1.16V103.86H331l0,1.67a3.08,3.08,0,0,1,3-1.86,2,2,0,0,1,.76.12Z" transform="translate(-0.29)" style="fill:#bbbdbf"/><path d="M340.06,112.7l3.07-8.84h1.25l-4.49,12.3-.23.54a2.83,2.83,0,0,1-2.67,1.92,3.22,3.22,0,0,1-.89-.14v-1l.6.06a2.14,2.14,0,0,0,1.38-.42,3.16,3.16,0,0,0,.9-1.46l.52-1.41-4-10.43h1.28Z" transform="translate(-0.29)" style="fill:#bbbdbf"/><path d="M367,113.36h7v1H365.8V100.23H367Z" transform="translate(-0.29)" style="fill:#bbbdbf"/><path d="M375.94,100.83a.76.76,0,0,1,.22-.56.75.75,0,0,1,.58-.23.79.79,0,0,1,.59.23.8.8,0,0,1,.22.56.75.75,0,0,1-.81.77.75.75,0,0,1-.58-.22A.74.74,0,0,1,375.94,100.83Zm1.37,13.54h-1.16V103.86h1.16Z" transform="translate(-0.29)" style="fill:#bbbdbf"/><path d="M381.58,103.86l0,1.8a4.09,4.09,0,0,1,1.47-1.48,3.84,3.84,0,0,1,2-.51,3.17,3.17,0,0,1,2.52,1,4.32,4.32,0,0,1,.84,2.86v6.89h-1.16v-6.9a3.25,3.25,0,0,0-.6-2.1,2.34,2.34,0,0,0-1.88-.69,3,3,0,0,0-1.91.67,4,4,0,0,0-1.23,1.82v7.2h-1.15V103.86Z" transform="translate(-0.29)" style="fill:#bbbdbf"/><path d="M393.89,109.08l-1.33,1.28v4H391.4V99.45h1.16V109l1.1-1.18,4-4h1.47l-4.46,4.43,4.85,6.08h-1.39Z" transform="translate(-0.29)" style="fill:#bbbdbf"/><path d="M407.44,111.7a1.67,1.67,0,0,0-.7-1.39,5.37,5.37,0,0,0-2.09-.82,9.31,9.31,0,0,1-2.17-.68,2.83,2.83,0,0,1-1.15-.94,2.32,2.32,0,0,1-.37-1.34,2.49,2.49,0,0,1,1-2,4.19,4.19,0,0,1,2.66-.81,4.32,4.32,0,0,1,2.82.87,2.78,2.78,0,0,1,1.06,2.27h-1.16a1.88,1.88,0,0,0-.78-1.54,3.48,3.48,0,0,0-3.78-.1,1.56,1.56,0,0,0-.7,1.33,1.4,1.4,0,0,0,.58,1.21,6.11,6.11,0,0,0,2.11.8,10.08,10.08,0,0,1,2.29.76,2.9,2.9,0,0,1,1.13,1,2.7,2.7,0,0,1-.7,3.52,4.6,4.6,0,0,1-2.8.8,4.72,4.72,0,0,1-3-.89,2.73,2.73,0,0,1-1.14-2.25h1.16a2,2,0,0,0,.86,1.59,3.53,3.53,0,0,0,2.1.57,3.29,3.29,0,0,0,2-.54A1.59,1.59,0,0,0,407.44,111.7Z" transform="translate(-0.29)" style="fill:#bbbdbf"/><path d="M432,113.36h7v1h-8.19V100.23H432Z" transform="translate(-0.29)" style="fill:#bbbdbf"/><path d="M440.4,109a6.21,6.21,0,0,1,.59-2.73,4.4,4.4,0,0,1,4.1-2.56,4.33,4.33,0,0,1,3.4,1.47,5.7,5.7,0,0,1,1.3,3.9v.24a6.3,6.3,0,0,1-.59,2.75,4.35,4.35,0,0,1-1.66,1.88,4.52,4.52,0,0,1-2.43.66,4.33,4.33,0,0,1-3.4-1.47,5.69,5.69,0,0,1-1.31-3.9Zm1.17.32a4.79,4.79,0,0,0,1,3.1,3.3,3.3,0,0,0,5.11,0,4.93,4.93,0,0,0,1-3.19V109a5.44,5.44,0,0,0-.44-2.2,3.55,3.55,0,0,0-1.26-1.55,3.29,3.29,0,0,0-4.38.67,4.94,4.94,0,0,0-1,3.19Z" transform="translate(-0.29)" style="fill:#bbbdbf"/><path d="M454.7,112l.18.91.23-1,2.53-8h1l2.49,8,.28,1.11.22-1,2.16-8.06H465l-3.06,10.51h-1l-2.7-8.33-.13-.58-.12.59-2.65,8.32h-1l-3.05-10.51h1.2Z" transform="translate(-0.29)" style="fill:#bbbdbf"/><path d="M470.8,108.62h-4.65v-1h4.65Z" transform="translate(-0.29)" style="fill:#bbbdbf"/><path d="M483.17,110a5.12,5.12,0,0,1-1.6,3.42,5.31,5.31,0,0,1-3.61,1.19,5,5,0,0,1-2.78-.79,5.09,5.09,0,0,1-1.87-2.23,7.84,7.84,0,0,1-.67-3.3v-1.83a8,8,0,0,1,.66-3.34,5,5,0,0,1,1.9-2.25,5.13,5.13,0,0,1,2.85-.79,5.06,5.06,0,0,1,3.59,1.22,5.22,5.22,0,0,1,1.53,3.39H482c-.3-2.4-1.6-3.61-3.91-3.61a3.75,3.75,0,0,0-3.07,1.44,6.26,6.26,0,0,0-1.14,4v1.73A6.3,6.3,0,0,0,475,112.1a3.6,3.6,0,0,0,3,1.46,4,4,0,0,0,2.83-.9A4.34,4.34,0,0,0,482,110Z" transform="translate(-0.29)" style="fill:#bbbdbf"/><path d="M485.16,109a6.21,6.21,0,0,1,.58-2.73,4.52,4.52,0,0,1,1.67-1.89,4.44,4.44,0,0,1,2.43-.67,4.33,4.33,0,0,1,3.4,1.47,5.66,5.66,0,0,1,1.3,3.9v.24A6.16,6.16,0,0,1,494,112a4.39,4.39,0,0,1-1.65,1.88,4.58,4.58,0,0,1-2.44.66,4.34,4.34,0,0,1-3.4-1.47,5.69,5.69,0,0,1-1.3-3.9Zm1.16.32a4.79,4.79,0,0,0,1,3.1,3.3,3.3,0,0,0,5.11,0,4.94,4.94,0,0,0,1-3.19V109a5.28,5.28,0,0,0-.45-2.2,3.6,3.6,0,0,0-1.25-1.55,3.2,3.2,0,0,0-1.85-.55,3.13,3.13,0,0,0-2.54,1.22,4.94,4.94,0,0,0-1,3.19Z" transform="translate(-0.29)" style="fill:#bbbdbf"/><path d="M496.47,109a6.33,6.33,0,0,1,1.1-3.9,3.5,3.5,0,0,1,3-1.45,3.67,3.67,0,0,1,3.25,1.68v-5.9h1.16v14.92h-1.09l-.05-1.4a3.75,3.75,0,0,1-3.28,1.6,3.5,3.5,0,0,1-2.93-1.46,6.41,6.41,0,0,1-1.12-4Zm1.18.2a5.48,5.48,0,0,0,.81,3.18,2.6,2.6,0,0,0,2.27,1.16,3.12,3.12,0,0,0,3-1.9v-4.93a3.1,3.1,0,0,0-3-2,2.62,2.62,0,0,0-2.28,1.15A5.81,5.81,0,0,0,497.65,109.22Z" transform="translate(-0.29)" style="fill:#bbbdbf"/><path d="M507.93,100.83a.79.79,0,0,1,.21-.56.81.81,0,0,1,1.39.56.74.74,0,0,1-.22.55.77.77,0,0,1-.59.22.76.76,0,0,1-.58-.22A.77.77,0,0,1,507.93,100.83Zm1.37,13.54h-1.17V103.86h1.17Z" transform="translate(-0.29)" style="fill:#bbbdbf"/><path d="M513.56,103.86l0,1.8a4.19,4.19,0,0,1,1.48-1.48,3.84,3.84,0,0,1,1.95-.51,3.19,3.19,0,0,1,2.52,1,4.32,4.32,0,0,1,.83,2.86v6.89h-1.15v-6.9a3.25,3.25,0,0,0-.6-2.1,2.34,2.34,0,0,0-1.88-.69,2.93,2.93,0,0,0-1.91.67,4,4,0,0,0-1.23,1.82v7.2h-1.16V103.86Z" transform="translate(-0.29)" style="fill:#bbbdbf"/><path d="M522.92,109a6.32,6.32,0,0,1,1.09-3.91,3.53,3.53,0,0,1,3-1.44,3.64,3.64,0,0,1,3.26,1.71l.06-1.52h1.09v10.3a4.48,4.48,0,0,1-1.14,3.22,4.06,4.06,0,0,1-3.08,1.18,4.62,4.62,0,0,1-2.09-.49,4,4,0,0,1-1.57-1.31l.65-.7a3.68,3.68,0,0,0,2.93,1.52,3,3,0,0,0,2.28-.86,3.45,3.45,0,0,0,.84-2.39V113a3.74,3.74,0,0,1-3.25,1.56,3.52,3.52,0,0,1-2.94-1.46,6.32,6.32,0,0,1-1.1-3.93Zm1.17.2a5.48,5.48,0,0,0,.81,3.18,2.61,2.61,0,0,0,2.27,1.16,3.11,3.11,0,0,0,3-1.93v-4.88a3.26,3.26,0,0,0-1.17-1.54,3.15,3.15,0,0,0-1.85-.53,2.62,2.62,0,0,0-2.28,1.15A5.81,5.81,0,0,0,524.09,109.22Z" transform="translate(-0.29)" style="fill:#bbbdbf"/><path d="M555.23,108.61v5.76H554V100.23h4.82a5.08,5.08,0,0,1,3.48,1.13,3.92,3.92,0,0,1,1.28,3.1,3.88,3.88,0,0,1-1.23,3.07,5.24,5.24,0,0,1-3.56,1.08Zm0-1h3.63a3.82,3.82,0,0,0,2.65-.82,3,3,0,0,0,.91-2.31,3.1,3.1,0,0,0-.9-2.34,3.65,3.65,0,0,0-2.58-.89h-3.71Z" transform="translate(-0.29)" style="fill:#bbbdbf"/><path d="M567.32,114.37h-1.17V99.45h1.17Z" transform="translate(-0.29)" style="fill:#bbbdbf"/><path d="M577.11,114.37a5.28,5.28,0,0,1-.22-1.46,4,4,0,0,1-1.56,1.22,4.75,4.75,0,0,1-2,.44,3.48,3.48,0,0,1-2.45-.85,2.73,2.73,0,0,1-.94-2.14,2.8,2.8,0,0,1,1.28-2.42,6.1,6.1,0,0,1,3.56-.9h2.11v-1.19a2.31,2.31,0,0,0-.7-1.78,2.87,2.87,0,0,0-2-.64,3.19,3.19,0,0,0-2,.62,1.86,1.86,0,0,0-.8,1.5h-1.17a2.69,2.69,0,0,1,1.17-2.17,4.45,4.45,0,0,1,2.87-.92,4.07,4.07,0,0,1,2.77.88,3.13,3.13,0,0,1,1,2.45v5a6.3,6.3,0,0,0,.32,2.29v.11Zm-3.65-.83a3.87,3.87,0,0,0,2.08-.57,3.29,3.29,0,0,0,1.34-1.5v-2.31H574.8a5.18,5.18,0,0,0-2.72.63,2,2,0,0,0-.33,3.17A2.53,2.53,0,0,0,573.46,113.54Z" transform="translate(-0.29)" style="fill:#bbbdbf"/><path d="M582.24,103.86l0,1.8a4.11,4.11,0,0,1,1.48-1.48,3.78,3.78,0,0,1,2-.51,3.16,3.16,0,0,1,2.51,1,4.32,4.32,0,0,1,.84,2.86v6.89H587.9v-6.9a3.19,3.19,0,0,0-.59-2.1,2.35,2.35,0,0,0-1.88-.69,2.93,2.93,0,0,0-1.91.67,3.89,3.89,0,0,0-1.23,1.82v7.2h-1.16V103.86Z" transform="translate(-0.29)" style="fill:#bbbdbf"/><path d="M593.87,101.17v2.69H596v1h-2.17v7a2.21,2.21,0,0,0,.31,1.3,1.24,1.24,0,0,0,1.06.43,8.37,8.37,0,0,0,.94-.1l.05.94a3.8,3.8,0,0,1-1.25.17,2,2,0,0,1-1.73-.7,3.2,3.2,0,0,1-.55-2v-7h-1.93v-1h1.93v-2.69Z" transform="translate(-0.29)" style="fill:#bbbdbf"/><path d="M608.47,100.23v9.65a5,5,0,0,1-.63,2.49,4.14,4.14,0,0,1-1.76,1.63,5.69,5.69,0,0,1-2.6.57,5.15,5.15,0,0,1-3.58-1.22,4.48,4.48,0,0,1-1.39-3.38v-9.74h1.19v9.57a3.68,3.68,0,0,0,1,2.77,4.36,4.36,0,0,0,5.53,0,3.7,3.7,0,0,0,1-2.76v-9.58Z" transform="translate(-0.29)" style="fill:#bbbdbf"/><path d="M613.38,100.23l5.22,12.48,5.24-12.48h1.59v14.14h-1.2v-6.16l.1-6.31-5.26,12.47h-.93L612.9,102l.09,6.23v6.19H611.8V100.23Z" transform="translate(-0.29)" style="fill:#bbbdbf"/><path d="M630.22,113.36h7v1H629V100.23h1.21Z" transform="translate(-0.29)" style="fill:#bbbdbf"/><path d="M174.52,153.13a2.3,2.3,0,0,0-.83-1.86,8.85,8.85,0,0,0-3-1.3,10.58,10.58,0,0,1-3.21-1.35,3.17,3.17,0,0,1-1.43-2.7,3.14,3.14,0,0,1,1.33-2.63,5.47,5.47,0,0,1,3.42-1,5.56,5.56,0,0,1,2.52.55,4.09,4.09,0,0,1,1.72,1.51,4,4,0,0,1,.61,2.17h-1.2a3,3,0,0,0-1-2.34,3.9,3.9,0,0,0-2.66-.88,4.17,4.17,0,0,0-2.59.73,2.25,2.25,0,0,0-1,1.89,2.13,2.13,0,0,0,.87,1.76,8.12,8.12,0,0,0,2.76,1.2,13.24,13.24,0,0,1,2.89,1.08,4.13,4.13,0,0,1,1.48,1.34,3.32,3.32,0,0,1,.49,1.83,3.18,3.18,0,0,1-1.33,2.68,5.67,5.67,0,0,1-3.53,1,7,7,0,0,1-2.74-.53,4.23,4.23,0,0,1-1.89-1.5,3.85,3.85,0,0,1-.65-2.2h1.2a2.83,2.83,0,0,0,1.11,2.36,4.78,4.78,0,0,0,3,.86,4.39,4.39,0,0,0,2.66-.73A2.29,2.29,0,0,0,174.52,153.13Z" transform="translate(-0.29)" style="fill:#bbbdbf"/><path d="M182.09,156.8a4.56,4.56,0,0,1-2.42-.66A4.47,4.47,0,0,1,178,154.3a5.61,5.61,0,0,1-.61-2.64v-.42a6.21,6.21,0,0,1,.59-2.73,4.65,4.65,0,0,1,1.64-1.91,4,4,0,0,1,2.27-.7,3.81,3.81,0,0,1,3,1.31,5.34,5.34,0,0,1,1.12,3.57v.65h-7.5v.23a4.39,4.39,0,0,0,1,3,3.26,3.26,0,0,0,2.58,1.19,3.77,3.77,0,0,0,1.65-.34,3.56,3.56,0,0,0,1.3-1.09l.72.56A4.22,4.22,0,0,1,182.09,156.8Zm-.21-9.9a2.92,2.92,0,0,0-2.21,1,4.43,4.43,0,0,0-1.09,2.58h6.3v-.13a3.83,3.83,0,0,0-.86-2.46A2.68,2.68,0,0,0,181.88,146.9Z" transform="translate(-0.29)" style="fill:#bbbdbf"/><path d="M194.94,156.61a5.63,5.63,0,0,1-.23-1.47,4,4,0,0,1-1.56,1.23,4.73,4.73,0,0,1-2,.43,3.56,3.56,0,0,1-2.46-.84,2.77,2.77,0,0,1-.93-2.14,2.81,2.81,0,0,1,1.28-2.43,6.16,6.16,0,0,1,3.56-.89h2.1v-1.2a2.3,2.3,0,0,0-.69-1.77,2.88,2.88,0,0,0-2-.64,3.13,3.13,0,0,0-2,.62,1.83,1.83,0,0,0-.79,1.49H188a2.7,2.7,0,0,1,1.17-2.17,4.48,4.48,0,0,1,2.86-.92,4.11,4.11,0,0,1,2.77.88,3.17,3.17,0,0,1,1.05,2.46v5a6.2,6.2,0,0,0,.32,2.28v.12Zm-3.66-.84a3.87,3.87,0,0,0,2.09-.56,3.37,3.37,0,0,0,1.33-1.5v-2.32h-2.08a5.3,5.3,0,0,0-2.72.64,1.92,1.92,0,0,0-1,1.69,1.88,1.88,0,0,0,.66,1.47A2.45,2.45,0,0,0,191.28,155.77Z" transform="translate(-0.29)" style="fill:#bbbdbf"/><path d="M203.81,147.09A3.84,3.84,0,0,0,203,147a2.8,2.8,0,0,0-1.84.61,3.36,3.36,0,0,0-1.08,1.76v7.22H199V146.1h1.13l0,1.67a3.11,3.11,0,0,1,3-1.87,1.93,1.93,0,0,1,.76.13Z" transform="translate(-0.29)" style="fill:#bbbdbf"/><path d="M209.35,155.82a3.12,3.12,0,0,0,2-.68,2.46,2.46,0,0,0,.89-1.77h1.11a3.26,3.26,0,0,1-.6,1.75,3.79,3.79,0,0,1-1.47,1.24,4.54,4.54,0,0,1-2,.44,4.09,4.09,0,0,1-3.28-1.43,5.86,5.86,0,0,1-1.21-3.87v-.35a6.46,6.46,0,0,1,.55-2.75,4.1,4.1,0,0,1,1.56-1.84,4.24,4.24,0,0,1,2.37-.66,4.07,4.07,0,0,1,2.85,1,3.75,3.75,0,0,1,1.2,2.71h-1.11A3,3,0,0,0,206.9,148a5.15,5.15,0,0,0-.87,3.19v.34a5.05,5.05,0,0,0,.87,3.14A2.92,2.92,0,0,0,209.35,155.82Z" transform="translate(-0.29)" style="fill:#bbbdbf"/><path d="M216.87,147.88a4,4,0,0,1,1.47-1.46,3.84,3.84,0,0,1,1.95-.52,3.14,3.14,0,0,1,2.52,1,4.29,4.29,0,0,1,.83,2.85v6.9h-1.15V149.7a3.25,3.25,0,0,0-.6-2.1,2.34,2.34,0,0,0-1.88-.68,2.93,2.93,0,0,0-1.91.67,4,4,0,0,0-1.23,1.82v7.2h-1.16V141.69h1.16Z" transform="translate(-0.29)" style="fill:#bbbdbf"/><path d="M255.46,143.48h-4.84v13.13h-1.2V143.48h-4.84v-1h10.88Z" transform="translate(-0.29)" style="fill:#bbbdbf"/><path d="M263,156.61a5.71,5.71,0,0,1-.22-1.47,4.11,4.11,0,0,1-1.56,1.23,4.75,4.75,0,0,1-2,.43,3.54,3.54,0,0,1-2.45-.84,2.77,2.77,0,0,1-.94-2.14,2.83,2.83,0,0,1,1.28-2.43,6.18,6.18,0,0,1,3.56-.89h2.11v-1.2a2.28,2.28,0,0,0-.7-1.77,2.85,2.85,0,0,0-2-.64,3.13,3.13,0,0,0-2,.62,1.84,1.84,0,0,0-.8,1.49h-1.16a2.69,2.69,0,0,1,1.16-2.17,4.51,4.51,0,0,1,2.87-.92,4.13,4.13,0,0,1,2.77.88,3.17,3.17,0,0,1,1.05,2.46v5a6,6,0,0,0,.32,2.28v.12Zm-3.65-.84a3.84,3.84,0,0,0,2.08-.56,3.34,3.34,0,0,0,1.34-1.5v-2.32H260.7A5.28,5.28,0,0,0,258,152a1.92,1.92,0,0,0-1,1.69,1.88,1.88,0,0,0,.66,1.47A2.44,2.44,0,0,0,259.36,155.77Z" transform="translate(-0.29)" style="fill:#bbbdbf"/><path d="M266.57,151.26a6.3,6.3,0,0,1,1.09-3.91,3.54,3.54,0,0,1,3-1.45,3.64,3.64,0,0,1,3.26,1.71l.06-1.51H275v10.3a4.44,4.44,0,0,1-1.14,3.21,4.07,4.07,0,0,1-3.08,1.19,4.75,4.75,0,0,1-2.09-.49,4.08,4.08,0,0,1-1.57-1.31l.65-.7a3.68,3.68,0,0,0,2.93,1.52A3,3,0,0,0,273,159a3.46,3.46,0,0,0,.84-2.39v-1.32a3.74,3.74,0,0,1-3.25,1.55,3.48,3.48,0,0,1-2.93-1.45,6.36,6.36,0,0,1-1.11-3.94Zm1.17.2a5.45,5.45,0,0,0,.81,3.17,2.59,2.59,0,0,0,2.27,1.16,3.1,3.1,0,0,0,3-1.92V149a3.36,3.36,0,0,0-1.17-1.54,3.19,3.19,0,0,0-1.85-.52,2.62,2.62,0,0,0-2.28,1.15A5.84,5.84,0,0,0,267.74,151.46Z" transform="translate(-0.29)" style="fill:#bbbdbf"/><path d="M284.36,153.94a1.66,1.66,0,0,0-.69-1.39,5.37,5.37,0,0,0-2.09-.82,9.93,9.93,0,0,1-2.18-.68,2.94,2.94,0,0,1-1.14-.94,2.35,2.35,0,0,1-.38-1.34,2.5,2.5,0,0,1,1-2.05,4.17,4.17,0,0,1,2.67-.82,4.32,4.32,0,0,1,2.82.87,2.79,2.79,0,0,1,1.06,2.27h-1.16a1.88,1.88,0,0,0-.78-1.53,3,3,0,0,0-1.94-.61,3.07,3.07,0,0,0-1.85.51,1.57,1.57,0,0,0-.69,1.32,1.42,1.42,0,0,0,.58,1.22,6.06,6.06,0,0,0,2.11.79,10,10,0,0,1,2.29.77,3,3,0,0,1,1.13,1,2.49,2.49,0,0,1,.37,1.39,2.53,2.53,0,0,1-1.07,2.13,4.61,4.61,0,0,1-2.81.79,4.7,4.7,0,0,1-3-.88,2.77,2.77,0,0,1-1.15-2.25h1.17a2,2,0,0,0,.86,1.58,3.52,3.52,0,0,0,2.09.57,3.37,3.37,0,0,0,2-.53A1.63,1.63,0,0,0,284.36,153.94Z" transform="translate(-0.29)" style="fill:#bbbdbf"/><path d="M317,143.48h-4.84v13.13h-1.2V143.48h-4.84v-1H317Z" transform="translate(-0.29)" style="fill:#bbbdbf"/><path d="M320.14,147.88a4,4,0,0,1,1.47-1.46,3.84,3.84,0,0,1,1.95-.52,3.14,3.14,0,0,1,2.52,1,4.29,4.29,0,0,1,.83,2.85v6.9h-1.15V149.7a3.25,3.25,0,0,0-.6-2.1,2.34,2.34,0,0,0-1.88-.68,2.93,2.93,0,0,0-1.91.67,4,4,0,0,0-1.23,1.82v7.2H319V141.69h1.16Z" transform="translate(-0.29)" style="fill:#bbbdbf"/><path d="M334,156.8a4.52,4.52,0,0,1-4.11-2.5,5.73,5.73,0,0,1-.6-2.64v-.42a6.21,6.21,0,0,1,.59-2.73,4.65,4.65,0,0,1,1.64-1.91,4,4,0,0,1,2.27-.7,3.81,3.81,0,0,1,3,1.31,5.34,5.34,0,0,1,1.12,3.57v.65h-7.5v.23a4.39,4.39,0,0,0,1,3,3.26,3.26,0,0,0,2.58,1.19,3.77,3.77,0,0,0,1.65-.34,3.56,3.56,0,0,0,1.3-1.09l.72.56A4.22,4.22,0,0,1,334,156.8Zm-.21-9.9a2.92,2.92,0,0,0-2.21,1,4.43,4.43,0,0,0-1.09,2.58h6.3v-.13a3.83,3.83,0,0,0-.86-2.46A2.68,2.68,0,0,0,333.76,146.9Z" transform="translate(-0.29)" style="fill:#bbbdbf"/><path d="M341.24,146.1l0,1.71a3.89,3.89,0,0,1,1.45-1.43,4,4,0,0,1,1.95-.48,2.93,2.93,0,0,1,3.15,2,4.05,4.05,0,0,1,1.51-1.51,4.21,4.21,0,0,1,2.08-.53q3.38,0,3.45,3.7v7H353.7v-6.93a3.16,3.16,0,0,0-.6-2.09,2.49,2.49,0,0,0-2-.67,3.07,3.07,0,0,0-2.12.81,2.81,2.81,0,0,0-1,1.92v7H346.9v-7a2.89,2.89,0,0,0-.63-2,2.55,2.55,0,0,0-1.93-.66,2.94,2.94,0,0,0-1.89.62,3.7,3.7,0,0,0-1.16,1.86v7.21h-1.17V146.1Z" transform="translate(-0.29)" style="fill:#bbbdbf"/><path d="M361.88,156.8a4.56,4.56,0,0,1-2.42-.66,4.49,4.49,0,0,1-1.69-1.84,5.73,5.73,0,0,1-.6-2.64v-.42a6.21,6.21,0,0,1,.59-2.73,4.65,4.65,0,0,1,1.64-1.91,4,4,0,0,1,2.27-.7,3.79,3.79,0,0,1,3,1.31,5.29,5.29,0,0,1,1.12,3.57v.65h-7.49v.23a4.39,4.39,0,0,0,1,3,3.23,3.23,0,0,0,2.58,1.19,3.77,3.77,0,0,0,1.65-.34,3.62,3.62,0,0,0,1.29-1.09l.73.56A4.22,4.22,0,0,1,361.88,156.8Zm-.21-9.9a2.9,2.9,0,0,0-2.21,1,4.36,4.36,0,0,0-1.09,2.58h6.3v-.13a3.83,3.83,0,0,0-.86-2.46A2.68,2.68,0,0,0,361.67,146.9Z" transform="translate(-0.29)" style="fill:#bbbdbf"/><path d="M374.38,153.94a1.66,1.66,0,0,0-.69-1.39,5.37,5.37,0,0,0-2.09-.82,9.93,9.93,0,0,1-2.18-.68,2.94,2.94,0,0,1-1.14-.94,2.35,2.35,0,0,1-.38-1.34,2.5,2.5,0,0,1,1-2.05,4.17,4.17,0,0,1,2.67-.82,4.32,4.32,0,0,1,2.82.87,2.79,2.79,0,0,1,1.06,2.27h-1.16a1.88,1.88,0,0,0-.78-1.53,3,3,0,0,0-1.94-.61,3.07,3.07,0,0,0-1.85.51,1.57,1.57,0,0,0-.69,1.32,1.42,1.42,0,0,0,.58,1.22,6.06,6.06,0,0,0,2.11.79,10,10,0,0,1,2.29.77,3,3,0,0,1,1.13,1,2.49,2.49,0,0,1,.37,1.39,2.53,2.53,0,0,1-1.07,2.13,4.61,4.61,0,0,1-2.81.79,4.7,4.7,0,0,1-3-.88,2.76,2.76,0,0,1-1.14-2.25h1.16a2,2,0,0,0,.86,1.58,3.52,3.52,0,0,0,2.09.57,3.37,3.37,0,0,0,2-.53A1.63,1.63,0,0,0,374.38,153.94Z" transform="translate(-0.29)" style="fill:#bbbdbf"/><path d="M402.05,154.86l.08.3.08-.3,4.45-12.39H408l-5.27,14.14h-1.15l-5.26-14.14h1.3Z" transform="translate(-0.29)" style="fill:#bbbdbf"/><path d="M413.42,156.8a4.52,4.52,0,0,1-4.11-2.5,5.73,5.73,0,0,1-.6-2.64v-.42a6.21,6.21,0,0,1,.59-2.73,4.65,4.65,0,0,1,1.64-1.91,4,4,0,0,1,2.27-.7,3.81,3.81,0,0,1,3,1.31,5.34,5.34,0,0,1,1.12,3.57v.65h-7.5v.23a4.39,4.39,0,0,0,1,3,3.26,3.26,0,0,0,2.58,1.19,3.77,3.77,0,0,0,1.65-.34,3.56,3.56,0,0,0,1.3-1.09l.72.56A4.22,4.22,0,0,1,413.42,156.8Zm-.21-9.9a2.92,2.92,0,0,0-2.21,1,4.43,4.43,0,0,0-1.09,2.58h6.3v-.13a3.83,3.83,0,0,0-.86-2.46A2.68,2.68,0,0,0,413.21,146.9Z" transform="translate(-0.29)" style="fill:#bbbdbf"/><path d="M424.49,147.09a4,4,0,0,0-.79-.07,2.82,2.82,0,0,0-1.84.61,3.29,3.29,0,0,0-1.07,1.76v7.22h-1.16V146.1h1.14l0,1.67a3.09,3.09,0,0,1,3-1.87,2,2,0,0,1,.77.13Z" transform="translate(-0.29)" style="fill:#bbbdbf"/><path d="M432.62,153.94a1.64,1.64,0,0,0-.7-1.39,5.37,5.37,0,0,0-2.09-.82,10,10,0,0,1-2.17-.68,3,3,0,0,1-1.15-.94,2.34,2.34,0,0,1-.37-1.34,2.5,2.5,0,0,1,1-2.05,4.14,4.14,0,0,1,2.66-.82,4.32,4.32,0,0,1,2.82.87,2.8,2.8,0,0,1,1.07,2.27h-1.17a1.89,1.89,0,0,0-.77-1.53,3.49,3.49,0,0,0-3.79-.1,1.57,1.57,0,0,0-.69,1.32,1.44,1.44,0,0,0,.57,1.22,6.14,6.14,0,0,0,2.11.79,9.83,9.83,0,0,1,2.29.77,3,3,0,0,1,1.14,1,2.57,2.57,0,0,1,.36,1.39,2.5,2.5,0,0,1-1.07,2.13,4.58,4.58,0,0,1-2.8.79,4.73,4.73,0,0,1-3-.88,2.76,2.76,0,0,1-1.14-2.25H427a2,2,0,0,0,.86,1.58,3.47,3.47,0,0,0,2.09.57,3.34,3.34,0,0,0,2-.53A1.61,1.61,0,0,0,432.62,153.94Z" transform="translate(-0.29)" style="fill:#bbbdbf"/><path d="M436.33,143.06a.77.77,0,0,1,.21-.55.79.79,0,0,1,.59-.23.77.77,0,0,1,.58.23.74.74,0,0,1,.22.55.72.72,0,0,1-.22.55.76.76,0,0,1-.58.22.78.78,0,0,1-.59-.22A.75.75,0,0,1,436.33,143.06Zm1.37,13.55h-1.17V146.1h1.17Z" transform="translate(-0.29)" style="fill:#bbbdbf"/><path d="M440.22,151.2a6.21,6.21,0,0,1,.58-2.73,4.43,4.43,0,0,1,4.1-2.57,4.34,4.34,0,0,1,3.4,1.48,5.66,5.66,0,0,1,1.3,3.9v.24a6.23,6.23,0,0,1-.59,2.74,4.29,4.29,0,0,1-1.66,1.88,4.52,4.52,0,0,1-2.43.66,4.33,4.33,0,0,1-3.4-1.47,5.66,5.66,0,0,1-1.3-3.9Zm1.16.32a4.75,4.75,0,0,0,1,3.09,3.3,3.3,0,0,0,5.11,0,4.92,4.92,0,0,0,1-3.19v-.22A5.52,5.52,0,0,0,448,149a3.67,3.67,0,0,0-1.26-1.55,3.21,3.21,0,0,0-1.84-.54,3.12,3.12,0,0,0-2.54,1.21,5,5,0,0,0-1,3.2Z" transform="translate(-0.29)" style="fill:#bbbdbf"/><path d="M453.11,146.1l0,1.8a4.12,4.12,0,0,1,1.47-1.49,3.84,3.84,0,0,1,1.95-.51,3.14,3.14,0,0,1,2.52,1,4.29,4.29,0,0,1,.84,2.85v6.9h-1.16V149.7a3.25,3.25,0,0,0-.6-2.1,2.34,2.34,0,0,0-1.88-.68,3,3,0,0,0-1.91.67,4,4,0,0,0-1.23,1.82v7.2H452V146.1Z" transform="translate(-0.29)" style="fill:#bbbdbf"/><path d="M462.86,143.06a.77.77,0,0,1,.21-.55.79.79,0,0,1,.59-.23.77.77,0,0,1,.58.23.74.74,0,0,1,.22.55.72.72,0,0,1-.22.55.76.76,0,0,1-.58.22.78.78,0,0,1-.59-.22A.75.75,0,0,1,462.86,143.06Zm1.37,13.55h-1.17V146.1h1.17Z" transform="translate(-0.29)" style="fill:#bbbdbf"/><path d="M468.49,146.1l0,1.8a4.22,4.22,0,0,1,1.48-1.49,3.84,3.84,0,0,1,1.95-.51,3.14,3.14,0,0,1,2.52,1,4.23,4.23,0,0,1,.83,2.85v6.9h-1.15V149.7a3.25,3.25,0,0,0-.6-2.1,2.34,2.34,0,0,0-1.88-.68,2.93,2.93,0,0,0-1.91.67,4,4,0,0,0-1.23,1.82v7.2h-1.15V146.1Z" transform="translate(-0.29)" style="fill:#bbbdbf"/><path d="M477.85,151.26a6.3,6.3,0,0,1,1.09-3.91,3.54,3.54,0,0,1,3-1.45,3.64,3.64,0,0,1,3.26,1.71l.06-1.51h1.09v10.3a4.44,4.44,0,0,1-1.14,3.21,4.07,4.07,0,0,1-3.08,1.19,4.75,4.75,0,0,1-2.09-.49,4.15,4.15,0,0,1-1.57-1.31l.65-.7a3.68,3.68,0,0,0,2.93,1.52,3,3,0,0,0,2.28-.86,3.46,3.46,0,0,0,.84-2.39v-1.32a3.74,3.74,0,0,1-3.25,1.55,3.51,3.51,0,0,1-2.94-1.45,6.42,6.42,0,0,1-1.1-3.94Zm1.17.2a5.45,5.45,0,0,0,.81,3.17,2.59,2.59,0,0,0,2.27,1.16,3.1,3.1,0,0,0,3-1.92V149a3.36,3.36,0,0,0-1.17-1.54,3.19,3.19,0,0,0-1.85-.52,2.62,2.62,0,0,0-2.28,1.15A5.77,5.77,0,0,0,479,151.46Z" transform="translate(-0.29)" style="fill:#bbbdbf"/></g></g></svg>