<svg xmlns="http://www.w3.org/2000/svg" xmlns:xlink="http://www.w3.org/1999/xlink" viewBox="0 0 884.61 117.74"><defs><style>.cls-1,.cls-2,.cls-3{fill:#212120;}.cls-1,.cls-3{stroke:#212120;stroke-miterlimit:10;}.cls-1{stroke-linecap:round;stroke-width:8.5px;}.cls-3{stroke-linecap:square;stroke-width:11.34px;}.cls-4{fill:#3d6db4;}.cls-5{fill:url(#linear-gradient);}.cls-6{fill:url(#linear-gradient-2);}</style><linearGradient id="linear-gradient" x1="160.31" y1="482.38" x2="160" y2="482.73" gradientTransform="matrix(244.8, 0, 0, -122.52, -38365.57, 59223.63)" gradientUnits="userSpaceOnUse"><stop offset="0.18" stop-color="#325ba9"/><stop offset="1" stop-color="#4b7bbe"/></linearGradient><linearGradient id="linear-gradient-2" x1="159.82" y1="482.45" x2="160.13" y2="482.09" gradientTransform="matrix(244.96, 0, 0, -122.68, -38380.74, 59178.68)" xlink:href="#linear-gradient"/></defs><g id="Layer_2" data-name="Layer 2"><g id="Mina_Confluence" data-name="Mina Confluence"><g id="logo-black"><line class="cls-1" x1="73.65" y1="52.74" x2="73.65" y2="74.09"/><rect class="cls-2" x="34.1" y="1.69" width="77.12" height="50.51" rx="12"/><rect class="cls-2" x="34.1" y="67.23" width="77.12" height="50.51" rx="12"/><line class="cls-3" x1="18.65" y1="33.08" x2="7.5" y2="57.89"/><line class="cls-3" x1="18.65" y1="87.49" x2="7.5" y2="62.67"/><line class="cls-3" x1="126.67" y1="87.49" x2="137.83" y2="62.67"/><line class="cls-3" x1="126.67" y1="33.08" x2="137.83" y2="57.89"/></g><path class="cls-2" d="M180.46,29.89l20,43.81,20.13-43.81h6.12V79.53h-4.59V57.91l.37-22.15L202.31,79.53h-3.55L178.6,35.93,179,57.78V79.53h-4.59V29.89Z"/><path class="cls-2" d="M239.23,32a2.6,2.6,0,0,1,.82-1.95,3.1,3.1,0,0,1,2.24-.8,3.15,3.15,0,0,1,2.26.8,2.58,2.58,0,0,1,.84,1.95,2.52,2.52,0,0,1-.84,1.93,3.18,3.18,0,0,1-2.26.78,3.13,3.13,0,0,1-2.24-.78A2.54,2.54,0,0,1,239.23,32Zm5.27,47.54H240V42.64h4.48Z"/><path class="cls-2" d="M260.89,42.64,261,49a15.31,15.31,0,0,1,5.67-5.2,15.88,15.88,0,0,1,7.5-1.79q6.51,0,9.67,3.34t3.21,10V79.53h-4.44V55.29c0-3.3-.79-5.75-2.29-7.36s-3.92-2.43-7.23-2.43a11.9,11.9,0,0,0-7.33,2.38,13.8,13.8,0,0,0-4.73,6.39V79.53h-4.44V42.64Z"/><path class="cls-2" d="M324.13,79.53a17.92,17.92,0,0,1-.86-5.15,15.37,15.37,0,0,1-6,4.31,19.89,19.89,0,0,1-7.71,1.52,14.37,14.37,0,0,1-9.43-3,9.29,9.29,0,0,1-3.6-7.5,9.66,9.66,0,0,1,4.91-8.52c3.27-2.09,7.84-3.14,13.68-3.14h8.11V53.89a7.72,7.72,0,0,0-2.67-6.22q-2.67-2.27-7.79-2.27a13,13,0,0,0-7.73,2.18A6.35,6.35,0,0,0,302,52.83l-4.48,0q0-4.39,4.48-7.62A18.37,18.37,0,0,1,313,42q6.75,0,10.66,3.08a10.68,10.68,0,0,1,4,8.61V71.11q0,5.36,1.23,8v.41Zm-14-2.93a16.07,16.07,0,0,0,8-2,12,12,0,0,0,5.14-5.29V61.22h-8q-6.69.08-10.46,2.23t-3.77,6a6.36,6.36,0,0,0,2.52,5.15A10.1,10.1,0,0,0,310.09,76.6Z"/><path class="cls-4" d="M398.36,63.78q-1,7.88-6.37,12.15t-14.24,4.28q-9.63,0-15.44-6.31T356.5,57V52.25a26.14,26.14,0,0,1,2.71-12.17A19.08,19.08,0,0,1,366.88,32a23,23,0,0,1,11.5-2.81q8.67,0,13.89,4.42t6.09,12.22h-7.21q-.93-6-4-8.62c-2.08-1.78-5-2.67-8.72-2.67q-6.87,0-10.77,4.64t-3.9,13.21v4.81q0,8.09,3.69,12.86a12.37,12.37,0,0,0,10.35,4.78c4,0,7-.83,9.16-2.47s3.54-4.52,4.24-8.61Z"/><path class="cls-4" d="M405.23,60.74A20.19,20.19,0,0,1,407.56,51a16.47,16.47,0,0,1,6.5-6.68,18.93,18.93,0,0,1,9.5-2.35q8.25,0,13.35,5.22T442,61.05v.44a20.35,20.35,0,0,1-2.26,9.67,16.19,16.19,0,0,1-6.46,6.66,19.18,19.18,0,0,1-9.65,2.39q-8.2,0-13.31-5.22t-5.09-13.8Zm6.94.75q0,6.13,3.12,9.86A11.2,11.2,0,0,0,432,71.29q3.09-3.77,3.09-10.55a14.81,14.81,0,0,0-3.15-9.83,10.39,10.39,0,0,0-8.38-3.77,10.26,10.26,0,0,0-8.25,3.72Q412.18,54.57,412.17,61.49Z"/><path class="cls-4" d="M457.2,42.64l.22,4.64A15.27,15.27,0,0,1,469.52,42q12.8,0,12.92,13.19V79.53h-6.91V55.12c0-2.66-.69-4.63-2-5.9s-3.34-1.91-6.1-1.91a10.65,10.65,0,0,0-5.9,1.64,11.41,11.41,0,0,0-4,4.29V79.53h-6.91V42.64Z"/><path class="cls-4" d="M496.25,79.53v-32h-6.38V42.64h6.38V38.86q0-5.94,3.47-9.17t9.82-3.24a20.08,20.08,0,0,1,4.74.57l-.37,5.09a21.09,21.09,0,0,0-3.73-.31A7.09,7.09,0,0,0,505,33.6a6.87,6.87,0,0,0-1.83,5.14v3.9h8.62v4.88h-8.62v32Z"/><path class="cls-4" d="M526.9,79.53H520V27.17h6.9Z"/><path class="cls-4" d="M562.89,75.88q-4,4.34-11.83,4.33-6.46,0-9.84-3.43T537.8,66.64v-24h6.91V66.47q0,8.39,7.47,8.39c5.28,0,8.78-1.8,10.53-5.39V42.64h6.9V79.53H563Z"/><path class="cls-4" d="M596.87,80.21q-8.22,0-13.37-4.93t-5.15-13.17V61a20.52,20.52,0,0,1,2.3-9.8,16.84,16.84,0,0,1,6.42-6.75A17.22,17.22,0,0,1,596,42q7.88,0,12.25,4.74t4.37,13.57v2.62H585.26a12.42,12.42,0,0,0,3.49,8.81,11.48,11.48,0,0,0,8.49,3.36,12.94,12.94,0,0,0,6.2-1.36,15.27,15.27,0,0,0,4.44-3.62l4.22,3Q607,80.21,596.87,80.21ZM596,47.14a9.65,9.65,0,0,0-7,2.78,13,13,0,0,0-3.51,7.79h20.24v-.48a11.42,11.42,0,0,0-2.84-7.45A9.08,9.08,0,0,0,596,47.14Z"/><path class="cls-4" d="M627.15,42.64l.22,4.64A15.27,15.27,0,0,1,639.47,42q12.81,0,12.92,13.19V79.53h-6.91V55.12q0-4-2-5.9c-1.3-1.27-3.34-1.91-6.1-1.91a10.65,10.65,0,0,0-5.9,1.64,11.49,11.49,0,0,0-4,4.29V79.53h-6.91V42.64Z"/><path class="cls-4" d="M679,75.06a10.59,10.59,0,0,0,6.46-2,7.07,7.07,0,0,0,3.06-5.12h6.53a10.79,10.79,0,0,1-2.39,6,15.38,15.38,0,0,1-5.88,4.56A18.21,18.21,0,0,1,679,80.21q-8.25,0-13.13-5T661,61.43V60.37a20.49,20.49,0,0,1,2.17-9.58,15.48,15.48,0,0,1,6.21-6.51A18.93,18.93,0,0,1,679,42a17.12,17.12,0,0,1,11.29,3.72,12.8,12.8,0,0,1,4.8,9.64h-6.53a8.42,8.42,0,0,0-3-5.88,9.77,9.77,0,0,0-6.59-2.3,10,10,0,0,0-8.16,3.46q-2.89,3.46-2.89,10V61.8q0,6.38,2.87,9.82T679,75.06Z"/><path class="cls-4" d="M719.59,80.21q-8.21,0-13.36-4.93t-5.16-13.17V61a20.52,20.52,0,0,1,2.3-9.8,16.84,16.84,0,0,1,6.42-6.75A17.22,17.22,0,0,1,718.73,42q7.88,0,12.25,4.74t4.37,13.57v2.62H708a12.42,12.42,0,0,0,3.49,8.81A11.48,11.48,0,0,0,720,75.06a12.94,12.94,0,0,0,6.2-1.36,15.31,15.31,0,0,0,4.45-3.62l4.21,3Q729.75,80.21,719.59,80.21Zm-.86-33.07a9.65,9.65,0,0,0-7,2.78,13,13,0,0,0-3.51,7.79h20.24v-.48a11.37,11.37,0,0,0-2.84-7.45A9.08,9.08,0,0,0,718.73,47.14Z"/><g id="Layer_1-2" data-name="Layer 1"><path class="cls-5" d="M767.5,89.14c-1.26,2-2.67,4.43-3.87,6.32a3.87,3.87,0,0,0,1.3,5.26l25.13,15.47a3.88,3.88,0,0,0,5.36-1.32c1-1.68,2.3-3.86,3.71-6.2,10-16.44,20-14.43,38-5.8l24.92,11.85a3.88,3.88,0,0,0,3,.13,3.84,3.84,0,0,0,2.19-2.07l12-27.06a3.86,3.86,0,0,0-1.93-5.07c-5.26-2.47-15.72-7.41-25.14-12C818.31,52.25,789.52,53.31,767.5,89.14Z"/><path class="cls-6" d="M880.2,27.71c1.26-2.05,2.67-4.43,3.87-6.32a3.87,3.87,0,0,0-1.3-5.26L857.64.66a3.89,3.89,0,0,0-3-.56,3.85,3.85,0,0,0-2.47,1.84c-1,1.68-2.3,3.86-3.72,6.2-9.95,16.44-20,14.43-38,5.8L785.54,2.15a3.87,3.87,0,0,0-5.2,1.93l-12,27.07a3.87,3.87,0,0,0,1.93,5.07c5.26,2.47,15.72,7.4,25.14,11.94C829.39,64.6,858.18,63.5,880.2,27.71Z"/></g></g></g></svg>