<svg xmlns="http://www.w3.org/2000/svg" viewBox="0 0 498.12 116.05"><g id="Layer_2" data-name="Layer 2"><g id="Mina_CLI" data-name="Mina CLI"><g id="logo-black"><line x1="73.65" y1="51.05" x2="73.65" y2="72.4" style="fill:#212120;stroke:#212120;stroke-linecap:round;stroke-miterlimit:10;stroke-width:8.50393676757813px"/><rect x="34.1" width="77.12" height="50.51" rx="12" style="fill:#212120"/><rect x="34.1" y="65.54" width="77.12" height="50.51" rx="12" style="fill:#212120"/><line x1="18.65" y1="31.39" x2="7.5" y2="56.2" style="fill:#212120;stroke:#212120;stroke-linecap:square;stroke-miterlimit:10;stroke-width:11.3385829925537px"/><line x1="18.65" y1="85.79" x2="7.5" y2="60.98" style="fill:#212120;stroke:#212120;stroke-linecap:square;stroke-miterlimit:10;stroke-width:11.3385829925537px"/><line x1="126.67" y1="85.79" x2="137.83" y2="60.98" style="fill:#212120;stroke:#212120;stroke-linecap:square;stroke-miterlimit:10;stroke-width:11.3385829925537px"/><line x1="126.67" y1="31.39" x2="137.83" y2="56.2" style="fill:#212120;stroke:#212120;stroke-linecap:square;stroke-miterlimit:10;stroke-width:11.3385829925537px"/></g><path d="M180.46,28.2l20,43.81L220.64,28.2h6.12V77.84h-4.59V56.22l.37-22.15L202.31,77.84h-3.55L178.6,34.24,179,56.09V77.84h-4.59V28.2Z" style="fill:#212120"/><path d="M239.23,30.3a2.6,2.6,0,0,1,.82-1.95,3.1,3.1,0,0,1,2.24-.8,3.15,3.15,0,0,1,2.26.8,2.58,2.58,0,0,1,.84,1.95,2.52,2.52,0,0,1-.84,1.93,3.18,3.18,0,0,1-2.26.78,3.13,3.13,0,0,1-2.24-.78A2.54,2.54,0,0,1,239.23,30.3Zm5.27,47.54H240V41h4.48Z" style="fill:#212120"/><path d="M260.89,41l.15,6.31a15.31,15.31,0,0,1,5.67-5.2,15.88,15.88,0,0,1,7.5-1.79q6.51,0,9.67,3.34t3.21,10V77.84h-4.44V53.6c0-3.3-.79-5.75-2.29-7.36s-3.92-2.43-7.23-2.43a12,12,0,0,0-7.33,2.37,13.88,13.88,0,0,0-4.73,6.4V77.84h-4.44V41Z" style="fill:#212120"/><path d="M324.13,77.84a17.92,17.92,0,0,1-.86-5.15,15.37,15.37,0,0,1-6,4.31,19.89,19.89,0,0,1-7.71,1.52,14.37,14.37,0,0,1-9.43-3,9.3,9.3,0,0,1-3.6-7.5,9.66,9.66,0,0,1,4.91-8.52c3.27-2.09,7.84-3.14,13.68-3.14h8.11V52.2A7.72,7.72,0,0,0,320.57,46q-2.67-2.26-7.79-2.27a13,13,0,0,0-7.73,2.18A6.35,6.35,0,0,0,302,51.14l-4.48,0q0-4.39,4.48-7.62a18.37,18.37,0,0,1,11-3.22q6.75,0,10.66,3.08a10.68,10.68,0,0,1,4,8.61V69.42c0,3.57.41,6.23,1.23,8v.41Zm-14-2.94a16.07,16.07,0,0,0,8-2,12,12,0,0,0,5.14-5.29V59.53h-8q-6.69.07-10.46,2.23T301,67.71a6.36,6.36,0,0,0,2.52,5.15A10.1,10.1,0,0,0,310.09,74.9Z" style="fill:#212120"/><path d="M398.36,62.09q-1,7.88-6.37,12.15t-14.24,4.28q-9.63,0-15.44-6.31T356.5,55.34V50.56a26.14,26.14,0,0,1,2.71-12.17,19.08,19.08,0,0,1,7.67-8.06,23,23,0,0,1,11.5-2.81q8.67,0,13.89,4.41t6.09,12.22h-7.21q-.93-5.94-4-8.61c-2.08-1.78-5-2.67-8.72-2.67q-6.87,0-10.77,4.64t-3.9,13.21v4.81q0,8.09,3.69,12.86a12.37,12.37,0,0,0,10.35,4.78q6,0,9.16-2.48t4.24-8.6Z" style="fill:#9e9d9e"/><path d="M415.34,72.48h25.77v5.36h-33V28.2h7.2Z" style="fill:#9e9d9e"/><path d="M457,77.84H449.8V28.2H457Z" style="fill:#9e9d9e"/><path d="M498.12,83h-34.2V77.84h34.2Z" style="fill:#9e9d9e"/></g></g></svg>