<svg xmlns="http://www.w3.org/2000/svg" viewBox="0 0 702.72 119.3"><defs><style>.cls-1,.cls-2,.cls-3{fill:#212120;}.cls-1,.cls-3{stroke:#212120;stroke-miterlimit:10;}.cls-1{stroke-linecap:round;stroke-width:8.5px;}.cls-3{stroke-linecap:square;stroke-width:11.34px;}.cls-4{fill:#70cff0;}.cls-5,.cls-6{fill:none;stroke:#70cff0;}.cls-5{stroke-width:5.82px;}.cls-6{stroke-width:5.82px;}</style></defs><g id="Layer_2" data-name="Layer 2"><g id="Mina_React" data-name="Mina React"><g id="logo-black"><line class="cls-1" x1="73.65" y1="54.19" x2="73.65" y2="75.54"/><rect class="cls-2" x="34.1" y="3.14" width="77.12" height="50.51" rx="12"/><rect class="cls-2" x="34.1" y="68.68" width="77.12" height="50.51" rx="12"/><line class="cls-3" x1="18.65" y1="34.53" x2="7.5" y2="59.35"/><line class="cls-3" x1="18.65" y1="88.94" x2="7.5" y2="64.12"/><line class="cls-3" x1="126.67" y1="88.94" x2="137.83" y2="64.12"/><line class="cls-3" x1="126.67" y1="34.53" x2="137.83" y2="59.35"/></g><path class="cls-2" d="M180.46,31.35l20,43.8,20.13-43.8h6.12V81h-4.59V59.37l.37-22.16L202.31,81h-3.55L178.6,37.38,179,59.23V81h-4.59V31.35Z"/><path class="cls-2" d="M239.23,33.44a2.6,2.6,0,0,1,.82-1.95,3.1,3.1,0,0,1,2.24-.79,3.15,3.15,0,0,1,2.26.79,2.58,2.58,0,0,1,.84,1.95,2.52,2.52,0,0,1-.84,1.93,3.18,3.18,0,0,1-2.26.78,3.13,3.13,0,0,1-2.24-.78A2.54,2.54,0,0,1,239.23,33.44ZM244.5,81H240V44.1h4.48Z"/><path class="cls-2" d="M260.89,44.1l.15,6.3a15.39,15.39,0,0,1,5.67-5.2,15.88,15.88,0,0,1,7.5-1.79q6.51,0,9.67,3.34t3.21,10V81h-4.44V56.74c0-3.29-.79-5.75-2.29-7.36S276.44,47,273.13,47a12,12,0,0,0-7.33,2.37,13.91,13.91,0,0,0-4.73,6.39V81h-4.44V44.1Z"/><path class="cls-2" d="M324.13,81a17.85,17.85,0,0,1-.86-5.15,15.39,15.39,0,0,1-6,4.32,19.88,19.88,0,0,1-7.71,1.51,14.42,14.42,0,0,1-9.43-3,9.32,9.32,0,0,1-3.6-7.5,9.69,9.69,0,0,1,4.91-8.53c3.27-2.09,7.84-3.13,13.68-3.13h8.11V55.35a7.75,7.75,0,0,0-2.67-6.23q-2.67-2.26-7.79-2.26A13,13,0,0,0,305.05,49,6.33,6.33,0,0,0,302,54.29l-4.48,0q0-4.39,4.48-7.61a18.38,18.38,0,0,1,11-3.23q6.75,0,10.66,3.09a10.66,10.66,0,0,1,4,8.61V72.56q0,5.35,1.23,8V81Zm-14-2.93a16.07,16.07,0,0,0,8-2,12,12,0,0,0,5.14-5.28V62.67h-8q-6.69.07-10.46,2.24t-3.77,6A6.35,6.35,0,0,0,303.54,76,10,10,0,0,0,310.09,78.05Z"/><path class="cls-4" d="M378.31,60.9H365.54V81h-7.21V31.35h18q9.18,0,14.13,3.81t5,11.12a12.59,12.59,0,0,1-2.75,8.08A16.32,16.32,0,0,1,385,59.5L397.8,80.57V81h-7.7Zm-12.77-5.35h11q5.34,0,8.5-2.53a8.22,8.22,0,0,0,3.15-6.76,8.62,8.62,0,0,0-3-7.07c-2-1.64-4.9-2.47-8.69-2.49h-11Z"/><path class="cls-4" d="M421.13,81.66q-8.22,0-13.37-4.92t-5.15-13.18V62.4a20.55,20.55,0,0,1,2.3-9.8,17,17,0,0,1,6.42-6.75,17.31,17.31,0,0,1,8.94-2.44q7.88,0,12.25,4.74t4.37,13.57v2.63H409.52A12.46,12.46,0,0,0,413,73.16a11.48,11.48,0,0,0,8.49,3.36,12.94,12.94,0,0,0,6.2-1.37,15.11,15.11,0,0,0,4.44-3.61l4.22,3Q431.29,81.67,421.13,81.66Zm-.86-33.06a9.64,9.64,0,0,0-7,2.77,13,13,0,0,0-3.51,7.79H430v-.47a11.4,11.4,0,0,0-2.84-7.45A9.08,9.08,0,0,0,420.27,48.6Z"/><path class="cls-4" d="M469.82,81a12.23,12.23,0,0,1-1-3.89,16.1,16.1,0,0,1-11.49,4.57,15.14,15.14,0,0,1-9.8-3.08,9.62,9.62,0,0,1-3.83-7.83,10.13,10.13,0,0,1,4.8-8.94q4.78-3.2,13.49-3.19h6.72v-2.9a6.78,6.78,0,0,0-2.16-5.27c-1.45-1.3-3.57-2-6.39-2A10.69,10.69,0,0,0,454,50.2a4.92,4.92,0,0,0-2.51,4.12h-6.94A8.19,8.19,0,0,1,446.69,49a14.52,14.52,0,0,1,5.82-4.08,21.21,21.21,0,0,1,8.08-1.5q7,0,10.94,3.19a11.07,11.07,0,0,1,4.11,8.78v17a19.1,19.1,0,0,0,1.42,8.08V81Zm-11.47-4.81a13,13,0,0,0,6.16-1.53,9.63,9.63,0,0,0,4.22-4V63.08h-5.41q-12.69,0-12.69,6.79a5.51,5.51,0,0,0,2.16,4.63A8.8,8.8,0,0,0,458.35,76.17Z"/><path class="cls-4" d="M502.67,76.52a10.57,10.57,0,0,0,6.46-2,7.06,7.06,0,0,0,3.06-5.11h6.54a10.94,10.94,0,0,1-2.39,6A15.5,15.5,0,0,1,510.46,80a18.43,18.43,0,0,1-7.79,1.7q-8.25,0-13.12-5t-4.87-13.75V61.82a20.64,20.64,0,0,1,2.16-9.58,15.68,15.68,0,0,1,6.22-6.51,19,19,0,0,1,9.57-2.32,17.15,17.15,0,0,1,11.3,3.72,12.82,12.82,0,0,1,4.8,9.65h-6.54a8.38,8.38,0,0,0-3-5.88,9.7,9.7,0,0,0-6.59-2.3,10,10,0,0,0-8.15,3.46q-2.89,3.45-2.9,10v1.19q0,6.38,2.88,9.82T502.67,76.52Z"/><path class="cls-4" d="M535.86,35.16V44.1h7.54V49h-7.54v22.9a4.82,4.82,0,0,0,1,3.33,4.48,4.48,0,0,0,3.44,1.11,18.48,18.48,0,0,0,3.28-.41V81a21.53,21.53,0,0,1-5.3.68c-3.09,0-5.41-.85-7-2.55S529,75,529,71.85V49H521.6V44.1H529V35.16Z"/><g id="Layer_1-2" data-name="Layer 1"><circle class="cls-4" cx="635.84" cy="59.65" r="11.92"/><ellipse class="cls-5" cx="635.84" cy="59.65" rx="63.97" ry="24.43"/><ellipse class="cls-6" cx="635.84" cy="59.65" rx="24.43" ry="63.97" transform="translate(55.36 325.91) rotate(-30)"/><ellipse class="cls-6" cx="635.84" cy="59.65" rx="63.97" ry="24.43" transform="translate(266.26 580.48) rotate(-60)"/></g></g></g></svg>