<svg xmlns="http://www.w3.org/2000/svg" viewBox="0 0 246.15 145.07"><defs><style>.cls-1{fill:#d0d0ce;}.cls-2{fill:none;}.cls-3{fill:#fff;}</style></defs><g id="Layer_2" data-name="Layer 2"><g id="Docs_summary" data-name="Docs summary"><g id="Design"><g id="arrow"><polygon class="cls-1" points="119.91 49.09 119.82 49.03 119.94 49.31 119.91 49.09"/><path class="cls-1" d="M120.71,49.91c.05,0,.09.11.14.14l-.29-.84C120.18,48.9,121,50.11,120.71,49.91Z" transform="translate(-0.78)"/><path class="cls-1" d="M120.6,49.89c-.2-.09,0,.25.06.37C120.5,50,120.87,50.22,120.6,49.89Z" transform="translate(-0.78)"/><path class="cls-1" d="M113.39,55.92a.06.06,0,0,0,0,0S113.38,55.9,113.39,55.92Z" transform="translate(-0.78)"/><path class="cls-1" d="M112.44,58.54l.19.25c0-.72.73-.63.92-1.13l0,.11A13.57,13.57,0,0,0,115.9,55s.06.12.07.16c0-.12-.1-.32,0-.34A.26.26,0,0,1,116,55c.52.24.36-.73.74-.52a.51.51,0,0,0-.23-.38,14.26,14.26,0,0,0,1.9-2.34.76.76,0,0,1,.27.29c.14-1.17,1-1.44,1.79-1.85-.11-.2-.21-.14-.28-.37-.38-.06-.07.74-.51.57l-.1-.19c-.23,0,.3.45,0,.34-.17-.09-.15-.22-.19-.22-.25.31-.68.4-.65,1-.36-.31-.34.24-.72,0,0,.21-.08.23.08.49-1.22.62-2,1.86-3.06,2.71.08,1.1-1.2.76-1.59,1.48l-.06-.07a.92.92,0,0,1-.54.76l.06.45c-1.84.59-2.87,2.17-4.4,3.17-1.66,1.23-3.44,2-4.05,4.24-.06-.07-.1-.09-.09-.15-.29.53-.89.66-1.15,1.17l-.06-.06c-.46,1.45-2.06,1.91-2.41,3.38a24.37,24.37,0,0,0-3.34,3.77l-.13-.13c-.66,1.21-2.22,1.52-2.92,2.69-1.24.72-1.16,2.76-2.48,3.41-1.23,0-.58,2.14-1.79,2.14-2.12.32-2.52,2.12-3,3.9-1.37.83-1.39,2.8-3.09,3.29,0,.94-1.55.62-1.89,1.35l.19.11c-.7-.2.33,1.08-.55.58l0,0c-.49-.2.71,1,.19.71l.18.18c-.06.18-.24-.17-.4-.12,0,.06.34.3.16.29-.81-.62-.1.48-1-.22.06-.08-.45-.16-.5-.48-.13,0-.27.25.13.53s.67.71,1.1.81l-.28-.26a2.46,2.46,0,0,1,.41.24c.19-.15.64.16.92.17l0,0c-.28-.37,0-.33.13-.36l.19.1c.38.23-.5-.74,0-.22A4.59,4.59,0,0,1,83.85,90c-.17-.24.28-.3-.22-.56.58.3,1,.09,1,0,0,0,.09.09.06.09.81.3-.37-.74.57-.31-.51-.48.49-.23-.05-.88a1.15,1.15,0,0,1,.34.25c.32-.37.87-.61,1.16-.91-.25-.66.76-.46.3-1.25.3-.07.83-.15.8-.63l.06.09a1.28,1.28,0,0,0,.28-1.29c.69.45.68.21,1,.26-.12-.45.32-.78.32-1.31.32.2.1-.35.52,0,0-1.53,1.15-2.34,2.55-2.7l0,0c-.12-.32-.49-.9-.68-1.27,0,0,.12.08.09.1.07-.23.61,0,.68-.25a.3.3,0,0,1,.11.14c0-.31.61,0,.46-.48l.12.09,0-.26c.13.13.33.32.23.34,1.38-1.29,2-3.33,3.45-4.66l.08.17,0-.49a.4.4,0,0,1,.11.15c.55-.13.52-.84.9-1.13.06.06.14.24.26.26-.12-.59.85,0,.23-.79a1,1,0,0,1,.25.25,5.58,5.58,0,0,1,1.91-2.2c-.09-1.22,1.14-1.27,1.21-2.38l.13.13c.3-1.23,1.61-1.55,2.33-2.42.39-.27.47-.65.8-1l.16.15c0-1.18,1.73-.59,1.68-1.84l.17.26c-.24-.44.48-.21-.12-.78l.28.08c-.34-1.18,1.09-.32,1.11-1.31l.1.18c0-.24.11-.48.33-.43,0,0,0,.07,0,.14,1,.18.83-.89,1.3-1.27l.19.31c-.07-.51.6-.56.76-1l.1.14,0-.31.24.26C111.94,59.43,112.1,58.89,112.44,58.54Z" transform="translate(-0.78)"/><path class="cls-1" d="M116,55h0S116,55,116,55Z" transform="translate(-0.78)"/><path class="cls-1" d="M82.77,91.79h-.09C82.74,91.84,82.75,91.8,82.77,91.79Z" transform="translate(-0.78)"/><polygon class="cls-1" points="77.72 83.8 77.61 83.81 77.91 83.79 77.72 83.8"/><path class="cls-1" d="M79.16,83.8l.2,0-.84,0C78,83.88,79.48,83.76,79.16,83.8Z" transform="translate(-0.78)"/><path class="cls-1" d="M79.08,83.82c-.2,0,.2,0,.33,0C79.1,83.83,79.5,83.77,79.08,83.82Z" transform="translate(-0.78)"/><path class="cls-1" d="M79.39,85h0Z" transform="translate(-0.78)"/><path class="cls-1" d="M80.76,85.23l.31,0c-.56,0,0-.13-.25-.17h.11c.1-.17-.43-.27-.69-.41h.16a2.25,2.25,0,0,1-.28,0h.18c.51-.08-.34-.07.06-.13l-.44,0a1.23,1.23,0,0,0-.67-.33l.39,0c-.86,0-.53-.18-.41-.31-.22,0-.23,0-.46,0s.55,0,.15.08l-.21,0c-.14,0,.53,0,.26,0a1.75,1.75,0,0,1-.29,0c.1,0-.09.12.43.12-.46.05,0,.05-.45.11a2.38,2.38,0,0,0,.45,0c-.23.2.23.34.22.52.9,0-.16.21.15.28h-.09c.22,0,.33,0,.23.1H80c-.76.31-.19.5-.49.77s-.82.6.39.75h-.18c.19.06-.12.16.07.21H79.7c.76.11-.06.38.75.48a.63.63,0,0,0,.29.65h-.17c.39.14-.54.41-.24.56-.38.22,1.06.27.53.51-.86.2,1,.17.13.36-1.34.35-.44.48.4.62-.47.25.79.33-.18.62.65,0-.76.27-.57.36l.22,0c-.66.1.94,0,0,.11h0c-.51.07,1.18-.06.59,0l.25,0c.07,0-.29,0-.38,0s.45,0,.31,0c-1,.1.22,0-.92.15,0,0-.44.06-.68,0s-.06.06.43,0,1-.07,1.36-.14l-.38,0,.47-.05c.05,0,.59-.09.82-.14h0c-.45,0-.19,0-.13,0l.21,0c.44,0-.86,0-.11,0-.19,0-.19-.12-.2-.19-.29,0,0-.06-.53,0,.63-.08.78-.15.75-.17s.13,0,.11,0c.8-.12-.76,0,.23-.11-.7.07.22-.08-.61,0l.42,0c0-.07.26-.16.28-.22-.62,0,.27-.14-.58-.1.17-.05.52-.14.18-.15h.1s-.1-.11-.64-.09a5.66,5.66,0,0,0,.91-.15c-.38,0-.28-.08-.63-.1.38-.05-.16,0,.38-.09-1.06,0-.71-.27.07-.5h0l-1.36.07a.37.37,0,0,1,.14,0c-.11,0,.43-.1.33-.12h.17c-.24,0,.43-.1,0-.09l.14,0h-.2l.39,0c.15-.27-.81-.44-.7-.71H82l-.32,0h.18c.3-.09-.22-.11-.14-.18s.26,0,.36,0c-.5,0,.63-.14-.39-.06l.36,0c-.35-.09-.35-.23-.2-.37-.93,0-.1-.22-.85-.26l.19,0c-.66-.08,0-.3-.13-.44.07-.07-.16-.09-.17-.15l.23,0c-.89,0,.76-.3-.21-.32l.31,0c-.48,0,.16-.08-.66,0l.25,0c-1.1,0,.49-.19-.23-.21h.2c-.16,0-.28,0-.1-.06h.14c.77-.15-.1-.15-.08-.24l.37,0c-.44,0,0-.11-.24-.14l.17,0h-.25l.35,0C81.11,85.33,80.8,85.3,80.76,85.23Z" transform="translate(-0.78)"/><path class="cls-1" d="M80.3,84.6h0Z" transform="translate(-0.78)"/><path class="cls-1" d="M82.71,91.06h0Z" transform="translate(-0.78)"/><polygon class="cls-1" points="89.77 87.03 89.74 86.93 89.79 87.22 89.77 87.03"/><path class="cls-1" d="M90.6,87.69s0,.14.05.19l-.12-.83C90.41,86.59,90.68,88,90.6,87.69Z" transform="translate(-0.78)"/><path class="cls-1" d="M90.57,87.61c0-.19,0,.2,0,.33C90.56,87.64,90.66,88,90.57,87.61Z" transform="translate(-0.78)"/><path class="cls-1" d="M89,88.13a0,0,0,0,0,0,0Z" transform="translate(-0.78)"/><path class="cls-1" d="M88.89,89.52l.06.31c0-.56.17,0,.2-.28l0,.11c.23.08.31-.48.47-.75,0,0,0,.12,0,.16s0-.31,0-.29a1.64,1.64,0,0,0,0,.18c.14.5.06-.35.16,0a1.84,1.84,0,0,0-.07-.43,1.36,1.36,0,0,0,.36-.73,2.13,2.13,0,0,1,.09.38c0-.85.18-.55.35-.45,0-.22-.06-.23-.09-.46s0,.55-.1.17l0-.21c0-.13.11.53,0,.26s0-.27-.06-.28-.15-.08-.11.45c-.11-.46-.07,0-.19-.44a3.74,3.74,0,0,0,.05.45c-.27-.2-.41.29-.65.31.08.9-.27-.13-.34.2a.2.2,0,0,0,0-.09c0,.22,0,.34-.1.24l0,.38c-.46-.7-.65-.1-1-.36s-.83-.72-.93.51c0-.09,0-.13,0-.17-.06.2-.21-.1-.26.1l0-.09c-.08.78-.5,0-.55.83a1,1,0,0,0-.81.4l0-.17c-.15.41-.56-.47-.73-.14-.31-.35-.27,1.09-.62.61-.32-.83-.13,1-.45.19-.55-1.28-.65-.36-.76.5-.36-.43-.36.85-.81-.07,0,.64-.41-.73-.5-.52l0,.22c-.18-.65.08.94-.15,0v0c-.13-.49.18,1.18,0,.6l.05.24c0,.08-.06-.28-.11-.37s.09.45,0,.31c-.2-1,0,.23-.26-.89,0,0-.11-.43-.12-.67s-.08,0,0,.42.18,1,.29,1.34l-.07-.37.1.46a7.33,7.33,0,0,1,.24.79.08.08,0,0,0,0,0c-.07-.44,0-.19,0-.13l0,.21c.1.43-.12-.85,0-.11a.27.27,0,0,1,.23-.24c0-.28.08,0,0-.52.15.61.25.75.27.72s0,.12,0,.1c.22.79-.09-.75.16.22-.14-.69.12.2,0-.62,0,.16.07.29.09.42s.23.23.31.24c-.06-.61.2.25.08-.6.08.17.22.5.21.16l0,.1c.05-.06.13-.12.07-.66a3.73,3.73,0,0,0,.26.88c0-.38.08-.29.08-.64.09.37,0-.17.14.37,0-1.07.29-.76.65,0v0c0-.3-.14-1-.19-1.34,0,0,0,.13,0,.13s.16.41.18.31a.86.86,0,0,1,0,.17c0-.25.16.41.12,0l0,.14,0-.2a2.27,2.27,0,0,1,.07.39c.35.1.5-.88.85-.82l0,.17v-.31a1.09,1.09,0,0,0,0,.17c.14.29.12-.23.22-.17a2.41,2.41,0,0,0,.07.35c0-.49.22.61,0-.4a2.56,2.56,0,0,1,.07.36c.1-.37.27-.39.47-.26,0-.93.27-.14.27-.89l0,.18c.06-.67.39,0,.56-.2.09,0,.1-.17.18-.2l0,.23c0-.89.44.71.38-.26l.06.31c-.08-.48.11.15-.06-.67l.07.25c-.12-1.1.28.46.25-.27l0,.2c0-.16,0-.28.08-.11s0,.08,0,.14c.26.74.19-.13.3-.12l.06.36c0-.43.14,0,.16-.26l0,.17v-.25l.07.35C88.8,89.89,88.82,89.58,88.89,89.52Z" transform="translate(-0.78)"/><path class="cls-1" d="M89.67,89h0S89.67,89,89.67,89Z" transform="translate(-0.78)"/><path class="cls-1" d="M81.59,92.44l0-.07C81.58,92.44,81.58,92.43,81.59,92.44Z" transform="translate(-0.78)"/></g><g id="arrow-2" data-name="arrow"><polygon class="cls-1" points="137.36 49.61 137.29 49.7 137.58 49.58 137.36 49.61"/><path class="cls-1" d="M139,49.59a1.79,1.79,0,0,0,.14-.13l-.84.28C138,50.13,139.17,49.34,139,49.59Z" transform="translate(-0.78)"/><path class="cls-1" d="M138.94,49.71c-.09.2.25,0,.38-.06C139.05,49.8,139.27,49.43,138.94,49.71Z" transform="translate(-0.78)"/><path class="cls-1" d="M145,56.91h0S145,56.92,145,56.91Z" transform="translate(-0.78)"/><path class="cls-1" d="M147.59,57.87l.26-.19c-.72,0-.63-.73-1.13-.93l.1,0a13.74,13.74,0,0,0-2.77-2.29s.11-.07.15-.07c-.12,0-.32.1-.34,0a.24.24,0,0,1,.17-.08c.23-.53-.74-.37-.53-.75-.09,0-.28.1-.38.23a14.13,14.13,0,0,0-2.33-1.89.73.73,0,0,1,.28-.28c-1.17-.14-1.44-1-1.85-1.79-.2.11-.13.21-.37.29,0,.38.74.06.57.5l-.19.11c0,.23.45-.3.35,0-.1.16-.23.15-.22.18.3.25.4.69,1,.66-.32.35.24.33,0,.72.21,0,.23.07.5-.09.61,1.23,1.86,2,2.7,3.06,1.1-.08.77,1.2,1.48,1.59a.13.13,0,0,1-.07.06,1,1,0,0,1,.76.54l.45-.06c.6,1.84,2.18,2.88,3.18,4.41,1.22,1.65,2,3.44,4.23,4-.06.06-.09.11-.15.09.53.29.67.9,1.18,1.15l-.07.07c1.46.45,1.91,2,3.39,2.41a24.82,24.82,0,0,0,3.76,3.34l-.13.12c1.22.66,1.52,2.22,2.69,2.92.72,1.24,2.76,1.16,3.42,2.49,0,1.23,2.13.58,2.13,1.78.33,2.12,2.12,2.52,3.9,3,.84,1.36,2.8,1.38,3.29,3.08.94,0,.63,1.55,1.35,1.9l.12-.19c-.21.7,1.07-.34.58.55H179c-.21.49,1-.71.7-.18l.18-.18c.18,0-.16.23-.12.4.06,0,.3-.35.3-.17-.62.81.48.1-.23,1-.08-.06-.15.44-.48.49,0,.13.26.28.53-.12s.71-.67.82-1.1l-.26.27a2.62,2.62,0,0,1,.24-.41c-.16-.18.16-.63.17-.92l0,0c-.37.28-.33,0-.36-.14l.11-.19c.23-.37-.75.5-.22,0a4.39,4.39,0,0,1-1.33-.84c-.24.17-.31-.28-.56.22.29-.57.08-1,0-1,0-.05.08-.09.09-.06.3-.81-.75.36-.32-.58-.48.52-.23-.48-.88.06a1.66,1.66,0,0,1,.25-.35c-.37-.32-.61-.86-.9-1.15-.67.24-.47-.76-1.25-.31-.08-.3-.15-.83-.64-.8l.09,0a1.26,1.26,0,0,0-1.28-.28c.44-.7.21-.68.25-1-.45.11-.78-.32-1.31-.32.21-.33-.35-.1,0-.53-1.54,0-2.35-1.15-2.71-2.55h0c-.32.12-.89.49-1.27.67,0-.05.08-.11.1-.09-.23-.07,0-.61-.25-.68a.28.28,0,0,1,.15-.11c-.32,0,0-.61-.49-.45l.09-.12-.25,0c.12-.14.31-.33.33-.23-1.28-1.39-3.33-2-4.66-3.46l.17-.07-.49,0a.63.63,0,0,1,.15-.1c-.13-.55-.84-.53-1.12-.91.06-.06.23-.14.25-.25-.59.11.05-.85-.79-.23a.78.78,0,0,1,.26-.25,5.61,5.61,0,0,1-2.2-1.92c-1.22.1-1.27-1.14-2.39-1.21l.14-.12c-1.24-.31-1.56-1.62-2.43-2.34-.27-.39-.64-.46-1-.79l.16-.17c-1.18,0-.59-1.73-1.85-1.67l.27-.18c-.44.24-.22-.48-.79.13l.08-.28c-1.18.34-.32-1.1-1.31-1.12l.18-.1c-.24,0-.47-.1-.43-.32,0,0,.07,0,.14-.06.19-.94-.88-.83-1.27-1.29l.32-.2c-.52.07-.57-.6-1-.75l.14-.1-.31,0,.26-.24C148.48,58.36,147.94,58.21,147.59,57.87Z" transform="translate(-0.78)"/><path class="cls-1" d="M144,54.29h0S144.05,54.29,144,54.29Z" transform="translate(-0.78)"/><path class="cls-1" d="M180.85,87.53v.09C180.89,87.57,180.85,87.56,180.85,87.53Z" transform="translate(-0.78)"/><polygon class="cls-1" points="172.07 91.8 172.08 91.91 172.06 91.61 172.07 91.8"/><path class="cls-1" d="M172.85,91.14s0-.14,0-.19l0,.84C172.93,92.26,172.81,90.83,172.85,91.14Z" transform="translate(-0.78)"/><path class="cls-1" d="M172.87,91.23c0,.19,0-.2,0-.33C172.89,91.2,172.83,90.8,172.87,91.23Z" transform="translate(-0.78)"/><path class="cls-1" d="M174.09,90.92v0Z" transform="translate(-0.78)"/><path class="cls-1" d="M174.29,89.55l0-.31c0,.56-.13,0-.17.25v-.11c-.18-.11-.28.43-.42.68a.92.92,0,0,0,0-.16,1.61,1.61,0,0,1,0,.29c0-.07,0-.15,0-.18-.08-.52-.06.34-.12-.06a2.86,2.86,0,0,0,0,.44,1.26,1.26,0,0,0-.33.67c0-.07,0-.21,0-.39,0,.85-.18.53-.3.4,0,.22,0,.23,0,.46s0-.54.09-.14v.21c0,.13,0-.54,0-.27s0,.28,0,.29.11.1.11-.43c.06.47.06,0,.12.45,0-.18,0-.13,0-.44.2.23.33-.24.52-.22,0-.9.2.15.27-.16a.38.38,0,0,1,0,.1c0-.23,0-.34.1-.23v-.38c.31.75.5.18.77.48s.59.82.74-.38a.54.54,0,0,1,0,.17c.06-.19.16.13.22-.07v.09c.1-.75.38.07.47-.75a.63.63,0,0,0,.65-.29l0,.18c.14-.39.4.53.55.23.22.39.28-1,.51-.53.2.86.17-1,.36-.13.35,1.34.48.45.62-.39.25.47.34-.8.63.17,0-.64.27.77.35.58l0-.22c.1.66,0-.94.11,0v.05c.07.5-.07-1.19,0-.59l0-.25c0-.07,0,.28.06.38a3,3,0,0,1,0-.31c.1,1,0-.23.15.91a6.85,6.85,0,0,1,.06.69c0,.11.05,0,0-.43s-.07-1-.13-1.36l0,.37c0-.37,0-.19,0-.47a7.16,7.16,0,0,1-.14-.81v0c0,.45,0,.19,0,.12l0-.21c0-.43,0,.86,0,.11,0,.19-.12.19-.19.21,0,.28-.06,0,0,.52-.08-.62-.14-.77-.16-.75s0-.12,0-.1c-.11-.81,0,.76-.1-.23.06.7-.09-.22,0,.6,0-.15,0-.29,0-.42s-.16-.25-.22-.28c0,.62-.14-.27-.1.59,0-.18-.13-.53-.15-.18v-.11c-.05.06-.11.11-.1.65a4.37,4.37,0,0,0-.15-.91c0,.38-.08.28-.1.62,0-.37,0,.17-.08-.38-.05,1.07-.27.72-.51-.06v0c0,.3,0,1,.06,1.35a.93.93,0,0,1,0-.13c0,.1-.1-.43-.12-.33a1.09,1.09,0,0,1,0-.18c0,.25-.1-.43-.09,0l0-.15v.21a2.26,2.26,0,0,1,0-.39c-.27-.16-.44.8-.71.69v-.17l0,.31a1.36,1.36,0,0,1,0-.18c-.1-.3-.11.22-.18.15s0-.26,0-.36c0,.49-.13-.63-.06.39a3.48,3.48,0,0,1,0-.36c-.1.35-.23.34-.38.19,0,.93-.22.11-.26.85v-.18c-.09.66-.31,0-.44.13-.07-.07-.1.15-.16.17l0-.23c0,.88-.3-.76-.32.21l0-.32c0,.49-.08-.16,0,.67l-.05-.25c0,1.1-.18-.49-.21.23v-.2c0,.15,0,.28-.06.1s0-.09,0-.14c-.15-.77-.15.1-.23.07l0-.36c0,.43-.11,0-.14.24v.07l0-.34C174.38,89.2,174.35,89.5,174.29,89.55Z" transform="translate(-0.78)"/><path class="cls-1" d="M173.65,90h0S173.65,90,173.65,90Z" transform="translate(-0.78)"/><path class="cls-1" d="M180.11,87.6a.64.64,0,0,1,0,.07C180.12,87.6,180.12,87.61,180.11,87.6Z" transform="translate(-0.78)"/><polygon class="cls-1" points="175.3 79.75 175.2 79.78 175.49 79.73 175.3 79.75"/><path class="cls-1" d="M176.74,79.7l.2,0-.84.12C175.64,79.9,177.05,79.62,176.74,79.7Z" transform="translate(-0.78)"/><path class="cls-1" d="M176.66,79.73c-.18.06.2,0,.34,0C176.69,79.75,177.08,79.64,176.66,79.73Z" transform="translate(-0.78)"/><path class="cls-1" d="M177.18,81.27h0S177.15,81.28,177.18,81.27Z" transform="translate(-0.78)"/><path class="cls-1" d="M178.58,81.41l.31-.06c-.57,0,0-.16-.28-.19l.11,0c.07-.23-.48-.32-.76-.47l.16,0-.28,0,.17,0c.51-.15-.35-.06,0-.17a3.19,3.19,0,0,0-.43.08,1.22,1.22,0,0,0-.73-.37l.39-.08c-.86,0-.56-.19-.46-.36-.21,0-.22.06-.45.1s.55,0,.16.09l-.21,0c-.13.06.53-.1.27,0l-.29.06c.1,0-.07.15.45.11-.45.1,0,.07-.43.18a2.39,2.39,0,0,0,.44,0c-.19.28.3.42.31.65.9-.07-.12.28.2.34l-.09,0c.23,0,.34,0,.24.11l.38,0c-.7.45-.1.65-.36,1s-.72.82.51.92l-.17,0c.2.06-.1.22.1.27l-.08,0c.77.08,0,.49.83.55a.92.92,0,0,0,.4.8l-.18,0c.42.15-.47.56-.14.73-.35.31,1.1.27.62.61-.83.32,1,.13.18.45-1.28.56-.36.65.5.77-.43.35.85.36-.07.81.65,0-.72.4-.51.5l.21-.05c-.65.18.94-.08,0,.14h0c-.49.13,1.17-.18.59,0l.24,0c.08,0-.27.06-.37.1s.45-.09.31,0c-1,.21.24,0-.89.26a5.55,5.55,0,0,1-.67.13c-.11,0-.05.07.43,0s.95-.17,1.34-.28l-.37.07.46-.11s.57-.16.79-.24h0c-.45.07-.19,0-.13,0l.2,0c.43-.09-.85.13-.11,0-.2,0-.21-.14-.23-.23-.29,0,0-.07-.53.06.61-.15.75-.25.72-.27l.11,0c.78-.21-.76.1.21-.15-.69.13.2-.13-.61,0l.41-.09c0-.09.23-.23.25-.3-.62.06.24-.21-.6-.09.16-.07.5-.21.15-.21h.1c-.06-.06-.12-.13-.65-.07a4,4,0,0,0,.88-.26c-.38,0-.29-.08-.64-.08.36-.09-.17,0,.36-.14-1.07,0-.76-.29,0-.66h0c-.3,0-1,.13-1.34.19l.13,0c-.1,0,.42-.16.31-.18l.17,0c-.24,0,.42-.16,0-.12l.15,0h-.21c.18,0,.45-.09.39-.06.11-.36-.88-.5-.81-.86l.17,0h-.32l.18,0c.28-.14-.24-.13-.18-.22s.26,0,.36-.07c-.5,0,.61-.22-.4,0l.35-.07c-.37-.09-.38-.27-.25-.46-.94,0-.15-.28-.9-.27l.18,0c-.67,0,0-.39-.2-.55.06-.09-.17-.1-.19-.18l.22,0c-.89,0,.72-.44-.26-.39l.31,0c-.48.08.15-.12-.66.06l.24-.08c-1.1.13.46-.27-.26-.25l.19,0c-.15,0-.28,0-.11-.07l.14,0c.75-.25-.12-.19-.11-.3l.36-.06c-.43,0-.06-.13-.27-.16l.17,0-.24,0,.34-.07C178.94,81.51,178.63,81.49,178.58,81.41Z" transform="translate(-0.78)"/><path class="cls-1" d="M178,80.64h0Z" transform="translate(-0.78)"/><path class="cls-1" d="M181.49,88.72l-.06,0C181.5,88.73,181.48,88.72,181.49,88.72Z" transform="translate(-0.78)"/></g><path class="cls-2" d="M105.06,104.89c-.12,7.56,1.54,20.18,1.19,27.73-.17,3.59-.8,7.21-3,10.25a4.61,4.61,0,0,1-4.61,1.83c-4.43-.43-8.89-.75-13.33-.79-12.25-.1-24.51,0-37.33,0l-42.75.87c-2.45.05-3.13-.47-3.47-2.92-.7-4.88-.09-9.73.62-14.55a86.61,86.61,0,0,1,4-16.72,20.89,20.89,0,0,1,3.52-6.84,4.38,4.38,0,0,1,4.1-1.64c4,.35,8,.31,12,.43,7,.22,14-.93,20.89-1.91,6.57-.94,13.16-1.76,19.76-2.35,8.55-.77,17.12-1.46,25.69-1.8a61.4,61.4,0,0,1,11.19,1" transform="translate(-0.78)"/><polygon class="cls-3" points="102.94 95.61 102.83 95.49 102.45 95.73 102.94 95.61"/><path class="cls-3" d="M101.43,95.94c0,.06,0,.14.07.2l1.41-.63C102.41,95,101.76,96.31,101.43,95.94Z" transform="translate(-0.78)"/><path class="cls-3" d="M101.05,95.8a.68.68,0,0,0-.88.2C100.39,95.73,101.1,96.23,101.05,95.8Z" transform="translate(-0.78)"/><path class="cls-3" d="M56.23,98.34l.15,0C56.3,98.29,56.25,98.31,56.23,98.34Z" transform="translate(-0.78)"/><path class="cls-3" d="M44.82,101.09l-.08.33c2.07-.89,4.59-.58,6.84-1.1l-.14.13c5.8-.54,11.08-1.77,16.82-2.6-.08.05-.1.14-.19.19a2,2,0,0,1,.87-.37c.09.07-.07.16-.17.2,1.26.41,3.55-.64,4.35-.3.33-.09.47-.32.26-.47,4.51-.5,9.35-.95,14-1.61a.27.27,0,0,1,.22.38,21.49,21.49,0,0,1,3-.58,22.07,22.07,0,0,1,3.1-.22,39.47,39.47,0,0,1,6.21.71c.19-.2-.38-.29,0-.46-1.28-.46-2.46.23-3.64-.27l.18-.2c-.88-.21-.22.52-1.12.19-.35-.21.11-.27-.06-.3-1,0-1.94,0-2.91,0a10.25,10.25,0,0,0-2.68.49c-.45-.45-2,.08-2.66-.32-.46.21-.94.19-1.1.5-6.4.13-12.88,1.11-19.38,1.66-3,1.26-6.7.62-10.29,1.35a.08.08,0,0,1,0-.09,17.87,17.87,0,0,1-4.27.72l-1.14.52A118.86,118.86,0,0,0,38,100.82a62.8,62.8,0,0,1-12.77.58c-2.46-.11-4.83-.21-7.13-.37-1.15-.08-2.28-.18-3.4-.29l-.88-.09a7.6,7.6,0,0,0-1.07,0,5.59,5.59,0,0,0-2.21.61,6.24,6.24,0,0,0-1.71,1.38,11.94,11.94,0,0,0-1.17,1.53,16.74,16.74,0,0,0-1.63,3.32,38.31,38.31,0,0,0-1.79,6.93c-.08,0-.15,0-.11-.23-.61,2.72-1.51,5.12-1.83,7.73l-.08,0c-.26,3.26-.78,6.56-1.18,9.88a26.54,26.54,0,0,0,.32,9.8A9.58,9.58,0,0,0,1.65,143a2.79,2.79,0,0,0,.77,1.4,2.78,2.78,0,0,0,1.52.6,9.84,9.84,0,0,0,1.53,0l6.05-.15c4.07-.12,8.2-.28,12.2-.48l0,.18c6.39-.5,12.58.32,19-.1a48.86,48.86,0,0,0,5-.08c1.67-.08,3.36-.19,5-.31a65.42,65.42,0,0,1,10.08-.18c4.09.88,9.47-1,13.32-.08a61,61,0,0,0,11.71.71l5.84-.08,3-.05c1,0,2,0,2.93-.08a3.88,3.88,0,0,0,2.43-.6,5.85,5.85,0,0,0,1.67-2,14.6,14.6,0,0,0,1.7-5c.56-3.5.35-7.06.73-10.6-.79-3.29.36-7.07-.09-10.77l-.21.14c.58-1.37-1.13-2.91-.19-3.8l.06.14c.46-.73-1.28-1.58-.7-2l-.26-.1c-.11-.86.28-.12.35-.78,0-.25-.46-.08-.33-.61,1-.14-.28-2.1.87-2.17,0,.46.45-.73.69.31.11-.3.06-1.7-.42-1.58-.52-.13-1-.7-1.37.17l.37.18c-.37.29-.18.22-.47.33,0,1.15-.58,1.31-.79,2.15,0,0,0,0,0,0,.46.56.23,1.34.18,1.8l-.2.19c-.43.29.92,1.26.15,1,.31,2.32.49,5,.68,7.56.31.34.12,2,.63,1.37-.58.69-.61,2.62-.55,3.33-.06,0-.13,0-.11-.16-.73,1.42.85,1.59-.08,2.92.72.18-.12,2.34.71,3-.15.16-.29.21-.42.16a36.5,36.5,0,0,1-.6,6.56,4.78,4.78,0,0,1-.37,2.58,5.76,5.76,0,0,0-.54,2.37c-.33.43-.8,1-1.28,1.51a9.29,9.29,0,0,1-1.2,1,.5.5,0,0,0,.05-.13,5.14,5.14,0,0,1-2.19.27,9.06,9.06,0,0,0-2.61.27c-.5-.86-1.34-.77-2.15-1.09-1.3.28-3.88,0-5.86.3-.28-.39-1.61.12-1.71-.43-5.46,1-12.14.67-17.94-.13l.08,0c-.75.3-1.62,1-2.38,1.35-.08,0-.07-.14.09-.14-1,.1-2-.44-3.1-.34,0-.09,0-.09.18-.17-1,.24-2.05-.44-3.22,0l-.07-.15-.74.21c0-.18,0-.46.44-.4-4.54-.07-9.16.05-13.8.34s-9.31.58-14,.61l.34-.18-1.81.34c0-.09.1-.13.18-.18-2.31-.26-4.69.3-6.93.27,0-.09.34-.27,0-.36-1.65.52-2.68-.59-3.49.45a.22.22,0,0,1,0-.36,131,131,0,0,1-14,.44A14,14,0,0,1,4.6,144a3.25,3.25,0,0,1-1.23-.06,1.2,1.2,0,0,1-.74-.75,5.31,5.31,0,0,1-.34-1.36c-.28-2-.33-4.06-.62-6.07l.19,0a31.1,31.1,0,0,1,.58-7.95c.46-2.67,1.07-5.33,1.59-8,.57-2.16.73-3.68,1.36-5.84h.24a14.51,14.51,0,0,1,1.88-5.56c.93-1.79,2-3.39,3-5.06,0,.13,0,.27,0,.4,0-.37.48-.73.88-.94s.73-.34.5-.71a4.29,4.29,0,0,1,.73.09,3.34,3.34,0,0,1,1.95-.36,13.79,13.79,0,0,1,1.9.27,10.9,10.9,0,0,0,4.32.19l-.22.19a6.69,6.69,0,0,1,2.55,0c-.1,0-.06.09-.27.14a12.25,12.25,0,0,0,4.29.35c1.49-.11,3-.36,4.42-.43l-.31.39c1.38-.5,4-.32,5.79-.74l-.09.19.89-.35.07.34C40.32,102.09,42.51,101.47,44.82,101.09Z" transform="translate(-0.78)"/><path class="cls-3" d="M68.77,97.87h0C68.67,97.89,68.71,97.89,68.77,97.87Z" transform="translate(-0.78)"/><path class="cls-3" d="M103.49,108a2.21,2.21,0,0,1,.07-.3C103.49,107.75,103.51,107.94,103.49,108Z" transform="translate(-0.78)"/><polygon class="cls-3" points="234.44 133.76 234.54 133.73 234.25 133.69 234.44 133.76"/><path class="cls-3" d="M234.56,133.43l-.2,0,.85.18C235.68,133.52,234.24,133.5,234.56,133.43Z" transform="translate(-0.78)"/><path class="cls-3" d="M234.64,133.36c.19-.09-.2-.11-.34-.12C234.61,133.26,234.21,133.4,234.64,133.36Z" transform="translate(-0.78)"/><path class="cls-3" d="M234.29,126.18l0,0S234.31,126.18,234.29,126.18Z" transform="translate(-0.78)"/><path class="cls-3" d="M232.94,124.3l-.31,0c.56.35,0,.75.23,1.12l-.11,0a7.35,7.35,0,0,0,.67,2.74,1.1,1.1,0,0,1-.16,0c.11,0,.31.09.29.14a.32.32,0,0,1-.18,0c-.52.2.33.57-.06.7a.57.57,0,0,0,.43,0,7.28,7.28,0,0,0,.69,2.25,1.2,1.2,0,0,1-.39,0c.86.61.55,1.28.44,1.94.22,0,.23-.08.46,0,.27-.22-.55-.37-.16-.57l.22,0c.13-.14-.54,0-.27-.16s.27,0,.29,0c-.1-.29.08-.6-.45-.86.46-.08,0-.32.45-.44-.18-.07-.14-.15-.45-.17.23-1-.25-2.06-.23-3.12-.9-.48.16-1.08-.15-1.66a.17.17,0,0,1,.1,0,.59.59,0,0,1-.22-.7l-.38-.19c.77-1.37.23-2.77.56-4.16.24-1.58.9-2.95-.25-4.51.09,0,.14,0,.17,0-.17-.45.16-.85,0-1.27h.09c-.72-1.06.16-2.16-.61-3.18a17.64,17.64,0,0,0-.08-3.9h.17c-.32-1,.66-2,.43-3,.47-1-.9-2.23-.29-3.27.92-.6-.9-1.6,0-2.16,1.46-1.17.67-2.46,0-3.81.59-1.13-.55-2.43.57-3.47-.58-.61.9-1,.79-1.66H235c.69-.13-.87-.59.14-.6l0,0c.51,0-1.15-.41-.55-.4l-.24,0c-.06-.15.28,0,.39-.08s-.45-.07-.29-.13c1,.11-.18-.37,1-.23,0,.07.45-.06.67.14.12,0,.09-.27-.39-.31a3.73,3.73,0,0,0-1.36-.15l.37.08c-.38,0-.19,0-.47,0-.08.17-.62.13-.86.23h0c.43.14.15.23.08.3h-.21c-.44,0,.82.32.08.17a2.92,2.92,0,0,1,0,1.25c.27.09-.07.32.49.29-.64,0-.83.33-.81.45s-.13,0-.1,0c-.84.13.72.35-.29.45.69.11-.27.36.54.57a1.85,1.85,0,0,1-.42,0c-.06.38-.35.77-.42,1.09.59.34-.34.64.49,1-.2.18-.58.46-.26.77l-.11,0a1,1,0,0,0,.55,1c-.82,0-.67.17-.94.28.36.24.22.65.53,1-.37,0,.14.27-.4.24,1,1,.53,2-.32,2.91l0,0c.29.14.94.33,1.32.47-.05,0-.14,0-.13,0,.09.18-.46.3-.37.48a.58.58,0,0,1-.18,0c.24.18-.45.31,0,.52h-.15l.2.14c-.18,0-.46,0-.39-.1-.26,1.47.58,3,.38,4.54l-.17-.06.3.3a.59.59,0,0,1-.18,0c-.32.35.17.76.08,1.12-.09,0-.26-.06-.37,0,.48.29-.65.41.36.59a1.16,1.16,0,0,1-.36,0,3.44,3.44,0,0,1,.07,2.28c.9.65.05,1.33.76,2h-.18c.62.86-.1,1.73,0,2.61-.09.36.13.61.13,1h-.23c.86.63-.81,1.28.15,1.94l-.32,0c.49.11-.17.39.66.36l-.25.11c1.09.45-.52.78.18,1.33l-.19,0c.15.14.27.31.09.41a.51.51,0,0,1-.14,0c-.78.44.08.94,0,1.41l-.36-.06c.43.23,0,.64.22.94l-.17,0,.24.16h-.35C232.59,123.56,232.9,123.92,232.94,124.3Z" transform="translate(-0.78)"/><path class="cls-3" d="M233.37,128.21h0S233.35,128.2,233.37,128.21Z" transform="translate(-0.78)"/><path class="cls-3" d="M233.35,89.45l.08,0C233.36,89.41,233.37,89.44,233.35,89.45Z" transform="translate(-0.78)"/><polygon class="cls-3" points="246.15 94.54 246.13 94.43 245.92 94.68 246.15 94.54"/><path class="cls-3" d="M245.92,95c0,.06,0,.14,0,.2l.71-.69C246.52,94,246,95.31,245.92,95Z" transform="translate(-0.78)"/><path class="cls-3" d="M245.8,94.85c-.14-.23-.32.13-.39.25C245.55,94.82,245.74,95.28,245.8,94.85Z" transform="translate(-0.78)"/><path class="cls-3" d="M229,92.81l.06,0A0,0,0,0,0,229,92.81Z" transform="translate(-0.78)"/><path class="cls-3" d="M224.62,94l-.06.31c.83-.54,1.72.07,2.59-.12l-.06.1a46.89,46.89,0,0,0,6.37-.22s-.06.12-.09.16c.11-.11.24-.3.36-.26s0,.14-.09.17c.41.57,1.37-.19,1.61.24a.33.33,0,0,0,.16-.42,52.11,52.11,0,0,0,5.31,0c.08.08.07.23,0,.4,1.6-.55,3.12,0,4.58.55.11-.2-.1-.26.1-.45-.42-.39-1,.31-1.36-.19l.1-.19c-.29-.21-.18.5-.45.17-.1-.2.09-.26,0-.29-.7,0-1.39-.36-2.12,0-.08-.48-.73-.15-.92-.63-.2.16-.37.09-.49.38-2.36-.6-4.86-.43-7.3-.67-1.21.82-2.5-.38-3.88-.15a.14.14,0,0,1,0-.09,2.66,2.66,0,0,1-1.63.13l-.47.36c-3.14-.94-6.41-.46-9.63-.82-3.66-.24-6.9-.87-10.44.39,0-.09,0-.14.06-.17-1,.19-2-.1-2.93.11v-.09c-2.38.81-5,.06-7.29,1a77.53,77.53,0,0,0-9,.66v-.17c-2.36.5-4.72-.29-7.08.16-2.48-.23-4.95,1.4-7.45,1.07-1.6-.74-3.43,1.31-4.94.54-3.07-1.08-5.84.1-8.68,1.23-2.75-.19-5.3,1.38-8,.71-1.16.79-2.71-.46-4.06-.1l.08.22c-.59-.6-1,1.07-1.42.12l0-.05c-.32-.47-.45,1.26-.69.69V99c-.3.11-.07-.28-.33-.34-.09,0,0,.45-.18.34-.18-1-.75.32-.92-.82.17,0-.33-.4,0-.69a.4.4,0,0,0-.53.5c0,.52-.13,1,.25,1.35V99a1.68,1.68,0,0,1,.19.45c.42,0,.55.52.88.71v0c.14-.48.47-.25.64-.21l.09.2c.16.43.37-.91.34-.15a13.87,13.87,0,0,1,2.77-.54c.09-.3.73-.07.45-.59a1.3,1.3,0,0,0,1.31.6c0,.06,0,.13-.05.11.62.75.52-.82,1.12.11,0-.71.9.11,1.07-.74a.75.75,0,0,1,.11.41c.87-.09,1.85,0,2.59,0,.55-.68,1.55.11,2-.8a2.16,2.16,0,0,0,1.81,0l0,.11a3,3,0,0,0,2-.86c.3.79.59.6.92.83.43-.43,1.38-.42,2.07-.84.14.37.57-.22.66.32,1.9-1.25,4.43-1.12,6.65-.52l0,0c.25-.33.51-1,.76-1.43,0,0,0,.14,0,.14.38-.13.8.37,1.18.24a.25.25,0,0,1,0,.18c.34-.28.79.37,1.19-.09l0,.14.26-.22c0,.18,0,.45-.13.4,3.37-.1,6.78-1.3,10.26-1.38l-.12.18.65-.35a.28.28,0,0,1-.05.18c.87.25,1.73-.3,2.57-.27,0,.08-.12.27,0,.36.59-.53,1,.58,1.28-.46a.52.52,0,0,1,0,.37,17.56,17.56,0,0,1,5.21-.42c1.4-1,3.05-.22,4.52-1v.18c1.92-.72,4-.09,6-.27a21.2,21.2,0,0,0,2.24-.21l0,.23c1.4-.9,3,.73,4.45-.24l-.1.31c.22-.48.89.17.8-.66l.26.25c1-1.11,1.83.49,3.06-.21l-.09.19c.33-.15.71-.27,1-.09,0,0,0,.09-.1.14,1,.78,2.16-.07,3.24,0l-.13.36c.53-.42,1.48,0,2.17-.19l0,.17.36-.23v.35C222.9,94.23,223.75,94,224.62,94Z" transform="translate(-0.78)"/><path class="cls-3" d="M233.64,94.09a0,0,0,0,1,0,0S233.62,94.11,233.64,94.09Z" transform="translate(-0.78)"/><path class="cls-3" d="M145,100.18l-.12-.05C144.91,100.2,145,100.17,145,100.18Z" transform="translate(-0.78)"/><polygon class="cls-3" points="140.05 100.79 139.94 100.86 140.23 101.03 140.05 100.79"/><path class="cls-3" d="M141.47,101.92c.05,0,.14,0,.19,0l-.83-.68C140.35,101.49,141.79,101.74,141.47,101.92Z" transform="translate(-0.78)"/><path class="cls-3" d="M141.38,102.12c-.2.25.19.36.32.42C141.4,102.45,141.81,102.07,141.38,102.12Z" transform="translate(-0.78)"/><path class="cls-3" d="M141.19,124.59a.19.19,0,0,0,0-.08S141.17,124.57,141.19,124.59Z" transform="translate(-0.78)"/><path class="cls-3" d="M142.58,130.45l.32.05c-.59-1.07-.05-2.31-.32-3.46l.11.08a70.1,70.1,0,0,0-.51-8.56s.13.06.16.11c-.1-.14-.3-.3-.27-.46s.14.05.17.1c.53-.61-.3-1.81.11-2.19a.3.3,0,0,0-.43-.16,62.77,62.77,0,0,0-.52-7c.07-.11.21-.12.39-.09-.81-2-.44-4.07-.27-6.1-.22-.08-.24.2-.46,0-.29.65.52,1.2.11,1.79l-.22-.08c-.14.43.54.09.26.54-.18.17-.27,0-.29,0a5.84,5.84,0,0,0,.37,2.74c-.47.21,0,1-.48,1.31.17.24.12.48.43.58-.3,3.2.09,6.48,0,9.76.88,1.55-.23,3.37,0,5.2h-.09a4.72,4.72,0,0,1,.18,2.17l.39.61a36.42,36.42,0,0,0-.29,6.53l.09,3.29a5.09,5.09,0,0,0,.11,1.07,2.61,2.61,0,0,0,.51,1.06,2.9,2.9,0,0,0,2.16.87l3.69.05c1.17,0,2.33,0,3.48,0a26.48,26.48,0,0,0,7-1c0,.08,0,.13-.08.17,1.37-.24,2.65,0,3.94-.22v.08c3.2-.89,6.73-.21,9.81-1.15,3.79-.1,8.08-.37,12.08-.79v.18c3.2-.52,6.34.28,9.53-.16a20.6,20.6,0,0,0,5-.5,17,17,0,0,1,5.06-.31c2.09.82,4.73-1.12,6.69-.26,4,1.28,7.84.31,11.79-.61,3.68.4,7.31-.93,10.88,0,1.66-.66,3.57.66,5.4.53l-.06-.23c.63.69,1.53-.87,1.9.15l-.07,0c.32.52.89-1.14,1.07-.53l.07-.24c.44-.05,0,.28.36.4.13,0,.08-.45.33-.29,0,1,1.06-.16,1,1-.23,0,.36.46-.19.68a.63.63,0,0,0,.45,0l-1.15-1.11a.42.42,0,0,0,.48.33c.52,0,1,.26,1.35-.2l-.38-.06c.37-.18.18-.13.46-.2v0l0-.54-.7-.11c-.55-.08-.6-.63-1-.87,0,0,0,0,0,0-.3.43-.67.14-.89.07l-.08-.22c-.1-.45-.7.82-.48.08-1.18.11-2.54,0-3.9,0-.19.28-1,0-.71.53a1.92,1.92,0,0,0-1.67-.72c0-.06,0-.13.08-.1-.72-.8-.81.77-1.49-.21-.08.71-1.19-.2-1.54.64a.58.58,0,0,1-.09-.42c-1.18,0-2.48-.21-3.48-.22-.84.64-2.07-.23-2.78.64a3.76,3.76,0,0,0-2.44-.14l.08-.11a5.25,5.25,0,0,0-2.79.7c-.3-.81-.71-.64-1.13-.89-.63.4-1.92.31-2.89.68-.16-.37-.79.18-.86-.37-2.7,1.12-6.08.83-9,.11l.05,0c-.37.31-.79,1-1.16,1.38,0,0,0-.14,0-.14-.52.11-1-.41-1.57-.3,0-.09,0-.09.09-.18-.49.26-1-.41-1.62,0l0-.15-.37.21c0-.18,0-.45.21-.4-4.57-.11-9.24,1.13-13.93,1.18l.17-.18-.9.35a.24.24,0,0,1,.08-.18c-1.16-.25-2.34.32-3.47.29,0-.09.16-.27,0-.36-.82.53-1.37-.58-1.74.46a.38.38,0,0,1,0-.36,32.54,32.54,0,0,1-7,.48c-1.91,1-4.12.28-6.11,1.11v-.19c-2.59.77-5.4.21-8.1.46-1.14,0-1.89.23-3,.3l0-.23c-1.87,1-4-.61-6,.45l.13-.32c-.3.5-1.21-.11-1.07.71l-.36-.23c-1.32,1.16-2.47-.4-4.11.39l.11-.2a1.75,1.75,0,0,1-1.28.15c.05,0,0-.09.13-.14a2.42,2.42,0,0,0-1.06-.27c-.27,0-.55,0-.86,0a1.08,1.08,0,0,1-.79-.48,1.74,1.74,0,0,1-.25-1l.37.12c-.44-.65-.07-2-.29-2.89l.17,0-.25-.45.34,0C143,132.73,142.65,131.62,142.58,130.45Z" transform="translate(-0.78)"/><path class="cls-3" d="M142.24,118.31h0S142.26,118.34,142.24,118.31Z" transform="translate(-0.78)"/><path class="cls-3" d="M242.44,134.32l.14.08C242.57,134.33,242.49,134.34,242.44,134.32Z" transform="translate(-0.78)"/><path class="cls-2" d="M183,4.44c-.93,8.28-3.83,34.94-3.12,37.81,0,0-46.81,4.57-53.93,5.2l-13.59,1.2q-9.56.81-19.1,1.57c-2.27.18-4.55.25-6.82.39A2,2,0,0,1,84.19,49a14.63,14.63,0,0,1-.58-3.13c-.34-6.44.58-12.79,1.45-19.13C86,20,87,13.21,88,6.29l.32-2.38C105.72,3.21,170.48,2,179.4,2" transform="translate(-0.78)"/><polygon class="cls-3" points="178.61 0.1 178.48 0 178.15 0.3 178.61 0.1"/><path class="cls-3" d="M177.21.81c.06,0,0,.14.1.19l1.28-.87C178-.33,177.59,1.12,177.21.81Z" transform="translate(-0.78)"/><path class="cls-3" d="M176.83.73c-.5-.19-.7.21-.82.35C176.18.77,176.94,1.15,176.83.73Z" transform="translate(-0.78)"/><path class="cls-3" d="M133,1.84a.4.4,0,0,0,.15,0A.19.19,0,0,0,133,1.84Z" transform="translate(-0.78)"/><path class="cls-3" d="M121.58,3.42l-.11.32c2.12-.6,4.54-.08,6.79-.38l-.15.12c5.73,0,11-.64,16.67-1-.08,0-.11.13-.2.17a2.14,2.14,0,0,1,.88-.3c.08.07-.09.15-.18.18,1.2.5,3.51-.4,4.27,0,.34-.06.48-.28.29-.44,4.45-.23,9.2-.43,13.73-.93a.27.27,0,0,1,.2.39C167.64.6,171.7.85,175.66.91c.15-.23-.4-.23,0-.47-1.28-.25-2.33.59-3.49.21l.14-.21c-.84-.12-.16.54-1,.28-.34-.17.09-.27-.07-.28a21.83,21.83,0,0,0-5.33.52c-.42-.45-1.92,0-2.59-.4-.46.19-.92.15-1.1.47-6.25-.12-12.64.46-19,.56-3,1-6.59,0-10.14.35,0,0,0-.07,0-.1a17.38,17.38,0,0,1-4.23.31l-1.16.4c-8.35-.6-16.85.12-25.32,0l-7-.07-3.41,0H90.15l-2.74,0h-.36c-.06.07,0,.23-.08.34l-.1.72L86.68,5l-.25,1.85c-.14,1.11-.27,2.23-.38,3.35-.22,2.25-.36,4.53-.4,6.89-.08,0-.14.05-.14-.2-.21,2.7-.88,5.09-1.05,7.64l-.09,0c-.08,3.17-.56,6.42-1,9.67a38.16,38.16,0,0,0-.17,9.59c0,.93,0,1.86.11,2.85a14.11,14.11,0,0,0,.67,2.9,2.34,2.34,0,0,0,1.12,1.22,3.07,3.07,0,0,0,1.61.21l3-.19c4-.22,8-.71,11.92-1.13v.18c6.22-.88,12.34-.44,18.56-1.29,6.45-.14,13.09-2.25,19.6-2.32,4.08.48,9.16-1.89,13-1.35,7.85.62,15.25-1,22.89-2.54.69,0,1.39-.05,2.08-.1s1.23-.08,1.81-.17a13.36,13.36,0,0,1-.13-1.92V37.92c0-1.44.05-2.87.12-4.3a46.1,46.1,0,0,1,1.09-8.4c-.33-3.33,1.45-6.8,1.65-10.45l-.23.11c.8-1.23-.63-3,.45-3.71l0,.14c.57-.63-1-1.73-.37-2.08L182,9.09c0-.84.3-.07.46-.7,0-.25-.44-.14-.24-.63,1,0,0-2.08,1.15-2,0,.46.52-.66.65.39.15-.28.25-1.68-.25-1.61-.5-.18-.89-.78-1.38,0l.36.21c-.41.25-.22.2-.51.27-.17,1.11-.73,1.19-1.05,2,0,0,0,0,.05,0,.38.59,0,1.32-.08,1.74l-.22.15c-.47.22.71,1.36,0,.94-.06,2.28-.34,4.88-.59,7.41.25.38-.23,1.93.38,1.43-.69.57-1,2.44-1.08,3.14-.06,0-.12-.06-.09-.17-.94,1.28.6,1.68-.51,2.86.68.26-.44,2.29.32,3.09-.17.14-.32.18-.44.11-.22,2.3-.68,4.81-.85,6.77.5,1.7-.53,4.06.3,5.56-.1.35-.22.67-.28.66a.51.51,0,0,0-.2,0l-.08,0-.61.16.15-.12A18.68,18.68,0,0,0,172,41.92c-.62-.76-1.41-.52-2.24-.7-1.2.5-3.71.63-5.56,1.15-.33-.35-1.55.31-1.7-.23-5.19,1.57-11.77,1.83-17.5,1.58l.08,0c-.71.37-1.49,1.11-2.2,1.57-.08,0-.08-.13.08-.14-1,.2-2-.24-3.06,0,0-.1,0-.1.16-.2-.95.34-2-.24-3.15.29l-.07-.14-.71.27c0-.18,0-.45.4-.43-8.88.7-17.95,2.46-27.08,3.09l.32-.2-1.74.45c0-.09.09-.14.17-.19-2.28-.12-4.57.58-6.77.69,0-.09.32-.29,0-.37C99.8,49,98.72,47.9,98,49a.22.22,0,0,1,0-.36,66.78,66.78,0,0,1-6.82.77c-1.14.08-2.29.13-3.44.18l-.86,0a6.21,6.21,0,0,1-.73,0,.91.91,0,0,1-.71-.42c-.23-.09-.43-.4-.62-.88A8.53,8.53,0,0,1,84.38,47a13.06,13.06,0,0,1-.26-2.92c0-2,.06-4-.16-6l.18,0c-.26-5.15,1.25-10.45,1.87-15.7.38-2.17.38-3.68.68-5.87l.23,0a18.13,18.13,0,0,1,.77-5.74c.23-1,.46-1.94.61-2.92a10,10,0,0,0,.09-2.87,3.32,3.32,0,0,0,.26.36,1,1,0,0,1-.11-.59l0-.32,0-.15h.15c.39,0,.7-.06.44-.47l.75.23c2.58-1.15,4.81.41,8-.37l-.21.2a6.42,6.42,0,0,1,2.5-.14c-.1,0,0,.08-.25.14,2.72.72,5.68-.2,8.53-.23l-.31.37c1.35-.46,3.89-.11,5.69-.34l-.11.17.91-.26,0,.35C117.09,3.86,119.29,3.51,121.58,3.42Z" transform="translate(-0.78)"/><path class="cls-3" d="M145.28,2.53h0C145.18,2.55,145.22,2.55,145.28,2.53Z" transform="translate(-0.78)"/><path class="cls-3" d="M181.07,7.29l.1-.28C181.1,7,181.1,7.2,181.07,7.29Z" transform="translate(-0.78)"/></g></g></g></svg>