<svg xmlns="http://www.w3.org/2000/svg" viewBox="0 0 248.12 209.17"><defs><style>.cls-1{fill:#fff;}</style></defs><g id="Layer_2" data-name="Layer 2"><g id="Docs_summary" data-name="Docs summary"><polygon class="cls-1" points="0.11 117.09 0 117.24 0.29 117.63 0.11 117.09"/><path class="cls-1" d="M.76,119.63c.06-.08.14,0,.2-.12L.12,118C-.36,118.69,1.08,119.19.76,119.63Z"/><path class="cls-1" d="M.68,120.07A.8.8,0,0,0,1,121C.7,120.82,1.1,119.94.68,120.07Z"/><path class="cls-1" d="M12,164.33l-.18,0A.24.24,0,0,0,12,164.33Z"/><path class="cls-1" d="M25.27,166.21l.2-.28c-2.53,0-5.13-1.16-7.72-1.56l.2-.07c-2.73-.74-5.38-1.38-8-2l-4-1-4.08-1.06-.12-3c0,.1.13.14.16.24a2.59,2.59,0,0,1-.28-1c.07-.1.15.1.18.21.52-1.39-.33-4.09.07-5-.06-.39-.27-.56-.44-.35-.13-5.16-.23-10.68-.64-15.94.07-.25.21-.29.39-.23-.84-4.49-.51-9.2-.37-13.8-.22-.17-.23.47-.46,0-.28,1.48.54,2.71.14,4l-.22-.17c-.14,1,.54.19.27,1.21-.18.4-.28-.1-.29.08a28.74,28.74,0,0,0,.41,6.19c-.46.48,0,2.23-.46,3,.19.54.14,1.08.45,1.28-.13,3.63-.08,7.3,0,11l.12,5.54,0,2.79v3.07c.08.47.14.92.19,1.4.64.14,1.24.28,1.82.43l.7.19.63.19c.83.27,1.67.57,2.53.89a35.17,35.17,0,0,0,5.36,1.68.07.07,0,0,1,0,.09,26.55,26.55,0,0,1,4.82,1l1.42,0c9.23,3.11,19.14,4.36,28.9,5.7,1.39.17,2.76.35,4.12.49l2,.22L56,172l1.66.13.42,0c.07-.06,0-.25,0-.37l0-.82-.1-3c0-1.29-.13-2.57-.06-3.84s0-2.56,0-3.83.12-2.55.16-3.84l.06-1.94.16-1.94.13-2,.06-1,.12-1c.08,0,.14,0,.12.24a36.08,36.08,0,0,1,1-4.36c.48-1.37.93-2.72,1.29-4.13l.08,0c.26-.86.54-1.72.85-2.59a19,19,0,0,1,1-2.57,36.33,36.33,0,0,1,2.75-4.86L67.29,128,69,125.85c1-1.51,2.3-2.8,3.36-4.22a25.16,25.16,0,0,1,2.4-2.19c.85-.7,1.64-1.49,2.56-2.14a64.66,64.66,0,0,1,5.64-3.89c1-.58,1.94-1.27,3-1.79L89,110c1-.57,2.08-1,3.13-1.48l3.22-1.45.27.08s.15,0,.12-.08l-.15-.14-.28-.28-.55-.54c-.36-.36-.72-.7-1-1.06-.62-.71-1.21-1.35-1.75-2.07a37.44,37.44,0,0,1-3-4.45,68.45,68.45,0,0,1-4.36-9.72c-.45-1.79-1-3.59-1.37-5.43-.23-.92-.41-1.85-.61-2.78s-.36-1.83-.49-2.92l-.1-.75,0-.37,0-.18,0-.1s0,0,0,0l-1.57.08-2.89.12c-1.92.06-3.82,0-5.71-.08-4.67-.87-10.77,1-15.16.12a64.31,64.31,0,0,0-6.72-.62c-1.11,0-2.22-.08-3.33-.06s-2.25.15-3.37.25a38.28,38.28,0,0,0-12.71,4.19A34.48,34.48,0,0,0,19.93,86.5a111.43,111.43,0,0,0-8.67,8.43A15.68,15.68,0,0,1,9.71,97.4c-.54.83-1.16,1.63-1.79,2.45s-1.18,1.73-1.74,2.63a15.69,15.69,0,0,0-1.34,2.91l.26-.07c-1.25,1.2-.23,3.5-1.44,4.12v-.17c-.72.65.66,2.12,0,2.43l.21.19c-.17,1-.31,0-.58.75,0,.28.41.21.13.75-1-.12-.36,2.38-1.49,2.16.13-.51-.63.7-.58-.52-.19.31-.54,1.88,0,1.86.47.27.74,1,1.38.15l-.31-.29c.45-.23.24-.2.55-.24.37-1.26.94-1.29,1.38-2.15,0,0,0,0,0,0a2.78,2.78,0,0,1,.37-2l.25-.15c.5-.18-.46-1.62.17-1.06a31,31,0,0,1,1-4c.49-1.32,1-2.68,1.6-4-.08-.48,1-1.95.23-1.64a4.83,4.83,0,0,0,1.39-1.3,10.29,10.29,0,0,0,1.06-1.51.15.15,0,0,1,0,.22c1.44-.88.36-1.94,2-2.55-.21-.29.18-.81.66-1.35s1-1.12,1-1.7c.23,0,.38,0,.43.14a12.11,12.11,0,0,1,1.35-1.43l1.43-1.35,2.79-2.31a9.22,9.22,0,0,1,2.36-2.07,6,6,0,0,0,2.26-1.94,28,28,0,0,0,4.79-2.33l-.12.17,1.46-.73c.51-.22,1-.44,1.53-.68s1-.47,1.39-.72a7.33,7.33,0,0,0,1.13-.67c.83.62,1.63.17,2.57.22A15.56,15.56,0,0,1,40,78.8c1.12-.23,2.34-.44,3.38-.76.35.36,1.74-.26,1.88.28a27.19,27.19,0,0,1,4.79-.63c1.69-.1,3.43-.14,5.18-.11a101.44,101.44,0,0,1,10.35.73l-.09,0c.85-.31,1.83-1,2.7-1.36.09.05.08.14-.11.13,1.21-.1,2.34.44,3.54.33,0,.09,0,.09-.21.18,1.13-.25,2.34.43,3.67,0l.07.14.85-.2c0,.18-.06.45-.51.39,1.29,0,2.59,0,3.89,0h1l0,.18,0,.35L80.68,80c.09.67.21,1.33.35,2,.24,1.33.57,2.65.93,4a51.59,51.59,0,0,0,6.88,14.7l-.36-.23c.46.54,1,1,1.46,1.54-.08,0-.17,0-.27-.07a10.16,10.16,0,0,0,1.16,1.67,15,15,0,0,0,1.36,1.51,10.49,10.49,0,0,0,1,1l.43.4.2.2c.06,0,0,.06,0,.07l-.14,0a.93.93,0,0,0-.54-.16c0,.12-.16.22-.34.28a1.93,1.93,0,0,1-.5.06l-.12,0L92,107a1.91,1.91,0,0,0-.38.18,1.28,1.28,0,0,0-.54.69.22.22,0,0,1-.11-.35A112,112,0,0,0,77,115.81c-.79.81-1.57,1.68-2.41,2.49-.42.41-.86.81-1.3,1.2A14.92,14.92,0,0,0,72,120.73c-.83.85-1.66,1.71-2.46,2.6a18.3,18.3,0,0,0-2,2.92l-.14-.13c-.38.64-.86,1.23-1.21,1.9S65.45,129.33,65,130s-.85,1.27-1.21,1.95l-1.12,2c-.36.69-.79,1.34-1.11,2.05l-1,2.13c-.31.72-.66,1.42-.91,2.15s-.47,1.48-.69,2.22c-.92,2.42-1,4.2-1.55,6.7l-.24,0a17,17,0,0,1-.25,3.33c-.09.56-.2,1.11-.32,1.67s-.18,1.14-.28,1.71c-.18,1.14-.36,2.29-.45,3.44a14.18,14.18,0,0,0,.25,3.44l-.31-.31c.48.7-.2,2.74.63,2.46-.09.27-.15.53-.22.8a7,7,0,0,1,.5,2.2c0,.19,0,.36,0,.55v.61c0,.4,0,.78-.06,1.13l0,.53c-.2,0-.42-.07-.63-.1-.41-.07-.8-.13-1.19-.17a13.15,13.15,0,0,0-2.59,0l.26-.18a8.44,8.44,0,0,1-2.9-.15c.12,0,.07-.08.31-.11-3-1.08-6.56-.58-9.83-1.1l.42-.31c-1.64.22-4.47-.62-6.56-.79l.16-.15-1.09.06,0-.35C30.45,166.93,27.88,166.73,25.27,166.21Z"/><path class="cls-1" d="M1.82,156.7a0,0,0,0,0,0,0C1.84,156.81,1.83,156.77,1.82,156.7Z"/><path class="cls-1" d="M4.42,114.06a2.1,2.1,0,0,1-.15.3C4.35,114.36,4.38,114.16,4.42,114.06Z"/><polygon class="cls-1" points="65.14 173.37 65.05 173.31 64.48 172.97 63.1 175.26 63.05 175.35 63.34 175.81 63.18 175.26 62.83 174.06 65.05 173.39 65.14 173.37"/><path class="cls-1" d="M63.81,178.19c0-.09.14-.05.2-.14l-.84-1.77C62.69,177.07,64.13,177.67,63.81,178.19Z"/><path class="cls-1" d="M63.73,178.71a1,1,0,0,0,.33,1.13C63.75,179.6,64.15,178.56,63.73,178.71Z"/><path class="cls-1" d="M106.28,207.8a.81.81,0,0,0-.22,0A.39.39,0,0,0,106.28,207.8Z"/><path class="cls-1" d="M122.14,207.8l.18-.31c-3,.43-6.24-.33-9.35-.39l.22-.09c-7.83-.84-15.11-1.42-22.85-2.77.13,0,.19-.09.32-.1a3.79,3.79,0,0,1-1.26,0c-.09-.09.15-.12.29-.12-1.51-.84-4.83-.72-5.74-1.36-.47-.05-.72.11-.5.33-3-.64-6.11-1.38-9.21-2.16l-4.66-1.16c-.78-.19-1.54-.38-2.35-.61a8.88,8.88,0,0,1-1.27-.45,3.65,3.65,0,0,1-1.35-1c-.2-.45-.09-.57.12-.55a5.86,5.86,0,0,1-.72-2.29c-.1-.72-.15-1.39-.19-2.08-.09-1.36-.12-2.73-.12-4.11,0-2.75.11-5.51.18-8.25-.22-.21-.23.56-.46,0-.28,1.76.54,3.22.14,4.81l-.22-.2c-.14,1.16.54.23.26,1.44-.17.47-.27-.12-.28.1.09,2.47-.11,5,.42,7.37a3,3,0,0,0-.16,1.81,6.11,6.11,0,0,0,.33,1.46,6.35,6.35,0,0,0,.72,1.38c1,.64,1.7.86,2.06.68,1.12.46,2.12.75,3.17,1.07s2.09.64,3.15.92c2.1.59,4.24,1.13,6.38,1.65,4.29,1,8.64,1.9,13,2.77,4.24-.09,9,1.79,13.91,2.11a.06.06,0,0,1,0,.09,39.71,39.71,0,0,1,5.85.44l1.66-.24c11.44,1.78,23.32,1.24,35,.28a141.78,141.78,0,0,0,19-2.91,60,60,0,0,0,17.69-6.87c0,.08.14.08-.15.26l.93-.5a3.38,3.38,0,0,0,.57-.35,4.23,4.23,0,0,0,.49-.44,4.93,4.93,0,0,0,.75-1,2.86,2.86,0,0,0,.39-1.33c0-2.29.15-4.39.06-6.59h.09c-.66-8.71.29-18.15-.7-26.54l-.08-3.9-.3-4c-.15-1.35-.44-2.69-.66-4.05a15.81,15.81,0,0,0-.47-2l-.55-2a44.13,44.13,0,0,0-7.64-14.62l.16-.09a64.24,64.24,0,0,0-9.08-9.13A38.84,38.84,0,0,0,158,115.94a38,38,0,0,0-13.42-2.47c-4.59-.07-9.17,0-13.65-.26-5.55-.92-12.82,1.09-18,.24A33.77,33.77,0,0,0,97,115.05a40.31,40.31,0,0,0-13.64,8.12,37,37,0,0,0-10,10.6A75.23,75.23,0,0,0,67,146.63a25.43,25.43,0,0,1-.68,3.39c-.3,1.14-.52,2.32-.85,3.51s-.45,2.43-.64,3.69A23.61,23.61,0,0,0,64.7,161l.22-.17c-.67,1.8.94,4-.06,5.16l0-.2c-.5,1,1.19,2.24.59,2.82l.25.15c.07,1.16-.28.14-.38,1,0,.34.45.13.31.83-1,.15.22,2.84-.93,2.92,0-.64-.45,1-.69-.43-.11.4-.06,2.35.43,2.17.52.17,1,.93,1.37-.25l-.38-.24c.38-.4.19-.3.47-.44.05-1.55.6-1.75.83-2.85,0,0,0,0,0,0a3.92,3.92,0,0,1-.12-2.4l.21-.24c.44-.35-.86-1.75-.1-1.28-.17-3.13-.2-6.74-.15-10.21-.26-.48.19-2.6-.41-1.89a12.83,12.83,0,0,0,1.29-4.21.2.2,0,0,1,.07.24,2.74,2.74,0,0,0,.44-1.91,2,2,0,0,1,.61-1.78c-.66-.46,1.14-2.84.65-4,.23-.14.39-.16.48,0a31.89,31.89,0,0,1,2-4.2c.39-.67.75-1.33,1.13-1.95s.79-1.17,1.14-1.71a9.3,9.3,0,0,1,2-3.16,10.89,10.89,0,0,0,2-3c.3-.26.62-.58,1-.9s.81-.65,1.23-1,.84-.75,1.24-1.16a13.49,13.49,0,0,0,1.2-1.19l-.09.22,1.46-1.28c.51-.43,1.06-.82,1.56-1.23s1-.82,1.41-1.22A8.46,8.46,0,0,0,88,121a2.23,2.23,0,0,0,1.47-.09,7.9,7.9,0,0,1,1.49-.51,16.05,16.05,0,0,1,3-1.74c.62-.27,1.27-.55,1.9-.84l.94-.44.91-.37c.48.25,2-.74,2.23-.24a28.58,28.58,0,0,1,11.38-2.16c4.17,0,8.4.24,12.32.6l-.12,0c1-.31,2.18-1,3.21-1.37.1,0,.09.14-.13.14,1.43-.11,2.77.42,4.2.33,0,.09,0,.09-.25.18,1.34-.24,2.76.46,4.34.06l.09.15,1-.18c0,.18-.07.45-.61.38l9.21.35c1.52.1,3,.27,4.53.39s3,.51,4.5.81a40.51,40.51,0,0,1,16.46,8l-.46-.14c.67.42,1.39.81,2.05,1.27-.07.06-.18,0-.29,0a22.62,22.62,0,0,0,1.59,1.66c.55.54,1.17,1,1.68,1.59l1.6,1.66c.26.28.54.55.77.84s.45.61.66.92c-.08,0-.48-.22-.32.18a7.07,7.07,0,0,1,1.58,2.2c.32.68.58,1.22,1.31,1.43a.2.2,0,0,1-.34.14A38,38,0,0,1,186,153.5a23.51,23.51,0,0,1,.75,3.91c.17,1.35.18,2.76.22,4.15a72,72,0,0,0,.45,8.35l-.18,0c.68,7.06-.12,14.54-.05,21.86,0,1.25,0,2.35,0,3.35a2.69,2.69,0,0,1-.93,1.8,4.11,4.11,0,0,1-1,.6c-.37.18-.74.38-1.15.57l-.16-.18a23.35,23.35,0,0,1-7.36,3,50.31,50.31,0,0,0-7.76,2.44l.28-.4c-.68.69-3.18.61-2.68,1.34l-1,0c-3.34,1.85-6.58.87-10.86,2.23l.26-.23a11.19,11.19,0,0,1-3.4.56c.13,0,.06-.09.34-.18-3.77-.29-7.78,1-11.71,1.14l.42-.39c-1.86.56-5.35.29-7.83.51l.15-.17-1.26.26,0-.35C128.36,207.65,125.31,207.89,122.14,207.8Z"/><path class="cls-1" d="M89.69,204.05h0C89.82,204.05,89.78,204.05,89.69,204.05Z"/><path class="cls-1" d="M66.75,171.08c0,.15,0,.27-.07.4C66.75,171.45,66.73,171.21,66.75,171.08Z"/><polygon class="cls-1" points="196.27 173.13 196.43 173.22 196.77 172.89 196.27 173.13"/><path class="cls-1" d="M198.66,172.22c-.08,0,0-.13-.13-.18l-1.35,1C197.87,173.43,198.2,172,198.66,172.22Z"/><path class="cls-1" d="M199.1,172.27a.78.78,0,0,0,.89-.43C199.82,172.17,198.93,171.85,199.1,172.27Z"/><path class="cls-1" d="M247.71,159.67l-.1.24A.36.36,0,0,0,247.71,159.67Z"/><path class="cls-1" d="M246.78,146.25l-.31-.14c.56,2.42,0,5.15.24,7.71l-.11-.17,0,2.41a19.28,19.28,0,0,1,0,2.3,2.21,2.21,0,0,1-1.1,1.65c-.61.38-1.36.71-2,1.07a83.43,83.43,0,0,1-8.65,3.8c.08-.06.08-.16.17-.23a2.55,2.55,0,0,1-.87.58c-.11,0,.05-.16.15-.23-1.45-.08-3.74,1.48-4.68,1.3-.35.15-.46.41-.21.51-4.87,1.44-10.18,2.57-15.25,3.69-.25,0-.32-.17-.27-.36-4.27,1.44-8.93,1.53-13.4,1.84-.15.24.48.19.06.46,1.46.14,2.58-.8,3.92-.52l-.14.22c1,.05.14-.55,1.15-.38.41.14-.07.29.11.28,2-.29,4.15-.32,6-1.07.53.4,2.18-.26,3,.07.5-.26,1-.29,1.18-.63a101.93,101.93,0,0,0,21.15-5.25,22,22,0,0,1,5.11-2.25c.93-.33,1.88-.65,2.82-1a8.87,8.87,0,0,0,1.5-.7,3.34,3.34,0,0,0,1.38-1.55c.05,0,.08,0,.08,0a6.67,6.67,0,0,0,.19-2.77,22.91,22.91,0,0,1,0-2.49l-.38-1.33c.77-9.45.22-19.09.53-28.68a48.4,48.4,0,0,0-1.64-15.88,34.31,34.31,0,0,0-3.09-7.25c-.65-1.15-1.4-2.23-2.14-3.33s-1.59-2.14-2.53-3.13c.08,0,.07-.13.27.07a48.42,48.42,0,0,0-5.81-6.74l.07-.06a71.74,71.74,0,0,0-9.13-6.46,29.15,29.15,0,0,0-10.24-3.75c-1-.3-2.07-.49-3.13-.75s-2.16-.36-3.26-.54l-3.34-.32c-1.13-.06-2.26-.12-3.4-.16-4.54-.16-9.14-.09-13.59.07l0-.18c-3.56.22-7.05.15-10.55,0l-2.62-.1-1.31,0A8.27,8.27,0,0,0,171,76l-.84.1a2.47,2.47,0,0,0-.11.75L170,78.4l-.24,2.67a81.3,81.3,0,0,1-2.56,10.75,28.88,28.88,0,0,1-5.33,9.79,51.85,51.85,0,0,0-4.65,5.44v0h0a5.24,5.24,0,0,0,1.9.66c.65.17,1.28.4,1.89.61s1.2.46,1.75.73a11.73,11.73,0,0,1,1.51.94c3.7,2.47,7.27,4.76,10.74,7.28a66.26,66.26,0,0,1,9.87,8.51,95.66,95.66,0,0,1,6.36,10.39c.49.9.88,1.83,1.28,2.75l.59,1.39.49,1.43a23,23,0,0,1,1.32,5.83,14.53,14.53,0,0,1,.79,5.78c0,2-.24,4.09-.09,6.15l.21-.16c-.62,1.49,1,3.3,0,4.24l0-.16c-.51.78,1.18,1.83.58,2.31l.25.13c.07,1-.28.11-.39.84,0,.28.45.11.31.69-1,.12.22,2.33-.93,2.39,0-.52-.44.82-.68-.35-.12.33-.06,1.93.43,1.79.51.13,1,.76,1.36-.21l-.37-.2c.37-.33.18-.25.47-.36.05-1.27.59-1.44.82-2.34,0,0,0,0,0,0-.45-.62-.18-1.48-.11-2l.21-.2c.44-.3-.85-1.45-.1-1.06-.18-2.59-.19-5.57-.37-8.49-.3-.39-.13-2.24-.64-1.56.58-.77.51-3,.35-3.79a.15.15,0,0,1,.13.18c.58-1.71-1-1.73-.33-3.38-.71-.08-.39-2.73-1.44-3.33.1-.22.21-.32.35-.29-.36-1.32-.81-2.63-1.18-3.94s-.88-2.53-1.29-3.59a10.66,10.66,0,0,1-1.58-2.89,6.44,6.44,0,0,0-1.8-2.52,14.19,14.19,0,0,0-2.84-4.75l.19.09c-.33-.44-.66-.91-1-1.36s-.78-.89-1.17-1.31a8.62,8.62,0,0,0-2.28-1.89c.17-1-.57-1.64-1.08-2.46-1.29-.78-3.38-2.86-5.37-3.92,0-.51-1.54-1-1.3-1.5-2.7-1.28-5.5-2.84-8.43-4.33-.72-.4-1.47-.73-2.2-1.11s-1.46-.77-2.21-1.11l-2.2-1.08-1.07-.5c-.49-.23,0,0-.59-.47l.26,2.69.9-.76,0,.1a20.91,20.91,0,0,0,.82-2.92c.09,0,.16,0,0,.17.7-1,1.81-1.5,2.46-2.52.07.06.07.06,0,.27a5.11,5.11,0,0,1,1.1-1.38,4.06,4.06,0,0,0,1-1.63h.16c.11-.27.19-.55.28-.83.14.12.36.29.07.65a39.32,39.32,0,0,0,5.64-14.73c.24-1.31.39-2.63.52-4l.15-2,0-1.21c0-.05,0-.13,0-.14l.12,0,.23,0a2.63,2.63,0,0,1,.49,0l1.87,0,3.9,0-.38.17,2-.33c0,.09-.1.14-.2.18,2.57.27,5.22-.28,7.71-.23,0,.09-.39.27,0,.37,1.85-.51,3,.62,3.89-.41a.22.22,0,0,1-.05.37,77.47,77.47,0,0,1,15.46.46,15.12,15.12,0,0,1,3.29.06c1.11.14,2.21.4,3.32.65,2.2.62,4.37,1.33,6.54,1.91l-.09.16a24.43,24.43,0,0,1,7.79,4.14,53.88,53.88,0,0,1,6.61,6.1c1.61,1.88,2.8,3.07,4.28,5.1l-.15.18a13.5,13.5,0,0,1,2,2.56c.53,1,1,2,1.47,3a46.69,46.69,0,0,0,2.76,6.06l-.4-.18c.7.48.63,2.56,1.35,2.08l0,.82a7.37,7.37,0,0,1,1.13,4.16,21.26,21.26,0,0,0,.49,4.79l-.21-.23a7,7,0,0,1,.2,2.83c0-.11-.09-.06-.14-.29-.76,3,.09,6.45.07,9.67l-.37-.36c.43,1.56,0,4.41.23,6.46l-.17-.12.24,1-.34,0C246.44,141.14,246.74,143.64,246.78,146.25Z"/><path class="cls-1" d="M234.21,165h0C234.31,165,234.27,165,234.21,165Z"/><path class="cls-1" d="M197.67,167.81a3.2,3.2,0,0,1-.07.33C197.67,168.11,197.66,167.92,197.67,167.81Z"/><polygon class="cls-1" points="88.47 75.07 88.37 75.18 88.68 75.47 88.47 75.07"/><path class="cls-1" d="M89.22,77c0-.06.14,0,.19-.1l-.89-1.08C88.07,76.29,89.52,76.61,89.22,77Z"/><path class="cls-1" d="M89.15,77.27c-.17.45.23.6.37.69C89.2,77.83,89.57,77.16,89.15,77.27Z"/><path class="cls-1" d="M108.63,107.64l-.13,0A.14.14,0,0,0,108.63,107.64Z"/><path class="cls-1" d="M118.1,109.77l.16-.28a7.7,7.7,0,0,1-2.73-.47,17.75,17.75,0,0,0-2.66-1L113,108a44.44,44.44,0,0,1-11.9-6.93c.07,0,.16,0,.24,0a1.77,1.77,0,0,1-.75-.3c0-.09.16,0,.24,0-.33-1.06-2.23-2-2.36-2.68-.23-.17-.46-.15-.5.09a48.22,48.22,0,0,1-6.36-9.78c0-.2.13-.28.31-.3-2-2.78-2.39-6.43-2.59-9.79-.23-.11-.22.37-.47,0-.22,1.14.81,1.94.53,3l-.23-.09c0,.75.56.05.4.85-.13.33-.28,0-.28.12.15.76.38,1.52.58,2.28a5.78,5.78,0,0,0,1,2.09c-.32.49.55,1.56.33,2.26.31.31.4.71.74.73,1.89,5.1,5.55,9.46,9.61,13.12A14.71,14.71,0,0,1,105,105a14.09,14.09,0,0,0,1.76,1.38,12.51,12.51,0,0,0,2,1.15.08.08,0,0,1-.05.08A14.52,14.52,0,0,1,112,109h1.07a26.55,26.55,0,0,0,10.29,2.8l2.7.14,2.71-.11c.46,0,.91,0,1.36-.07l1.34-.17c.9-.14,1.81-.17,2.7-.37a34.74,34.74,0,0,0,11.14-4,28.82,28.82,0,0,0,4.71-3.39c.69-.69,1.37-1.4,2-2.13a22.16,22.16,0,0,0,1.77-2.4c.06.06.14,0,0,.22.74-.88,1.4-1.75,2.08-2.6.34-.42.69-.84,1-1.28s.55-.93.8-1.41l.07.05c.26-.63.58-1.23.86-1.85s.53-1.27.81-1.9c.62-1.23,1-2.56,1.53-3.84a14,14,0,0,0,.6-2c.17-.67.33-1.33.47-2a24.27,24.27,0,0,0,.29-3.95,33.58,33.58,0,0,0-3.57-19.17l.16-.06c-.33-.57-.62-1.15-.93-1.72s-.68-1.11-1-1.67A36.2,36.2,0,0,0,155,52.88l-.53-.81c-.2-.27-.41-.51-.61-.77l-1.25-1.5a24.37,24.37,0,0,0-2.88-2.68,21.89,21.89,0,0,0-3.3-2.48c-.61-.33-1.23-.65-1.85-1l-.93-.47-1-.37-1.94-.76c-.64-.25-1.32-.41-2-.64s-1.29-.46-1.94-.66-1.3-.39-1.94-.63a6.92,6.92,0,0,0-1.21-.53,12,12,0,0,0-1.36-.22c-.47-.06-.94-.09-1.42-.11a7.7,7.7,0,0,0-1.44,0c-1,.07-1.91.14-2.81.13a8.82,8.82,0,0,1-2.54-.14c-.41-.07-.82-.12-1.23-.17s-.81,0-1.22,0c-.81,0-1.63.06-2.44.13s-1.58.32-2.37.52l-1.17.31c-.39.12-.76.29-1.13.44-.75.31-1.49.64-2.22,1s-1.39.82-2.08,1.25l-1,.64-1,.75c-.63.5-1.27,1-1.88,1.5s-1.23.81-1.83,1.24l-.89.65-.81.76-1.58,1.53-1.41,1.68c-1,1.08-1.72,2.34-2.63,3.45-.45.57-.81,1.19-1.24,1.76s-.92,1.12-1.32,1.72a15.57,15.57,0,0,1-1.85,3.84c-.38.65-.77,1.31-1.12,2A12.91,12.91,0,0,0,91,66.44l.25,0a1.82,1.82,0,0,0-.31,1.69c.1.59.18,1.11-.36,1.37l0-.12c-.59.51,1,1.49.33,1.75l.23.12c0,.69-.3,0-.43.57,0,.21.45.12.28.53-1,0,.14,1.7-1,1.7,0-.39-.48.61-.67-.28-.13.25-.14,1.46.35,1.35.52.1,1,.55,1.38-.15l-.37-.15c.39-.23.2-.17.48-.25.1-.92.65-1,.91-1.64,0,0,0,0,0,0-.42-.46-.13-1.06,0-1.4l.23-.11c.46-.15-.7-1.11,0-.75a21.28,21.28,0,0,1,.31-2.87l.73-3c-.18-.36.56-1.46-.12-1.22.79-.28,1.41-1.64,1.63-2.16,0,0,.1.09,0,.16,1.21-.63-.13-1.48,1.21-2-.28-.23,0-.63.24-1.06s.61-.88.41-1.34a.45.45,0,0,1,.43.11,12.8,12.8,0,0,1,1.65-2.24c.62-.68,1.16-1.38,1.69-1.93.43-1.38,2.29-2.17,2.59-3.49.41-.26,1-.57,1.49-1a6.2,6.2,0,0,0,1.55-1.3l0,.16c1.12-1,2.71-1.89,3.32-2.91.76.46,1.26.07,2,0A8.21,8.21,0,0,1,113,43.51a19.53,19.53,0,0,0,2.19-1.11c.33.28,1.13-.59,1.37,0A17.53,17.53,0,0,1,119.63,41a24,24,0,0,1,3.54-.59,25.91,25.91,0,0,1,3.64.11,30,30,0,0,1,3.45.72l-.07,0c.6-.21,1.37-.76,2-1,.05.06,0,.15-.09.13a3.14,3.14,0,0,1,1.19.35,3.61,3.61,0,0,0,1.16.46c0,.09,0,.09-.18.14.82,0,1.44.82,2.44.66v.16h.61c-.07.16-.18.41-.45.25a46,46,0,0,1,9.7,4.66,24.77,24.77,0,0,1,2.26,1.58L151,50.41l1.92,2a24.27,24.27,0,0,1,1.71,2.19l-.31-.11,1.12,1a.23.23,0,0,1-.24,0c.71,1.71,2.17,3,2.82,4.74-.09,0-.36-.14-.34.13a2.37,2.37,0,0,1,.68,1.47c.07.45.16.8.75.92a.24.24,0,0,1-.34.1l.57,1.25a7.55,7.55,0,0,1,.49,1.3c.28.88.53,1.78.77,2.68s.29,1.84.41,2.77l.09.69v.69l0,1.39a11.58,11.58,0,0,1,.38,4.85c-.07.82-.24,1.64-.32,2.47,0,.42-.07.83-.09,1.25S161,83,161,83.39l-.18-.06a17.77,17.77,0,0,1-1.83,6.2c-.53,1-1,2-1.59,2.9s-1.18,1.86-1.76,2.78c-1.16,1.4-1.65,2.57-2.93,3.9l-.2-.13a9.23,9.23,0,0,1-3.38,3.36c-.67.47-1.41.84-2.06,1.33a9.85,9.85,0,0,0-.93.78,10.17,10.17,0,0,0-.9.84l0-.38c-.17.67-1.74.85-1.16,1.47l-.62.08a4.54,4.54,0,0,1-2.72,1.61c-.51.17-1.07.25-1.62.41a6,6,0,0,0-1.7.81l.1-.25a3.47,3.47,0,0,1-2,.67c.07,0,0-.1.17-.19a11.24,11.24,0,0,0-3.44.5,15.32,15.32,0,0,1-3.51.72l.24-.37a6.11,6.11,0,0,1-2.2.29c-.85.06-1.73-.12-2.48,0l.1-.17-.77.2v-.35c-.48,0-1,0-1.43-.07l-1.4-.12A14.57,14.57,0,0,1,118.1,109.77Z"/><path class="cls-1" d="M100.86,100.73a0,0,0,0,1,0,0C100.94,100.77,100.91,100.75,100.86,100.73Z"/><path class="cls-1" d="M92.1,72.66a1.45,1.45,0,0,1-.09.22C92.09,72.87,92.08,72.73,92.1,72.66Z"/><polygon class="cls-1" points="62.66 0.14 62.55 0.04 62.32 0.36 62.66 0.14"/><path class="cls-1" d="M60.94.92c.06,0,0,.14.09.19L62,.2C61.54-.24,61.27,1.22,60.94.92Z"/><path class="cls-1" d="M60.62.86c-.43-.17-.58.24-.66.38C60.08.92,60.74,1.27,60.62.86Z"/><path class="cls-1" d="M30.63,20.6a.65.65,0,0,0,0-.13A.15.15,0,0,0,30.63,20.6Z"/><path class="cls-1" d="M28.51,30l.29.17a5.91,5.91,0,0,1,.49-2.7l.47-1.34a9.51,9.51,0,0,0,.48-1.32l.05.15a45.44,45.44,0,0,1,6.83-11.88c0,.08,0,.16,0,.24.08-.24.11-.56.31-.73.1,0,.06.16,0,.24a3.67,3.67,0,0,0,1.4-1.31c.46-.51.88-1,1.24-1.06.18-.23.14-.48-.09-.5a45.5,45.5,0,0,1,9.63-6.48c.2,0,.28.11.3.3,2.79-1.92,6.33-2.56,9.73-2.69.11-.24-.37-.21,0-.47-1.12-.17-2,.73-3,.56L56.7.94c-.74,0,0,.56-.83.45-.33-.11,0-.28-.12-.27-.75.21-1.53.33-2.28.54a7.23,7.23,0,0,0-2,1.05c-.49-.34-1.58.47-2.25.32-.3.33-.69.45-.7.79-5.06,1.92-9.38,5.58-13,9.64a6.88,6.88,0,0,1-1,1.78c-.39.56-.91,1.07-1.33,1.66a14.24,14.24,0,0,0-2.46,3.75.08.08,0,0,1-.08,0,10.65,10.65,0,0,1-.6,1.63A18.15,18.15,0,0,1,29.29,24l0,1.05a26.35,26.35,0,0,0-2.76,10.25c0,.44-.11.89-.11,1.34v1.35c0,.89,0,1.8.05,2.69l.25,2.69c0,.9.25,1.78.36,2.68a34.8,34.8,0,0,0,4,11.1,24.69,24.69,0,0,0,8,8.39c-.06.06,0,.14-.23,0a37.93,37.93,0,0,0,5.3,3.81l0,.07c2.48,1.08,4.95,2.28,7.55,3.19A21.11,21.11,0,0,0,59.43,74,31.58,31.58,0,0,0,78.5,70.53l.07.16c.57-.3,1.12-.65,1.68-1a7.5,7.5,0,0,0,1.64-1.08,4,4,0,0,0,1-1.72l.51-1.84c.73-2.44,1.66-4.77,2.53-7.18,1.22-2.33,2.28-4.81,3.61-7.22a22.63,22.63,0,0,1,5-6.45,10.72,10.72,0,0,0,2-1.7c.33-.33.65-.67,1-1a4,4,0,0,0,.81-1.19,5.48,5.48,0,0,0,.43-2.66,7.83,7.83,0,0,1,.13-2.53,11.11,11.11,0,0,0,.14-2.44,17.88,17.88,0,0,0-.16-2.42,20.11,20.11,0,0,0-1.33-4.63,27,27,0,0,0-5.24-8,18.08,18.08,0,0,0-2.67-3.48c-.52-.52-1-1.07-1.56-1.54L86.4,11.21a18.17,18.17,0,0,0-1.73-1.3c-.59-.41-1.17-.84-1.73-1.27s-1.2-.78-1.78-1.2S80,6.55,79.42,6.16a16,16,0,0,1-3.83-1.8c-.65-.36-1.3-.78-2-1.09a12.5,12.5,0,0,0-2.18-.67l0,.25c-.92-1-2.54.44-3-.65l.12,0c-.51-.59-1.48,1-1.74.34l-.12.23c-.69,0-.05-.29-.57-.43-.21,0-.12.45-.52.29,0-1-1.7.13-1.7-1,.38,0-.6-.47.28-.67-.25-.13-1.45-.13-1.34.36-.1.52-.55,1,.15,1.38l.14-.37c.23.39.18.2.26.48.9.1,1,.65,1.62.91,0,0,0,0,0,0,.47-.43,1.06-.13,1.4,0l.11.23c.16.46,1.1-.7.75,0,.9.06,1.87.13,2.86.29l2.95.73c.37-.23,1.46.54,1.22-.15.29.77,1.63,1.43,2.16,1.59,0,.05-.09.11-.16.05.65,1.19,1.47-.14,2,1.19.23-.28.62,0,1.06.22s.89.6,1.34.39c0,.2,0,.34-.11.42a35.32,35.32,0,0,1,4.22,3.26,4.6,4.6,0,0,1,1.77,1.32,6.3,6.3,0,0,0,.83.74,1.88,1.88,0,0,0,.91.46,12.5,12.5,0,0,0,2.29,3l-.16,0c.44.58,1,1.19,1.48,1.8a5.87,5.87,0,0,0,1.46,1.45c-.47.78,0,1.23,0,1.93a7.9,7.9,0,0,1,1.16,1.69c.44.69.71,1.51,1.16,2.16-.28.33.58,1.11.08,1.35a20.17,20.17,0,0,1,1.36,3.08,27.93,27.93,0,0,1,.64,3.51c0,1.21,0,2.43-.08,3.62-.1.74-.8,1.77-1.25,1.85a.08.08,0,0,0,0,0c-.22.6-.34,1.61-.53,2.31-.07,0-.13-.07,0-.15-.55.67-1.52.85-2.06,1.56-.06-.07-.06-.07,0-.23-.39.76-1.5.94-1.82,2l-.15,0-.25.6c-.13-.13-.32-.32-.06-.54a35.72,35.72,0,0,0-6.14,9.76A61.75,61.75,0,0,0,81.92,66l-.11-.31v.76a5.73,5.73,0,0,1,0,.59.25.25,0,0,1-.13-.16,8.63,8.63,0,0,1-.6.83,2.92,2.92,0,0,1-.81.69,12.47,12.47,0,0,1-2.33,1.41c0-.08.13-.35-.13-.34-1,1-2.15.26-2.37,1.45a.24.24,0,0,1-.1-.34,23.45,23.45,0,0,1-10.7,2.33,9.35,9.35,0,0,1-2.36.42,18.51,18.51,0,0,1-2.46-.12c-.82-.11-1.65-.19-2.46-.32s-1.65-.18-2.47-.21l.06-.18a17.32,17.32,0,0,1-6.16-1.88,54.08,54.08,0,0,1-5.66-3.32c-1.45-1.08-2.53-1.67-3.93-2.85l.13-.2A9.3,9.3,0,0,1,36,60.85c-.45-.69-.91-1.36-1.36-2a9.86,9.86,0,0,0-.77-.94A7.06,7.06,0,0,0,33,57h.39c-.34-.07-.57-.5-.78-.83s-.38-.6-.7-.31l-.06-.62a4.2,4.2,0,0,1-1.63-2.69A9.81,9.81,0,0,0,29,49.27l.24.11a3.65,3.65,0,0,1-.68-2c.05.07.1,0,.19.17a6.16,6.16,0,0,0-.11-1.72,10.5,10.5,0,0,0-.38-1.71,23.19,23.19,0,0,1-.7-3.49l.39.24a3.13,3.13,0,0,1-.27-1,12,12,0,0,1,0-1.21,20.42,20.42,0,0,0,0-2.48l.16.1-.17-.76H28c.11-1,.12-1.89.16-2.82S28.34,30.93,28.51,30Z"/><path class="cls-1" d="M37.44,12.83h0C37.4,12.9,37.42,12.87,37.44,12.83Z"/><path class="cls-1" d="M65.23,3.75A1.23,1.23,0,0,1,65,3.67C65,3.74,65.16,3.73,65.23,3.75Z"/><polygon class="cls-1" points="185.78 0.1 185.66 0 185.38 0.31 185.78 0.1"/><path class="cls-1" d="M183.9.83c.06.06,0,.15.1.2l1.07-.89C184.56-.31,184.23,1.14,183.9.83Z"/><path class="cls-1" d="M183.57.76c-.44-.17-.59.23-.67.36C183,.81,183.69,1.18,183.57.76Z"/><path class="cls-1" d="M153.28,20.06a.69.69,0,0,0,.05-.13A.14.14,0,0,0,153.28,20.06Z"/><path class="cls-1" d="M151,29.42l.29.17a5.57,5.57,0,0,1,.52-2.7c.35-.87.68-1.76,1-2.64l.06.16a45.61,45.61,0,0,1,7.07-11.72c0,.08,0,.16,0,.24.08-.24.11-.57.3-.74.1,0,.06.16,0,.24,1.05-.32,1.95-2.21,2.68-2.32.19-.22.15-.46-.08-.49a47,47,0,0,1,9.71-6.34c.2,0,.28.12.29.3,2.79-1.94,6.38-2.44,9.73-2.62.12-.23-.36-.21-.05-.46-1.13-.15-1.92.8-3,.53l.1-.23c-.75,0-.06.53-.84.42-.33-.11,0-.29-.12-.27-.75.21-1.52.36-2.28.56a6,6,0,0,0-2.06,1c-.49-.34-1.57.47-2.25.31-.3.32-.69.43-.71.78a24.21,24.21,0,0,0-3.66,1.69A16.09,16.09,0,0,0,166,6.37c-.56.39-1.15.73-1.68,1.16a37.39,37.39,0,0,0-3.12,2.63c-.5.47-1,.92-1.49,1.4l-1.41,1.49a5.76,5.76,0,0,1-.48.88,7.82,7.82,0,0,1-.55.86,20.45,20.45,0,0,1-1.38,1.62,15.28,15.28,0,0,0-2.54,3.7.1.1,0,0,1-.08-.05,11.35,11.35,0,0,1-.63,1.62,11.88,11.88,0,0,1-.77,1.69l-.06,1.06A26.93,26.93,0,0,0,149.08,33a8.78,8.78,0,0,0,.5,4.91A6.28,6.28,0,0,0,151.21,40a7.26,7.26,0,0,0,1.06.71,8.81,8.81,0,0,0,1,.54.59.59,0,0,1,.17.1l.21.22.61.55c.37.36.76.71,1.12,1.08a44.5,44.5,0,0,1,3.78,4.2c1.12,1.46,2.18,2.92,3.13,4.43a106.44,106.44,0,0,1,5.31,9.55c-.08,0-.11.09-.21-.08.87,2,1,4,1.55,6h-.09l.29.93a10.13,10.13,0,0,0,.33,1.08,4.35,4.35,0,0,0,1.42,1.93,7.06,7.06,0,0,0,2,1c.64.22,1.27.5,1.93.7a20.35,20.35,0,0,0,7.89,1.2,33.42,33.42,0,0,0,19-4l.07.17c2.24-1.34,4.47-2.59,6.59-4.07A24.11,24.11,0,0,0,214,61a21.07,21.07,0,0,0,4.24-7c1-2.58,1.72-5.22,2.57-7.77a7.66,7.66,0,0,0,.73-2.57,15.08,15.08,0,0,0,0-2.85c-.09-1-.18-1.9-.18-2.79a10,10,0,0,1,.11-2.53,16.42,16.42,0,0,0,0-4.85,12.46,12.46,0,0,0-.51-2.35c-.24-.77-.44-1.55-.75-2.29s-.68-1.46-1-2.17c-.19-.36-.36-.72-.56-1.07l-.67-1-1.36-2L215,17.91l-.54-1c-.2-.31-.44-.59-.66-.88-.45-.58-.92-1.14-1.39-1.7a17.31,17.31,0,0,0-1.57-1.52c-.55-.49-1.06-1-1.63-1.45-2.3-1.77-4.6-3.41-6.92-5.12a7.21,7.21,0,0,1-1.9-.81,20,20,0,0,1-1.9-1,12.13,12.13,0,0,0-4.15-1.8l0,.24a1.26,1.26,0,0,0-.78-.38,4.51,4.51,0,0,0-.9.1c-.59.1-1.1.17-1.36-.38l.12,0c-.5-.59-1.48,1-1.74.31l-.11.24c-.7,0-.06-.29-.58-.42-.2,0-.11.45-.52.29,0-1-1.69.12-1.69-1,.39,0-.6-.48.28-.67-.24-.13-1.45-.14-1.34.35-.1.52-.55,1,.15,1.38l.14-.37c.23.39.18.2.26.49.9.1,1,.65,1.62.91,0,0,0,0,0,0,.46-.42,1.05-.12,1.39,0l.11.22c.15.45,1.1-.69.74,0,.9.05,1.87.17,2.86.31s2,.51,2.93.77c.18-.1.56,0,.85.07s.5.1.38-.24c.28.79,1.6,1.48,2.13,1.66-.05,0-.1.1-.17,0,.67,1.1,1.48-.15,2,1.19.46-.53,1.52,1,2.4.61a.44.44,0,0,1-.11.43c.75.51,1.5,1.09,2.23,1.64s1.3,1.24,1.89,1.72a2.7,2.7,0,0,1,1,.49,10.45,10.45,0,0,1,.8.83A3.05,3.05,0,0,0,211,14.54a9.43,9.43,0,0,0,2.26,3l-.17,0c.45.58.91,1.27,1.41,1.86A9.78,9.78,0,0,0,216,20.82c-.5.79-.07,1.27,0,1.95.87.66,1.43,2.57,2.33,3.84-.25.33.51,1.15,0,1.38a15,15,0,0,1,2,6.59c0,.6,0,1.21,0,1.81a9.12,9.12,0,0,1-.1,1.81,35,35,0,0,1-.65,3.44l0-.07c.23.6.81,1.35,1.12,2-.06,0-.14,0-.13-.1-.05.85-.7,1.52-.78,2.35-.09,0-.09,0-.14-.18,0,.81-.77,1.45-.66,2.43h-.15l0,.61c-.17-.07-.42-.17-.28-.45A43.42,43.42,0,0,1,214.08,58a28.6,28.6,0,0,1-7.46,8l.12-.3-1,1.09c-.05-.08,0-.15,0-.23-1.66.76-3,2.2-4.65,2.9,0-.08.13-.36-.14-.34-1,1-2.15.27-2.35,1.49a.26.26,0,0,1-.11-.34,24.66,24.66,0,0,1-10.65,2.62,11.3,11.3,0,0,1-4.79.49c-1.65-.15-3.29-.39-4.94-.4l0-.18A16.32,16.32,0,0,1,172,71c-2.06-1.07-1.54-3.7-2.21-5.76a29.9,29.9,0,0,0-1.45-4.69l.2-.11a9.08,9.08,0,0,1-1.06-2.14c-.31-.74-.52-1.54-.8-2.32a9.43,9.43,0,0,0-2.46-4.26l.38,0c-.65-.18-.93-1.74-1.51-1.12L163,50a5.3,5.3,0,0,1-2.08-2.36A6.72,6.72,0,0,0,158.67,45h.27a4.52,4.52,0,0,1-1.51-1.42c.08,0,.09,0,.25.05a9.26,9.26,0,0,0-3.82-3.46,5.19,5.19,0,0,1-1.74-.83l.41-.14A2.73,2.73,0,0,1,151,37.84a7.76,7.76,0,0,1-.73-2.23l.17.07a7.49,7.49,0,0,1-.28-.71l.35,0A26.56,26.56,0,0,1,151,29.42Z"/><path class="cls-1" d="M160.25,12.43h0C160.21,12.5,160.23,12.48,160.25,12.43Z"/><path class="cls-1" d="M188.16,3.74a1.45,1.45,0,0,1-.22-.09C188,3.73,188.09,3.72,188.16,3.74Z"/></g></g></svg>