<svg xmlns="http://www.w3.org/2000/svg" viewBox="0 0 646.78 113.43"><defs><style>.cls-1{fill:#212120;}</style></defs><g id="Layer_2" data-name="Layer 2"><g id="Keadex_Battisti" data-name="Keadex Battisti"><g id="Layer_3" data-name="Layer 3"><path class="cls-1" d="M165.15,51.91,157.5,58.8V76.56h-4.59V26.93h4.59V53.69l27.85-26.76h5.79L168.36,49l24.53,27.54h-5.6Z"/><path class="cls-1" d="M214.77,77.24a18.75,18.75,0,0,1-9.31-2.32A16.31,16.31,0,0,1,199,68.46a18.71,18.71,0,0,1-2.31-9.28V57.71a20.18,20.18,0,0,1,2.25-9.58,17,17,0,0,1,6.3-6.7A16.61,16.61,0,0,1,214,39c4.91,0,8.79,1.53,11.67,4.59s4.31,7.23,4.31,12.53v2.28H201.11v.79a14.59,14.59,0,0,0,3.94,10.44A13,13,0,0,0,215,73.8a15.85,15.85,0,0,0,6.33-1.19,13.83,13.83,0,0,0,5-3.82l2.8,1.94Q224.15,77.24,214.77,77.24ZM214,42.47a11.68,11.68,0,0,0-8.49,3.38,15,15,0,0,0-4.2,9.06h24.23v-.44a12.88,12.88,0,0,0-3.32-8.66A10.75,10.75,0,0,0,214,42.47Z"/><path class="cls-1" d="M264.13,76.56a17.85,17.85,0,0,1-.86-5.15,15.46,15.46,0,0,1-6,4.32,19.88,19.88,0,0,1-7.71,1.51,14.4,14.4,0,0,1-9.43-3,9.32,9.32,0,0,1-3.6-7.5,9.69,9.69,0,0,1,4.91-8.53q4.91-3.14,13.68-3.13h8.11V50.93a7.78,7.78,0,0,0-2.67-6.23q-2.67-2.27-7.79-2.26a13,13,0,0,0-7.73,2.18A6.33,6.33,0,0,0,242,49.87l-4.48,0q0-4.39,4.48-7.61A18.38,18.38,0,0,1,253,39q6.75,0,10.65,3.09a10.64,10.64,0,0,1,4,8.61V68.14q0,5.35,1.23,8v.41Zm-14-2.93a16.07,16.07,0,0,0,8-2,12.16,12.16,0,0,0,5.14-5.28V58.25h-8q-6.69.07-10.46,2.24T241,66.44a6.35,6.35,0,0,0,2.52,5.14A10,10,0,0,0,250.09,73.63Z"/><path class="cls-1" d="M277.8,57.78q0-8.6,4.2-13.69A14,14,0,0,1,293.4,39q8.18,0,12.47,5.9V24.2h4.45V76.56h-4.19L306,71.65q-4.31,5.59-12.62,5.59a13.93,13.93,0,0,1-11.26-5.13Q277.8,67,277.8,58.25Zm4.51.71q0,7.07,3.1,11.13a10.34,10.34,0,0,0,8.74,4.08q8.25,0,11.72-6.65V49.73q-3.47-7.18-11.65-7.19a10.47,10.47,0,0,0-8.77,4Q282.32,50.62,282.31,58.49Z"/><path class="cls-1" d="M337.72,77.24a18.79,18.79,0,0,1-9.32-2.32,16.34,16.34,0,0,1-6.47-6.46,18.61,18.61,0,0,1-2.32-9.28V57.71a20.07,20.07,0,0,1,2.26-9.58,17,17,0,0,1,6.29-6.7A16.64,16.64,0,0,1,336.9,39q7.35,0,11.67,4.59t4.31,12.53v2.28H324.05v.79A14.63,14.63,0,0,0,328,69.62a13,13,0,0,0,9.92,4.18,15.85,15.85,0,0,0,6.33-1.19,13.91,13.91,0,0,0,5-3.82l2.8,1.94Q347.09,77.24,337.72,77.24Zm-.82-34.77a11.72,11.72,0,0,0-8.5,3.38,15,15,0,0,0-4.2,9.06h24.24v-.44a12.89,12.89,0,0,0-3.33-8.66A10.73,10.73,0,0,0,336.9,42.47Z"/><path class="cls-1" d="M374.27,54.64l10.9-15h5.3l-13.7,18.1,14.3,18.78h-5.26L374.31,61l-11.5,15.61h-5.27l14.27-18.78-13.7-18.1h5.26Z"/><path class="cls-1" d="M417.54,76.56V26.93h17.77q8.85,0,13.31,3.34t4.47,9.88a9.55,9.55,0,0,1-2.17,6.16,14,14,0,0,1-5.9,4.14,12.7,12.7,0,0,1,7,4.28,11.56,11.56,0,0,1,2.55,7.51,12.73,12.73,0,0,1-4.74,10.5q-4.74,3.83-13.4,3.82Zm7.17-28.46h10.83a12.06,12.06,0,0,0,7.52-2.16,7,7,0,0,0,2.82-5.84q0-4.1-2.61-6t-8-1.86h-10.6Zm0,5.25V71.21h11.84a12.09,12.09,0,0,0,7.89-2.37,8,8,0,0,0,2.9-6.53q0-9-10.68-9Z"/><path class="cls-1" d="M489,76.56a12.57,12.57,0,0,1-1-3.89,16.1,16.1,0,0,1-11.5,4.57,15.16,15.16,0,0,1-9.8-3.08,9.64,9.64,0,0,1-3.82-7.83,10.14,10.14,0,0,1,4.79-8.94q4.8-3.2,13.5-3.19h6.72V51.3A6.78,6.78,0,0,0,485.76,46c-1.45-1.3-3.58-2-6.39-2a10.75,10.75,0,0,0-6.2,1.71,4.93,4.93,0,0,0-2.5,4.12h-6.94a8.23,8.23,0,0,1,2.14-5.33,14.63,14.63,0,0,1,5.83-4.08,21.17,21.17,0,0,1,8.08-1.5q7,0,10.94,3.19A11.07,11.07,0,0,1,494.83,51v17A19.1,19.1,0,0,0,496.25,76v.54Zm-11.46-4.81a13,13,0,0,0,6.16-1.53,9.69,9.69,0,0,0,4.22-4V58.66h-5.41q-12.7,0-12.7,6.79A5.49,5.49,0,0,0,472,70.08,8.8,8.8,0,0,0,477.54,71.75Z"/><path class="cls-1" d="M515,30.74v8.94h7.54v4.87H515v22.9a4.82,4.82,0,0,0,1,3.33,4.5,4.5,0,0,0,3.44,1.11,18.57,18.57,0,0,0,3.29-.41v5.09a22.07,22.07,0,0,1-5.31.67q-4.62,0-7-2.55t-2.35-7.26V44.55h-7.36V39.68h7.36V30.74Z"/><path class="cls-1" d="M540,30.74v8.94h7.55v4.87H540v22.9a4.82,4.82,0,0,0,1,3.33,4.48,4.48,0,0,0,3.44,1.11,18.48,18.48,0,0,0,3.28-.41v5.09a21.93,21.93,0,0,1-5.3.67c-3.09,0-5.41-.85-7-2.55s-2.35-4.13-2.35-7.26V44.55h-7.36V39.68h7.36V30.74Z"/><path class="cls-1" d="M555.65,29.89a3.6,3.6,0,0,1,1-2.59,4.09,4.09,0,0,1,3.05-1.06,4.15,4.15,0,0,1,3.06,1.06,3.54,3.54,0,0,1,1,2.59,3.42,3.42,0,0,1-1,2.56,4.22,4.22,0,0,1-3.06,1,4.16,4.16,0,0,1-3.05-1A3.48,3.48,0,0,1,555.65,29.89Zm7.46,46.67h-6.9V39.68h6.9Z"/><path class="cls-1" d="M597.69,66.78a4.52,4.52,0,0,0-2.11-4q-2.12-1.43-7.36-2.44a36.73,36.73,0,0,1-8.32-2.46,11.56,11.56,0,0,1-4.56-3.41,7.63,7.63,0,0,1-1.47-4.7q0-4.53,4.2-7.67A17.47,17.47,0,0,1,588.8,39q6.87,0,11.15,3.24a10,10,0,0,1,4.27,8.29h-6.94a5.55,5.55,0,0,0-2.41-4.47,9.59,9.59,0,0,0-6.07-1.87,10.12,10.12,0,0,0-5.9,1.5,4.59,4.59,0,0,0-2.13,3.92,3.74,3.74,0,0,0,2,3.44,26,26,0,0,0,7.15,2.21,39.81,39.81,0,0,1,8.38,2.53,12,12,0,0,1,4.77,3.53,8.12,8.12,0,0,1,1.54,5,9.19,9.19,0,0,1-4.33,7.93q-4.32,3-11.23,3a21.94,21.94,0,0,1-8.59-1.57,13.63,13.63,0,0,1-5.84-4.38,9.9,9.9,0,0,1-2.11-6.08h6.9a6.39,6.39,0,0,0,2.78,5A11.53,11.53,0,0,0,589,72.1a12,12,0,0,0,6.29-1.45A4.39,4.39,0,0,0,597.69,66.78Z"/><path class="cls-1" d="M623,30.74v8.94h7.55v4.87H623v22.9a4.82,4.82,0,0,0,1,3.33,4.48,4.48,0,0,0,3.44,1.11,18.48,18.48,0,0,0,3.28-.41v5.09a21.93,21.93,0,0,1-5.3.67c-3.09,0-5.41-.85-7-2.55s-2.35-4.13-2.35-7.26V44.55H608.7V39.68h7.36V30.74Z"/><path class="cls-1" d="M638.61,29.89a3.6,3.6,0,0,1,1-2.59,4.09,4.09,0,0,1,3-1.06,4.15,4.15,0,0,1,3.06,1.06,3.54,3.54,0,0,1,1,2.59,3.42,3.42,0,0,1-1,2.56,4.22,4.22,0,0,1-3.06,1,4.16,4.16,0,0,1-3-1A3.48,3.48,0,0,1,638.61,29.89Zm7.46,46.67h-6.9V39.68h6.9Z"/><g id="Layer_1-2" data-name="Layer 1"><path class="cls-1" d="M37.29,33.37c1.85-8.13,4.34-15.93,9.12-22.78a31.88,31.88,0,0,1,4.4-5,10.55,10.55,0,0,1,7.48-3.2,10.45,10.45,0,0,1,7.24,3.19,35.89,35.89,0,0,1,4.81,5.57c4.55,6.7,6.93,14.28,8.73,22.18Z"/><path class="cls-1" d="M79.06,80.05a72.27,72.27,0,0,1-6.51,18.57,32,32,0,0,1-5.92,8.2,21.21,21.21,0,0,1-3.21,2.56,9,9,0,0,1-10.75-.22,28,28,0,0,1-5.16-4.87c-5.23-6.35-8.85-17.13-10.13-24.24Z"/><path class="cls-1" d="M28.17,72.22H26.93c-7.88,0-15.76,0-23.63,0A1.3,1.3,0,0,1,1.78,71a58.73,58.73,0,0,1,0-28.62,1.36,1.36,0,0,1,1.62-1.24c7.8,0,15.59,0,23.39,0h1.38A123.3,123.3,0,0,0,28.17,72.22Z"/><path class="cls-1" d="M88.21,72.17a124.32,124.32,0,0,0,0-31h1.25c7.87,0,15.75,0,23.63,0,.85,0,1.24.19,1.47,1.1a58.36,58.36,0,0,1,0,29c-.19.71-.42,1-1.19,1-8.12,0-16.24,0-24.36,0C88.77,72.22,88.57,72.2,88.21,72.17Z"/><path class="cls-1" d="M71.18.19c18.68,4.65,32,15.7,40.32,33.17-.55,0-.88.08-1.22.08-7.38,0-14.77,0-22.15,0-.9,0-1.21-.25-1.4-1.15-1.77-8.4-4.31-16.54-9-23.83A96.2,96.2,0,0,0,71.65.71C71.5.53,71.34.36,71.18.19Z"/><path class="cls-1" d="M71,113.43C80.47,104.1,84.28,92.34,87,80h24.4A58.46,58.46,0,0,1,71,113.43Z"/><path class="cls-1" d="M29.33,33.4H4.93A57.46,57.46,0,0,1,18.45,14.31,58.26,58.26,0,0,1,45.34,0C35.89,9.33,32.07,21.1,29.33,33.4Z"/><path class="cls-1" d="M5.09,80H29.33c2.74,12.28,6.55,24,15.84,33.21C31.27,112.28,8.26,93.21,5.09,80Z"/></g><g id="Layer_1-3" data-name="Layer 1"><path class="cls-1" d="M42,37.93H63.56v7.46c0,2.16,2,3.57,5.17,3.57H79.59v.33q0,11.51,0,23c0,1.81-2.13,3.28-4.76,3.28H42.67c-2.62,0-4.75-1.48-4.75-3.28q0-15.56,0-31.09c0-1.33,1-2.31,2.66-2.92A11.77,11.77,0,0,1,42,37.93Z"/><path class="cls-1" d="M78.42,46.75H68.56c-1.15,0-1.79-.43-1.79-1.22v-6.8Z"/></g></g></g></g></svg>