<svg xmlns="http://www.w3.org/2000/svg" viewBox="0 0 411.69 414.92"><defs><style>.cls-1{fill:#fff;}.cls-2{fill:#3867b1;}.cls-3{fill:#eeb9be;}</style></defs><g id="Layer_2" data-name="Layer 2"><g id="About_Me" data-name="About Me"><polygon class="cls-1" points="154.84 387.13 155.8 387.24 158.29 386.94 154.84 387.13"/><path class="cls-1" d="M177.93,382.71c-.46.22-.3,0-.75.24a35.88,35.88,0,0,1-5.63,3.12.25.25,0,0,0-.08.1,3.72,3.72,0,0,1-.47.44l-.31.26-.67.06-2.22.19a15.43,15.43,0,0,0,2.22.09h.68l.47-.36a4.94,4.94,0,0,0,.49-.42v-.05l.88-.43.88-.46c.57-.33,1.1-.69,1.62-1s1-.67,1.46-1S177.45,383,177.93,382.71Z" transform="translate(-6.94)"/><path class="cls-1" d="M180.41,381.05a12.93,12.93,0,0,0,3.06-3.18,9.27,9.27,0,0,0,1-1.9,3.83,3.83,0,0,1-.3.65c-.16.25-.35.53-.57.83a15.14,15.14,0,0,1-1.54,1.8C180.94,380.35,180,381.15,180.41,381.05Z" transform="translate(-6.94)"/><path class="cls-1" d="M264.91,167.93l-.9.73A9.37,9.37,0,0,0,264.91,167.93Z" transform="translate(-6.94)"/><path class="cls-1" d="M334.19,118.84l.76-.57c-3.76,1.35-7.66,2.66-11.65,4a17.45,17.45,0,0,0-5.61,3.1l-5.1,3.92c-6.83,5.23-13.78,10.5-20.39,15.77l.84-.79c-17,13.06-33.21,25.74-49.37,38.42-4,3.19-8.11,6.3-12.1,9.57a13.91,13.91,0,0,0-3.82,6.65,11.18,11.18,0,0,0,.56,7.58l11.18,29.36c-.26-.61-.43-.79-.7-1.41.42.93.85,1.92,1.31,2.94s.85,2,1.34,3.35c.17.64-.43-.75-.72-1.42.21.62.42,1.29.68,2.07-3.34,1.52-7,3.37-11,5.42-1.43-3.35-2.87-6.7-4.11-9.59s-2.22-5.32-2.73-6.87c-1-2.31-1.64-3.26-1.26-1.9L220,223l-.86-2.05-.05-.12s0-.14,0-.06l-.12.26-.22.52-.44,1-4.8,11.19c-3.38,7.85-6.78,15.78-10.19,23.73l-2.55,6a11.2,11.2,0,0,0-1.1,5.89,13,13,0,0,0,.7,3l1,3.06q1.05,3.07,2.11,6.13l8.4,24.26c.45,1.57.41,1.89.1,1.53q1.84,5.1,3.72,10.27c.61,1.72,1.23,3.45,1.84,5.18l.92,2.62a10.39,10.39,0,0,1,.63,3.06,5.91,5.91,0,0,1-.24,1.78,5,5,0,0,1-.94,1.64,7.32,7.32,0,0,1-2.82,1.82l-5.22,1.94-10.49,3.85-5.26,1.91-2.63.95c-.91.32-1.7.64-2.71,1l-.71.2-.55.14-.46.12.08,1.72.26,5.59c.16,3.74.33,7.48.49,11.2a29.71,29.71,0,0,1-.32,5.8,23.7,23.7,0,0,1-1.66,5.62c-.18.58.27-.1.5-.62s.45-.81,0,.7c2.22-4.72,2.11-9.67,1.7-13.88s-.65-8.36-.67-12.69l.27,1.1c-.09-3.14-.24-3.45-.38-3.79a3.15,3.15,0,0,1-.15-.42.61.61,0,0,1,0-.15c0-.05-.06-.16.06-.15l.26-.05.16,0,.54-.13c2.71-.62-.59.48.65.12l19.11-7,4.71-1.75L215,334a8.69,8.69,0,0,0,2.63-1.46,5.12,5.12,0,0,0,1.72-3,7.47,7.47,0,0,0-.2-3c-.12-.44-.25-.87-.4-1.28l-.42-1.14-.84-2.22c-.55-3.1-4.55-13.62-5.7-18.45-1.27-3.22-2.33-6.52-3-7.67q-2.18-6.57-4.36-13.17-1.11-3.3-2.2-6.61L201,272.7a14.77,14.77,0,0,1-.8-3.1,10.61,10.61,0,0,1,1.08-6c.93-2.13,1.86-4.28,2.78-6.42q2.79-6.43,5.57-12.88t5.58-12.93l2.78-6.47.72-1.68.25-.58,0-.08v0l0,0,.06.14.12.28,10.56,25.38,12.95-6.45Q239.44,233,236.07,224c-2.17-5.17-4.32-10.65-6.47-16.34l-.81-2.14a9.76,9.76,0,0,1-.55-2.07,11.53,11.53,0,0,1,.31-4.32,12.87,12.87,0,0,1,5-7.25c10.23-7.76,20.92-15.79,31.36-24,.16-.09.16,0,0,.09,6.73-5.48,16.67-13.3,24.92-19.55l6.71-5.67,18.67-14.14,2.34-1.78c.79-.59,1.55-1.22,2.31-1.71a15.75,15.75,0,0,1,2.48-1.29c.43-.18.87-.34,1.31-.48l1.4-.44,11.24-3.53,22.52-7.13,11.27-3.59c.94-.31,1.89-.6,2.87-1a10.05,10.05,0,0,0,1.5-.71,3,3,0,0,0,1.54-2.65,5,5,0,0,0-.11-.91,10.68,10.68,0,0,0-.43-1.56c-.34-1-.7-1.91-1.09-2.81L369.7,88.06l-.93-2.18-.07-.17,0-.09s0,0,.08-.05l.32-.19.92-.52,5.16-2.94L395.8,70.17l10.35-5.86a23.78,23.78,0,0,0,9.1-8.14,20.84,20.84,0,0,0,3.38-11.81,23.34,23.34,0,0,0-3.47-11.8,21.14,21.14,0,0,0-10.77-8.74,22.25,22.25,0,0,0-6.83-1.28,14.25,14.25,0,0,0-1.73,0c-.58,0-1.15,0-1.74.12a21.22,21.22,0,0,0-3.39.69,32.57,32.57,0,0,0-6.28,2.56l-5.7,3.15c-3.77,2.11-7.53,4.19-11.27,6.27l-11.18,6.22-5.55,3.09L348,46.2l-.54.29s-.07.06-.1,0l-.07-.09-.15-.19-.72-1-1-1.29a6.63,6.63,0,0,0-1.46-1.44,3.23,3.23,0,0,0-2.57-.45,10.23,10.23,0,0,0-1.78.68c-.51.25-1,.51-1.45.76l-2.76,1.52-11,6C295,67.14,265.85,83.25,235.43,100.61c0-.12-.49.11,1.08-.79-6.46,3.62-12.75,7.07-18.94,10.44L213,112.77a17.25,17.25,0,0,1-4.55,1.89,3.53,3.53,0,0,1-2.05-.1,4.74,4.74,0,0,1-1.7-1.27,17.71,17.71,0,0,1-1.92-2.77,4.42,4.42,0,0,1,.93-.08l1.08,0a13.43,13.43,0,0,0,4-.57,7,7,0,0,0,1-.46l.82-.48,1.64-1,3.27-1.93v.11c10.12-6.08,20.5-12.2,31-18.32l15.79-9.18,2-1.15a7,7,0,0,0,2-1.57,3.42,3.42,0,0,0,.64-1.26,3.1,3.1,0,0,0,0-1.42,6.51,6.51,0,0,0-1.07-2.3l-4.93-7.69-1.15-1.8-.41-.64-.11-.16a1,1,0,0,1,.15-.12l.3-.22,3.37-2.54,7.27-5.48a28.06,28.06,0,0,0,3.52-3,17.45,17.45,0,0,0,2.81-3.74,15.05,15.05,0,0,0,1.6-4.41,13.43,13.43,0,0,0,0-4.69,13.17,13.17,0,0,0-1.61-4.36,20.71,20.71,0,0,0-1.27-1.93,18,18,0,0,0-1.56-1.7,13.16,13.16,0,0,0-8.21-3.72A15.8,15.8,0,0,0,257,26.82a26.92,26.92,0,0,0-3.6,2.47L250,31.92l-4.81,3.6-1.05.79-.26.19s-.09.09-.12.07l-.11-.12-.41-.5c-.51-.6-1.22-1.48-1.95-2.19a5.5,5.5,0,0,0-1.28-1,2.38,2.38,0,0,0-1.68-.23,8.09,8.09,0,0,0-2.79,1.51c-1.66,1.22-3.28,2.49-4.93,3.74l-20,15.28-10.2,7.81-1.28,1a4.9,4.9,0,0,1-1.31.81,6,6,0,0,1-3,.41c-2-.5-4.17-1.12-6.25-1.71-4.19-1.2-8.38-2.48-12.63-3.67l-3.2-.86a24.66,24.66,0,0,0-3.27-.73,3.19,3.19,0,0,0-1.79.18,2.6,2.6,0,0,0-1.16,1.4,10.63,10.63,0,0,0-.54,1.65l-.45,1.84s0,.06.07.07l.12.05.24.09.48.18a4.23,4.23,0,0,0,1,.25l1.87.29c1.22.19,2.44.4,3.67.63,2.45.47,4.93,1,7.41,1.66A82.11,82.11,0,0,1,195,69.67a4.25,4.25,0,0,0,2.84,0,6.08,6.08,0,0,0,1.31-.56c.42-.25.76-.55,1.13-.82l4.39-3.36,8.82-6.74L231,44.63l-.08.29.65-.51,8.81,12.77,8.83,12.93.06.1.12,0A3.26,3.26,0,0,0,251.27,69c.4-.71,0-1.52-.43-2.13l-2.39-3.55-4.76-7.08q-4.66-6.93-9.31-13.87l3.81-2.84,17.71,28L258.15,71l.9,1.41.21.32-.32.2-.63.39-1.67,1.05c-.59.37-1.2.71-1.81,1.07l-3.64,2.11-14.64,8.51c-7.25,4.1-14.52,8.35-21.72,12.79-3.58,2.16-7.38,4.17-11.51,4.55a15.73,15.73,0,0,1-6.13-.64c-.24-.06-.49-.15-.81-.22a3.93,3.93,0,0,0-.9-.09,3.82,3.82,0,0,0-.9.11l-.77.17a15.21,15.21,0,0,0-1.68.42,3.31,3.31,0,0,0-.87.41,1.07,1.07,0,0,0-.44.8,4.56,4.56,0,0,0,.11,1.78,5.94,5.94,0,0,0,.57,1.52,8.08,8.08,0,0,0,.91,1.3l1,1.18c1.31,1.55,2.68,3,4,4.56.66.76,1.32,1.53,1.95,2.32a8.24,8.24,0,0,1,1.55,2.49,5.71,5.71,0,0,1,.42,2.85c-.14,1-.24,2-.4,3a72.29,72.29,0,0,1-7.66,22.94,83.91,83.91,0,0,1-6.5,10.24c-.59.81-1.24,1.61-1.88,2.44a6.25,6.25,0,0,1-1.12,1.06l-.3.25c-.08,0-.1-.2-.16-.3l-.27-.72q-1.08-2.87-2.14-5.73-4.21-11.31-8.25-22.54c-4.83-14.24-11.12-30.45-17.33-46.45q-1.17-3-2.32-6l-1.14-2.93a10.59,10.59,0,0,0-.55-1.3L150,77c-.85.42-1.85,1-2.79,1.36l-2.87,1.29-2.9,1.13c-1,.35-2,.64-2.93,1a32.52,32.52,0,0,1-22.62-1A72.46,72.46,0,0,1,106.14,76c-1.56-.9-3.12-1.8-4.64-2.77l-1.28-.79-.68-.41c-.12-.14-.19,0-.27.13l-.23.31-1.78,2.3C93,80.58,88.89,86.5,84.75,92.36S76.49,104,72.15,109.71c-1.08,1.4-2.19,2.81-3.24,4.3a41.71,41.71,0,0,0-6.57,14.82,51.88,51.88,0,0,0-1.24,10.74c-.05,3.61.16,7.17.39,10.75.49,7.15,1.38,14.27,2.56,21.34q.9,5.31,2,10.59l1.13,5.27c.2.88.39,1.76.66,2.62a6,6,0,0,0,.51,1.23,1.72,1.72,0,0,0,1,.84,5.08,5.08,0,0,0,2.6-.27c.86-.26,1.71-.56,2.56-.85l5.12-1.75,10.28-3.5,17-5.45,4.26-1.37,2.12-.69a18.53,18.53,0,0,1,2.19-.63,4.35,4.35,0,0,1,2.34.17,6,6,0,0,1,1.92,1.31q1.59,1.56,3.22,3.09l6.53,6.08c1.08,1,2.16,2.05,3.22,3.1a19.08,19.08,0,0,1,2.9,3.47,15.87,15.87,0,0,1,2.45,8.63,26.48,26.48,0,0,1-.5,4.48l-.78,4.38c-1.08,5.83-2.31,11.62-3.36,17.41-.26,1.45-.51,2.9-.74,4.35a22.05,22.05,0,0,1-1,4.41,7.66,7.66,0,0,1-2.84,3.69,11.16,11.16,0,0,1-4.31,1.58c-5.75,1.14-11.44,2.53-17.13,3.86l-4.17,1-.8.18c-.2,0-.12.18-.12.3l0,.41.09,2,.39,8.26L119,257l4.54-.95,2.42-.49,1.33-.26c.09,0,.25-.09.29,0v1c0,1.91,0,3.36,0,5s.16,3.17.24,4.77c.38,6.41.7,12.95,1,19.57.62,13.25,1.18,26.86,2.21,40.48l.15-1a150.17,150.17,0,0,0,1.13,15.32l.38,3.64a30,30,0,0,0,.4,3.34,3.57,3.57,0,0,0,1.57,2.46,5.62,5.62,0,0,0,2.55.58,5.5,5.5,0,0,1-1.08.08,6.56,6.56,0,0,0,1.93-.06l1.9-.22,2-.22,1.88-.28c.13.62.24,1.37.36,2.1s.21,1.38.29,2a14.17,14.17,0,0,1,.11,3.24l.3.83c.43,6.27-.24.75-.06,5.6A4.78,4.78,0,0,0,145,365a21.65,21.65,0,0,1,.48,2.92c-.44.45.27,4.38,2.42,7.56a20.91,20.91,0,0,0,3.38,4c1.06,1,1.83,1.64,1.76,1.94-1.45-1-.39-.11.25.46.32.28.53.48.21.39a11.17,11.17,0,0,1-2.82-1.76,16.2,16.2,0,0,0,2.47,1.85,31.35,31.35,0,0,0,3.83,2c2.59,1.12,4.71,2,4.42,1.62,1-.05,4.92,1.42-.63-1.84l-1.33-.21c-1.8-1.25-1.41-.86-2-1.45a17,17,0,0,1-6.65-4.89,19.44,19.44,0,0,1-3-5.58c0,.05,0,.11,0,0A16.23,16.23,0,0,1,146,365.8c-.19-2.2-.18-4.5-.26-6.11l.14-1.31a24.32,24.32,0,0,0-.47-5.17l-.19-1.22-.07-.5,0-.57c-.05-.6,0-.67.26.39l-.2-3.18-2.7.16-1.86.09a26.11,26.11,0,0,0-3.31.33,3.42,3.42,0,0,1-2.17-.16,2.48,2.48,0,0,1-.92-1.81c-.15-.88-.19-2-.28-3.13l-.24-3.32q-.22-3.35-.47-6.73c-.62-9-1.25-18.32-1.87-27.49-.46-2.64-.93-14.51-1.21-10.34.32-4.79-.44-18.91-.81-24.14a3.42,3.42,0,0,1,.18,1.23c0-2.55,0-4.58-.17-6.33s-.34-3.27-.47-4.64c-.06-.71-.1-1.42-.12-2.16l0-1.15,0-1.81,0-2.3,0-.62c0-.08-.05-.05-.1,0l-.15,0-.3.05L127,254l-2.64.39-1.71.16c-.6.44-4.17,1.09-8.37,1.85l-6.48,1.19c-1.07.21-2.09.42-3,.63l-.35.08-.12,0-.15.06-.37.15-.21-.43c.07-.1.11-.72.17-.86s.13-.19.2,0q-.16-3.23-.35-6.51l0-.84s0-.08,0-.1l.12,0,2.59-.59c4.32-1,8.63-2,12.87-2.92,2.13-.46,4.18-.87,6.31-1.28a11.72,11.72,0,0,0,3.51-1.24,8.65,8.65,0,0,0,2.94-2.64,15.45,15.45,0,0,0,2.15-6.43q.48-2.85,1-5.51c.83-6.13,2.54-13.46,3.85-20.71.15-.92.32-1.77.45-2.79a18.29,18.29,0,0,0,.13-3,16.77,16.77,0,0,0-1.16-5.63,16.12,16.12,0,0,0-2.77-4.57,29.16,29.16,0,0,0-3.28-3.08c-1.57-1.6-3.4-3.39-5.41-5.33-1-1-2-2-3.09-3l-3.28-3.24a5.91,5.91,0,0,0-6-1.52l-.69.2-.58.19-1.14.37-2.3.75c-3,1-6.09,2-9,3.08l1.1-.47-21,7-5,1.72c-1.63.55-3.26,1.17-4.66,1.58-.18,0-.35.1-.51.13l-.45.09a1.25,1.25,0,0,1-.5,0c-.27-.08-.37-.19-.64-.81a36.09,36.09,0,0,1-1-3.61c0-4.18-1.32-10-2-16a170.52,170.52,0,0,1-2.43-19c-.27-3.76-.49-7.75-.5-11.55a54.64,54.64,0,0,1,1.12-10.89c.43-1,1.11-3.73,2.13-6.18s2.24-4.61,2.66-4.76c.57-1,1.21-2.07,1.87-3.09s1.41-2,2.2-3q2.29-3.11,4.56-6.33c3-4.29,6.06-8.73,9.12-13.23S93,83.45,96.18,78.88c.81-1.13,1.59-2.29,2.43-3.39l1-1.28L99.7,74l.07-.1s0-.06.08,0l.39.23,1.52.91c.61.36,1.21.72,1.84,1.06,1.25.68,2.47,1.41,3.75,2s2.54,1.32,3.87,1.88l2,.88c.66.28,1.35.52,2,.78,1.34.55,2.75.93,4.14,1.36.7.21,1.43.32,2.14.49a17.12,17.12,0,0,0,2.16.39l2.18.28,2.2.08a17.91,17.91,0,0,0,2.2,0c.73-.06,1.47,0,2.19-.17l2.17-.31c.73-.1,1.42-.31,2.14-.45,1.43-.29,2.79-.74,4.17-1.15s2.7-1,4-1.45,2.62-1.09,3.9-1.67c.59-.28,1.48-.7,1.42-.66l.22-.09s.08,0,.1,0l0,.12.07.23,0,.11.15.43.69,2c1.82,5.17,3.63,10.28,5.39,15.3l-.25-.57c2.2,5.07,5,10.79,7.36,15.92.15.53,0,.5-.37-.6,2.8,7.24,4.83,14.23,7.63,21.46-.11,0-.11,0-.63-1.17,2.76,6.73,4.83,14.24,8.22,22.15l0,.5,2.1,5c-.22-.06-.55-.16-1.51-2.92l1.75,4.74c.24.6.45,1.31.71,1.83l.76,1.61a2.24,2.24,0,0,0,.2.38l.36-.31.74-.63,1.35-1.17a10,10,0,0,0,1.29-1.47l.86-1.1,1.36-1.85c.89-1.24,1.78-2.49,2.59-3.79a76.78,76.78,0,0,0,8.11-16.58,71.2,71.2,0,0,0,2.45-9c.17-.76.3-1.53.43-2.29s.28-1.53.37-2.3l.15-1.16a11.5,11.5,0,0,0,.14-1.3,8.08,8.08,0,0,0-.5-2.78,8.68,8.68,0,0,0-1.3-2.41c-.48-.63-1-1.24-1.47-1.84-1-1.2-2-2.36-3-3.5s-2-2.29-2.94-3.45c-.22-.29-.49-.62-.6-.79a5.39,5.39,0,0,1-.38-.76,5.77,5.77,0,0,1-.23-.83,1.13,1.13,0,0,1,0-.32c0-.21.22-.25.37-.31l.26-.06.42-.1.89-.19.47-.1.23,0a2.63,2.63,0,0,1,.56,0,2,2,0,0,1,.26.06l.46.13.95.28a17.72,17.72,0,0,0,7.87.16c5.19-1.07,9.45-4,13.58-6.52,8.34-5.12,16.82-10.08,25.33-15q6.38-3.72,12.76-7.47L261,73.58l.29-.19.15-.09s.06,0,.07,0l-.05-.07-.38-.59-.76-1.18-1.16-1.8-4-6.21q-8.28-12.88-16.57-25.77l-5.88,4.44,4.78,7-1.56-2,7.72,10.8a4.48,4.48,0,0,1-.9-1c1.54,2.36,3.11,4.71,4.7,7.07l2.36,3.49A2.75,2.75,0,0,1,250,68a.64.64,0,0,1,0,.47,1,1,0,0,1-.36.33l-.23.1L249,69l1.21.42-9-13q-2.25-3.23-4.47-6.44l-4.89-7.11-2.66,2c-.27.09,2.93-2.57,0-.45-9.38,7.8-15.94,11.39-20.18,15.89-.47.3-.92.35,0-.46l-6.87,5.31-3.45,2.66a4.8,4.8,0,0,1-1.65.69,2.72,2.72,0,0,1-1.51,0,82.92,82.92,0,0,0-14.5-5.2c-2.49-.66-5-1.22-7.55-1.7-1.27-.24-2.54-.46-3.81-.67l-1.77-.27a2.23,2.23,0,0,1-.94-.31l.21-.88c0-.08.12-.46.2-.67a4.09,4.09,0,0,1,.26-.7c.2-.42.34-.63.64-.75a1.38,1.38,0,0,1,.48-.08,4.51,4.51,0,0,1,.7.06c1,.15,2.13.47,3.23.75L176,59l13.15,3.86,3.31.93,1.66.45a5.71,5.71,0,0,0,2,.16A7.78,7.78,0,0,0,198,64a8.42,8.42,0,0,0,.92-.42,6.09,6.09,0,0,0,.82-.56l2.72-2.07,10.9-8.26c5.51-4.5,11.26-9,17.14-13.62l4.42-3.44c.75-.55,1.49-1.13,2.24-1.6a2.55,2.55,0,0,1,2.16-.54,6.4,6.4,0,0,1,2,1.62l.46.52.51.59,1.17,1.4.14.18a1,1,0,0,0,.18-.13l.37-.27.73-.55,1.29-1,2.27-1.71L253,30.73a33.67,33.67,0,0,1,4.64-3.16,13,13,0,0,1,18.51,5.91,12.57,12.57,0,0,1,1.32,5.23,13,13,0,0,1-1,5.31l-.11-.21a16.5,16.5,0,0,1-4,5.6c-.43.39-.88.76-1.32,1.14l-1.41,1.09-2.82,2.17-5.68,4.35-3,2.27,2,3.15c1.31,2,2.61,4,3.92,6.08l1,1.52a8.31,8.31,0,0,1,.88,1.56,2.75,2.75,0,0,1,.19,1.69,2.93,2.93,0,0,1-.94,1.44,21.34,21.34,0,0,1-3.05,1.93L259,79.62l-6.33,3.64L227.19,97.87l-12.73,7.33L211.29,107l-1.59.92a6.86,6.86,0,0,1-1.58.74,12.84,12.84,0,0,1-3.53.43,30.18,30.18,0,0,0-4.11.22c.45.75.89,1.49,1.34,2.21.31.49.66,1,1,1.45a12.31,12.31,0,0,0,1,1.2,5.37,5.37,0,0,0,2.56,1.69,5.79,5.79,0,0,0,3-.12,14.92,14.92,0,0,0,2.61-1c3.24-1.68,6.2-3.41,9.24-5.07l19.33-10.73h.47c24-14.16,51.73-27.46,76.75-42.28l-1.6,1.24c3.71-2.6,15.5-8.31,13.59-8.21l4.62-2.25c2.11-1.28,4.13-2.6,6.26-3.71a3.93,3.93,0,0,1,1.78-.52,2.42,2.42,0,0,1,1.65.9c.82.89,1.48,1.87,2.19,2.76l.46.6.23.3.12.15L347,48s.06,0,.09,0l1.33-.74,3.07-1.69,6.22-3.37c8.41-4.51,17.3-9.29,27.71-15.48-.44.3-.88.61-1.3.93a28.2,28.2,0,0,1,9.21-3.7,20.43,20.43,0,0,1,8.66.4c-.73-.12-.4,0-1.9-.23a20.63,20.63,0,0,1,12.66,7.78,22,22,0,0,1,4.34,14.71,20.36,20.36,0,0,1-7.18,13.81,45.85,45.85,0,0,1-6.77,4.34l-7,4,1.91-1.5c-4.36,2.72-10.69,6.32-17.38,10.1L370.61,83,368,84.49l-.7.4-.18.1s-.17.05-.1.12l.16.37.62,1.47L370,91.79l-.48-.69,2.9,6.2-.25.29a44.15,44.15,0,0,1,2.28,6c.73,2.06-1.95,2.6-3.84,3.3l-12.15,4Z" transform="translate(-6.94)"/><path class="cls-1" d="M240.72,239.28l-.05-.18C240.45,238.62,240.55,238.86,240.72,239.28Z" transform="translate(-6.94)"/><path class="cls-1" d="M147.22,370c.2.73.38,1.32.6,1.91C147.82,371.78,147.37,370.66,147.22,370Z" transform="translate(-6.94)"/><path class="cls-2" d="M105.75,412.22l12.76-29.3L88.66,394.39l-2.6-2.71,24.12-23.12,1.95,2-10.5,10.07L90.7,390.82l29.88-11.41,1.51,1.57-12.62,29.26,10.47-10.35,10.56-10.13,2,2-24.12,23.12Z" transform="translate(-6.94)"/><path class="cls-2" d="M94,348l5.91,14,10-.48L111,364.2l-35.7,1.38-1-2.47,25.85-24.67,1.14,2.7Zm3.37,14.1-5.22-12.34L78,363Z" transform="translate(-6.94)"/><path class="cls-2" d="M85.15,322.85l1.16,9.64,13.83-1.66.34,2.83-33.18,4L66,326.86q-.65-5.31,1.58-8.6a9.89,9.89,0,0,1,12.68-2.66,9.61,9.61,0,0,1,4,4.61l13.14-10,.29,0,.36,3Zm-1.21,9.93-1-8.59a8,8,0,0,0-2.69-5.44,7.66,7.66,0,0,0-10.65,1.37,9.37,9.37,0,0,0-1.19,6.5l1,7.91Z" transform="translate(-6.94)"/><path class="cls-2" d="M65.51,284.63l.75,11.42,31-2,.19,2.82-31,2,.75,11.4-2.38.16-1.69-25.65Z" transform="translate(-6.94)"/><path class="cls-2" d="M96.25,267.81l.08,2.82-33.39,1-.09-2.82Z" transform="translate(-6.94)"/><path class="cls-2" d="M84.51,238.2l.28,15.17,9.45,3.26.05,3-33.64-12,0-2.68,33.17-13.27.06,2.94Zm-2.12,14.34-.25-13.4-18.07,7Z" transform="translate(-6.94)"/><path class="cls-2" d="M91.88,220.67l-.53-16.49,2.39-.07.62,19.33L61,224.51l-.09-2.84Z" transform="translate(-6.94)"/><path class="cls-2" d="M36.75,179l8.12,12.81,9.77-2.12,1.59,2.5-35,7.22-1.44-2.27,21.44-28.57,1.58,2.48Zm5.64,13.35-7.18-11.31-11.78,15.4Z" transform="translate(-6.94)"/><path class="cls-2" d="M26.45,151.31,27,161l13.91-.78.16,2.84L7.7,164.93l-.61-10.84c-.19-3.56.51-6.38,2.12-8.48a9.08,9.08,0,0,1,7.07-3.41A9.07,9.07,0,0,1,22,143.77a9.68,9.68,0,0,1,3.67,4.85l13.74-9.13.29,0,.17,3Zm-1.84,9.83-.48-8.64a8,8,0,0,0-2.34-5.59,6.86,6.86,0,0,0-5.35-1.86,6.88,6.88,0,0,0-5.36,2.55A9.3,9.3,0,0,0,9.48,154l.44,8Z" transform="translate(-6.94)"/><path class="cls-2" d="M15.65,107.75,12.8,118.87l30.05,7.7-.7,2.75-30-7.71-2.85,11.1-2.31-.6,6.39-25Z" transform="translate(-6.94)"/><path class="cls-2" d="M50.27,91.51a5.4,5.4,0,0,0-4.73-.85c-1.63.48-3.81,1.87-6.55,4.19a24.88,24.88,0,0,1-6.88,4.49,7.71,7.71,0,0,1-10.58-6.87,13,13,0,0,1,2.54-8,13.32,13.32,0,0,1,4.4-4.21,9.74,9.74,0,0,1,5.25-1.37,9.45,9.45,0,0,1,5.05,1.67l-1.6,2.36a7,7,0,0,0-5.88-1.15,9.12,9.12,0,0,0-5.25,4,9.87,9.87,0,0,0-2,6,5.37,5.37,0,0,0,2.43,4.39,5.06,5.06,0,0,0,4.59.64,18.94,18.94,0,0,0,6-3.83A30.39,30.39,0,0,1,43,88.79a9.67,9.67,0,0,1,4.57-1.12,8,8,0,0,1,4.25,1.46,7.58,7.58,0,0,1,3.47,6.16,13.41,13.41,0,0,1-2.68,8.23,16.34,16.34,0,0,1-4.68,4.66,9.94,9.94,0,0,1-5.44,1.73,9.15,9.15,0,0,1-5.17-1.66l1.58-2.34a6.66,6.66,0,0,0,6.1.94,11.14,11.14,0,0,0,5.63-4.67A10.43,10.43,0,0,0,52.73,96,5.4,5.4,0,0,0,50.27,91.51Z" transform="translate(-6.94)"/><polygon class="cls-1" points="361.55 100.53 361.27 100.51 360.7 101 361.55 100.53"/><path class="cls-1" d="M364.4,102.54c.14,0,.11.11.25.12l2.27-1.61C365.64,101,365.24,102.6,364.4,102.54Z" transform="translate(-6.94)"/><path class="cls-1" d="M363.63,102.7a2,2,0,0,0-1.51.83C362.37,103.13,364,103,363.63,102.7Z" transform="translate(-6.94)"/><path class="cls-1" d="M284,143.65a2.5,2.5,0,0,0,.24-.22A.75.75,0,0,0,284,143.65Z" transform="translate(-6.94)"/><path class="cls-1" d="M266.13,159.16v.4c3.13-3.14,7.41-5.73,10.94-8.78l-.18.28c9.42-7.14,17.71-14.23,26.83-21.6-.12.14-.11.25-.24.4a7.61,7.61,0,0,1,1.27-1.34c.18-.05-.05.22-.19.37,2.28-1.1,5.5-4.77,7-5.37.53-.47.65-.82.23-.72a45.24,45.24,0,0,1,12.33-7.18,28.56,28.56,0,0,1,3.53-1c1.17-.27,2.26-.54,3.38-.91,2.22-.7,4.4-1.6,6.6-2.45.45-.08.58,0,.52.24,7.35-3.27,15.42-5.5,23.24-7.88.23-.31-.86,0-.17-.44-2.59.54-4.41,2-6.81,2.34l.23-.3c-1.69.4-.17.63-2,.91-.73.05.09-.31-.23-.22-3.48,1.21-7.2,2.21-10.34,3.77-1-.18-3.78,1.18-5.24,1.22-.85.49-1.76.75-2,1.16-1.53.5-3,1-4.55,1.38-.76.19-1.52.37-2.28.51s-1.67.33-2.48.59a34.73,34.73,0,0,0-9.24,4.23,88.43,88.43,0,0,0-8.05,5.94c-2.56,2.08-5.14,4.1-7.77,6.13-4.33,4.49-10.85,8.18-16.46,12.91-.06,0-.08,0-.06-.07a72.41,72.41,0,0,1-6.77,5.52L275.51,151c-14.06,9.91-27.61,21.09-41.61,31.53l-5.52,4.16c-.46.37-.91.74-1.35,1.12l-1.19,1.06c-.32.26-.62.55-.89.74l-.17-1c0-.18-.29-1.35-.47-2.16-.38-1.74-.74-3.46-1.05-5.17s-.48-3.35-.78-5.25a26.36,26.36,0,0,0-1.6-5.38,22.86,22.86,0,0,0-6.87-8.85,30.76,30.76,0,0,0-4.71-3c-.84-.42-1.68-.84-2.54-1.2l-1.28-.54a4.83,4.83,0,0,0-.48-.18l-.4-.15c.09-.06.07-.12.33,0a3,3,0,0,1-.51-.24c0-.16.09-.33.13-.49l.51-1.28c.22-.55.45-1.09.68-1.63.46-1.07.91-2.13,1.37-3.18.9-2.11,1.77-4.21,2.51-6.41l.08.05c.64-2.06,1.28-4.13,1.85-6.27s1-4.3,1.43-6.47.83-4.32,1.25-6.47c.22-1.06.44-2.18.7-3.15a4.15,4.15,0,0,1,1.39-2.31c4-2.24,8-4.49,11.64-6.82,13.44-7.28,28.56-15.66,42.64-23.64l0,.17c11.17-6.55,22.6-11.74,33.79-18.2,5.92-3,11.78-6.52,17.67-10,2.94-1.75,5.89-3.5,8.86-5.19.37-.2.73-.43,1.13-.61s.86-.21,1.29-.32c.26-.16.32.13.43.31l.31.58.6,1.15c.79,1.49,1.55,3,2.28,4.5,3.15,7.73,9.94,16.44,12.82,23.73,2.09,4.87,4.38,9.58,6.8,14.19l.19.37.41,0a4.39,4.39,0,0,0,1.15-.17,1.8,1.8,0,0,0,1.17-.92,2.12,2.12,0,0,0,.08-1.41,5.6,5.6,0,0,0-.39-1c-.62-1.24-1.26-2.34-1.89-3.52-1.28-2.31-2.59-4.6-3.91-6.89-2.65-4.59-5.38-9.14-8.12-13.75-2-4.09-4.12-8.09-6.29-12.06-.54-1-1.1-2-1.66-3l-1.81-3.18-.25-.46a1.19,1.19,0,0,1-.12-.22l.22-.13.89-.51,1.63-.95,3.36-1.94,2.43,4,2.11,3.61c1.37,2.42,2.68,4.86,3.89,7.33,4,5.55,6.39,12.77,10,19.36l.07-.34c.64,2.7,3.55,5,3.38,6.93l-.16-.24c.16,1.51,2.51,2.49,2.32,3.55l.32.1c.79,1.55-.17.31.3,1.57.23.44.5,0,.79,1-.84.62,1.92,3.81.89,4.37-.37-.87.16,1.54-.88-.32.12.6,1.29,3.25,1.64,2.82.57,0,1.43.92,1.12-.87l-.48-.18c.11-.7,0-.49.17-.8-.84-2.15-.46-2.65-.93-4.27,0,0,0,0,0,0a9.49,9.49,0,0,1-1.59-3.25l0-.42c.18-.68-1.88-2-.9-1.71-2.17-4.2-4.59-9-7.08-13.65-.61-.52-1.89-3.56-1.83-2.29-.08-1.45-1.84-4.95-2.58-6.2.08,0,.17,0,.26.24-.68-2.85-2.3-2.52-2.76-5.31-.81,0-2.21-4.26-3.69-5.12,0-.36,0-.53.21-.49-1-1.64-1.94-3.37-2.88-5l-1.37-2.46-1-1.73c-.44-.74-.86-1.47-1.27-2.18l-4.09,2.25a13.41,13.41,0,0,1-1.09.81c-.74.45-1.53.92-2.32,1.37l-.61.34c-.09.06-.21.12-.29.18l.17.31.67,1.24,1.13,2.14a21.09,21.09,0,0,0,2.91,4.6,58.83,58.83,0,0,0,4.41,8.76l-.25-.25a77.83,77.83,0,0,0,5.83,9.69c-.19,1.38.73,2.78,1.28,4.37,1.53,2.09,3.86,6.73,6,10-.05.7,1.66,2.8,1.25,3.2.19.28.35.55.48.78l.14.29,0,.07s0,0,.05,0,.24,0,.29,0a1.5,1.5,0,0,1,.3.06l.07,0,0,0h0l-.06,0A.51.51,0,0,1,358,97s-.11-.15-.14-.22,0-.07,0-.06h0a1.56,1.56,0,0,1-.62.16l1.31.76A259.73,259.73,0,0,1,343.9,69.47l.12.13c-1-1.2-2.4-2.43-3.47-3.61,0-.16.06-.19.21.1-1.1-1.84-1.57-3.86-2.67-5.7.09,0,.09,0,.33.24A15.5,15.5,0,0,1,337,57.84c-.22-.49-.44-1-.71-1.5-.13-.25-.28-.49-.43-.74l-.25-.36-.31-.45v-.27c-.22-.36-.44-.71-.67-1l-.32-.48-.16-.23-.3.1a1,1,0,0,1,.38-.39c.19,0,.37.33.72,1l-.38-.66c-.13-.2-.2-.55-.5-.37l-1.49.37a5.28,5.28,0,0,0-1.45.44l-.89.49-3,1.67-6.08,3.4-12.19,7c-8.15,4.69-16.35,9.41-24.65,13.89l.52-.48-3.06,2c0-.09.11-.22.24-.34-4.23,2-8.23,4.75-12.25,6.87,0-.09.5-.58-.11-.36-2.71,2.05-5,2-6,3.75-.16,0-.36-.12-.1-.36-8,4.8-16.47,9.4-24.82,13.79-6.43,4.58-14.53,8.07-21.32,12.63l-.06-.18-1.47.92a3.57,3.57,0,0,0-1.26,1.59,8,8,0,0,0-.6,1.85l-.74,3.76c-.48,2.52-1,5.06-1.54,7.59a97.94,97.94,0,0,1-5,14.71c-.67,1.56-1.23,2.93-1.77,4.29L203.33,156l-.22.68-.06.18c.14,0,0,.13.1.16a3.79,3.79,0,0,0,.34.2c.48.26,1.08.52,1.59.77v.26a22.64,22.64,0,0,1,9.76,6.56,31,31,0,0,1,5.73,10.43l-.42-.46c.82,1.06.62,4.74,1.38,4.16l0,1.44a30.89,30.89,0,0,1,1.54,5.69c.36,1.93.61,3.77,1.07,6.17,0,.08,0,0,.08,0l.1-.09.21-.18.43-.39.87-.84c.58-.59,1.12-1.17,1.68-1.8l-.19.45a17.57,17.57,0,0,1,3.91-3.35c-.15.15,0,.14-.34.44,4.88-2.79,9.24-7.26,13.89-10.83l-.3.7c2-2.08,6.34-4.94,9.16-7.38l-.07.27,1.34-1.34.25.24C259,165.12,262.41,162.09,266.13,159.16Z" transform="translate(-6.94)"/><path class="cls-1" d="M304.56,128.89l-.05,0C304.42,129,304.47,129,304.56,128.89Z" transform="translate(-6.94)"/><path class="cls-1" d="M368.08,95.93c.07.21.12.39.17.57C368.3,96.43,368.14,96.11,368.08,95.93Z" transform="translate(-6.94)"/><polygon class="cls-1" points="131.23 340.99 131.52 341.03 132.16 340.58 131.23 340.99"/><path class="cls-1" d="M142.63,339.31c-.15,0-.11-.12-.25-.15l-2.52,1.43C141.17,340.79,141.76,339.18,142.63,339.31Z" transform="translate(-6.94)"/><path class="cls-1" d="M143.44,339.21a2.14,2.14,0,0,0,1.65-.71C144.79,338.88,143.12,338.85,143.44,339.21Z" transform="translate(-6.94)"/><path class="cls-1" d="M162.89,329.58l.32-.11A.81.81,0,0,0,162.89,329.58Z" transform="translate(-6.94)"/><path class="cls-1" d="M138.88,335.59q-.18.2-.39.39l2-.52c.57-.15,1.16-.28,1.75-.4,1.19-.24,2.41-.44,3.63-.64,2.45-.39,4.95-.75,7.32-1.32l-.3.17c3-.54,6-1.14,8.94-1.85s5.76-1.58,8.62-2.38l17.3-4.91c-.18.08-.22.19-.4.27a8.65,8.65,0,0,1,1.78-.75c.18,0-.15.19-.34.27a22.42,22.42,0,0,0,4.84-1.15,16.72,16.72,0,0,1,2.45-.69,1.88,1.88,0,0,1,1.08.14,1,1,0,0,1,.53.6c.4.62.6,1,.67.44a7.75,7.75,0,0,1,.22,2.29V326l-.45.11c-8.72,2.1-18,4.31-26.78,6.68-.47,0-.59-.08-.5-.28-8,2.66-16.58,4.26-24.95,6-.27.29.9,0,.13.45,2.74-.33,4.79-1.64,7.31-1.79l-.26.28c1.8-.27.24-.61,2.13-.76.77,0-.12.31.22.25,3.74-.94,7.71-1.64,11.13-2.94,1,.25,4.05-.9,5.53-.78.94-.4,1.92-.57,2.23-1,7.93-1.64,15.92-3.55,24-5.47l1-.24v-1c0-.38,0-.75,0-1.15A5.85,5.85,0,0,0,199,323a3.1,3.1,0,0,0-.86-1.34,2.55,2.55,0,0,0-1.48-.56,4.42,4.42,0,0,0-.81,0l-.73.14-1,.27-2,.54-8,2.08c-6,2.47-13.79,3.35-21.15,5.55-.06,0-.06-.05,0-.09a53.29,53.29,0,0,1-8.84,2.13l-2.41.84-6.69,1-6.12,1-.45.07a2,2,0,0,1,0-.45l-.06-1-.25-3.39-.54-6.81c-.6-9.1-1.25-18.23-1.69-27.35-.57-10.35-1-20.08-1.58-29.72L134,262.2a24,24,0,0,1,.14-3.39,25.92,25.92,0,0,1,.62-3.37c0-.12.08-.33.1-.37a.54.54,0,0,1,.06-.16,2.08,2.08,0,0,1,.33-.44,5.26,5.26,0,0,1,1.13-.92c.8-.52,2-1,3.14-1.53s2.22-1.08,3.33-1.63c2.22-1.14,4.43-2.35,6.61-3.65,0,.09.18,0-.26.33,5.1-2.88,9.89-5.32,14.34-8.63l0,.08a156.9,156.9,0,0,0,16-13.74,66.56,66.56,0,0,0,12.14-16.69,14.76,14.76,0,0,0,1.86-4.93,11.22,11.22,0,0,0,.13-2.72,9.93,9.93,0,0,0-.65-2.67,11.83,11.83,0,0,0-3.24-4.46,6.11,6.11,0,0,1-.92-.91,3.42,3.42,0,0,1-.56-1.11,9.93,9.93,0,0,1-.14-1.31c0-.45-.07-.9-.09-1.36a30.77,30.77,0,0,1,1.22-10.87,23.9,23.9,0,0,1,5.57-9.38,2.45,2.45,0,0,1,1.58-.62,7.06,7.06,0,0,1,1.78.3,16.55,16.55,0,0,1,3.4,1.33l-.12.14a14.09,14.09,0,0,1,6.54,7.24,23.29,23.29,0,0,1,1.32,4.79l1,4.89c1.38,6.51,2.85,13,4.45,19.55.16.85.36,1.72.47,2.53a15,15,0,0,1,.12,2.51,10.54,10.54,0,0,1-.4,2.45c-.23.75-.64,1.61-.95,2.42-1.33,3.29-2.62,6.63-3.92,10-2.6,6.67-5.21,13.35-8.22,19.69a99.89,99.89,0,0,0-5.57,13.17l-1.29,3.46c-.4,1.14-.94,2.26-1.22,3.34a12.83,12.83,0,0,0,.12,6.41c4,16.3,10,31.44,16,47,.55,1.85,1.13,3.68,1.72,5.53a4.5,4.5,0,0,1,.08,3,4.44,4.44,0,0,1-2.24,2c-3.51,1.65-7.07,3.1-10.69,4.38a106.74,106.74,0,0,1-22.11,5.32c-6.85,2-14.81,1.8-22.57,3.09l.31.18c-2.89-.26-6.11,1.81-8,1.07l.29-.09c-1.55-.29-3.28,1.67-4.26,1.2l-.21.29c-1.78.32-.25-.25-1.65-.15-.51.1-.08.47-1.42.52,0-.26-.28-.33-.68-.32l-.32,0-.18,0a.9.9,0,0,1,0-.18l-.06-.79c-.09-1.09-.17-2.19.4-2.27,0,1,.38-1.57.72.64.09-.64-.11-3.67-.59-3.38-.52-.23-1-1.4-1.34.47l.39.35c-.35.64-.16.48-.44.72a9.31,9.31,0,0,1-.05,1.47c0,.2,0,.38-.07.55l-.05.25-.05.34a25.69,25.69,0,0,0-.31,3.55s0-.08,0-.05.11,0,.17,0l.23-.06.44-.13.86-.21c.55-.12,1.1-.2,1.64-.27l.4-.05.26,0,.47,0,.82,0,.4.16c.62.35,2.59-1.24,2-.39,4.83-.88,10.41-1.63,15.84-2.46.72-.39,4.16-.61,2.89-1,1.45.41,5.52-.09,7-.38-.05.07-.1.14-.34.16,3.05.3,3.31-1.35,6.21-.88.29-.76,5-.74,6.35-1.9.36.08.51.19.41.34,4.88-1,10.31-2.2,14.38-3.46,3.28-1.64,8.45-2.62,11-4.67l1-.35c.34-.11.72-.25,1.15-.43a7.58,7.58,0,0,0,1.35-.73,4.81,4.81,0,0,0,1.39-1.44,4.49,4.49,0,0,0,.59-2.14,6.67,6.67,0,0,0-.25-1.82,21.1,21.1,0,0,0-1-2.71l.21.3c-1.32-3.8-2.95-8.55-4.33-11,.4-1.39-.31-3-.61-4.72-1.2-2.43-2.81-7.6-4.43-11.38.16-.71-1.22-3.16-.77-3.53-2.31-5.28-4.5-11.31-6.51-17.51l-.74-2.33c-.11-.38-.26-.81-.34-1.14a5.85,5.85,0,0,1-.19-1,8.92,8.92,0,0,1,.52-4.19c.11-.28.3-.65.47-1l.53-1.09,1-2.15,2.09-4.19,0,.18c.35-1.58.46-3.53.74-5.16.1-.13.18-.08,0,.23.79-2.1,2.11-3.81,2.9-5.91.07,0,.07,0,0,.42.6-2,2.11-3.82,2.69-6.26l.19-.07.43-1.53c.15.11.38.27,0,1,1.94-4.4,3.82-8.87,5.68-13.37l2.77-6.78,1.38-3.41.35-.85c.11-.28.23-.56.36-.92a10.11,10.11,0,0,0,.47-2.05,14.3,14.3,0,0,0-.08-4c-.05-.33-.12-.66-.2-1l-.21-.9-.44-1.81-1.8-7.19c-1.21-4.79-2.43-9.58-3.51-14.38l.33.66-1.15-3.65c.1,0,.18.17.26.34a15.84,15.84,0,0,0-2.9-7.16,16.8,16.8,0,0,0-2.67-2.85,19.06,19.06,0,0,0-3.18-2.11c0-.08.83.12.23-.29-1.65-.59-2.94-1.12-4.11-1.47l-.42-.14a3.37,3.37,0,0,0-.61-.1,3.86,3.86,0,0,0-1,.08,2.57,2.57,0,0,0-1.66,1.09,1.79,1.79,0,0,0-.17.49c-.15.09-.4,0-.21-.31a27,27,0,0,0-4.25,6.4,28.27,28.27,0,0,0-2.21,7.38,39,39,0,0,0-.35,7.63c0,.63.08,1.26.12,1.89a4.38,4.38,0,0,0,.86,2.2,4,4,0,0,0,.38.46,4.16,4.16,0,0,0,.41.38l.63.59a12.32,12.32,0,0,1,1.13,1.28,7.76,7.76,0,0,1,2.38,5.17,11.44,11.44,0,0,1-1.46,6c-2.13,3.75-4.64,7.41-6.95,11l-.12-.15a64.11,64.11,0,0,1-11.59,12.25,142.91,142.91,0,0,1-13.94,10.07c-4.06,2.44-6.74,4.21-11,6.4l-.21-.15a58.35,58.35,0,0,1-11.33,5.3,7.05,7.05,0,0,0-2.72,2,3.23,3.23,0,0,0-.43.85l-.22.79c-.14.52-.27,1.05-.37,1.59a17,17,0,0,0,0,6.44l-.35-.56c.57,1.27.16,5.07,1,4.53l-.16,1.49c1.47,5.61.18,10.38,1.34,17.3l-.22-.45a30.24,30.24,0,0,1,.45,5.38c0-.21-.1-.11-.18-.55-.4,5.86.89,12.26,1.26,18.38l-.41-.67c.62,2.93.58,8.38,1,12.26l-.19-.23.38,1.95-.35.08c.18,2.53.46,5,.73,7.41l.4,3.65.21,2c0,.15,0,.38.08.46l.51-.1Z" transform="translate(-6.94)"/><path class="cls-1" d="M188.76,323.92h-.06C188.56,324,188.63,324,188.76,323.92Z" transform="translate(-6.94)"/><path class="cls-1" d="M137.58,346.77l-.56.05-.24,0h-.12s-.1,0-.08-.05,0,.09.08.08l.27,0Z" transform="translate(-6.94)"/><polygon class="cls-1" points="107.23 138.42 107.19 138.07 106.58 137.41 107.23 138.42"/><path class="cls-1" d="M110.14,134.2c.13.14,0,.17.13.31a8,8,0,0,1,3,2,2.37,2.37,0,0,0-1.48-1.54A5.2,5.2,0,0,1,110.14,134.2Z" transform="translate(-6.94)"/><path class="cls-1" d="M109.21,133.65a4.3,4.3,0,0,0-.87-.3,3.4,3.4,0,0,0-.64,0,2.15,2.15,0,0,0-.72.25c.22-.17.84-.09,1.36,0S109.28,133.9,109.21,133.65Z" transform="translate(-6.94)"/><path class="cls-1" d="M109.06,146.66c0,.09.13.21.19.3A.85.85,0,0,0,109.06,146.66Z" transform="translate(-6.94)"/><path class="cls-1" d="M115.82,151.9l.41,0c-3.09-3.23-5.68-7.43-8.66-11.18a1.59,1.59,0,0,0-1.09-.61,3,3,0,0,1,.42,0,10,10,0,0,0-1.42-.35c-.43-.09-.85-.19-1.25-.31l-1-.27.47.87c4.54,8.45,9.12,16.29,13.82,24.49l0,.06,0,.05a4.18,4.18,0,0,1-1.25,1.11,1.3,1.3,0,0,1-.84.13,1.6,1.6,0,0,1-.75-.42,6.29,6.29,0,0,1-1-1.42l-.83-1.45c.13.15.24.17.37.33a9.5,9.5,0,0,1-1.2-1.61c0-.19.23.1.36.28-.83-2.6-4.06-6.77-4.51-8.43-.41-.64-.76-.83-.71-.38l-3.56-6.35-1.82-3.22-.32-.57-.15-.25-.07-.13,0-.06-.07,0-1.26.39-7.14,2.17-8.16,2.54L84,145.58c-.15-.8-.05-1,.17-.85L83.58,143l-.8-2.39-.1-.31s0-.06,0-.08l.07,0,.14-.05.59-.2,1.21-.39,1.9-.62c2.11-.68,4.25-1.3,6.39-1.91s4.27-1.22,6.38-1.87a31.83,31.83,0,0,1,6.73-1.73c.37-.26-1.07-.14-.08-.46a10.4,10.4,0,0,0-4.23,1.13,13.7,13.7,0,0,1-3.57,1.22l.25-.31c-1.82.43-.2.64-2.13.94-.78.05.1-.32-.24-.23-1.88.61-3.84,1.14-5.77,1.71-1,.28-1.92.57-2.86.89l-1.38.5-1.86.71a10.91,10.91,0,0,0-2,.35s-.15,0-.12.07l0,.15.08.31.18.67.39,1.43.33,1.18.22.86a23.71,23.71,0,0,1,.52,2.59l.34.9a15.78,15.78,0,0,0,3.33-1.32c3.5-.92,6.81-1.84,10.23-2.81l2.55-.73.46-.14.1,0s0,.05.06.07l.1.18,2.38,4.26q2.6,4.67,5.22,9.35l2.6,4.69,1.29,2.35c.23.42.38.73.72,1.29a4,4,0,0,0,1.4,1.46,2.17,2.17,0,0,0,2-.08,5.18,5.18,0,0,0,1.55-1.39l.41-.52-.31-.49c-3.19-5.13-5.81-11.58-9.3-17.5,0-.06,0-.07.08,0-1.26-1.92-2.88-4.69-4.17-7.19l-1,1.27,1.18.33,1.11.06a.9.9,0,0,1,.72.24l.21.19c5.3,7.69,10.92,15.25,16.61,22.81l1.94,2.57.55.73.07.09s.06.07,0,.07l-.21.07-.43.14-6.12,2c-4.51,1.46-9,2.9-13.55,4.29l-17.41,5.41-8.42,2.64-6.74,2.17-2-10.72c-.8-4.15-1.61-8.35-2.38-12.65.09,0,.12-.16.22.37A149.44,149.44,0,0,1,68,144.45l.09,0a70.8,70.8,0,0,1,.12-10.69A24.78,24.78,0,0,1,71,123.56,41.82,41.82,0,0,1,73.83,119l3-4.47c2-3,3.91-5.9,5.7-8.8,2.8-3.92,5.7-8,8.67-12.18l9-12.68,19.15,10.7-.12.13c6.18,3.34,12.09,6.91,18,10.49l8.88,5.34,4.49,2.62,2.28,1.3a8.49,8.49,0,0,1,1.93,1.5,6.16,6.16,0,0,1,1.26,2.13c.3.86.6,1.72.91,2.58.61,1.71,1.26,3.43,1.91,5.15,1.32,3.44,2.69,6.89,4.06,10.34,2.75,6.9,5.48,13.83,7.7,20.76a119.08,119.08,0,0,0,5.05,14,3.79,3.79,0,0,1,.16,1.92,3.5,3.5,0,0,1-1,1.71,37.52,37.52,0,0,1-2.84,2.46,36.62,36.62,0,0,1-5.71,3.84c-4.6,2.59-9.22,5-13.93,7.1q-3.53,1.6-7.11,3c-1.2.48-2.4,1-3.61,1.4-.28.1-.64.25-.86.31a3,3,0,0,1-.81.1,2.58,2.58,0,0,1-1.53-.43c-2.5-2.21-5.06-4.43-7.62-6.63l-8.17-7c-.08-.1-.24-.21-.26-.3l.43-.13.87-.28,1.68-.54,2.94-1,2.84-1a9.14,9.14,0,0,0,2.61-1.25,1.66,1.66,0,0,0,.68-1.06,2.35,2.35,0,0,0-.26-1.27,12.75,12.75,0,0,0-1.58-2.45L130.77,164l-1.08-1.46-.28-.37.42-.16.84-.31,5.89-2.2a23.64,23.64,0,0,0,5.25-2.39,15.16,15.16,0,0,0,4.12-3.86,13.22,13.22,0,0,0,2.24-5.2,17.64,17.64,0,0,0-.59-5.47,16.33,16.33,0,0,0-2.4-5.24A12.29,12.29,0,0,0,134.51,132l.3.21a5.9,5.9,0,0,0-2.33,0,10.9,10.9,0,0,0-2.24.74c-1.39.59-2.61,1.22-3.64,1l.28-.14c-1.63,0-3,2.28-4.13,2l-.16.32c-1.76.67-.3-.2-1.71.17-.51.21,0,.5-1.18.73-.55-.89-4.29,1.68-4.78.63,1-.33-1.67.1.45-.87-.67.1-3.64,1.16-3.21,1.53-.09.58-1.11,1.4.83,1.16l.24-.48c.73.16.53,0,.84.22,2.38-.75,2.87-.34,4.64-.7,0,0,0,0,0,0a10.06,10.06,0,0,1,3.65-1.36l.44.08c.69.22,2.43-1.73,1.94-.77l3.7-1.36a22.55,22.55,0,0,1,3.79-1.12,12.89,12.89,0,0,1,3.87-.19,11.69,11.69,0,0,1,3.74.94,2,2,0,0,1,.87.28,7.17,7.17,0,0,1,1.05.58c.65.38,1.08.73.81.13.32.67,1.19,1.63,1.84,2.75a20.75,20.75,0,0,1,1.51,2.93c-.08,0-.16-.06-.22-.27a8,8,0,0,0,.84,2.82,3.38,3.38,0,0,1,.33,1.17,4.54,4.54,0,0,1,0,.73,4.77,4.77,0,0,1-.27.84c.17.1.25.44.2.9a8,8,0,0,1-.33,1.66,18.76,18.76,0,0,0-1.08,3.24c-.29.19-.49.18-.52,0a12.7,12.7,0,0,1-2.34,2.53,15.18,15.18,0,0,1-3,1.82c-.52.26-1.08.43-1.62.64l-1.77.59-3.29,1.12c-.21.12-.42.23-.64.33l-.17.08-.31.13-.66.28c-.89.35-1.79.7-2.73,1l-.71.26-.17.06-.09,0s0,.05,0,.07l.22.31.9,1.24,1.75,2.49c.61.89,1.25,1.78,1.84,2.54s1,1.39,1.29,1.66a.52.52,0,0,1-.38.48,9.85,9.85,0,0,1-2,.77c-.89.27-1.81.57-2.72.89-.45.16-.9.33-1.34.51l-1.39.57a1.58,1.58,0,0,0,.39-.24l-5.47,1.92-.35.12s-.16,0-.15.08l.15.13.58.53,1.14,1,2.25,2,.78.69.6.51,1.17.95a23.14,23.14,0,0,0,2.07,1.5c.34,1.45,1.77,2.56,2.91,4,1.39,1,3.35,2.77,5.49,4.66a3.49,3.49,0,0,0,1.1.64,5,5,0,0,0,1,.25,5.49,5.49,0,0,0,2-.08,3.19,3.19,0,0,0,.52-.16l.32-.13.64-.26,1.23-.53c.75.13,3.26-1.41,3.66-1,5.42-2.74,11.37-5.87,17.17-9.5,2.9-1.81,5.77-3.73,8.52-5.73l2-1.52a5.46,5.46,0,0,0,2-2.73,6.15,6.15,0,0,0-.11-3.34c-.24-.8-.47-1.59-.7-2.38l.1.16c-.84-1.45-2.11-3-3-4.46,0-.17.08-.18.19.15-.88-2.15-1.11-4.38-2-6.53.1,0,.1,0,.3.31-1-2-1.11-4.38-2.38-6.65l.08-.19-.74-1.46c.18,0,.46-.06.7.78-3.3-9.41-6.92-18.88-10.57-28.4l-1.37-3.58a9.46,9.46,0,0,0-.43-1,8.33,8.33,0,0,0-.62-1,9.78,9.78,0,0,0-1.51-1.57,10,10,0,0,0-1.76-1.18l-1.68-.93-3.35-1.87q-6.72-3.75-13.36-7.61l.74.22L132.2,98c.06-.07.25,0,.43,0-4.23-2.79-9-5-13.27-7.5.07-.06.8.16.25-.27-3.4-1.4-4.77-3.47-6.86-3.49-.12-.12-.11-.38.25-.27-2.06-1.08-4.13-2.2-6.21-3.33l-3.11-1.71-3.86-2.17c-1,1.36-1.92,2.73-2.89,4.09l-2.42,3.39L89.6,93.47c-4.18,7.47-10.38,14.76-14.77,22.48l-.13-.14-2.28,3.69a33.94,33.94,0,0,0-2.19,3.81,28.81,28.81,0,0,0-2.73,8.46,100.14,100.14,0,0,0-.63,17.9c.19,4.94.73,8.25,1.35,13.16L68,163a112.73,112.73,0,0,1,1.85,11.64c.25,2,.51,4,.82,6,.16,1,.32,2,.51,3l.34,1.67.39,1.75c1-.36,1.87-.73,2.66-1.08a7.07,7.07,0,0,1-.61.52,7.16,7.16,0,0,1,.68-.36c.21-.1.45-.19.71-.29.52-.19,1.09-.36,1.6-.53,1-.34,1.83-.64,1.45-1l1.54-.23c5.28-2.88,10.39-2.85,17-5.78l-.39.34a32.11,32.11,0,0,1,5.29-1.82c-.2.09-.08.12-.5.31,6-1.13,12.09-4,18.15-6l-.58.57a46.17,46.17,0,0,1,5.66-2.05l3.72-1.18c.14,0,0-.1,0-.16l-.15-.2-.3-.39-.59-.76c-.37-.49-.79-1-1.09-1.38l.28.09-1.42-1.49.24-.25C122.16,159.75,118.94,156,115.82,151.9Z" transform="translate(-6.94)"/><path class="cls-1" d="M112.4,161.64a.14.14,0,0,0,0,.06C112.52,161.82,112.48,161.76,112.4,161.64Z" transform="translate(-6.94)"/><path class="cls-1" d="M119.35,138.45a6.24,6.24,0,0,1-.64.14C118.78,138.64,119.15,138.51,119.35,138.45Z" transform="translate(-6.94)"/><polygon class="cls-1" points="131.47 239.13 131.58 239.08 131.33 238.85 131.47 239.13"/><path class="cls-1" d="M138,237.86c-.06,0-.15,0-.2,0l.69.84C139,238.5,137.64,238,138,237.86Z" transform="translate(-6.94)"/><path class="cls-1" d="M138.11,237.68c.24-.22-.12-.41-.24-.49C138.15,237.34,137.68,237.65,138.11,237.68Z" transform="translate(-6.94)"/><path class="cls-1" d="M142.4,214.62a.31.31,0,0,0,0,.08S142.43,214.63,142.4,214.62Z" transform="translate(-6.94)"/><path class="cls-1" d="M142.06,208.38l-.28-.15c.21,1.25-.53,2.42-.44,3.67l-.1-.1c-.5,3-.44,5.86-.76,8.9,0,0-.11-.09-.14-.14.08.16.25.36.19.52s-.14-.08-.16-.13c-.62.53,0,1.91-.5,2.22a.31.31,0,0,0,.4.25,69.51,69.51,0,0,0-.86,7.31c-.1.1-.24.09-.41,0,.4,2.19-.37,4.24-.92,6.28.2.12.27-.17.46.08.4-.61-.29-1.32.23-1.84l.19.12c.23-.41-.51-.2-.14-.6.21-.14.25.1.29,0a6.43,6.43,0,0,0,.17-2.86c.5-.13.23-1,.73-1.26-.12-.28,0-.51-.31-.66.93-3.22,1.19-6.66,1.85-10-.6-1.74.78-3.45.76-5.4a.09.09,0,0,1,.09,0,5.41,5.41,0,0,1,.1-2.29l-.3-.67a31.71,31.71,0,0,1,2.21-6,10,10,0,0,1,4.44-4.24,18.14,18.14,0,0,1,3.3-1.31c1.12-.34,2.36-.72,3.48-1.16a22.17,22.17,0,0,0,6.37-3.73c0,.08.1.11,0,.2,1.21-.82,2.52-1.16,3.64-2l0,.08a23.25,23.25,0,0,1,4.4-2.76c.77-.41,1.53-.81,2.26-1.25l.53-.33.38-.28c.26-.2.55-.44.9-.73.18-.08.37-.19.55-.25l.13.63.27,1.28c.24,1,.47,2,.71,3l.78,3.12a4.78,4.78,0,0,0,1.57,2.78l-.13.12a4.09,4.09,0,0,1,1.72,4.16c-.37,1.5-1.42,2.71-2.29,4.1-2.42,2.4-3.75,6.08-6.59,8.18-2.12.87-2.89,4.18-5,4.82-4,1.66-6.58,4.73-9.56,7.76-3.42,1.76-6,4.82-9.77,5.79-1.21,1.43-3.6,1.1-5.23,2.16l.16.17c-.92-.28-.95,1.55-1.79.86l0-.07c-.55-.28-.23,1.45-.7,1l.06.24c-.37.27-.18-.22-.53-.16-.1.09.16.43-.15.42-.51-.88-.89.69-1.42-.32.22-.11-.54-.23-.16-.69-.19,0-.83.35-.56.76s.11,1,.69,1.18l-.08-.38c.3.27.19.12.36.35.56-.23.87.23,1.36.24a.05.05,0,0,1,0,0c.06-.53.55-.47.78-.52l.18.15c.33.32.23-1.07.4-.32a33.16,33.16,0,0,1,3.46-2c0-.34.93-.47.41-.82a2,2,0,0,0,1.88-.16c0,.06,0,.13,0,.14,1,.36.39-1.08,1.48-.55-.26-.67,1.19-.43,1.12-1.34a.55.55,0,0,1,.28.33c1.09-.6,2.38-1.11,3.31-1.62.44-1,2-.93,2.19-2.05a4,4,0,0,0,2.25-1.26l0,.14a5.31,5.31,0,0,0,2.08-2.2c.71.5,1,.11,1.48.07.34-.69,1.48-1.44,2.1-2.32.35.2.58-.64,1-.25,1.62-2.6,4.52-4.59,7.33-6.13v.06c.08-.5-.05-1.3,0-1.86.06,0,.12.07.06.13.33-.46,1.08-.44,1.41-.91.06.07.06.07.06.2.21-.54,1.07-.48,1.2-1.22l.13.07.12-.42c.13.13.31.33.12.44a24.46,24.46,0,0,0,2.45-2.72c.78-.94,1.48-2,2.19-3a32.19,32.19,0,0,0,2.06-3.21,8,8,0,0,0,1.14-4l.18.22a5.56,5.56,0,0,0-.44-1.12.19.19,0,0,1,.19.07,3.18,3.18,0,0,0-.86-2c-.46-.56-1-1-1.43-1.43.07-.06.33-.05.27-.25-.91-.19,0-1-1.05-.93a.45.45,0,0,1,.34-.11,6.59,6.59,0,0,1-.61-1.57c-.18-.58-.33-1.18-.47-1.77-.29-1.2-.51-2.41-.69-3.61a10,10,0,0,1-.85-1.91c-.1-.31-.19-.62-.27-1l-.06-.24,0-.07s0,0,0,0l-.12.06-.46.24c-.62.31-1.25.63-1.84,1l-.44.27-.34.25a5.24,5.24,0,0,0-.6.56l-.08-.17c-2.1,1.86-5,2.66-7.4,4.1-1.07.49-1.67,1.05-2.72,1.6l-.13-.2c-1.39,1.69-4.06,1.13-5.57,2.81v-.35c-.1.58-1.21.32-.79,1l-.43-.09c-.91,1.56-2.6.39-3.92,1.74l0-.23a2.08,2.08,0,0,1-1.17.65s0-.09.06-.18a2.32,2.32,0,0,0-1.14.25,3.69,3.69,0,0,0-1,.67c-.61.53-1.08,1.2-1.64,1.71l-.13-.39a3.47,3.47,0,0,1-.88,1.21,4.67,4.67,0,0,0-.93,1.35l-.11-.14-.06.55-.31-.16A12.47,12.47,0,0,0,142.06,208.38Z" transform="translate(-6.94)"/><path class="cls-1" d="M140.37,221l0,0S140.36,220.91,140.37,221Z" transform="translate(-6.94)"/><path class="cls-1" d="M138.71,239.47h-.17C138.58,239.54,138.66,239.48,138.71,239.47Z" transform="translate(-6.94)"/><polygon class="cls-3" points="121.3 0.1 121.18 0 120.87 0.31 121.3 0.1"/><path class="cls-3" d="M126.23.85c.06.05,0,.14.1.19l1.16-.89C126.94-.3,126.58,1.15,126.23.85Z" transform="translate(-6.94)"/><path class="cls-3" d="M125.88.78c-.47-.17-.64.23-.73.37C125.28.84,126,1.2,125.88.78Z" transform="translate(-6.94)"/><path class="cls-3" d="M93.16,21.4a.69.69,0,0,0,0-.13A.14.14,0,0,0,93.16,21.4Z" transform="translate(-6.94)"/><path class="cls-3" d="M90.68,31.49l.28.18a7.68,7.68,0,0,1,.55-2.92,18,18,0,0,0,1.06-2.87l.05.17a46.94,46.94,0,0,1,7.64-12.66c0,.08,0,.17,0,.25.1-.25.12-.61.35-.77.11,0,.05.15,0,.24,1.15-.34,2.12-2.38,2.9-2.51.2-.22.18-.47-.06-.5A50,50,0,0,1,114,3.41c.21,0,.3.12.31.3,3-2.11,6.9-2.5,10.5-2.72.12-.23-.39-.21,0-.46a2.86,2.86,0,0,0-1.64.29,2.59,2.59,0,0,1-1.55.26l.1-.23c-.8,0-.07.55-.91.4-.35-.13,0-.28-.12-.27-.82.13-1.64.39-2.45.6a7.12,7.12,0,0,0-2.25,1c-.51-.31-1.67.58-2.4.38-.34.32-.77.42-.8.76-5.48,2-10.18,5.85-14.15,10.14a9.69,9.69,0,0,1-1.17,1.84A20.75,20.75,0,0,1,96,17.48l-.79.89c-.25.32-.48.65-.71,1a15.3,15.3,0,0,0-1.25,2.1.08.08,0,0,1-.08-.05A17.22,17.22,0,0,1,91.64,25c0,.37,0,.76,0,1.14-.41.84-.81,1.71-1.2,2.59s-.58,1.82-.86,2.74c-.12.46-.29.92-.37,1.39l-.24,1.43L88.7,35.7a9.76,9.76,0,0,0-.16,1.44L88.41,40c-.06,1,.07,1.93.1,2.9l.07,1.45c0,.49.12,1,.18,1.45.15,1,.24,1.93.39,2.88a38.64,38.64,0,0,0,4.32,11.92c.55.88,1,1.8,1.67,2.62s1.29,1.63,2,2.43a27.25,27.25,0,0,0,4.81,4.11c-.07.06,0,.14-.24,0,.5.37.94.78,1.4,1.16l1.38,1.08,1.37,1.07a12.5,12.5,0,0,0,1.51.86l0,.08c.66.29,1.32.61,2,1s1.35.57,2,.87a40.64,40.64,0,0,0,4.11,1.67l1,.39,1.07.27c.71.19,1.42.36,2.13.52a23.54,23.54,0,0,0,4.23.36,36.8,36.8,0,0,0,10.44-.3l1.33-.22c.45-.08.88-.23,1.31-.34l2.61-.71a39.87,39.87,0,0,0,4.91-2.11l.06.17c.61-.35,1.23-.67,1.86-1l1.79-1.07c.6-.36,1.23-.65,1.8-1l1.74-1.16a26.49,26.49,0,0,0,6.19-5.64A15.4,15.4,0,0,0,159.3,64a19.1,19.1,0,0,0,1.27-1.82q.54-1,1.05-2l.51-1c.16-.34.28-.7.42-1l.83-2.08c.3-.68.45-1.41.71-2.1s.49-1.39.73-2.08.42-1.39.67-2.08a9.43,9.43,0,0,0,.56-1.3,11.41,11.41,0,0,0,.26-1.46,18.42,18.42,0,0,0,.14-3.07c-.06-1-.12-2-.1-3a12.07,12.07,0,0,1,.17-2.73,19.56,19.56,0,0,0,0-5.24,24.4,24.4,0,0,0-.54-2.54,13.29,13.29,0,0,0-.8-2.48c-.33-.8-.67-1.59-1-2.38s-.87-1.5-1.31-2.24l-.68-1.1-.79-1c-.54-.68-1-1.37-1.6-2s-.87-1.32-1.33-2l-.7-1-.81-.87-1.64-1.7c-.59-.53-1.21-1-1.8-1.52-1.15-1.07-2.49-1.87-3.69-2.85-.61-.48-1.28-.86-1.89-1.33s-1.22-1-1.86-1.41A8.11,8.11,0,0,1,144,5.77l-1-.59-1-.56c-.69-.4-1.4-.81-2.14-1.18a12.8,12.8,0,0,0-2.35-.73l.06.24a2.08,2.08,0,0,0-1.81-.34c-.63.1-1.19.17-1.47-.38l.13,0c-.55-.59-1.59,1-1.88.31l-.12.23c-.74,0-.06-.3-.62-.44-.22,0-.13.45-.56.28,0-1-1.83.13-1.84-1,.42,0-.64-.48.31-.67-.27-.13-1.57-.14-1.45.35-.11.52-.6,1,.16,1.38l.15-.37c.26.39.2.2.28.48,1,.11,1.09.66,1.76.92,0,0,0,0,0,0,.5-.42,1.14-.13,1.5,0l.13.24c.17.47,1.19-.68.8,0a23.22,23.22,0,0,1,3.09.35l3.19.8c.37-.17,1.57.61,1.3-.08.31.8,1.78,1.46,2.33,1.71-.05,0-.1.09-.17,0,.7,1.25,1.57-.08,2.11,1.29.23-.27.67,0,1.13.29s.95.66,1.43.46a.4.4,0,0,1-.11.43c.42.26.84.54,1.25.83a11.94,11.94,0,0,1,1.17,1c.74.66,1.49,1.24,2.08,1.81a5.37,5.37,0,0,1,1.9,1.47c.62.56,1.09,1.21,1.83,1.36.28.44.62,1,1,1.59A7,7,0,0,0,158,18.81l-.16,0c1.06,1.21,2,2.93,3.09,3.6-.44.79,0,1.35,0,2.08a9.37,9.37,0,0,1,1.24,1.84,18.77,18.77,0,0,0,1.17,2.38c-.27.34.6,1.22.07,1.46a18.11,18.11,0,0,1,1.36,3.37,22.6,22.6,0,0,1,.61,3.81c0,.65,0,1.31,0,2a10.54,10.54,0,0,1-.14,2c-.1.65-.22,1.28-.34,1.9a12,12,0,0,1-.44,1.81l0-.07c.2.65.74,1.47,1,2.2-.06.05-.15,0-.12-.11a3.33,3.33,0,0,1-.38,1.28,4,4,0,0,0-.5,1.25c-.09,0-.09,0-.13-.19,0,.87-.84,1.56-.73,2.63h-.16l0,.66c-.16-.07-.41-.19-.24-.48a48.26,48.26,0,0,1-5.08,10.42l-.83,1.22-.41.62-.48.57c-.64.75-1.26,1.53-1.93,2.27l-2.16,2.06c-.74.67-1.58,1.21-2.37,1.81l.13-.31c-.35.38-.7.79-1.07,1.16a.24.24,0,0,1,0-.23,12.85,12.85,0,0,0-2.56,1.53,10.2,10.2,0,0,1-1.25.8,14.44,14.44,0,0,1-1.3.66c0-.09.16-.37-.13-.35-1.06,1.11-2.31.3-2.6,1.5a.25.25,0,0,1-.1-.35,25.85,25.85,0,0,1-5.64,1.91c-1,.16-2,.3-3,.43a27.18,27.18,0,0,1-3,.12,12.93,12.93,0,0,1-1.26.33,9.22,9.22,0,0,1-1.29.1c-.88,0-1.77,0-2.66-.07s-1.77-.28-2.66-.37l-1.34-.12a11.57,11.57,0,0,0-1.32-.13l.06-.18a13.67,13.67,0,0,1-3.38-.71q-.82-.28-1.65-.6l-.83-.32-.78-.4-1.57-.83a14.67,14.67,0,0,1-1.54-.89c-1-.67-2-1.23-3-1.9-.76-.61-1.43-1.07-2.12-1.53a18.21,18.21,0,0,1-2-1.63l.12-.21c-1.57-.73-2.55-2.25-3.6-3.64-.47-.74-.92-1.51-1.44-2.2-.25-.36-.55-.68-.82-1a9,9,0,0,0-.89-1l.39,0c-.69-.2-.94-1.85-1.55-1.27l-.1-.64a5.48,5.48,0,0,1-1.71-2.94,10,10,0,0,0-1.32-3.56l.26.12a4.15,4.15,0,0,1-.71-2.12c.05.08.1,0,.2.19a14.23,14.23,0,0,0-.56-3.69A16,16,0,0,1,89.6,43l.38.26a7.25,7.25,0,0,1-.33-2.36c0-.92.15-1.87.07-2.67l.17.1-.2-.82H90c0-1,.19-2,.23-3l.12-1.5C90.45,32.48,90.57,32,90.68,31.49Z" transform="translate(-6.94)"/><path class="cls-3" d="M100.61,13.11h0C100.56,13.18,100.58,13.15,100.61,13.11Z" transform="translate(-6.94)"/><path class="cls-3" d="M130.83,3.74l-.24-.09C130.61,3.72,130.75,3.72,130.83,3.74Z" transform="translate(-6.94)"/></g></g></svg>