<svg xmlns="http://www.w3.org/2000/svg" viewBox="0 0 513.29 336.65"><defs><style>.cls-1{fill:#fff;}.cls-2{fill:#3867b1;}.cls-3{fill:#e81e25;}</style></defs><g id="Layer_2" data-name="Layer 2"><g id="About_Me" data-name="About Me"><polygon class="cls-1" points="513.18 259.13 513.29 258 512.99 255.04 513.18 259.13"/><path class="cls-1" d="M534.21,244.67c-.05.62-.14.31-.19.9l.83,11.39C535.33,251.85,533.89,248.07,534.21,244.67Z" transform="translate(-21.69 -4.96)"/><path class="cls-1" d="M533.38,241.36a23.7,23.7,0,0,0-1.7-7.18,13.45,13.45,0,0,1,.55,1.87c.17.82.34,1.77.5,2.64C533,240.43,533.23,241.87,533.38,241.36Z" transform="translate(-21.69 -4.96)"/><path class="cls-1" d="M409.52,70.2c.27.34.6.8.85,1.15A8.82,8.82,0,0,0,409.52,70.2Z" transform="translate(-21.69 -4.96)"/><path class="cls-1" d="M354.75,83.26l1,.43a28.19,28.19,0,0,1-5.07-4.94,19.15,19.15,0,0,1-3.32-6.42,18.47,18.47,0,0,1-.69-3.63,17.79,17.79,0,0,1,0-3.72,19.44,19.44,0,0,1,.61-3.7c.13-.61.4-1.19.59-1.79l.32-.88a6.65,6.65,0,0,1,.41-.85,20.93,20.93,0,0,1,10.7-10.21l1.76-.67,1.82-.45a9.65,9.65,0,0,1,1.85-.3,11.65,11.65,0,0,1,1.86-.14l1.87,0c.62.06,1.23.18,1.84.27l.92.15.88.27c.59.19,1.19.34,1.77.55-.42-.14-.87-.21-1.3-.31a29.91,29.91,0,0,1,6.23,3q3,1.77,6,3.62c3.92,2.47,7.73,5.05,11.46,7.69q2.81,2,5.53,4l2.71,2.06A18.42,18.42,0,0,1,407,69.56,29,29,0,0,1,410.86,75l1.9,3.26c.66,1.09,1.3,2.15,2,3.2.08.14.08-.1.11-.22l.08-.41.14-.81.25-1.61.18-1.63.1-1.65a42.12,42.12,0,0,0-.25-5.88A68.1,68.1,0,0,0,413,57.91c-.56-1.86-1.28-3.65-2-5.45A31.4,31.4,0,0,1,409.27,47a15.64,15.64,0,0,1,1.83-11.09,17,17,0,0,1,3.78-4.34c1.5-1.22,3.15-2.24,4.76-3.31,3.25-2.11,6.54-4.17,10-6A16.37,16.37,0,0,1,441.1,20.7a14.94,14.94,0,0,1,5.34,2.61,30.46,30.46,0,0,1,4.21,4.21c-.54-.56-.79-.7-1.35-1.28,1.69,1.75,3.63,3.63,5.43,5.68.42.58-.62-.47-1.23-1.1,3.35,4.15,8.63,9.91,13.54,15.34s9.47,10.51,11.46,13.19c2,2.25,3,3.13,2,1.74,3.19,3.77,6.37,7.61,9.49,11.53,1.55,2,3.14,3.92,4.6,6s2.79,4.27,4,6.5A151.06,151.06,0,0,1,505.26,99c2,4.71,4.06,9.41,5.77,14.29s3.22,9.78,4.71,14.69L518,135.3a24.24,24.24,0,0,1,1.25,7.84,16.89,16.89,0,0,1-2.07,7.77,16.16,16.16,0,0,1-5.58,5.8,22.63,22.63,0,0,1-7.38,2.95l-7.42,1.44c-1.92.28-2.3.2-1.81-.07l-6.33,1.3-3.09.63-1.49.33-.68.15-.16,0s.1.06.14.09l.35.18,1.31.69,5.21,2.83c3.84,2.11,7.69,4.26,11.49,6.56l2.83,1.75a32.16,32.16,0,0,1,2.83,2,17.58,17.58,0,0,1,2.58,2.53,10.76,10.76,0,0,1,1.77,3.35,11.51,11.51,0,0,1,.49,3.69,21.08,21.08,0,0,1-.37,3.51q-.14.86-.33,1.68a3.76,3.76,0,0,0,.09,2.51,2.8,2.8,0,0,0,.24.52l.13.19.24.29a92,92,0,0,1,8.08,10.77,86.52,86.52,0,0,1,10.78,24.49c.57,1.27-.71-3.58.42-.25a67.81,67.81,0,0,0-5.77-15.07,136.67,136.67,0,0,0-7.89-13.13c.32.32.65.63.95,1-2.16-3.13-2.53-3.34-2.88-3.59a4.52,4.52,0,0,1-.78-.77c-.42-.51-1.09-1.37-2.32-2.9-.45-.6-.7-.95-.65-1s0-.07.19.1.71.72.25.16l-.25-.29c-.08-.1-.07-.07-.11-.14a1.41,1.41,0,0,1-.2-.35,3.84,3.84,0,0,1-.28-1,2.62,2.62,0,0,1,0-.89l.31-1.49a20.18,20.18,0,0,0,.37-6.55,10.61,10.61,0,0,0-1.1-3.39,12.29,12.29,0,0,0-2.08-2.8,28,28,0,0,0-5.09-3.85c-3.42-2.14-6.88-4.13-10.3-6l-5.11-2.75-2.53-1.33-.62-.32c-.14-.08-.11,0-.16-.08l-.11-.05-.45-.2a1.53,1.53,0,0,0-.24-.29l-.17-.15s-.12-.05-.05-.06l.2,0,.73-.11,2-.35c4.47-.82,9.2-1.68,12.13-2l3-.65c1-.22,1.87-.36,2.79-.64l1.26-.37c.39-.14.76-.29,1.09-.42a7.08,7.08,0,0,0,1.53-.79,18.81,18.81,0,0,0,4.76-2.9,16.19,16.19,0,0,0,5.57-9.66,20.63,20.63,0,0,0,.16-5.6c-.15-.91-.25-1.85-.49-2.74s-.46-1.8-.72-2.6l-1.49-5c-1-3.35-2-6.71-3-10.07s-2.18-6.7-3.43-10-2.66-6.54-4-9.79a132.55,132.55,0,0,0-9.48-19.1c-1-1.51-2-3-3.06-4.44s-2.18-2.81-3.28-4.21c-2.21-2.76-4.44-5.52-6.71-8.24-4.54-5.45-9.19-10.8-13.88-16.12L455.84,32l-3.54-4-1.77-2-.88-1-1-1a16.09,16.09,0,0,0-10.21-4.69,18.6,18.6,0,0,0-9.13,2.19c-2.76,1.48-5.36,3.11-8.05,4.8q-2,1.26-4,2.6a27.83,27.83,0,0,0-3.95,3,16.38,16.38,0,0,0-5,8.85,19.39,19.39,0,0,0,1,10.31q.85,2.39,1.72,4.78a47.79,47.79,0,0,1,1.41,4.82,58.4,58.4,0,0,1,1.71,10c.06.84.1,1.68.11,2.52,0,.42,0,.84,0,1.26v.44l0,.3c0,.39-.06.78-.11,1.17,0,.19-.05.39-.09.58l-.05.29,0,.15s0,.12,0,0c-.49-.74-.87-1.41-1.37-2.27l-.67-1.14-.76-1.25c-.52-.83-1.07-1.65-1.68-2.44-.12-.2-.07-.19.09,0a17.37,17.37,0,0,0-3-3.08l-3.56-2.65c-2.46-1.81-5.1-3.69-7.81-5.56-5.42-3.75-11.18-7.45-16.51-10.57a34.46,34.46,0,0,0-4.85-2.2c-.88-.22-1.73-.52-2.61-.67s-1.77-.26-2.66-.31a20.49,20.49,0,0,0-3.59,0,17.66,17.66,0,0,0-1.78.22l-1.76.41a21,21,0,0,0-6.48,3.08A21.77,21.77,0,0,0,347,74.78a22.34,22.34,0,0,0,3.9,6.22,36.13,36.13,0,0,0,5.36,4.92l.62-1.63c-.38,0-.77-.05-1.13-.05l-.39,0a.61.61,0,0,1-.28-.11l-2.19-1.26c-.75-.43-1.49-.87-2.26-1.26-1.53-.81-3-1.65-4.6-2.39l-2.33-1.14L341.35,77c-1.57-.73-3.17-1.39-4.76-2.06A202.12,202.12,0,0,0,317,68c-6.63-2-13.34-3.75-20.06-5.4a134.12,134.12,0,0,0-20.51-4,78,78,0,0,0-21,.71,69.54,69.54,0,0,0-19.91,6.71,79.53,79.53,0,0,0-17.17,12.09l-1,.87-.93.92-1.87,1.85c-1.26,1.23-2.43,2.49-3.63,3.75-2.39,2.52-4.76,5.09-7,7.82-.42.53-.84,1.06-1.25,1.6s-.81,1.09-1.18,1.53a5.67,5.67,0,0,1-2.68,1.91,7.31,7.31,0,0,1-3.39,0l-3.84-.81c-5.12-1.1-10.18-2.3-15.16-3.65A162.47,162.47,0,0,1,147.85,83.6a111.07,111.07,0,0,1-13-7.38,32.26,32.26,0,0,0-14.43-5.79,19.77,19.77,0,0,0-8,.71,34.33,34.33,0,0,0-3.61,1.44,18.2,18.2,0,0,1-3.28,1.07,11.73,11.73,0,0,1-3.28.19,9.69,9.69,0,0,1-3.1-.86,18.4,18.4,0,0,1-5.39-4.24,69.64,69.64,0,0,0-5.23-5.5A19.64,19.64,0,0,0,86.94,62c-.54-.39-1.18-.76-1.68-1L82.09,59a61,61,0,0,0-6.68-3.65A26.73,26.73,0,0,0,71.71,54a18.38,18.38,0,0,0-1.95-.45c-.63-.1-1.25-.22-1.88-.3a100.77,100.77,0,0,0-15.1-.85c-2.51,0-5,.08-7.5.14a19.88,19.88,0,0,0-4,.46,15.37,15.37,0,0,0-3.84,1.49,15.12,15.12,0,0,0-5.72,5.78A18.78,18.78,0,0,0,29.28,68a15,15,0,0,0,1.58,8,18.43,18.43,0,0,0,2.24,3.39l2.46,2.91,20,23.46c-.14,0,.25.52-1.15-1.11L65.7,118.14l1.38,1.66,1.48,1.63a33.21,33.21,0,0,0,10.76,7.4,38.3,38.3,0,0,0,8.26,2.48c1.4.26,2.82.47,4.24.61s2.91.17,4.15.33a14,14,0,0,1,3.76,1.06,10.05,10.05,0,0,1,1.67.93c.48.34,1.06.85,1.59,1.28,2.18,1.76,4.36,3.54,6.55,5.32l-.11,0c10.93,8.75,22,17.75,33.16,26.87A47.73,47.73,0,0,0,161.76,178a45.13,45.13,0,0,0,5.4,1,48.19,48.19,0,0,0,5.5.34c3.64,0,7.26-.16,10.88-.39s7.23-.57,10.8-.89a19.86,19.86,0,0,1,5.17,0,4.52,4.52,0,0,1,2.06,1.06,9.5,9.5,0,0,1,1.53,2c.45.74.87,1.52,1.27,2.31l1.1,2.21.39.81s0,.06,0,.07l-.11,0-.2.09-.4.2L202.93,188l-9.6,4.61-9.52,4.59-4.71,2.29-1,.49-.43.21-.11.05s-.05-.05-.08-.08l-.16-.17-1.52-1.75a90,90,0,0,0-15.28-13.8,87.31,87.31,0,0,0-73.24-14.52,83.25,83.25,0,0,0-24.36,10.4,88.58,88.58,0,0,0-34.25,40.08,86.49,86.49,0,0,0-6.6,25.68A83,83,0,0,0,23.7,272.2l-.21-.12q.63,2.55,1.27,5.08c.48,1.67,1.08,3.3,1.61,4.95.29.82.53,1.66.84,2.47l1,2.39,1,2.4a22.82,22.82,0,0,0,1.08,2.36l2.37,4.61A25.17,25.17,0,0,0,34,298.58l1.36,2.2L36.7,303l1.53,2.09,1.52,2.09c.52.68,1,1.41,1.57,2l3.36,3.92A24.15,24.15,0,0,0,46.46,315l1.82,1.82,1.82,1.82,2,1.67L54,322a22.34,22.34,0,0,0,2,1.61l4.17,3a23.43,23.43,0,0,0,2.16,1.4l2.2,1.34,2.2,1.34,2.29,1.16,2.3,1.16a22.49,22.49,0,0,0,2.33,1.1l4.77,1.94a23.37,23.37,0,0,0,2.43.86l2.46.77,2.46.77c.82.25,1.67.4,2.5.6,1.68.37,3.35.78,5,1.12,3.41.45,6.8,1.06,10.25,1.23,1.71.14,3.44.14,5.16.21s3.45,0,5.18-.12a81.89,81.89,0,0,0,39.37-12.2A89.53,89.53,0,0,0,170.4,316a84.43,84.43,0,0,0,7.27-8.18c1.07-1.48,2.21-2.92,3.19-4.47.51-.76,1-1.52,1.51-2.3l1.41-2.36a90.61,90.61,0,0,0,8.54-20.3c.45-1.79,1-3.55,1.37-5.36l.59-2.68.42-2.27.21-1.16.05-.29s0-.12,0-.13l.08.11.33.47,1.35,1.9,3.09,4.38q6.36,9,12.72,18l6.35,9,3.16,4.51a34.31,34.31,0,0,0,3.33,4.35,16.84,16.84,0,0,0,4.33,3.31,16.58,16.58,0,0,0,5.19,1.61,30,30,0,0,0,5.45.16q2.73-.08,5.46-.09c7.28-.06,14.52.08,21.73.16,4.45.1,9.08.24,13.84.21,1.2,0,2.39,0,3.6-.08a12.56,12.56,0,0,0,3.67-.48,6.82,6.82,0,0,0,3.15-2.09,8.81,8.81,0,0,0,1.55-7.28,7.31,7.31,0,0,0-2-3.3,8.46,8.46,0,0,0-3.32-1.95,11.68,11.68,0,0,0-3.8-.49L269,299.2l-15.16.2-7.45.07-3.68,0a30.27,30.27,0,0,1-3.68-.08,6.4,6.4,0,0,1-3.41-1.47,13.19,13.19,0,0,1-2.3-2.8l-3.92-5.73q-3.85-5.66-7.3-10.92l-6.81-10.21c-1.13-1.7-2.27-3.39-3.4-5.07-.54-.83-1.19-1.71-1.6-2.49l-1.14-2.22,22,.27,11.23.1,2.81,0a3.3,3.3,0,0,1,1.21.15,6,6,0,0,1,1.14.51,12,12,0,0,1,2.1,1.61c.71.63,1.4,1.28,2.13,1.89a36.69,36.69,0,0,0,20.78,8.5,35.72,35.72,0,0,0,21.72-5.42,36.22,36.22,0,0,0,14.22-17.2c.75-1.73,1.21-3.59,1.85-5.33l.38-1.14.2-.57.09-.28c.06,0,.17.07.25.09l2.23,1.16c3.35,1.68,6.76,3.27,10.25,4.65s7,2.63,10.64,3.68,7.27,1.92,11,2.63,7.43,1.19,11.18,1.54c1.88.15,3.76.29,5.65.35,1,.06,1.83.07,2.87.09l1.67,0h.64c.07,0,.16,0,.12.08l-.14.82q-1.79,10-3.58,19.93t-3.44,19.64a2.23,2.23,0,0,1-.49,1,4.94,4.94,0,0,1-.75.7,7.18,7.18,0,0,1-1.75,1,4.45,4.45,0,0,1-1,.29,7.11,7.11,0,0,1-1,.05h-1.93l-7.76.05-15.48.12-7.72.09c-2.49.08-5.11.64-6.84,2.37s-2,4.47-1.53,6.83a5.61,5.61,0,0,0,1.7,3.07,7.28,7.28,0,0,0,3.2,1.6c2.39.61,5,.39,7.54.44l7.67,0c5.12,0,10.22-.07,15.32,0q3.82,0,7.64.1a27.87,27.87,0,0,0,7.44-.53,12.11,12.11,0,0,0,6.28-3.53,12.55,12.55,0,0,0,2.06-3l.21-.41a3.25,3.25,0,0,0,.23-.54l.42-1.11c.29-.73.49-1.49.74-2.23,1.47,1.63,3.15,4.1,4.42,5.49,1.38,1.61,2.67,3.29,4.15,4.79s2.83,3.12,4.39,4.54l2.26,2.19c.75.74,1.58,1.38,2.37,2.07a93.87,93.87,0,0,0,18.81,11.86,80.19,80.19,0,0,0,22.1,6.71,87.89,87.89,0,0,0,23.82.24,92.08,92.08,0,0,0,23.5-5.95l-1.16.22a57.89,57.89,0,0,0,16.17-8.42c1.25-.8,2.34-1.77,3.45-2.61l1.62-1.26c.53-.41,1-.86,1.5-1.27,1-.82,1.88-1.58,2.76-2.27s1.62-1.38,2.36-1.92l-.85.89c.6-.5,1.19-1,1.78-1.62a15.81,15.81,0,0,0,1.7-1.85c1.06-1.33,2.14-2.67,3-4s1.74-2.69,2.53-3.82a20.41,20.41,0,0,1,2.07-2.85l.35-1c1.06-1.52,1.5-2.41,1.8-2.83s.35-.46.39-.44.08.28,1.58-2.17c1-1.91,0-.94,2.19-4.87.17-.05.43-.34.74-.82a21,21,0,0,0,1-2,59.94,59.94,0,0,0,2.44-5.79c1.48-4.26,2.41-8.61,3.05-8.72-1,4,2-6.14,0,2.86.41-1.26,1.3-5,2-8.19s1.28-6,.9-5.5c-.22-1.16.59-6-1.74,1.25v1.57a13.94,13.94,0,0,1-1.11,2.68,79.75,79.75,0,0,1-2.79,9.8,74.1,74.1,0,0,1-3.16,7.33c0-.06.07-.12.05,0-1.39,4.65-4.84,10.38-6.89,13.56a13.62,13.62,0,0,1-1,1.17,12.41,12.41,0,0,0-1.54,2.16c-.58.94-1.18,2-1.78,2.88-1.16,1.78-2,3-1.34,1.61l-1.13,1.49c-.39.48-.82.94-1.23,1.42l-2.52,2.86c-1.83,1.79-3.6,3.7-5.65,5.36s-4.13,3.31-6.27,4.94c-2.27,1.44-4.5,3-6.94,4.25s-4.9,2.47-7.4,3.64c-2.58,1-5.15,2.08-7.83,2.85-2.63.92-5.37,1.5-8.07,2.21l-4.12.8c-.68.12-1.36.28-2.05.38l-2.07.27c-.76.17-2.2.41-3.86.64l-5.16.39c-3.26.13-5.53.13-3.09.42-1.4-.17-3.49-.21-5.9-.53-1.21-.15-2.51-.23-3.84-.43l-4.08-.66a84.55,84.55,0,0,1-13.75-3.71,4.48,4.48,0,0,1,1.39.4c-1.36-.6-2.58-1.12-3.7-1.57s-2.09-1-3-1.37l-2.63-1.13-2.35-1.13-2.32-1.13c-.77-.43-1.54-.91-2.37-1.43s-1.71-1.09-2.62-1.78-1.86-1.52-2.91-2.44a5.1,5.1,0,0,1-1.23-.65c-.56-.39-1.25-.95-2.06-1.6s-1.73-1.4-2.7-2.24L388,316c-1.05-.94-2-2-3-3.05s-2-2-2.85-3-1.72-1.92-2.48-2.73l-1.1-1.13-1.33-1.47c-1.23-1.83-1.75-2.72-1.21-2.23-.68-.86-1.36-1.76-2-2.54-.37,1.14-.69,2.29-1.09,3.44l-.6,1.73a6.09,6.09,0,0,1-.34.88l-.19.37A11.54,11.54,0,0,1,370,309a10.8,10.8,0,0,1-5.65,3.18,18.61,18.61,0,0,1-3.46.49c-1.19.07-2.36,0-3.66,0l-7.57-.14L335,312.45l-6.86,0h-3.28c-1.09,0-2.16,0-3.07-.06a9.25,9.25,0,0,1-4.62-1.08,4.52,4.52,0,0,1-2-3.86,5.54,5.54,0,0,1,1.41-4.56,7.84,7.84,0,0,1,4.87-1.81c.48-.05,1,0,1.47-.06h4.8l6.16-.06c4-.06,7.66-.18,10.83-.41l7.54.1,2.12,0,1.08,0h.62a4.14,4.14,0,0,0,.83-.12,8.1,8.1,0,0,0,2.59-1.15,7.1,7.1,0,0,0,1.16-1,4.4,4.4,0,0,0,.6-.78,3.74,3.74,0,0,0,.4-1c.37-2,.75-4.12,1.15-6.24s.75-4.25,1.13-6.4c.75-4.3,1.46-8.64,2.09-12.8l-.14,1.42,2.19-12.79c.29-1.7.58-3.42.88-5.13v-.09s-.06,0-.08,0h-1.34l-1.52,0-2.23-.05c-2.19-.09-4.36-.2-6.48-.39-4.25-.36-8.33-.93-12-1.59s-7-1.43-9.72-2.09c-4.41-2.11-11.07-4.38-17.32-7.66-1.23-.57-2.64-1.18-4.13-1.95L310,238.64l-.15-.08c-.05,0,0,.08-.07.11l-.11.32-.22.63-.44,1.29-.79,2.3c-.34,1-.63,1.88-.92,2.81s-.7,1.86-1.06,2.82a36.16,36.16,0,0,1-3,5.55,34.1,34.1,0,0,1-9.22,9.37,34.86,34.86,0,0,1-11.68,5.13,60.23,60.23,0,0,1-7.66.6c-3.12,0-6-.59-6.34-1a31.31,31.31,0,0,1-6.71-2,33.85,33.85,0,0,1-6.33-3.44c-.52-.33-1-.72-1.48-1.08a17.81,17.81,0,0,1-1.44-1.16L251,259.6a16.93,16.93,0,0,0-1.68-1.33,9.32,9.32,0,0,0-2-1,6.11,6.11,0,0,0-1.26-.29l-.36,0h-.74l-3.93,0-16,.07H206.66l2.18,4a15.07,15.07,0,0,0,.95,1.56l.84,1.21,3.34,4.83,6.68,9.71,6.68,9.76,3.33,4.87,1.66,2.44.84,1.22a11.18,11.18,0,0,0,1,1.31,7.58,7.58,0,0,0,2.89,2,9.56,9.56,0,0,0,3.34.6l5.89.06,11.61.11,22.7.3-.73,0,2.5-.14c.88-.05,1.71-.13,2.51-.16a8.37,8.37,0,0,1,4.36.84,6.23,6.23,0,0,1,3,3.26,5.93,5.93,0,0,1,.39,2.25,9.13,9.13,0,0,1-.35,2.34c-.27.54-.27.46.1-.77a5.79,5.79,0,0,1-3.88,4.36,10,10,0,0,1-3.1.4c-1.11,0-2.22,0-3.32,0-4.43,0-8.89-.22-13.49-.15.08-.09.08-.09,1.57-.18-8.61.27-17.82-.62-28,0l-.57-.14-3.22.18a22.27,22.27,0,0,1-3.06-.07c.08-.08.19-.18.68-.22s1.33,0,3,0a18.3,18.3,0,0,1-6.72-.92,14.22,14.22,0,0,1-5.53-3.65,21.12,21.12,0,0,1-2.16-2.7l-2.12-3q-2.11-3.08-4.25-6.13L201,271.88l-5.91-8.47-.94-1.34-.06-.09s0-.07,0,0l0,.2-.08.41-.15.81-.61,3.24-.61,3.24-.43,1.89A100.63,100.63,0,0,1,187.8,286a83.54,83.54,0,0,1-15.44,25.28c-13.26,14.82-31.7,25.38-51.62,28.05A86.92,86.92,0,0,1,63,327l2.6,1.37-3.36-1.94c-1.14-.63-2.16-1.44-3.24-2.15s-2.15-1.45-3.2-2.22l-3-2.46a6,6,0,0,1,1.31.88A93,93,0,0,1,34.8,297.68a85.1,85.1,0,0,1-10.63-27.56c.07.08,1,2.87.41.23-.36-1.74-.64-3.41-.92-5-.11-.79-.3-1.57-.34-2.33l-.15-2.25c-.09-1.46-.18-2.85-.24-4.18s.09-2.59.13-3.8,0-2.36.14-3.46.21-2.15.28-3.16.12-2,.14-2.95.17-1.86.2-2.76c.16-.65.46-1,.29.39a86,86,0,0,1,28.66-51.53,70.44,70.44,0,0,1,5.95-4.69l3.09-2.19c1-.73,2.16-1.3,3.24-2a73.84,73.84,0,0,1,13.61-6.56,85.66,85.66,0,0,1,29.54-5.26,80.35,80.35,0,0,1,25.4,3.28,84.2,84.2,0,0,1,23.94,11.43,94.13,94.13,0,0,1,10.51,8.4c1.61,1.55,3.25,3.1,4.75,4.76.78.81,1.55,1.62,2.26,2.48l1.15,1.33.7.81.35.4a3.9,3.9,0,0,0,.48-.21l12.34-6,11.88-5.9-.08.24,3.93-1.94,1.12-.54.28-.14a1.31,1.31,0,0,0-.12-.28l-.28-.56-1.05-2.1a36,36,0,0,0-2.11-3.77,6.47,6.47,0,0,0-3.3-2.86,12.43,12.43,0,0,0-4.37-.31c-1.45.09-2.88.24-4.32.38-2.88.28-5.77.53-8.67.73s-5.81.32-8.73.37a47.13,47.13,0,0,1-8.72-.59,43.23,43.23,0,0,1-16.26-6.38,65.77,65.77,0,0,1-7-5.36l-6.83-5.66-13.68-11.32L108.06,138l-3.42-2.81-1.7-1.41a11.74,11.74,0,0,0-1.88-1.28,14.46,14.46,0,0,0-4.27-1.44c-1.5-.28-3-.23-4.42-.39-9.66-.86-17.55-4.39-23.17-10.28-1.4-1.46-2.67-3.1-4-4.67l-4.07-4.84-8.8-10.52-.14-.53c-5.44-6.21-10.91-12.69-16.39-19.31a25.08,25.08,0,0,1-3.71-5.23,13.27,13.27,0,0,1-1.36-6.22,15.83,15.83,0,0,1,1.5-6.22,14.94,14.94,0,0,1,3.73-5.19,12.79,12.79,0,0,1,5.64-2.87,17,17,0,0,1,3.18-.38l3.29,0c4.4-.05,8.78-.06,13.14.22,2.18.13,4.35.34,6.5.65a23.37,23.37,0,0,1,6.2,1.59c4,1.63,7.63,4.06,11.41,6.1L83.1,62c.6.29,1.36.68,2.15,1.12a15,15,0,0,1,2.4,1.77,61.86,61.86,0,0,1,4.57,4.85,21.41,21.41,0,0,0,4,3.53c1.09.67,1.68.81,1.33.4a11.16,11.16,0,0,0,5.74,1.79,15.08,15.08,0,0,0,4.25-.93c1.36-.47,2.58-1.15,3.9-1.73a17.5,17.5,0,0,1,8.29-1.28,24.81,24.81,0,0,1,8.08,2.11,34.62,34.62,0,0,1,3.72,2c1.2.73,2.36,1.53,3.54,2.3a117.92,117.92,0,0,0,34.26,15.24l-1.86-.36c3.66,1.08,7.67,2.11,11.43,3L189,98.25c-.87-.16-.48,0-2.26-.35,2.9.74,5.83,1.46,8.86,2.1a7.46,7.46,0,0,0,4.77-.49,10.14,10.14,0,0,0,3.48-3.34c1.87-2.48,3.93-4.85,6-7.19s4.29-4.69,6.54-6.93a85.47,85.47,0,0,1,14.8-12.13,66.09,66.09,0,0,1,17.3-7.85l-2.59,1.23a64.79,64.79,0,0,1,23.3-3.78c2.27.1,4.57.12,6.86.41,1.14.13,2.29.19,3.42.37l3.37.53c4.46.76,8.73,1.81,12.64,2.72l-1-.07,7.92,1.73.12.39c18.47,4.78,35.91,10.12,52,19.53a2,2,0,0,0,1.14.24c.36,0,.72,0,1.08,0l.74.07L357,85C356.2,84.46,355.46,83.87,354.75,83.26Z" transform="translate(-21.69 -4.96)"/><path class="cls-1" d="M453.5,30.82l-.13-.18C452.93,30.2,453.13,30.42,453.5,30.82Z" transform="translate(-21.69 -4.96)"/><path class="cls-1" d="M523.81,289.19l1.09-2.27C524.76,287.06,524.15,288.46,523.81,289.19Z" transform="translate(-21.69 -4.96)"/><path class="cls-2" d="M28.87,11.47,47.61,37.36,52.9,5.82,56.57,5l7.65,32.53-2.75.64L58.14,24,55,9.4,49.58,40.93l-2.12.5L28.68,15.69,32.27,30l3.35,14.25-2.75.65L25.23,12.33Z" transform="translate(-21.69 -4.96)"/><path class="cls-2" d="M97.18,35a19.31,19.31,0,0,1-4.28,7.06,12.15,12.15,0,0,1-6.13,3.47A12.46,12.46,0,0,1,79.7,45a11.86,11.86,0,0,1-7.43-7.18q-2-5.17.5-11.86L74,22.71a19.27,19.27,0,0,1,4.3-7,12.42,12.42,0,0,1,6.17-3.51,12.3,12.3,0,0,1,7,.57,12.47,12.47,0,0,1,5.75,4.08,12.25,12.25,0,0,1,2.47,6.5,18.93,18.93,0,0,1-1.14,8Zm-1.4-4.38c1.38-3.77,1.61-7,.68-9.81a9.82,9.82,0,0,0-14-5.12q-3.76,2.28-5.89,8L75.37,27q-2,5.58-.65,9.8a9,9,0,0,0,5.83,5.83,8.93,8.93,0,0,0,8.2-.65q3.7-2.3,5.81-8.05Z" transform="translate(-21.69 -4.96)"/><path class="cls-2" d="M128.35,29.55l-10.91-3.49L108,55.61l-2.69-.86,9.46-29.55-10.88-3.49.72-2.27,24.48,7.83Z" transform="translate(-21.69 -4.96)"/><path class="cls-2" d="M152.46,50.93a19.35,19.35,0,0,1-4,7.23,12.2,12.2,0,0,1-6,3.72,12.41,12.41,0,0,1-7.09-.29,11.86,11.86,0,0,1-7.72-6.87q-2.16-5.09,0-11.86l1.05-3.28a19.13,19.13,0,0,1,4-7.21,12.79,12.79,0,0,1,19,.35,12.21,12.21,0,0,1,2.74,6.4,18.87,18.87,0,0,1-.81,8Zm-1.59-4.31q1.84-5.76.28-9.84A9.82,9.82,0,0,0,137,32.24q-3.69,2.43-5.56,8.29l-1.06,3.32q-1.82,5.65-.25,9.81a9.83,9.83,0,0,0,14.23,4.61q3.62-2.46,5.48-8.29Z" transform="translate(-21.69 -4.96)"/><path class="cls-2" d="M171.42,62.43,162.32,59l-4.86,13.05-2.67-1,11.67-31.31,10.17,3.79q5,1.86,6.92,5.34a9,9,0,0,1,.29,7.84,9,9,0,0,1-3.74,4.65,9.63,9.63,0,0,1-5.91,1.41l2.86,16.25-.1.28-2.82-1Zm-8.26-5.63,8.1,3a8,8,0,0,0,6.06.1,6.87,6.87,0,0,0,3.86-4.16,6.86,6.86,0,0,0-.2-5.93,9.29,9.29,0,0,0-5.23-4L168.29,43Z" transform="translate(-21.69 -4.96)"/><path class="cls-2" d="M210.84,64.87,192,37.3l8.14-5.58q4.43-3,8-2.77a7.82,7.82,0,0,1,6,3.82,7.42,7.42,0,0,1,1.39,4.52,7.74,7.74,0,0,1-1.64,4.45,8.08,8.08,0,0,1,9.86,2.95A8.65,8.65,0,0,1,225.21,52q-.94,3.66-5.15,6.54Zm-8.09-16.8,6.36-4.36a8.7,8.7,0,0,0,3.58-4.47,5.69,5.69,0,0,0-1-4.93,5.62,5.62,0,0,0-4.34-2.79q-2.52-.12-5.87,2.17l-5.82,4Zm1.35,2,7.72,11.26,7-4.78a8.45,8.45,0,0,0,3.7-4.77,6.39,6.39,0,0,0-1.14-5.43,6.16,6.16,0,0,0-4.44-2.88,8.12,8.12,0,0,0-5.64,1.68Z" transform="translate(-21.69 -4.96)"/><path class="cls-2" d="M240.32,47.74l-2.66,1L226.39,17.24l2.66-.95Z" transform="translate(-21.69 -4.96)"/><path class="cls-2" d="M257.42,27.14l-4.35,5L253.94,44l-2.81.2-2.44-33.32,2.81-.21,1.32,18L268.58,9.45l3.55-.26L259.25,25.05l16.39,17.39-3.43.25Z" transform="translate(-21.69 -4.96)"/><path class="cls-2" d="M304.47,32.31,289.2,29,286.3,42.3l17.55,3.83-.5,2.33L283,44l7.12-32.65,20.2,4.41-.51,2.33-17.44-3.8-2.69,12.33L305,30Z" transform="translate(-21.69 -4.96)"/><path class="cls-2" d="M330.1,47.64a5.4,5.4,0,0,0-.64-4.77c-.94-1.4-2.94-3-6-4.95a25.16,25.16,0,0,1-6.38-5.18,7.71,7.71,0,0,1,3.32-12.17,12.89,12.89,0,0,1,8.41,0,13.61,13.61,0,0,1,5.36,2.91,9.83,9.83,0,0,1,2.9,4.58,9.45,9.45,0,0,1,0,5.32l-2.73-.8a7,7,0,0,0-.7-5.95,9.12,9.12,0,0,0-5.45-3.77,10,10,0,0,0-6.34-.07,5.37,5.37,0,0,0-3.44,3.65,5.1,5.1,0,0,0,.79,4.57,19.15,19.15,0,0,0,5.48,4.56,31.26,31.26,0,0,1,5.83,4.36,9.87,9.87,0,0,1,2.46,4,7.92,7.92,0,0,1-.1,4.49,7.56,7.56,0,0,1-4.81,5.2,13.45,13.45,0,0,1-8.65-.05,16.15,16.15,0,0,1-5.87-3,9.87,9.87,0,0,1-3.3-4.64,9.14,9.14,0,0,1,0-5.43l2.71.79a6.69,6.69,0,0,0,1,6.09,11.17,11.17,0,0,0,6.17,3.94,10.42,10.42,0,0,0,6.5.11A5.41,5.41,0,0,0,330.1,47.64Z" transform="translate(-21.69 -4.96)"/><polygon class="cls-3" points="384.64 195.08 384.69 195.56 385.37 196.62 384.64 195.08"/><path class="cls-3" d="M409.45,207.16c0-.23.11-.15.1-.38-.67-1.33-1.45-2.63-2.24-4C407.56,204.89,409.42,205.8,409.45,207.16Z" transform="translate(-21.69 -4.96)"/><path class="cls-3" d="M409.67,208.41a8.33,8.33,0,0,0,.13,1.05q0,.14.06.36a7.26,7.26,0,0,1,0,.75c0-.31.23-.88.16-1.2C410,208.72,409.84,208.19,409.67,208.41Z" transform="translate(-21.69 -4.96)"/><path class="cls-3" d="M464.26,307.58c-.16.05-.37.13-.53.2A2.58,2.58,0,0,0,464.26,307.58Z" transform="translate(-21.69 -4.96)"/><path class="cls-3" d="M494.43,281a4.34,4.34,0,0,0-.08-.52,36.81,36.81,0,0,1-6.5,9.9,64.77,64.77,0,0,1-9,8.22l.36-.42a59.28,59.28,0,0,1-27.33,10.73,55,55,0,0,1-29.08-4.26c.31.1.44.06.76.15a14,14,0,0,1-3-1.13c-.22-.19.34,0,.67.15-.9-.6-2.06-1.23-3.27-2-.6-.37-1.26-.71-1.88-1.11l-1.88-1.21c-1.26-.78-2.36-1.69-3.35-2.42a18.86,18.86,0,0,1-2.12-2c-.94-.76-1.43-1-1.08-.42a55.68,55.68,0,0,1-13.54-20.42,60.23,60.23,0,0,1-3.92-24.55c.15-.78.31-.91.46-.68a46.55,46.55,0,0,1,1.51-10.55,50.13,50.13,0,0,1,1.63-5.18,54,54,0,0,1,2.23-5,49.53,49.53,0,0,1,6-9.16,27.11,27.11,0,0,1,1.78-2.08c.62-.66,1.19-1.38,1.86-2l1.95-1.9a10.33,10.33,0,0,0,1.61-1.78c.1-.5-.92.86-.4-.23-.31.37-.63.73-1,1.07l-.5.5-.58.59c-.74.8-1.47,1.56-2.13,2.38s-1.29,1.62-2,2.41-1.27,1.62-2,2.4l.16-.56c-1,1.17-.95,1.42-1,1.62s0,.41-1,1.66c-.86.95,0-.41-.4.07-3.48,5.56-6.33,12-7.12,18.12a7.52,7.52,0,0,0-.59,1.7c-.15.75-.3,1.65-.45,2.57s-.22,1.89-.36,2.76-.24,1.67-.37,2.27c.06.86,0,1.71.07,2.43a5.22,5.22,0,0,0,.29,1.62,55.79,55.79,0,0,0,22.57,44.87c1.19.85,2.39,1.67,3.62,2.46s2.49,1.53,3.81,2.15a55.45,55.45,0,0,0,8,3.45,81.27,81.27,0,0,0,17.41,2.61,51.43,51.43,0,0,0,18.88-2.83c.09,0,.09,0,0,.09A76.92,76.92,0,0,0,478,300.66c.55-.45,1.11-.89,1.64-1.36l1.58-1.43a50,50,0,0,0,14.65-17.14c.42-.87.89-1.66,1.26-2.61a13.09,13.09,0,0,0,.81-2.93,8.29,8.29,0,0,0-1.36-6.06,8.11,8.11,0,0,0-2.34-2.15,9.09,9.09,0,0,0-2.91-1.2,7.89,7.89,0,0,0-6.14,1.29,12.29,12.29,0,0,0-3.87,4.63,44.63,44.63,0,0,1-2.85,4.8,39.17,39.17,0,0,1-7.45,8.13,37.44,37.44,0,0,1-20.08,8.4,38.71,38.71,0,0,1-12.26-.73,42.55,42.55,0,0,1-11.27-4.05,35.92,35.92,0,0,1-15.53-16.8c-3.21-7-5.06-14.81-4-22.51a37.48,37.48,0,0,1,3.34-11.23l.64-1.36.72-1.32c.45-.9,1-1.75,1.52-2.62.25-.44.53-.87.82-1.29l.71-1.06c.32-.5.7-1,1.1-1.6,0,.2,0,.19-.26.62l.15-.2c0-.06.11-.19.12-.06l.16.43.32.9,1,2.93,2.12,6.54c1.39,4.32,2.76,8.58,4.28,12.86h-.09c1,2.64,1.85,5.32,2.87,8.06a25,25,0,0,0,4.34,7.72,21.49,21.49,0,0,0,15.75,7.57,22,22,0,0,0,16.07-6.53,20.08,20.08,0,0,0,5.69-15.61,21.53,21.53,0,0,0-.26-2.52c-.17-.82-.36-1.66-.58-2.47l-1.43-4.87q-1.49-4.89-3.09-9.87l-3.27-10L459,219.06l-.71-2.19-.09-.27,0-.07s0,0,.06,0l.13.05.54.18,1.07.36,1.08.42a12.09,12.09,0,0,1,1.14.47c.82.35,1.63.71,2.42,1.13a37.86,37.86,0,0,1,4.59,2.71,40.59,40.59,0,0,1,4.18,3.32,43.39,43.39,0,0,1,3.67,3.88,42.64,42.64,0,0,1,3.13,4.31,30,30,0,0,1,2.54,4.65,34.73,34.73,0,0,0,2.19,4.86,8.27,8.27,0,0,0,3.93,3.44l-.13.14a6.92,6.92,0,0,0,3.42.43,8.72,8.72,0,0,0,3.23-1.1,7.68,7.68,0,0,0,2.53-2.28,6.8,6.8,0,0,0,1.12-3.19,10,10,0,0,0-.26-3.37,31.37,31.37,0,0,0-1.06-3.19,56.36,56.36,0,0,0-2.74-6.09,53.52,53.52,0,0,0-7.64-11,56,56,0,0,0-4.8-4.7l-4.34-3.66,2.18-.75,2.95-1.07c2-.74,4.07-1.48,6.13-2.15,1.37-.4,2.75-.78,4.14-1.11l.53-.12a1.65,1.65,0,0,1,.38,0,1.8,1.8,0,0,1,.77.26,8.54,8.54,0,0,1,1.61,1.22,35.31,35.31,0,0,1,3,3.13l1.43,1.64c.46.56.9,1.14,1.36,1.71a78.87,78.87,0,0,1,5.05,7.17,75.48,75.48,0,0,1,4.14,7.8,65.52,65.52,0,0,1,5.72,34.4c-1.08,7.08-2.68,15.22-5.83,22.81s-7.55,14.57-12.43,19.26a78.72,78.72,0,0,1-16.1,12.67,76.33,76.33,0,0,1-18.62,7.89,75.22,75.22,0,0,1-20.13,2.57,73.55,73.55,0,0,1-20.38-3,80.27,80.27,0,0,1-17.27-8.29A71.45,71.45,0,0,1,392.2,302a65.66,65.66,0,0,1-10.54-15.77l-.52-1.07-.45-1.09-.89-2.19a14.37,14.37,0,0,1-1.25-4.62,7.22,7.22,0,0,1,0-1.23,9.37,9.37,0,0,1,.22-1.19l.52-2.28c.34-1.51.72-3,1.1-4.52,1.81-11.62,6.39-23.85,10.81-36l-.38.36c2.22-4.13,3-10,5.2-12.27l-.17.46a10.45,10.45,0,0,0,1.41-3.74,6.77,6.77,0,0,1,1.26-3l0-.47c1.36-2.68.41-.18,1.61-2.17.39-.78-.24-.51.76-2,.54.07,1.41-1.54,2.38-3.07s2-3,2.49-2.79c-.92,1.36,1.81-1.89-.06,1.3.17-.2.47-.61.82-1.12l.54-.82c.18-.28.3-.45.5-.71.79-1,1.52-2,1.17-2-.11-.66.84-2.42-1.47-.41l-.13.71c-1,.51-.67.46-1.13.57-.18.2-.34.41-.49.61l-.37.52c-.24.32-.46.6-.67.86-.42.5-.79.9-1.14,1.26a25.19,25.19,0,0,0-2.21,2.52s.05,0,0,0a34.26,34.26,0,0,1-3,5.55l-.49.46c-.82.65-1.31,4.47-1.43,3a206.48,206.48,0,0,0-9.79,24.81c-.14,1.3-2.08,6.67-1,4.92-1.25,2-3.23,8.51-3.76,11,0-.1-.08-.22,0-.6-2,4.56-.63,5.8-2.6,10.05.26.42-.21,2.44-.73,4.69-.25,1.13-.5,2.32-.67,3.39-.09.56-.15,1-.19,1.56a3.89,3.89,0,0,0,.15,1.45c-.13.66-.22.9-.38.68a15.58,15.58,0,0,0,.81,3.41c.4,1,.81,2,1.21,3l.61,1.5c.21.5.46,1,.69,1.47l1.39,2.91,1.55,2.76.77,1.35.83,1.28,1.61,2.46,1.68,2.21c2.08,2.24,4.53,5,7.07,7.5,1.3,1.22,2.61,2.41,3.9,3.43a27.38,27.38,0,0,0,3.75,2.43l2.95,2.21c1.12.76,2.36,1.55,3.64,2.37s2.72,1.5,4.12,2.2,2.88,1.28,4.3,1.77c-.19,0-.39-.07-.58-.12a70.26,70.26,0,0,0,10.26,3.3c.87.19,1.71.41,2.54.56l2.42.37a29.79,29.79,0,0,0,4.1.34,7.91,7.91,0,0,0,1.59.67,14.67,14.67,0,0,0,1.91.38c1.34.21,2.81.36,4.28.49,1.15-.07,2.57-.06,4.18-.2l2.54-.15c.88-.08,1.78-.2,2.71-.3,1.86-.15,3.77-.54,5.64-.87.94-.16,1.85-.43,2.75-.64s1.77-.42,2.59-.72a14.92,14.92,0,0,0,3.21-.77c1.27-.41,2.44-.86,2.71-.65a81.77,81.77,0,0,0,36.62-29.85,81,81,0,0,0,7.54-14.13l-.06.29a59.18,59.18,0,0,0,1.21-8.5c.11-.24.19-.19,0,.35.78-3.64,1.92-7,2.19-10.77.09,0,.09,0,.1.65.11-3.51.94-7.29.3-11.45l.12-.24-.39-2.63c.18,0,.46.12.51,1.54a70.3,70.3,0,0,0-11.63-34.15c-.84-1.27-1.75-2.51-2.66-3.74s-1.86-2.43-2.9-3.56-2-2.31-3.13-3.41a14.58,14.58,0,0,0-1.85-1.6,6.61,6.61,0,0,0-1.17-.71,3,3,0,0,0-1.72-.32,1.63,1.63,0,0,0-.44.08l-.29.07-.56.14-1.11.3c-.74.21-1.48.43-2.21.67-1.46.46-2.9,1-4.33,1.48L481,205.62l-2.75,1L475,207.77l6.3,5.14a51,51,0,0,1,4.56,4.25,49.53,49.53,0,0,1,7.43,10l-.73-.93a54.11,54.11,0,0,1,3.15,5.36c-.1,0-.26-.24-.42-.5,1.36,3.66,3.5,7.55,2.16,10.86a6.39,6.39,0,0,1-3.79,3.49,5.85,5.85,0,0,1-5.06-.25c.07,0,1,.22.26-.27a5.69,5.69,0,0,1-2.57-2.17A11.91,11.91,0,0,1,485,240c-.61-1.79-1.18-3.46-2.39-4.56-.1-.26,0-.54.38,0a55.06,55.06,0,0,0-3.42-5.22,45,45,0,0,0-4.12-4.73,40.19,40.19,0,0,0-10.19-7.34c-.93-.49-1.89-.91-2.85-1.34-.2-.09-.58-.23-.91-.36l-1-.38c-.67-.26-1.35-.51-2.07-.75l-2.12-.72.64,2.1.64,2.07.64,2,3.71,11.71c1.27,3.15,2.45,6.44,3.55,9.82.56,1.68,1.09,3.39,1.61,5.11.24.86.54,1.74.72,2.59l.3,1.28.17,1.31a9.77,9.77,0,0,1,.1,1.32c0,.44,0,.88,0,1.32a20.19,20.19,0,0,1-1.79,7.68,22.22,22.22,0,0,1-6.46,8.19l-.05-.19A20.33,20.33,0,0,1,447.27,275a20,20,0,0,1-12.77-5.13,20.73,20.73,0,0,1-4.35-5.51,39.45,39.45,0,0,1-2.58-6.6c-1.4-4.56-2.92-9.07-4.43-13.56-1.2-3.75-2.26-6.86-3.34-10l-1.68-4.84-.93-2.73-.06-.18,0-.08-.06.07-.24.3-.47.61-1,1.24a.94.94,0,0,0-.24-.06l-1.49,2.28L412.3,233c-.86,1.47-1.7,3-2.46,4.54a42.33,42.33,0,0,0-3.49,9.94,33.93,33.93,0,0,0-.47,10.69,35,35,0,0,0,2.83,10.2c-.22-.25-.41-.53-.61-.8.26.48.62,1.2,1,2s.69,1.71,1.09,2.49c.71,1.59,1.45,2.74,1.61,2.18.34.74.63,1.52,1,2.25a65.91,65.91,0,0,0,9.29,9.77,33.32,33.32,0,0,0,6,3.84,30.21,30.21,0,0,0,3.56,1.51c.64.23,1.3.4,2,.59a16.89,16.89,0,0,0,2.07.49h-.79c3,.72,6.55,1.14,8.8,1.54-.36,0-.2.06-.93,0a27.12,27.12,0,0,0,3.66.44,36.56,36.56,0,0,0,3.77,0,30.62,30.62,0,0,0,3.81-.53l1.9-.4,1.87-.56a42.43,42.43,0,0,0,13.54-7.42l-.7,1c1-.8,2-1.85,3.24-2.95l1.79-1.85c.63-.62,1.18-1.35,1.8-2s1.14-1.47,1.71-2.21a25.16,25.16,0,0,0,1.55-2.31c1.05-1.52,1.69-3.2,2.53-4.55l-.06.42a10.91,10.91,0,0,1,1.83-2.6l.29.21a6.72,6.72,0,0,1,5.31-1.75,7.57,7.57,0,0,1,4.87,2.77,7.13,7.13,0,0,1,1.19,5.5,12.11,12.11,0,0,1-.85,2.85C495.33,279.18,494.9,280.1,494.43,281Z" transform="translate(-21.69 -4.96)"/><path class="cls-3" d="M421.23,303.83l.08.05C421.54,304,421.43,303.91,421.23,303.83Z" transform="translate(-21.69 -4.96)"/><path class="cls-3" d="M400.48,207.44c.22-.33.41-.6.61-.86A4.54,4.54,0,0,0,400.48,207.44Z" transform="translate(-21.69 -4.96)"/><polygon class="cls-1" points="385.03 173.84 384.98 173.62 384.41 173.43 385.03 173.84"/><path class="cls-1" d="M403.94,176.68c0,.11-.07.13,0,.24l2,1C405.62,176.87,404.1,177.33,403.94,176.68Z" transform="translate(-21.69 -4.96)"/><path class="cls-1" d="M403.61,176.18a1.22,1.22,0,0,0-1.13-.71C402.9,175.45,403.42,176.59,403.61,176.18Z" transform="translate(-21.69 -4.96)"/><path class="cls-1" d="M352.08,143.55l-.06.07C352.08,143.6,352.09,143.58,352.08,143.55Z" transform="translate(-21.69 -4.96)"/><path class="cls-1" d="M367,135.2l0-.37c-2.77,1.89-6.4,2.93-9.47,4.62l.17-.2c-2.05.91-4,1.79-6,2.77-1.13.6-2.15,1.3-3.16,1.94l-.75.47-.37.23s-.15.08-.15.11l.24.06,1.81.49c1.18.33,2.35.61,3.37.91l3.08.9c1,.29,2,.65,3.08,1s2.07.69,3.1,1.09c-.14,0-.22,0-.36,0a4.49,4.49,0,0,1,1.38.26c.09.11-.18.08-.33.05,1.53,1.14,5.15,1.86,6,2.71.49.18.79.09.6-.19a139.08,139.08,0,0,1,18.74,10.4c.23.26.19.41,0,.5,5.38,2.92,10,7.43,14.17,12,.33,0-.27-.62.32-.34a10,10,0,0,0-2-1.94,7.71,7.71,0,0,1-1.95-1.83h.32c-.86-1-.57.2-1.37-.94-.27-.51.28-.11.11-.3l-3.22-2.79a21.93,21.93,0,0,0-3.42-2.32c-.22-.79-2.4-1.83-3-2.81-.69-.3-1.27-.74-1.67-.65-7.88-5.9-17.11-10.07-26.43-13.64a24.36,24.36,0,0,1-3.57-.92c-1.21-.37-2.44-.83-3.69-1.3l-1.82-.74-.2-.08c-.06,0,0,0,.06-.05l.11-.06.42-.24c.27-.17.5-.34.75-.53a.17.17,0,0,1,.09.06l.22-.21a2.13,2.13,0,0,1,.41-.27c.46-.26,1-.52,1.48-.78,1-.51,2.1-1,3.1-1.41l1.49-1.1c12.06-4.69,23.81-10.7,35.86-15.88l5.05-2.22c1.65-.76,3.32-1.52,4.9-2.38a58,58,0,0,0,9-5.81,39.68,39.68,0,0,0,12.85-17.11c.07.05.17,0,0,.32a44.93,44.93,0,0,0,3.61-11.6l.09,0A116,116,0,0,0,430.71,70l-.12-3.78-.08-1.87L430.44,63l-.19-2.8-.05-.8,0-.43v-.11l0,0,.08.1.74.83,9.79,14.36,5.27,7.68a33.35,33.35,0,0,0,6.14,6.92l-.14.11a35.94,35.94,0,0,0,12.76,6.72c1.16.33,2.34.6,3.53.83s2.38.38,3.56.54a56.91,56.91,0,0,0,7.23.76c.63.05,1.27.09,1.91.09s1.29,0,1.88,0a8.32,8.32,0,0,1,3.44.67,6.46,6.46,0,0,1,2.61,2.35,16.39,16.39,0,0,1,1.6,3.41,150.5,150.5,0,0,1,5.12,14.41l.09.49c0,.06,0,.05-.09.06l-.16,0-.3,0-1.13.15-1.17.19-1.27.25a20.46,20.46,0,0,0-5,1.68,90.92,90.92,0,0,1-9,4.37,20.28,20.28,0,0,0-7.44,5.14,12.69,12.69,0,0,0-3.13,8.55,17.43,17.43,0,0,0,.73,4.51,26.33,26.33,0,0,0,1.72,4.09l.52.92a4.59,4.59,0,0,1,.26.48l-.47.17-2.05.73L463.6,152c-10.8,2.66-20.82,7.39-30.91,11-4.3,2.72-9.93,4.08-14.68,7.27l.29.08c-2.11.49-3.27,3.25-4.88,3.14l.15-.16c-1.2.18-1.35,2.41-2.22,2.31v.3c-1,.83-.29-.13-1.15.38-.29.25.15.45-.56.81-.79-.74-2.35,2.15-3.14,1.31.55-.45-1.16.36-.06-.84-.43.2-2.11,1.62-1.64,1.87.19.52-.18,1.41,1.1.87l0-.46c.59,0,.39-.06.69,0,1.38-1,1.9-.75,3-1.34,0,0,0,0,0,0,.38-.89,1.49-1.34,2.06-1.69h.34c.58.12,1.06-1.85,1.08-.93,1.36-1.09,2.89-2.17,4.48-3.25s3.26-2.12,5-3.06c.33-.52,2.6-1.47,1.59-1.52,1.15,0,3.8-1.14,4.73-1.67,0,.07,0,.15-.18.21,2.23-.21,1.89-1.77,4.08-1.74,0-.79,3.32-1.26,4-2.48.29,0,.42.14.39.29,3.25-1.36,6.95-2.58,9.77-3.56,2.18-1.48,5.91-1.8,7.73-3.29a36.84,36.84,0,0,0,7-2l-.2.18c1.36-.45,2.91-.91,4.33-1.42.71-.25,1.39-.5,2-.76.31-.13.59-.25.87-.39.45-.18.84-.35,1.16-.51a9,9,0,0,0,3.2-.21c-.27-.89-.79-2-1.18-3.11a6.35,6.35,0,0,1-.39-.68l-.09-.18-.05-.08-.1-.18a6.65,6.65,0,0,1-.42-.8,17.73,17.73,0,0,1-.74-1.93,23,23,0,0,1-.87-4.24c.21-.2.16-.74.21-1.24s.11-1,.41-1a10.09,10.09,0,0,1,2-5.34,17.85,17.85,0,0,1,4.93-4.27,39.91,39.91,0,0,1,6.16-3c1.06-.43,2.14-.83,3.21-1.21a15.87,15.87,0,0,1,3-.87l-.09.07c.89-.59,2-1.5,3.08-2.09.12,0,.13.12-.11.16a8,8,0,0,1,1.17-.2c.4,0,.72,0,1.36-.11s1.16-.13,1.77-.23l.91-.16c.06,0,.19,0,.18-.07l-.07-.22-.15-.44c.11.07.11.07.35.51a13.13,13.13,0,0,1-.62-1.75l-.26-.89-.12-.47-.07-.32a7.63,7.63,0,0,0-.88-2.39l.1-.14-.55-1c.18,0,.45-.07.59.51-1.07-3.27-2.22-6.54-3.4-9.83a13.64,13.64,0,0,0-2.74-5.16,7.59,7.59,0,0,0-2.62-1.82,9.06,9.06,0,0,0-3-.66,26.77,26.77,0,0,0-2.77.08q-1.26.06-2.55,0c-1.72-.07-3.46-.25-5.22-.45s-3.57-.36-5.25-.62a32.1,32.1,0,0,1-5-1.23,4.87,4.87,0,0,0,.54,0c-.87-.18-1.76-.34-2.62-.6.05-.08.19-.08.32-.07-3-1.5-6.28-2.91-8.73-5.21.07,0,.55.15.28-.23a7.16,7.16,0,0,1-2.14-2.11A2.66,2.66,0,0,0,449,84.13a.19.19,0,0,1,.32-.19,46.39,46.39,0,0,1-3.16-4.11c-1-1.46-2-2.92-3-4.4-2-3-4-6-5.89-8.92a39.7,39.7,0,0,1-2.91-3.5l-.79-1.07-.87-1.23L431,58.26l-1.69-2.42a1.85,1.85,0,0,0-.2-.26v1.14l0,1.53a53.18,53.18,0,0,0,.47,5.83l-.19,0a67.47,67.47,0,0,1-1.31,24.32c-.41,1.65-.89,3-1.28,4.35-.24.67-.5,1.34-.76,2a18.22,18.22,0,0,1-1,2.17l-.24,0a17.23,17.23,0,0,1-1.92,4,30.59,30.59,0,0,1-2.82,3.56c-1,1.16-2.11,2.19-3.14,3.31s-2.09,2.17-3.1,3.31l.11-.51a5.13,5.13,0,0,1-1.48,1.52c-.59.45-1,.84-.63,1.06l-1,.45a13,13,0,0,1-4.75,3.47,42.51,42.51,0,0,0-5.81,3.1l.21-.32a13.29,13.29,0,0,1-3.46,1.73c.13-.09,0-.11.3-.29-4.13,1-8,3.76-12,5.57l.3-.54c-1.75,1.28-5.47,2.55-7.93,3.89l.08-.22-1.18.81-.18-.3C373.16,132,370.17,133.67,367,135.2Z" transform="translate(-21.69 -4.96)"/><path class="cls-1" d="M362.66,149.53l0,0C362.51,149.5,362.56,149.51,362.66,149.53Z" transform="translate(-21.69 -4.96)"/><path class="cls-1" d="M409.93,178.36l-.39.22C409.61,178.61,409.81,178.43,409.93,178.36Z" transform="translate(-21.69 -4.96)"/><polygon class="cls-1" points="342.46 234.09 342.33 233.97 341.98 234.25 342.46 234.09"/><path class="cls-1" d="M361.85,239.58c.06,0,0,.14.09.2l1.38-.77C362.75,238.5,362.23,239.92,361.85,239.58Z" transform="translate(-21.69 -4.96)"/><path class="cls-1" d="M361.46,239.47a.69.69,0,0,0-.87.29C360.79,239.46,361.55,239.9,361.46,239.47Z" transform="translate(-21.69 -4.96)"/><path class="cls-1" d="M318.13,226.54l.15.06A.18.18,0,0,0,318.13,226.54Z" transform="translate(-21.69 -4.96)"/><path class="cls-1" d="M307.81,220.52l-.33.09c.92.71,1.62,1.71,2.6,2.53a24.28,24.28,0,0,0,3,2h-.19a77,77,0,0,0,15.82,7.68c-.09,0-.16.07-.26.06a2.39,2.39,0,0,1,1,.11c.05.1-.14.1-.25.09,1,1,3.56,1.09,4.16,1.71.36.07.58-.09.45-.31a70.12,70.12,0,0,0,14,3.28.28.28,0,0,1,.12.43c4.12,0,8.22.89,12.34,1.33.17-.21-.41-.27,0-.47-1.29-.4-2.47.34-3.62-.19l.17-.2c-.84-.24-.23.52-1.1.13-.33-.22.12-.26,0-.3-1.85-.11-3.72-.62-5.53-.4-.35-.52-2-.4-2.54-1-.51.08-1,0-1.21.2-6.28-1.65-12.75-3.27-18.84-6-3.23-.47-6.14-3.09-9.47-4.7a.07.07,0,0,1,.05-.08,16.7,16.7,0,0,1-3.9-2.09L313,224.1l-1.3-1a14.87,14.87,0,0,1-1.22-1,20.86,20.86,0,0,1-2-2.47,15.8,15.8,0,0,0-1.1-1.35l-1.1-1.24-2.25-2.46c-3-3.28-6.08-6.53-9-9.91a11.83,11.83,0,0,1-2-2.83,3.84,3.84,0,0,1-.39-1.34,1.48,1.48,0,0,1,0-.29l0-.44.09-.87.16-1.71.32-1.69c.12-.57.19-1.13.33-1.68l.44-1.65A94,94,0,0,1,299,179.06c.07.06.15,0,.05.25a19.54,19.54,0,0,1,1-1.8l1.15-1.63c.74-1.09,1.6-2.06,2.33-3.17l.06.06a17.78,17.78,0,0,1,1.44-2c.52-.65,1-1.32,1.61-1.93a40.71,40.71,0,0,1,3.7-3.49c1.26-1.13,2.66-2.06,4-3.09l2-1.38c.34-.23.66-.49,1-.71l1-.64a33.5,33.5,0,0,1,5.54-2.15,19.5,19.5,0,0,1,6.12-.29c2.08.19,4.16.57,6.24,1l6.16,1.17-.06.17c6.53,1.21,12.32,4.08,18.39,6.5,3,1.55,6.17,2.93,9.32,4.46a41.51,41.51,0,0,1,8.76,5.61,32.2,32.2,0,0,0,5.46,4.35,28.61,28.61,0,0,1,2.83,2.18c.43.38.84.77,1.21,1.17a10.14,10.14,0,0,1,.94,1.27c1.17,1.69,2.61,3.23,3.19,5s0,3.53-.77,5.31c-1.74,3.59-3.25,7.38-4.67,11.22-3.77,6.55-5.72,13.92-9.55,20.2-.8,3.42-3.63,6.37-5,10l.26,0a3.45,3.45,0,0,0-.85,2c-.17.67-.49,1.37-1.15,1.23l.07-.12a.62.62,0,0,0-.44.29c-.1.16-.19.39-.33.58-.23.44-.58.76-.86.53l-.08.27c-.92.2-.16-.25-.86-.28-.26.05-.06.46-.62.36-.16-1-2.19.26-2.25-.9.48,0-.74-.45.33-.69-.29-.11-1.77-.08-1.65.41-.14.51-.73.95.17,1.37l.19-.38c.3.39.23.2.33.48,1.19.07,1.33.62,2.23.83,0,0,0,0,0,0,.59-.46,1.44-.23,2-.26l.24.17c.19.21.6-.12.86-.36s.43-.5.34-.05a5,5,0,0,0,2-1.56,10.62,10.62,0,0,0,1.15-2c.58-1.28,1.08-2.53,1.61-3.75-.12-.46.83-1.87.09-1.55.85-.37,1.78-2.13,2.05-2.82.05.05.1.11,0,.2,1.32-1,0-1.86,1.43-2.69-.56-.47,1.19-2.14.74-3.17.21-.09.36-.08.45,0,1-2.2,2.31-4.53,3.19-6.37.16-1.85,2-3.72,1.88-5.44a15.94,15.94,0,0,0,2.32-4.41l0,.2a21.37,21.37,0,0,0,2-5.43c1-.14,1.23-1,1.85-1.6a13,13,0,0,1,1-2.54,27.36,27.36,0,0,0,1.27-3c.5-.12.59-1.69,1.12-1.64a11.15,11.15,0,0,0,.2-2.63,6.83,6.83,0,0,0-.71-2.74,16.87,16.87,0,0,0-3.17-4l-3.28-3.56L384.48,178l.09,0a21.38,21.38,0,0,0-2.78-.54c0-.09,0-.15.16-.05-.93-.59-1.38-1.69-2.34-2.25.06-.07.06-.07.25,0-1-.42-1.47-1.63-2.71-2l0-.16-.76-.27c.12-.14.3-.34.61-.06a68,68,0,0,0-12.63-7.06c-4.46-2-9.07-3.57-13.68-5.11l.39-.05c-.63-.1-1.26-.2-1.89-.27,0-.08.13-.1.23-.11a16.87,16.87,0,0,0-3.49-1c-1.2-.22-2.39-.43-3.52-.74,0-.08.42-.18.12-.34-1.8.11-2.59-1.23-3.65-.41a.22.22,0,0,1,.11-.35c-2.36-.31-4.76-.77-7.21-1.1a26.52,26.52,0,0,0-7.56-.16c-.5.2-1,.44-1.51.66s-1,.48-1.45.69l-1.49.62-1.46.72-1.47.72c-.47.27-.93.57-1.38.86a13,13,0,0,0-2.51,2l-.09-.16c-.5.47-1,.92-1.55,1.35s-1,.94-1.53,1.4-1.06.89-1.57,1.37l-1.52,1.45a43.8,43.8,0,0,0-5.62,6.32,43.1,43.1,0,0,0-3.27,5.32l-.23-.07a11.35,11.35,0,0,1-.56,1.4,14.44,14.44,0,0,1-.65,1.38c-.47.91-1.05,1.79-1.52,2.73a19.67,19.67,0,0,0-1.35,2.86,11.51,11.51,0,0,0-.69,3.06l-.23-.36c.3.75-.78,2.39.08,2.35l-.42.64a8.68,8.68,0,0,1-.43,4c-.13.66-.27,1.34-.35,2.08a6.17,6.17,0,0,0-.05,1.15,2.74,2.74,0,0,0,.41,1.17,2.26,2.26,0,0,1-.26-.16c.42.85,1.07,1.65,1.32,2.3-.09-.06-.11,0-.27-.14a9.35,9.35,0,0,0,2.7,3.55c1.12,1,2.32,2,3.32,3.15h-.5c1.3.78,2.8,3,4.23,4.27l-.2,0,.83.55-.24.25c.83.92,1.69,1.76,2.56,2.59A25.06,25.06,0,0,1,307.81,220.52Z" transform="translate(-21.69 -4.96)"/><path class="cls-1" d="M329.2,233.11s0,0,0,0S329.14,233.1,329.2,233.11Z" transform="translate(-21.69 -4.96)"/><path class="cls-1" d="M367.33,242.55a2.61,2.61,0,0,1-.32-.06C367,242.56,367.23,242.54,367.33,242.55Z" transform="translate(-21.69 -4.96)"/><polygon class="cls-1" points="238.45 152.35 238.43 152.16 237.94 152.06 238.45 152.35"/><path class="cls-1" d="M257.87,155.77c0,.1-.08.13-.07.22l1.67.6C259.36,155.75,257.94,156.33,257.87,155.77Z" transform="translate(-21.69 -4.96)"/><path class="cls-1" d="M257.62,155.38a.83.83,0,0,0-.91-.52C257.07,154.81,257.39,155.76,257.62,155.38Z" transform="translate(-21.69 -4.96)"/><path class="cls-1" d="M221.67,115.89a.87.87,0,0,0,.14.12C221.76,115.93,221.71,115.89,221.67,115.89Z" transform="translate(-21.69 -4.96)"/><path class="cls-1" d="M214.77,105.81l-.2-.29a12.26,12.26,0,0,1-.8,1.92c-.17.34-.36.68-.55,1-.1.09,0,.17.06.24l.19.22.39.45,1.42,1.66a20.64,20.64,0,0,0,1.44,1.51l-.2-.07c4.59,5.26,9.29,9.68,14.11,14.66-.1-.06-.19,0-.29-.08a2.83,2.83,0,0,1,.93.61c0,.12-.18,0-.28,0,.59,1.43,3.12,3,3.44,3.91.31.27.6.26.57,0,3.73,3.93,7.69,8.16,11.69,12,.13.25.05.38-.13.44,3.79,2.94,6.86,6.83,10,10.5.29,0-.15-.52.34-.32-.84-1.34-2.31-1.75-3-3.06h.28c-.58-.85-.54.21-1.05-.77-.14-.43.28-.1.16-.26-1.53-1.55-2.9-3.37-4.67-4.54,0-.68-1.55-1.74-1.76-2.64-.51-.29-.86-.74-1.23-.69-4.93-5.82-10.48-11.29-15.68-17.1-3.12-2.11-5.26-6.07-8.39-9.09a.06.06,0,0,1,.08,0,25.4,25.4,0,0,1-3.62-3.69l-1.24-.8-2.16-2.73-.17-.23c0-.07.09-.16.12-.24l.32-.49,1-1.6a36.67,36.67,0,0,1,2.07-3.17,37.38,37.38,0,0,1,2.23-3.06A52.72,52.72,0,0,1,231,89.24a70.07,70.07,0,0,1,14.28-8.14A113.17,113.17,0,0,1,260.69,76c0,.09.09.13-.19.2.8-.16,1.58-.28,2.35-.4s1.55-.08,2.31-.12l2.27-.11c.75,0,1.5,0,2.27,0l0,.08c.95,0,1.91-.13,2.87-.11s1.93.15,2.9.24l1.46.15,1.47.25,2.93.51c3.89.72,7.75,1.43,11.45,1.82a278.62,278.62,0,0,1,27.78,7.39l-.08.16c7.33,2.24,13.75,6,20.52,9.41.83.52,1.68,1,2.54,1.49s1.77,1,2.57,1.45l2.14,1.1.15.08s.15,0,.07.07l-.22.15-.48.32-1,.68c-.69.47-1.66,1-2.52,1.48s-1.77,1-2.66,1.45c-1.78.94-3.58,1.82-5.41,2.57-4.77,1.39-9.7,5.93-14.22,7.16-9.07,3-16.89,7.82-25,12.76-2,.85-4,1.81-5.89,2.8s-3.83,2-5.69,3.11c-3.7,2.2-7.18,4.58-10.76,6.84a20.25,20.25,0,0,1-2.23,2.1c-.79.67-1.64,1.32-2.5,2a24.25,24.25,0,0,0-4.75,4.64h.28a3.7,3.7,0,0,0-1.45,2.06c-.31.78-.64,1.44-1.31,1.59l.06-.17c-.9.45-.08,2.3-.86,2.41l.14.24c-.45.92-.3,0-.78.59-.13.27.33.32-.1.78-.48-.19-.75.37-1,.93s-.51,1.12-1,.89c.27-.51-.8.58-.42-.66-.28.26-1,1.84-.53,1.92.41.36.51,1.15,1.34.4l-.25-.35c.5-.14.3-.15.6-.13.68-1.17,1.22-1.08,1.89-1.8,0,0,0,0,0,0-.07-.78.62-1.43.94-1.84l.28-.07c.53,0,.1-1.73.51-1a38.37,38.37,0,0,1,5.16-7.14c.05-.53,1.59-1.69.73-1.59a4.28,4.28,0,0,0,1.77-.93,12.37,12.37,0,0,0,1.51-1.24.17.17,0,0,1-.08.21c1.71-.5.94-1.84,2.72-2.09-.25-.68,2.26-1.55,2.48-2.69.24,0,.38.09.4.23a61.44,61.44,0,0,1,6.91-4.12c1.41-1.55,4.34-2,5.5-3.54a20.53,20.53,0,0,0,5.27-2.4l-.13.18c2-1.05,4.54-2.35,5.7-3.53,1,.44,1.76-.14,2.76-.34,1.19-1,4-2.28,5.91-3.61.48.18,1.64-1,2-.56,5.35-3.82,12.69-7.05,19.25-9.41l-.07.08c.67-.67,1.3-1.72,1.95-2.48.1,0,.13.09,0,.17,1.09-.65,2.38-.69,3.47-1.34,0,.08,0,.08-.11.25.95-.74,2.39-.7,3.45-1.7l.14.1.7-.58c.06.17.15.43-.3.59,1.23-.58,2.45-1.18,3.67-1.8l1.83-.93.92-.48,1.57-.89,3.07-1.77.75-.43c.12,0,0-.07-.08-.11l-.2-.11-.4-.23-1.58-.9-3-1.71-1.84-1c-4.94-2.64-10.07-5-15.2-7.23h.45l-2.12-.58c0-.08.16-.08.27-.08a25.31,25.31,0,0,0-3.89-1.57c-1.34-.42-2.69-.79-3.94-1.29,0-.08.48-.1.16-.33-2-.19-2.84-1.64-4.11-1a.21.21,0,0,1,.16-.33c-5.39-1.4-10.87-2.94-16.26-4.4-4.73-.18-9.63-2.08-14.52-2.24l.06-.18c-3.13-.24-6.28-.83-9.47-1.4-1.61-.21-3.22-.53-4.85-.65l-2.45-.1a16.55,16.55,0,0,0-2.44,0c-1.35,0-2.48.15-3.6.26s-2.23.42-3.57.61l-.1-.22c-1.1.34-2.22.68-3.38.93s-2.37.36-3.54.67-2.37.54-3.54.9A16.35,16.35,0,0,0,245.9,79l.19-.41a3.62,3.62,0,0,1-1.49.8c-.54.26-.93.5-.64.82l-.86.13a12.66,12.66,0,0,1-4,2.32,12.62,12.62,0,0,0-4.43,2.65l.11-.31a9.79,9.79,0,0,1-2.48,1.78c.09-.1,0-.11.18-.29a15.6,15.6,0,0,0-4.23,3c-1.25,1.26-2.43,2.61-3.7,3.79,0-.18,0-.37,0-.54a15,15,0,0,1-2.12,2.53c-.43.45-.91.9-1.31,1.37s-.77,1-1.08,1.43l-.05-.21-.51,1-.29-.19c-.45.57-.91,1.11-1.29,1.7l-1.09,1.8L215.75,104C215.4,104.56,215.11,105.2,214.77,105.81Z" transform="translate(-21.69 -4.96)"/><path class="cls-1" d="M231,127.61s0,0,0,0S230.93,127.56,231,127.61Z" transform="translate(-21.69 -4.96)"/><path class="cls-1" d="M261.87,156.11l-.24.26C261.71,156.38,261.8,156.2,261.87,156.11Z" transform="translate(-21.69 -4.96)"/><polygon class="cls-3" points="139.85 201.17 139.53 201.26 139.01 201.97 139.85 201.17"/><path class="cls-3" d="M157.15,209.48c.17,0,.14.09.31.06.42-.36.83-.74,1.23-1.13s.79-.78,1.18-1.18C158.41,207.57,158.16,209.33,157.15,209.48Z" transform="translate(-21.69 -4.96)"/><path class="cls-3" d="M156.27,209.8a3.19,3.19,0,0,0-1.76,1.07C154.82,210.47,156.69,210.1,156.27,209.8Z" transform="translate(-21.69 -4.96)"/><path class="cls-3" d="M57.57,230.29c0-.11.11-.27.15-.38A1.21,1.21,0,0,0,57.57,230.29Z" transform="translate(-21.69 -4.96)"/><path class="cls-3" d="M53.92,259.73l.34.28a32,32,0,0,1-.51-8.64,44.33,44.33,0,0,1,.46-4.46l.3-2.21.39-2.17,0,.41a59.06,59.06,0,0,1,3.26-10.4c.75-1.62,1.43-3.28,2.33-4.82.44-.78.82-1.59,1.3-2.34l1.44-2.25A25.89,25.89,0,0,1,64.8,221c.54-.71,1.06-1.44,1.62-2.13l1.76-2c.3-.33.59-.68.89-1l1-.94L72,212.93l2.08-1.76c1.36-1.23,2.92-2.21,4.41-3.32-.17.16-.18.28-.36.45a7.81,7.81,0,0,1,1.81-1.47c.21,0-.12.24-.33.4A18.24,18.24,0,0,0,82.07,206c.89-.54,1.9-1,2.83-1.54l1.39-.76c.45-.23.9-.41,1.31-.59a10,10,0,0,1,2-.69c.79-.4,1.1-.71.58-.71a57.92,57.92,0,0,1,17.56-3.61,53.5,53.5,0,0,1,18.08,2.21c.53.26.58.42.37.54a27.48,27.48,0,0,1,3.69,1.22,24.06,24.06,0,0,1,3.58,1.64c.58.31,1.19.6,1.75.94l1.66,1.11,1.66,1.12,1.53,1.09a20.27,20.27,0,0,0,6.53,3.17,13.45,13.45,0,0,0,3.51.43,15.29,15.29,0,0,0,3.53-.57c.28-.31-1,0-.17-.44a28.83,28.83,0,0,1-4.09.71,7.18,7.18,0,0,1-3.9-.67l.4-.09c-.91-.36-1-.27-1.2-.21s-.3.1-1.21-.44c-.66-.54.3-.14,0-.33l-1.44-.75-1.41-.88c-.92-.64-1.79-1.29-2.84-2A33,33,0,0,0,134.7,204c-1.06-.53-2.12-1-3.17-1.46a10.37,10.37,0,0,0-2.84-1.53c-1.24-.61-2.65-1-3.42-1.49-.62-.11-1.22-.28-1.74-.39a2.79,2.79,0,0,0-1.22,0,51.33,51.33,0,0,0-25-.23l-3.08.78-3,1a28.78,28.78,0,0,0-3,1.13c-1,.43-2,.76-2.92,1.26a64.33,64.33,0,0,0-10.9,6.58c-2.88,2.77-6.07,5.69-9.11,9.08a45,45,0,0,0-7.63,11.68c-.06,0-.08,0-.08-.05A98.66,98.66,0,0,0,54,240.92l-.28,3.1a53.33,53.33,0,0,0,3.42,32.6,57.79,57.79,0,0,0,21.49,25.26,55.08,55.08,0,0,0,26,8.73l2.25.12a18.66,18.66,0,0,0,2.24,0c1.5-.06,3,0,4.48-.18A51.41,51.41,0,0,0,146,296c0,.09.22,0-.24.43a53.66,53.66,0,0,0,12.39-16.06l.07.06c.8-1.93,1.74-3.82,2.38-5.85l1-3A8.15,8.15,0,0,1,163,269a3.64,3.64,0,0,1,2.3-1.31,12.16,12.16,0,0,1,3,0c2.15.12,4.29.1,6.41.06l2.66,0h.33s0,0,0,.06v1.49l0,.38a40.09,40.09,0,0,1-.89,6.09,57.12,57.12,0,0,1-4.1,11.32A76.07,76.07,0,0,1,153,309.67a79,79,0,0,1-27.48,14.13v-.18a62.1,62.1,0,0,1-23.93,1.65,79.57,79.57,0,0,1-23-6.62,85.31,85.31,0,0,1-20.84-14.48,61.67,61.67,0,0,1-14.54-21c-.76-2.52-1.91-5.08-2.68-7.88-.22-.69-.45-1.39-.68-2.09a19.19,19.19,0,0,1-.64-2.12l-1.07-4.35c-1.2-5.83-1.84-11.82-1-16.7.19-1.25.26-2.51.52-3.74s.49-2.46.73-3.69l.36-1.83.5-1.8,1-3.59c.34-1.19.81-2.34,1.19-3.51l.6-1.76a13.77,13.77,0,0,1,.65-1.72L44.1,225c.25-.57.46-1.15.73-1.7l.85-1.64,1.69-3.29c.6-1.08,1.29-2.1,1.93-3.16l1-1.59.48-.79.55-.75,2.2-3c.38-.49.72-1,1.12-1.49l1.23-1.42,2.46-2.84c.85-.92,1.79-1.76,2.68-2.65l1.36-1.32a14.3,14.3,0,0,1,1.42-1.27l2.85-2a31.36,31.36,0,0,1,2.9-2l3-1.82,1.49-.92,1.55-.82a72.7,72.7,0,0,1,12.89-5.31A63.33,63.33,0,0,1,115.69,183a43.52,43.52,0,0,1,13.13,2.59,113.66,113.66,0,0,1,12.9,5.55l-.2-.35a24.29,24.29,0,0,0,4.69,2.53,14.52,14.52,0,0,1,2.16,1.16,4.21,4.21,0,0,1,1.41,1.37l-.32-.18a5.48,5.48,0,0,0,2.54,1.46c.92.38,1.77.73,2,1.3h.39c1.71,1.39,0,.38,1.21,1.58.49.41.5-.18,1.38.83-.25.47.74,1.37,1.7,2.28s1.82,1.9,1.44,2.33c-.79-.87.91,1.66-1-.13.46.59,2.73,3.36,2.93,2.8.59-.06,1.85.78.77-1.21l-.58-.12c-.19-.82-.22-.56-.18-1a20,20,0,0,1-1.74-2.52,10.67,10.67,0,0,0-1.34-2.09s0,0,0,0a17.68,17.68,0,0,1-3.47-3.08c-.07-.15-.13-.31-.21-.46-.27-.79-3.16-1.47-2-1.49a86,86,0,0,0-8.05-5.22,75.5,75.5,0,0,0-9.13-4.32,23.24,23.24,0,0,1-2.62-.81c-.95-.29-1.61-.45-1,.05a14.11,14.11,0,0,0-3.83-1.83,32,32,0,0,0-4.19-1.15c.08-.05.17-.1.45,0a8.12,8.12,0,0,0-3.85-.78,8.42,8.42,0,0,1-3.71-.7c-.15.16-.6.18-1.23.13s-1.45-.11-2.3-.2a11.56,11.56,0,0,0-4.56.17c-.42-.15-.56-.29-.4-.42a78.9,78.9,0,0,0-18,1.79c-2.08.85-4.68,1.49-7.15,2.34l-1.82.64c-.59.24-1.16.49-1.7.73a13.7,13.7,0,0,0-2.83,1.65,43.19,43.19,0,0,0-11,6.24l.28-.34-3.09,2.36c-.52.42-1.08.79-1.56,1.25l-1.44,1.36c-.94.9-1.83,1.77-2.62,2.58a22.35,22.35,0,0,0-1.85,2.39c-1.57.53-3,2.12-4.5,3.7-.84,1.45-2.47,3.37-3.83,5.73-.71,1.16-1.48,2.35-2.17,3.55s-1.22,2.48-1.73,3.63a6.77,6.77,0,0,0-1.23,2.07c-.37.9-.74,1.74-1,1.75a98.7,98.7,0,0,0-5.37,22.26,83.4,83.4,0,0,0,.7,23.62l-.08-.21a40,40,0,0,0,2.92,5.62c0,.2-.09.21-.2-.19a64.12,64.12,0,0,0,2.46,7.64c-.09,0-.09,0-.33-.36.3.57.53,1.18.78,1.79s.56,1.23.84,1.87a21.13,21.13,0,0,0,2.06,3.84l0,.22,1.22,1.52c-.18.06-.45.14-1-.77L48,295.21l.6.94.68.88,1.37,1.77a71.36,71.36,0,0,0,5.92,6.74c1,1.07,2.22,2,3.33,3l1.69,1.49c.57.48,1.2.91,1.8,1.37,1.21.89,2.41,1.8,3.63,2.68l3.85,2.37a73,73,0,0,0,16.56,7.22l2.16.67c.72.22,1.47.34,2.21.51l4.42,1a85,85,0,0,0,9,1l-.9.13c1.57,0,3.13-.05,4.69-.12,0,.09-.25.15-.47.17,1.49.06,3,0,4.5-.1l2.27-.14,2.24-.37c1.49-.27,3-.5,4.44-.79s2.89-.67,4.29-1.05c0,.09-.81.49,0,.38,1-.38,1.93-.71,2.79-.95l2.33-.64a6.67,6.67,0,0,0,3.34-1.7c.2,0,.42.13,0,.37a92.53,92.53,0,0,0,29.38-20.85A118,118,0,0,0,173,288.25a51.55,51.55,0,0,0,3.38-7.27,33.8,33.8,0,0,0,1.77-7.7l.17.08c.07-.84.21-1.67.22-2.52a25.06,25.06,0,0,0,.06-2.64v-1.37l-1.41,0-2.62.08c-1.7,0-3.42.07-5.13,0s-3.47-.44-5.2.17a4.52,4.52,0,0,0-2.14,1.59,9.8,9.8,0,0,0-1.24,2.35L159,275.89c-.74,1.56-1.49,3.12-2.27,4.65l-1.3,2.23c-.45.73-.83,1.51-1.34,2.2-.83,1.16-1.59,2.22-2.31,3.24l-2.3,2.83a13.83,13.83,0,0,1-1.2,1.34c-.42.44-.84.89-1.28,1.34s-.86.94-1.36,1.37L144,296.44l-.25-.08a37.07,37.07,0,0,1-12.63,8,111.38,111.38,0,0,1-14.67,4.25l.64-.4a15.61,15.61,0,0,1-3.49.62c-1.25.14-2.23.15-1.91.57l-1.8-.19a19.23,19.23,0,0,1-5,.3,30.09,30.09,0,0,1-4.87-.64,24.51,24.51,0,0,1-2.47-.58L95,307.62c-1.73-.56-3.62-.95-5.63-1.59h.58a31,31,0,0,1-3.29-1.1,23,23,0,0,1-2.72-1.35c.24.09.16,0,.67.16-.77-.43-1.5-.94-2.25-1.42L80,300.92c-1.49-1.05-3.1-2-4.57-3.1a46.28,46.28,0,0,1-8.36-7.43l.81.4a31.15,31.15,0,0,1-4.43-5.35c-.8-1.07-1.43-2.28-2.13-3.41s-1.27-2.28-1.84-3.3l.28.18c-.42-.67-.88-1.33-1.27-2l.3-.2A58.1,58.1,0,0,1,53.92,259.73Z" transform="translate(-21.69 -4.96)"/><path class="cls-3" d="M79.58,207.23l-.06,0C79.38,207.37,79.45,207.32,79.58,207.23Z" transform="translate(-21.69 -4.96)"/><path class="cls-3" d="M158.45,200.68c.19.21.34.4.49.59C159,201.18,158.61,200.86,158.45,200.68Z" transform="translate(-21.69 -4.96)"/><polygon class="cls-1" points="192.58 195.43 192.57 195.61 193.01 195.74 192.58 195.43"/><path class="cls-1" d="M216.12,202c0-.09.1-.11.1-.2l-1.46-.68C214.71,201.88,216.16,201.46,216.12,202Z" transform="translate(-21.69 -4.96)"/><path class="cls-1" d="M216.28,202.36c.13.55.59.52.77.55C216.69,202.92,216.57,202,216.28,202.36Z" transform="translate(-21.69 -4.96)"/><path class="cls-1" d="M219.18,242l.17,0A.22.22,0,0,0,219.18,242Z" transform="translate(-21.69 -4.96)"/><path class="cls-1" d="M206.85,243.35l-.13.31c2.31-.56,4.89,0,7.33-.22l-.17.11c1.55,0,3.06,0,4.56,0l2.28-.07c.77-.12,2,.3,1.74-.9.11-1.52.23-3,.35-4.55s.25-3,.37-4.52c0,.1.11.14.13.25a2.39,2.39,0,0,1-.15-1c.08-.07.13.12.15.22.68-1.21.16-3.8.66-4.55,0-.37-.2-.56-.39-.38l.74-7.32c.11-1.25.21-2.49.32-3.73l.06-.93a3.67,3.67,0,0,0,0-.74,4.26,4.26,0,0,0-.46-1.37c0-.18.11-.27.29-.31l-.21-.22-.28-.29-.54-.59c-.36-.4-.7-.8-1-1.22-.66-.83-1.29-1.7-1.89-2.59-1.2-1.78-2.31-3.63-3.44-5.43-.28,0,0,.49-.38.27.53,1.29,1.85,1.78,2.21,3h-.27c.39.82.56-.15.85.78.06.41-.28.07-.2.23a25.52,25.52,0,0,0,3.56,4.52c-.18.61,1.28,1.83.86,2.25.29.24.3.61.62.71a4.87,4.87,0,0,1,0,.94l-.19,1.25c-.12.84-.23,1.68-.34,2.52-.22,1.69-.41,3.38-.59,5.08-.37,3.41-.71,6.84-1.17,10.25a16,16,0,0,1-.4,5.23,5.84,5.84,0,0,1-.46,1.74,5.38,5.38,0,0,0-.68,0h-.6l-.72,0s0-.06,0-.09a20.33,20.33,0,0,1-4.55.21l-1.27.37c-2.24-.2-4.49-.31-6.75-.38-1.15,0-2.22-.06-3.45-.06a14.08,14.08,0,0,0-9.83,4.23c-.43.42-.85.86-1.24,1.3a7.08,7.08,0,0,1-1.12,1,4.8,4.8,0,0,1-2.56,1c-10.35.28-19.45.08-29.46,1.75,0-.08-.07-.13.19-.18-2.9.33-5.57.13-8.3.45v-.09c-6.76,1.08-14.14.6-20.65,1.71-4,.16-8.24.37-12.54.62l-6.47.4-3.16.22a9.7,9.7,0,0,1-1.53,0,10.74,10.74,0,0,1-1.5-.46l.37-.13c-.09,0-.24,0-.27-.11l-.11-.26-.23-.53-.11-.28-.05-.13s0,0,0-.07l.06,0,.5-.25c.68-.33,1.39-.67,2.09-1l2.22-1,2.29-1c3.07-1.3,6.13-2.58,9.11-4.16,6.44-2.63,12.43-7.08,19-9.6,4.28-1.08,8.6-5.22,12.66-6.16,8.13-2.37,15.06-6.66,22.24-11,7.16-2.88,13.56-7.32,20.72-9.64,2.92-2.1,7.05-2.5,10.52-4.36l-.22-.14c1.57,0,2.44-2.21,3.66-1.69l-.11.11c.89.13,1-1.82,1.72-1.48v-.28c.79-.45.22.21.89,0,.23-.14-.1-.45.45-.56.55.87,1.91-1.15,2.46-.15-.45.22.89.07,0,.77.34,0,1.68-.74,1.35-1.12-.11-.52.23-1.18-.77-1.15v.42c-.44-.2-.29-.07-.51-.27-1.11.47-1.49.05-2.37.22,0,0,0,0,0,0-.34.66-1.19.77-1.64.92l-.26-.11c-.44-.28-.86,1.36-.86.53-2.13,1.22-4.66,2.42-7.13,3.61-.22.42-1.9.88-1.12,1.12-.89-.27-2.8.46-3.47.81a.14.14,0,0,1,.12-.17c-1.68-.1-1.25,1.43-2.92,1.13.11.72-2.35.87-2.69,2-.22-.07-.33-.17-.33-.31-2.24,1-4.82,2-6.72,2.88-1.35,1.33-4,1.61-5.05,3a15.87,15.87,0,0,0-4.7,2l.11-.17a21.37,21.37,0,0,0-5.05,3.11c-.88-.48-1.6,0-2.49.18-1,.92-3.54,2-5.24,3.18-.44-.21-1.45.87-1.78.42-4.72,3.43-11.27,6.15-17.13,8.07l.06-.08c-.59.62-1.13,1.61-1.69,2.31-.09,0-.12-.1,0-.17-1,.58-2.14.54-3.1,1.12,0-.09,0-.09.09-.25-.84.67-2.14.54-3.07,1.46l-.13-.1-.62.52c-.06-.17-.15-.43.25-.56-8.73,4-17.26,9.1-26.21,13.22l.25-.31-1.59,1.11c0-.09,0-.17.1-.25-.29.1-.58.21-.86.33l-.54.23-.64.31-1.26.63-.61.31-.31.32-.61.61-.32.29-.16.15c0,.08.06.17.09.26l.37,1c.06.16.1.35.17.49l.31.27c-.11,0-.53-.14-.42.14a6.07,6.07,0,0,0,1.4.64c.44.18.75.32,1.11.43a2.65,2.65,0,0,0,2.37-.38c.11,0,.2.26-.09.36l2-.21,1.84-.17c1.24-.1,2.47-.19,3.71-.25,2.48-.14,5-.22,7.42-.25,4.05-1.13,8.67-.52,12.88-1.46v.19c5.47-.92,11.35-.51,17-.92,2.37,0,4-.34,6.34-.47l.07.23c4-1.07,8.46.38,12.59-.79l-.27.32c.62-.51,2.54,0,2.25-.77l.75.22c2.78-1.24,5.2.25,8.64-.63l-.22.21a7.62,7.62,0,0,1,2.69-.23c-.11,0-.06.09-.27.16a9.83,9.83,0,0,0,2.24.2,4.35,4.35,0,0,0,2.37-.7,8.52,8.52,0,0,0,1.86-1.56c.54-.6,1-1.24,1.53-1.76l0,.5a6.11,6.11,0,0,1,2-2,23.58,23.58,0,0,1,2.78-1.53l0,.2c.27-.18.53-.38.82-.55l.13.33a19.33,19.33,0,0,1,3.51-.71C204.38,243.44,205.63,243.37,206.85,243.35Z" transform="translate(-21.69 -4.96)"/><path class="cls-1" d="M223.31,233l0,0C223.31,233.1,223.31,233.06,223.31,233Z" transform="translate(-21.69 -4.96)"/><path class="cls-1" d="M212.19,199.3a1.25,1.25,0,0,1,.31-.07C212.45,199.17,212.29,199.27,212.19,199.3Z" transform="translate(-21.69 -4.96)"/><polygon class="cls-3" points="109.89 215.69 109.71 215.66 109.48 216.09 109.89 215.69"/><path class="cls-3" d="M129.52,222.36c.09,0,.1.11.19.13l1-1.42C129.9,220.94,130.07,222.45,129.52,222.36Z" transform="translate(-21.69 -4.96)"/><path class="cls-3" d="M129.08,222.48c-.62.08-.66.54-.73.72C128.4,222.83,129.38,222.81,129.08,222.48Z" transform="translate(-21.69 -4.96)"/><path class="cls-3" d="M88,252.31a1.34,1.34,0,0,0,0-.2A.26.26,0,0,0,88,252.31Z" transform="translate(-21.69 -4.96)"/><path class="cls-3" d="M93.73,264.65l.32-.11a7.94,7.94,0,0,1-2.48-3,29.52,29.52,0,0,1-1.54-3.7l.15.14a17.63,17.63,0,0,1-.12-9.58,16.25,16.25,0,0,1,5.4-8.1c-.07.09,0,.18-.1.28a2.82,2.82,0,0,1,.67-.87c.12,0,0,.18-.07.28a5.37,5.37,0,0,0,1.16-.57c.39-.26.8-.55,1.22-.82a5.24,5.24,0,0,1,2.08-1.06c.34-.22.4-.49.13-.55,4.7-2.4,9.74-4.93,14.41-7.62.26-.05.37.06.38.25,3.77-2.74,8.26-4.52,12.56-6.43.06-.28-.54,0-.22-.42-1.48.41-2.26,1.69-3.67,1.92l.07-.27c-1,.31,0,.58-1,.77-.45,0,0-.29-.21-.22-1.87,1-4,1.78-5.52,3.11-.65-.2-2.06,1-3,.91-.42.4-.93.6-1,1-3.39,1.49-6.75,3.16-10.12,4.86-1.69.86-3.35,1.68-5.07,2.59a22.26,22.26,0,0,0-4.89,3.49c-1,1.63-2.34,3.17-3.42,5A12.78,12.78,0,0,0,88,252.32s-.06,0-.09,0c.14,1.49.42,3.56.75,5.26.26.44.47.87.76,1.28a16,16,0,0,0,1.39,3.6,16.52,16.52,0,0,0,2.27,3.19,16.06,16.06,0,0,0,6.59,4.29,16.66,16.66,0,0,0,3.88.88,22.08,22.08,0,0,0,3.89.05c2.51-.11,5-.2,7.53-.24,5.71-.15,11.06-.19,16.37-.39,2.66-.11,5.31-.24,8-.51l2-.21,1-.11.45-.06.22,0,1.09-.22c.07,0,0,0,.05.06v.9c-.09,0-.16.05-.16-.09a2.6,2.6,0,0,1-.15.65c-.13.35-.25.71-.37,1.05a17.25,17.25,0,0,1-.94,2c-.31.65-.73,1.25-1.1,1.87l-.56.93c-.21.3-.41.6-.61.91l-.07-.06a28.25,28.25,0,0,1-7.67,8.18,75.2,75.2,0,0,1-9.47,5.87,37.71,37.71,0,0,1-6.42,2c-.56.12-1.13.18-1.7.28a16.48,16.48,0,0,1-1.72.21c-1.17.06-2.34.22-3.51.2a44.51,44.51,0,0,1-13.95-1.92l.08-.17A28.91,28.91,0,0,1,86.1,287a57.33,57.33,0,0,1-7.88-7.47A61.88,61.88,0,0,1,72,269.77a28,28,0,0,1-3.12-11.21,14.35,14.35,0,0,0,0-1.86c0-.63,0-1.28,0-1.93-.1-1.32-.11-2.68-.15-4.05a17.31,17.31,0,0,1,.07-2c0-.67.09-1.34.19-2a12.52,12.52,0,0,1,1.09-3.49,84.85,84.85,0,0,1,6.45-11.87,47.18,47.18,0,0,1,9-10.17A57.59,57.59,0,0,1,97,215.54a27,27,0,0,1,12.44-1.42,9.51,9.51,0,0,1,3,0,17.7,17.7,0,0,1,3,.71c1,.34,2,.63,3,1s2,.69,3,1.06l-.07-.26a3.83,3.83,0,0,0,2.3.77c.79.16,1.51.33,1.73,1l-.17,0c.26.4.82.33,1.35.27s1-.07,1.06.31l.24-.15c.91.44,0,.31.58.78.27.12.33-.33.79.09-.41.88,2.16,1.19,1.57,2.17-.44-.31.43.84-.69.35.21.29,1.57,1.17,1.75.7.42-.32,1.23-.3.64-1.22l-.39.19c-.06-.5-.1-.3,0-.6-1.07-.81-.92-1.37-1.6-2.12,0,0,0,0,0,0a3.14,3.14,0,0,1-1.9-1l-.09-.29c-.07-.55-1.75,0-1-.48a57.67,57.67,0,0,0-8.53-3.14,4.37,4.37,0,0,1-1.26-.17c-.45-.07-.77-.07-.5.26-.62-.75-2.88-1.4-3.76-1.41a.18.18,0,0,1,.22-.08c-1.6-1-2,.48-3.55-.53-.13.35-.84.27-1.64.2a2.88,2.88,0,0,0-2.1.43c-.2-.15-.27-.28-.21-.41-1.43,0-2.91.21-4.35.32a38,38,0,0,0-4,.71,13.89,13.89,0,0,1-3.27,1.24,6.51,6.51,0,0,0-2.88,1.56c-.69.24-1.6.54-2.56.93a11.73,11.73,0,0,0-2.67,1.67l.12-.19c-1.94,1.24-4.21,3-5,4.48a1.87,1.87,0,0,0-1.36.29c-.39.25-.76.58-1.21.84-.42.68-1.22,1.53-2,2.56l-1.17,1.53c-.35.55-.67,1.1-.94,1.62-.52.07-1,1.65-1.49,1.47-1.36,3.05-2.74,6.39-4,9.87a60.06,60.06,0,0,0-2.7,10.63l0-.1A16.84,16.84,0,0,0,68,255c-.05.09-.14.08-.14-.11a8.24,8.24,0,0,1-.13,1.85,7.64,7.64,0,0,0,0,1.85c-.09,0-.09,0-.2-.2a6.63,6.63,0,0,1,.13,1.85,4.66,4.66,0,0,0,.42,2l-.13.11.36.83c-.18,0-.45,0-.48-.44a37.24,37.24,0,0,0,6.76,15.06A44.69,44.69,0,0,0,86.85,289l-.44-.08a20.76,20.76,0,0,0,2,.86c-.06.07-.17.06-.28.05a15.24,15.24,0,0,0,3.71,1.88l2,.71c.66.19,1.31.39,1.93.62,0,.08-.48.12-.15.33a4.92,4.92,0,0,1,1.32.31,10.86,10.86,0,0,1,1,.4,1.74,1.74,0,0,0,1.76,0,.2.2,0,0,1-.13.34,58.11,58.11,0,0,0,16.66.32c1.11-.42,2.22-.85,3.37-1.21s2.3-.76,3.41-1.26l1.7-.7c.55-.27,1.09-.55,1.63-.84a17.08,17.08,0,0,0,3-2l.08.17c2.43-1.88,4.92-3.75,7.29-5.87a29.94,29.94,0,0,0,6.1-7.3l.51-.81.39-.8c.24-.53.47-1,.68-1.55s.34-1.06.51-1.61a15.62,15.62,0,0,0,.49-1.91l.28-.19c0-.3,0-.57.05-.85l0-.2v-.05h-.2l-.5.07c-.65.07-1.25.11-1.86.14-1.21.05-2.33,0-3.52,0a26.44,26.44,0,0,0-7,.48l.3-.33c-.69.52-2.79,0-2.48.78l-.82-.21c-3.08,1.24-5.72-.24-9.52.65l.25-.21a9,9,0,0,1-3,.23c.11,0,.06-.09.3-.15-3.22-.63-6.74.4-10.11.53l.37-.39a9.49,9.49,0,0,1-3.16.27,31.45,31.45,0,0,1-3.47-.5l.17-.14c-.36,0-.74,0-1.09-.05l.08-.34A16.42,16.42,0,0,1,93.73,264.65Z" transform="translate(-21.69 -4.96)"/><path class="cls-3" d="M96,240h0C95.88,240.1,95.91,240.07,96,240Z" transform="translate(-21.69 -4.96)"/><path class="cls-3" d="M130.28,219a1.63,1.63,0,0,1,.27.25C130.57,219.13,130.38,219,130.28,219Z" transform="translate(-21.69 -4.96)"/><polygon class="cls-1" points="252.46 193.82 252.36 193.93 252.67 194.15 252.46 193.82"/><path class="cls-1" d="M274.93,200.27c.05-.05.14,0,.19-.09-.3-.26-.61-.52-.92-.81C273.76,199.83,275.23,200,274.93,200.27Z" transform="translate(-21.69 -4.96)"/><path class="cls-1" d="M274.87,200.52c-.17.32.23.4.37.47C274.93,200.91,275.29,200.42,274.87,200.52Z" transform="translate(-21.69 -4.96)"/><path class="cls-1" d="M290.75,224l-.08-.07C290.69,223.94,290.72,224,290.75,224Z" transform="translate(-21.69 -4.96)"/><path class="cls-1" d="M295.21,230.15h.32a9.23,9.23,0,0,1-.93-2.13,6.67,6.67,0,0,0-1-2.16l.14,0a17.75,17.75,0,0,0-8.12-7.73c.07,0,.13-.07.2-.07-.21,0-.49.07-.65-.07,0-.08.13-.09.2-.08-.41-.91-2.24-.91-2.45-1.56-.22-.08-.43,0-.41.26a17.62,17.62,0,0,1-6.77-7c0-.18.13-.25.32-.27a7.62,7.62,0,0,1-1.39-4.11,13.21,13.21,0,0,1,.06-2.18c0-.36.11-.71.16-1.06l.08-.53c0-.14,0-.23.05-.36-.22-.07-.24.18-.46,0a.68.68,0,0,0-.08.44c0,.22.06.43.09.64a1.83,1.83,0,0,1-.06,1.24l-.21-.12c-.15.62.54.14.24.77-.18.25-.27-.06-.29.06.1,1.31.06,2.78.86,3.89-.37.42.36,1.39.16,2,.3.26.4.61.74.59a11.7,11.7,0,0,0,1.84,3,15.93,15.93,0,0,0,2.55,2.38c1.84,1.4,4,2.31,5.63,3.42a2.9,2.9,0,0,1,1.42.63,6.9,6.9,0,0,1,1.21,1.09c.67.92,1.39,1.8,2.13,2.67a.14.14,0,0,1-.08.05,6.29,6.29,0,0,1,1,.92,6.62,6.62,0,0,1,.68,1.25l.71.49a30.41,30.41,0,0,1,1.57,8,16.46,16.46,0,0,1-1.48,8,20,20,0,0,1-5.32,6.86,36.8,36.8,0,0,1-7.18,4.88c0-.08-.08-.11.06-.2a18.44,18.44,0,0,1-4.88.93V255a11.49,11.49,0,0,1-6.21-.5,36.44,36.44,0,0,1-5.62-2.71c-.94-.78-1.86-1.75-2.89-2.58a32.88,32.88,0,0,0-3.24-2.42,22.07,22.07,0,0,0-7.49-3.18l.06-.17a45.18,45.18,0,0,0-6.32-.74,14.06,14.06,0,0,0-1.59,0l-.8,0-.59.06c-1,.49-.84-.8-1.19-1.47-.25-2-1-4.22-1.35-6.41a15.87,15.87,0,0,1-.12-6.65,13.78,13.78,0,0,0,.74-4.42,18.06,18.06,0,0,1,.39-2.28,5.36,5.36,0,0,1,1-1.87c1.65-2.15,3-4.24,4.38-6.39a71.78,71.78,0,0,1,4.4-6.47c2-1.46,3.81-3.05,5.86-4.37a15,15,0,0,1,6.72-2.56,4.79,4.79,0,0,1,1.62-.6,13.3,13.3,0,0,1,1.8-.1,19.55,19.55,0,0,0,3.67,0L269,199c.91.56,1.92-1,2.51-.09l-.09,0c.47.47,1.07-1.2,1.37-.6l.08-.25c.57-.07.06.28.5.38.17,0,.07-.45.42-.31,0,1,1.41-.15,1.39,1-.31,0,.45.47-.24.68.18.13,1.11.11,1.07-.38.12-.5.52-.93,0-1.37l-.14.37c-.17-.38-.14-.19-.19-.48-.77-.09-.84-.64-1.39-.89,0,0,0,0,0,0-.4.42-.92.17-1.22.1l-.12-.21c-.19-.44-.89.85-.65.1-1.59.19-3.41.3-5.17.55-.21.32-1.35.18-.88.66-.54-.57-1.88-.45-2.36-.31,0-.07,0-.14.09-.13-1.15-.6-.92,1-2.06.28,0,.36-.38.4-.83.51s-.94.25-1,.72a.48.48,0,0,1-.24-.36c-.78.24-1.59.56-2.39.81s-1.54.59-2.17.89a4,4,0,0,1-1.65,1.19c-.6.35-1.18.72-1.35,1.35a5.9,5.9,0,0,0-2.77,1.92l0-.15a7.5,7.5,0,0,0-2.36,3.1c-.85-.28-1.12.26-1.7.51-.29.92-1.53,2.19-2,3.5-.43-.05-.52,1-1,.73-1.23,3.71-3.49,7.56-5.12,11.41l0-.07a11.81,11.81,0,0,0,1,1.89c-.05,0-.14,0-.12-.09,0,.72-.68,1.31-.64,2-.09,0-.09,0-.17-.15.19.7-.57,1.38-.19,2.21l-.15,0,.19.52c-.18,0-.45,0-.38-.32a29,29,0,0,0,1.07,9.43l.32,1.15.17.59.24.8.48,1.55.23.77,0,.09.11,0,.22,0,.44-.09,1.72-.35c.46-.08.76-.11,1.16-.16a16.53,16.53,0,0,1,2.22-.13l-.21.18c.38-.12.76-.19,1.15-.29a.27.27,0,0,1-.12.18c1.42.35,3,0,4.36.51,0,.09-.28.2-.11.35a1.46,1.46,0,0,1,1.23.37.68.68,0,0,0,1-.07c0,.07,0,.3-.15.33A18.34,18.34,0,0,1,260,250a11.05,11.05,0,0,1,3.33,2.28,8.33,8.33,0,0,0,3.65,2.06l-.09.16c1.73.49,3.4,1.06,5.19,1.45a15.19,15.19,0,0,0,5.46.22,10.29,10.29,0,0,0,1.05-.14c.33-.08.63-.17.93-.26.62-.17,1.2-.42,1.92-.65l.11.2a6.78,6.78,0,0,1,1.73-.94c.61-.26,1.25-.48,1.89-.72a6,6,0,0,0,3.26-2.41l.06.36c0-.65,1.33-1,.65-1.46l.52-.12a3.53,3.53,0,0,1,1.54-2.08,4.58,4.58,0,0,0,1.67-2.32l.08.22a3.54,3.54,0,0,1,.71-1.55c0,.08.06.07,0,.22a3.36,3.36,0,0,0,.91-1.15,8.36,8.36,0,0,0,.44-1.42c.28-1,.2-2,.45-2.94l.31.29a7.52,7.52,0,0,1,.05-1.87,5.77,5.77,0,0,0,.08-2.06l.18.08-.26-.63.35,0a9.71,9.71,0,0,0-.08-1.21l-.27-1.16-.28-1.13C295.45,230.89,295.32,230.53,295.21,230.15Z" transform="translate(-21.69 -4.96)"/><path class="cls-1" d="M285.41,218h0C285.47,218,285.45,218,285.41,218Z" transform="translate(-21.69 -4.96)"/><path class="cls-1" d="M274,197l.2.08C274.22,197,274.1,197,274,197Z" transform="translate(-21.69 -4.96)"/><polygon class="cls-1" points="92.74 83.66 92.83 83.79 93.19 83.58 92.74 83.66"/><path class="cls-1" d="M116.47,88.41c0-.06,0-.15,0-.21-.42.2-.85.4-1.29.59C115.55,89.37,116.22,88,116.47,88.41Z" transform="translate(-21.69 -4.96)"/><path class="cls-1" d="M116.78,88.55c.38.28.63-.08.75-.19C117.33,88.63,116.76,88.12,116.78,88.55Z" transform="translate(-21.69 -4.96)"/><path class="cls-1" d="M150,103.72l-.13,0C150,103.73,150,103.74,150,103.72Z" transform="translate(-21.69 -4.96)"/><path class="cls-1" d="M159.58,105.78l.2-.26c-1.89,0-3.61-1.28-5.48-1.68l.16-.06c-4.48-1.8-8.78-3-13.25-4.83.08,0,.15-.07.23-.07a1.49,1.49,0,0,1-.79-.07c0-.09.12-.1.21-.09-.68-.92-2.82-1-3.21-1.66-.28-.07-.49.07-.42.28-1.71-.8-3.46-1.66-5.23-2.53s-3.54-1.73-5.27-2.61a.28.28,0,0,1,.07-.42,16.55,16.55,0,0,1-2.35-1l-1-.51c-.32-.15-.66-.3-1-.43a35.51,35.51,0,0,0-4.62-1.3c-.17.2.29.3-.07.46,1,.47,2-.18,2.82.43l-.16.18c.6.29.27-.5.85-.06.21.25-.14.25,0,.3a9,9,0,0,1,1.85.65l.87.39a5.92,5.92,0,0,0,1.08.35c0,.58,1.38.88,1.63,1.56.43,0,.74.3,1,.11,4.45,3,9.49,5.11,14.42,7.41,2.68.25,5,2.43,8,3.28a.09.09,0,0,1,0,.08,12.49,12.49,0,0,1,3.43,1.09h1.07c6.37,3.16,13.47,4.73,20.32,6.83,3.92,1.13,7.6,2.2,11.29,3.05,1.86.41,3.71.8,5.61,1.06.94.14,1.9.26,2.87.35.51.06.91.08,1.35.15a13.59,13.59,0,0,1,1.35.29c0,.07,0,.14-.2.1,2,.7,3.49,2.17,5.09,3.45l-.07,0a34.43,34.43,0,0,1,5.74,5.65c.89,1,1.77,2.06,2.68,3.05l.34.36.25.25.54.52c.38.35.82.74,1.36,1.2,0,0,0,0-.05,0l-4.26.84-4.91,1c-3.3.7-6.64,1.47-9.85,2.31l0-.18a37.66,37.66,0,0,1-7.67,1.54,41.22,41.22,0,0,1-7.69-.31,49.07,49.07,0,0,1-7.79-2.4,20.43,20.43,0,0,1-6.92-4.59c-2-2.87-6.64-4.31-8.5-7-4.15-5.25-9.62-8.61-15.21-12.12-4.36-4.2-9.83-7-13.73-11.5-2.55-1.26-4-4.3-6.52-6.11l-.05.24c-.43-1.23-2.52-.83-2.4-2.06l.12,0c-.11-.77-1.78,0-1.66-.69l-.23.12c-.58-.42.12-.27-.22-.71-.19-.13-.33.32-.62-.14.33-.39,0-.61-.37-.89l-.14-.11-.06,0a.19.19,0,0,1,0-.07,1.15,1.15,0,0,1,.14-.27.84.84,0,0,1,.63-.3c-.06.15.11,0,.28,0s.36-.07.41.14a.49.49,0,0,0-.16-.82c-.46-.25-.71-.89-1.35-.28a2.51,2.51,0,0,0,.31.26c-.47.18-.26.16-.58.22a4.11,4.11,0,0,1-.82,1.25,1.53,1.53,0,0,0-.21.27c0,.07,0,.15.07.23a2,2,0,0,0,.32.58s0,0,0,0a2.79,2.79,0,0,1,1.16.7,5.55,5.55,0,0,1,.44.57l0,.26c-.11.49,1.37.08.66.46l2.44,1.86c.82.67,1.67,1.35,2.51,2,.41,0,1.25,1.07,1.24.34,0,.83,1.15,2,1.63,2.32-.06,0-.12.07-.18,0,.38,1.36,1.53.28,1.74,1.73.57-.44,1.37,1.41,2.37,1.16a.43.43,0,0,1-.17.41c1.5,1.23,3,2.78,4.25,3.85,1.48.4,2.45,2.36,3.93,2.46a9.85,9.85,0,0,0,3,2.68h-.17a13.3,13.3,0,0,0,4,2.44c-.16.92.47,1.23.83,1.86,1,.37,2.62,1.8,4.08,2.56,0,.45,1.12.72.83,1.19,4.14,2,8.17,5.88,11.31,9.58h-.07c.66.17,1.64.12,2.37.24,0,.08,0,.14-.14.05.73.49,1,1.43,1.74,1.92-.07.07-.07.07-.23,0,.76.34,1.05,1.45,2.09,1.74l0,.14.63.22c-.12.14-.3.34-.54.09a26.66,26.66,0,0,0,10.7,5.2,31.78,31.78,0,0,0,12,.19l-.26.21c.49-.17,1-.36,1.46-.58,0,.09-.06.15-.12.2a10.65,10.65,0,0,0,2.85-.63,21.72,21.72,0,0,1,2.74-.79c0,.09-.23.32,0,.36,1.23-.78,2.28.15,2.74-1a.26.26,0,0,1,0,.36,81.45,81.45,0,0,1,11.34-2.47,9.11,9.11,0,0,1,1.24-.54c.21-.08.41-.15.65-.22l.86-.23c1.12-.3,2.28-.52,3.42-.77-.67-.76-1.36-1.53-2.06-2.27-.35-.36-.73-.74-1-1s-.59-.51-.9-.75l.15-.1c-3.34-2.82-5.73-6.83-9.3-9.7a14.43,14.43,0,0,0-4.41-2.44l0-.23c-.83-.09-1.64-.22-2.44-.38s-1.59-.44-2.39-.69a13,13,0,0,0-4.92-.89l.29-.26c-.6.37-1.9-.58-1.89.27l-.51-.37c-2.42.58-3.85-1.38-6.66-1.34l.22-.15a4.61,4.61,0,0,1-2.07-.4c.09,0,.06-.08.24-.09-2-1.32-4.67-1.1-7-1.79l.36-.28c-1.23.1-3.17-.86-4.68-1.12l.14-.14h-.81l.08-.34C163.29,106.66,161.44,106.34,159.58,105.78Z" transform="translate(-21.69 -4.96)"/><path class="cls-1" d="M140.86,98.72l0,0C140.94,98.73,140.92,98.72,140.86,98.72Z" transform="translate(-21.69 -4.96)"/><path class="cls-1" d="M113.62,89.9a3.08,3.08,0,0,1-.26-.33C113.31,89.63,113.53,89.8,113.62,89.9Z" transform="translate(-21.69 -4.96)"/><polygon class="cls-1" points="257.5 176.75 257.36 176.65 257.01 176.94 257.5 176.75"/><path class="cls-1" d="M276.89,182.37c.06,0,0,.14.1.2l1.35-.84C277.73,181.25,277.28,182.69,276.89,182.37Z" transform="translate(-21.69 -4.96)"/><path class="cls-1" d="M276.49,182.29a.69.69,0,0,0-.86.33C275.81,182.31,276.6,182.71,276.49,182.29Z" transform="translate(-21.69 -4.96)"/><path class="cls-1" d="M280.36,155.84l-.09.14C280.34,155.92,280.36,155.88,280.36,155.84Z" transform="translate(-21.69 -4.96)"/><path class="cls-1" d="M288.53,147.18l0-.34c-1.65,1.63-4,2.71-5.63,4.5l0-.2c-4.61,4-7.59,8.87-10.25,14.16,0-.1,0-.17,0-.27a2.33,2.33,0,0,1-.2.94c-.11,0-.09-.15-.07-.25-1.07.85-1.44,3.41-2.14,3.93-.11.34,0,.58.25.48-1,2.11-1.94,4.31-2.88,6.55a49,49,0,0,0-2.12,5.45,2.28,2.28,0,0,1-.61.36v.2s.09,0,.13,0l.54-.12.79-.17.32-.06.78,0,1.57,0c2.09,0,4.2.11,6.27.18.16-.22-.42-.23,0-.46-1.34-.28-2.45.54-3.66.14l.15-.22c-.88-.14-.17.54-1.09.27-.36-.18.09-.28-.08-.29-.93,0-1.89,0-2.83,0l-.71,0-.35,0c-.14,0-.08,0-.13,0l-.5.27c.12-.23,0-.23-.08-.24s-.09,0-.06,0a.61.61,0,0,1,.07-.1,1,1,0,0,1,.33-.22c-.23,0-.1-.1-.42-.16l.13-.21.06-.11,0-.05.07-.13.55-1.11c.35-.75.71-1.5,1.07-2.25q1-2.25,2-4.53a82.92,82.92,0,0,1,4.46-8.89c.8-3.16,3.8-5.63,6-8.5,0,0,.07,0,.07.06a13.41,13.41,0,0,1,2.9-3.24c.2-.37.42-.74.64-1.09a52.3,52.3,0,0,1,5.43-3.51c.92-.52,1.9-1,2.89-1.49l3-1.52c3.94-2,7.87-4.1,11.91-6,9.1-4.34,17.3-7.65,25.6-13,0,.09.12.1-.09.24,2.47-1.41,4.93-2.24,7.25-3.58l0,.08c5.64-3.56,12.45-5.92,17.85-9.42,1.76-.82,3.56-1.74,5.41-2.55a13.51,13.51,0,0,1,5.89-1.31,12.92,12.92,0,0,1,5.79,2c.83.49,1.63,1,2.45,1.59l.31.21s.15.08.12.11l-.16.08-.63.31-1.29.65-.14-.13c-.59.33-1.35.71-2.08,1.07s-1.48.69-2.22,1c-1.49.66-3,1.28-4.49,1.9a88.44,88.44,0,0,0-8.82,4.16c-6.22,2.67-12,7.14-18.3,9.7-4.17,1.11-8.27,5.26-12.22,6.22a59.25,59.25,0,0,0-11.1,4.83,75.74,75.74,0,0,0-10.18,6.53,39.18,39.18,0,0,0-8.78,6.82c-2.63,2.61-5,5.36-7.56,8-1.52,3.09-4.75,5.54-6.38,9.09l.26,0a3,3,0,0,0-.89,2c-.13.72-.25,1.36-.88,1.54l0-.15c-.77.47.38,2-.32,2.19l.18.21c-.27.84-.3,0-.65.57-.07.25.38.26.05.7-.5-.14-.65.39-.82.89s-.42,1-.94.74c.22-.42-.74.44-.45-.61-.23.19-.91,1.57-.4,1.67.4.35.54,1.06,1.3.45l-.25-.33c.47-.09.27-.12.57-.08.59-1,1.19-.9,1.76-1.72,0,0,0,0,0,0-.2-.69.35-1.31.58-1.7l.26-.09c.5-.07-.28-1.55.27-.92a44.21,44.21,0,0,1,3.25-6.91c-.09-.48,1-1.72.26-1.51.9-.24,2-1.82,2.43-2.41,0,.06.07.12,0,.2,1.46-.68.28-1.82,1.88-2.28-.44-.59,1.58-1.76,1.43-2.83.22,0,.37,0,.43.15a53.25,53.25,0,0,1,4.88-4.87,7.56,7.56,0,0,1,2-2.08,4.94,4.94,0,0,0,1.83-2,18.65,18.65,0,0,0,4.05-2.69l-.07.18c.76-.57,1.66-1.15,2.47-1.73a12.63,12.63,0,0,0,2-1.72c.89.45,1.5-.09,2.4-.23,1-.92,3.4-2,5-3.2.45.2,1.4-.88,1.74-.44,4.51-3.44,10.85-6.2,16.53-8.15l-.05.07c.55-.61,1.05-1.6,1.58-2.3.09,0,.12.09,0,.16.93-.57,2.08-.55,3-1.13,0,.09,0,.09-.09.24.8-.67,2.08-.55,3-1.47l.13.1.59-.52c.06.17.16.43-.23.56,4.21-2,8.37-4.31,12.56-6.62l6.3-3.46,3.19-1.67c1.08-.54,2.17-1,3.26-1.53l-.25.31,1.55-1.07c0,.09,0,.17-.09.24a18.79,18.79,0,0,0,3.26-1.49,38.22,38.22,0,0,1,3.6-1.85c.09,0-.26.41.3.26a8.35,8.35,0,0,1,1.48-.85c.5-.22,1-.41,1.53-.6l.36-.15s-.12-.12-.18-.18a3.51,3.51,0,0,0-.53-.36,4.93,4.93,0,0,0-1.49-.57c0-.07.23-.18.57,0l-2.38-1.54a20.31,20.31,0,0,0-1.91-1.06,16.16,16.16,0,0,0-3.62-1.35,11.37,11.37,0,0,0-3.94-.17,17.71,17.71,0,0,0-3.71,1,38.28,38.28,0,0,1-5.51,3.12,35.77,35.77,0,0,0-5.57,3.07l-.07-.17c-4.54,2.92-10,4.78-14.92,7.33-2.11.94-3.41,1.82-5.5,2.85l-.15-.18c-3.12,2.5-7.72,2.9-11,5.57l.11-.4c-.35.72-2.29.94-1.7,1.58l-.76.09c-2,2.21-4.74,1.79-7.46,4l.11-.28a7,7,0,0,1-2.3,1.26c.08-.07,0-.1.18-.25-2.88.58-5.3,2.76-8,4.09l.14-.48c-1.09,1-3.63,1.89-5.22,2.93l0-.2-.74.65-.18-.3c-1.1.56-2.13,1.17-3.15,1.79S289.55,146.52,288.53,147.18Z" transform="translate(-21.69 -4.96)"/><path class="cls-1" d="M272.34,165.72l0,0C272.37,165.62,272.36,165.65,272.34,165.72Z" transform="translate(-21.69 -4.96)"/><path class="cls-1" d="M282.07,181.34a1.24,1.24,0,0,1-.18.25C282,181.6,282,181.43,282.07,181.34Z" transform="translate(-21.69 -4.96)"/><polygon class="cls-1" points="214.54 194.01 214.59 193.9 214.24 193.9 214.54 194.01"/><path class="cls-1" d="M235,198.3c0,.06-.11.1-.13.16l1.11.14C236.17,198.06,234.84,198.66,235,198.3Z" transform="translate(-21.69 -4.96)"/><path class="cls-1" d="M234.93,198.08c0-.35-.39-.23-.54-.21C234.7,197.78,234.61,198.37,234.93,198.08Z" transform="translate(-21.69 -4.96)"/><path class="cls-1" d="M220.64,177.33l.07.06A.07.07,0,0,0,220.64,177.33Z" transform="translate(-21.69 -4.96)"/><path class="cls-1" d="M215.85,172.64l-.3.12c1.15.7,1.45,2.17,2.38,3.11l-.14,0a83.66,83.66,0,0,0,5.91,7.58s-.14,0-.2,0c.18.06.44.1.52.26s-.15,0-.21,0c0,.86,1.41,1.49,1.32,2.07a.29.29,0,0,0,.46-.1,75.24,75.24,0,0,0,5,6.17c0,.15-.1.25-.26.32,1.94,1.37,3,3.49,4.13,5.45.24-.06.07-.33.38-.27-.18-.76-1.2-.81-1.23-1.58l.22,0c-.16-.48-.5.22-.55-.35,0-.26.25-.11.21-.2-.65-.8-1.09-1.79-2.06-2.3.25-.46-.61-.92-.45-1.49-.3-.11-.41-.36-.72-.27-1.81-3.11-4.24-5.9-6.28-9-1.71-.93-2-3.23-3.37-4.76,0,0,0,0,.07,0a5.81,5.81,0,0,1-1.54-1.89l-.69-.35c-2-4.4-5.23-8.14-7.69-12.34-1.46-2.35-2.73-4.62-4.14-6.77a38.23,38.23,0,0,0-2.25-3.14l-.62-.76-.33-.37a3.13,3.13,0,0,0-.28-.3c-.24-.19-.56-.44-1-.83a.63.63,0,0,1,.28.1,3.64,3.64,0,0,1-.38-.45c.32-.07.69-.11,1-.15a3.25,3.25,0,0,0,.45-.08l.23-.06.42-.13v.08c3.41-1.46,7.4-1.46,10.67-2.91l6.58-1.17a8.07,8.07,0,0,1,1.67-.19,8.18,8.18,0,0,1,4.69,1.58l-.13.12c2.7,2.36,4.36,5.62,7,8.08,2.19,3,5.87,4.93,8,8.06.9,2.29,4.34,3.28,5.12,5.49a14.87,14.87,0,0,0,.86,1.58c.16.25.32.5.49.74s.28.45.42.68a13.45,13.45,0,0,1,.7,1.43,3.56,3.56,0,0,1,.2.61.92.92,0,0,1-.05.59,38,38,0,0,0-1.75,6.06,39.71,39.71,0,0,0-2.4,5.66,14.33,14.33,0,0,1-3.11,5.23,4.62,4.62,0,0,1-1.78,2.37,14.52,14.52,0,0,0-2.35,2l.22.1c-1,0-.54,1.86-1.57,1.44l0-.09c-.63-.14.06,1.5-.52,1.2l.11.23c-.34.37-.23-.18-.58,0-.09.11.25.4-.08.46-.66-.78-.86.87-1.54-.06.21-.14-.57-.14-.24-.66-.2,0-.79.48-.48.85s.2,1,.82,1.09l-.12-.37c.35.22.21.08.42.29.56-.34.95.06,1.49,0,0,0,0,0,0,0,0-.55.53-.61.77-.74l.21.1c.41.23.05-1.15.37-.44.49-.5,1-1,1.51-1.6s1-1.13,1.54-1.7c-.06-.34.76-.89.13-1,.71.09,1.55-.72,1.76-1.09,0,0,.09.1,0,.14,1.13-.23-.09-1.22,1.17-1.32-.53-.47.91-1.08.42-1.87a.56.56,0,0,1,.41.13c.34-.59.73-1.2,1.12-1.78s.73-1.15,1-1.66c-.15-1.14,1.24-2,.78-3.14a4.61,4.61,0,0,0,1.27-2.44l.06.13a6.58,6.58,0,0,0,.67-3.12c.87.05.9-.43,1.33-.73a3.82,3.82,0,0,1,.27-1.28l.27-.73.12-.38.06-.18.11-.32a2.29,2.29,0,0,0,.12-.59c.22-.1.24-.51.18-.88s-.14-.69.1-.82a14.25,14.25,0,0,0-1.82-2.39c-.16-.18-.35-.37-.52-.54l-.45-.45c-.3-.3-.6-.62-.88-1a25.28,25.28,0,0,1-2.89-4.3h.06c-.51-.11-1.33,0-1.91-.09,0-.06.08-.12.14-.05-.48-.37-.46-1.15-.93-1.52.07-.06.07-.06.2,0-.56-.25-.46-1.15-1.21-1.36l.08-.12-.44-.18c.14-.11.36-.28.46-.08-3.32-3.91-7.56-7.19-11-11.17l.25,0-.91-.55a.22.22,0,0,1,.2,0,5.79,5.79,0,0,0-1.31-1.48l-.74-.64c-.24-.21-.46-.44-.75-.73.06-.06.36,0,.26-.25a2.6,2.6,0,0,1-1.15-.82.65.65,0,0,0-1-.06c0-.06,0-.29.16-.32a11.17,11.17,0,0,0-4.44-.5c-1.36.21-2.65.39-4,.53-2,1.3-4.56.94-6.64,2.12l0-.18a17.49,17.49,0,0,1-4.37,1.15l-2.28.35c-.75.12-1.48.25-2.38.47a16.18,16.18,0,0,0-2.3.56c.29.36.59.75.88,1.17h-.28a7.43,7.43,0,0,1,2.1,3,5.88,5.88,0,0,0,2,2.75l-.35.05c.6,0,.62,1.21,1.23.64l0,.46c1.76.64,1.12,2.57,2.76,3.71h-.23a2.22,2.22,0,0,1,.88,1.14c-.06,0-.09,0-.2,0,.22,1.72,1.9,2.67,2.79,4l-.41.06c.8.41,1.28,1.83,2,2.58l-.18.05.5.29-.28.21C214.11,170.69,215.08,171.58,215.85,172.64Z" transform="translate(-21.69 -4.96)"/><path class="cls-1" d="M223.81,183.7v0S223.78,183.68,223.81,183.7Z" transform="translate(-21.69 -4.96)"/><path class="cls-1" d="M237,200.33l-.18,0S237,200.35,237,200.33Z" transform="translate(-21.69 -4.96)"/><polygon class="cls-3" points="24.47 66.46 24.56 66.56 24.75 66.25 24.47 66.46"/><path class="cls-3" d="M47.51,70.67s0-.14-.07-.19l-.77.89C47.07,71.82,47.25,70.37,47.51,70.67Z" transform="translate(-21.69 -4.96)"/><path class="cls-3" d="M47.76,70.74c.33.17.44-.23.51-.37C48.17,70.68,47.66,70.31,47.76,70.74Z" transform="translate(-21.69 -4.96)"/><path class="cls-3" d="M74.43,74.79a.24.24,0,0,0-.09,0S74.41,74.8,74.43,74.79Z" transform="translate(-21.69 -4.96)"/><path class="cls-3" d="M80.83,78.45l.28-.17a5.38,5.38,0,0,1-1.73-1.35l-.77-.83a6,6,0,0,0-.91-.66l.15,0a21.63,21.63,0,0,0-9.72-4.56c.06,0,.11-.1.17-.12-.2.06-.44.2-.62.12s.09-.13.16-.14a2,2,0,0,0-1.4-.48c-.55,0-1,0-1.24-.25a.28.28,0,0,0-.28.39,30.59,30.59,0,0,0-8.71-.12.32.32,0,0,1-.12-.39c-2.46.84-5,.63-7.59.66-.08.23.28.22,0,.46.83.23,1.46-.63,2.22-.27l-.08.22c.54.11.08-.55.65-.3.23.17,0,.28.06.29a9.83,9.83,0,0,0,3.37-.53c.27.45,1.22,0,1.64.45.29-.18.58-.13.69-.44,2,.15,3.95.22,5.92.44a23.41,23.41,0,0,1,5.8,1.22,3.64,3.64,0,0,1,1.5.17,8.44,8.44,0,0,1,1.4.72c.47.26.9.61,1.35.92s.94.57,1.43.84a.11.11,0,0,1-.06.07,5.31,5.31,0,0,1,2.26,1.38l.81.17c.46.47.87,1,1.31,1.5l1.33,1.5c.91,1,1.87,2,2.86,3C85,84.2,87,86,89,88c4.49,4.32,8.25,8.32,13.63,11.3-.06.06-.06.13-.2.06,1.45,1,2.45,2.26,3.82,3.18l-.06.06a29.8,29.8,0,0,1,4.72,3.63c.38.33.74.66,1.1,1s.78.74,1,.9a21.61,21.61,0,0,0,1.87,1.45l-.27.19-1.49.48-1.63.56-3.61,1.3c-2.42.88-4.87,1.79-7.28,2.54l0-.17a16.17,16.17,0,0,1-5.85,1,37.73,37.73,0,0,1-5.81-.67,42.92,42.92,0,0,1-5.75-2.28,12.12,12.12,0,0,1-4.71-4.21c-1-2.56-4.6-4-5.47-6.42C70.73,97.12,67,94,63.13,90.65c-2.58-3.86-6.49-6.6-8.59-10.67-1.84-1.22-2.25-3.93-3.9-5.62l-.11.21c0-1.08-1.93-.85-1.5-1.89l.09,0c.1-.67-1.58,0-1.29-.63l-.24.1c-.4-.37.18-.23,0-.62-.13-.1-.39.25-.49-.09.74-.71-1-.88-.16-1.65.19.23,0-.64.65-.28,0-.22-.66-.88-1-.51s-1,.29-1,1l.36-.16c-.17.39-.06.23-.23.46.42.59.06,1,.22,1.56,0,0,0,0,0,0,.57,0,.68.53.81.79l-.09.22c-.23.41,1.19.08.47.39a43.63,43.63,0,0,1,3.21,3.56c.36,0,.78,1,1,.35a2.72,2.72,0,0,0,.75,2.09c-.05,0-.12.05-.15,0-.06,1.19,1.25.31,1,1.58.62-.35.79,1.3,1.72,1.12a.49.49,0,0,1-.26.35c.94,1.15,1.79,2.57,2.57,3.56,1.16.42,1.45,2.17,2.69,2.33a5.94,5.94,0,0,0,1.81,2.48h-.14a7.93,7.93,0,0,0,2.74,2.3c-.4.8.06,1.1.19,1.66.81.38,1.76,1.7,2.81,2.41-.17.39.77.68.39,1.08,3,2,5.44,5.45,7.18,8.79l-.06,0c.53.17,1.39.16,2,.29a.07.07,0,0,1-.14,0c.51.45.5,1.28,1,1.72-.07.06-.07.06-.21,0,.59.32.48,1.28,1.35,1.59l-.08.13.49.23c-.14.11-.35.29-.49,0a16.76,16.76,0,0,0,7.89,5,24.8,24.8,0,0,0,9.25.75l-.21.19,1.14-.45a.21.21,0,0,1-.09.19c1.57.08,3-.77,4.37-1.07,0,.09-.15.32.08.36.9-.75,1.83.15,2-1a.31.31,0,0,1,.08.35,70.93,70.93,0,0,1,8.41-3,6.29,6.29,0,0,1,1-.66,5.08,5.08,0,0,1,.62-.31l.69-.29c.91-.36,1.88-.67,2.85-1a18.43,18.43,0,0,0-3.14-2.53l.15-.11a24.4,24.4,0,0,1-2-1.55c-.66-.53-1.29-1.11-1.91-1.7-1.25-1.18-2.48-2.41-3.82-3.47-1-1-1.91-1.43-3-2.34l.12-.2c-2.4-.88-3.35-3.85-5.88-4.74l.33-.13c-.61.12-1-1.11-1.47-.39l-.17-.47c-2-.28-2-2.41-4-3.25L92,89a2.75,2.75,0,0,1-1.27-1c.07,0,.08-.05.22,0-.78-1.73-2.79-2.38-4.11-3.65l.4-.13c-1-.28-1.85-1.7-2.83-2.36l.17-.07L84,81.6l.23-.26C83.11,80.26,81.89,79.48,80.83,78.45Z" transform="translate(-21.69 -4.96)"/><path class="cls-3" d="M67.84,70.72s0,0,0,0S67.88,70.72,67.84,70.72Z" transform="translate(-21.69 -4.96)"/><path class="cls-3" d="M46.05,72.06c0-.07,0-.13-.07-.19S46,72,46.05,72.06Z" transform="translate(-21.69 -4.96)"/><polygon class="cls-3" points="95.35 122.38 95.46 122.45 95.57 122.1 95.35 122.38"/><path class="cls-3" d="M118.16,126.24c-.06,0-.07-.13-.13-.16l-.5,1.07C118.05,127.47,117.82,126,118.16,126.24Z" transform="translate(-21.69 -4.96)"/><path class="cls-3" d="M118.42,126.23c.38.07.36-.35.39-.5C118.81,126.06,118.21,125.86,118.42,126.23Z" transform="translate(-21.69 -4.96)"/><path class="cls-3" d="M141.8,132.34l-.1,0A.09.09,0,0,0,141.8,132.34Z" transform="translate(-21.69 -4.96)"/><path class="cls-3" d="M148.38,136l.26-.19c-1.42-.44-2.27-1.87-3.56-2.6l.14,0c-2.8-2.44-5.78-4.19-8.78-6.33.06,0,.13,0,.2,0-.2,0-.48,0-.62-.14s.14-.08.2-.07c-.27-.89-2-1.18-2.1-1.8a.27.27,0,0,0-.42.22L132,123.7a7.48,7.48,0,0,0-1.84-.9,4,4,0,0,0-1.85-.24,1.86,1.86,0,0,0-.37.1l-.51.19c-.34.13-.67.26-1,.41-.15,0-.21-.16-.22-.34-2.1,1.48-4.6,2.12-7.08,2.9,0,.24.33.13.18.43.87,0,1.22-1,2.06-.93v.24c.55-.07-.09-.55.53-.49.27.09,0,.28.15.26a10.22,10.22,0,0,0,3.06-1.53c.39.36,1.15-.34,1.67,0,.22-.26.51-.28.54-.61L128,123a1.88,1.88,0,0,1,.41,0,4,4,0,0,1,1.08.22,8.13,8.13,0,0,1,2.3,1.19c1.64,1.24,3.31,2.47,4.91,3.79,2.07.53,3.2,2.83,5.17,4.05a.08.08,0,0,1,0,.07,7.33,7.33,0,0,1,2.26,1.57l.82.18c3.71,4,8.29,7.07,12.38,10.79a40.07,40.07,0,0,0,7.55,5.26,20.09,20.09,0,0,0,8.8,2.31c0,.09,0,.14-.15.15,1.79.18,3.37.73,5.09.63v.09a22.59,22.59,0,0,1,3.1-.19,4.69,4.69,0,0,1,2.6.93c1.48,1.13,2.19,3.15,3.46,4.73a7.68,7.68,0,0,0,1.75,2.53l.23.19.11.1-.14,0-.59.1-1.2.2-2.74.44-3,.43-2.94.34V163c-4.06.6-7.95-.46-11.89-.92-1-.27-2-.56-3-.74s-2.08-.42-3.1-.75a17.17,17.17,0,0,1-3-1.08,11.27,11.27,0,0,1-1.42-.74c-.44-.29-.87-.61-1.28-.94a5,5,0,0,0-.73-.72,7.81,7.81,0,0,0-.84-.65c-.59-.41-1.29-.71-1.92-1.13a7.74,7.74,0,0,1-3.12-2.77c-2.75-4.44-7.09-7-11.46-9.54-3.27-3.33-7.67-5.24-10.55-8.81-2.06-.83-3-3.41-5-4.75l-.08.23c-.24-1-2.06-.46-1.84-1.57l.09,0c0-.67-1.56.27-1.39-.37l-.22.15c-.46-.29.13-.26-.13-.61-.14-.07-.33.32-.5,0,.59-.84-1.17-.68-.47-1.59.23.19-.08-.64.59-.4-.07-.21-.81-.74-1.06-.32s-.95.47-.78,1.13l.33-.22c-.1.41,0,.24-.14.5.53.5.26,1,.52,1.49,0,0,0,0,0,0,.56-.13.77.39,1,.62l0,.24c-.15.44,1.18-.15.53.3a41.13,41.13,0,0,1,3.87,2.88c.36-.08,1,.8,1,.15-.07.75.79,1.64,1.16,1.9,0,0-.11.08-.15,0,.18,1.18,1.29.06,1.31,1.35.54-.47,1,1.12,1.92.76a.49.49,0,0,1-.19.39c1.16.94,2.28,2.17,3.24,3,1.22.19,1.85,1.85,3.1,1.77a6.07,6.07,0,0,0,2.26,2.09h-.15a8.14,8.14,0,0,0,3.12,1.77c-.25.85.26,1.06.48,1.6.86.23,2,1.36,3.16,1.9-.1.41.87.54.56,1a16.14,16.14,0,0,1,4.57,3.24c.7.69,1.32,1.42,2,2.18s1.28,1.57,1.92,2.32h-.07a16.39,16.39,0,0,0,2.08-.14c0,.07-.05.14-.13.08.6.33.81,1.15,1.47,1.43-.06.07-.06.07-.2.08.68.14.92,1.1,1.79,1.14l0,.15.53,0c-.09.15-.24.38-.45.2a25.55,25.55,0,0,0,8.59,3.08,66.57,66.57,0,0,0,9.08.87l-.23.17c.4-.08.79-.19,1.18-.29a.22.22,0,0,1-.12.17,6.6,6.6,0,0,0,2.26,0,15.58,15.58,0,0,1,2.21-.25c0,.09-.21.28,0,.37,1-.57,1.77.5,2.22-.56.05,0,.11.27,0,.36,1.47-.31,2.95-.56,4.43-.78l2.82-.4,3.42-.45c0-.12-.08-.26-.14-.39a17.72,17.72,0,0,1-1.5-1.1,11.27,11.27,0,0,1-1.1-1,7.14,7.14,0,0,1-1.14-1.76,10.37,10.37,0,0,0-2-3.09l.16-.09a14.6,14.6,0,0,0-1.92-1.77,6.9,6.9,0,0,0-2.41-1,18,18,0,0,0-2.6-.29l-2.56-.19c-.69-.11-1.29-.14-1.88-.2a11.58,11.58,0,0,1-1.89-.25l0-.23a6.19,6.19,0,0,1-3.59-.94,9,9,0,0,0-3.57-1.32l.29-.21c-.56.28-1.28-.8-1.52,0l-.28-.43c-2.06.16-2.46-1.94-4.55-2.53l.22-.08a2.57,2.57,0,0,1-1.37-.87c.07,0,.08,0,.22,0-.92-1.64-2.93-2.22-4.35-3.4l.4-.16c-1-.23-2-1.57-3-2.15l.16-.09-.61-.19.21-.28C150.86,137.56,149.56,136.89,148.38,136Z" transform="translate(-21.69 -4.96)"/><path class="cls-3" d="M136.22,126.58v0C136.28,126.61,136.27,126.6,136.22,126.58Z" transform="translate(-21.69 -4.96)"/><path class="cls-3" d="M116.91,128l-.1-.17C116.77,127.93,116.87,128,116.91,128Z" transform="translate(-21.69 -4.96)"/><polygon class="cls-3" points="399.58 184.06 399.71 184.1 399.73 183.74 399.58 184.06"/><path class="cls-3" d="M422.1,187.7c-.07,0-.1-.11-.16-.13l-.24,1.16C422.27,188.92,421.72,187.56,422.1,187.7Z" transform="translate(-21.69 -4.96)"/><path class="cls-3" d="M422.35,187.64c.38,0,.27-.42.26-.57C422.69,187.39,422.06,187.32,422.35,187.64Z" transform="translate(-21.69 -4.96)"/><path class="cls-3" d="M434.9,198.9a.22.22,0,0,0,0-.08C434.85,198.87,434.87,198.89,434.9,198.9Z" transform="translate(-21.69 -4.96)"/><path class="cls-3" d="M438.47,205.53l.32,0c-1-1.14-.9-2.8-1.58-4.12l.13.06c-1-3.56-2.59-6.65-3.95-10.08.05,0,.14,0,.19.08-.16-.13-.41-.26-.44-.45s.15,0,.2.05c.26-.9-1-2.06-.79-2.65a.28.28,0,0,0-.47-.05c-.44-1.14-.84-2.34-1.35-3.45l-.4-.85-.21-.41-.14-.24c-.18-.3-.35-.56-.49-.75a5.52,5.52,0,0,0-.54.55.72.72,0,0,1-.1-.4l-.34.53c-.23.23-.46.45-.71.66a14.45,14.45,0,0,1-1.55,1.15c-1.08.71-2.24,1.31-3.35,2,0,.24.35.06.26.39.85-.22,1-1.28,1.82-1.35l0,.24c.53-.19-.2-.52.42-.59.28,0,.1.26.2.21a9.4,9.4,0,0,0,2.67-2.22.44.44,0,0,0,.37,0l.1-.05h0l.05,0c.05,0,.14-.09.17.16a4.77,4.77,0,0,1,.19-.66l.11,0a3.73,3.73,0,0,0,.15.47l.08.21.23.55c.39.9.71,1.7,1,2.66.69,1.86,1.39,3.73,2,5.63,1.45,1.57,1.15,4.11,2.15,6.21a.1.1,0,0,1-.09,0,7.53,7.53,0,0,1,1.06,2.54l.59.61c.93,5.37,3.15,10.44,4.54,15.75,1.71,6,2.78,11.37,5.79,16.77-.09,0-.12.08-.2-.06.71,1.61.9,3.23,1.58,4.73l-.08,0c2,3.66,2.52,8.12,4.53,11.62a18.73,18.73,0,0,1,.57,1.94,3.3,3.3,0,0,1,0,2,13.54,13.54,0,0,1-1.78,2.79,4.71,4.71,0,0,1-2.67,1.89,7.21,7.21,0,0,1-3.74-1.19l.11-.14a5.09,5.09,0,0,1-2.08-2,25.88,25.88,0,0,1-1-2.81c-.57-1.91-1.07-3.83-1.83-5.71-.9-4.07-3.51-7.88-4.33-12,0-2.74-2.81-5.41-2.71-8-.25-5.19-2.6-9.55-4.93-14.07-1-4.56-3.59-8.56-4-13.14-1.26-1.82-.63-4.49-1.54-6.68l-.18.14c.37-1-1.48-1.5-.69-2.32l.07.08c.34-.59-1.46-.63-1-1.07h-.26c-.24-.49.25-.14.21-.57-.08-.14-.45.08-.42-.28.95-.38-.62-1.2.46-1.59.09.29.28-.58.72,0,.05-.22-.29-1.06-.73-.84s-1.05-.11-1.26.54h.39c-.3.29-.13.19-.38.34.18.71-.31,1-.37,1.53h0c.54.2.44.75.46,1l-.16.18c-.37.29,1.07.51.28.54a40.82,40.82,0,0,1,1.67,4.51c.34.13.36,1.2.78.69a2.71,2.71,0,0,0-.08,2.22c-.06,0-.13,0-.13-.07-.5,1.09,1,.76.35,1.86.71-.1.25,1.5,1.18,1.68a.5.5,0,0,1-.37.23c.44,1.42.71,3.06,1.07,4.27.92.83.54,2.56,1.64,3.17a5.85,5.85,0,0,0,.77,3l-.14-.07a8.17,8.17,0,0,0,1.7,3.18c-.67.59-.35,1-.44,1.61.61.65,1,2.23,1.72,3.29-.3.3.46.92,0,1.15,2.07,3,3,7.11,3.42,10.86l-.05,0c.43.36,1.23.67,1.75,1,0,.06-.12.08-.14,0,.3.61,0,1.37.29,2-.09,0-.09,0-.21-.05.43.52,0,1.37.62,2l-.12.08.34.39c-.18,0-.44.11-.46-.15,1.61,5.49,4.08,11,6.19,16.6l-.24-.14.72,1a.22.22,0,0,1-.21,0,4.92,4.92,0,0,0,.37,1.1,4.19,4.19,0,0,0,.83,1.12,18.94,18.94,0,0,0,1.95,1.48c-.05.07-.35.08-.22.29a2.67,2.67,0,0,1,1.29.74.75.75,0,0,0,1.1,0c0,.07,0,.3-.15.34a7.08,7.08,0,0,0,2.16.21,4.17,4.17,0,0,0,2.1-.93,10,10,0,0,0,1.39-1.36,15.83,15.83,0,0,0,2.14-3.08l.12-.28a6.14,6.14,0,0,0-.37-2.34c-.21-.67-.43-1.3-.64-1.93a15,15,0,0,0-1.56-3.61l.18,0c-1.64-2.95-2.07-6.51-3.25-9.73-.37-1.38-.88-2.23-1.33-3.59l.21-.11c-1.59-2-.82-5.06-2.52-7.15l.35.06c-.58-.22-.31-1.5-1.05-1.1l.1-.5c-1.57-1.28-.48-3.11-1.81-4.88l.23.07a2.78,2.78,0,0,1-.58-1.51c0,.05.09,0,.18.11.2-1.9-1.22-3.48-1.76-5.24l.41.09c-.68-.71-.8-2.39-1.35-3.44h.18l-.41-.48.32-.13C439.69,208.2,439,206.93,438.47,205.53Z" transform="translate(-21.69 -4.96)"/><path class="cls-3" d="M433.34,191.05v0S433.37,191.09,433.34,191.05Z" transform="translate(-21.69 -4.96)"/><path class="cls-3" d="M419.32,189.79a1.34,1.34,0,0,1,0-.2C419.27,189.63,419.32,189.73,419.32,189.79Z" transform="translate(-21.69 -4.96)"/><polygon class="cls-3" points="469.89 180.13 469.8 180.04 469.76 180.37 469.89 180.13"/><path class="cls-3" d="M490.87,186c.05,0,.06.13.11.17l.26-1C490.85,184.84,491.13,186.27,490.87,186Z" transform="translate(-21.69 -4.96)"/><path class="cls-3" d="M490.69,186c-.28-.11-.24.29-.24.44C490.42,186.11,490.87,186.38,490.69,186Z" transform="translate(-21.69 -4.96)"/><path class="cls-3" d="M472.38,192.47l.06-.05S472.38,192.44,472.38,192.47Z" transform="translate(-21.69 -4.96)"/><path class="cls-3" d="M468,195.37l.05.32c.72-.84,1.91-.64,2.78-1.2l0,.13a51.19,51.19,0,0,0,6.78-3s0,.13,0,.18c.08-.14.14-.38.28-.39s0,.15,0,.19c.67.32,1.37-.82,1.81-.55a.31.31,0,0,0,0-.45,46.14,46.14,0,0,0,5.54-2.58c.12,0,.18.17.21.35,1.35-1.36,3.16-1.62,4.87-2.06,0-.23-.25-.17-.16-.44-.62-.08-.8.85-1.42.63v-.22c-.4,0,.1.53-.36.4-.2-.12-.05-.27-.12-.26-.72.33-1.56.42-2.1,1.15-.32-.38-.81.26-1.23-.06-.13.24-.34.26-.32.58-2.7.66-5.23,2-7.92,2.89-1,1.28-2.82.78-4.21,1.57a.13.13,0,0,1,0-.08,3.64,3.64,0,0,1-1.7.81l-.37.53c-3.74.45-7.13,2.19-10.78,3.1l-3.81,1-1.73.5a1.69,1.69,0,0,0-.49.17,2.29,2.29,0,0,0-.15-.24l-.1-.13a.65.65,0,0,1-.16-.25,17.35,17.35,0,0,0-1.15-2c.09,0,.12-.07.19,0-.55-1.08-.58-2.22-1.11-3.23l.09,0c-1.58-2.43-1.72-5.56-3.32-7.88-.94-3.11-2.2-6.69-3.47-9.81l.22.1-.21-.48-.1-.24s-.06-.1,0-.1h.12c.31,0,.64,0,1,0,.67,0,1.33,0,1.92.08a24.22,24.22,0,0,0,4.09.17c2.79.43,5.9-.7,8.71.2a4.43,4.43,0,0,0,2.91.41,4,4,0,0,1,2.8.53c3,2.09,6.35,2.16,9.89,2.58,2.8,1.52,6.21,1.71,8.55,4,1.6.1,2.37,2.09,3.84,2.73l.06-.23c.17.87,1.6-.19,1.41.87h-.08c0,.6,1.22-.66,1.08,0l.17-.19c.35.13-.11.26.09.5.1,0,.26-.37.38-.13-.48.9.9.28.33,1.27-.17-.1,0,.54-.47.51,0,.17.6.44.81,0s.76-.66.65-1.2l-.26.28c.08-.39,0-.21.12-.47-.4-.3-.18-.8-.37-1.18,0,0,0,0,0,0-.44.26-.59-.14-.73-.3l0-.22c.12-.44-.92.45-.41-.12a25.85,25.85,0,0,1-3-1.48c-.28.18-.75-.44-.79.16a1.57,1.57,0,0,0-.93-1.34c0-.05.08-.1.11-.06-.17-1-1,.35-1-.81-.39.59-.83-.68-1.49-.06a.65.65,0,0,1,.12-.41c-.93-.45-1.86-1.19-2.65-1.57-.94.28-1.57-1-2.49-.43a2.81,2.81,0,0,0-1.93-1l.11-.07a3.77,3.77,0,0,0-2.53-.25c0-.85-.37-.81-.64-1.18-.65.17-1.7-.28-2.62-.18,0-.4-.72,0-.62-.58a9.83,9.83,0,0,1-3.94-.37,19.24,19.24,0,0,1-3.8-1.53l0,0a16.66,16.66,0,0,0-1.26,1.17c0-.06,0-.14.06-.13-.47,0-.82-.57-1.3-.55,0-.09,0-.09.11-.16-.47.16-.85-.55-1.41-.19l0-.15-.35.17c0-.18.08-.45.25-.37a27.14,27.14,0,0,0-6.12-.19c-1,.08-2.05.11-3.08.21-.51,0-1,.07-1.54.09l-1.78,0,.16-.18c-.36.12-.68.24-1,.36a.14.14,0,0,1,0-.18,6.82,6.82,0,0,0-2.15.09l-.45.09-.11,0h-.06s0,0,0,.07l.12.28a6.83,6.83,0,0,1,.37,1c-.1,0-.39-.35-.44-.19a2,2,0,0,1,.44,1.37.79.79,0,0,0,.69.86.3.3,0,0,1-.36.07c.1.21.15.32.21.43l.17.34.31.7c.2.46.38.94.55,1.42.33,1,.6,2,.84,2.94,1.41,1.31,1.2,3.36,2.44,4.79l-.18,0c1.33,2,1.42,4.45,2.27,6.64.24.95.65,1.51,1,2.44l-.21.09a2.94,2.94,0,0,1,.78,1.86,13.37,13.37,0,0,0,.53,2.57,4.39,4.39,0,0,0,1.36-.79c-.06.13-.11.26-.18.4a1.08,1.08,0,0,1,.71-.46c.24-.08.4-.18.23-.57l.37.15c.75-1.42,2.17-.21,3.3-1.35l0,.22c.31-.27.7-.53,1-.45,0,0,0,.09-.06.17,1.38.35,2.36-.9,3.56-1.28l0,.4c.44-.61,1.62-.59,2.32-1v.17l.3-.36.12.33C466.24,196.34,467.07,195.74,468,195.37Z" transform="translate(-21.69 -4.96)"/><path class="cls-3" d="M477.83,191.6h0S477.81,191.62,477.83,191.6Z" transform="translate(-21.69 -4.96)"/><path class="cls-3" d="M491.86,184.82a.54.54,0,0,1,.07.13C492,184.88,491.89,184.85,491.86,184.82Z" transform="translate(-21.69 -4.96)"/><polygon class="cls-1" points="373.85 100.4 373.93 100.31 373.6 100.26 373.85 100.4"/><path class="cls-1" d="M394.59,104.59s-.13.06-.17.11l1,.31C395.78,104.61,394.34,104.86,394.59,104.59Z" transform="translate(-21.69 -4.96)"/><path class="cls-1" d="M394.62,104.4c.12-.29-.29-.26-.43-.27C394.5,104.11,394.23,104.57,394.62,104.4Z" transform="translate(-21.69 -4.96)"/><path class="cls-1" d="M385.49,85.18a.13.13,0,0,0,.07,0A.08.08,0,0,0,385.49,85.18Z" transform="translate(-21.69 -4.96)"/><path class="cls-1" d="M380.34,82.66l-.23.22c1.15.15,1.73,1.3,2.71,1.77l-.12,0a34.9,34.9,0,0,1,5.53,5.66c-.05,0-.14,0-.19,0,.16.06.41.08.46.23s-.15,0-.2,0c-.17.74,1.09,1.34.89,1.85a.3.3,0,0,0,.45-.06c1.05,1.9,1.92,4,3,6,0,.12-.17.18-.35.21,1.38,1.53,1.6,3.5,2,5.32.24,0,.17-.25.45-.14.08-.66-.85-.9-.63-1.54h.23c0-.42-.54.08-.4-.39.13-.21.28,0,.27-.12-.33-.79-.41-1.71-1.15-2.33.39-.33-.26-.88.06-1.32-.24-.16-.26-.39-.59-.38a30.56,30.56,0,0,0-3.94-8.5,4.08,4.08,0,0,1-1.6-1.83,6.13,6.13,0,0,0-1.58-2.11.16.16,0,0,1,.07-.07,5.63,5.63,0,0,1-1.7-1.3l-.7-.08c-2.7-3.09-6.43-4.93-9.64-7.41-1.87-1.35-3.56-2.7-5.32-3.9-.87-.59-1.81-1.18-2.69-1.67a23.4,23.4,0,0,1-2.55-1.58c.07,0,.09-.1.18,0a2.7,2.7,0,0,1-.73-1.34,10.7,10.7,0,0,1-.13-1.41l.09,0a3.15,3.15,0,0,1,.38-1.95,5.81,5.81,0,0,1,1.28-1.7,6.15,6.15,0,0,1,3.67-1.52,13.67,13.67,0,0,1,4.84,2.39c1.6,1,3.25,2.05,4.87,3l-.1.14c2.7,1.36,4.57,3.76,7.22,5.19,2.32,2,5.83,2.68,8.1,4.86.53.92,1.64,1.25,2.61,1.78a3.46,3.46,0,0,1,2,2.35,25,25,0,0,0,1.64,5.23,49.69,49.69,0,0,0,2.58,4.94,36.13,36.13,0,0,0,1.52,4.91c.13.42.23.85.33,1.27a8.43,8.43,0,0,1,.12,1.33,3.57,3.57,0,0,1-1,2.49,2.42,2.42,0,0,1-1.82,1.68l-1.27.34a4.5,4.5,0,0,0-1.2.48l.16.18c-.84-.37-.89,1.43-1.65.66l0-.07c-.5-.34-.26,1.39-.68.91l0,.26c-.35.22-.15-.25-.48-.22-.09.07.13.44-.15.39-.42-.93-.84.56-1.28-.5.2-.08-.48-.29-.11-.69-.17-.06-.77.23-.54.67s0,1,.57,1.24l-.06-.38c.26.3.16.14.31.39.52-.15.78.33,1.23.4,0,0,0,0,0,0,.08-.52.52-.4.74-.42l.16.16c.28.36.25-1,.38-.27,1-.58,2.14-1.09,3.28-1.7,0-.33.89-.5.36-.82.6.41,1.56-.11,1.86-.39,0,0,.06.11,0,.14.57,0,.64-.33.69-.61s.07-.54.72-.63c-.27-.26,0-.51.22-.91s.4-.85,0-1.16a.54.54,0,0,1,.43,0,11.06,11.06,0,0,0,.16-4c-.77-.73-.22-2.09-1.24-2.53a3.26,3.26,0,0,0-.5-2.26l.12,0a4.53,4.53,0,0,0-1.37-2.29c.71-.49.44-.81.58-1.26-.54-.46-.79-1.66-1.43-2.44.32-.25-.4-.67.1-.9-1.92-2.13-2.79-5.19-4.94-7.91h.06a6.7,6.7,0,0,0-1.77.41c0-.06.05-.13.12-.08-.47-.2-.55-.9-1-1.09,0-.07,0-.07.17-.1-.52-.06-.55-.89-1.25-.85l.06-.14-.4,0c.11-.14.27-.36.39-.2-3.44-2.53-7.62-4.2-11.18-6.75l.23-.06-.87-.21a.21.21,0,0,1,.17-.1c-.73-.86-1.95-1.06-2.78-1.71.06-.07.29-.13.22-.29-.92,0-.69-1.24-1.58-.6,0-.06.11-.27.22-.29a23.24,23.24,0,0,1-2.88-1.61c-.95-.6-1.75-1.25-2.76-1.93a26.41,26.41,0,0,1-3.06-.65,3.34,3.34,0,0,0-3,.63l-.06-.17a12.73,12.73,0,0,0-2.7,2.79A5,5,0,0,0,361,67.47a4.46,4.46,0,0,0,1.34,2.6l-.16.16a7.33,7.33,0,0,1,2.15,1.89,4,4,0,0,0,2.43,1.48l-.28.19c.51-.24.84.76,1.21,0l.13.39c1.66-.23,1.65,1.67,3.34,1.92l-.19.11a1.49,1.49,0,0,1,1.05.57c-.05,0-.07.06-.18,0,.66,1.35,2.32,1.41,3.44,2.19l-.33.22c.78,0,1.56,1,2.38,1.33l-.14.11.5,0-.19.29C378.4,81.69,379.43,82.05,380.34,82.66Z" transform="translate(-21.69 -4.96)"/><path class="cls-1" d="M388.3,90.59v0S388.27,90.57,388.3,90.59Z" transform="translate(-21.69 -4.96)"/><path class="cls-1" d="M395.67,106.93a.39.39,0,0,1-.15,0C395.55,107,395.63,106.93,395.67,106.93Z" transform="translate(-21.69 -4.96)"/><polygon class="cls-1" points="413.14 32.96 413.19 33.08 413.47 32.85 413.14 32.96"/><path class="cls-1" d="M436.15,37.52c0-.06,0-.14,0-.2a9.56,9.56,0,0,1-.81.71C435.57,38.56,436,37.18,436.15,37.52Z" transform="translate(-21.69 -4.96)"/><path class="cls-1" d="M436.31,37.63c.2.23.35-.15.43-.27C436.61,37.65,436.33,37.2,436.31,37.63Z" transform="translate(-21.69 -4.96)"/><path class="cls-1" d="M449.93,51.7l-.07,0S449.9,51.71,449.93,51.7Z" transform="translate(-21.69 -4.96)"/><path class="cls-1" d="M454.5,54.89l.27-.16c-1.08-.39-1.4-1.63-2.29-2.27l.13,0a58.08,58.08,0,0,0-5.68-5.52c.06,0,.13,0,.19,0-.17,0-.41,0-.49-.13s.14-.07.19,0c0-.77-1.34-1-1.27-1.57a.31.31,0,0,0-.43.18,51.78,51.78,0,0,0-4.75-4.47c0-.12.08-.23.23-.33a6.49,6.49,0,0,1-2.25-1.74c-.86-.94-.49-.93-1.49-1.22-.11.21.12.26-.08.46.44.36.9-.33.8.11l-.15.15c0,.07.07,0,.16-.1s.15-.16.19.1-.23.15-.19.22c.62.57,1.06,1.37,2,1.62-.22.46.59.69.46,1.22.28,0,.39.24.67.1,1.77,2.39,4.09,4.37,6.06,6.67,1.61.48,1.92,2.46,3.25,3.53a.11.11,0,0,1-.07.06,4,4,0,0,1,1.48,1.37l.65.16c2,3.49,5.07,6.16,7.46,9.38,2.82,3.58,5,7,8.76,9.56-.07,0-.08.11-.18,0,1,.84,1.5,1.93,2.43,2.71l-.07.06a18.23,18.23,0,0,1,3.27,3.24c.36.42.65.77,1.06,1.17s.91.82,1.75,1.49l.09.1s0,0,0,0h-.07l-.3,0-.58,0-1.16,0-1.17,0-1.26-.08a27.62,27.62,0,0,1-5.54-.91l.07-.17a7.33,7.33,0,0,1-3.67-2.2,39.57,39.57,0,0,1-2.64-3.36c-1.39-2.75-4.37-4.58-5.67-7.43-.35-2.07-3.3-3.06-3.56-5-1-3.81-3.68-6.24-6.43-8.8-1.51-3.07-4.45-5.15-5.48-8.42-1.4-.92-1.19-3.14-2.32-4.46l-.15.18c.21-.89-1.55-.61-1-1.5l.08,0c.11-.28-.24-.27-.57-.25s-.72,0-.5-.26l-.27,0c-.35-.38.24-.14.16-.44-.09-.1-.55,0-.5-.23.6-.08.63-.27.69-.5s.15-.47.68-.26c0,.07.1,0,.24.08a.49.49,0,0,1,.37.23c.08.1.34-.58-.14-.72s-.74-.69-1.28-.49l.31.23a1.46,1.46,0,0,1-.49-.06c-.28.5-.9.53-1.41,1.11a0,0,0,0,1,0,0,.44.44,0,0,1,.09.32.45.45,0,0,1,0,.16s.07.1.09.15a3.85,3.85,0,0,1,.22.57l-.12.18c-.15.17.22.33.48.4s.45.11,0,.2l.61.69c.18.22.36.46.53.69.36.48.7,1,1,1.48.34,0,.5.77.81.24a1.73,1.73,0,0,0,.23,1.7c-.05,0-.12,0-.13,0-.31,1,1.06.2.58,1.26.63-.32.43,1,1.31.85a.68.68,0,0,1-.31.3c.6.91,1.07,2,1.56,2.82.95.3.85,1.73,1.93,1.8a3.26,3.26,0,0,0,1.11,2h-.13c.54.7,1.2,1.59,2,1.78-.52.68-.17.91-.17,1.37.64.27,1.22,1.31,2,1.86-.23.33.55.52.13.87,2.29,1.48,3.74,4.26,4.6,6.93h0c.44.12,1.22.07,1.73.14,0,.06-.09.11-.13,0,.36.35.18,1,.54,1.38-.08.05-.08.05-.2,0,.46.24.18,1,.84,1.24l-.11.11.37.16c-.16.1-.39.25-.44.06a47.66,47.66,0,0,0,3.86,5.12l1,1.25c.33.42.68.84,1.08,1.29s.81.84,1.21,1.26.86.79,1.34,1.13l-.24,0c.31.1.6.2.91.28a.26.26,0,0,1-.18.1c.83.9,2.16,1,3.14,1.41,0,.08-.25.18-.14.34.93-.22,1.1,1,1.77.12a.41.41,0,0,1-.11.35l3.38.33,1.84.19,2.46.21A4.25,4.25,0,0,1,477,82c.26,0,.53,0,.82,0h.78s0,0,0-.07a14.2,14.2,0,0,0-2.82-2.74H476a14.38,14.38,0,0,1-2.86-2.92,33.58,33.58,0,0,0-2.38-2.94c-.63-.84-1.25-1.22-2-2l.15-.17c-1.82-.75-1.84-3.31-3.78-4.06l.32-.11c-.55.1-.6-.95-1.15-.32l0-.41c-1.65-.22-1.11-2-2.65-2.73l.21,0c-.38-.21-.79-.49-.85-.83.05,0,.08,0,.19,0-.25-1.48-1.84-2-2.7-3l.38-.13c-.75-.2-1.24-1.36-1.95-1.88l.17-.07-.47-.17.25-.24C456.16,56.27,455.24,55.68,454.5,54.89Z" transform="translate(-21.69 -4.96)"/><path class="cls-1" d="M446.82,46.71s0,0,0,0S446.85,46.72,446.82,46.71Z" transform="translate(-21.69 -4.96)"/><path class="cls-1" d="M433,37.42a1.92,1.92,0,0,1,.18-.22C433.05,37.21,433,37.35,433,37.42Z" transform="translate(-21.69 -4.96)"/><polygon class="cls-1" points="461.87 135.57 461.92 135.66 461.9 135.36 461.87 135.57"/><path class="cls-1" d="M483.77,139.78s0-.13-.08-.18v.88C483.93,140.9,483.61,139.5,483.77,139.78Z" transform="translate(-21.69 -4.96)"/><path class="cls-1" d="M483.86,139.85c.14.16.07-.23.05-.37C484,139.79,483.72,139.44,483.86,139.85Z" transform="translate(-21.69 -4.96)"/><path class="cls-1" d="M491.75,137.36s0,0,0,0S491.75,137.38,491.75,137.36Z" transform="translate(-21.69 -4.96)"/><path class="cls-1" d="M493.45,135.47l-.07-.31c-.23.65-.82.23-1.17.58v-.11a9.56,9.56,0,0,0-2.84,1.49.81.81,0,0,1,0-.16c0,.11,0,.32-.08.31a.24.24,0,0,1,0-.18c-.36-.43-.55.51-.79.16a.57.57,0,0,0,.06.44,9.19,9.19,0,0,0-2.31,1.33.78.78,0,0,1-.14-.36c-.47,1-1.3.9-2.05,1,0,.22.14.2.13.44.31.2.27-.64.59-.31l0,.21c.19.09-.12-.53.11-.31s.06.27.09.27c.3-.17.69-.09.85-.67.21.42.36-.09.6.3,0-.2.13-.18.08-.48,1.2-.1,2.23-.86,3.4-1.17.29-1,1.24-.17,1.8-.65a.32.32,0,0,1,0,.09.72.72,0,0,1,.7-.43l.11-.43c1.73.31,3.12-.66,4.74-.79l.92-.12.45-.05a1.21,1.21,0,0,1,.33,0,.5.5,0,0,0,.5-.09,5.49,5.49,0,0,1,.73.15.4.4,0,0,1-.16.06.31.31,0,0,1,.13.19,2.33,2.33,0,0,1,.08.36,1.39,1.39,0,0,0,.26.67l-.08,0c1.09.88.71,2.37,1.84,3.19.1.33.22.71.32,1s.21.58.34.89c.64.81-.37.84-.89,1.22L502,143a2.69,2.69,0,0,1-1.64.38,3.82,3.82,0,0,0-1.72.25c-1.22-.14-2.27,1.46-3.57,1-.41-.42-.81-.12-1.25.1s-.89.49-1.22,0c-1.32-1.46-2.62-.84-4.36-.61a3.21,3.21,0,0,0-.91-.49c-.32-.12-.68-.17-1-.3a3.66,3.66,0,0,1-.94-.44,1.89,1.89,0,0,1-.61-.89c-.45.09-.6-.28-.7-.7s-.1-.75-.3-.91l-.2.13c.29-.27.06-.24-.15-.31s-.37-.17.11-.31h0c.48-.2-1.22-.11-.64-.28l-.25,0c-.09-.15.28-.07.36-.2s-.45.05-.33-.06c1-.19-.28-.35.85-.55,0,.09.42-.2.69-.05.11-.07,0-.32-.47-.22a3.41,3.41,0,0,0-1.34.25l.37,0a3.44,3.44,0,0,1-.45.14c0,.21-.55.33-.75.51h0c.46,0,.22.21.17.3l-.21.07c-.42.12.89.1.14.15a3.27,3.27,0,0,1,.31,1l.06.28c0,.09,0,.21.11.26l.47.37c.29-.12.44.39.68-.12-.26.6-.09.95.05,1,0,0-.09.09-.09.06-.28.83.71-.41.33.55.45-.55.28.46.86-.14a1.81,1.81,0,0,1-.2.37c.37.29.71.76,1.05,1,.59-.36.63.66,1.28,0,.14.26.37.78.82.58l-.07.09a1.21,1.21,0,0,0,1.28-.21c-.14.82.07.71.17,1,.36-.3.84,0,1.3-.3,0,.38.35-.1.26.44,1.29-.8,2.45-.37,3.66.43l0,0a11.47,11.47,0,0,0,.44-1.36s0,.13,0,.13c.2-.11.41.42.61.31a.28.28,0,0,1,0,.18c.17-.26.44.42.63,0l0,.14.12-.22c0,.18,0,.45-.05.4,1.85,0,3.44-1.29,5.15-1.64v.18l.24-.39a.43.43,0,0,1,0,.18.66.66,0,0,0,.64-.17,2.39,2.39,0,0,1,.81-.41c.05.07.05.26.19.31.09-.29.35-.21.59-.19s.41,0,.06-.43a1.14,1.14,0,0,1,.31.27,6.47,6.47,0,0,1,.75-.45l.19-.1c.06,0,0,0,0-.09l-.05-.12-.18-.46a11.54,11.54,0,0,1-.51-1.83,2.2,2.2,0,0,1-.39-.3,1,1,0,0,1-.23-.22,1.62,1.62,0,0,1-.25-.51,1.4,1.4,0,0,0-.7-1l.18-.06c-.93-.7-.61-1.89-1.06-2.8-.07-.41-.36-.6-.52-1l.19-.13c-.35-.11-.42-.31-.45-.64s0-.79-.06-1.18a1.35,1.35,0,0,0-1,.58l.15-.37c-.26.58-.5,0-.57.85a2.44,2.44,0,0,0-.1-.24c-.27.65-.38.55-.66.45s-.59-.24-.78.19l0-.2c-.11.19-.26.36-.42.22,0,0,0-.09,0-.15-.7-.61-1,.38-1.53.5l0-.37c-.13.49-.7.23-1,.52l0-.18-.1.29-.1-.34C494.17,134.9,493.85,135.31,493.45,135.47Z" transform="translate(-21.69 -4.96)"/><path class="cls-1" d="M489.26,137.09h0S489.27,137.08,489.26,137.09Z" transform="translate(-21.69 -4.96)"/><path class="cls-1" d="M481.54,139.53a.13.13,0,0,1,.06-.07C481.53,139.48,481.55,139.51,481.54,139.53Z" transform="translate(-21.69 -4.96)"/></g></g></svg>