<svg xmlns="http://www.w3.org/2000/svg" viewBox="0 0 411.59 408.98"><defs><style>.cls-1{fill:#7c90c9;}.cls-2{fill:#3867b1;}.cls-3{fill:#fff;}.cls-4{fill:#2a8eb3;}.cls-5{fill:none;}.cls-6{fill:#3dbca3;}</style></defs><g id="Layer_2" data-name="Layer 2"><g id="About_Me" data-name="About Me"><polygon class="cls-1" points="411.48 332.13 411.59 331.23 411.3 328.9 411.48 332.13"/><path class="cls-1" d="M410.82,323.18a.27.27,0,0,1,0,.17s0,.06.08.28a2.89,2.89,0,0,1,.23.3l.11.16,0,.38.82,8.73c.42-3.55-.65-6.31-.69-8.73v-.37l-.16-.24-.32-.49A.4.4,0,0,1,410.82,323.18Z" transform="translate(-0.6 -6.71)"/><path class="cls-1" d="M410.42,320.79c-.13-.88-.27-1.62-.42-2.26s-.35-1.15-.5-1.58c-.33-.86-.61-1.38-.78-1.76a21,21,0,0,1,1,3.52C410.05,320.09,410.28,321.21,410.42,320.79Z" transform="translate(-0.6 -6.71)"/><path class="cls-1" d="M279.27,70.5l1,.42A7.16,7.16,0,0,0,279.27,70.5Z" transform="translate(-0.6 -6.71)"/><path class="cls-1" d="M200.72,56.54l-.83.33c1.87-.1,3.76-.18,5.69-.25l2.9-.09,2.93.06c2,0,4,.09,5.94.18l6,.49a196,196,0,0,1,23.81,3.85L246.1,61a178,178,0,0,1,28.15,9A201.86,201.86,0,0,1,300.09,83a168.13,168.13,0,0,1,23.56,16.79q2.75,2.39,5.36,5c.87.86,1.68,1.78,2.51,2.68s1.58,1.88,2.25,2.92a30.9,30.9,0,0,1,5.46,13.73,11.29,11.29,0,0,0-.39-1.43c.27.93.39,1.94.59,3a20.13,20.13,0,0,1,.17,3.22c-.1.56-.09-.61-.18-1.31a45.09,45.09,0,0,1-.86,7.46,48.4,48.4,0,0,1-2.44,8.33,7,7,0,0,0-.63,4,9.76,9.76,0,0,0,1.69,3.36c.67,1,1.27,1.93,1.78,2.74s.91,1.56,1.21,2.15c1.31,2,2,2.79,1.47,1.56a144.53,144.53,0,0,1,17.76,44.57c.84,4,1.54,8,2,12.08s.82,8.11,1,12.16c.45,8.11.56,16.16.95,24.09,0,1.54-.17,1.82-.36,1.41.2,3.77.24,7.57.31,11.37,0,1.9.07,3.8.14,5.7l.05,1.43v.24a1.24,1.24,0,0,0,0,.16,2,2,0,0,0,.19.44,4,4,0,0,0,.65.87,1.72,1.72,0,0,0,.66.47c9.67,2.88,19.29,7.45,26.9,14.57a58.59,58.59,0,0,1,16.15,26c.56,1-.71-2.82.41-.24-.34-1.1-.68-2.16-1-3.21s-.84-2-1.27-3c-.21-.48-.41-1-.65-1.45l-.74-1.38c-.5-.92-1-1.84-1.5-2.71-1.12-1.72-2.14-3.46-3.39-5.06s-2.45-3.23-3.71-4.9l.85.68a14,14,0,0,0-1.93-2.11,2.56,2.56,0,0,0-.69-.48,2.29,2.29,0,0,1-.7-.52c-.19-.18-.44-.43-.77-.78s-.8-.75-1.36-1.3c-1.74-1.77.65.21-.21-.56A63.16,63.16,0,0,0,379,277.28a77.53,77.53,0,0,0-13.79-5.4,2.15,2.15,0,0,1-.83-.7,2.94,2.94,0,0,1-.55-1c-.07-1.34-.15-2.68-.22-4,.42-2.88.14-13.47.33-18.15-.28-3.23-.3-6.48-.64-7.7-.18-11-.37-22.11-2.24-33.17a138.86,138.86,0,0,0-9.51-32.23A151,151,0,0,0,344,159.81c-1.41-2.44-2.87-4.85-4.4-7.23l-2.28-3.49a4.57,4.57,0,0,1-.83-3.19,6.82,6.82,0,0,1,.49-1.71l.77-2c.28-.66.48-1.35.7-2s.45-1.36.61-2.07a37.34,37.34,0,0,0,1.33-8.56,32.87,32.87,0,0,0-.8-8.67,33.62,33.62,0,0,0-3.16-8.13,39,39,0,0,0-5-6.59c-1.91-2.08-4-4-6.12-5.9a164.9,164.9,0,0,0-13.84-11.08q-3.68-2.65-7.58-5.14L300,81.48c-1.31-.84-2.68-1.58-4-2.38l-4.05-2.35c-1.38-.74-2.78-1.44-4.18-2.16s-2.79-1.43-4.2-2.12l-4.31-1.9c-.15-.1-.11-.12.06-.07l-3-1.26c-1-.45-2.15-.82-3.28-1.26l-3.49-1.32L267.73,66c-.61-.22-1.23-.41-1.85-.61-2.49-.8-5-1.71-7.5-2.46l-7.33-2.13-8.14-1.48a177.19,177.19,0,0,0-44-3.8l-5.55.32-2.78.18-2.77.28-5.53.58c-1.85.24-3.68.54-5.52.81A168.53,168.53,0,0,0,155,62.3a175.85,175.85,0,0,0-41.08,17.58A183.48,183.48,0,0,0,95.3,92.38c-1.51,1.1-3,2.29-4.41,3.45l-2.18,1.76L86.58,99.4l-2.13,1.82c-.72.59-1.4,1.29-2.09,1.94a37.79,37.79,0,0,0-3.76,4.32,37,37,0,0,0-7.33,24.12c.09,1.06.22,2.12.35,3.17s.37,2.09.66,3.1a31.32,31.32,0,0,0,1,3l1.09,2.82a6.49,6.49,0,0,1,0,5,16.5,16.5,0,0,1-1.36,2.42l-1.64,2.56A149.32,149.32,0,0,0,48.54,221c-.69,7.92-.67,15.83-.69,23.75s.17,15.91.4,23.94a5.79,5.79,0,0,1-.33,2.46,2.89,2.89,0,0,1-1.66,1.4,13.34,13.34,0,0,1-1.31.46l-1.46.49-2.93,1c-1,.32-1.9.8-2.86,1.19s-1.9.79-2.83,1.26l-2.74,1.48-1.36.74c-.45.27-.88.57-1.31.85,0-.12-.46.12,1-.83a70.38,70.38,0,0,0-5.91,4l-1.4,1.07a12.27,12.27,0,0,0-1.36,1.12l-2.59,2.33a59.13,59.13,0,0,0-8.73,10.56l-.95,1.41c-.29.48-.55,1-.82,1.48l-1.64,3-1.38,3.09L5,308.79l-.56,1.59-1.11,3.18-.84,3.27-.42,1.64c-.13.55-.2,1.11-.3,1.66-.18,1.12-.37,2.23-.55,3.35l-.08-.07c-.18,1.39-.24,2.8-.37,4.21a39.68,39.68,0,0,0-.14,4.23A37.74,37.74,0,0,0,.7,336.1l.17,2.14a15.12,15.12,0,0,0,.24,2.12A54.73,54.73,0,0,0,6,356.8a62.64,62.64,0,0,0,22.6,25.69,63.7,63.7,0,0,0,15.61,7.26l2.07.59,1,.29.5.15a2.3,2.3,0,0,1,.42.14,7.18,7.18,0,0,1,2.9,2.45,5.23,5.23,0,0,1,.47.82l.48.95,1,1.92,1.11,1.83.56.91.63.86A36.21,36.21,0,0,0,61.07,407,37.68,37.68,0,0,0,68,411.67c.61.33,1.26.59,1.88.88a16.91,16.91,0,0,0,1.92.8l1.94.69,2,.54,1,.26,1,.18,2,.35,2,.18,1,.09h1a36.29,36.29,0,0,0,9.83-.89,33.33,33.33,0,0,0,9.36-3.59,36.15,36.15,0,0,0,14.2-14.39A34.79,34.79,0,0,0,120.7,387a55.86,55.86,0,0,0,.65-10.41q.06-10.42.14-21c.07-14,.06-28.17,0-42.24-.07-7-.15-14-.22-21l-.18-10.44-.2-2.59c0-.44,0-.87-.12-1.3l-.24-1.27c-.18-.85-.3-1.71-.53-2.54l-.77-2.47.21.06-.32-1-.42-.95-.84-1.89c-.58-1.26-1.35-2.41-2-3.62s-1.58-2.26-2.44-3.33L112,259.51a12.5,12.5,0,0,0-1.43-1.48,37.43,37.43,0,0,0-13.87-8.5,36.09,36.09,0,0,0-16.14-1.69c-1.36.17-2.69.45-4,.74l-1.84.41-.85.18-.21,0c-.06,0-.16.06-.13-.05v-.43l.06-7.84a152.58,152.58,0,0,1,3.16-32.18A136,136,0,0,1,87.29,178c.65-1.25,1.3-2.5,2-3.75l2.07-3.7c.74-1.21,1.47-2.42,2.2-3.64s1.47-2.5,2.52-2.77,2.43.39,3.86.73a28.82,28.82,0,0,0,4.32.8,34.18,34.18,0,0,0,8.75-.23,35.57,35.57,0,0,0,8.49-2.23,40.16,40.16,0,0,0,7.65-4.3c2.41-1.66,4.68-3.49,7-5.28q1.71-1.35,3.48-2.61l3.53-2.56a113.87,113.87,0,0,1,31-15.61c2.74-1,5.58-1.57,8.37-2.3l1.06-.26,1.06-.19,2.14-.37c1.42-.24,2.83-.54,4.26-.71l4.29-.44c.72-.07,1.43-.15,2.15-.21l2.15-.06,4.29-.13c1.42,0,2.85.1,4.27.15l2.66.15c.9,0,1.79.2,2.7.29,1.81.23,3.66.37,5.52.65l5.62.94c1.9.32,3.78.82,5.7,1.21.95.22,1.92.39,2.87.66l2.86.8c1.91.54,3.86,1,5.74,1.68l5.72,1.92c1.88.7,3.76,1.44,5.59,2.29a110.73,110.73,0,0,1,20.24,12.27c3.07,2.26,6,4.66,8.79,6.85a40.19,40.19,0,0,0,9,5.11,34.59,34.59,0,0,0,20.08,1.53l2.48-.59a3.48,3.48,0,0,1,2.21,0,4.11,4.11,0,0,1,1.53,1.63l1.29,2.16c.85,1.44,1.73,2.87,2.5,4.36s1.64,2.93,2.34,4.45a132.38,132.38,0,0,1,12.27,38,159.7,159.7,0,0,1,2,19.91c.15,3.34.16,6.69.13,10l-.06,2.52,0,1.1a2.41,2.41,0,0,1,0,.54,2.34,2.34,0,0,1-.4.37l-.09.1-.14,0-.26-.05-.54-.09-1.15-.2-2.49-.46c-13.35-2.41-27.8,3.52-35.38,14.72A33.66,33.66,0,0,0,291,280.32c-.31,3.09-.17,6.24-.2,9.37v9.39q.09,18.78.18,37.44c.06,12.44.11,24.83.08,37.15l0,4.61c0,.77,0,1.54,0,2.3l.1,2.27A36.15,36.15,0,0,0,293,391.7a37.83,37.83,0,0,0,4,8.1,40.12,40.12,0,0,0,5.91,6.85,42.19,42.19,0,0,0,7.28,4.71,39,39,0,0,0,8.34,2.95,37.8,37.8,0,0,0,18.11-.37,36.74,36.74,0,0,0,8.63-3.67,38.23,38.23,0,0,0,7.47-5.92,40.4,40.4,0,0,0,5.7-7.76l1.1-2.16.27-.54a5.39,5.39,0,0,1,.25-.48,7.24,7.24,0,0,1,.67-.9,7.4,7.4,0,0,1,1.72-1.44,4.32,4.32,0,0,1,1-.45l1.14-.33-.94,0a45.5,45.5,0,0,0,13.53-5c4.16-2.24,7.55-4.78,10.13-6.14-.24.21-.48.44-.74.63a20.9,20.9,0,0,0,3.06-2.4c.93-1,1.87-2,2.68-3s1.58-2,2.22-2.87a10.77,10.77,0,0,1,1.87-2.06l.28-.78c1.73-2.35,1.88-2.46,1.95-2.42s.08.25,1.38-1.61c.92-1.44,0-.77,1.91-3.76.34,0,.91-.85,1.58-2.08a42.78,42.78,0,0,0,2.12-4.5c1.43-3.27,2.21-6.71,2.84-6.75-.86,3.14,1.78-4.82,0,2.31a58.77,58.77,0,0,0,1.71-6.47c.55-2.56,1-4.72.67-4.37-.27-.94.33-4.8-1.66.9l.07,1.27c-.86,1.87-.56,1.45-1,2.09a44.52,44.52,0,0,1-2.45,7.63c-.75,1.74-1.64,3.12-2.87,5.6,0,0,.06-.09.05,0-.33.88-.74,1.83-1.2,2.8a31.28,31.28,0,0,1-1.57,2.83c-.53.94-1.16,1.78-1.71,2.58s-1.07,1.51-1.55,2.08l-.88.83a28.78,28.78,0,0,0-2.89,3.75c-1,1.32-1.72,2.24-1.18,1.14a54,54,0,0,1-9.16,7.78,58.35,58.35,0,0,1-11.25,5.82c-1,.43-2,.77-3,1.11s-2.06.7-3.12,1l-1.58.44-.82.24a6,6,0,0,0-1,.38,9,9,0,0,0-3,2.51,7.35,7.35,0,0,0-.56.85,5.19,5.19,0,0,0-.25.47l-.18.37-.73,1.46a29.14,29.14,0,0,1-1.6,2.82,36.23,36.23,0,0,1-3.89,5.15,18.75,18.75,0,0,1-2,2.23,19.63,19.63,0,0,1-1.51,1.33,19,19,0,0,1-1.56,1.25c-2,1.52-3.59,2.36-1.79,1.67A51.64,51.64,0,0,1,334.8,413a10.76,10.76,0,0,1-1.58.31l-1.58.26c-1,.15-2.06.18-3,.28a39.42,39.42,0,0,1-4.78-.07,2.93,2.93,0,0,1,1.12,0,82.87,82.87,0,0,1-9.69-1.84,18.87,18.87,0,0,1-8.29-4.38c-.76,0-3.94-2.4-6.71-5.72s-5-7.56-6.2-9.7c-.25-1-.17-1.44.05-1.11a33.6,33.6,0,0,1-1.87-11.53c0-4.15.06-8.32.1-12.4,0-8.17.11-16,.16-22.85-.62-11.66.28-28.22-.57-38.24.09-4.15.22-9.59.29-15.43,0-1.46,0-2.95,0-4.45s0-3,.11-4.44l.12-2.15a19,19,0,0,1,.32-2.12c.12-.7.23-1.4.35-2.09s.37-1.35.54-2l-.22,1.05a33.73,33.73,0,0,1,10.31-16.5c.62-.53,1.22-1.08,1.84-1.58l1.95-1.35,1-.66c.33-.2.67-.37,1-.55l1.93-1.07a16.27,16.27,0,0,1,1.92-.87l1.83-.79c1.21-.44,2.36-.75,3.4-1.1a14.65,14.65,0,0,1,1.5,0c.52,0,1.06,0,1.62,0s1.13-.1,1.72-.1l1.82,0h1.9l1.94.22,2,.22c.66.13,1.31.3,2,.46a25.59,25.59,0,0,0,4.55.44l.89,0c.22-.19.43-.42.67-.6A2.26,2.26,0,0,0,340,249c0-.33,0-.69,0-1l0-.87,0-1.15c0-1.56.07-3.21,0-4.92s0-3.48-.09-5.29a141.51,141.51,0,0,0-2.25-21.65c.14-2.12-2.28-10.86-2-11.64a139.24,139.24,0,0,0-11-27.59c-.61-1.14-1.26-2.25-1.89-3.39l-1-1.7-1-1.66-2.07-3.34a6.91,6.91,0,0,0-1.52-1.78,3.77,3.77,0,0,0-2.62-.72,12.31,12.31,0,0,0-2.13.45c-.62.15-1.23.34-1.86.46l-1.88.38-1.9.26a33.74,33.74,0,0,1-7.65,0,33.13,33.13,0,0,1-14.34-5.19,74.17,74.17,0,0,1-6.22-4.74c-2.07-1.66-4.15-3.31-6.27-4.9a131.91,131.91,0,0,0-13.12-8.82,83.22,83.22,0,0,0-14-6.55l.56.15a81.74,81.74,0,0,0-8.05-2l-4.15-.8c-1.37-.25-2.74-.39-4.05-.61-.49-.16-.42-.23.67,0-7.13-1.64-13.9-3-21.25-3.28.07-.09.07-.09,1.26-.14-1.73,0-3.48,0-5.27-.12s-3.61,0-5.47,0c-.93,0-1.88,0-2.83.09l-2.87.28-2.94.34c-1,.11-2,.38-3,.59l-.47-.06-2.54.55c-.84.18-1.69.35-2.52.61.09-.18.21-.59,3-1a109.06,109.06,0,0,0-22.77,7,129.92,129.92,0,0,0-20.86,11.79c-6.72,4.41-12.44,10.16-19.33,13.47a27.79,27.79,0,0,1-5.34,1.95,44.29,44.29,0,0,1-5.7,1.05,29.86,29.86,0,0,1-11.38-.8l-1.41-.42a6.72,6.72,0,0,0-1.82-.31,3.89,3.89,0,0,0-2.09.54A5.13,5.13,0,0,0,93.19,164a27.36,27.36,0,0,0-1.68,2.65L90,169.28c-2,3.53-3.87,7.1-5.51,10.8a128.31,128.31,0,0,0-8,22.87,141.56,141.56,0,0,0-3.77,23.93c-.27,4-.42,8.08-.4,12.1v11.67s0,.11,0,.12l.14,0,.27-.06.54-.11,1.07-.23-1.76.46-.23.06c-.07,0-.18.08-.15,0l0-.42,0-.87,0,1.18v.15s0,.11.06.08l.3-.07.59-.14,2.33-.55,1.67-.42,1.49-.37a43.18,43.18,0,0,1,6-.8,5.09,5.09,0,0,1-1.22.25,37.34,37.34,0,0,1,11.49,1.4,38.3,38.3,0,0,1,10.52,5,35,35,0,0,1,11.36,13l1.14,2.62c.38.87.58,1.8.88,2.69-.11,0-.94-2.15-.42-.12,1.84,5.24,1.44,9.81,1.45,13.71a51,51,0,0,0,.5,9.9c0,.53-.27.9-.36-.27.32,15.9.43,32,.38,48.17q0,12.12-.17,24.23L120,381.2a32.12,32.12,0,0,1-2.33,11.38,34.11,34.11,0,0,1-12,15.76,34.62,34.62,0,0,1-9.2,4.7,35.86,35.86,0,0,1-10.31,1.78,36.34,36.34,0,0,1-20-5.45,37.91,37.91,0,0,1-13.65-15.43l.23,0a8.19,8.19,0,0,0-2.15-2.77,7.35,7.35,0,0,0-1.46-1,7.86,7.86,0,0,0-1.67-.57,57.33,57.33,0,0,1-6.47-2l-1.6-.59a12.74,12.74,0,0,1-1.58-.64L34.69,385c-1-.45-2-1.09-3-1.64a31.48,31.48,0,0,1-2.94-1.78l-2.85-1.93c-.92-.69-1.8-1.43-2.71-2.15l-1.34-1.09-1.26-1.19c-.83-.8-1.71-1.56-2.5-2.4a65.88,65.88,0,0,1-8.46-11A62.22,62.22,0,0,1,4,349.05a56.42,56.42,0,0,1-2.23-13.76,67.37,67.37,0,0,1,1.05-13.9,62.94,62.94,0,0,1,1.55-6.79c.29-1.12.73-2.2,1.09-3.3a31.77,31.77,0,0,1,1.24-3.24,60.2,60.2,0,0,1,11.08-17.2A56.83,56.83,0,0,1,34.2,278.52l.45,0a54.65,54.65,0,0,1,9.09-3.82l2.39-.78a5.87,5.87,0,0,0,2.24-1.26,4.11,4.11,0,0,0,1.07-2.35,16.85,16.85,0,0,0,.08-2.56c-.1-6.8-.08-13.7,0-20.64s.24-13.91.61-20.82,1.16-13.76,2.2-20.49l0,1.9a63.28,63.28,0,0,1,1.79-9.43c.79-3.3,1.52-5.85.9-5.19.54-1.52,1-3,1.62-4.54a101.84,101.84,0,0,1,10.1-24.62L68.4,161l1.79-3c1.17-2,2.51-4,3.82-6a14.83,14.83,0,0,0,1.76-3.32,7.35,7.35,0,0,0,.24-3.87A21.33,21.33,0,0,0,74.64,141a39.79,39.79,0,0,1-1.4-3.94l.61,1.38a30.15,30.15,0,0,1-1.52-9.19,31.07,31.07,0,0,1,1-8.1c-.11.69,0,.38-.22,1.79l.42-1.72c.16-.57.36-1.13.53-1.69.33-1.15.83-2.24,1.26-3.36a39.75,39.75,0,0,1,3.49-6.35c.64-1,1.44-2,2.18-3,.38-.48.81-.92,1.21-1.39a18.09,18.09,0,0,1,1.28-1.35l1.33-1.29c.45-.42.94-.83,1.41-1.24l2.84-2.49a175.19,175.19,0,0,1,24.47-17.81l-1.74,1.48a123.11,123.11,0,0,1,16.44-9.14,196,196,0,0,1,19.56-7.9l-.67.42c2-.81,4-1.44,6-2.16l.26.28a203,203,0,0,1,47.26-7.78Z" transform="translate(-0.6 -6.71)"/><path class="cls-1" d="M339.42,127.56v-.17C339.38,126.89,339.39,127.13,339.42,127.56Z" transform="translate(-0.6 -6.71)"/><path class="cls-1" d="M402,358.26l1-1.73A18.65,18.65,0,0,0,402,358.26Z" transform="translate(-0.6 -6.71)"/><path class="cls-2" d="M131.09,18.64l19.72,25.15,4.08-31.72,3.63-1,8.89,32.21-2.72.75-3.87-14-3.75-14.44-4.15,31.71-2.1.58-19.76-25L135.2,37l3.89,14.12-2.72.75-8.89-32.21Z" transform="translate(-0.6 -6.71)"/><path class="cls-2" d="M197.26,6.71l2,22.72a11.7,11.7,0,0,1-1,6,9.83,9.83,0,0,1-3.79,4.2,13.51,13.51,0,0,1-6,1.88,12.1,12.1,0,0,1-8.68-2.11,10.55,10.55,0,0,1-4-7.65L173.83,8.81l2.79-.25,2,22.52a8.71,8.71,0,0,0,3,6.31,9,9,0,0,0,6.73,1.73,8.9,8.9,0,0,0,6.29-2.91,8.7,8.7,0,0,0,1.81-6.71L194.42,7Z" transform="translate(-0.6 -6.71)"/><path class="cls-2" d="M228.71,32.92A5.38,5.38,0,0,0,227,28.41q-1.84-1.72-6.94-3.5a25,25,0,0,1-7.36-3.63,7.47,7.47,0,0,1-3-6.57,7.46,7.46,0,0,1,3.53-6,13,13,0,0,1,8.19-1.91,13.48,13.48,0,0,1,5.87,1.64,9.82,9.82,0,0,1,3.85,3.82,9.36,9.36,0,0,1,1.13,5.2l-2.84-.17a7,7,0,0,0-2-5.65,9.09,9.09,0,0,0-6.15-2.45,9.86,9.86,0,0,0-6.2,1.34,5.33,5.33,0,0,0-2.54,4.32,5.08,5.08,0,0,0,1.79,4.28,19.11,19.11,0,0,0,6.36,3.23,31,31,0,0,1,6.65,3,9.64,9.64,0,0,1,3.29,3.36,7.87,7.87,0,0,1,.91,4.4A7.56,7.56,0,0,1,228,39.17a13.37,13.37,0,0,1-8.45,1.88,16.27,16.27,0,0,1-6.4-1.65,9.83,9.83,0,0,1-4.25-3.79,9.09,9.09,0,0,1-1.21-5.3l2.82.18a6.65,6.65,0,0,0,2.3,5.72,11.09,11.09,0,0,0,6.88,2.46,10.39,10.39,0,0,0,6.36-1.34A5.36,5.36,0,0,0,228.71,32.92Z" transform="translate(-0.6 -6.71)"/><path class="cls-2" d="M241.3,43.21l-2.78-.48L244.18,9.8l2.78.48Z" transform="translate(-0.6 -6.71)"/><path class="cls-2" d="M276.87,41.73A12,12,0,0,1,271,48.39a12.5,12.5,0,0,1-9,.25A11.73,11.73,0,0,1,256.21,45a12.13,12.13,0,0,1-2.73-6.31,18.75,18.75,0,0,1,.71-7.92l1.24-4.15a18.82,18.82,0,0,1,3.76-7.12A12,12,0,0,1,265,15.66a12.27,12.27,0,0,1,7,.14q5.14,1.53,7.29,5.2a12.09,12.09,0,0,1,1.18,8.7l-2.73-.81q1.42-8.46-6.43-10.81a8.78,8.78,0,0,0-7.91,1.19q-3.56,2.49-5.27,8.23L257,31.42q-1.65,5.53-.12,9.6a8.45,8.45,0,0,0,5.82,5.33q4.24,1.26,7-.12a10.18,10.18,0,0,0,4.49-5.31Z" transform="translate(-0.6 -6.71)"/><polygon class="cls-3" points="207.38 75.46 207.62 75.58 208.23 75.3 207.38 75.46"/><path class="cls-3" d="M212,81.65c-.12-.05-.06-.14-.17-.2l-2.37.76C210.48,82.72,211.31,81.31,212,81.65Z" transform="translate(-0.6 -6.71)"/><path class="cls-3" d="M212.68,81.76a1.61,1.61,0,0,0,1.51-.28C213.86,81.78,212.5,81.33,212.68,81.76Z" transform="translate(-0.6 -6.71)"/><path class="cls-3" d="M288.45,105a1.19,1.19,0,0,0-.25-.13A.74.74,0,0,0,288.45,105Z" transform="translate(-0.6 -6.71)"/><path class="cls-3" d="M306.28,116.21l.36-.11a55.6,55.6,0,0,1-5-3.65,44.15,44.15,0,0,0-5.13-3.77l.3.07a134.51,134.51,0,0,0-27-14.75c.16,0,.24,0,.41,0a6.72,6.72,0,0,1-1.59-.43c-.11-.13.2-.07.38,0-1.83-1.34-6.11-2.21-7.25-3.06-.61-.16-.94-.05-.68.22a123.25,123.25,0,0,0-24.36-6.27c-.37-.16-.42-.31-.28-.46-7.12-.5-14.4-1.75-21.65-2.32-.29.21.73.27,0,.47,2.3.44,4.29-.22,6.36.34l-.29.2c1.52.26.37-.54,1.92-.08.61.25-.18.25.11.3,1.62.16,3.27.38,4.9.55a41.88,41.88,0,0,0,4.79.38c.67.58,3.46.58,4.55,1.3.86,0,1.68.22,2.06,0,5.57,1.26,11.12,2.83,16.67,4.55L260,91.1l2.06.72,2,.81,4.07,1.64,4,1.84a35.08,35.08,0,0,1,8.08,3.77c1.36.78,2.69,1.7,4.07,2.54s2.79,1.66,4.19,2.5c0,0,0,.08-.06.08a40.81,40.81,0,0,1,6.58,4.11l2,.93,2.26,1.78,2.21,1.84c1.47,1.25,3,2.4,4.43,3.7l4.38,3.79a12,12,0,0,1,3.1,4.34A10.72,10.72,0,0,1,312,135.67a10,10,0,0,1-9.23,4.26,11.24,11.24,0,0,1-5.53-2.08,62.64,62.64,0,0,1-5-3.82c-1.6-1.35-3.28-2.65-5-3.92s-3.31-2.55-5.06-3.7a99.2,99.2,0,0,0-22.32-11.81c.06-.07-.05-.18.37,0-2.34-.9-4.54-1.86-6.71-2.78s-4.38-1.67-6.66-2.31l0-.08c-2.87-.64-5.72-1.51-8.68-2.11-1.47-.32-2.92-.72-4.41-1l-4.45-.85c-1.48-.31-3-.47-4.46-.67s-3-.43-4.44-.52a72.27,72.27,0,0,0-8.66-.23c-1.71,0-3.45-.17-5.21-.13l-5.35.09c-3.59.22-7.27.39-10.93.89a124.69,124.69,0,0,0-21.65,4.36v-.18c-5.53,1.75-10.93,3.53-16.23,5.66a93.79,93.79,0,0,0-15.36,7.69A91.22,91.22,0,0,0,122.29,133l-3.48,3a31.39,31.39,0,0,1-3.73,2.64,20.65,20.65,0,0,1-4.14,1.9,10.33,10.33,0,0,1-4.47.46,12.78,12.78,0,0,1-5.19-2.43,13.84,13.84,0,0,1-3.84-4.85,11,11,0,0,1-1.12-6.13,8.87,8.87,0,0,1,2.4-5.15A28.89,28.89,0,0,1,102.8,119l4.21-3.23c2.79-2.15,5.59-4.26,8.4-6.36A209.44,209.44,0,0,1,133,97.53c6-2.83,11.92-5.67,18.05-8a86.76,86.76,0,0,1,18.71-5.22c5.8-2,12.65-1.69,19.28-2.55l-.27-.2a9.29,9.29,0,0,0,3.76-.45c1.21-.28,2.32-.52,3.11-.08l-.25.07c1.3.4,2.89-1.36,3.7-.81l.2-.26c1.55-.15.19.27,1.39.32.45,0,.16-.46,1.1-.34.24,1,3.8-.34,3.92.82-.84,0,1.33.43-.56.7.54.11,3.12,0,2.89-.47.22-.52,1.23-1-.35-1.36l-.31.38c-.54-.37-.41-.18-.6-.46-2.07,0-2.36-.58-3.85-.75,0,0,0,0,0,0a7.09,7.09,0,0,1-3.22.23l-.33-.19c-.52-.42-2.32,1-1.73.19-4.2.42-9,.83-13.7,1.47-.62.37-3.58.48-2.48.88-1.26-.45-4.76,0-6,.24,0-.06.08-.14.29-.15-2.66-.34-2.8,1.3-5.33.83-.21.74-4.27.75-5.36,1.91-.33-.08-.46-.19-.39-.34-4.14,1.06-8.75,2.21-12.18,3.41-2.7,1.6-7.15,2.34-9.26,4.21a37.07,37.07,0,0,0-8.12,3.51l.23-.22c-3.09,1.58-6.9,3.69-8.67,5.36-1.31-.21-2.51.73-3.93,1.27-1.78,1.54-5.79,4-8.46,6.32-.67,0-2.26,1.84-2.73,1.51-3.69,3.38-7.85,6.91-12.09,10.7a13.37,13.37,0,0,0-4.24,8A14.9,14.9,0,0,0,97,136.85l-.12-.12a12.05,12.05,0,0,0,4.12,2.66c.08.13,0,.19-.22,0a24.8,24.8,0,0,0,2.48,1.71,6.89,6.89,0,0,0,2.93.95c0,.09,0,.09-.38.13,1,0,2,.15,3.13.09a6.7,6.7,0,0,0,3.19-.9l.17.09c.42-.23.83-.48,1.23-.73,0,.18.11.45-.62.7a28.59,28.59,0,0,0,5.7-3.18c.87-.62,1.73-1.31,2.54-2l2.38-2c1.58-1.32,3.25-2.55,4.88-3.83s3.32-2.48,5-3.63a112.19,112.19,0,0,1,22-12l-.5.39c.95-.53,1.93-1,2.9-1.48,0,.1-.11.19-.24.29,3.94-1.24,7.87-3,11.77-4,0,.09-.53.42,0,.37a13.27,13.27,0,0,1,3.57-.94,3.76,3.76,0,0,0,2.43-1c.14,0,.29.22,0,.37a92.79,92.79,0,0,1,12.31-2.46q3.13-.36,6.29-.68l6.29-.32c6.95-1.22,14.75-.18,22-.08l0,.18c9.45.43,19.13,3.37,28.31,6.55.95.36,1.82.67,2.66,1l2.41.94,2.42.93a26.73,26.73,0,0,1,2.62,1.12v.25a39.59,39.59,0,0,1,4.85,2c1.57.85,3.11,1.81,4.67,2.76s3.05,2,4.61,2.93c.77.47,1.55.93,2.35,1.36s1.57.89,2.38,1.29l-.58,0c1.19.22,3.48,2.56,3.6,1.64l.9.92a22.82,22.82,0,0,1,5.76,4,30.75,30.75,0,0,0,6.17,4.81l-.43-.07c1.38.81,3,1.71,4,2.28-.18,0-.13,0-.5-.07a9.44,9.44,0,0,0,7.75,1.06,12.31,12.31,0,0,0,6.49-4.65,5.71,5.71,0,0,1-.08.71,23.36,23.36,0,0,0,2.23-4.56,10.53,10.53,0,0,0,.28-5.62l.21.18a10.48,10.48,0,0,0-.67-1.61l.31-.16a11.83,11.83,0,0,0-3.77-5.32C309.55,118.84,307.9,117.56,306.28,116.21Z" transform="translate(-0.6 -6.71)"/><path class="cls-3" d="M269,93.57a.05.05,0,0,1,0,0C269.21,93.62,269.15,93.6,269,93.57Z" transform="translate(-0.6 -6.71)"/><path class="cls-3" d="M202.36,78.78c.2,0,.37,0,.54.06C202.85,78.77,202.53,78.79,202.36,78.78Z" transform="translate(-0.6 -6.71)"/><polygon class="cls-3" points="94.72 325.29 94.61 325.42 94.9 325.75 94.72 325.29"/><path class="cls-3" d="M96,334.15c0-.07.14,0,.19-.1l-.84-1.26C94.85,333.36,96.28,333.78,96,334.15Z" transform="translate(-0.6 -6.71)"/><path class="cls-3" d="M95.88,334.52c-.2.49.2.69.33.8C95.91,335.15,96.31,334.41,95.88,334.52Z" transform="translate(-0.6 -6.71)"/><path class="cls-3" d="M96.06,377.49a.89.89,0,0,0,0-.15A.16.16,0,0,0,96.06,377.49Z" transform="translate(-0.6 -6.71)"/><path class="cls-3" d="M93.87,388l.15.31c.55-1,1.23-1.87,1.8-2.88a9.1,9.1,0,0,0,1.2-3.23l.07.18a14.71,14.71,0,0,0,.49-4.2c0-1.36-.1-2.71-.17-4.06-.15-2.69-.34-5.38-.46-8.16,0,.08.13.11.17.2a2.09,2.09,0,0,1-.29-.87c.07-.07.15.09.18.19.52-1.18-.33-3.46.07-4.19,0-.34-.27-.48-.43-.3-.14-4.36-.23-9-.64-13.46a.27.27,0,0,1,.39-.2c-.84-3.79-.5-7.77-.36-11.66-.23-.14-.24.4-.47,0-.28,1.25.54,2.29.14,3.42l-.22-.15c-.13.83.54.17.27,1-.18.34-.27-.08-.29.08.09,1.75-.11,3.57.41,5.22-.46.41,0,1.89-.46,2.53.18.46.14.91.45,1.08-.25,6.13.2,12.39.16,18.67.9,2.94-.18,6.46.12,9.95a.06.06,0,0,1-.09,0,8.41,8.41,0,0,1-.1,3.95c0,.37.1.77.1,1.15a13,13,0,0,1-3.15,4.8,11.4,11.4,0,0,1-4.94,2.7,10.45,10.45,0,0,1-5.63,0,10.07,10.07,0,0,1-4.75-3,11.2,11.2,0,0,1-2.69-5.54,36.22,36.22,0,0,1-.26-6.32c0-2.16.06-4.36,0-6.59s-.29-4.45-.58-6.75c.08,0,.13-.06.17.18-.18-2.65.14-5.06-.05-7.56h.09c-.74-6.19.1-12.88-.7-18.85.08-7.26,0-15.48-.22-23.16h.17c-.37-6.15.57-12.09.29-18.23a78,78,0,0,0-.26-9.64,15.33,15.33,0,0,1,.58-4.81,9.24,9.24,0,0,1,2.44-4.12,24.3,24.3,0,0,1,5.42-3.4c2-.9,4.54-1.13,6.25-.19a14.75,14.75,0,0,1,7.41,7.62A18.17,18.17,0,0,1,97,285.05l.59,5.66c-.48,7,.78,14-.22,20.8.64,3.22-.78,6.77-.59,10.35l.22-.13c-.67,1.29.94,2.87-.06,3.67l0-.14c-.51.68,1.19,1.58.59,2l.25.11c.07.82-.29.1-.39.73,0,.24.46.09.31.59-1,.11.23,2-.92,2.08,0-.46-.44.7-.69-.31-.11.29-.06,1.67.43,1.54.52.12,1,.66,1.37-.18l-.38-.17c.38-.28.19-.21.47-.31,0-1.1.6-1.25.83-2h0c-.46-.54-.19-1.28-.12-1.7l.21-.18c.43-.25-.86-1.24-.11-.91-.19-2.23-.18-4.78-.19-7.27-.29-.35,0-1.91-.53-1.37.63-.62.79-2.47.76-3.16.06,0,.13,0,.11.16.81-1.34-.76-1.58.24-2.83-.71-.2.22-2.28-.61-3,.16-.16.3-.21.43-.15,0-2.26.26-4.75.29-6.65-.61-1.63.28-3.95-.57-5.34a13.53,13.53,0,0,0,.19-4.66l.1.15c-.05-1.82-.09-4.11-.63-5.36.82-.54.65-1.33.91-2.13-.25-.68-.28-1.69-.57-2.78a9.72,9.72,0,0,0-.47-1.63,6.87,6.87,0,0,0-.69-1.5c.12-.21-.08-.59-.26-.95s-.38-.68-.16-.86a17.71,17.71,0,0,0-7.36-5.73A15.64,15.64,0,0,0,80,271l.07-.07a9.55,9.55,0,0,0-1.64,2.35c-.09,0-.13-.08,0-.17-.85.64-2,.9-2.68,1.81-.06-.07-.06-.07,0-.26-.53.9-1.77,1.46-2,2.79h-.17a7.05,7.05,0,0,0-.15.8.37.37,0,0,1-.17-.6,16.75,16.75,0,0,0-1.59,7c0,1.2,0,2.28.08,3.4s.1,2.22.14,3.34c.2,4.47.4,9,.33,13.45l-.17-.33.31,1.73c-.09,0-.14-.09-.18-.17-.31,2.21.21,4.51.13,6.67-.09,0-.27-.34-.36,0,.49,1.59-.65,2.56.38,3.36a.22.22,0,0,1-.36,0,119,119,0,0,1,.15,13.49c.93,3.73.09,7.9.82,11.77h-.18c.65,5,0,10.33.08,15.53-.07,2.16.15,3.62.16,5.79l-.23,0c.87,3.66-.77,7.66.13,11.48l-.31-.26c.48.59-.18,2.31.65,2.08l-.24.67a8.07,8.07,0,0,1,.43,3.7,6,6,0,0,0,1,4l-.28-.1a11,11,0,0,1,.73,1.1,3.45,3.45,0,0,1,.54,1c-.07-.07-.1,0-.25-.14a5.49,5.49,0,0,0,1,1.85,8.27,8.27,0,0,0,1.66,1.4,14.35,14.35,0,0,0,4,1.67l-.41.26c.72,0,1.67.23,2.7.33a8,8,0,0,0,1.55.05,4.74,4.74,0,0,0,1.45-.22l-.08.19.85-.41.11.34A11.41,11.41,0,0,0,93.87,388Z" transform="translate(-0.6 -6.71)"/><path class="cls-3" d="M97,365.47v0C97,365.56,97,365.53,97,365.47Z" transform="translate(-0.6 -6.71)"/><path class="cls-3" d="M98.81,329c0,.1,0,.19-.07.28S98.79,329.12,98.81,329Z" transform="translate(-0.6 -6.71)"/><polygon class="cls-3" points="315.66 324.86 315.76 324.74 315.47 324.41 315.66 324.86"/><path class="cls-3" d="M315.6,329.43c-.05.06-.14,0-.2.1l.84,1.25C316.72,330.22,315.28,329.8,315.6,329.43Z" transform="translate(-0.6 -6.71)"/><path class="cls-3" d="M315.68,329.06c.2-.49-.19-.69-.33-.8C315.66,328.43,315.26,329.16,315.68,329.06Z" transform="translate(-0.6 -6.71)"/><path class="cls-3" d="M315.51,286.11c0,.05,0,.11,0,.15A.17.17,0,0,0,315.51,286.11Z" transform="translate(-0.6 -6.71)"/><path class="cls-3" d="M317.56,275.56l-.15-.3c-.13.25-.28.48-.43.72s-.27.49-.42.73c-.32.46-.58,1-.88,1.47a14,14,0,0,0-.75,1.56,8.88,8.88,0,0,0-.42,1.67l-.07-.18a15.59,15.59,0,0,0-.38,2.11c0,.7-.1,1.42-.06,2.09,0,1.36.1,2.71.17,4.05.14,2.7.33,5.38.45,8.17,0-.09-.13-.12-.16-.21a2,2,0,0,1,.28.87c-.07.08-.15-.08-.18-.18-.52,1.17.33,3.45-.07,4.19.05.33.27.47.44.29.13,4.36.22,9,.63,13.46a.27.27,0,0,1-.39.19c.84,3.8.5,7.77.36,11.65.22.15.24-.39.47,0,.27-1.25-.55-2.29-.14-3.42l.21.15c.14-.83-.54-.17-.26-1,.18-.34.27.08.29-.08a21.5,21.5,0,0,0-.41-5.22c.46-.41,0-1.88.46-2.53-.19-.45-.14-.9-.45-1.08.25-6.12-.19-12.38-.16-18.65-.89-2.94.18-6.46-.12-9.94a.06.06,0,0,1,.09,0,9.24,9.24,0,0,1-.18-1.95,6.64,6.64,0,0,1,.26-2,7.35,7.35,0,0,1-.12-1.15,12.43,12.43,0,0,1,7.87-7.77,10.75,10.75,0,0,1,5.63,0,9.65,9.65,0,0,1,4.86,2.78,10.88,10.88,0,0,1,2.74,5.5,17.47,17.47,0,0,1,.33,3.06c0,1,0,2.15,0,3.23a94.44,94.44,0,0,0,.68,13.33c-.09,0-.13.06-.17-.17.18,2.64-.14,5.06.05,7.55h-.09c.74,6.19-.1,12.88.7,18.84-.08,7.26,0,15.47.23,23.15l-.18,0c.37,6.15-.58,12.09-.3,18.23a72.89,72.89,0,0,0,.28,9.65,13,13,0,0,1-.41,4.81,9.41,9.41,0,0,1-2.39,4.15,24.76,24.76,0,0,1-5.29,3.58c-2,.94-4.49,1.3-6.24.45a11.91,11.91,0,0,1-4.52-3.06,19.79,19.79,0,0,1-2.8-4.55,21.67,21.67,0,0,1-1.68-5.22c-.24-1.85-.41-3.75-.64-5.64.47-7-.8-14,.17-20.8-.65-3.21.77-6.77.57-10.34l-.22.12c.67-1.28-.94-2.85.05-3.66l.05.14c.5-.68-1.2-1.58-.6-2l-.25-.11c-.07-.83.28-.1.38-.74,0-.24-.45-.09-.31-.59,1-.11-.23-2,.92-2.07,0,.45.44-.71.68.3.12-.28.06-1.66-.43-1.54-.51-.12-1-.66-1.36.18l.37.17c-.37.28-.19.22-.47.32,0,1.09-.59,1.24-.82,2,0,0,0,0,.05,0,.45.54.18,1.28.12,1.71l-.21.17c-.44.26.86,1.24.11.91.19,2.23.19,4.79.21,7.28.28.34,0,1.9.53,1.36-.63.62-.78,2.48-.76,3.17-.06,0-.12-.06-.1-.17-.81,1.35.76,1.58-.23,2.84.7.19-.22,2.28.61,3-.16.16-.3.21-.42.16,0,2.25-.26,4.74-.28,6.65.62,1.62-.27,3.95.58,5.34a13.55,13.55,0,0,0-.17,4.66l-.11-.16c.06,1.83.11,4.11.65,5.35-.81.57-.68,1.29-.87,2.25.44,1.36.92,4,2,5.74-.24.43.81,1.43.39,1.76.44.57.9,1.15,1.39,1.72.24.29.53.59.79.88s.58.56.89.82a13.38,13.38,0,0,0,4.24,2.4,16.21,16.21,0,0,0,9.65.07l-.07.07a9.2,9.2,0,0,0,1.57-2.4c.09,0,.13.08,0,.17.81-.68,1.93-1,2.6-1.89.07.07.07.07,0,.26.51-.91,1.72-1.48,1.92-2.81h.16a5.49,5.49,0,0,0,.15-.79c.16.08.4.22.17.59a14.72,14.72,0,0,0,1.4-7.06c-.06-2.22-.15-4.44-.25-6.68-.19-4.46-.38-9-.31-13.44l.17.33-.31-1.74c.1,0,.14.09.18.18.31-2.22-.2-4.52-.12-6.67.09,0,.26.33.36,0-.49-1.6.65-2.56-.38-3.36a.23.23,0,0,1,.36,0,121.14,121.14,0,0,1-.16-13.48c-.92-3.72-.08-7.89-.82-11.76l.18,0c-.65-5,.05-10.33-.08-15.53.07-2.16-.15-3.61-.16-5.78l.23-.06c-.88-3.64.79-7.67-.18-11.47l.31.26c-.48-.59.17-2.3-.66-2.08l.25-.67a9.1,9.1,0,0,1-.45-3.69,6.29,6.29,0,0,0-1.07-4l.27.11a12.65,12.65,0,0,1-1.28-2.11c.08.07.1,0,.26.13a5.88,5.88,0,0,0-2.76-3.19,15.09,15.09,0,0,0-4-1.5l.41-.26c-.73,0-1.67-.19-2.7-.31a8.46,8.46,0,0,0-3,.18l.08-.19-.85.43-.11-.33A11,11,0,0,0,317.56,275.56Z" transform="translate(-0.6 -6.71)"/><path class="cls-3" d="M314.56,298.13a0,0,0,0,0,0,0C314.54,298,314.55,298.07,314.56,298.13Z" transform="translate(-0.6 -6.71)"/><path class="cls-3" d="M312.76,334.55c0-.11.05-.19.07-.28S312.78,334.46,312.76,334.55Z" transform="translate(-0.6 -6.71)"/><polygon class="cls-4" points="49.12 356.44 49.09 356.32 48.84 356.54 49.12 356.44"/><path class="cls-4" d="M48.41,363.39c0,.06,0,.14,0,.2l.91-.57C49.18,362.47,48.51,363.76,48.41,363.39Z" transform="translate(-0.6 -6.71)"/><path class="cls-4" d="M48.25,363.24c-.19-.27-.43.06-.53.17C47.91,363.15,48.16,363.66,48.25,363.24Z" transform="translate(-0.6 -6.71)"/><path class="cls-4" d="M30.65,347.8l.06.06C30.7,347.81,30.68,347.8,30.65,347.8Z" transform="translate(-0.6 -6.71)"/><path class="cls-4" d="M26.87,342.46l-.32,0c.94,1,.85,2.47,1.64,3.55l-.14,0a25.59,25.59,0,0,0,5.46,7.75s-.13,0-.19,0c.18.05.43.06.52.22s-.15,0-.2,0c0,.85,1.56,1.28,1.53,1.86a.28.28,0,0,0,.43-.17,23.12,23.12,0,0,0,6.18,4.42c.06.13,0,.26-.13.39.55.15,1.09.3,1.6.49a9.79,9.79,0,0,1,1.46.7c.48.24,1,.48,1.44.74a11.64,11.64,0,0,0,1.45.74c.15-.18-.12-.29.16-.44-.55-.45-1.36,0-1.78-.6l.17-.16c-.35-.32-.32.45-.62,0-.09-.24.16-.23.09-.28-.23-.08-.45-.17-.67-.27s-.42-.24-.64-.35a3.16,3.16,0,0,0-1.41-.39c0-.48-.88-.57-.92-1.14-.3,0-.48-.18-.74,0-2.61-2.15-5.43-4.27-7.55-7.12a3.19,3.19,0,0,1-1.07-.82,5.9,5.9,0,0,1-.7-1.2c-.21-.43-.41-.88-.63-1.31a6.23,6.23,0,0,0-.73-1.28.12.12,0,0,1,.09,0,4.34,4.34,0,0,1-1.24-2l-.62-.44c-.33-1.13-.56-2.28-.91-3.39-.17-.55-.26-1.13-.42-1.69s-.32-1.12-.41-1.69a29.06,29.06,0,0,1-.53-3.45c0-.58-.13-1.16-.12-1.74s0-1.16.07-1.74a37.69,37.69,0,0,1,1.35-7.41c.58-2.38,1.28-4.68,1.82-7.28.08,0,.14,0,.11.16a11.83,11.83,0,0,1,.94-2,12.12,12.12,0,0,0,1-1.83l.07,0a15,15,0,0,1,2.84-4.57c.56-.72,1.22-1.34,1.78-2a24.8,24.8,0,0,0,1.65-2.06c.79-.67,1.66-1.32,2.53-2A29.8,29.8,0,0,1,43.41,301c.5-.26,1-.57,1.48-.8l1.55-.68a10.94,10.94,0,0,1,1.48-.55l.79-.27a2.16,2.16,0,0,1,.39-.12l0,.37-.18.2a25.07,25.07,0,0,1-.11,5,32,32,0,0,0-.18,5.27c-.4,3.65,1,7.51.48,11.19-.87,2.28,1,5.28.1,7.42-1.37,4.39-.49,8.66.33,13.06-.49,4.05.76,8.1-.23,12,.64,1.86-.79,3.91-.6,6L49,359c-.67.74.93,1.66-.06,2.12l0-.08c-.5.4,1.19.92.59,1.16l.25.06c.07.48-.28.06-.38.42,0,.14.45.06.31.35-1,.06.22,1.16-.93,1.2,0-.26-.44.4-.68-.18-.12.17-.06,1,.43.89s1,.38,1.36-.1l-.37-.1c.37-.16.18-.12.47-.18,0-.64.59-.72.82-1.18h0c-.45-.32-.18-.75-.12-1l.21-.1c.44-.15-.86-.72-.1-.53a31.74,31.74,0,0,1-.19-4.21c-.29-.2,0-1.1-.53-.78a2.27,2.27,0,0,0,.77-1.84c.06,0,.12,0,.1.1.82-.77-.75-.92.24-1.64-.7-.11.23-1.31-.6-1.72a.58.58,0,0,1,.42-.09c0-1.3.27-2.74.3-3.85-.61-.94.28-2.28-.57-3.09a4.59,4.59,0,0,0,.2-2.69l.1.09a6.17,6.17,0,0,0-.63-3.1c.82-.31.65-.77.91-1.23-.37-.7-.26-2.13-.61-3.21.38-.16-.16-.88.39-.94-1.06-3-.69-6.75.11-10l0,.05c-.3-.42-1-.9-1.35-1.33.05,0,.14,0,.13,0-.1-.58.44-1.13.34-1.72.09,0,.09,0,.18.1-.25-.55.44-1.14,0-1.79l.15,0-.21-.41c.18,0,.46,0,.4.24.17-5-.76-10.26-.63-15.45l.17.19-.3-1a.24.24,0,0,1,.17.11,4,4,0,0,0,.1-1c0-.16,0-.33,0-.49l-.06-.73a25,25,0,0,1-.16-2.69c.09-.1.27,0,.36-.39a1.46,1.46,0,0,1-.12-.37,3.15,3.15,0,0,1-.45.14,4.6,4.6,0,0,1-.69.06,1.55,1.55,0,0,0-1.32.79c-.05,0-.05-.27.11-.41l-1.45.54c-.47.22-.7.35-1,.5-.6.31-1.24.55-1.82.9s-1.2.63-1.8.93-1.15.7-1.74,1A10.56,10.56,0,0,1,39,302.81c-.41.41-.88.76-1.32,1.15a8.36,8.36,0,0,0-2.25,2.67l-.13-.13a29,29,0,0,1-2.69,3.59l-1.38,1.82A15.64,15.64,0,0,0,30,313.86a20.19,20.19,0,0,0-1.39,3.07l-.22-.07a6.56,6.56,0,0,1-1.2,3.1,5.26,5.26,0,0,0-.86,3.27l-.26-.23c.39.46-.49,1.28.35,1.34l-.33.32a2.52,2.52,0,0,1-.15,2.16,3.13,3.13,0,0,0-.34,2.37l-.19-.13a2.08,2.08,0,0,1,0,1.42c0-.06-.08,0-.12-.15a3.39,3.39,0,0,0-.3,2.4c.09.83.39,1.64.46,2.45L25,335a3,3,0,0,1,.35,1.51,8.57,8.57,0,0,0,.34,1.69l-.18,0,.33.47-.33.08a7.58,7.58,0,0,0,.6,1.89C26.41,341.25,26.61,341.86,26.87,342.46Z" transform="translate(-0.6 -6.71)"/><path class="cls-4" d="M33.64,354s0,0,0,0S33.6,354,33.64,354Z" transform="translate(-0.6 -6.71)"/><path class="cls-4" d="M50.78,363.25a.77.77,0,0,1-.07.16C50.78,363.4,50.77,363.3,50.78,363.25Z" transform="translate(-0.6 -6.71)"/><polygon class="cls-4" points="363.75 358.21 363.85 358.14 363.56 357.95 363.75 358.21"/><path class="cls-4" d="M363.69,363.69c-.06,0-.14,0-.2.05l.84.73C364.81,364.14,363.37,363.9,363.69,363.69Z" transform="translate(-0.6 -6.71)"/><path class="cls-4" d="M363.77,363.47c.2-.28-.2-.4-.33-.46C363.75,363.11,363.35,363.53,363.77,363.47Z" transform="translate(-0.6 -6.71)"/><path class="cls-4" d="M363.58,338.63a.29.29,0,0,0,0,.09A.09.09,0,0,0,363.58,338.63Z" transform="translate(-0.6 -6.71)"/><path class="cls-4" d="M362.24,332.15l-.32-.07c.56,1.21,0,2.58.24,3.86l-.11-.09a81,81,0,0,0,.64,9.46c0-.05-.13-.07-.16-.12.11.15.31.33.28.5s-.15-.05-.18-.11c-.52.68.33,2-.07,2.43a.3.3,0,0,0,.44.17,73.92,73.92,0,0,0,.64,7.78c-.07.12-.21.14-.39.11.84,2.19.5,4.49.37,6.74.22.08.23-.23.46,0,.28-.72-.54-1.32-.14-2l.22.09c.14-.48-.54-.1-.27-.59.18-.2.28.05.29,0a7.26,7.26,0,0,0-.41-3c.46-.23,0-1.08.46-1.46-.19-.26-.14-.52-.45-.62.25-3.54-.2-7.16-.17-10.79-.9-1.7.18-3.73-.13-5.75h.1a5.57,5.57,0,0,1-.22-2.4l-.38-.66c.78-4.72.23-9.54.56-14.34.22-5.44.87-10.22-.31-15.52.08,0,.13,0,.17.1-.18-1.53.14-2.92,0-4.37h.09c0-.1,0-.25-.06-.31l-.06-.19c0-.14-.06-.28-.09-.43-.05-.31-.08-.63-.1-1v-.12s0-.1,0-.07l.21.06.44.12.89.28,1.13.49c.41.18.83.31,1.23.5a19.8,19.8,0,0,0,2.45,1,41.33,41.33,0,0,1,9.7,9l-.15.09a15.81,15.81,0,0,1,1.51,2.16c.41.78.77,1.57,1.13,2.36s.6,1.63.93,2.43a24.84,24.84,0,0,0,1,2.41,19.06,19.06,0,0,0,.79,2.61l.94,2.64a21.43,21.43,0,0,1,.7,2.73,10.88,10.88,0,0,1,.1,2.79,5.13,5.13,0,0,0-.25,1.8c0,.63.16,1.29.18,1.94a14.23,14.23,0,0,1,.05,1.95,3.3,3.3,0,0,1-.56,1.67c-.28.5-.49,1-.74,1.51a15,15,0,0,0-.67,1.48c-.35,1-.78,2-1.06,3s-.67,2-.95,3.09-.69,2.1-1.11,3.14c-1.3,1.6-2.32,3.36-3.58,5a14.12,14.12,0,0,1-2,2.26c-.38.34-.76.67-1.17,1a12.18,12.18,0,0,1-1.33.73,3.14,3.14,0,0,1-1,1,9.73,9.73,0,0,1-1.39.61,14,14,0,0,0-2.85,1.17l.17.16c-.92-.21-1.08,1.56-1.91.86l0-.08c-.55-.31-.37,1.47-.82,1l0,.26c-.43.23-.16-.25-.54-.22-.12.07.11.44-.22.4-.4-.94-1.05.59-1.43-.5.24-.08-.5-.3,0-.71-.19-.06-.89.24-.7.69s-.1,1,.47,1.28v-.39c.26.31.18.14.31.39.63-.16.88.34,1.41.4,0,0,0,0,0,0,.16-.53.67-.42.94-.44l.18.16c.31.34.37-1.1.47-.33.58-.36,1.22-.69,1.89-1l1.95-1.13c.05-.33,1-.57.43-.86.63.32,1.66-.19,2-.44,0,.05,0,.12,0,.14,1.16.2.32-1.16,1.51-.85-.35-.62,1.23-.71,1-1.61a.55.55,0,0,1,.35.26c1-.94,2.3-1.77,3.06-2.65a2.7,2.7,0,0,1,1-1.38,1.85,1.85,0,0,0,.65-1.47,10.87,10.87,0,0,0,1-.86,3.14,3.14,0,0,0,.74-1.32l0,.14a12.56,12.56,0,0,0,.83-1.54,3.33,3.33,0,0,0,.28-1.54c.87.11,1-.39,1.43-.69-.05-.85.72-2.14.81-3.31.41,0,.17-.92.7-.78.13-3.31,1.33-6.81,2.36-10.18l0,.05a13.43,13.43,0,0,0-1.31-1.44c.05,0,.14,0,.14.05-.1-.59.5-1.16.36-1.77.09,0,.09,0,.18.1-.28-.56.37-1.2-.09-1.85l.14,0-.23-.41c.18,0,.46,0,.41.22a24.32,24.32,0,0,0-1.81-7.75c-.44-1.27-1.06-2.46-1.6-3.68-.28-.6-.61-1.18-.9-1.78s-.57-1.19-.9-1.77l.25.09-.78-.75a.26.26,0,0,1,.21,0c-.35-1.32-1.59-2.16-2.22-3.27.08,0,.33,0,.31-.19-1-.47-.43-1.61-1.52-1.36,0-.06.17-.23.29-.2l-.7-.72-.72-.69c-.49-.46-.94-1-1.42-1.43-1-.9-1.9-1.89-2.92-2.75a12.65,12.65,0,0,1-3.09-1.62,10.19,10.19,0,0,0-1.55-.86,5.07,5.07,0,0,0-1.67-.51l.09-.16a14.51,14.51,0,0,1-2.18-.62c-.76-.21-1.51-.46-2.33-.75l-.15,0s-.06,0-.07,0v.36l0,.59-.06,1.24c0,.92-.06,1.6,0,2.37-.07,1.25.15,2.09.16,3.34l-.23,0c.88,2.11-.79,4.43.18,6.63l-.32-.15c.49.34-.17,1.33.66,1.2l-.25.39c1.1,1.5-.51,2.72.21,4.56l-.2-.12a2.12,2.12,0,0,1,.09,1.41c0-.05-.08,0-.14-.14-.78,1.52.09,3.22.06,4.83l-.37-.18c.43.78,0,2.2.23,3.23l-.18-.06.25.51-.35,0C361.9,329.6,362.2,330.85,362.24,332.15Z" transform="translate(-0.6 -6.71)"/><path class="cls-4" d="M362.63,345.58h0S362.62,345.55,362.63,345.58Z" transform="translate(-0.6 -6.71)"/><path class="cls-4" d="M364.61,365.89h-.19C364.46,365.94,364.55,365.89,364.61,365.89Z" transform="translate(-0.6 -6.71)"/><path class="cls-5" d="M217.74,273.84v4.91c0,25.54.12,51.09,0,76.63-.14,22.84-19.82,39.28-42.2,35.53-19.71-3.31-32.76-22.6-28.84-42.61,3.8-19.34,23.85-32.26,43.05-27.73l4.1,1v-4.84q0-40.11,0-80.22c0-9.28,8.53-15.24,16.63-11.66a11.35,11.35,0,0,1,7.24,10.56c.13,3.72-.1,7.46.13,11.17a3.68,3.68,0,0,0,1.95,2.75c30.41,8.43,44.55,30,47.5,59.89.77,7.78-.65,15.85-1.74,23.7-1,7.49-7.55,11.92-14.28,10.56s-10.74-7.9-9.17-15.28c2.32-10.91,2.24-21.66-2-32.11C236,285.78,229.16,278,217.74,273.84Zm-24,81.58A11.94,11.94,0,1,0,182,367.55,12.27,12.27,0,0,0,193.77,355.42Z" transform="translate(-0.6 -6.71)"/><polygon class="cls-6" points="191.28 348.75 191.17 348.78 191.46 348.85 191.28 348.75"/><path class="cls-6" d="M192.51,356h.2c-.28-.12-.56-.22-.83-.32C191.4,355.76,192.83,355.88,192.51,356Z" transform="translate(-0.6 -6.71)"/><path class="cls-6" d="M192.42,356.06c-.2.11.2.18.33.22C192.44,356.22,192.85,356.06,192.42,356.06Z" transform="translate(-0.6 -6.71)"/><path class="cls-6" d="M187.06,365s0,0,0,0S187.05,364.93,187.06,365Z" transform="translate(-0.6 -6.71)"/><path class="cls-6" d="M184.79,367.34l.05.32a1.1,1.1,0,0,1,.84-.51,1.88,1.88,0,0,0,.9-.36v.12a7.91,7.91,0,0,0,3.42-3.13s.06.11.07.15c0-.13-.1-.32,0-.36s.09.12.1.16c.61.12.38-.93.82-.82,0-.1-.13-.27-.28-.33a6.78,6.78,0,0,0,1.19-3.35.69.69,0,0,1,.39.1c-.42-1.2,0-2,.3-3-.22-.06-.24.07-.47,0-.28.26.47.61,0,.83l-.21-.06c-.16.16.53.13.23.28s-.27-.07-.29,0c0,.42-.28.78.08,1.32-.47-.05-.17.44-.64.43.14.17.06.25.32.41-.81,1.27-1.36,2.81-2.57,3.91,0,.6-.34.83-.76,1s-.91.23-1.2.61a.2.2,0,0,1,0-.08,1.24,1.24,0,0,1-.85.69l-.12.46c-1.15.1-2.18.26-3.23.4a6.77,6.77,0,0,1-3.13-.27,12.3,12.3,0,0,1-3-1.58,16.78,16.78,0,0,0-3.06-1.62c.07-.06.09-.11.16-.09a1.94,1.94,0,0,1-.66-.74,4,4,0,0,0-.58-.77l.07-.05a2.64,2.64,0,0,1-.88-.91,5,5,0,0,1-.53-1.15,9.31,9.31,0,0,0-1-2.34,14.42,14.42,0,0,1,.81-6.24l.16.08a4.05,4.05,0,0,1,1.39-2.07,14.46,14.46,0,0,0,1.81-1.68,9.16,9.16,0,0,0,2-1.73,4.72,4.72,0,0,1,1.1-.84,3.76,3.76,0,0,1,.62-.27,3.08,3.08,0,0,1,.68-.08c.64.25,1.17-.07,1.77-.42a4.14,4.14,0,0,1,.92-.35,1,1,0,0,1,.85.27,6.9,6.9,0,0,0,1.46.8,7.2,7.2,0,0,0,1.44.42c1,.15,2.07.27,3.23.52a21.73,21.73,0,0,0,2.34,1.92,3.64,3.64,0,0,1,1.5,2.56,1.21,1.21,0,0,1,.51,1.33,3.16,3.16,0,0,0,0,1.54l.2-.1c-.54.49,1.11.56.17,1l-.05,0c-.47.26,1.25.23.68.45h.26c.11.23-.27.07-.36.26s.46,0,.33.13c-1,.13.26.57-.88.66,0-.12-.43.2-.69,0-.11.07,0,.41.46.37s1,.17,1.36-.08l-.38,0a2.63,2.63,0,0,1,.46-.11c0-.32.57-.4.78-.68h0c-.47-.13-.21-.38-.17-.52l.2-.09c.42-.15-.92-.25-.16-.27-.28-.67-.48-1.43-.73-2.16-.31,0-.19-.56-.65-.21a1,1,0,0,0,.33-1.19s.12,0,.11,0c.53-.75-.9-.1-.2-.92-.63.29-.17-.75-1-.49a.82.82,0,0,1,.33-.27c-.36-.62-.67-1.39-1-1.89-.81.05-.68-1.14-1.61-.79-.14-.38-.38-1.06-1-1.07l.1-.06a1.87,1.87,0,0,0-1.74-.38c.26-.8-.05-.78-.17-1.12-.51.16-1.19-.27-1.87-.12,0-.39-.5,0-.37-.54-1.89.51-3.61,0-5.57-.52l0,0a9.61,9.61,0,0,0-.47,1.46s0-.13,0-.14c-.27.15-.68-.3-.95-.11a.31.31,0,0,1,0-.19c-.2.32-.72-.25-.92.27l-.07-.13-.13.27c-.06-.17-.15-.43,0-.42a8.24,8.24,0,0,0-3.47,2.26,34.57,34.57,0,0,0-2.61,3.15l-.08-.18-.06.6a.23.23,0,0,1-.11-.14c-.62.41-.56,1.26-.88,1.81-.08,0-.2-.2-.33-.16.24.63-.93.48-.05,1.09a.62.62,0,0,1-.33-.14c-.19,1.4-.47,2.71-.66,4.09a3.07,3.07,0,0,1,.55,1.73,2.41,2.41,0,0,0,.68,1.62l-.17,0a6.57,6.57,0,0,1,1,2,6.64,6.64,0,0,0,1,2,6.23,6.23,0,0,0,1.18,1.17L173,364c.66.09.92.56,1.22,1.08s.7,1,1.43.87l-.24.23c.4-.33.49.49.85-.26l0,.31a.7.7,0,0,1,1.05.24.89.89,0,0,0,1.06.46l-.12.16c.27-.05.57-.1.69.11,0,0,0,.08-.11.12.56,1,1.6.27,2.35.33l-.11.37c.41-.42,1.11,0,1.61-.25l0,.18.24-.27,0,.35a2.53,2.53,0,0,0,1-.28C184.2,367.6,184.49,367.46,184.79,367.34Z" transform="translate(-0.6 -6.71)"/><path class="cls-6" d="M190.15,363.73h0S190.14,363.75,190.15,363.73Z" transform="translate(-0.6 -6.71)"/><path class="cls-6" d="M195.3,354.43l-.06.09C195.31,354.51,195.29,354.46,195.3,354.43Z" transform="translate(-0.6 -6.71)"/><polygon class="cls-6" points="216.49 268.91 216.71 269.11 217.48 269.1 216.49 268.91"/><path class="cls-6" d="M221.69,276.92c-.1-.12,0-.16-.1-.28-1-.16-1.93-.3-2.89-.39C219.64,277.17,221.09,276.24,221.69,276.92Z" transform="translate(-0.6 -6.71)"/><path class="cls-6" d="M222.38,277.38a2.37,2.37,0,0,0,1.72.59c-.24,0-.66-.25-1-.47S222.38,277.13,222.38,277.38Z" transform="translate(-0.6 -6.71)"/><path class="cls-6" d="M266.56,333.66a2.33,2.33,0,0,0,0,.37A1.18,1.18,0,0,0,266.56,333.66Z" transform="translate(-0.6 -6.71)"/><path class="cls-6" d="M266.91,307.85l-.34-.23a26.22,26.22,0,0,1,.64,7.47c-.11,2.58-.4,5.18-.58,7.71l-.07-.35c-.42,3.2-.84,6.33-1.25,9.43a13.36,13.36,0,0,1-3.49,8.24,11.63,11.63,0,0,1-8.23,3.6,11.79,11.79,0,0,1-8.65-3.47c.17.12.28.11.46.22a5,5,0,0,1-1.55-1.34c0-.19.22.09.4.23a24.41,24.41,0,0,1-2.2-4.73,8.55,8.55,0,0,1-.34-4.44c0-.76-.14-1.14-.38-.73.18-1.3.43-2.52.64-3.76s.38-2.5.53-3.77a57.61,57.61,0,0,0,.35-7.67A45,45,0,0,0,240,299.34c-.08-.47,0-.6.24-.54a66,66,0,0,0-6.34-11.3,35.23,35.23,0,0,0-9.28-9c-.39,0,.62.66-.22.41,2.13,1.68,4.43,2.51,5.93,4.58l-.38-.07c1.17,1.37.65-.12,1.74,1.44.36.67-.33,0-.11.31a36.33,36.33,0,0,1,3.48,4.65c1.05,1.63,2,3.3,3,4.87-.05,1,1.61,3.89,1.57,5.42.48.9.69,1.89,1.1,2.18a56.76,56.76,0,0,1,.89,20.65c-.21,1.76-.53,3.45-.86,5.24a15.82,15.82,0,0,0,0,5.82,13.19,13.19,0,0,0,6.7,9.32,17.28,17.28,0,0,0,5.57,1.14,13.77,13.77,0,0,0,5.91-1.06,13,13,0,0,0,5-3.86,12.73,12.73,0,0,0,2.48-5.93c0-.05.07,0,.09,0,.2-2.69.62-6.42,1.13-9.54l-.08-2.68a51.6,51.6,0,0,0,.34-14.27l-.4-3.56-.61-3.54-.31-1.77-.41-1.76-.85-3.51a77.43,77.43,0,0,0-5.21-13.51c-.5-1.1-1.18-2.12-1.76-3.18l-.9-1.58c-.32-.52-.68-1-1-1.51-.7-1-1.34-2-2.08-3l-2.28-2.84c-8.65-10.13-20.13-16.18-31.83-19.48a.38.38,0,0,1-.18-.09,2.25,2.25,0,0,1-.3-.31,3.15,3.15,0,0,1-.49-.86,1,1,0,0,0-.05-.16v0l0-.17,0-.74-.07-1.47q0-3-.11-6.07c0-1-.07-2-.17-3.14a13.34,13.34,0,0,0-.7-3.28,11.5,11.5,0,0,0-4-5.4c.08-.05,0-.2.44.15a15.5,15.5,0,0,0-4.09-2.44,14.18,14.18,0,0,0-4.52-1.05,12.83,12.83,0,0,0-4.56.7,11.88,11.88,0,0,0-3.92,2.39l0-.08a14.52,14.52,0,0,0-4.32,10.35v11c0,7.34,0,14.61.37,21.47,0,8.35,0,17.24,0,26.26,0,4.5.06,9,.08,13.56,0,2.25,0,4.51.07,6.75,0,1.12,0,2.23,0,3.35l0,1.61v1.21a1.29,1.29,0,0,1-.36-.06l-.11-.21-2.33-.5c-.86-.21-1.73-.37-2.6-.51s-1.73-.34-2.6-.42l-2.63-.2a8.16,8.16,0,0,0-1.31,0l-1.31,0a17.56,17.56,0,0,0-2.62.15c-.87.11-1.74.2-2.61.32l-2.57.56a34.88,34.88,0,0,0-17.93,10.74,32.27,32.27,0,0,0-3.47,4.33c-.5.79-1,1.58-1.47,2.39l-1.22,2.55A34.7,34.7,0,0,0,146,351.52a41.69,41.69,0,0,0,.79,11.16,48.14,48.14,0,0,0,3.71,10.39,27.22,27.22,0,0,0,9.75,11.18,53.27,53.27,0,0,0,13,6.1,36.6,36.6,0,0,0,6.41,1.39l3.29.15.82,0,.82-.06,1.64-.13A33.26,33.26,0,0,0,198.74,388a34.59,34.59,0,0,0,10-8.31l1-1.28.5-.64.44-.69c.57-.92,1.17-1.82,1.7-2.76l1.41-2.93c.44-1,.75-2,1.12-3.05a18.4,18.4,0,0,0,1-2.81,20.93,20.93,0,0,0,.75-2.9l.51-3c.08-1,.12-2,.17-3s.07-2,.05-3l-.05-3-.09-6c-.13-8-.19-15.91.32-23.71-.64-7.4.79-15.56.61-23.79l-.22.29c.67-2.95-.93-6.58.06-8.42l.05.31c.51-1.56-1.19-3.63-.59-4.58l-.25-.26c-.07-1.89.28-.22.38-1.68,0-.55-.45-.21-.31-1.36,1-.25-.22-4.63.93-4.76,0,1,.45-1.63.69.7.11-.66.06-3.84-.43-3.55-.52-.27-1-1.51-1.37.42l.38.38c-.38.65-.19.5-.47.73,0,2.52-.6,2.86-.83,4.66,0,0,0,0,0,0a9.89,9.89,0,0,1,.12,3.92l-.21.39c-.44.59.86,2.86.11,2.1.18,5.12.17,11,.17,16.71.29.81,0,4.38.53,3.14-.63,1.43-.79,5.69-.77,7.27-.06-.06-.12-.13-.1-.38-.82,3.07.75,3.64-.25,6.51.71.45-.22,5.22.6,6.85-.15.36-.3.48-.42.35,0,5.17-.28,10.89-.31,15.27.62,3.74-.28,9,.57,12.28,0,.67-.13,1.42-.24,2.21s-.2,1.67-.29,2.56-.34,1.79-.48,2.7l-.19,1.37c-.1.45-.2.89-.28,1.33v-.36c-.29,1-.5,2-.86,3s-.77,2-1.13,3c-.9,1.89-1.65,3.71-2.29,5a4.74,4.74,0,0,0-1.75,1.37c-.59.54-1.18,1.17-1.83,1.74-.18.28-.39.6-.64.92l-.91,1-1,1.06-.56.56-.64.5-1.3,1a10.19,10.19,0,0,1-1.36,1l-2.72,1.81c-.74-.09-3,1.58-3.42,1.12A30.87,30.87,0,0,1,176,389.82,30.55,30.55,0,0,1,159.22,381l.15.09a51.43,51.43,0,0,1-4.52-2.68c-.08-.15,0-.2.24.06a17.68,17.68,0,0,1-1.9-2.77c-.55-1-1-2-1.63-2.91.09,0,.09,0,.36.24-1.28-1.74-1.62-4.06-2.81-6.26l.08-.18a12.57,12.57,0,0,1-.65-1.45c.18,0,.46,0,.62.8-2.77-9.16-2-19.7,3.07-28.23a34.63,34.63,0,0,1,23.9-16.55c-.23.1-.47.17-.69.29,1.25-.3,2.52-.58,3.8-.83,0,.1-.19.13-.37.21,1.24,0,2.48,0,3.73,0,1.24.11,2.49.11,3.74.23s2.46.32,3.71.58l2.17.48,1.3.31.65.15.33.08.16.05s0-.1,0-.14a.4.4,0,0,1,.06.24l-.18.05c-.11,0,0,.17.49.27a39.68,39.68,0,0,1-.13-4c0-.77.09-1.43.13-2.06a5.32,5.32,0,0,0-.39-3.18c.05-.17.28-.29.36.09-.33-10.22-.31-20.71-.14-31-.93-8.57-.09-18.15-.82-27.06l.18.05c-.32-5.77-.31-11.71-.23-17.7,0-.74,0-1.51.06-2.24l.09-1.11.21-1.08a12.17,12.17,0,0,1,1.63-4.08,11.28,11.28,0,0,1,13.16-5A12.16,12.16,0,0,1,214.7,228l-.09.25a8.78,8.78,0,0,1,2.65,4.67,22.22,22.22,0,0,1,.22,5.66c-.08,1.92-.21,3.86-.22,5.81,0,.49,0,1,0,1.46l0,.74a2.93,2.93,0,0,0,.19.85,4.7,4.7,0,0,0,.81,1.39,2.81,2.81,0,0,0,1.4,1c1.17.31,2.29.58,3.45.81l-.67.12a10.42,10.42,0,0,1,3,.75c1,.4,1.81.67,1.72.19l1.35.8a16,16,0,0,1,2.14.55c.67.26,1.32.54,2,.84a24.27,24.27,0,0,1,3.71,2.09c1.18.83,2.44,1.6,3.72,2.52.63.47,1.29.94,2,1.4s1.48.89,2.2,1.44l-.48-.16c.78.57,1.62,1.2,2.39,1.82a9.45,9.45,0,0,1,1.89,1.82c-.17-.14-.14,0-.5-.31.92,1.23,2,2.37,3,3.54s2,2.43,3.08,3.66,2,2.57,2.91,3.9,1.75,2.74,2.48,4.15c-.2-.16-.42-.32-.65-.47a18.28,18.28,0,0,1,1.36,2.37,26.19,26.19,0,0,1,1.37,3l1.24,3.25c.42,1.07.7,2.15,1.07,3.1l-.24-.18.84,1.88-.32.15c.39,1.26.65,2.53,1,3.77l.5,1.86.39,1.86c.26,1.25.55,2.49.77,3.74Z" transform="translate(-0.6 -6.71)"/><path class="cls-6" d="M244.25,339.36a.09.09,0,0,0,0,.05C244.4,339.52,244.35,339.46,244.25,339.36Z" transform="translate(-0.6 -6.71)"/><path class="cls-6" d="M216.14,280.68c0-.24.05-.44.07-.65C216.14,280.08,216.16,280.47,216.14,280.68Z" transform="translate(-0.6 -6.71)"/></g></g></svg>