<svg xmlns="http://www.w3.org/2000/svg" viewBox="0 0 247.33 248.41"><defs><style>.cls-1{fill:#fff;}.cls-2{fill:none;}</style></defs><g id="Layer_2" data-name="Layer 2"><g id="Docs_summary" data-name="Docs summary"><polygon class="cls-1" points="115.57 248.3 115.92 248.41 116.84 248.11 115.57 248.3"/><path class="cls-1" d="M121.72,247.82c-.18,0-.09-.14-.27-.19l-3.53.84C119.5,248.94,120.68,247.5,121.72,247.82Z" transform="translate(-0.14 -0.17)"/><path class="cls-1" d="M122.76,247.91a3.3,3.3,0,0,0,2.25-.34C124.53,247.88,122.46,247.48,122.76,247.91Z" transform="translate(-0.14 -0.17)"/><path class="cls-1" d="M226.1,193.46c-.07.1-.16.25-.22.36A1.34,1.34,0,0,0,226.1,193.46Z" transform="translate(-0.14 -0.17)"/><path class="cls-1" d="M239.22,164.83l-.19-.41c-1.39,5.72-4.56,11.58-7.29,17.11l.1-.42a138.29,138.29,0,0,1-12.52,19.16A128.16,128.16,0,0,1,203.77,217c.16-.18.16-.3.33-.49a13.86,13.86,0,0,1-1.67,1.79c-.22.09.08-.27.27-.47-2.77,1.82-7.4,6.29-9.34,7.14-.72.59-.93,1-.42.84a121.57,121.57,0,0,1-16.24,9.61,137.24,137.24,0,0,1-17.69,7.2c-.6.09-.74,0-.63-.23a74,74,0,0,1-15.85,4q-4.08.62-8.18,1.15l-1,.14-.51.07a1.8,1.8,0,0,1-.41,0h-.29l-2.05,0-4.1-.06c-.42.22,1.11.24,0,.47a30.57,30.57,0,0,0,4.92-.12l1.16-.08.33,0a2.34,2.34,0,0,0,.45-.06l.58-.1a16.27,16.27,0,0,1,2.34-.24l-.37.27c2.32-.2.38-.6,2.8-.68,1,0-.19.3.25.25l7.38-1.15a48,48,0,0,0,7.06-1.89,11.77,11.77,0,0,0,3.29-.56A19.9,19.9,0,0,1,160,243a11,11,0,0,0,2.79-1.34l3.11-1,3.06-1.15c2.06-.73,4-1.66,6.06-2.52a112.33,112.33,0,0,0,11.67-6.19,128.82,128.82,0,0,0,21.1-16.1c1.4-1.54,2.81-3.21,4.4-4.8s3.17-3.29,4.76-5.06A81.29,81.29,0,0,0,226,193.4c.07,0,.09,0,.07.06.86-1.37,1.82-3.1,2.91-4.83s2.15-3.58,3.09-5.25c.4-1,.84-2,1.2-3a110.13,110.13,0,0,0,11.84-32.64c.25-1.44.59-2.88.77-4.32l.6-4.33.6-4.34.15-1.08a8.44,8.44,0,0,0,.13-1.22v-2.18l0-8.73,0-4.36v-1.09a9.66,9.66,0,0,0-.13-1.24l-.27-2.15a74.28,74.28,0,0,0-1.57-9.78c-.78-3.12-1.6-6.2-2.43-9.24s-1.7-6-2.58-9c-.45-1.49-.9-3-1.34-4.45L238.46,78a8,8,0,0,0-5.87-5.48,9,9,0,0,0-5.41.33A8.4,8.4,0,0,0,223,76.37a8.19,8.19,0,0,0-1,5.34,12.76,12.76,0,0,0,.59,2.51c.13.4.28.79.44,1.18l.43,1.07c.59,1.43,1.17,2.87,1.7,4.34,1.11,2.91,2.07,5.91,3,9-.09,0-.09.19-.29-.43A104.58,104.58,0,0,1,231,120.07l-.09,0a81.9,81.9,0,0,1,.06,13.11,98.38,98.38,0,0,1-2,13.19,138.37,138.37,0,0,1-8.1,24.71,112.52,112.52,0,0,1-18,26.26,110.24,110.24,0,0,1-25.5,20.52l0-.18a92.61,92.61,0,0,1-23.46,9.85,128.33,128.33,0,0,1-25.07,4A124.29,124.29,0,0,1,102,229.62a91.26,91.26,0,0,1-25.61-8.79l-3.46-2c-.59-.35-1.2-.66-1.81-1l-1.81-1.08-1.87-1.08-1.84-1-1.83-1-1-.53-.5-.28c-.16-.06,0-.06.07-.08l.24,0a11.7,11.7,0,0,0,2.3-.64,9.52,9.52,0,0,0,1.17-.55,7.91,7.91,0,0,0,1-.67,6.73,6.73,0,0,0,2.55-3.9,7.15,7.15,0,0,0-.37-4.4,8.09,8.09,0,0,0-2.64-3.27,14.9,14.9,0,0,0-3.59-1.74l-3.71-1.43c-2.48-.94-5-1.84-7.44-2.73-5-1.76-9.94-3.41-14.94-5a16.43,16.43,0,0,0-3.95-1,7.1,7.1,0,0,0-4.06.89A8.53,8.53,0,0,0,26,191.14a6.84,6.84,0,0,0-1,3.92,11.87,11.87,0,0,0,1,3.87l1.39,3.71,2.82,7.45q1.61,5.17,3.34,10.28l1.74,5.11c.31.83.57,1.72.91,2.51a8,8,0,0,0,1.37,2.18A6.42,6.42,0,0,0,42,232.36a7,7,0,0,0,4.69-1.48,6.73,6.73,0,0,0,2.41-4.2,5.76,5.76,0,0,0,.09-1.28,8.1,8.1,0,0,0-.06-.84l-.17-.9c-.27-1.22-.61-2.33-.91-3.47l0-.1,0-.06s.08.05.11.06l.51.35,1,.68,2,1.38,1.84,1.32,1.56,1.1c2.09,1.46,4.18,2.9,6.3,4.29,4,2,8.13,4.37,12.47,6.59a78,78,0,0,0,13.79,5.68l-.28-.31a17.8,17.8,0,0,0,5.46,1.47,10.9,10.9,0,0,1,4.47,1.23l-.38,0c1.77.93,4.58-.26,5.6.54l.34-.19c2.29.29.22.32,2,.69.67.07.33-.41,1.69-.07.14,1.06,5.63.61,5.61,1.76-1.25-.18,1.89.73-1,.56.79.23,4.64.74,4.36.21.4-.47,2-.69-.31-1.43l-.52.3c-.72-.48-.57-.27-.8-.59-3-.5-3.35-1.1-5.49-1.64,0,0,0,0,0,0a14.79,14.79,0,0,1-4.73-.58l-.43-.28c-.62-.56-3.56.2-2.51-.37a103.14,103.14,0,0,1-19.43-5.31c-1,0-4.9-2-3.71-.89-1.4-1.19-6-3.48-7.69-4.32.09,0,.19,0,.44.11-2.91-2.38-4.26-1.32-6.79-3.89-.84.35-5.3-3.38-7.34-3.82-.28-.37-.32-.56-.12-.58-.56-.38-1.13-.75-1.68-1.15L51.9,221.1,48.8,219l-1.53-1.05-.76-.51c-.25-.18-.43-.28-.64-.42q.83,3.13,1.6,6.08a8.84,8.84,0,0,1,.31,1.47l0,.65,0,.32a.62.62,0,0,1,0,.15,5.46,5.46,0,0,1-.15,1,5.2,5.2,0,0,1-1.87,3,4.12,4.12,0,0,1-2.41,1.3,4.72,4.72,0,0,1-2.92-.37,6.21,6.21,0,0,1-2.23-1.83,19,19,0,0,1-1.5-2.48,105.19,105.19,0,0,0-4-12.42l.24.38c-1.69-4.82-3.76-10.89-5.38-14a7.13,7.13,0,0,0-.23-2.78,6.79,6.79,0,0,1-.19-2.56,4,4,0,0,1,.38-2.19,6.3,6.3,0,0,1,2-2.3,5.07,5.07,0,0,1,3.08-.86,8.32,8.32,0,0,1,1.76.26l1.91.51c.64.61,4.14,1.21,4.22,1.82,6.76,1.73,14.16,4,21.63,6.54.92.32,1.92.63,2.69,1A8.11,8.11,0,0,1,67.06,201a5.46,5.46,0,0,1,1.75,4.36,5.26,5.26,0,0,1-2.06,4,5.76,5.76,0,0,1-1,.61,6.21,6.21,0,0,1-.73.34,8.54,8.54,0,0,1-1.35.4,15,15,0,0,1-1.59.31l-1.71.28-3.28.51c.24.17.39.3.72.5l.88.56L60.47,214l-.45-.22c1,.5,2,1,3,1.44l1.41.64.66.29.3.13.2.06c1.07.35,2.15.68,3.13,1,.15.14.09.21-.28,0,2.47,1.41,4.6,3.15,7.23,4.32-.06.07-.06.07-.52-.06a41,41,0,0,1,3.76,1.87,18.62,18.62,0,0,0,4.22,1.76l.11.21c.64.2,1.3.38,2,.55-.11.16-.29.38-1.28-.06a100.73,100.73,0,0,0,36.76,7.44,117.52,117.52,0,0,0,37.43-5.83l-.84.45c1.55-.57,3-1.25,4.55-1.9,0,.09-.2.22-.4.33,6-1.86,11.7-5.11,17-8.09,0,.09-.7.69.1.36a41,41,0,0,1,4.8-2.92,7.87,7.87,0,0,0,3-2.52c.2-.07.45,0,.11.36a122.35,122.35,0,0,0,26.79-27c2.67-4.57,5.5-9.35,8-14.39a76.33,76.33,0,0,0,5.93-15.61l.16.11.69-2.56.63-2.6c.2-.87.44-1.73.62-2.61l.55-2.65c.41-1.75.68-3.55,1-5.33s.58-3.6.76-5.42a92.88,92.88,0,0,0,.17-22A95.3,95.3,0,0,0,228.6,97.7l.18-.21-1.28-3.68-1.26-3.76c-.4-1.27-.85-2.54-1.3-3.81a23.71,23.71,0,0,1-1.12-3.85,7.31,7.31,0,0,1,.26-3.81,6.79,6.79,0,0,1,2.22-3,7.65,7.65,0,0,1,7.23-1,6.43,6.43,0,0,0-.76,0,3.42,3.42,0,0,1,1.51.54,5.84,5.84,0,0,1,1.44,1.32c.78,1,1.05,2,1.36,1.55.13.63.22,1.25.34,1.87,3.22,6.61,3.42,12.76,6.44,21.14l-.34-.52c.38,1.12.78,2.34,1.1,3.5a16.65,16.65,0,0,1,.56,3.16,5.86,5.86,0,0,1-.26-.67c.14,1.85.29,3.73.51,5.66.11,1,.23,1.93.38,2.91l.12.72a6.32,6.32,0,0,1,0,.67l0,1.49c.11,4,.32,8,.31,11.88l-.37-.89c.11.94.16,2.09.19,3.34s-.32,2.59-.5,4c-.42,2.79-.85,5.73-1.13,8.19l-.12-.32-.22,2.5h-.36A134.59,134.59,0,0,1,239.22,164.83Z" transform="translate(-0.14 -0.17)"/><path class="cls-1" d="M202.7,217.86l.06,0C202.89,217.68,202.82,217.74,202.7,217.86Z" transform="translate(-0.14 -0.17)"/><path class="cls-1" d="M107.71,243.78c.29.07.53.12.77.19C108.43,243.89,108,243.84,107.71,243.78Z" transform="translate(-0.14 -0.17)"/><path class="cls-2" d="M123.8,203c-4.62,0-9.25,0-13.88,0s-7.58-3-7.6-7.62c0-3-.08-5.91,0-8.85a2.15,2.15,0,0,0-1.7-2.41,64.82,64.82,0,0,1-17.59-10,2.76,2.76,0,0,0-2.43-.17c-2.62,1.34-5.12,2.92-7.69,4.36-4.23,2.36-8.2,1.33-10.63-2.83q-6.91-11.86-13.73-23.8c-2.48-4.36-1.44-8.23,2.85-10.8,2.46-1.47,5-2.78,7.41-4.36a3,3,0,0,0,1.25-2.35,58.29,58.29,0,0,1,0-20.45A2.76,2.76,0,0,0,59,111.53c-2.54-1.65-5.23-3-7.81-4.63-3.94-2.41-5-6.27-2.77-10.26q7-12.27,14.11-24.42c2.24-3.81,6.22-4.84,10.1-2.74,2.66,1.45,5.28,3,7.86,4.55a2,2,0,0,0,2.73-.16,59.82,59.82,0,0,1,17.55-10,2.12,2.12,0,0,0,1.6-2.46c-.09-3,0-6.07,0-9.1A7,7,0,0,1,109.53,45q14.35-.06,28.72,0a7,7,0,0,1,7.12,7.13c.06,3.11-.08,6.22.08,9.33a3,3,0,0,0,1.41,2.21,71.61,71.61,0,0,1,17.77,10.18,2.76,2.76,0,0,0,2.44.2c2.62-1.34,5.11-2.93,7.68-4.37,4.22-2.37,8.19-1.35,10.62,2.81q6.94,11.87,13.74,23.81c2.54,4.46,1.42,8.3-3,10.92-2.4,1.41-4.88,2.71-7.2,4.24a3,3,0,0,0-1.26,2.34,58.35,58.35,0,0,1,0,20.46,2.76,2.76,0,0,0,1.14,2.19c2.47,1.59,5.09,3,7.62,4.46,4.17,2.5,5.25,6.39,2.83,10.63q-6.84,12.06-13.85,24c-2.37,4.05-6.36,5.09-10.45,2.82-2.57-1.43-5-3-7.68-4.36a3,3,0,0,0-2.63.17,65.65,65.65,0,0,1-17.6,10,2.11,2.11,0,0,0-1.61,2.45c.08,2.95,0,5.9,0,8.85,0,4.53-3,7.5-7.46,7.53C133.21,203,128.51,203,123.8,203Zm.11-100.54a21.55,21.55,0,1,0,21.48,21.72A21.75,21.75,0,0,0,123.91,102.45Z" transform="translate(-0.14 -0.17)"/><polygon class="cls-1" points="123.76 104.17 123.82 104.28 123.97 103.99 123.76 104.17"/><path class="cls-1" d="M124.92,103.75c0-.06,0-.15,0-.2l-.63.8C124.5,104.84,124.76,103.42,124.92,103.75Z" transform="translate(-0.14 -0.17)"/><path class="cls-1" d="M125.1,103.84c.21.21.34-.18.41-.31C125.4,103.83,125.07,103.41,125.1,103.84Z" transform="translate(-0.14 -0.17)"/><path class="cls-1" d="M141.78,114.36a.15.15,0,0,0-.06,0A.06.06,0,0,0,141.78,114.36Z" transform="translate(-0.14 -0.17)"/><path class="cls-1" d="M145,119.06h.32a3.58,3.58,0,0,1-.67-1.58,5.78,5.78,0,0,0-.59-1.63l.13,0a16.35,16.35,0,0,0-5.06-6.59c.05,0,.13,0,.18,0-.17,0-.41,0-.5-.12s.14-.07.19-.06c-.07-.78-1.5-.94-1.5-1.48a.32.32,0,0,0-.4.24,15.36,15.36,0,0,0-5.95-2.76c-.07-.1,0-.24.06-.4-2,.08-3.7-.59-5.55-.94-.1.21.16.24,0,.46.54.3,1.13-.38,1.61.09l-.11.2c.36.19.18-.52.52-.19.13.2-.09.26,0,.29a5.88,5.88,0,0,0,2.48.23c0,.51.84.33,1,.85.27-.09.45,0,.65-.23,2.54,1.38,5.25,2.78,7.27,5.08a2.12,2.12,0,0,1,1,.6,6.51,6.51,0,0,1,.66,1,11.79,11.79,0,0,0,1.21,2.2.14.14,0,0,1-.08,0,3.79,3.79,0,0,1,1.07,1.71c.2.11.37.25.56.38a58.88,58.88,0,0,1,.92,6,16.63,16.63,0,0,1-.53,6,22.33,22.33,0,0,1-2.76,5.82c-1.09,1.77-2.28,3.43-3.58,5.34-.05-.07-.11-.08-.05-.18a5.3,5.3,0,0,1-.67.67l-.76.52c-.25.16-.5.33-.74.51a5.47,5.47,0,0,0-.74.52l0-.08c-.28.28-.57.53-.87.78s-.66.4-1,.59a11.85,11.85,0,0,1-2.17.91c-.73.29-1.51.4-2.24.66a15.49,15.49,0,0,0-2.19.7,24.52,24.52,0,0,1-11.36-1.83l.09-.16a10.18,10.18,0,0,1-1.08-.44c-.33-.19-.65-.4-1-.61a11.76,11.76,0,0,1-1.76-1.46c-1.11-1-2-2.21-3.13-3.26a17.41,17.41,0,0,0-1.41-1.91c-.46-.65-1-1.25-1.49-1.94a11.66,11.66,0,0,1-1.25-2.13c-.16-.38-.31-.77-.44-1.15A10,10,0,0,1,103,129a7.18,7.18,0,0,0-.61-3.23,11.42,11.42,0,0,1-.35-1.68,2.55,2.55,0,0,1,.31-1.52c.35-1,.76-1.83,1-2.73.12-.45.3-.88.41-1.32s.21-.9.35-1.34a43.75,43.75,0,0,1,1.7-5.51c1.27-1.31,2.24-2.83,3.54-4.09a9.17,9.17,0,0,1,4.51-2.79,2.62,2.62,0,0,1,1.07-.68,5,5,0,0,1,.63-.19q.35,0,.69-.06c.46,0,.92-.06,1.37-.12a4.45,4.45,0,0,0,1.31-.23l-.11-.2c.39.25.67-.08,1-.34s.57-.43.85,0l-.06,0c.4.46.62-1.3.92-.73l0-.26c.42-.13.08.27.42.35.12,0,0-.46.27-.33.13,1,1-.27,1.1.87-.22,0,.36.43-.13.7.15.11.8,0,.74-.47s.34-1-.09-1.36l-.08.38c-.15-.37-.11-.18-.17-.46-.57,0-.67-.57-1.11-.77,0,0,0,0,0,0-.26.46-.67.21-.91.17l-.12-.2c-.19-.41-.56,1-.48.18-.58.2-1.22.3-1.86.48l-1.94.53c-.09.34-1,.33-.51.75a1.87,1.87,0,0,0-1.86-.1c0-.06,0-.13,0-.14-1-.42-.45,1.06-1.5.46.22.64-1.22.4-1.12,1.32a.61.61,0,0,1-.29-.31c-.26.15-.54.3-.83.44l-.82.48a9.84,9.84,0,0,0-1.49,1,2.22,2.22,0,0,1-1,1.16,1.44,1.44,0,0,0-.7,1.28,8.76,8.76,0,0,0-1,.67,2.65,2.65,0,0,0-.75,1.15l0-.13a4.49,4.49,0,0,0-1.07,2.75c-.88-.16-.9.32-1.34.59a4.34,4.34,0,0,1-.32,1.39,7.29,7.29,0,0,0-.31,1.64c-.43,0-.14.82-.66.72.15,3-.55,6.2-1,9.38l0,0a11.9,11.9,0,0,0,1.52,1s-.13.06-.14,0c.16.51-.24,1.1,0,1.61-.09,0-.09,0-.19,0,.37.43-.19,1.16.42,1.61l-.13.08.33.29c-.18.05-.44.13-.45-.09a16.37,16.37,0,0,0,3.54,6.22,32.93,32.93,0,0,0,5.27,4.82l-.25,0c.31.1.61.21.92.3a.28.28,0,0,1-.18.1c.83.89,2.13,1.11,3.12,1.64,0,.08-.27.16-.17.32,1-.06,1,1.16,1.79.36a.35.35,0,0,1-.15.33c1.17.31,2.35.51,3.51.8s2.35.44,3.54.54a9.8,9.8,0,0,1,3.06-.53,13.35,13.35,0,0,0,1.54-.25,6.29,6.29,0,0,0,.74-.22,4.7,4.7,0,0,0,.69-.39l0,.18a35.71,35.71,0,0,1,3.67-1.5c.61-.26,1.26-.46,1.85-.78a12,12,0,0,0,1.72-1,13.49,13.49,0,0,0,2.22-2l.17.15a5.77,5.77,0,0,1,2-2.13,3.86,3.86,0,0,0,1.65-2.49l.19.29c-.25-.52.78-.93,0-1.25l.4-.17a1.85,1.85,0,0,1,.62-1.8,2.64,2.64,0,0,0,.81-1.94l.15.16c0-.44,0-1,.27-1.22,0,.06.07,0,.1.16a2.58,2.58,0,0,0,.72-2c0-.74-.06-1.48,0-2.19l.36.19a2.54,2.54,0,0,1-.12-1.37,5.08,5.08,0,0,0-.06-1.52l.17,0-.26-.45.34,0a6.31,6.31,0,0,0-.33-1.73l-.24-.83C145.19,119.61,145.08,119.34,145,119.06Z" transform="translate(-0.14 -0.17)"/><path class="cls-1" d="M139,109.06a0,0,0,0,1,0,0S139,109.07,139,109.06Z" transform="translate(-0.14 -0.17)"/><path class="cls-1" d="M122.29,100.92l.16.07C122.43,100.92,122.34,100.94,122.29,100.92Z" transform="translate(-0.14 -0.17)"/><polygon class="cls-1" points="123.66 204.72 123.94 204.82 124.64 204.53 123.66 204.72"/><path class="cls-1" d="M128.44,204.23c-.13,0-.07-.14-.2-.19l-2.73.84C126.73,205.35,127.64,203.92,128.44,204.23Z" transform="translate(-0.14 -0.17)"/><path class="cls-1" d="M129.25,204.32A2.08,2.08,0,0,0,131,204C130.62,204.29,129,203.89,129.25,204.32Z" transform="translate(-0.14 -0.17)"/><path class="cls-1" d="M194.46,162l-.14.29A.65.65,0,0,0,194.46,162Z" transform="translate(-0.14 -0.17)"/><path class="cls-1" d="M195.87,140.87l-.38.15a8.25,8.25,0,0,1,2.84,1.83,5.9,5.9,0,0,1,1.67,3,6.69,6.69,0,0,1-.23,3.46,19.87,19.87,0,0,1-1.49,3.22l.06-.33c-3.09,5.23-5.92,10.34-8.7,15.46l-4.18,7.71a8.71,8.71,0,0,1-2.91,3.33,6.63,6.63,0,0,1-4.4,1c.2,0,.27-.1.47-.11a4.28,4.28,0,0,1-1.94-.09c-.15-.12.22-.08.43,0-1.2-.54-2.82-1.42-4.39-2.23a20.28,20.28,0,0,1-3.61-2.09c-.65-.3-1-.26-.77.08l-.94-.49-.46-.23a2.11,2.11,0,0,0-.38-.11,2.27,2.27,0,0,0-1.67.3,71.44,71.44,0,0,1-10.34,6.93c-1.84,1-3.74,1.95-5.67,2.8-.48.22-1,.41-1.45.62a3.74,3.74,0,0,0-.53.26,1,1,0,0,0-.27.26.75.75,0,0,0-.13.32,3.2,3.2,0,0,0,0,.47l.07,1.5c-.08.47-.22.56-.4.43.22,2.06.36,4.15.45,6.25a11.18,11.18,0,0,1-.23,3.45,8,8,0,0,1-1.65,3.35,7.91,7.91,0,0,1-3,2.23,9.45,9.45,0,0,1-3.59.68l-6.36-.11c-.32.22.86.24,0,.47a18.24,18.24,0,0,0,3.8-.12,25.45,25.45,0,0,1,3.8-.13l-.34.26c1.06-.06,1.15-.27,1.23-.4s.19-.22,1.27-.46c.88-.2-.1.34.28.19a8.73,8.73,0,0,0,2.92-2.06,8.57,8.57,0,0,0,1.8-3.07,9.61,9.61,0,0,0,.45-3.32c-.05-1-.14-1.86-.27-2.76.46-.89,0-4.1.44-5.52,0-.24-.08-.5-.1-.71l-.06-.42a1.61,1.61,0,0,0-.16-.33c.11-.13.16-.16.48-.3l1.24-.46c.86-.32,1.72-.68,2.57-1,1.69-.75,3.35-1.57,5-2.48a65.3,65.3,0,0,0,9.22-6.22.8.8,0,0,1,.46-.17,2.1,2.1,0,0,1,.71,0,.74.74,0,0,1,.24.08l.51.26,1,.52c1.34.72,2.67,1.5,4,2.28l2.06,1.15a11.62,11.62,0,0,0,2.41,1,9.42,9.42,0,0,0,2.66.32,7.91,7.91,0,0,0,2.67-.6,10.62,10.62,0,0,0,3.86-4c.87-1.53,1.77-3,2.74-4.59,1.93-3.1,4-6.29,5.75-9.64.05,0,.08,0,.07.06a77,77,0,0,1,4.31-7.9l.91-2.35a8.77,8.77,0,0,0,1.44-5.39,7.72,7.72,0,0,0-2.74-5,15.14,15.14,0,0,0-2.3-1.6l-2.29-1.36c-1.53-.88-3.07-1.77-4.51-2.71a1.79,1.79,0,0,1-.54-.66,1.68,1.68,0,0,1-.15-.37.78.78,0,0,1,0-.34,59.93,59.93,0,0,0,0-20.48.63.63,0,0,1,0-.36,2.1,2.1,0,0,1,.18-.4,2.34,2.34,0,0,1,.62-.73c1.8-1.17,3.72-2.2,5.66-3.26.56-.31,1.11-.61,1.68-1a13.87,13.87,0,0,0,1.7-1.17,9,9,0,0,0,2.62-3.37,7.8,7.8,0,0,0,.46-4.31,12.27,12.27,0,0,0-1.43-3.8c-2.37-4.25-4.69-8.41-7.05-12.54l-3.57-6.17-1.81-3.08-.92-1.53a12.85,12.85,0,0,0-1.12-1.63,8.59,8.59,0,0,0-3.28-2.59,7.51,7.51,0,0,0-4.2-.56,10.26,10.26,0,0,0-3.8,1.43c-1.07.66-2.09,1.35-3.12,2,0-.08-.19,0,.23-.34-1.2.76-2.38,1.48-3.56,2.12a7.28,7.28,0,0,1-1.54.73,2.2,2.2,0,0,1-.72,0,1.08,1.08,0,0,1-.52-.22,48.34,48.34,0,0,0-6.77-4.66l.06-.07a107.54,107.54,0,0,0-11.23-5.25,2.28,2.28,0,0,1-1.09-1.68c-.11-2.15-.07-4.33-.06-6.52,0-1.11,0-2.15,0-3.32a8,8,0,0,0-1-3.36,7.36,7.36,0,0,0-2.39-2.54,7.6,7.6,0,0,0-3.23-1.14,24.44,24.44,0,0,0-3.21,0l-3.09.16-12.13,0h-9.43a25,25,0,0,0-3.21.11A7.43,7.43,0,0,0,105.25,46,7.08,7.08,0,0,0,103,48.42a7.78,7.78,0,0,0-.91,3.15c-.08,1.1,0,2.14,0,3.21q0,3.19.08,6.36a3.71,3.71,0,0,1-.16,1.5,1.88,1.88,0,0,1-1.06,1c-1,.39-2,.77-2.9,1.19l0-.18a77.34,77.34,0,0,0-8.79,4.64c-1.41.86-2.78,1.78-4.11,2.74-.67.49-1.33,1-2,1.49a3.28,3.28,0,0,1-.94.57,1.38,1.38,0,0,1-1,0,6.89,6.89,0,0,1-1-.56l-1-.64-2.1-1.28L72.87,69a8.34,8.34,0,0,0-5.08-1.12,7.13,7.13,0,0,0-4.6,2.51,11,11,0,0,0-1.56,2.17L60.32,74.8c-.87,1.5-1.72,3-2.57,4.54-1.68,3.06-3.34,6.17-5,9.28l-2.49,4.65L49,95.59a16.59,16.59,0,0,0-1.17,2.35,7,7,0,0,0-.09,5.07,8.74,8.74,0,0,0,3.32,3.88,80.59,80.59,0,0,0,7.78,4.8,2.83,2.83,0,0,1,.84.91,1.88,1.88,0,0,1,.32,1.21c-.73,5.59-.43,11.22-.48,15.84,0,1.49.12,3,.28,4.46a1.73,1.73,0,0,1-.32,1.13,2.86,2.86,0,0,1-.82.9c-.76.45-1.58.91-2.39,1.35-1.61.88-3.26,1.72-4.87,2.66a9.5,9.5,0,0,0-4.13,4.12,7.36,7.36,0,0,0,0,5.84,15.07,15.07,0,0,0,1.34,2.52L50,155l3,4.69c2,3.12,4,6.24,6,9.39,1.24,2.29,2.49,4.59,3.81,6.79a7.78,7.78,0,0,0,2.69,2.6,6.08,6.08,0,0,0,3.57.75c2.5-.22,4.59-1.88,6.82-3.16,1.1-.67,2.21-1.34,3.34-2l.86-.46a2.76,2.76,0,0,1,1.08-.37,3.82,3.82,0,0,1,1.12,0,2.38,2.38,0,0,1,1.1.46A98.21,98.21,0,0,0,95,181.49c1.63.63,3.26,1.32,4.94,2,.42.18.83.34,1.27.56a2.34,2.34,0,0,1,1.09,1,2.74,2.74,0,0,1,.18,1.46l-.09,1.4c-.14,1.88-.28,3.78-.39,5.7a20.52,20.52,0,0,0,0,2.94,7.8,7.8,0,0,0,.86,2.93c0-.12,0-.24.07-.36A3.84,3.84,0,0,0,104,201.1a5.75,5.75,0,0,0,2,1.16c1.4.47,2.64.47,3.5,1l-.3,0c1.51.57,3.43-1.18,4.34-.56l.24-.25c1.78-.07.21.28,1.58.38.52,0,.2-.45,1.28-.31.23,1,4.37-.22,4.49.93-1,0,1.53.45-.66.69.62.11,3.61.06,3.34-.43.26-.52,1.42-1-.39-1.37l-.37.38c-.61-.38-.46-.19-.68-.47-2.37,0-2.69-.6-4.39-.83,0,0,0,0,0,0a9,9,0,0,1-3.7.12l-.36-.21c-.56-.44-2.71.86-2,.11l-1.84.06a9.84,9.84,0,0,1-1.65-.09,5.72,5.72,0,0,1-2.89-1.28,5.52,5.52,0,0,1-1.68-2.74,8.2,8.2,0,0,1-.25-1.73c0-.57,0-1.31,0-2-.28-.75,0-4.1-.52-2.94a11.79,11.79,0,0,0,.64-3.34c0-.35,0-.69.08-1a4.13,4.13,0,0,0-.15-1.47,3.31,3.31,0,0,0-1.65-1.95c.11,0,.23,0,.56.24a5.65,5.65,0,0,0-1.95-1.2,10.27,10.27,0,0,0-1.28-.31,4.24,4.24,0,0,1-2.59-1.34c-.34.23-1.4-.33-2.56-1A9.62,9.62,0,0,0,90.91,178c-.2-.3-.22-.48,0-.53-1.18-.71-2.36-1.51-3.47-2.33-.56-.42-1.11-.83-1.62-1.24l-1.54-1.26a3.82,3.82,0,0,0-1.49-.69,5.46,5.46,0,0,0-1.31-.12,3.8,3.8,0,0,0-.66.07,3.86,3.86,0,0,0-.74.2l-.34.15-.18.09-.35.17c-.93.46-1.76.91-2.52,1.34a19.78,19.78,0,0,1-2.37,1.65c-.43.27-.88.52-1.32.77s-.92.5-1.3.67a12,12,0,0,1-4.27,1,6.15,6.15,0,0,1-2.82-2.25c-.21-.3-.42-.61-.61-.94l-.67-1.15c-.47-.78-1-1.55-1.47-2.27l.26.25c-2-3.4-4.53-7.66-6.35-9.74.13-1.42-.87-2.82-1.49-4.43-.83-1-1.88-2.74-3-4.59-.54-.9-1.22-1.94-1.65-2.73a8.79,8.79,0,0,1-.9-2.5c.19-.26.11-.89.24-1.47s.38-1.08.65-1a6.29,6.29,0,0,1,1.87-2.48c.22-.19.47-.36.71-.54l.82-.55,1.71-1.08c1.17-.73,2.39-1.45,3.6-2.22l.91-.6a5.85,5.85,0,0,0,.54-.38,3.32,3.32,0,0,0,.53-.53,5,5,0,0,0,.72-1.2,2.93,2.93,0,0,0,.24-1.63,48.07,48.07,0,0,1,.74-19.88A3.21,3.21,0,0,0,62,113a2,2,0,0,1,.08.33,3.43,3.43,0,0,0-.35-1,3.87,3.87,0,0,0-.52-.76,4.49,4.49,0,0,0-1.48-1.13l-2.7-.77c-.11-.12,0-.19.24,0-2-1-3.5-2.49-5.4-3.53.06-.07.06-.07.41,0a5.55,5.55,0,0,1-2.2-1.79,13.31,13.31,0,0,1-1.42-2.44l.12-.13a4.5,4.5,0,0,1-.32-1.21c.2,0,.41.09.43.7a5.68,5.68,0,0,1,.41-2.72,11.66,11.66,0,0,1,.68-1.38l.89-1.55,3.53-6.23,7-12.62,1.75-3.18.44-.79c.14-.22.27-.46.42-.67a7.19,7.19,0,0,1,1-1.17,5.61,5.61,0,0,1,2.67-1.37,6.35,6.35,0,0,1,3.08.21,9.42,9.42,0,0,1,1.51.65l1.58.89L77,73.11l3.16,1.83a4.2,4.2,0,0,0,1.17.45,2.54,2.54,0,0,0,1.31-.11,3.66,3.66,0,0,0,1.09-.62l.71-.57-.43.57c.88-.86,1.8-1.69,2.74-2.5,0,.08-.08.23-.2.36,4-2.52,8-5.33,12.33-7,0,.09-.56.52.07.36a10.9,10.9,0,0,1,2.1-1,5,5,0,0,0,1.24-.58,3.05,3.05,0,0,0,1-1.08,3.65,3.65,0,0,0,.35-1.25,5.48,5.48,0,0,0,0-.91,3.11,3.11,0,0,0-.43-1.36c0-.16.28-.28.36.07q-.14-3.59-.21-7.22A6.29,6.29,0,0,1,105.88,47a6.39,6.39,0,0,1,3-1.05c.52,0,1.13,0,1.75,0h1.83l7.3.09a113.1,113.1,0,0,1,12.62-.48h6.43a7.06,7.06,0,0,1,5.2,2.66l-.18.07a6.7,6.7,0,0,1,1.24,2.92,26.37,26.37,0,0,1,.17,3.35c0,2.27,0,4.57.09,6.88a3,3,0,0,0,.48,1.38,2.4,2.4,0,0,0,1.07,1,80.71,80.71,0,0,1,15,8.31l2.56,1.92a2.35,2.35,0,0,0,1.24.45,3.31,3.31,0,0,0,1.25-.09,21.06,21.06,0,0,0,2-1.09l4.1-2.47.21.14a20.13,20.13,0,0,1,2.5-1.62,7.4,7.4,0,0,1,2.88-.82A6.28,6.28,0,0,1,183.87,71a14.28,14.28,0,0,1,1.61,2.61c.5.93,1,1.86,1.53,2.77a51.14,51.14,0,0,0,3.39,5.25l-.56-.33c1.06.86,2.35,4.4,2.82,3.57l.51,1.38a30.22,30.22,0,0,1,4.24,6.86l1.9,3.78a10.42,10.42,0,0,1,1.17,4.56l-.16-.46a5.5,5.5,0,0,1-.57,2.74,5.58,5.58,0,0,1-1.58,1.9c.13-.17,0-.14.28-.49a33.64,33.64,0,0,1-4.78,2.88,50,50,0,0,0-5,3.18,3.43,3.43,0,0,0-1,1.21,2.27,2.27,0,0,0-.29,1.51c.26,1.23.46,2.44.6,3.66l-.45-.64a24.76,24.76,0,0,1,.62,5.64c0,2.17-.11,4.45-.18,6.36l-.15-.25c0,.65,0,1.3.05,2h-.35c-.14,1.18-.3,2.29-.47,3.43a2.41,2.41,0,0,0,.37,1.59,3.17,3.17,0,0,0,1,1.13C191,138.3,193.45,139.47,195.87,140.87Z" transform="translate(-0.14 -0.17)"/><path class="cls-1" d="M177.11,179.49l0,0C177.32,179.52,177.24,179.5,177.11,179.49Z" transform="translate(-0.14 -0.17)"/><path class="cls-1" d="M117.36,201.39l.61.07C117.92,201.39,117.55,201.41,117.36,201.39Z" transform="translate(-0.14 -0.17)"/><polygon class="cls-1" points="199.79 25.22 199.56 24.93 198.65 24.64 199.79 25.22"/><path class="cls-1" d="M194.59,22.5c.11.14,0,.17.11.32l3.42,1.31C197.09,22.83,195.27,23.35,194.59,22.5Z" transform="translate(-0.14 -0.17)"/><path class="cls-1" d="M193.77,21.84a3.15,3.15,0,0,0-2.08-1C192.29,20.84,193.78,22.37,193.77,21.84Z" transform="translate(-0.14 -0.17)"/><path class="cls-1" d="M77.67,9l.39-.18A1.19,1.19,0,0,0,77.67,9Z" transform="translate(-0.14 -0.17)"/><path class="cls-1" d="M51,25.74l-.06.45c4.29-4,10.14-7.2,15.45-10.32l-.31.3c3.44-1.89,6.93-3.48,10.41-5s7-2.85,10.6-4a121.25,121.25,0,0,1,22.27-5.09c-.23,0-.31.15-.55.21a13.28,13.28,0,0,1,2.39-.51c.23,0-.22.16-.49.22A55.81,55.81,0,0,0,117,1.55c1.13-.11,2.22-.22,3.16-.28a10.09,10.09,0,0,1,2.25.08c.92-.06,1.33-.28.81-.45a128.69,128.69,0,0,1,37.52,5c.55.26.61.43.39.55A82.49,82.49,0,0,1,176.58,12c1.25.59,2.47,1.25,3.7,1.88l1.84,1,1.8,1c1.19.7,2.4,1.39,3.57,2.1L191,20.21c.48,0-.83-.79.21-.42a27.21,27.21,0,0,0-4.29-2.5,22.87,22.87,0,0,1-4.12-2.3l.46,0c-2-1.26-.66.24-2.68-1.12-.77-.59.34-.13-.05-.35l-3.37-1.68-3.44-1.54a46.9,46.9,0,0,0-6.88-2.45,10.4,10.4,0,0,0-3.06-1.34,26.58,26.58,0,0,1-3.57-1.43,12.85,12.85,0,0,0-3.07-.44A105.47,105.47,0,0,0,131.24.31a139.78,139.78,0,0,0-26.48,1.43c-4,1.07-8.51,1.86-13.13,3A78.34,78.34,0,0,0,77.7,9.13c-.08,0-.08,0,0-.09-1.47.66-3.23,1.56-5.09,2.42L67.1,14.11,64.43,16A107.55,107.55,0,0,0,36.72,36.88a140.44,140.44,0,0,0-21.4,27.74C2,87.68-2.51,112.34,1.61,137.88c-.09,0-.11.19-.24-.46.31,1.84.58,3.64.82,5.42s.48,3.55.86,5.28a75.81,75.81,0,0,0,2.83,10.12H5.79c.75,2,1.52,4.1,2.29,6.17l1.13,3.12.54,1.57c.18.51.35,1,.6,1.63a7,7,0,0,0,2.34,2.82,7.68,7.68,0,0,0,3.39,1.31,8.65,8.65,0,0,0,3.61-.27,7.73,7.73,0,0,0,3.13-1.85,7.5,7.5,0,0,0,1.92-3.09,7.88,7.88,0,0,0,.25-3.6,15.29,15.29,0,0,0-.95-3.34l-1.17-3.06c-1.51-4.09-2.83-8.16-4-12.17a106.24,106.24,0,0,1-2.58-31.68,108.93,108.93,0,0,1,7.13-31.92l.15.11A91.88,91.88,0,0,1,35.84,61.73c2.54-3.37,5.22-6.63,8.09-9.74s5.87-6.1,9.08-8.94A135.58,135.58,0,0,1,75.12,27.77a88.3,88.3,0,0,1,25.39-9.33c5.47-.77,11.71-1.94,18-2.49a61.64,61.64,0,0,1,17.67.54,145.82,145.82,0,0,1,25.07,7c4,1.54,8,3.21,11.87,5.12s7.76,4,11.58,5.85l.32.16.16.08s-.07.07-.1.11a4.09,4.09,0,0,1-.51.4,5.25,5.25,0,0,1-1.2.56,8.91,8.91,0,0,0-2.5,1.21A7.16,7.16,0,0,0,180,47.77a7.34,7.34,0,0,0,3.11,1.67l3.49,1.15,14,4.47,6.93,2.24,3.45,1.13,1.71.58a13.45,13.45,0,0,0,1.67.49,6,6,0,0,0,3.26-.26,7.45,7.45,0,0,0,2.75-1.92A6.85,6.85,0,0,0,222,54.41,7.11,7.11,0,0,0,222,51c-3.43-8.34-5.25-18.24-8.59-27.69l-.1.41A12.13,12.13,0,0,0,212.6,21a8.94,8.94,0,0,0-1.36-2.55,24.41,24.41,0,0,0-3.53-3.09l.39.11a3.51,3.51,0,0,0-3.13-.29c-1,.32-1.75.81-2.36.73-.06.12-.13.22-.18.34-1,.49-1,.53-1.07.44s-.07-.23-.79.27c-.45.48.08.45-.85,1.37-.51-.22-1.3,1.05-1.56,2.42s-.09,2.73-.65,2.9c0-.67-.14-.14-.22.2,0,.17-.1.3-.2.18a2.82,2.82,0,0,1-.33-1.27,5.67,5.67,0,0,0,.06,1.22,9.49,9.49,0,0,0,.4,1.57c.33,1,.69,1.83.88,1.6.59.19,1.41,1.52,1.19-.84l-.48-.36c.16-.85,0-.63.23-1a4.64,4.64,0,0,1,0-2.9,12.26,12.26,0,0,1,.93-1.92s0,0,0,0a3,3,0,0,1,.87-1.84,5,5,0,0,1,1.52-1,3.17,3.17,0,0,1,.44,0c.33.06.87-.35,1.39-.62s.88-.39.53,0a5.39,5.39,0,0,1,3.68.86,6.13,6.13,0,0,1,2.44,3.34c1.1,3.26,2.22,6.61,3.33,9.91.58.84,1.67,5.07,1.71,3.45,0,1.86,1.45,6.83,2.08,8.65-.08,0-.17-.1-.24-.39.41,3.8,2.12,4,2.28,7.6.21.06.44.52.65,1.08a5.34,5.34,0,0,1,.29,1.86,12.79,12.79,0,0,1-1,3.51c-.36.18-.55.17-.55,0a5.32,5.32,0,0,1-3.12,1.8,4.83,4.83,0,0,1-1.77-.09c-.53-.12-1.35-.45-2.1-.71-3-1.08-5.9-2.12-8.43-3-4.52-.86-10.38-3.76-14.37-4.2-1.51-.6-3.48-1.4-5.63-2.19-.51-.19-1.16-.41-1.49-.56a5.89,5.89,0,0,1-2.81-2.7,3,3,0,0,0,.24.26,5.55,5.55,0,0,1,.49-5.86,6.32,6.32,0,0,1,1.08-1.11c.19-.16.41-.3.61-.44l.16-.1.25-.13a6.37,6.37,0,0,1,.72-.29c.49-.18.88-.38,1.28-.56a6,6,0,0,0,.87-.55A11.37,11.37,0,0,0,186.55,35a3,3,0,0,0,.65-.32l.46-.32a23.42,23.42,0,0,0-3.25-2.19l-1.07-.64-.55-.32-.22-.13-.14-.1c-.38-.24-.76-.5-1.14-.77-3.15-1.32-9.21-4.84-14.23-6.59-.59-.68-4.07-1.55-4.14-2.13a162.54,162.54,0,0,0-23.37-5.66,130.54,130.54,0,0,0-24.77-1.53l.22-.06c-2,.51-4.31,1.35-6.3,2.07-.21,0-.2-.11.24-.17-2.83.48-5.56.45-8.36,1.15,0-.09,0-.09.44-.28a29.82,29.82,0,0,1-4.11.88,23.81,23.81,0,0,0-4.39,1.28l-.21-.08-1.87.82c0-.19,0-.47,1-.75A103.52,103.52,0,0,0,58.25,36.5,117.18,117.18,0,0,0,32.53,64.28l.38-.87c-.87,1.4-1.61,2.87-2.39,4.31-.06-.07,0-.29.11-.51-3.55,5.19-6,11.27-8.29,16.9-.07-.06.11-1-.3-.22a41.94,41.94,0,0,1-1.94,5.26A7.8,7.8,0,0,0,19.3,93c-.11.19-.37.26-.31-.21a120.69,120.69,0,0,0-4.07,37.77c.83,5.23,1.66,10.72,2.91,16.19a79.38,79.38,0,0,0,5.22,15.85l-.19,0a12.31,12.31,0,0,1,1.33,5,6.46,6.46,0,0,1-2.05,4.66,7.17,7.17,0,0,1-9.69,0A6.11,6.11,0,0,1,11,170.05c-.3-.84-.55-1.74-.84-2.6l-1.71-5.23c-1.15-3.48-2.29-6.95-3.26-10.45-.74-2.92-1.3-5.37-1.69-7.87l-.61-3.82c-.18-1.32-.48-2.68-.57-4.2l.22-.18c-.22-1.26-.4-2.54-.55-3.84a36.71,36.71,0,0,1-.3-3.94c0-1.33,0-2.67,0-4s0-2.7.11-4c.32-5.42.89-10.83,1.26-16.15l.19.77c-.21-1.7,1.21-6.31.31-5.85l.67-1.78a37.43,37.43,0,0,1,.82-5.22C5.53,90,6.11,88.37,6.7,86.72c.31-.82.58-1.67.93-2.51s.72-1.7,1.08-2.59c.73-1.77,1.32-3.72,2.14-5.79l-.06.61a37.13,37.13,0,0,1,2.81-6.26,4.06,4.06,0,0,1-.21.69C17.4,64.64,21,57.27,25.78,51l-.26.91A69.35,69.35,0,0,1,30,46.08c1.88-2.1,3.91-4.26,5.49-6.17l-.08.34c.51-.67,1.06-1.3,1.58-2l.3.19A131.79,131.79,0,0,1,51,25.74Z" transform="translate(-0.14 -0.17)"/><path class="cls-1" d="M110.71,2h-.07C110.46,2,110.55,2,110.71,2Z" transform="translate(-0.14 -0.17)"/><path class="cls-1" d="M200.27,19.63c-.12.2-.24.36-.33.53C200,20.14,200.17,19.8,200.27,19.63Z" transform="translate(-0.14 -0.17)"/></g></g></svg>