<svg xmlns="http://www.w3.org/2000/svg" viewBox="0 0 386 411.12"><defs><style>.cls-1{fill:#fff;}.cls-2{fill:#3867b1;}.cls-3{fill:#88606a;}.cls-4{fill:#e2dc9e;}.cls-5{fill:#e4aa24;}.cls-6{fill:none;}.cls-7{fill:#329c47;}.cls-8{fill:#6758a1;}.cls-9{fill:#ed1c24;}</style></defs><g id="Layer_2" data-name="Layer 2"><g id="About_Me" data-name="About Me"><polygon class="cls-1" points="149.47 411.02 150.37 411.12 152.72 410.83 149.47 411.02"/><path class="cls-1" d="M164.9,417c-.45-.06-.23-.14-.69-.2l-9.06.84C159.2,418.13,162.23,416.69,164.9,417Z" transform="translate(0 -6.65)"/><path class="cls-1" d="M167.57,417.09a20.54,20.54,0,0,0,5.79-.33C172.13,417.07,166.81,416.67,167.57,417.09Z" transform="translate(0 -6.65)"/><path class="cls-1" d="M385.65,240.84l0,1.09A8.58,8.58,0,0,0,385.65,240.84Z" transform="translate(0 -6.65)"/><path class="cls-1" d="M373.24,161.84l-.62-.65a133.07,133.07,0,0,1,8.27,22.11,102.42,102.42,0,0,1,3.81,23.89l-.15-1.07c.4,20.16.3,39.7-3.28,58.77a172.11,172.11,0,0,1-20.13,55c.28-.56.31-.79.59-1.37a51.05,51.05,0,0,1-3,5.51c-.35.44.2-.6.54-1.21-.61.87-1.27,1.86-2,2.92L355.05,329c-1.52,2.37-3.31,4.79-5,7.19s-3.43,4.59-4.94,6.48-2.87,3.39-3.8,4.33c-1.54,1.82-2.12,2.73-1.09,1.86a181.64,181.64,0,0,1-36.54,31.59c-1.74,1.09-3.42,2.27-5.19,3.3l-5.3,3.13c-3.6,2-7.18,4-10.88,5.71a215,215,0,0,1-22.41,9.48c-1.48.44-1.79.4-1.45.09a202.57,202.57,0,0,1-19.84,6.26c-6.76,1.83-13.67,3.28-20.64,4.47s-14,2.07-21.08,2.67q-5.28.45-10.58.69a10.86,10.86,0,0,0-2.37.37l-.65.15-.8.17h-1.44l-5.25,0c-1.07.22,2.85.23.1.46,1.12,0,2.23.06,3.31.06h1.6l1.78,0,.56-.12.39-.1.75-.2c.48-.13.93-.23,1.34-.3s.89-.09,1.4-.14l1.51-.13c4-.36,7.93-.78,12-1l-1,.32c6-.5,1.15-.63,7.33-1.1,2.44-.13-.57.35.56.22,12.57-1.69,25.62-4.17,37-7.86,3-.31,13.1-3.77,17.62-5.06a55.2,55.2,0,0,0,7.17-3.18,194.45,194.45,0,0,0,30-14.76,176.06,176.06,0,0,0,27.09-20.14,184.33,184.33,0,0,0,41.11-53.81,235.67,235.67,0,0,0,12-32.34,172.93,172.93,0,0,0,6.11-36.92c0-.17.07-.14.09,0,.36-8.23.38-20.19.33-30-.15-2.76-.36-5.55-.72-8.3a91.55,91.55,0,0,0-4-21.83,173,173,0,0,0-63.28-90.39,177.48,177.48,0,0,0-82.68-33.28A262.81,262.81,0,0,0,192,54.94a235.05,235.05,0,0,0-42.57,5.42c-3.51.77-7,1.66-10.48,2.58s-6.94,2-10.37,3.13l-5.16,1.67-2.8.9-2.09.65-.52.16-.13,0a.69.69,0,0,0,0,.13l.1.25.41,1q2.19,5.39,4.41,10.82l.29.73.78,0,.55,0a3.41,3.41,0,0,0,.82-.1l1.2-.38,2.31-.76,4.59-1.56c1.54-.54,3.12-1,4.69-1.48s3.16-1,4.76-1.41c-.06.1.47,0-1.17.48,18.32-5.11,35.64-7.19,53.5-7.89l-.06.09c5.55-.27,11.16-.23,16.81-.07,2.82.15,5.66.23,8.49.48l4.26.34,4.25.45a171.58,171.58,0,0,1,33.6,7,162.73,162.73,0,0,1,57.94,32.75A182,182,0,0,1,347,140.51a166.27,166.27,0,0,1,19.37,37c1.21,3.32,2.36,6.66,3.36,10.05a64.93,64.93,0,0,1,2.39,10.3c1,7,1,14.11,1,21.18.26,14.14-.42,28.27-3.08,41.86l-.15-.16c-.5,2.72-1.11,5.41-1.78,8.09s-1.51,5.29-2.29,7.92c-1.48,5.3-3.53,10.39-5.41,15.52a182.42,182.42,0,0,1-15.06,28.92,164.36,164.36,0,0,1-45.73,46.17,195.41,195.41,0,0,1-30.19,16.41c-2.61,1.26-5.33,2.26-8,3.35s-5.39,2.18-8.16,3.11c-5.49,1.94-11.08,3.68-16.74,5.15-22.64,6-46.22,8.35-69.12,8.34-14.17-.27-30.6-1.24-46.41-4.9a142.33,142.33,0,0,1-22.72-7.17,97.36,97.36,0,0,1-19-10.34,93.09,93.09,0,0,1-27.62-29.39A103,103,0,0,1,43.2,333.6a80.22,80.22,0,0,1-4.48-19.5,49.76,49.76,0,0,1,2.18-19.76A67.83,67.83,0,0,1,50,276.41c1.92-2.78,4-5.46,6.15-8.07a65.07,65.07,0,0,1,6.9-7.48,37,37,0,0,1,8.49-5.69,35.39,35.39,0,0,1,4.8-1.88c.81-.25,1.67-.47,2.47-.69s1.6-.52,2.39-.83c1.31-.48,2.59-1.05,3.87-1.62l1.91-.85,1.64-.7c-.18-.35-.41-.72-.61-1.08l-.7-1.2-1.51-2.59-2.91-5-1.72.61L79.2,240c-1.29.44-2.57.89-3.83,1.4s-2.46,1.12-3.7,1.7L68,244.87c-2.46,1.15-4.9,2.34-7.24,3.71a44.27,44.27,0,0,0-6.58,4.71,68.54,68.54,0,0,0-10.88,12A143.67,143.67,0,0,0,34.6,278.9a60.67,60.67,0,0,0-8.31,30.5,84.72,84.72,0,0,0,1.82,15.78,108.83,108.83,0,0,0,4.23,15.29,124.54,124.54,0,0,0,18.31,31.1,104.08,104.08,0,0,0,28.84,25l-.69-.64c1,.64,2,1.27,3,1.89.52.31,1.05.62,1.58.91l1.66.83c1.11.53,2.22,1.07,3.33,1.57l3.36,1.36,1.62.66,1.59.58c1.05.38,2.05.76,3,1.13a37.82,37.82,0,0,1,4.83,2.1l-.93-.28a17.69,17.69,0,0,0,1.77.73c.62.2,1.27.37,1.92.54,1.31.32,2.65.6,3.94.82a29.24,29.24,0,0,1,6.31,1.4l.83-.07c5.78,1.26.61.49,5.06,1.53,1.69.3.73-.32,4.22.51.15.29,1.12.57,2.5.84a48.73,48.73,0,0,0,4.94.75c3.56.42,7.08.84,7.2,1.44-3.22-.41,5,1.08-2.28.4,2.05.38,11.94,1.58,11.11,1,.91-.41,4.82-.37-1.13-1.53l-1.25.22c-2-.63-1.51-.38-2.19-.75-7.82-1.07-8.8-1.68-14.35-2.71.06,0,.11,0,0,.05a64.53,64.53,0,0,1-12-2.19l-1.14-.48c-1.7-.77-8.82-1.44-6.34-1.52a124,124,0,0,1-23.59-8.81,110.76,110.76,0,0,1-22.23-14.48,57.64,57.64,0,0,1-5.47-4.73c-1.9-1.79-3.23-3-2-1.46-1.33-1.82-4.25-5.14-7-8.67s-5.29-7.25-6.67-9.26a3.12,3.12,0,0,1,.73.9c-2.28-4.16-3.83-6.48-5.28-8.8a34,34,0,0,1-2.1-3.73,32.68,32.68,0,0,1-2-5.18c-.6-.49-2.11-4.24-3.43-8.52-.31-1.08-.67-2.17-1-3.26l-.87-3.19c-.5-2-1.05-3.83-1.46-5,0-1.11,0-1.49.22-1.12-.39-1.95-.64-4-.92-6a57.08,57.08,0,0,1,.72-18.06,57.36,57.36,0,0,1,3.46-11.09c.72-1.72,1.53-3.37,2.35-4.95l1.28-2.3,1.31-2.25A85.81,85.81,0,0,1,48,261.48a72,72,0,0,1,13.41-12c2.66-1.46,6.11-3,10-4.66l2.92-1.33c.93-.42,1.91-.8,2.93-1.17l3.13-1.09,1.62-.56.24-.09.08.12.37.62,1.19,2c.81,1.31,1.6,2.6,2.39,3.86l-.67-.92c.33.55.67,1.11,1,1.73l-2.54,1.17a45.16,45.16,0,0,1-4.25,1.78,21.19,21.19,0,0,1-2.14.64c-.8.21-1.6.43-2.38.69a35.39,35.39,0,0,0-4.53,1.82,37,37,0,0,0-12.61,10.19c-3.22,2.39-6.86,6.86-10.39,11.48a78.92,78.92,0,0,0-8.45,16.65,52.64,52.64,0,0,0-2.54,11.08,50.12,50.12,0,0,0,0,10.95,29.81,29.81,0,0,0,.74,6.49c.49,2.61,1.12,5,.94,5.4.66,2.31,1.43,4.61,2.26,6.91s1.74,4.6,2.74,6.9,2.12,4.58,3.22,6.89,2.44,4.52,3.88,6.7A92.66,92.66,0,0,0,71.75,377.3a114.72,114.72,0,0,0,13.44,9,136.47,136.47,0,0,0,14.49,7.07,161.92,161.92,0,0,0,29.94,9.15l-.59-.06a153.53,153.53,0,0,0,16.64,1c.52.1.45.19-.66.07,7.32.62,14.18,1.39,21.54,1.26-.06.09-.06.09-1.25.18,6.89-.28,14.26.18,22.36-.76l.47.12c1.71-.17,3.43-.37,5.14-.59-.11.19-.29.49-3.05.64a257.28,257.28,0,0,0,47.15-7.43,196.61,196.61,0,0,0,22.95-7.41l5.63-2.22,1.41-.56,1.38-.62,2.75-1.26,5.52-2.52c1.81-.88,3.59-1.86,5.39-2.79s3.61-1.83,5.36-2.85l5.21-3.12c3.54-2,6.81-4.42,10.18-6.66,1.71-1.1,3.28-2.4,4.89-3.63l4.82-3.72,4.59-4c1.51-1.36,3.11-2.62,4.51-4.1a166.67,166.67,0,0,0,29.72-38.41l-1.06,2.13,1.54-2.75c.48-.93.91-1.89,1.37-2.83l2.73-5.67a3.93,3.93,0,0,1-.42,1.2c.47-.88,1-1.76,1.4-2.67s.82-1.84,1.24-2.76q1.22-2.77,2.45-5.56l.6-1.4.52-1.44,1-2.86c.69-1.91,1.38-3.83,2.06-5.74,1.18-3.88,2.32-7.76,3.44-11.61s1.89-7.75,2.63-11.59c.07.08-.22,2.44.31.31.82-5.74,1.54-10.33,2-14.23a40.56,40.56,0,0,0,.34-10c.08-.53.33-.89.35.29q.22-6,.16-12.1t-.14-12.12a116.85,116.85,0,0,0-.76-12.22,65,65,0,0,0-2.6-12,167.88,167.88,0,0,0-20.53-44.24,206.36,206.36,0,0,0-27.6-31.78c-2.59-2.51-5.4-4.78-8.14-7.12-1.4-1.13-2.85-2.2-4.28-3.31l-2.15-1.63L306,97.75A132.67,132.67,0,0,0,287.65,87l.21-.1a176,176,0,0,0-52.81-16.36,230,230,0,0,0-56.34-1.46,203.49,203.49,0,0,0-20.61,3c-6.41,1.25-12.76,2.84-20.27,5l-.44-.11L134,78.05l-3.36,1.16-3.41,1.14-1.71.55a4.88,4.88,0,0,1-.84.24l-.9,0,.14.09q-1.53-3.89-3.09-7.82l-.74-1.92-.35-.9-.09-.23s.15,0,.22-.07l.47-.14,4-1.19c5.46-1.64,10.95-3.32,16.52-4.67s11.21-2.55,16.82-3.64,11.24-2,16.82-2.78l-1.84.54a76.4,76.4,0,0,1,9.61-1.15c3.4-.26,6.07-.45,5.23-.82l4.85,0a146.1,146.1,0,0,1,26.8.18c4.49.36,9.09.92,14,1.51l7.58,1,4,.65c1.36.21,2.74.41,4.14.69l-1.5-.12a118.79,118.79,0,0,1,17.12,4.21c-.68-.17-.38,0-1.78-.38a255.91,255.91,0,0,1,27.57,10.92,166.44,166.44,0,0,1,26.23,15.45l-2.07-1a122.38,122.38,0,0,1,14.94,11.63,197.9,197.9,0,0,1,15,15l-.64-.46c1.52,1.52,2.9,3.16,4.36,4.74l-.16.35A177.26,177.26,0,0,1,373.24,161.84Z" transform="translate(0 -6.65)"/><path class="cls-1" d="M359.29,322.78l.1-.14C359.62,322.2,359.5,322.41,359.29,322.78Z" transform="translate(0 -6.65)"/><path class="cls-1" d="M128.47,411.35l2,.4A18.89,18.89,0,0,0,128.47,411.35Z" transform="translate(0 -6.65)"/><path class="cls-2" d="M114.7,45.62l7,11.65-2.41,1.46L102.06,30.12l9.74-5.88c3-1.8,5.78-2.45,8.42-2A9.25,9.25,0,0,1,126.59,27a9.19,9.19,0,0,1,1.27,7.72q-1.17,3.69-5.89,6.53Zm-1.23-2,7.33-4.42q3.53-2.11,4.36-4.91a7,7,0,0,0-1-5.78,7.27,7.27,0,0,0-4.69-3.62,8.6,8.6,0,0,0-6.31,1.34l-7.48,4.52Z" transform="translate(0 -6.65)"/><path class="cls-2" d="M158.87,34.07,144,36.9l-1.63,9.86-2.91.55,6.19-35.18,2.63-.5,18.66,30.46-2.88.55Zm-14.49.32,13.16-2.5-10-16.63Z" transform="translate(0 -6.65)"/><path class="cls-2" d="M175.94,41.43l-2.8.29L169.7,8.49l2.81-.29Z" transform="translate(0 -6.65)"/><path class="cls-2" d="M210.56,40.06l-2.83,0L188.16,11.75l.37,28.59-2.85,0L185.25,7l2.85,0L207.7,35.3l-.37-28.62,2.79,0Z" transform="translate(0 -6.65)"/><path class="cls-2" d="M244.86,11.92l-11.4-1.11-3,30.88-2.81-.28,3-30.88L219.28,9.42,219.51,7l25.58,2.51Z" transform="translate(0 -6.65)"/><path class="cls-2" d="M251.27,44.78l-2.77-.54,6.4-32.79,2.77.54Z" transform="translate(0 -6.65)"/><path class="cls-2" d="M284.8,54.38l-2.68-.88-9.37-33.15-8.89,27.18-2.7-.89,10.38-31.76,2.71.89L283.63,49l8.9-27.2,2.66.87Z" transform="translate(0 -6.65)"/><path class="cls-2" d="M317.07,66.33a9.52,9.52,0,0,1-5.6.68,20.24,20.24,0,0,1-6.73-2.3,13.06,13.06,0,0,1-5.24-5,12.54,12.54,0,0,1-1.63-6.93,18,18,0,0,1,2.26-7.75l2-3.72q3.3-6.11,8.31-8a11.9,11.9,0,0,1,10.21.94,12.52,12.52,0,0,1,6.06,6.26,10.86,10.86,0,0,1-.15,8.15l-2.48-1.34a8.65,8.65,0,0,0,0-6.34,9.68,9.68,0,0,0-4.56-4.62,9.07,9.07,0,0,0-8.1-.59q-4,1.64-6.87,7l-1.87,3.47a16.56,16.56,0,0,0-2.07,6.55,10.27,10.27,0,0,0,1.12,5.76,9.87,9.87,0,0,0,4.13,4.06,15.51,15.51,0,0,0,6.06,2,6.69,6.69,0,0,0,3.06-.35l4.1-7.59-7.9-4.27,1.14-2.1,10.38,5.61Z" transform="translate(0 -6.65)"/><polygon class="cls-3" points="0.11 64.79 0 65.19 0.29 66.22 0.11 64.79"/><path class="cls-3" d="M.76,78.22c.06-.19.14-.1.2-.3l-.84-4C-.36,75.72,1.08,77.05.76,78.22Z" transform="translate(0 -6.65)"/><path class="cls-3" d="M.68,79.4A4.18,4.18,0,0,0,1,81.94C.7,81.4,1.1,79.06.68,79.4Z" transform="translate(0 -6.65)"/><path class="cls-3" d="M66.29,193.75c-.07-.13-.17-.29-.25-.41A1.78,1.78,0,0,0,66.29,193.75Z" transform="translate(0 -6.65)"/><path class="cls-3" d="M84.25,224.39l.45.18c-3.62-5.57-6.65-12.43-10.18-18.48l.32.36c-4.14-7.86-8.27-15.34-12.43-22.78-2.08-3.72-4.16-7.43-6.27-11.18s-4.47-7.37-7-11c.18.21.31.23.5.45a17.9,17.9,0,0,1-1.77-2.12c-.09-.24.27.14.47.37-1.65-3.38-6.56-8.75-7.6-10.87-.65-.82-1.1-1.06-.89-.49-2.05-2.78-4.13-5.62-6.18-8.52-.75-1.27-2.63-1.62-4.26-2.4a46.24,46.24,0,0,1-4.9-2.4,38.28,38.28,0,0,1-8.72-6.66,33,33,0,0,1-6.16-9.07c-.21-.67-.12-.84.12-.73a64.62,64.62,0,0,1-3.19-8.65c-.9-3-1.69-6-2.44-9s-1.44-6-2.16-9c-.18-.74-.35-1.5-.55-2.24L1.1,89.13l-.17-.54-.14-.43a2.43,2.43,0,0,1,0-.47L.83,83c-.22-.47-.23,1.25-.46,0a27.55,27.55,0,0,0,0,2.86l.06,1.36,0,.37a2.35,2.35,0,0,0,0,.59l.19.5L.78,89l.48,1.16c.15.39.26.83.38,1.24A18,18,0,0,1,2.18,94l-.32-.4c.5,2.56.66.38,1,3.07.08,1.08-.32-.19-.22.29,1.4,5.36,2.58,11.07,4.55,16a14.54,14.54,0,0,0,.86,3.66c.27.78.55,1.59.8,2.33a15,15,0,0,1,.62,1.94c.42.64.78,1.31,1.12,1.85a4.2,4.2,0,0,0,1,1.11,33.39,33.39,0,0,0,10.48,10.87,45.29,45.29,0,0,0,6.67,3.62l1.74.74c.58.23,1.11.44,1.56.67a2.69,2.69,0,0,1,.95.73L34.05,142c5.74,8.07,11.87,15.87,17.1,24.24a51.09,51.09,0,0,1,4,6.05c1.23,2.19,2.42,4.52,3.63,6.89,2.42,4.75,4.87,9.73,7.61,14.52,0,.09,0,.09-.09,0,1.9,3.06,4.47,7.64,6.4,11.47l2.06,3c11.53,23.15,24.49,46.16,36.62,69.45,13.9,26.4,25.7,49.72,40.45,74.79-.1,0,0,.23-.42-.41,4.12,7.31,7.44,14.2,11.33,21.07l-.09,0q1.86,3.16,3.69,6.44l1.82,3.27.91,1.65c.35.55.64,1.14,1,1.66a17.36,17.36,0,0,0,2.58,3,14.52,14.52,0,0,0,3.29,2.22,12.19,12.19,0,0,0,7.82.9,14.07,14.07,0,0,0,6.91-3.7,11.61,11.61,0,0,0,3.31-7,16.83,16.83,0,0,0-1-7.48c-.46-1.16-.95-2.26-1.45-3.35L190,367.5c-8.78-21.25-18.86-45.22-28.43-67.6h.18c-7.84-17.83-14.21-35.56-21.95-53.39-3.65-9.3-7.84-18.68-12-28.1s-8.34-18.85-12.07-28.21C111.63,178.4,103.5,164,100.3,152.68c-3.54-11.51-7.07-22.79-9.91-34.27l-.55-2.14a8.06,8.06,0,0,1-.25-2.08,41.19,41.19,0,0,1,.34-4.36c.32-2.92,1-5.83,1.32-8.8a24.05,24.05,0,0,0,.11-4.49A20.31,20.31,0,0,0,91,94.33c-.15-.73-.27-1.47-.43-2.2-.42-1.43-.72-2.89-1.28-4.28-.27-.7-.49-1.41-.79-2.1l-.92-2a39.73,39.73,0,0,0-9.32-13.49,44.57,44.57,0,0,0-13.76-8.78c-1.28-.47-2.55-1-3.85-1.34l-4-1.08a16.28,16.28,0,0,1-7.28-4.13A16,16,0,0,1,47,51.51l-2-3.52c-1.34-2.35-2.66-4.71-3.94-7.07-.73-1.05-1.43-2.14-2.13-3.24a19,19,0,0,0-2.21-3.18,6.59,6.59,0,0,0-1.48-1.21,5,5,0,0,0-1.83-.58,9.28,9.28,0,0,0-3.94.73,50.32,50.32,0,0,0-7.46,3.79,35.85,35.85,0,0,0-6.63,5.37l.45-.13a16.39,16.39,0,0,0-4.15,4.87,18.42,18.42,0,0,1-3,4.3l.18-.4a4.67,4.67,0,0,0-.89,1.48,13.68,13.68,0,0,0-.49,1.74c-.28,1.14-.39,2.21-.95,2.68l.09.41c-.88,2.43-.38.18-1.2,2-.23.72.34.42-.3,1.86-.55,0-1,1.54-1.35,3.08s-.68,3-1.26,3c.33-1.39-.94,2.08-.44-1.1-.33.88-1.26,5.12-.71,4.85.41.48.44,2.25,1.46-.24l-.24-.6c.58-.79.34-.62.69-.87.84-3.37,1.46-3.7,2.33-6,0,0,0,0,0,0a14.08,14.08,0,0,1,1.6-5l.39-.41a4,4,0,0,0,.68-2c.14-.75.27-1.25.37-.63a40.75,40.75,0,0,1,5.74-9.18,42.83,42.83,0,0,1,8.47-7.69,16.38,16.38,0,0,1,2.55-1.82c1-.58,1.62-1,.76-.85.49-.11,1.18-.35,2-.63s1.68-.68,2.53-.93A8.34,8.34,0,0,1,32.89,34a3.27,3.27,0,0,1,1.48.29c-.08,0-.15,0-.35,0a11.13,11.13,0,0,1,1.37,1.18c.41.37.8.75,1.18,1.13A7.21,7.21,0,0,1,37.63,38a10.15,10.15,0,0,1,1,2.3c.93.18,3.54,6.3,5.41,7.8.12.5.08.72-.12.63l1.39,2.33.7,1.18c.22.39.46.8.75,1.24a15.41,15.41,0,0,0,4.3,4.4,19.56,19.56,0,0,0,5.25,2.48l2.43.71c.73.23,1.46.43,2.14.65a26.62,26.62,0,0,1,7.72,3.2l.94.53.9.59c.59.38,1.18.75,1.75,1.09a33.16,33.16,0,0,0,3.11,1.94c.63.63,1.39,1.32,2.15,2.13S79,72.9,79.77,73.88s1.61,2,2.33,3c.37.52.78,1,1.14,1.54s.7,1,1.06,1.55L84,79.63c.77,1.15,1.4,2.49,2.1,3.8.32.68.6,1.37.91,2l.44,1,.37,1c.24.69.49,1.36.72,2s.38,1.31.56,1.93c.42,1.22.62,2.36.92,3.29a17.77,17.77,0,0,0-.43,2.88A20.35,20.35,0,0,1,89,101c-.05,1.85-.66,4.67-1.11,7.93-.09.8-.18,1.62-.27,2.44s-.16,1.69-.16,2.6a10.15,10.15,0,0,0,.35,2.74c.22.76.43,1.5.64,2.21-.16,1,1.29,4.72.87,5.15,2.6,7.91,5.55,16.69,8.69,25.55s6.43,17.81,9.48,26.11l-.13-.22c1.16,2,2.79,4.17,4.06,6.16,0,.23-.05.24-.23-.21,1.35,2.93,2,5.91,3.39,8.82-.09,0-.09,0-.38-.43,1.41,2.68,2.06,5.91,3.83,9l-.05.24,1.07,2c-.19,0-.48,0-.9-1.09,10.5,25.55,22.33,51.56,33.14,77.8l-.56-.9,2.4,5c-.1,0-.24-.21-.38-.44,2.42,6.59,5.69,13.11,8.24,19.44-.09,0-.65-.88-.37,0,2.4,4.48,2.53,7.74,4.45,9.69,0,.23-.1.47-.38,0,5.73,12.85,11.27,26.2,16.57,39.34,2.7,5.27,5.13,11,7.55,16.86l1.83,4.37a38.7,38.7,0,0,1,1.66,4.35,14.87,14.87,0,0,1,.06,8.93l-.15-.12a10.58,10.58,0,0,1-3.39,4.65,13.5,13.5,0,0,1-5.38,2.51,11.17,11.17,0,0,1-6-.38,12.74,12.74,0,0,1-5-3.37c-.36-.36-.66-.78-1-1.17s-.58-.84-.87-1.26c-.52-.87-1-1.78-1.48-2.7l-2.88-5.51c-1.92-3.67-3.85-7.33-5.83-10.94-3.15-6.06-5.53-10-8.78-16.07l.13-.26c-6.23-9.78-10.77-21.79-17.33-32l.67.59c-1.31-1.42-3.3-6.51-3.69-5.49l-.79-2c-4.84-6.7-6.6-13.37-12-21.88l.48.48a61.24,61.24,0,0,1-3.74-6.79c.17.26.15.11.5.64-3.27-7.74-8.43-15.53-12.57-23.31l.8.7c-2.4-3.55-5.74-10.63-8.56-15.48l.31.22-1.56-2.38.27-.23C91.16,236.55,87.65,230.64,84.25,224.39Z" transform="translate(0 -6.65)"/><path class="cls-3" d="M48.37,160.2l0,.07C48.55,160.44,48.49,160.35,48.37,160.2Z" transform="translate(0 -6.65)"/><path class="cls-3" d="M5.82,62.76c-.12.31-.21.56-.31.81A4.05,4.05,0,0,0,5.82,62.76Z" transform="translate(0 -6.65)"/><polygon class="cls-3" points="68.47 163.08 68.73 163.07 69.17 162.55 68.47 163.08"/><path class="cls-3" d="M71.87,167.44c-.13,0-.12-.1-.25-.1l-1.8,1.75C71,169.09,71.1,167.45,71.87,167.44Z" transform="translate(0 -6.65)"/><path class="cls-3" d="M72.54,167.23a1.64,1.64,0,0,0,1.24-.93C73.61,166.71,72.18,166.93,72.54,167.23Z" transform="translate(0 -6.65)"/><path class="cls-3" d="M112.08,215.76c0-.08-.09-.18-.13-.26A.61.61,0,0,0,112.08,215.76Z" transform="translate(0 -6.65)"/><path class="cls-3" d="M121.45,234.75l.38.08c-2-3.42-3.22-7.75-5-11.5l.21.21c-4-9.81-8.2-18.62-12.47-28.21.1.13.2.15.3.29a6.56,6.56,0,0,1-.89-1.4c0-.16.2.09.3.25-.38-2.25-2.81-5.89-3-7.32-.29-.55-.6-.72-.61-.34-3.29-7.53-6.77-15.61-10.36-23.18-.09-.4,0-.52.22-.49-.42-.74-.82-1.49-1.22-2.25l-.14-.29c-.06-.1-.1-.2-.12-.22l-.15-.23-.25-.41-.72.42-1.89.91c-1.27.6-2.55,1.18-3.84,1.76l-7.73,3.36c-.16.32.78-.1.22.41,2.25-.73,3.69-2.29,5.8-2.81l-.16.31c1.47-.53.06-.63,1.64-1,.65-.1,0,.32.24.21,1.29-.63,2.62-1.23,3.93-1.84.65-.31,1.3-.62,1.93-.94.14-.1.23-.2.44-.38l.26.17a.69.69,0,0,0-.07.2v.08s0,0,0,.14c.12.37.29.79.47,1.22a8.64,8.64,0,0,1,.78,2.45c.5.71.79,1.52,1.19,1.7,4.22,10.76,9.18,21.48,13.71,32.42,3,4.76,4.52,11.3,7.33,17.25,0,.05,0,.06-.09,0a58.85,58.85,0,0,1,3.21,7.13l1.19,1.86c5.2,14.5,11.76,28.81,17.48,43.36,6.63,16.48,12,31.09,19.77,46.6-.09,0-.08.16-.28-.24,2.09,4.54,3.54,8.86,5.52,13.13l-.09,0c2.59,5.24,4.9,10.85,7.2,16.41.55,1.31,1.09,2.62,1.63,3.92l1.21,2.8c.86,2,1.87,4.11,3.5,7.51l3.3,8q.9,2.14,1.81,4.31l.95,2.28.25.58,0,.07s0,0,0,0l-.13.08-.25.15-.13.08s0-.07-.07-.1l-.12-.24-.26-.47c-2.71-5-5.42-9.88-8.56-15.5l-.25-.85c-1.07-1.8-2.41-4.27-3.62-6.61l-1.9-3.7-1.92-3.82c-2.55-5.1-5.09-10.19-7.95-15.23-5.26-10.68-12.45-21.09-17.63-31.92-2.73-7-9-14.67-11.48-21.25-5.55-13.27-12.89-25.11-20.37-37.35-5.81-11.88-13.13-22.93-18.3-34.68-3.42-5-5.32-11.62-8.67-17.48L77,185c-.55-2.46-3.37-4.32-3.21-6.12l.16.2c-.16-1.37-2.45-2.06-2.29-3l-.32-.07c-.79-1.33.16-.29-.31-1.4-.24-.38-.48.07-.8-.83.8-.66-2-3.25-1-3.88.4.74-.24-1.39.88.18-.16-.53-1.43-2.8-1.75-2.37-.56.05-1.44-.63-1,1l.48.1c-.08.65,0,.45-.13.75.93,1.85.58,2.35,1.08,3.76,0,0,0,0,0,0A6.82,6.82,0,0,1,70.38,176l0,.39c-.16.63,1.86,1.67.9,1.47,2.15,3.61,4.42,7.86,6.64,12,.56.44,1.67,3.18,1.67,2,0,1.33,1.51,4.49,2.14,5.62-.07,0-.16,0-.23-.22.47,2.6,2.07,2.27,2.31,4.82.79,0,1.82,3.88,3.18,4.67q0,.49-.24.45c2,3.75,4,8,5.64,11.18,2,2.42,3.26,6.69,5.26,8.61a47.35,47.35,0,0,0,4,7.83l-.23-.21c1.67,3,3.74,6.78,5.32,8.61-.23,1.29.61,2.52,1.08,4,1.42,1.85,3.51,6,5.47,8.92-.07.65,1.51,2.48,1.11,2.9,5.57,8.16,11,19.06,15.23,28.69l-.1-.12c.9,1.06,2.23,2.13,3.23,3.17,0,.14-.07.17-.2-.09,1,1.65,1.36,3.48,2.35,5.12-.08,0-.08,0-.31-.2,1.07,1.47,1.37,3.48,2.75,5.15l-.08.17.82,1.09c-.18.06-.44.14-.73-.52,7.61,14.6,16.46,29.13,24.31,44.1l-.44-.47,1.82,2.74c-.09,0-.21-.09-.32-.2.6,1.43,2.57,5,4,7.49,1.51,2.65,2.78,4.8,4.2,7.53a5.49,5.49,0,0,0,.53,1.76,12.18,12.18,0,0,1,1.3,2.17c.5,1,1.05,2.14,1.56,3.19a22.38,22.38,0,0,0,1.16,2.23c.1.14.14.13.09-.11a12.66,12.66,0,0,0-.49-1.53c.2.45.91,2.26,1.08,2.78.66.29,1.94,2.13,3.29,4.18l1,1.57.26.4a5.9,5.9,0,0,0,.71-.32,8.17,8.17,0,0,0-.24-.87c-.36-1.15-.67-2.23-.9-3.16L178,369.58c-.3-.76-.6-1.53-.91-2.3l-.22-.58-.36-.85-.7-1.67c-.92-2.21-1.85-4.45-2.87-6.79s-2.12-4.76-3.19-6.85l.31.25c-.6-1.28-1.21-2.56-1.81-3.86q-.75-1.64-1.47-3.3c-1-2.23-1.88-4.49-2.79-6.78-1.82-4.56-3.6-9.19-5.55-13.68-1.49-3.79-2.75-6.24-4.34-10l.18-.18c-3.46-6-4.84-13.66-8.5-19.91l.48.34c-.88-.84-1.51-4.08-2.12-3.37l-.25-1.26c-2.89-4.08-3-8.39-5.91-13.63l.33.28a21.49,21.49,0,0,1-1.86-4.22c.1.16.12.05.31.38-1.2-4.89-4.12-9.67-6.12-14.53l.57.41c-1.37-2.18-2.8-6.63-4.26-9.64l.23.12-.87-1.46.3-.17C125,242.3,123.12,238.64,121.45,234.75Z" transform="translate(0 -6.65)"/><path class="cls-3" d="M104.23,194.47s0,0,0,0S104.29,194.56,104.23,194.47Z" transform="translate(0 -6.65)"/><path class="cls-3" d="M68.92,173.7a4.55,4.55,0,0,1-.19-.5C68.68,173.27,68.85,173.55,68.92,173.7Z" transform="translate(0 -6.65)"/><polygon class="cls-4" points="65.47 70.92 65.47 71.06 65.81 70.96 65.47 70.92"/><path class="cls-4" d="M67,77.92c0-.06.07-.12.07-.19l-1.17.15C65.87,78.48,67,77.52,67,77.92Z" transform="translate(0 -6.65)"/><path class="cls-4" d="M67.12,78.14c.13.36.49.13.63.08C67.47,78.38,67.33,77.77,67.12,78.14Z" transform="translate(0 -6.65)"/><path class="cls-4" d="M77.72,103a.17.17,0,0,0,0-.1S77.7,102.94,77.72,103Z" transform="translate(0 -6.65)"/><path class="cls-4" d="M76.14,110.49l.24.23c.16-1.57,1.49-2.75,1.73-4.34l.07.14a14.65,14.65,0,0,0,1.25-5.59,24.71,24.71,0,0,0-.67-5.6s.14.06.18.11c-.13-.16-.36-.33-.38-.53s.15,0,.2.09a2.29,2.29,0,0,0-.25-1.54c-.22-.52-.49-1-.37-1.28a.27.27,0,0,0-.47-.06,22.25,22.25,0,0,0-4.58-7.77c0-.16.08-.26.25-.33-2.16-1.58-3.63-3.72-5.53-5.51-.22.1,0,.35-.3.36.41.76,1.5.59,1.75,1.42l-.22.09c.28.48.46-.31.66.29,0,.29-.24.15-.18.24.89.75,1.49,1.79,2.59,2.32-.21.49.72,1,.61,1.61.33.13.44.42.76.34a48.88,48.88,0,0,1,2.83,5.42A19.82,19.82,0,0,1,78,96.53,3,3,0,0,1,78.46,98a5.27,5.27,0,0,1,0,1.63,15.86,15.86,0,0,1-.32,1.67c-.13.55-.19,1.12-.28,1.68a.16.16,0,0,1-.09,0,4.76,4.76,0,0,1-.1,1.32,7.37,7.37,0,0,1-.52,1.36l.09.86-.48.92c-.17.3-.38.59-.55.89-.37.59-.72,1.18-1.07,1.78a20,20,0,0,1-1.15,1.73c-.4.56-.75,1.16-1.18,1.71a26.88,26.88,0,0,1-5.92,5.84A30,30,0,0,1,63,121.82a21.66,21.66,0,0,1-2,1c-.67.29-1.3.67-2,.9-1.36.5-2.67,1.13-4.08,1.57-.7.23-1.38.55-2.1.79s-1.44.48-2.18.76c0-.09-.06-.12.09-.19a8.71,8.71,0,0,1-2.56.31c-.84,0-1.65.12-2.49.15V127a15.28,15.28,0,0,1-3.18.17c-1.07-.12-2.15-.25-3.21-.45s-2.08-.55-3.12-.77a23.47,23.47,0,0,0-3-.8A23.09,23.09,0,0,1,26.57,121a20.28,20.28,0,0,1-4.67-6.47l.17-.06a33.38,33.38,0,0,1-1.92-5.34l-.19-.67-.15-.55-.26-1c-.09-.31-.17-.61-.27-.91l-.15-.45-.09-.24c0-.06-.11-.21,0-.12s.49.22.74.32a9.62,9.62,0,0,0,2.26,1.06l.72.23.82.24c.56.13,1.11.28,1.67.38,2.24.46,4.46.67,6.64,1a6.73,6.73,0,0,0,4.46-.47,11.5,11.5,0,0,1,4.22-1.12,15.76,15.76,0,0,0,7.5-2.38,11.5,11.5,0,0,0,3.07-2.54A10.69,10.69,0,0,0,53,98.44a7.65,7.65,0,0,0,1.17-3.31A12.27,12.27,0,0,0,54,91.61a9,9,0,0,1,1.47-7,4.69,4.69,0,0,1,2.15-2.76c1-.7,2.14-1.19,3.1-1.94l-.2-.13c1.07.07,1.19-1.85,2.17-1.25l0,.08c.64.22.39-1.57.92-1.18l-.05-.25c.46-.34.19.21.63.09.13-.11-.17-.43.21-.47.55.86,1.11-.86,1.7.13-.28.15.64.16.14.7.23,0,1-.5.73-.88s-.06-1.07-.76-1.14l.07.38c-.35-.24-.22-.09-.41-.31-.69.32-1-.11-1.62,0,0,0,0,0,0,0-.11.58-.69.59-1,.67l-.2-.13c-.37-.3-.35,1.17-.51.4-1.28.9-2.91,1.83-4.34,3,0,.39-1.08.91-.41,1a1.91,1.91,0,0,0-1.27.37,4.26,4.26,0,0,0-.91.84s-.07-.11,0-.16a.85.85,0,0,0-.72.89c0,.35,0,.66-.74.85.26.23,0,.61-.24,1a1.25,1.25,0,0,0-.15,1.36.47.47,0,0,1-.44,0,15.68,15.68,0,0,0-.91,5.14,4,4,0,0,1,.36,1.92,2.09,2.09,0,0,0,.36,1.54A9,9,0,0,0,52.31,97l-.06-.12A20.74,20.74,0,0,0,51.14,100c-.83-.27-1,.16-1.53.28a3.24,3.24,0,0,1-1,1.16c-.44.36-1,.77-1.52,1.21-.34-.24-.84.61-1.14.15-2.61,2.49-7.12,3.6-10.81,3.42l0,0c-.39.38-.84,1.09-1.3,1.53a.08.08,0,0,1,0-.14c-.68.15-1.32-.36-2-.28,0-.09,0-.09.12-.18-.64.24-1.24-.48-2-.15l0-.15-.49.15c0-.18.1-.44.33-.36a41.49,41.49,0,0,1-5.67-1.34l-.71-.23-.36-.12c-.11,0-.35-.13-.51-.19l-1.08-.42c-.35-.13-.78-.34-1.16-.5-1.57-.68-3.06-1.38-4.42-2,0,.07.1.33.17.5l.23.57.45,1.12.85,2.15c.52,1.37,1.13,3,1.38,3.74l-.24-.15.71,1a.25.25,0,0,1-.21,0c.25,1.55,1.25,2.85,1.74,4.29-.08,0-.34-.12-.34.12.88.86.22,2,1.41,2,0,.07-.2.22-.33.15a29.41,29.41,0,0,0,6.79,7,27.17,27.17,0,0,1,3.89,1.55c.65.26,1.31.52,2,.73a5.55,5.55,0,0,0,2,.37l-.06.17a18.09,18.09,0,0,1,2.64.4c.88.13,1.77.25,2.66.42a17.58,17.58,0,0,0,2.71.32,12.46,12.46,0,0,0,2.73,0,19.25,19.25,0,0,0,4-.6l.08.22a5.41,5.41,0,0,1,1.86-.6c.65-.12,1.31-.24,2-.33a10.52,10.52,0,0,0,2-.4,5.5,5.5,0,0,0,1.76-1l0,.36c.2-.6,1.57-.44,1.09-1.14.17,0,.34,0,.52,0a3.24,3.24,0,0,1,2.17-1.39,4.52,4.52,0,0,0,2.46-1.47v.24a3.48,3.48,0,0,1,1.36-1c0,.06,0,.09-.06.22a5.51,5.51,0,0,0,2.41-1.59c.71-.7,1.22-1.6,1.94-2.24l.1.41A6,6,0,0,1,72,116.46a10.9,10.9,0,0,0,1.29-1.6l.09.17.21-.63.28.19a10.86,10.86,0,0,0,1.24-2C75.43,111.87,75.84,111.22,76.14,110.49Z" transform="translate(0 -6.65)"/><path class="cls-4" d="M78.76,95a0,0,0,0,1,0,0S78.78,95,78.76,95Z" transform="translate(0 -6.65)"/><path class="cls-4" d="M64,75.62a.76.76,0,0,1,.21,0C64.18,75.53,64.08,75.6,64,75.62Z" transform="translate(0 -6.65)"/><polygon class="cls-5" points="51.4 62.02 51.28 61.98 51.35 62.31 51.4 62.02"/><path class="cls-5" d="M51,69.87c.06,0,.11.1.17.12l-.08-1C50.58,68.77,51.37,70,51,69.87Z" transform="translate(0 -6.65)"/><path class="cls-5" d="M50.83,69.93c-.32,0-.13.39-.09.52C50.6,70.17,51.15,70.22,50.83,69.93Z" transform="translate(0 -6.65)"/><path class="cls-5" d="M41.41,89.65s0,0,0-.06A0,0,0,0,0,41.41,89.65Z" transform="translate(0 -6.65)"/><path class="cls-5" d="M40.54,94.69l.1.31a16.21,16.21,0,0,1,1.23-1.36A2.85,2.85,0,0,0,42.64,92l.09.1A5.92,5.92,0,0,0,43,89.9c-.08-.73-.2-1.36-.29-2a16,16,0,0,1-.08-4.16s.11.09.14.14c-.08-.15-.25-.35-.19-.5s.13.08.16.13c.62-.45.14-1.8.66-2a.3.3,0,0,0-.36-.29,30.38,30.38,0,0,1,3.06-6.42c.13,0,.25,0,.37.17.63-2.1,2.56-3.31,4.07-4.46-.09-.22-.3,0-.31-.35-.65.21-.51,1.17-1.2,1.25l-.09-.21c-.4.17.3.46-.22.55-.25,0-.15-.23-.22-.19-.64.69-1.49,1.25-1.7,2.26-.5-.16-.69.73-1.25.72,0,.31-.21.47,0,.73a17.61,17.61,0,0,0-4,9.17,4.64,4.64,0,0,1,.05,2.56c-.05.45-.15.91-.16,1.37a4.91,4.91,0,0,0,.1,1.35h-.09a2.29,2.29,0,0,1,.12,1.83,5.89,5.89,0,0,1,.24.58,4,4,0,0,1-1.86,1.71,10,10,0,0,1-2.75.54,21.55,21.55,0,0,1-6.06.3,8.79,8.79,0,0,1-1.53-.35,9.26,9.26,0,0,1-1.37-.65l-2.93-1.56c-1.93-1-3.83-1.89-5.94-2.79.06-.07.06-.13.18-.09-1.16-.63-1.69-1.7-2.56-2.49l.07-.05a6.87,6.87,0,0,1-2.1-3.92c-.35-1.51-.36-3-.74-4.55a86.21,86.21,0,0,1,1.76-11.53l.17.06c.51-3.12,2.47-5.59,3.68-8.37a43.35,43.35,0,0,0,2.39-4.2,10.14,10.14,0,0,1,3.22-3.68,6.84,6.84,0,0,0,2.57-2,6.46,6.46,0,0,1,1.41-1.2,4.69,4.69,0,0,1,.77-.43s.07,0,.09,0l.05.11.09.24a3.68,3.68,0,0,1,.15.47A14.64,14.64,0,0,0,33,52.79,34.3,34.3,0,0,0,37,57.05a16.8,16.8,0,0,0,3.26,4.13,26.45,26.45,0,0,1,3.44,3.88,4.59,4.59,0,0,1,2,1.64c.29.34.58.72.91,1a4.59,4.59,0,0,0,1.15.76l0-.22c.27.94,1.71-.19,1.66.88h-.08c.12.61,1.2-.77,1.15-.13l.15-.21c.4.08-.06.29.2.49.13,0,.21-.41.39-.2-.3,1,1,.12.69,1.22-.22-.08.21.55-.37.6.11.16.82.35.9-.14s.59-.83.31-1.34l-.19.33c0-.4-.05-.21,0-.5-.5-.22-.39-.77-.67-1.1a.08.08,0,0,1,0,0c-.4.34-.65,0-.81-.16v-.22c.06-.46-.87.54-.44-.09A11,11,0,0,1,49,67.22l-1.57-.86c-.3.17-.76-.53-.84.09A1.74,1.74,0,0,0,45.77,65s.1-.09.12,0c0-1-1,.13-.9-1-.54.49-.67-.86-1.47-.49a.73.73,0,0,1,.23-.36,23.48,23.48,0,0,1-2-2.47c-1-.2-1-1.62-2.09-1.64a3.56,3.56,0,0,0-1.21-2h.13c-.57-.69-1.22-1.63-2-1.84.53-.68.18-.92.19-1.4-.65-.3-1.22-1.41-2-2,.25-.32-.54-.58-.1-.91a9.13,9.13,0,0,1-1.57-1.48c-.23-.28-.46-.58-.67-.88L32,47.87l-.46-.73c-.31-.49-.61-1-.92-1.56l-.05-.11,0,0-.05,0-.19.09-.39.18-.81.37-1.66.72c-.36.15-.73.29-1.1.42v-.06A9.54,9.54,0,0,0,26.19,49c-.06,0-.11-.09-.05-.14-.34.41-1.09.28-1.42.73-.06-.07-.06-.07,0-.19-.21.52-1.07.38-1.22,1.1l-.13-.08-.12.42c-.12-.14-.3-.34-.12-.45A19.71,19.71,0,0,0,19,56.12c-1.06,2.12-1.87,4.31-2.76,6.46l-.1-.23,0,1a.23.23,0,0,1-.13-.15c-.7,1-.54,2.28-.94,3.32-.09,0-.2-.24-.35-.11.27.92-.95,1.12-.06,1.78a.41.41,0,0,1-.35-.11c-.21,2.32-.7,4.58-1.14,6.87a8.06,8.06,0,0,1,.2,3A6.36,6.36,0,0,0,13.75,81h-.18c.42,1.26.72,2.53,1.12,3.81a9.53,9.53,0,0,0,2,3.5A10.69,10.69,0,0,0,19,90.21l-.12.21a3.8,3.8,0,0,1,1.32.61c.39.3.75.63,1.14,1A4.14,4.14,0,0,0,24,93.31l-.26.21c.48-.28,1,.67,1.24-.12l.2.38a1.86,1.86,0,0,1,1.81.58,2.52,2.52,0,0,0,1.91.86l-.16.16a2,2,0,0,1,1.23.21c-.05,0,0,.08-.15.11a2.61,2.61,0,0,0,2.11.46c.73-.1,1.45-.35,2.16-.39l-.14.37c.66-.47,1.95-.22,2.81-.54l0,.18.42-.3.06.35a9.59,9.59,0,0,0,1.7-.37A8.6,8.6,0,0,0,40.54,94.69Z" transform="translate(0 -6.65)"/><path class="cls-5" d="M42.69,83.47h0S42.69,83.51,42.69,83.47Z" transform="translate(0 -6.65)"/><path class="cls-5" d="M51.78,68.09a.52.52,0,0,1,.1.11C51.9,68.13,51.81,68.11,51.78,68.09Z" transform="translate(0 -6.65)"/><polygon class="cls-3" points="77.51 119.84 77.42 119.92 77.74 119.96 77.51 119.84"/><path class="cls-3" d="M78.37,127.11s.13,0,.17-.09l-.94-.24C77.2,127.12,78.63,126.88,78.37,127.11Z" transform="translate(0 -6.65)"/><path class="cls-3" d="M78.32,127.27c-.13.23.27.2.41.21C78.42,127.5,78.72,127.11,78.32,127.27Z" transform="translate(0 -6.65)"/><path class="cls-3" d="M83,143.17l0,0S83,143.17,83,143.17Z" transform="translate(0 -6.65)"/><path class="cls-3" d="M84.7,146.81l.23.25a1.14,1.14,0,0,1,.51-.51,7.48,7.48,0,0,1-.23-1,3.08,3.08,0,0,0-.33-1l.13,0a38.84,38.84,0,0,0-2.34-5.91s.13,0,.18,0c-.14-.07-.36-.13-.37-.25s.15,0,.19,0c.38-.58-.68-1.19-.37-1.58a.36.36,0,0,0-.45,0,34.54,34.54,0,0,0-2-4.82c0-.1.18-.15.35-.18-1.21-1.18-1.3-2.75-1.58-4.23-.23,0-.18.21-.44.13-.14.54.76.7.49,1.24h-.22c0,.34.54-.09.36.31-.14.17-.27,0-.27.1.27.63.27,1.36.95,1.83-.41.28.18.7-.18,1.07.23.11.23.3.54.28.41,2.34,1.5,4.54,2.13,6.88,1.17.85.51,2.45,1.17,3.66a.11.11,0,0,1-.09,0,2.69,2.69,0,0,1,.64,1.49,5.3,5.3,0,0,0,.48.3c0,.4,0,.7,0,1a5.35,5.35,0,0,0-.59.17l-.26.08-.13.05-.23.1c-.61.26-1.21.53-1.81.82a37.07,37.07,0,0,1-3.67,1.56c-3.4,1.31-6.57,2.05-9.29,4.61,0-.08-.08-.11,0-.19-.85.6-1.84.69-2.63,1.26l0-.08a16.74,16.74,0,0,1-4,2.19A5,5,0,0,0,61,156l-.31-.26-.44-.35a87.26,87.26,0,0,0-5.31-7.19l.15-.1a11.73,11.73,0,0,1-1.93-2.95c-.27-.52-.54-1-.84-1.55-.15-.25-.31-.5-.48-.74a6.82,6.82,0,0,0-.51-.63,3.51,3.51,0,0,0-.75-1.11l-.63-.65-.18-.19c0-.05.06,0,.08-.07l.27-.11a8.25,8.25,0,0,1,3.37-.64c1.69.58,3.23-1.66,4.81-1.17,3.21.53,5.76-1.37,8-3.38a6.73,6.73,0,0,0,1.83-.83,18.67,18.67,0,0,0,1.64-1.16c.54-.39,1.07-.78,1.63-1.13a7.52,7.52,0,0,1,1.83-.8c.62-1.23,2.57-1,3.53-2l-.18-.13c.81.18.21-1.43,1.11-.89V128c.54.2-.35-1.29.17-1l-.14-.21c.18-.27.22.18.47.09,0-.09-.29-.36,0-.38.73.71.41-.69,1.22.12-.13.12.51.13.39.58a.42.42,0,0,0,.14-.73c-.33-.4-.49-.86-1-.93l.21.32c-.34-.2-.19-.08-.41-.26-.34.25-.76-.1-1.13-.07l0,0c.16.47-.23.47-.39.53L77,126c-.36-.26.24,1-.18.31a11.51,11.51,0,0,1-2,1.93c.08.3-.58.43-.07.73a1.26,1.26,0,0,0-1.41.14s-.06-.11,0-.12c-.89-.35,0,1-1,.43.36.61-.8.32-.55,1.15a.83.83,0,0,1-.28-.32c-.72.45-1.61.78-2.23,1.1-.2.84-1.38.52-1.42,1.5a2.08,2.08,0,0,0-1.63.65v-.12c-.59.34-1.32.77-1.53,1.44-.53-.66-.73-.4-1.1-.52-.26.54-1.15.78-1.68,1.34-.23-.32-.48.35-.7-.15-1.47,1.66-4,2-6.18,1.64l0,0c-.2.34-.37,1-.58,1.48,0,0,0-.13,0-.13-.36.17-.81-.29-1.17-.12a.27.27,0,0,1,0-.19c-.31.31-.8-.32-1.15.16l0-.14c-.11.09-.27.18-.39.27,0-.18-.09-.45.19-.43-1.52.18-3.07.35-4.46.59l-1,.17c.21.3.48.63.72.94l1.44,1.81L50,143.18l.88,1a20.81,20.81,0,0,1,1.54,2.09h-.21l.64.37a.3.3,0,0,1-.19,0c.24.88,1.17,1.31,1.58,2-.07,0-.29,0-.3.19.76.23,0,1.18,1.06.85a.46.46,0,0,1-.31.19,17.63,17.63,0,0,1,3.11,4.18,3.84,3.84,0,0,1,1.69,1.57c.36.51,1.1,1.62,1.7,1.83l-.07.22,0,0A10,10,0,0,1,64,156.27a21.1,21.1,0,0,0,2.79-1.12,18.61,18.61,0,0,0,2-1.07l.12.2c.91-1.38,3-.52,4-2l0,.33c0-.54.88-.22.45-.94l.35.12c.44-1.41,1.86-.29,2.67-1.45v.21c.23-.28.53-.54.82-.48,0,0,0,.09,0,.17,1.25.28,1.93-1,2.92-1.4l0,.39c.29-.61,1.32-.65,1.86-1.11l0,.17.21-.36.15.31a5.8,5.8,0,0,0,1.13-.67A12.12,12.12,0,0,1,84.7,146.81Z" transform="translate(0 -6.65)"/><path class="cls-3" d="M82.67,138.45a0,0,0,0,1,0,0S82.69,138.47,82.67,138.45Z" transform="translate(0 -6.65)"/><path class="cls-3" d="M77.4,125.59l.13,0C77.47,125.53,77.44,125.58,77.4,125.59Z" transform="translate(0 -6.65)"/><path class="cls-6" d="M247.21,182.3c-27.55-.11-46.45-24.21-40.6-51.84,5.44-25.67,28.53-44.32,54.51-44A41.11,41.11,0,0,1,301,134.29c-4.23,25.6-22.12,43.42-47.84,47.59C251.21,182.2,249.19,182.17,247.21,182.3Zm.19-12.15c20.75-.2,38.53-16.46,41.77-38.2a29.39,29.39,0,0,0-31.8-33.45,44.26,44.26,0,0,0-38.71,33.39C213.61,152.31,227.15,170.34,247.4,170.15Z" transform="translate(0 -6.65)"/><polygon class="cls-5" points="247.39 161.6 247.29 161.49 247.03 161.77 247.39 161.6"/><path class="cls-5" d="M245.65,168.82c0,.06,0,.15.07.2l1-.79C246.33,167.73,246,169.16,245.65,168.82Z" transform="translate(0 -6.65)"/><path class="cls-5" d="M245.36,168.72c-.39-.21-.58.18-.68.31C244.84,168.73,245.42,169.15,245.36,168.72Z" transform="translate(0 -6.65)"/><path class="cls-5" d="M219.87,148.62a.54.54,0,0,0,0,.11C219.92,148.67,219.9,148.63,219.87,148.62Z" transform="translate(0 -6.65)"/><path class="cls-5" d="M217.41,139.55l-.32-.11a8.29,8.29,0,0,1,.3,2.81,9.44,9.44,0,0,0,.3,2.86l-.13-.11a25.76,25.76,0,0,0,5.5,12.58c-.07,0-.16,0-.23-.05.22.13.52.22.64.45s-.16,0-.23,0a1.85,1.85,0,0,0,.35.84,7.23,7.23,0,0,0,.74.72c.51.46,1,.86,1,1.23.22.18.46.12.48-.11a23.68,23.68,0,0,0,9.29,5.82.29.29,0,0,1,0,.42c3.13.56,6.13,1.48,9.27,2,.14-.22-.29-.25,0-.47a3.54,3.54,0,0,0-1.41,0,1.9,1.9,0,0,1-1.32-.2l.15-.19c-.62-.24-.23.51-.86.13-.23-.22.13-.26,0-.29a14.65,14.65,0,0,1-2.06-.48,9.11,9.11,0,0,0-2.08-.26c-.14-.57-1.39-.61-1.69-1.21-.41,0-.73-.15-1,.06l-1.59-1a14.19,14.19,0,0,1-1.57-1,29.55,29.55,0,0,1-3-2.26l-1.42-1.25c-.43-.45-.84-.93-1.27-1.4A20,20,0,0,1,223.1,156a4,4,0,0,1-1.23-1.46,16.22,16.22,0,0,1-.86-1.83c-.19-.67-.36-1.35-.57-2-.1-.34-.21-.67-.34-1s-.19-.69-.32-1a.08.08,0,0,1,.09,0,7.71,7.71,0,0,1-.93-3.26l-.5-.89,0-1.27c0-.43,0-.86,0-1.28.05-.85.06-1.69.08-2.54.25-1.68.26-3.38.67-5a33.07,33.07,0,0,1,3.19-9.71,43.39,43.39,0,0,1,6.16-9.19c2.33-2.73,4.78-5.28,7.49-8,.05.08.13.09,0,.23a25.47,25.47,0,0,1,2.61-1.81,23.49,23.49,0,0,0,2.65-1.55l0,.08a22.72,22.72,0,0,1,3.4-2l1.84-.74.94-.36.95-.28,1.91-.57c.63-.2,1.28-.3,1.9-.48s1.26-.34,1.88-.51,1.24-.3,1.84-.48a41.85,41.85,0,0,1,4.68-.29c.79,0,1.6.11,2.41.16l1.21.1,1.21.23a24.52,24.52,0,0,1,2.41.5l2.37.72c.79.24,1.52.62,2.28.92.38.16.76.31,1.13.48l1.07.59-.1.15c.57.29,1.14.6,1.7.91s1,.77,1.52,1.17a20.74,20.74,0,0,1,2.74,2.64,12.93,12.93,0,0,1,1.2,1.46l1.15,1.49,1.05,1.57c.34.53.77,1,1.07,1.57.5,1.22,1.22,2.34,1.72,3.58.28.61.57,1.22.86,1.83l.69,1.92.35,1c.11.32.17.66.25,1,.15.67.29,1.35.42,2a13.89,13.89,0,0,1,.13,2,13.73,13.73,0,0,1-.09,2,8.61,8.61,0,0,0-.46,2.61c0,.92-.17,1.87-.2,2.83a10.84,10.84,0,0,1-1.27,5.18c-.37.72-.84,1.4-1.2,2.11s-.7,1.42-1.07,2.11-.75,1.38-1.08,2.09l-.5,1.06-.55,1q-.54,1-1.05,2.1c-.35.71-.77,1.37-1.15,2.07a44.16,44.16,0,0,1-2.51,4.13c-.51.54-1.07,1-1.61,1.55s-1.06,1-1.58,1.58c-1.1,1-2.17,2-3.31,3a21.23,21.23,0,0,1-7.67,4.24,7.2,7.2,0,0,1-1.85,1,16.39,16.39,0,0,1-2.15.47,44.29,44.29,0,0,0-4.41.79l.15.19c-1.15-.34-2.2,1.36-3,.5l.11-.06c-.63-.42-1.16,1.38-1.59.84l-.06.26c-.7.13-.12-.27-.66-.34-.2.05,0,.46-.48.34-.16-1-1.7.32-1.8-.82.37,0-.6-.41.23-.7-.24-.1-1.37,0-1.26.5-.1.52-.55,1,.17,1.36l.13-.38c.25.36.19.17.28.45.94,0,1.09.54,1.8.72,0,0,0,0,0,0,.44-.47,1.1-.24,1.48-.2l.17.2c.28.4,1-1,.78-.23,1-.24,2-.44,3-.63l3.16-.82c.22-.32,1.59-.46,1-.84.69.42,2.28,0,2.84-.2,0,.06,0,.13-.1.14,1.43.38,1-1.23,2.39-.75-.15-.73,1.94-.61,2.09-1.67.19.07.29.17.31.3.86-.48,1.8-.94,2.7-1.39s1.71-1,2.41-1.46c.85-1.26,2.91-1.95,3.32-3.36a8.91,8.91,0,0,0,3.05-2.7l0,.17a11.52,11.52,0,0,0,2.57-3.95c.92.12,1.19-.55,1.8-1a11.34,11.34,0,0,1,1-2,19,19,0,0,0,1.09-2.42c.45,0,.55-1.22,1-1,1.23-4.51,3.34-9.53,4.94-14.24l0,.07a12.5,12.5,0,0,0-1-2.17c.05-.05.14,0,.13.1,0-.88.58-1.66.56-2.56.09,0,.09,0,.17.16a4.24,4.24,0,0,1,.1-1.31,2.34,2.34,0,0,0-.11-1.42l.15-.06-.23-.62c.18,0,.46,0,.41.36a26.34,26.34,0,0,0-3.13-11.26,36.88,36.88,0,0,0-7.22-9.23l.33.07-1.31-.81a.22.22,0,0,1,.22,0,10.45,10.45,0,0,0-2.3-1.81l-.62-.38-.65-.33a12.64,12.64,0,0,1-1.25-.71c.05-.07.39-.07.21-.3-1.4-.32-1.73-1.61-2.79-1a.25.25,0,0,1,.18-.32,44.6,44.6,0,0,0-11.48-2.55,17.79,17.79,0,0,1-2.48.48c-.42,0-.85.08-1.27.1l-1.26.18c-.85.12-1.7.2-2.53.39a15,15,0,0,0-2.39.83l0-.18c-2,.82-4.08,1.45-6.15,2.22A31.61,31.61,0,0,0,242,102.6a18.78,18.78,0,0,0-2.94,1.56c-.41.21-.78.42-1.12.63l-.94.71c-.61.48-1.23.94-2,1.49l-.17-.16a17.22,17.22,0,0,1-3.66,3.17,9.86,9.86,0,0,0-3.35,3.62l-.08-.37c0,.68-1.37,1.43-.61,1.79l-.55.29A5.61,5.61,0,0,1,225,118a13.79,13.79,0,0,0-1.1,1.26,5.72,5.72,0,0,0-.76,1.71l-.09-.25a5.3,5.3,0,0,1-.91,1.86c0-.09-.06-.08,0-.26a7.63,7.63,0,0,0-1.7,3.08c-.31,1.18-.59,2.37-1,3.49l-.28-.37a6.31,6.31,0,0,1-.43,2.21c-.12.41-.29.83-.38,1.24a9.24,9.24,0,0,0-.17,1.21l-.15-.12.09.79-.34,0C217.27,135.76,217.53,137.66,217.41,139.55Z" transform="translate(0 -6.65)"/><path class="cls-5" d="M223.24,158a0,0,0,0,1,0,0C223.18,157.9,223.2,157.92,223.24,158Z" transform="translate(0 -6.65)"/><path class="cls-5" d="M250,171.6a1.83,1.83,0,0,1-.25-.06C249.8,171.61,250,171.59,250,171.6Z" transform="translate(0 -6.65)"/><polygon class="cls-5" points="247.33 177.55 247.47 177.64 247.81 177.33 247.33 177.55"/><path class="cls-5" d="M249.68,183.43c-.08-.05-.05-.14-.12-.19l-1.37.89C248.82,184.58,249.24,183.13,249.68,183.43Z" transform="translate(0 -6.65)"/><path class="cls-5" d="M250.11,183.49a.75.75,0,0,0,.9-.38C250.83,183.43,250,183.07,250.11,183.49Z" transform="translate(0 -6.65)"/><path class="cls-5" d="M292,159.74a1.19,1.19,0,0,0-.08.16A.24.24,0,0,0,292,159.74Z" transform="translate(0 -6.65)"/><path class="cls-5" d="M297,147.93l-.23-.24a14.12,14.12,0,0,1-1.31,3.45c-.55,1.15-1.31,2.19-1.78,3.35l0-.2a64.61,64.61,0,0,1-11.14,14.62c0-.09,0-.19.06-.28-.16.28-.26.68-.55.86-.12,0,0-.17,0-.26-1.38.4-2.87,2.69-3.81,2.83-.28.25-.3.52,0,.54a69.09,69.09,0,0,1-13.44,7.53c-.26,0-.35-.1-.34-.3q-.72.43-1.47.81c-.5.24-1,.42-1.55.62-1.05.37-2.12.71-3.21,1s-2.22.41-3.33.59c-.56.09-1.1.19-1.68.26s-1.16.11-1.73.14c-.16.23.48.19,0,.46a4.49,4.49,0,0,0,2.08-.37,4,4,0,0,1,1.89-.4l-.13.25c1-.06.09-.57,1.11-.49.42.1,0,.28.14.26l1.5-.33c.5-.1,1-.26,1.49-.41a12.13,12.13,0,0,0,2.77-1.14c.6.35,2.06-.7,2.92-.52.43-.35.94-.48,1-.84,6.75-2.25,12.85-6.5,18.17-11.38,1.91-2.86,5.32-5.21,7.47-8.66a.07.07,0,0,1,.08.05,19.48,19.48,0,0,1,1.07-2c.42-.72.93-1.42,1.33-2.09l.3-1.34a42.09,42.09,0,0,0,3.41-6.18,55.5,55.5,0,0,0,2.32-6.72c.71-2.27,1.06-4.63,1.56-7a59.28,59.28,0,0,0,.62-7.17,41.42,41.42,0,0,0-2.6-15.45,32.58,32.58,0,0,0-8.82-12.63c.07,0,.05-.15.26,0-.55-.53-1.07-1.07-1.57-1.61s-1.07-1-1.59-1.49l-1.6-1.44a14.61,14.61,0,0,0-1.77-1.22l.06-.07c-.79-.44-1.55-.91-2.33-1.38s-1.63-.82-2.44-1.24L279,90.09c-.4-.23-.84-.37-1.25-.56l-2.54-1.08a8.24,8.24,0,0,0-1.29-.46l-1.31-.39c-.88-.24-1.73-.55-2.62-.71s-1.77-.26-2.64-.36a11.88,11.88,0,0,0-2.59-.13l-3.14-.23c-1.06-.07-2.14,0-3.23,0a50.92,50.92,0,0,0-6.57.65c-1.1.19-2.19.48-3.28.71L246.9,88l-1.59.51c-1.06.36-2.12.68-3.16,1.07l-3,1.31,0-.17-1.18.54-1.15.62c-.77.4-1.54.79-2.31,1.16-1.54.78-3,1.69-4.51,2.51s-2.87,1.9-4.27,2.92a44,44,0,0,0-3.87,3.5c-.66.61-1.3,1.25-1.94,1.91-.31.33-.63.65-.93,1l-.85,1.09-1.63,2.23c-.55.74-1,1.58-1.46,2.36s-1,1.58-1.4,2.39-.83,1.65-1.25,2.45c-.92,1.59-1.59,3.28-2.49,4.85a11.07,11.07,0,0,0-1.49,3.24,19.93,19.93,0,0,0-.87,3.7c-.19,1.27-.42,2.51-.64,3.68a20.44,20.44,0,0,1-.8,3.3,26.22,26.22,0,0,0-1.08,6.38,29.36,29.36,0,0,0,.45,6.42A36,36,0,0,0,210,158.86a30.8,30.8,0,0,0,6.55,9.67,87.77,87.77,0,0,0,8.7,7.58,11.78,11.78,0,0,1,1.25.58c.42.2.83.41,1.24.65l2.49,1.49a18.74,18.74,0,0,0,5.55,2.41l-.09-.25c1.27,1.06,3.36-.19,4.06,1l-.16,0c.69.62,1.94-.92,2.31-.26l.16-.23c.92,0,.07.3.77.46.28,0,.15-.44.69-.25,0,.52.59.51,1.16.52s1.11,0,1.13.54c-.52,0,.8.47-.38.68.33.13,1.94.12,1.79-.37.14-.52.75-1-.2-1.38l-.19.37c-.31-.38-.24-.19-.34-.48-1.22-.1-1.36-.61-2.2-.92a0,0,0,0,1,0,0c-.62.4-1.42.06-1.87,0l-.16-.23c-.22-.47-1.47.66-1,0a29.47,29.47,0,0,1-7.77-1.65c-.47.16-1.95-.77-1.59,0a7.69,7.69,0,0,0-2.88-2.08.14.14,0,0,1,.2,0c-.89-1.41-1.91-.1-2.58-1.67-.27.25-.77-.12-1.34-.51s-1.15-.86-1.71-.73c0-.23,0-.37.11-.44a36.43,36.43,0,0,1-5.21-4.91c-1.71-.84-2.56-3.36-4.12-4.09-.3-.56-.62-1.34-1.06-2.11a12.8,12.8,0,0,0-1.42-2.31l.17.11a41.31,41.31,0,0,0-2.94-5.1c.54-.82.17-1.59.15-2.48a11.57,11.57,0,0,1-1-2.57c-.26-1.05-.58-2.19-.86-3.18.32-.35-.4-1.64.16-1.81a22.9,22.9,0,0,1-.59-9.27c.12-.81.25-1.62.41-2.42s.39-1.59.6-2.37c.53-1.54,1.1-3,1.67-4.45v.1c0-.83-.35-1.9-.44-2.81.07-.06.15,0,.09.14a29.65,29.65,0,0,1,1.5-3c.08,0,.08,0,.08.25.22-1.06,1.31-1.8,1.44-3.11h.16a5.42,5.42,0,0,1,.17-.8c.15.11.36.25.13.6a75.61,75.61,0,0,1,8-12.15A45.84,45.84,0,0,1,232,95.76l-.21.34,1.48-1.28c0,.09,0,.17-.08.26,1.1-.56,2.2-1.14,3.27-1.78a17.21,17.21,0,0,1,3.27-1.69c0,.08-.24.38.11.35,1.47-1.11,2.83-.51,3.33-1.72a.21.21,0,0,1,.08.35,39.43,39.43,0,0,1,14.57-3,20.48,20.48,0,0,1,3.18-.52c1.09,0,2.19.07,3.3.14.55.06,1.11,0,1.66.15l1.64.27c.55.08,1.1.14,1.65.19l.83.06.82.12-.07.17c.69.12,1.39.27,2.08.43a11.54,11.54,0,0,1,2.08.61l2,.84a15.53,15.53,0,0,1,2,1l1.89,1.13a16.32,16.32,0,0,1,1.86,1.19l1.77,1.3A20.55,20.55,0,0,1,286.23,96c.88.83,1.67,1.47,2.46,2.1s1.47,1.42,2.31,2.3l-.13.2a8.31,8.31,0,0,1,2.19,2.27,16.44,16.44,0,0,1,1.69,2.76c.48,1,1,2,1.51,2.89a15.21,15.21,0,0,0,1.66,2.79l-.41-.14c.36.2.59.8.81,1.29s.35.88.7.61v.81a6.52,6.52,0,0,1,1.44,4,25.49,25.49,0,0,0,.81,4.64l-.22-.21a7.83,7.83,0,0,1,.4,2.74c0-.11-.09-.06-.17-.28a17.07,17.07,0,0,0-.19,4.64,44.45,44.45,0,0,1-.17,4.76l-.33-.41a8.56,8.56,0,0,1-.34,2.94c-.26,1.11-.49,2.28-.7,3.25l-.14-.16,0,1-.35-.06C298.4,143.17,297.81,145.53,297,147.93Z" transform="translate(0 -6.65)"/><path class="cls-5" d="M282,169.23h0C282.09,169.15,282.07,169.18,282,169.23Z" transform="translate(0 -6.65)"/><path class="cls-5" d="M244,180.56l.3.09C244.25,180.58,244.06,180.58,244,180.56Z" transform="translate(0 -6.65)"/><path class="cls-6" d="M288.13,349.88c-25.11-.07-47.78-20.14-51.95-45.2-4.07-24.52,11.66-47.36,36.27-50.13,20.78-2.34,37,6.14,49,22.62,8.75,12,12.16,25.61,8.71,40.32C325.5,337.31,308.91,349.94,288.13,349.88Zm31.24-42.61c.26-19.91-15.78-37.65-37-40.89-19.74-3-37.27,14-34.69,33.82,2.11,16.14,10.86,27.58,25.5,34.32C295.56,344.81,319.07,330.82,319.37,307.27Z" transform="translate(0 -6.65)"/><polygon class="cls-7" points="317.48 300.59 317.37 300.69 317.65 300.96 317.48 300.59"/><path class="cls-7" d="M318.06,309c.05-.05.14,0,.2-.07l-.8-1.06C317,308.3,318.39,308.71,318.06,309Z" transform="translate(0 -6.65)"/><path class="cls-7" d="M318,309.29c-.23.38.14.58.26.68C317.93,309.81,318.4,309.24,318,309.29Z" transform="translate(0 -6.65)"/><path class="cls-7" d="M297.94,335.31a.39.39,0,0,0,.11-.06C298,335.26,298,335.28,297.94,335.31Z" transform="translate(0 -6.65)"/><path class="cls-7" d="M289,338.13l-.09.32c1.76-.56,3.81-.2,5.64-.8l-.1.13a26.31,26.31,0,0,0,12.4-6c0,.07,0,.16-.05.23.12-.22.2-.53.42-.65s0,.15,0,.23c1.13-.17,2-2.09,2.73-2.23.17-.23.1-.47-.12-.48a24.21,24.21,0,0,0,5.76-9.37.3.3,0,0,1,.43,0c.5-3.16,1.56-6.13,2-9.3-.21-.14-.27.3-.47,0-.36,1,.3,1.9-.25,2.74l-.2-.15c-.25.62.53.24.1.86-.23.22-.25-.13-.29,0a24.88,24.88,0,0,0-.79,4.15c-.54.14-.55,1.42-1.2,1.7,0,.4-.18.71,0,1a41.5,41.5,0,0,1-4.14,6.22,25.07,25.07,0,0,1-5.62,5.1A6.87,6.87,0,0,1,302,334c-.65.24-1.31.48-2,.68s-1.34.47-2,.75a.08.08,0,0,1,0-.09,6.33,6.33,0,0,1-1.5.68,6.74,6.74,0,0,1-1.73.39l-.86.56a53.14,53.14,0,0,1-10.17-.32,31.83,31.83,0,0,1-9.76-3,52.76,52.76,0,0,1-9.38-6,102.59,102.59,0,0,1-8.19-7.28c.08,0,.08-.12.23,0a39.92,39.92,0,0,1-3.35-5.25l.08,0a22.82,22.82,0,0,1-3.27-7.17c-.78-2.55-1.23-5.14-2-7.56a32.91,32.91,0,0,1,.28-9.52l.2-1.22c.09-.4.22-.79.33-1.19.23-.79.42-1.59.68-2.38a36.2,36.2,0,0,1,2-4.49l.15.1c.29-.57.57-1.16.91-1.7s.75-1,1.14-1.55a20.76,20.76,0,0,1,2.61-2.77c.23-.22.45-.45.68-.66l.75-.58,1.48-1.17c1-.77,2.09-1.43,3.08-2.23.6-.28,1.19-.57,1.77-.88s1.14-.7,1.77-.95a35.35,35.35,0,0,1,3.7-1.67l1.94-.71c.65-.19,1.33-.31,2-.44a11.53,11.53,0,0,1,2-.28c.68,0,1.36,0,2,.05a9.19,9.19,0,0,0,1.28.19,11.86,11.86,0,0,0,1.35.14c.46,0,.93,0,1.41,0a9.77,9.77,0,0,1,1.43,0c.95.06,1.91.13,2.81.27a6.58,6.58,0,0,1,2.4.9c2.92,1.5,5.66,2.9,8.53,4.16a74.85,74.85,0,0,1,8.37,4.6c.52.54,1.09,1,1.61,1.56s1,1.06,1.57,1.58l.81.78.74.82,1.5,1.66a21.14,21.14,0,0,1,1.36,1.76c.42.61.88,1.19,1.24,1.83s.69,1.31,1,2c.16.34.3.67.44,1a9.71,9.71,0,0,1,.31,1.05,8.14,8.14,0,0,1,1.5,4l.36,2.21a11.81,11.81,0,0,0,.42,2.21l.19-.16c-.21.6.21,1.12.45,1.64s.49,1,.05,1.4l-.07-.11c-.42.62,1.37,1.18.82,1.6l.26.07c.14.7-.26.11-.33.66,0,.2.45,0,.33.48-1,.14.28,1.71-.86,1.79,0-.38-.42.58-.7-.24-.11.23,0,1.36.48,1.27.51.1,1,.57,1.36-.14l-.38-.15c.37-.24.18-.18.46-.27,0-.94.56-1.08.76-1.79,0,0,0,0,0,0-.47-.45-.23-1.11-.18-1.49l.19-.17c.4-.27-1-1-.22-.79-.24-1-.39-2-.61-3s-.53-2.12-.79-3.18c-.33-.22-.5-1.58-.87-1,.43-.69,0-2.3-.18-2.86.06,0,.14,0,.15.1.29-1.41-1.26-1-.8-2.38-.35.06-.51-.41-.7-.94s-.5-1.06-1-1.13c.07-.2.18-.3.31-.32-.5-.86-.91-1.83-1.42-2.7s-1-1.71-1.48-2.41a7.14,7.14,0,0,1-1.67-1.78c-.51-.67-1-1.34-1.75-1.48a9.07,9.07,0,0,0-2.76-3h.18c-1.26-1-2.78-2.32-4-2.47.1-.93-.56-1.21-1-1.83a19.93,19.93,0,0,1-2.05-.93,15.58,15.58,0,0,0-2.41-1.09c0-.45-1.27-.45-1.1-1-4.54-1.14-9.59-3.16-14.38-4.63l.07,0a21.3,21.3,0,0,0-2.15,1.16c-.06,0,0-.14.09-.13a3.59,3.59,0,0,1-1.28-.28,2.9,2.9,0,0,0-1.3-.16c0-.09,0-.09.15-.18-.83.27-1.76-.38-2.73.07l-.07-.14-.6.29c0-.18,0-.45.33-.44a27,27,0,0,0-11.11,3.61c-.83.53-1.71,1-2.5,1.57l-2.35,1.78a50.57,50.57,0,0,0-4.22,4.06l.07-.33-.8,1.32a.22.22,0,0,1,0-.22c-1.43,1.34-2.25,3.24-3.17,4.85-.08-.05-.09-.38-.31-.2a3.25,3.25,0,0,1-.85,1.52,1,1,0,0,0-.13,1.27c-.07,0-.3,0-.32-.17l-.48,1.39-.25.69-.18.71c-.26.95-.51,1.9-.77,2.85s-.34,1.94-.53,2.91a8,8,0,0,0-.19,1.46l-.14,1.47a8.68,8.68,0,0,1,.21,1.24c.06.41.16.83.21,1.24.12.84.19,1.69.25,2.55a16.17,16.17,0,0,0,1.23,4.92l-.18,0c.77,2,1.42,4.09,2.11,6.19.39,1,.76,2.09,1.21,3.11a22.41,22.41,0,0,0,1.56,2.95,27.52,27.52,0,0,0,2.87,4l-.15.18a9.38,9.38,0,0,1,1.71,1.68c.53.6,1,1.27,1.51,1.94a22.61,22.61,0,0,0,1.67,1.86,7.75,7.75,0,0,0,2.08,1.35l-.37.1c.68,0,1.46,1.34,1.81.56l.3.54a5.39,5.39,0,0,1,2.75,1.56,6.74,6.74,0,0,0,3,1.8l-.25.09a5,5,0,0,1,1.89.86c-.08,0-.07.06-.25,0,1.66,1.75,4.38,1.89,6.6,2.59l-.37.28c1.22-.07,3.15.86,4.69.88l-.12.15.8-.11,0,.35A28.27,28.27,0,0,0,289,338.13Z" transform="translate(0 -6.65)"/><path class="cls-7" d="M307.18,331.6h0C307.12,331.66,307.15,331.64,307.18,331.6Z" transform="translate(0 -6.65)"/><path class="cls-7" d="M320.88,304.66l-.06.25C320.89,304.89,320.87,304.74,320.88,304.66Z" transform="translate(0 -6.65)"/><polygon class="cls-7" points="288.13 345.13 288.28 345.23 288.66 344.92 288.13 345.13"/><path class="cls-7" d="M290.61,351c-.07,0,0-.14-.12-.19l-1.44.89C289.73,352.18,290.18,350.73,290.61,351Z" transform="translate(0 -6.65)"/><path class="cls-7" d="M291.05,351.1a.75.75,0,0,0,.91-.36C291.78,351.05,290.9,350.68,291.05,351.1Z" transform="translate(0 -6.65)"/><path class="cls-7" d="M329.4,323.66a1,1,0,0,0,0,.17A.21.21,0,0,0,329.4,323.66Z" transform="translate(0 -6.65)"/><path class="cls-7" d="M331,310.93l-.3-.16c.35,2.4-.67,5-1.06,7.39l-.06-.19c-.46,1.51-.79,3-1.34,4.44l-.74,2.16-.87,2.1-.44,1.06-.51,1-1,2.05c-.38.66-.81,1.31-1.22,2a16.76,16.76,0,0,1-1.34,1.94c0-.1,0-.18,0-.28a2.5,2.5,0,0,1-.41.93c-.11,0-.05-.17,0-.27A7.61,7.61,0,0,0,320,337c-.58.71-1.11,1.4-1.54,1.55-.23.31-.2.58.06.55a47.39,47.39,0,0,1-12.75,8.76c-.26,0-.35-.1-.36-.29-3.79,2.39-8.53,3.16-13,3.35-.15.24.48.18.06.46,1.48.1,2.59-.81,3.94-.63l-.13.25c1,0,.1-.57,1.13-.49.42.1-.05.29.13.27a18.56,18.56,0,0,0,5.83-1.89c.59.28,2.06-.75,2.93-.6.44-.34.94-.53,1-.9a35.34,35.34,0,0,0,9.26-5.57,46.19,46.19,0,0,0,7.45-8,12.35,12.35,0,0,1,1.24-2.39c.44-.8.94-1.61,1.48-2.42a23.25,23.25,0,0,0,1.49-2.57c.24-.45.46-.9.68-1.36s.33-.95.48-1.44a.06.06,0,0,1,.08,0,22,22,0,0,1,.58-2.24,23.08,23.08,0,0,1,.68-2.39v-1.37a38.71,38.71,0,0,0,1.71-14,52.78,52.78,0,0,0-2.9-14,53.33,53.33,0,0,0-3.19-7.29,50.79,50.79,0,0,0-4.06-6.51,42.76,42.76,0,0,0-10.94-10.72c.07-.06,0-.15.27,0-.62-.45-1.21-.91-1.77-1.37s-1.17-.87-1.74-1.31a22.56,22.56,0,0,0-3.6-2.32l.06-.07a94.6,94.6,0,0,0-10.09-4.18,33.31,33.31,0,0,0-10.52-1.71,52.38,52.38,0,0,0-12.94.41,38.26,38.26,0,0,0-12.59,4.2l-.06-.17c-.75.45-1.51.88-2.27,1.3s-1.44.95-2.17,1.41l-1.09.69a7.17,7.17,0,0,0-1.06.74l-2,1.57a16.71,16.71,0,0,0-2,1.7l-1.87,1.8c-.57.66-1.11,1.34-1.66,2a15.28,15.28,0,0,0-1.51,2.14c-.53.73-1,1.49-1.53,2.26a7.47,7.47,0,0,0-.67,1.2l-.59,1.26a23.76,23.76,0,0,0-1.08,2.55l-.84,2.65a23,23,0,0,0-.67,2.69c-.19.9-.44,1.79-.6,2.69s-.29,1.8-.46,2.69l-.27,1.34-.19,1.34a12.27,12.27,0,0,0-.45,3.54c.06,1.25.21,2.53.36,3.8a46.1,46.1,0,0,1,1.06,7.05c0,.54.07,1.08.11,1.62l.08.81.16.8c.22,1.05.47,2.1.74,3.14a10.17,10.17,0,0,0,.51,1.53l.59,1.49a22.71,22.71,0,0,0,1.36,2.91c.53.94,1.07,1.86,1.62,2.78s1.24,1.74,1.87,2.6a52.34,52.34,0,0,0,4.19,4.86,39.62,39.62,0,0,0,8.4,8.21c3.07,2.42,6.41,4.31,9.54,6.57a12.72,12.72,0,0,1,2.6,1c.84.43,1.67.95,2.57,1.36s1.78.9,2.7,1.33a13.87,13.87,0,0,0,2.92.88l-.09-.25a3.41,3.41,0,0,0,2.24.46c.77-.08,1.46-.13,1.83.43l-.16,0c.7.62,1.93-.91,2.31-.25l.15-.23c.92.06.07.33.78.48.27,0,.14-.45.69-.27.05,1,2.27-.11,2.29,1-.52,0,.8.49-.38.67.33.13,1.94.16,1.79-.34.14-.52.75-.95-.2-1.37l-.19.36c-.31-.39-.24-.2-.34-.49-1.23-.11-1.36-.67-2.21-.94,0,0,0,0,0,0a2.21,2.21,0,0,1-1.87,0l-.16-.24c-.23-.47-1.46.65-1,0l-1.89-.18a11.12,11.12,0,0,1-2-.32c-1.31-.32-2.68-.6-4-1-.45.15-2-.71-1.59,0-.45-.84-2.33-1.59-3-1.94a.13.13,0,0,1,.2,0c-1-1.35-1.89,0-2.72-1.5-.54.6-2.08-1.37-3.16-1q-.1-.33.06-.45c-.53-.31-1.09-.61-1.61-1L261,339.41c-1-.76-2-1.45-2.75-2.15a8.64,8.64,0,0,1-2.47-1.74,6.11,6.11,0,0,0-2.33-1.66L251.94,332a10.49,10.49,0,0,0-1.9-2l.19.06-1.08-1.15c-.34-.41-.69-.83-1-1.22a10.4,10.4,0,0,0-2-1.88c.31-.95-.25-1.6-.5-2.47a11.26,11.26,0,0,1-1.73-2.19,31.09,31.09,0,0,0-1.78-2.8c.1-.22-.14-.58-.33-.92s-.31-.71-.08-.87c-.39-.6-.77-1.24-1.14-1.9a12.7,12.7,0,0,1-1-2.1q-.42-1.09-.81-2.25l-.37-1.16a12.2,12.2,0,0,1-.26-1.2c-.16-.8-.3-1.61-.43-2.42-.06-.4-.14-.8-.18-1.21l0-1.22a26.37,26.37,0,0,1,.11-4.72l0,.08c-.32-.77-1-1.67-1.4-2.51,0-.08.13-.07.14.11-.11-1.14.58-2.16.54-3.29.09,0,.09,0,.17.21a4.35,4.35,0,0,1,.2-1.62,3.63,3.63,0,0,0,.24-1.75l.16,0-.06-.81c.17,0,.43.13.3.53a51.65,51.65,0,0,1,4.58-13.7,35.32,35.32,0,0,1,9.29-11.41l-.17.37,1.28-1.47c0,.07,0,.17,0,.26a21.75,21.75,0,0,0,3.08-2.06,12.08,12.08,0,0,1,1.54-1c.52-.31,1.05-.61,1.59-.87,0,.08-.21.41.13.34a3.65,3.65,0,0,1,1-.67c.35-.11.67-.17,1-.24.59-.13,1-.28,1.27-.93a.23.23,0,0,1,.09.36,34.19,34.19,0,0,1,14.49-3,18.58,18.58,0,0,1,3.19-.47c1.09,0,2.2.05,3.31.1s2.22.27,3.33.36,2.2.28,3.31.3l-.06.17a18.74,18.74,0,0,1,2.1.34,21.41,21.41,0,0,1,2.1.51,30.76,30.76,0,0,1,4.09,1.57,66.13,66.13,0,0,1,7.68,4.29c1,.73,1.82,1.29,2.68,1.85s1.64,1.2,2.6,2l-.11.21a16.25,16.25,0,0,1,4.63,4.4c.71.83,1.32,1.75,2,2.57a20.91,20.91,0,0,0,2.28,2.33l-.43,0c.79.23,1.44,2.15,1.95,1.47l.23.77a7.32,7.32,0,0,1,2.52,3.38,19,19,0,0,0,2.22,4.15l-.28-.12a6.41,6.41,0,0,1,1.25,2.47c-.07-.09-.1,0-.24-.21.48,3,2.34,5.82,3,8.93l-.43-.27a10.33,10.33,0,0,1,.75,2.87c.12,1.12.27,2.3.42,3.29l-.19-.11.33,1-.35,0A52.72,52.72,0,0,1,331,310.93Z" transform="translate(0 -6.65)"/><path class="cls-7" d="M321.69,335.08h0C321.75,335,321.73,335,321.69,335.08Z" transform="translate(0 -6.65)"/><path class="cls-7" d="M284.89,348.11l.3.08C285.17,348.12,285,348.13,284.89,348.11Z" transform="translate(0 -6.65)"/><path class="cls-6" d="M317.41,170.26c11.72.32,25.21,5.62,35.35,18,12.55,15.35,11.21,36.78-3.07,51.24-19.25,19.5-53.84,19.37-72.86-.26-17.48-18-14.42-45.38,6.7-59.9C292.33,173.33,302.37,170.26,317.41,170.26Zm-4.1,71.87c9.72-.38,18.39-2.95,25.76-9.14,13-11,13.53-29.09,1.14-40.62-14.51-13.51-39.53-13.41-53.88.22-11.94,11.33-11.59,28.94.8,39.86C294.68,239.11,303.7,241.77,313.31,242.13Z" transform="translate(0 -6.65)"/><polygon class="cls-8" points="313.38 233.58 313.29 233.47 313.03 233.75 313.38 233.58"/><path class="cls-8" d="M311.73,240.8c0,.06,0,.14.06.2l1-.79C312.39,239.71,312,241.13,311.73,240.8Z" transform="translate(0 -6.65)"/><path class="cls-8" d="M311.45,240.7c-.35-.23-.53.15-.63.28C311,240.68,311.5,241.13,311.45,240.7Z" transform="translate(0 -6.65)"/><path class="cls-8" d="M283.49,226.71a.34.34,0,0,0,.09.08A.12.12,0,0,0,283.49,226.71Z" transform="translate(0 -6.65)"/><path class="cls-8" d="M278.54,219.65h-.33a4.93,4.93,0,0,1,.59,1.14,12,12,0,0,1,.5,1.22l.45,1.26a6.55,6.55,0,0,0,.67,1.14l-.15,0c2,4,5.18,6.77,8.64,9.25-.07,0-.15,0-.22,0,.23,0,.54,0,.71.18,0,.09-.15.08-.22.06.4,1,2.35,1.29,2.6,1.92.25.09.46,0,.43-.25a28.71,28.71,0,0,0,9.56,3.58.31.31,0,0,1,0,.42c3,0,5.82.84,8.77,1.22.13-.21-.28-.26,0-.47-.9-.34-1.77.36-2.57-.14l.13-.2c-.59-.23-.2.52-.79.15-.22-.22.1-.26,0-.3-1.32-.1-2.6-.57-3.93-.36-.19-.51-1.36-.39-1.7-.94-.38.08-.69-.08-.9.18-4.28-1.62-8.66-3.48-12.28-6.58a5.32,5.32,0,0,1-.82-.35,6,6,0,0,1-.7-.55,12.65,12.65,0,0,1-1.29-1.34c-.39-.5-.73-1.07-1.12-1.58s-.8-1-1.2-1.54a.08.08,0,0,1,.07,0,6.68,6.68,0,0,1-1.82-2.51l-.75-.59a38.72,38.72,0,0,1-2.18-9,20.8,20.8,0,0,1,.92-9.17,27,27,0,0,1,4.89-8.67l.75-.95.82-.89c.57-.59,1.05-1.25,1.68-1.8s1.18-1.16,1.76-1.78,1.26-1.15,1.89-1.78c0,.07.11.08,0,.22a13.63,13.63,0,0,1,1.19-.89c.42-.23.85-.44,1.27-.65l1.25-.65c.41-.23.81-.46,1.24-.68l0,.09a17.91,17.91,0,0,1,3.2-1.65l1.73-.58a13.55,13.55,0,0,1,1.76-.5l1.78-.39c.59-.14,1.18-.29,1.77-.37,1.18-.19,2.33-.51,3.46-.77a49.34,49.34,0,0,1,17.65,2.15l-.07.16a33.75,33.75,0,0,1,3.3,1.3c1,.58,2,1.2,3,1.81l2.79,2.1c.9.72,1.76,1.51,2.71,2.2.45.4.81.9,1.25,1.32s.88.85,1.31,1.29.83.91,1.25,1.37l.65.68.58.74,1.15,1.5c.35.53.64,1.09.95,1.64a13.11,13.11,0,0,1,1.31,3.5,8.89,8.89,0,0,0,.38,2.41,12.57,12.57,0,0,1,.34,1.24l.35,1.27a11,11,0,0,1,.43,2.56,4.89,4.89,0,0,1-.34,2.34c-.93,2.87-1.72,5.54-2.79,8.19a36.16,36.16,0,0,1-3.95,7.79l-.74.73-.77.68c-.52.45-1,.92-1.51,1.4-1,.91-2.06,1.8-3.16,2.62a18.29,18.29,0,0,1-7.27,3.49,5.88,5.88,0,0,1-1.76.81,14.15,14.15,0,0,1-2,.32,26.82,26.82,0,0,0-4.1.48l.14.19c-1.08-.46-2.05,1.29-2.81.39l.1,0c-.58-.45-1.08,1.32-1.47.76l-.06.26c-.64.12-.1-.28-.61-.33-.18,0,0,.45-.43.34-.16-1-1.56.34-1.67-.81.35,0-.56-.42.2-.7-.23-.1-1.27,0-1.16.49-.07.52-.48,1,.19,1.36l.12-.38c.24.36.18.18.27.45.86,0,1,.56,1.65.73,0,0,0,0,0,0,.4-.48,1-.27,1.35-.23l.15.2c.26.41.9-1,.72-.19,1.74-.37,3.75-.69,5.69-1.16.21-.32,1.49-.34.93-.76a3.45,3.45,0,0,0,2.64,0c0,.06,0,.13-.1.14,1.3.45,1-1.13,2.25-.53-.11-.7,1.81-.48,2-1.49.18.09.28.2.29.34a43,43,0,0,0,4.89-2.34c.78-1.21,2.83-1.61,3.18-3a7.83,7.83,0,0,0,2.94-2.4l0,.16a17.26,17.26,0,0,0,1.48-1.86,8.44,8.44,0,0,0,.59-.94,3.69,3.69,0,0,0,.27-.93c.91.13,1.16-.51,1.76-.9a15.39,15.39,0,0,1,.79-2l.52-1.15a6.84,6.84,0,0,0,.33-1.19c.44-.07.35-1.22.89-1.09.11-.53.16-1.1.23-1.67s.19-1.13.3-1.7.16-1.16.26-1.74.26-1.17.29-1.77c.12-1.19.37-2.39.42-3.6.05-.6.11-1.21.17-1.8s0-1.2,0-1.78l0,.06a9.66,9.66,0,0,0-1.65-1.6c0-.06.12-.07.15,0-.3-.76.06-1.65-.27-2.41.09,0,.09,0,.22.08-.49-.65-.14-1.66-.85-2.37l.12-.11a5.65,5.65,0,0,0-.41-.46c.17-.05.45-.15.5.17a24.8,24.8,0,0,0-6.21-8.8,43.8,43.8,0,0,0-4.18-3.41c-.73-.52-1.51-1-2.25-1.46l-1.12-.74-1.17-.65.31,0-1.36-.39a.2.2,0,0,1,.2-.09,7,7,0,0,0-1.13-.72,10.64,10.64,0,0,0-1.27-.46,23.53,23.53,0,0,1-2.49-.87c0-.09.34-.15.15-.34-1.37.09-1.77-1.22-2.67-.43,0-.07,0-.3.12-.34-.86-.21-1.75-.34-2.63-.48s-1.76-.35-2.65-.45-1.78-.22-2.66-.35-1.78-.15-2.67-.25a25.94,25.94,0,0,1-4.6.56,13.11,13.11,0,0,0-2.34.27,10.61,10.61,0,0,0-2.24.62l0-.19a22,22,0,0,1-2.85.92c-1,.22-1.92.59-2.91.84-.48.15-1,.26-1.47.43l-1.43.55a14.6,14.6,0,0,0-2.78,1.28,19.48,19.48,0,0,0-2,1.12c-.59.39-1.12.88-1.82,1.35l-.17-.16a10,10,0,0,1-1.62,1.49c-.57.46-1.2.88-1.84,1.3a10.69,10.69,0,0,0-1,.66c-.29.25-.57.51-.84.79a5.38,5.38,0,0,0-1.3,1.88l-.11-.36c.09.67-1.25,1.33-.48,1.69l-.53.27a4.51,4.51,0,0,1-1.36,2.55,5.62,5.62,0,0,0-1.5,2.85l-.11-.22a4.25,4.25,0,0,1-.59,1.82c0-.09-.07-.07-.06-.24a4.27,4.27,0,0,0-.82,1.41,11.23,11.23,0,0,0-.34,1.63l-.11.83v.85a12.53,12.53,0,0,1-.12,1.64l-.33-.28a8.6,8.6,0,0,1,.08,2.09c0,.39-.06.8-.07,1.19a9,9,0,0,0,.14,1.12l-.17-.07.29.68-.35.05a11.27,11.27,0,0,0,.52,2.62C277.92,218,278.28,218.81,278.54,219.65Z" transform="translate(0 -6.65)"/><path class="cls-8" d="M289.18,233.89v0C289.11,233.86,289.13,233.87,289.18,233.89Z" transform="translate(0 -6.65)"/><path class="cls-8" d="M315.74,243.58a.78.78,0,0,1-.23-.05C315.53,243.6,315.67,243.58,315.74,243.58Z" transform="translate(0 -6.65)"/><polygon class="cls-8" points="317.41 161.72 317.27 161.61 316.92 161.91 317.41 161.72"/><path class="cls-8" d="M315.11,169.05c.07,0,0,.14.1.2l1.35-.86C315.94,167.92,315.51,169.36,315.11,169.05Z" transform="translate(0 -6.65)"/><path class="cls-8" d="M314.71,169a.7.7,0,0,0-.86.37C314,169,314.83,169.39,314.71,169Z" transform="translate(0 -6.65)"/><path class="cls-8" d="M273.38,187.23l.09-.14A.21.21,0,0,0,273.38,187.23Z" transform="translate(0 -6.65)"/><path class="cls-8" d="M268.44,198.24l.25.23c.22-2.3,2-4.24,2.92-6.36v.19c.87-1.19,1.64-2.42,2.48-3.58l2.67-3.34,3-3.12c1.09-.95,2.2-1.89,3.35-2.84-.06.08,0,.18-.08.26.16-.26.29-.63.58-.78.11,0,0,.18-.06.26,1.32-.27,2.93-2.28,3.83-2.29.28-.22.32-.49.06-.54a52,52,0,0,1,6.47-3.21c2.26-.93,4.6-1.73,6.9-2.44.25,0,.32.15.29.34,3.84-1.71,8.25-1.83,12.41-1.85.15-.22-.44-.21,0-.46-1.36-.24-2.43.67-3.68.35l.14-.22c-.9-.07-.13.54-1.08.36-.38-.15.07-.29-.1-.28-1.88.27-3.9.32-5.57,1.16-.53-.4-2,.37-2.8.09-.45.27-.94.36-1.05.7a39.25,39.25,0,0,0-9.53,3.37,49.64,49.64,0,0,0-4.43,2.53,47,47,0,0,0-4.18,2.95,10.69,10.69,0,0,1-1.76,1.8c-.64.59-1.29,1.19-2,1.77l-1.07.88a7.19,7.19,0,0,0-1,1,21.29,21.29,0,0,0-1.84,2.17.07.07,0,0,1-.07-.06,10.09,10.09,0,0,1-.55.86l-.58,1a21.68,21.68,0,0,1-1.34,1.92c-.12.42-.28.81-.36,1.24a32.53,32.53,0,0,0-5.25,12.25l-.56,3.34-.2,3.39-.05.85,0,.85.07,1.69.06,1.7.23,1.69c1.29,10.17,6.21,19,14.43,24.66-.07.06,0,.15-.25,0,2.28,1.73,4.2,3.55,6.63,4.77l-.05.08c3.05,1.41,6.17,2.92,9.4,4.08a31.88,31.88,0,0,0,9.79,2.09,50.91,50.91,0,0,0,24.4-1.91l0,.17c3.08-1.13,6.11-2.22,9-3.6a33.43,33.43,0,0,0,8.22-5.24,28.4,28.4,0,0,0,6.94-7.65c1-1.42,1.78-3,2.65-4.46.42-.75.76-1.54,1.17-2.28l.62-1.13.54-1.15a9.48,9.48,0,0,0,1.37-3.06,19.62,19.62,0,0,0,.64-3.53c.11-1.2.26-2.36.3-3.49a22.14,22.14,0,0,1,.49-3.15,22.5,22.5,0,0,0-.92-12,32.44,32.44,0,0,0-6.13-10.33,33.33,33.33,0,0,0-7.41-8.16c-2.82-2.34-5.79-4.37-8.68-6.55a12.41,12.41,0,0,1-2.39-1.07c-.79-.41-1.57-.87-2.37-1.37a19.39,19.39,0,0,0-5.2-2.28l.07.25a2.86,2.86,0,0,0-2.1-.44c-.73,0-1.37.06-1.7-.52h.15c-.63-.66-1.86.9-2.19.23l-.15.23c-.86-.06-.06-.31-.71-.49-.26,0-.15.44-.66.25,0-.52-.54-.52-1.07-.54s-1.05,0-1.05-.57c.49,0-.74-.49.38-.67-.31-.13-1.82-.16-1.7.34-.14.51-.72.94.15,1.37l.19-.36c.29.39.22.2.32.49,1.14.11,1.25.64,2,1,0,0,0,0,0,0,.6-.38,1.34-.05,1.76.08l.14.23c.2.48,1.4-.64.94,0a30.59,30.59,0,0,1,7.31,1.64c.44-.18,1.84.72,1.51,0a3.39,3.39,0,0,0,1.27,1.17,8.67,8.67,0,0,0,1.46.8.14.14,0,0,1-.2,0c.89,1.28,1.8.05,2.49,1.5.53-.54,1.9,1.34,2.95,1,.05.23,0,.37-.1.45a42.88,42.88,0,0,1,5.29,4.27c1.7.61,2.77,2.91,4.36,3.37.37.48.77,1.17,1.27,1.85a9.33,9.33,0,0,0,.81,1,6.43,6.43,0,0,0,.87.93l-.18-.06c.55.74,1.25,1.53,1.83,2.31a8.92,8.92,0,0,0,1.74,1.91c-.4.86,0,1.52.17,2.35.93.91,1.74,3.29,2.62,5-.29.39.57,1.48.06,1.71.15.3.3.61.44.93s.21.65.32,1c.21.67.4,1.37.58,2.08s.2,1.47.28,2.21l.1,1.13,0,1.14a24.7,24.7,0,0,1-1.82,8.74v-.09c.08.77.48,1.77.62,2.63-.06.06-.15,0-.1-.13-.17,1.06-1.1,1.78-1.38,2.79-.08,0-.08,0-.09-.23a3.85,3.85,0,0,1-.64,1.38,3.2,3.2,0,0,0-.7,1.51h-.16l-.15.75c-.15-.1-.38-.26-.15-.58a51.23,51.23,0,0,1-8,11c-.78.85-1.67,1.6-2.51,2.4s-1.77,1.51-2.73,2.17a36.44,36.44,0,0,1-6,3.59l.23-.3-1.5,1c0-.09,0-.16.09-.24-2.22.66-4.26,2-6.46,2.57,0-.09.26-.36-.07-.36-1.46,1-2.73.06-3.29,1.28a.22.22,0,0,1,0-.36A38.62,38.62,0,0,1,311.44,253a17.75,17.75,0,0,1-6.12-.08c-2.07-.32-4.13-.75-6.2-.95l.07-.18a26.8,26.8,0,0,1-7.73-2.51,73.58,73.58,0,0,1-7.15-4.16c-.91-.68-1.72-1.19-2.49-1.76-.39-.27-.79-.54-1.19-.84s-.8-.65-1.23-1l.11-.21a9.8,9.8,0,0,1-2.33-1.84,26.37,26.37,0,0,1-1.87-2.42c-1.29-1.6-2.17-3.46-3.76-4.82l.42.06c-.8-.23-1-2.19-1.66-1.56l-.12-.75a5.52,5.52,0,0,1-1.31-1.58,12.91,12.91,0,0,1-.61-1.88c-.17-.65-.34-1.32-.58-2a10.53,10.53,0,0,0-.83-2.2l.25.16a5.76,5.76,0,0,1-.76-2.48c0,.09.09,0,.18.23a14.59,14.59,0,0,0-.43-4.34c-.11-.73-.22-1.48-.33-2.22a9.85,9.85,0,0,1-.15-2.23l.35.34a10,10,0,0,1,0-2.77c0-1.07.35-2.15.39-3.09l.15.14-.09-1,.35,0c.15-1.2.51-2.32.72-3.47.13-.57.23-1.16.39-1.72S268.23,198.79,268.44,198.24Z" transform="translate(0 -6.65)"/><path class="cls-8" d="M283.52,179.16h0C283.45,179.23,283.48,179.21,283.52,179.16Z" transform="translate(0 -6.65)"/><path class="cls-8" d="M320.4,172.07l-.28-.1C320.14,172.05,320.31,172.05,320.4,172.07Z" transform="translate(0 -6.65)"/><polygon class="cls-1" points="120.14 176.61 120.28 176.74 120.74 176.51 120.14 176.61"/><path class="cls-1" d="M123,183c-.08-.07,0-.15-.1-.21l-1.78.57C121.8,184,122.58,182.65,123,183Z" transform="translate(0 -6.65)"/><path class="cls-1" d="M123.51,183.2a1,1,0,0,0,1.14-.18C124.38,183.3,123.43,182.76,123.51,183.2Z" transform="translate(0 -6.65)"/><path class="cls-1" d="M171.85,156.13a1.54,1.54,0,0,0-.08.19A.28.28,0,0,0,171.85,156.13Z" transform="translate(0 -6.65)"/><path class="cls-1" d="M175,141.36l-.29-.19a12.68,12.68,0,0,1-.57,4.31c-.2.72-.41,1.44-.61,2.16s-.47,1.42-.64,2.14l0-.23a53.13,53.13,0,0,1-10.84,18.71c.06-.1,0-.19.08-.3a3.51,3.51,0,0,1-.64,1c-.13,0,0-.19,0-.3a11.14,11.14,0,0,0-2.28,2,7.4,7.4,0,0,1-2,1.66c-.31.32-.36.59-.05.58a57,57,0,0,1-16,8.67c-.3,0-.39-.12-.36-.32a26.09,26.09,0,0,1-3.73,1.3,30.34,30.34,0,0,1-3.94.7,43.51,43.51,0,0,1-8.07,0c-.23.2.54.28,0,.46a4.15,4.15,0,0,0,1.3.12c.4,0,.79-.1,1.18-.16a5.52,5.52,0,0,1,2.29,0l-.19.22c1.14.11.21-.54,1.39-.35.48.15-.1.29.12.28a21.94,21.94,0,0,0,7.07-1.38c.65.32,2.53-.56,3.5-.39.54-.37,1.16-.51,1.29-.88a41.59,41.59,0,0,0,11.49-5.4,55.41,55.41,0,0,0,9.68-8.42,46.44,46.44,0,0,1,3.83-5.25c.67-.93,1.38-1.86,2-2.84a33.85,33.85,0,0,0,1.69-3.14.05.05,0,0,1,.08,0c.42-1.52,1.34-3.57,2-5.3l.16-1.59a37.59,37.59,0,0,0,2.57-16.49,41.25,41.25,0,0,0-4.57-16.3,35.27,35.27,0,0,0-12.41-13.73,31.87,31.87,0,0,0-17.49-4.92c0-.09-.08-.14.25-.15-1.81-.15-3.53-.07-5.23-.11a17.72,17.72,0,0,0-2.53.16c-.84.08-1.68.19-2.52.32v-.08a87.51,87.51,0,0,0-12.27,3.94,37.63,37.63,0,0,0-10.55,6.82,42.16,42.16,0,0,0-10.09,11.47l-1,1.7-.82,1.8-.89,2-.12.25c0,.08.14.09.2.14l.5.23,1,.47,7.12,3.27-.1.15,1.65.73.1.05.07-.06a3.91,3.91,0,0,0,.62-.41l.4-.63.76-1.19c.51-.79,1-1.56,1.59-2.32a38.81,38.81,0,0,1,3.63-4.24,45.88,45.88,0,0,1,8.75-6.79A48.14,48.14,0,0,1,134.5,111a22.13,22.13,0,0,1,12.72,1c1.2.56,2.41,1.27,3.73,1.85.63.37,1.28.72,1.94,1.06s1.25.81,1.89,1.21a10.28,10.28,0,0,1,.93.65l.85.73a10.91,10.91,0,0,1,1.57,1.54c.46.55.9,1.11,1.29,1.67a14.89,14.89,0,0,1,.83,1.78c.13.29.27.57.39.87l.3.91.61,1.77.45,1.81.24.89c.06.3.09.61.15.91l.31,1.81c.11.6.11,1.22.18,1.82s.15,1.22.14,1.83v1.83a11.21,11.21,0,0,1-.08,1.83l-.14,1.85-.31,1.83a14.43,14.43,0,0,1-.36,1.83,31,31,0,0,1-1,3.62c-.21.6-.39,1.22-.63,1.8l-.77,1.76a48.94,48.94,0,0,1-8.85,10.93,25.87,25.87,0,0,1-12.22,6.43,14.53,14.53,0,0,1-6.64,1.06,67.06,67.06,0,0,0-7.11-.21l.18.22a2.51,2.51,0,0,0-.66-.14,4.36,4.36,0,0,0-.81,0,6.63,6.63,0,0,0-.74.13l-.17,0c-.06,0,0,.13,0,.19v.41a7.85,7.85,0,0,1-.1,1.31,1.34,1.34,0,0,1-.54.88v-.18c-.69.78.71,2.31,0,2.72l.21.2c-.16,1.09-.3.07-.58.88,0,.31.42.21.14.83-1-.08-.37,2.68-1.5,2.51.13-.59-.64.82-.58-.55-.2.35-.54,2.17,0,2.11.47.26.76,1.06,1.39.06l-.32-.31c.45-.28.24-.24.55-.31.36-1.42.94-1.49,1.38-2.47,0,0,0,0,0,0a3.57,3.57,0,0,1,.37-2.25l.26-.18c.5-.24-.48-1.81.16-1.21q.16-1.11.39-2.28l0-.29,0-.11,0-.2,0-.21c0-.05.13,0,.19,0l.21,0h.36l1.24,0,2.51-.07c.45-.29,2.57-.07,1.81-.59.86.6,3.43.57,4.38.39a.19.19,0,0,1-.21.13,2.33,2.33,0,0,0,2-.31,2.22,2.22,0,0,1,2-.24c.05-.38.82-.57,1.68-.8a6.91,6.91,0,0,0,1.26-.43,2,2,0,0,0,.82-.73c.25.06.38.16.35.3,1.49-.57,2.95-1.35,4.4-2.07.69-.4,1.36-.82,2-1.22.32-.2.64-.39.93-.59l.83-.64a7.8,7.8,0,0,1,1.3-1.34l1.48-1.34a6.82,6.82,0,0,0,2.22-2.85c.3-.28.67-.57,1-.93s.72-.78,1.1-1.21a12.35,12.35,0,0,0,1.07-1.38,12.7,12.7,0,0,0,.82-1.54l0,.24a26.73,26.73,0,0,0,1.89-3.56,12.31,12.31,0,0,0,.94-3.32c1.06-.39,1.21-1.53,1.82-2.5.12-.86.28-2.17.55-3.55.11-.69.14-1.43.19-2.15a9,9,0,0,0,0-2.08c.39-.4-.11-2.16.43-2.31A44.5,44.5,0,0,0,162,123.3a30.24,30.24,0,0,0-7.45-9.82l.12,0a24.39,24.39,0,0,0-3.44-.56c-.07-.08,0-.17.17-.06a10.26,10.26,0,0,1-1.79-1,9.8,9.8,0,0,0-.87-.55,5.56,5.56,0,0,0-1-.36c.05-.08.05-.08.29-.09a7.38,7.38,0,0,1-1.95-.73,5.7,5.7,0,0,0-2.22-.42l-.06-.16a8.51,8.51,0,0,0-1,0c0-.16.13-.47.65-.29A30.68,30.68,0,0,0,125.33,112a37.57,37.57,0,0,0-7.85,4.87,44.44,44.44,0,0,0-6.48,6.53l.14-.46c-.41.68-.83,1.36-1.2,2.07-.07-.07,0-.19,0-.3a16.53,16.53,0,0,0-2,2.84l-.86,1.48c-.13.24-.31.54-.35.63a.31.31,0,0,1-.15.17l-.28.18.85,0c-.65-.28-1.27-.57-1.87-.88,0-.07.52,0,.2-.3-2.14-.49-2.81-2.07-4.21-1.61a.2.2,0,0,1,.2-.31l-3.36-1.41-.14-.06s0-.07,0-.11l.11-.26.22-.53.9-2c.76-1.25,1.5-2.53,2.32-3.74s1.78-2.35,2.78-3.41a23.59,23.59,0,0,1,2.26-3c.92-.9,1.89-1.77,2.87-2.64s2.12-1.56,3.15-2.38,2.16-1.48,3.16-2.32l.07.17a16.55,16.55,0,0,1,2.13-1.33c.74-.41,1.49-.83,2.26-1.2l2.39-1a17.79,17.79,0,0,1,2.46-.83l2.52-.67c.83-.25,1.71-.32,2.55-.5s1.71-.34,2.57-.43,1.72-.18,2.57-.29c1.42-.17,2.62-.1,3.82-.19.6,0,1.21-.09,1.84,0s1.29.08,2,.15l0,.23a11.56,11.56,0,0,1,1.86,0c.61.08,1.23.19,1.85.32s1.24.29,1.85.45,1.2.46,1.8.69c1.19.48,2.4.92,3.54,1.5s2.37.94,3.55,1.42l-.45.1c.91,0,2.53,1.66,2.72.83l.58.74a8.63,8.63,0,0,1,2.26,1.17,14.56,14.56,0,0,1,1.74,1.77l.85,1c.29.33.54.7.84,1a20.09,20.09,0,0,0,2.05,2.12l-.32-.11a10.91,10.91,0,0,1,2,2.61c-.1-.09-.11,0-.31-.2.37.81.66,1.68,1.1,2.47.22.4.44.8.68,1.2s.41.83.63,1.24c.42.83.93,1.64,1.29,2.51s.7,1.75,1,2.63l-.49-.29c1,1.58,1.26,4.89,1.66,7.19l-.19-.12.39,1.15-.35.06c0,.76.06,1.51.11,2.25s.14,1.47.1,2.21l0,2.21c0,.37,0,.74,0,1.11Z" transform="translate(0 -6.65)"/><path class="cls-1" d="M161.54,168.67h0C161.62,168.57,161.59,168.6,161.54,168.67Z" transform="translate(0 -6.65)"/><path class="cls-1" d="M122.8,177.84a2.83,2.83,0,0,1-.15.35C122.73,178.18,122.76,178,122.8,177.84Z" transform="translate(0 -6.65)"/><polygon class="cls-9" points="199.81 392.93 199.95 393.04 200.31 392.75 199.81 392.93"/><path class="cls-9" d="M202.29,399c-.07-.06,0-.15-.11-.2l-1.49.81C201.32,400.07,201.86,398.64,202.29,399Z" transform="translate(0 -6.65)"/><path class="cls-9" d="M202.75,399.05a.83.83,0,0,0,1-.36C203.53,399,202.61,398.63,202.75,399.05Z" transform="translate(0 -6.65)"/><path class="cls-9" d="M240.75,368.93l0,.18A.26.26,0,0,0,240.75,368.93Z" transform="translate(0 -6.65)"/><path class="cls-9" d="M241.23,355.73l-.32-.14a9.59,9.59,0,0,1,.28,1.87c0,.63-.07,1.28-.14,1.93l-.21,1.95a18,18,0,0,0-.25,1.92l-.08-.19a59.32,59.32,0,0,1-2.38,9.15l-.88,2.17-.45,1.1c-.16.35-.35.7-.53,1.05-.36.71-.73,1.41-1.1,2.12s-.85,1.36-1.29,2c0-.1,0-.18,0-.29a2.78,2.78,0,0,1-.35,1c-.11,0-.06-.17,0-.28a9.3,9.3,0,0,0-1.71,2c-.54.78-1,1.55-1.46,1.71-.24.31-.2.58.07.55a49,49,0,0,1-12.59,9.74c-.26,0-.36-.07-.37-.26-3.78,2.65-8.66,3.63-13.27,3.94-.16.24.5.17.06.46,1.54.06,2.66-.91,4.07-.73l-.13.25c1-.09.09-.58,1.15-.55.43.09,0,.29.15.27,1-.31,2.09-.48,3.1-.84a13.59,13.59,0,0,0,2.82-1.35c.64.28,2.08-.89,3-.8.42-.39,1-.56,1-.94a38.1,38.1,0,0,0,9.18-6.29,51.72,51.72,0,0,0,7.19-8.63,16.12,16.12,0,0,1,1.1-2.54c.22-.42.47-.83.71-1.26l.69-1.31a23.47,23.47,0,0,0,2.42-5.67.07.07,0,0,1,.09,0,19.92,19.92,0,0,1,.37-2.36c.09-.42.19-.85.3-1.27s.16-.84.26-1.23l-.15-1.41a23.91,23.91,0,0,0,.61-3.58c.06-.61.14-1.22.19-1.82v-1.83c0-1.22,0-2.44-.05-3.66l-.44-3.66c-.09-.6-.13-1.22-.25-1.82l-.41-1.8c-.29-1.19-.49-2.41-.85-3.59-.77-2.34-1.43-4.71-2.43-7-.26-.65-.53-1.29-.79-1.93a19.65,19.65,0,0,0-.91-1.84c-.64-1.2-1.21-2.43-1.9-3.58l-2.17-3.34a14.11,14.11,0,0,0-1.18-1.58l-1.24-1.53a38,38,0,0,0-12.3-9.92c.06-.07,0-.16.26,0-1.31-.86-2.63-1.57-3.91-2.31l-1.91-1.09c-.66-.32-1.35-.57-2.05-.83l.05-.08c-.88-.27-1.76-.57-2.63-.9s-1.79-.51-2.69-.8l-2.69-.83-2.76-.62c-.92-.19-1.83-.42-2.75-.58l-2.77-.29c-.91-.08-1.82-.17-2.72-.19a23.39,23.39,0,0,0-2.67.14,40.63,40.63,0,0,0-6.55.4c-1.11.17-2.23.37-3.34.63-.55.13-1.11.27-1.66.43l-.82.23-.92.3-.92.31-.46.16-.11,0s0,.07,0,.1l.08.23.65,1.85,1.16,3.23,1.17,3.22.6,1.64.15.41,0,.1s.07,0,.1,0l.23,0,.87-.08,0,.18c1.89-.25,3.57-.47,5.36-.61a35.42,35.42,0,0,1,5.25-.09,65.3,65.3,0,0,1,10.25,2.06,71.48,71.48,0,0,1,10.21,4.38,24.79,24.79,0,0,1,2.44,1.44c.78.53,1.56,1.08,2.32,1.63a25.69,25.69,0,0,1,4,4c.3.5.68,1,1,1.46s.73,1,1.14,1.48c.85.95,1.63,2,2.45,3a16.41,16.41,0,0,1,3.4,6.52c1,4.35,1.92,8.52,2.53,12.77a34.55,34.55,0,0,1-.62,13,39,39,0,0,1-6.34,10.52,10.18,10.18,0,0,1-1.06,1.12l-1.11,1.07c-.76.68-1.59,1.28-2.41,1.89s-1.73,1.08-2.65,1.51a20.93,20.93,0,0,1-2.82,1.07,12.9,12.9,0,0,1-5.63,1.67c-1,.08-2,.11-3.08.17-.51,0-1,.06-1.55.12s-1.27.17-1.88.29l.36.17-.41,0h-.1a.17.17,0,0,0,0,.07l0,.16a4.2,4.2,0,0,0,0,.71,7.59,7.59,0,0,0,.25,1.35c.19.76.35,1.46-.15,1.92l-.05-.15c-.5.79,1.19,1.84.59,2.32l.25.13c.07.95-.28.11-.38.85,0,.28.45.1.31.69-1,.12.22,2.34-.93,2.41,0-.52-.44.82-.68-.36-.12.34-.06,1.95.43,1.8.51.14,1,.77,1.36-.21l-.37-.19c.37-.33.18-.26.47-.37,0-1.28.59-1.45.82-2.37,0,0,0,0,0,0-.45-.63-.18-1.49-.12-2l.21-.2c.44-.3-.86-1.45-.1-1.06,0-.65-.08-1.32-.11-2l-.05-1.7,0-.39.37-.07,1.74-.26c.36-.34,2.23-.34,1.5-.78a3.67,3.67,0,0,0,1.95.26,8.36,8.36,0,0,0,1.93-.38.15.15,0,0,1-.16.15,1.94,1.94,0,0,0,1.72-.45,1.66,1.66,0,0,1,1.65-.44c0-.39.66-.55,1.38-.86s1.49-.68,1.67-1.24c.24.05.37.15.37.29a34,34,0,0,0,6.75-4.67,14.83,14.83,0,0,1,2.18-2.63,6.18,6.18,0,0,0,1.58-2.78,26.23,26.23,0,0,0,1.62-2.11,10.11,10.11,0,0,0,1.25-2.81l0,.22c.83-2.09,1.64-4.81,1.34-6.42.92-.48,1-1.47,1.31-2.41-.12-.78,0-1.91-.11-3.14,0-.62,0-1.26-.09-1.88s-.2-1.23-.33-1.79c.17-.19.09-.65,0-1.09s-.15-.82.11-.92c-.52-1.51-.93-3.12-1.5-4.73s-1.09-3.28-1.64-5c-.27-.85-.64-1.65-.94-2.49a26.44,26.44,0,0,0-1-2.46c-.35-.82-.71-1.63-1.05-2.42s-.79-1.56-1.18-2.31l.09.06a7.33,7.33,0,0,0-1.3-.78c-.49-.22-1-.43-1.4-.65,0-.1.06-.15.17,0-.82-.89-1.08-2.14-2-2.94.07-.05.07-.05.27,0-1-.65-1.26-2.08-2.58-2.66l0-.15-.77-.43c.13-.12.34-.3.64,0a38.36,38.36,0,0,0-13.6-8.19,15.66,15.66,0,0,0-1.9-.63l-1.93-.56c-1.29-.36-2.61-.56-3.91-.86s-2.65-.36-4-.57a29,29,0,0,0-4-.17l.39-.18c-.7.12-1.38.25-2.06.41,0-.1.1-.15.2-.2a18.52,18.52,0,0,0-3.94.35l-1.91.32a14.7,14.7,0,0,1-1.6.18c0-.09.23-.28.1-.37a1,1,0,0,1-.32.14s-.11,0-.13,0a.5.5,0,0,1,0-.13,1.76,1.76,0,0,1,0-.5,1.5,1.5,0,0,0-.07-.34,1.44,1.44,0,0,0-.15-.38,1.25,1.25,0,0,0-.64-.57.22.22,0,0,1,.36-.08c-.5-1.19-1-2.4-1.45-3.63L175,305.25c-.16-.22.12-.22.26-.29l.54-.17,1.63-.44a35.12,35.12,0,0,1,3.77-.69,18.21,18.21,0,0,1,6.59-1c1.15,0,2.3.05,3.44.1a24.42,24.42,0,0,0,3.42.09l0,.18a16.14,16.14,0,0,1,2.2.12q1.1.17,2.19.39c.74.14,1.47.3,2.2.46s1.44.46,2.16.7a75.67,75.67,0,0,1,8.37,3.48c2.14,1.29,3.8,1.8,5.85,3.27l-.08.23a11.09,11.09,0,0,1,2.81,1.65c.84.72,1.64,1.5,2.44,2.29s1.53,1.65,2.33,2.43a23.09,23.09,0,0,0,2.55,2.18l-.43,0c.8.2,1.57,2.15,2,1.42l.31.76a7.16,7.16,0,0,1,2.76,3.34c.34.65.68,1.32,1.1,2a11,11,0,0,0,1.39,2.16l-.29-.12a7.83,7.83,0,0,1,1.46,2.45c-.08-.09-.1,0-.26-.2a15.94,15.94,0,0,0,1.69,4.48,40.75,40.75,0,0,1,1.86,4.56l-.47-.25a7.83,7.83,0,0,1,1,2.9c.22,1.14.47,2.34.74,3.33l-.18-.09.37,1-.34.08c.15,1.32.37,2.59.61,3.86S241.17,354.42,241.23,355.73Z" transform="translate(0 -6.65)"/><path class="cls-9" d="M233.51,381.14l0,0C233.55,381,233.53,381.07,233.51,381.14Z" transform="translate(0 -6.65)"/><path class="cls-9" d="M201.41,394.22a2.55,2.55,0,0,1-.07.32C201.41,394.52,201.4,394.32,201.41,394.22Z" transform="translate(0 -6.65)"/><polygon class="cls-1" points="106.2 67.48 106.13 67.4 106.22 67.69 106.2 67.48"/><path class="cls-1" d="M106.16,74.9s.07.12.11.16l-.2-.85C105.74,73.85,106.38,75.15,106.16,74.9Z" transform="translate(0 -6.65)"/><path class="cls-1" d="M106.05,74.86c-.18-.12,0,.24,0,.37C106,75,106.28,75.23,106.05,74.86Z" transform="translate(0 -6.65)"/><path class="cls-1" d="M98.86,79.15a.05.05,0,0,0,0,0S98.86,79.12,98.86,79.15Z" transform="translate(0 -6.65)"/><path class="cls-1" d="M97.62,81.39l.14.28c.08-.69.76-.42,1-.84l0,.11a10,10,0,0,0,2.46-2.12s0,.12,0,.16c0-.12,0-.33,0-.33a.25.25,0,0,1,.06.17c.45.34.42-.62.74-.34a.58.58,0,0,0-.16-.41,9.24,9.24,0,0,0,2-1.85,1,1,0,0,1,.22.33c.23-1.1,1.07-1.19,1.8-1.44-.09-.21-.19-.17-.24-.4-.34-.13-.12.69-.51.44l-.08-.2c-.2,0,.24.49,0,.33S105,75,104.92,75c-.26.24-.66.25-.69.86-.29-.37-.32.16-.65-.16,0,.2-.09.21,0,.49-1.16.37-2,1.36-3.08,1.93,0,1.07-1.18.47-1.62,1.07l0-.08a.75.75,0,0,1-.59.58v.44a5.22,5.22,0,0,0-2.22.74l-1.4.8c-.5.28-1,.55-1.6.82l.13.28,1.64,3.29a4.09,4.09,0,0,0,2,1.82c-.07,0-.11.09-.16.07.43.34.41.91.82,1.22l-.07,0c1.28.65,1.23,2.12,2.59,2.78.27.47.57,1,.91,1.49.49-.29,1-.6,1.48-.92s.86-.61,1.27-.93l.09.16c.86-.92,2.33-.66,3.23-1.5,1.27-.25,1.7-2.13,3-2.27.55.2.82-.24,1.07-.67s.22-.68,1-.62a5.06,5.06,0,0,0,.68,0c.28-.49-.2-1.56-.7-2.16a9.87,9.87,0,0,0-1.73-1.4c-.17-1.44-1.89-2.11-1.58-3.73-.84-.29.13-1.53-.34-2.08l-.19.12c.49-.52-1.08-.09-.26-.67H108c.4-.34-1.2.25-.7-.09l-.23.09c-.14-.11.25-.14.28-.3s-.42.19-.33,0c.91-.47-.37-.26.65-.77,0,.08.34-.32.65-.25.08-.1-.09-.32-.52-.08a3.3,3.3,0,0,0-1.21.63l.35-.14a3.12,3.12,0,0,1-.4.27c0,.21-.43.48-.56.71l0,0c.46-.1.28.15.26.25l-.18.12c-.37.24.88-.16.18.12a3.69,3.69,0,0,1,.79,1.19c.28-.07.14.34.59,0-.52.39-.5.78-.42.89s-.12,0-.11,0c-.61.59.82-.06,0,.6.65-.28,0,.5.8.26a2,2,0,0,1-.37.21c.18.4.16,1,.3,1.29.69,0,.08.81,1,.68-.06.29-.22.77.22.9l-.1,0a1.11,1.11,0,0,0,1,.66c-.68.46-.47.52-.64.77.44,0,.57.56,1,.67-.34.16.19,0-.34.19a.86.86,0,0,1,.93.42,1,1,0,0,1-1.09-.26l0,0a2.08,2.08,0,0,1,.18.64c.06.25.12.52.16.72,0,0-.08-.11-.06-.12-.12.18-.54-.2-.67,0a.34.34,0,0,1,0-.17c0,.3-.55-.19-.54.28l-.08-.12,0,.25c-.09-.16-.21-.4-.12-.39-1.57.68-2.63,2.36-4.22,3.1l0-.18-.14.44a.43.43,0,0,1-.06-.17c-.53-.06-.66.61-1.07.75,0-.08-.07-.27-.17-.32,0,.58-.75-.32-.38.65a.81.81,0,0,1-.17-.32,5.05,5.05,0,0,1-.58.63,1.17,1.17,0,0,1-.52.23l-.06-.19c-.29.4-.5.11-.64-.11a1.77,1.77,0,0,0-.26-.36,1.17,1.17,0,0,0-.57-.32l.16-.1c-1.07-.48-1-1.72-1.69-2.51-.17-.39-.5-.51-.74-.86l.19-.14c-1.12-.13-.13-1.68-1.35-1.79l.3-.12c-.48.16-.1-.47-.78,0L96,85c-.59.09-.61-.18-.6-.49s.15-.51-.41-.73l.24,0c-.25-.11-.52-.3-.36-.39a1.15,1.15,0,0,1,.2,0c.3-.14.28-.24.09-.42.07-.14,0-.42.29-.57l.32.24c-.13-.17,0-.26.18-.33s.35-.11.42-.26l.08.15a1.34,1.34,0,0,1,0-.28l.17.3C97,82.11,97.26,81.64,97.62,81.39Z" transform="translate(0 -6.65)"/><path class="cls-1" d="M101.37,78.82h0S101.37,78.84,101.37,78.82Z" transform="translate(0 -6.65)"/><path class="cls-1" d="M106,77a.59.59,0,0,1,0-.08C105.93,77,106,77,106,77Z" transform="translate(0 -6.65)"/></g></g></svg>