<svg xmlns="http://www.w3.org/2000/svg" viewBox="0 0 344.01 433.14"><defs><style>.cls-1{fill:#3867b1;}.cls-2{fill:#fff;}.cls-3{fill:#e2dc1c;}.cls-4{fill:#e9bad7;}.cls-5{fill:#32479d;}.cls-6{fill:#6d5252;}.cls-7{fill:none;}.cls-8{fill:#49c5dd;}</style></defs><g id="Layer_2" data-name="Layer 2"><g id="About_Me" data-name="About Me"><path class="cls-1" d="M35.9,156.66a5.44,5.44,0,0,0-3.4,3.4q-.81,2.4-.32,7.76a25.11,25.11,0,0,1-.25,8.21,7.7,7.7,0,0,1-11.69,4.74,12.9,12.9,0,0,1-5.13-6.67,13.47,13.47,0,0,1-.93-6A9.78,9.78,0,0,1,16.06,163a9.43,9.43,0,0,1,4.26-3.18l1,2.66A7,7,0,0,0,17,166.63a9.15,9.15,0,0,0,.31,6.61,9.89,9.89,0,0,0,3.78,5.09,5.33,5.33,0,0,0,5,.52,5,5,0,0,0,3.15-3.39,18.8,18.8,0,0,0,.31-7.13,31.59,31.59,0,0,1-.06-7.27,9.75,9.75,0,0,1,1.7-4.39A8,8,0,0,1,34.84,154a7.58,7.58,0,0,1,7,.68,13.43,13.43,0,0,1,5.2,6.92,16.2,16.2,0,0,1,1.15,6.5,9.94,9.94,0,0,1-1.7,5.44,9.07,9.07,0,0,1-4.32,3.29l-1-2.63a6.66,6.66,0,0,0,4.26-4.46,11.16,11.16,0,0,0-.61-7.29A10.4,10.4,0,0,0,41,157.24,5.4,5.4,0,0,0,35.9,156.66Z" transform="translate(-6.59 -6.58)"/><path class="cls-1" d="M40.37,118.66l0,2.82L11.45,140.27l28.59.42,0,2.84L6.59,143l0-2.84,28.9-18.81L6.91,121l0-2.8Z" transform="translate(-6.59 -6.58)"/><path class="cls-1" d="M42.42,79.11a19.4,19.4,0,0,1,6.4,5.22,12.18,12.18,0,0,1,2.6,6.54,12.41,12.41,0,0,1-1.56,6.92,11.84,11.84,0,0,1-8.14,6.38q-5.38,1.22-11.67-2.13l-3-1.62a19.18,19.18,0,0,1-6.39-5.23A12,12,0,0,1,19.54,81.7a12.46,12.46,0,0,1,4.84-5.13A12.15,12.15,0,0,1,31.16,75a18.77,18.77,0,0,1,7.73,2.22Zm-4.53.79q-5.32-2.84-9.63-2a9,9,0,0,0-6.53,5A9,9,0,0,0,21.27,91Q23,95.08,28.42,98l3.08,1.64q5.25,2.81,9.61,2a9.06,9.06,0,0,0,6.59-5,9,9,0,0,0,.48-8.22q-1.76-4-7.17-6.86Z" transform="translate(-6.59 -6.58)"/><path class="cls-1" d="M59,66.59l4.27,3.13-2.42-4.51-11.29-23,1.88-1.72L73.31,53.76l4.3,2.85L74.89,52l-12-22.07L65,28,81.25,58.41l-2,1.83L56,46.08l-2.86-1.86,1.63,3L66.71,71.73l-2,1.82L35.85,54.68l2.13-2Z" transform="translate(-6.59 -6.58)"/><path class="cls-1" d="M96.26,50.46,84.14,19.32l9.2-3.58c3.33-1.3,6.13-1.59,8.39-.89a7.87,7.87,0,0,1,5,5.08,7.35,7.35,0,0,1,.32,4.72,7.73,7.73,0,0,1-2.6,4,8.09,8.09,0,0,1,8.93,5.11,8.7,8.7,0,0,1-.15,7.48c-1.18,2.24-3.35,4-6.51,5.21Zm-4.05-18.2,7.18-2.79a8.7,8.7,0,0,0,4.5-3.54,5.67,5.67,0,0,0,.12-5,5.6,5.6,0,0,0-3.59-3.7c-1.62-.46-3.69-.21-6.22.78l-6.56,2.55Zm.86,2.23,5,12.72,7.89-3.07a8.47,8.47,0,0,0,4.69-3.8,6.46,6.46,0,0,0,.12-5.55A6.21,6.21,0,0,0,107.06,31a8.23,8.23,0,0,0-5.88.36Z" transform="translate(-6.59 -6.58)"/><path class="cls-1" d="M149.58,24.76a19.3,19.3,0,0,1-1.1,8.19,12.19,12.19,0,0,1-4.22,5.63,12.48,12.48,0,0,1-6.72,2.29,11.87,11.87,0,0,1-9.69-3.61q-3.84-4-4.28-11.06l-.2-3.44a19,19,0,0,1,1.13-8.17,12.37,12.37,0,0,1,4.24-5.69,13.28,13.28,0,0,1,13.59-.85,12.28,12.28,0,0,1,4.87,5,18.93,18.93,0,0,1,2.14,7.76Zm-3-3.45q-.36-6-3.3-9.27a9.83,9.83,0,0,0-14.88.91q-2.55,3.59-2.18,9.73l.21,3.48q.36,5.94,3.32,9.24a9.84,9.84,0,0,0,14.94-.85c1.64-2.4,2.35-5.63,2.1-9.71Z" transform="translate(-6.59 -6.58)"/><path class="cls-1" d="M178.86,35.66l-14.75-3.54-5.54,8.32-2.88-.69L175.8,10.22l2.61.62,4.48,35.45L180,45.6ZM165.52,30l13,3.13-2.26-19.26Z" transform="translate(-6.59 -6.58)"/><path class="cls-1" d="M207.63,42.22l-8.43-4.83-6.92,12.09-2.47-1.41,16.6-29,9.42,5.4c3.1,1.77,5.08,3.9,6,6.39a9.06,9.06,0,0,1-1,7.78,9,9,0,0,1-4.45,4,9.63,9.63,0,0,1-6.07.44l.18,16.5-.15.25-2.61-1.49Zm-7.24-6.9,7.51,4.3a8,8,0,0,0,6,1.09,6.89,6.89,0,0,0,4.48-3.48,6.86,6.86,0,0,0,.77-5.88,9.3,9.3,0,0,0-4.5-4.84l-6.91-4Z" transform="translate(-6.59 -6.58)"/><path class="cls-1" d="M216.82,66.05,242,44l6.16,7a14.53,14.53,0,0,1,3.44,6.78,12.92,12.92,0,0,1-.68,7.35,17,17,0,0,1-4.77,6.61l-2.32,2a16.75,16.75,0,0,1-7.17,3.87,13,13,0,0,1-7.38-.32,15,15,0,0,1-6.4-4.45ZM242,47.73,220.48,66.6l4.17,4.76a10.9,10.9,0,0,0,8.21,4.07q4.74.09,9.23-3.84l2.22-1.94a13.22,13.22,0,0,0,4.87-8.45,10.69,10.69,0,0,0-2.83-8.53Z" transform="translate(-6.59 -6.58)"/><path class="cls-1" d="M238.24,94.21l-1.49-2.4L265.1,74.13l1.49,2.4Z" transform="translate(-6.59 -6.58)"/><path class="cls-1" d="M250.18,127.72l-.7-2.73,23-25.68-27.71,7.07-.7-2.76,32.38-8.26.7,2.75-23,25.71,27.73-7.07.69,2.71Z" transform="translate(-6.59 -6.58)"/><path class="cls-1" d="M249.06,162.7a9.5,9.5,0,0,1-2.38-5.11,19.83,19.83,0,0,1,.09-7.11,13.06,13.06,0,0,1,3.1-6.53,12.46,12.46,0,0,1,6.08-3.7A18.08,18.08,0,0,1,264,140l4.15.75q6.84,1.25,10.18,5.41a11.89,11.89,0,0,1,2.29,10,12.55,12.55,0,0,1-4.07,7.71,10.81,10.81,0,0,1-7.79,2.39l.5-2.78a8.69,8.69,0,0,0,6-2,9.66,9.66,0,0,0,3-5.77,9.11,9.11,0,0,0-2-7.89q-2.79-3.27-8.76-4.36l-3.89-.7a16.41,16.41,0,0,0-6.86.08,10.27,10.27,0,0,0-5.13,2.85,9.76,9.76,0,0,0-2.57,5.19,15.64,15.64,0,0,0,0,6.37,6.84,6.84,0,0,0,1.29,2.79l8.5,1.54,1.59-8.83,2.35.43-2.1,11.6Z" transform="translate(-6.59 -6.58)"/><polygon class="cls-2" points="147.41 46.49 146.58 46.38 144.41 46.68 147.41 46.49"/><path class="cls-2" d="M139.75,53.72c.42.06.21.15.64.2l8.37-.84C145,52.6,142.21,54,139.75,53.72Z" transform="translate(-6.59 -6.58)"/><path class="cls-2" d="M137.29,53.64l-.59,0-.65,0a1.16,1.16,0,0,0-.42.06l-.34.09-.46.14c-.57.18-1,.33-1.34.45l-.91.31-.68.24a6.79,6.79,0,0,1,1.35-.33c.51-.1,1.14-.28,1.76-.46l.48-.13a1.89,1.89,0,0,1,.65-.11c.39,0,.55,0,.77,0C137.29,53.8,137.46,53.74,137.29,53.64Z" transform="translate(-6.59 -6.58)"/><path class="cls-2" d="M9.22,214.58l0-1.05A6.49,6.49,0,0,0,9.22,214.58Z" transform="translate(-6.59 -6.58)"/><path class="cls-2" d="M69.52,248.51l.8-.23A130.9,130.9,0,0,1,48.77,245a151,151,0,0,1-21.33-6.82l1,.28a27.59,27.59,0,0,1-11.17-7.66,26.81,26.81,0,0,1-5.44-25.12,25.88,25.88,0,0,1,6.86-11.24,14.48,14.48,0,0,1,2.56-2.08,4.87,4.87,0,0,1,3.11-.72,19.75,19.75,0,0,1,3.24.76c1.07.31,2.16.59,3.26.82a30.79,30.79,0,0,0,6.7.69,14.46,14.46,0,0,0,6.53-1.48,14.36,14.36,0,0,1,6.45-1.95c2.32-.06,4.49.83,6.68,1.37a108.44,108.44,0,0,0,13.5,2.64c-.58-.05-.78,0-1.38,0,1.78.16,3.77.22,5.76.49.5.14-.58.08-1.22,0,2.65.52,6.29.94,9.92,1.36.09,0,0,0,0-.08l-.1-.13-.21-.27-.4-.52-.83-1-1.62-2c-1.12-1.34-2.21-2.66-3.2-3.9a40,40,0,0,1-4.23-6.15c-1.19-1.85-1.81-2.64-1.37-1.47-3.59-6.4-5.91-13.47-8.88-20.26a15.93,15.93,0,0,0-2.63-4.66,36.83,36.83,0,0,1-3.45-4.58,29.69,29.69,0,0,1-4.19-10.7,34.2,34.2,0,0,1,.1-11.51c.53-3.7.84-7.49,1.73-11.25a25.17,25.17,0,0,1,2-5.5,27.59,27.59,0,0,1,1.5-2.48l1.51-2.36c2-3.14,4-6.29,6-9.38.86-1.15,1.13-1.28,1.05-.85A113,113,0,0,1,78.05,81.79,81.11,81.11,0,0,1,92.9,68.89a90.79,90.79,0,0,1,36.7-13.84c1-.37-2.68.17-.17-.45a64.82,64.82,0,0,0-11.52,2.68c-3.61,1.11-7,2.47-10.63,3.72.27-.2.55-.39.83-.57-2.6,1-2.79,1.3-3,1.52s-.52.4-3.16,1.6c-2.12.86.39-.5-.56,0a85.32,85.32,0,0,0-15,9.85,72.19,72.19,0,0,0-12,12.57,42.62,42.62,0,0,0-5,6.11c-2,2.71-4,5.65-5.36,7.33a63.23,63.23,0,0,0-3.59,6.25q-1.7,2.58-3.42,5.16a22.51,22.51,0,0,0-2.65,6c-1.17,4.19-1.5,8.38-2.14,12.41a33.08,33.08,0,0,0,.16,12.92,31.09,31.09,0,0,0,5.51,11.78c.64.87,1.34,1.7,2.05,2.52a10,10,0,0,1,1.49,2.32c.43.87.84,1.86,1.25,2.81l1.2,2.87c1.57,3.86,3.06,7.81,4.84,11.69.89,1.93,1.85,3.84,2.93,5.71a58.28,58.28,0,0,0,3.6,5.36c1.27,1.71,2.6,3.36,3.92,5l1.33,1.66c.25.32.56.69.76,1L78,194.49c-2-.23-4-.46-5.93-.73a109.7,109.7,0,0,1-11.69-2.13c-1.19-.23-2.39-.49-3.59-.78s-2.38-.67-3.75-.92a12,12,0,0,0-4.15-.08,15.35,15.35,0,0,0-4,1.27c-.6.27-1.26.64-1.8.88a9.41,9.41,0,0,1-1.76.62,16.15,16.15,0,0,1-3.84.45,30.39,30.39,0,0,1-8-1.14c-1.33-.35-2.62-.82-4.09-1.18a7.26,7.26,0,0,0-2.41-.21,6.23,6.23,0,0,0-2.38.77,18.3,18.3,0,0,0-3.54,2.86,26.16,26.16,0,0,0-2.9,3.4,26.6,26.6,0,0,0-5,17c0,.17-.05.14-.09,0a29.63,29.63,0,0,0,4.07,13,28.71,28.71,0,0,0,10.52,10.21,16.91,16.91,0,0,0,1.79.81c.61.26,1.22.49,1.82.69,1.21.43,2.42.86,3.64,1.24,12.7,5,26.27,7.83,39.94,9.27,6.84.77,13.71,1,20.58,1.39l2,.11h.25v.1l.06.39.11.81c.28,1.71.58,3.43,1,5.13a73.88,73.88,0,0,0,3,10,71.72,71.72,0,0,0,4.41,9.5c.43.76.86,1.52,1.32,2.26l.68,1.11a8,8,0,0,1,.52,1,3.49,3.49,0,0,1,.16.49,2.76,2.76,0,0,1,.09.52c.07.44.12.88.21,1.32.15.89.37,1.76.6,2.62a30.5,30.5,0,0,0,4.78,9.51c1.06,1.44,2.16,2.75,3.23,4.1l3.24,4,3.23,4,1.62,2,.45.58.21.25c0,.08-.14.15-.21.23l-7,6.73-7.51,7.13-3.76,3.56-1.88,1.78c-.62.6-1.23,1.25-1.84,1.87A49.29,49.29,0,0,0,88.6,352.7a53.45,53.45,0,0,0-1.29,22.92,81.92,81.92,0,0,0,6.24,21.62,68.78,68.78,0,0,0,12.33,18.6,70.65,70.65,0,0,0,17.54,13.67,89.87,89.87,0,0,0,10.06,4.79l2.6,1,1.3.5,1.33.43,2.67.86c.9.26,1.81.48,2.72.72a56.44,56.44,0,0,0,22.51,1.33,50.25,50.25,0,0,0,11-3.13,54.55,54.55,0,0,0,10.05-5.71c0,.11.43-.12-.9.78a61.48,61.48,0,0,0,10-8.5c3-3.08,5.78-6.15,8.64-9.16,5.65-6.07,11.33-11.94,16.72-18.25l0,.09c6.7-7.82,13.54-15.79,20.55-23.71q5.25-5.94,10.64-11.82c3.59-3.92,7.23-7.78,11-11.47s7.66-7.31,11.52-10.9l5.76-5.38,2.84-2.71a11.61,11.61,0,0,0,2.57-3.2,5.64,5.64,0,0,0,.48-4.23,6.8,6.8,0,0,0-2.45-3.39,5.38,5.38,0,0,0-4-1.11,8.21,8.21,0,0,0-3.7,1.69c-1.06.84-1.93,1.68-2.9,2.52s-1.9,1.68-2.82,2.55c-1.83,1.78-3.47,3.65-5.18,5.45l-26,26.71-13.39,13.81a12.77,12.77,0,0,1-3.69,2.93,4.75,4.75,0,0,1-1.07.34,7.41,7.41,0,0,1-1.17,0h-2.43l-9.77,0-19.61.08-4.9,0a26.1,26.1,0,0,1-4.86-.23,13.4,13.4,0,0,1-8.22-4.64,15.29,15.29,0,0,1-3.2-8.94c-.14-3.25,0-6.5-.11-9.75a28.35,28.35,0,0,0-6.7-17.79l.22,0a24,24,0,0,0-13.15-7.51c-5-1-10.14-.65-15.17-.82-.65,0-1.24,0-1.81,0h-1.73c-.52-.07-1.34.25-1.3-.54,0-.14-.12-.29-.09-.41l.33-.27.66-.55,5.61-4.7,11.54-9.71c15.34-13,30.47-26.3,44.62-41.06,1.84-1.87,3.66-3.78,5.5-5.68S200.23,257,202,255s3.55-4,5.27-6l2.37-2.83.46-.55a3.27,3.27,0,0,1,.24-.27l.2.29c.27.39.53.81.82,1.19a30.82,30.82,0,0,0,12.34,10.47,27.31,27.31,0,0,0,16.07,1.55,25.17,25.17,0,0,0,14.11-7.62,29.73,29.73,0,0,0,4.6-6.64c.29-.61.62-1.2.87-1.83l.41-.94c.07-.14.12-.36.22-.43l.47.19a18.63,18.63,0,0,1,3.62,1.83,12.75,12.75,0,0,1,5.09,6.14,14,14,0,0,1,.88,3.93c.13,1.34.09,2.68.1,4,0,2.68,0,5.35,0,8a29.16,29.16,0,0,0,1.36,7.81,24.19,24.19,0,0,0,4.93,8.89,23.77,23.77,0,0,0,8.76,6.25,26.24,26.24,0,0,0,5.31,1.6c.93.14,1.85.26,2.78.36s1.86.12,2.8.15c3.74.13,7.47-.12,11.23,0l2.91.14.37,0c.09,0,.36,0,.18.09l-.52.47-1,1L305,296,301,299.72a24.5,24.5,0,0,0-3.72,3.77,2.73,2.73,0,0,0-.48,1.08,4,4,0,0,0,.12,1.21,11.16,11.16,0,0,0,.72,2.43,5.31,5.31,0,0,0,3.24,3.36,5.24,5.24,0,0,0,4.38-1.23l3.57-3.08c9.52-8.32,19-16.53,27.93-25.33l1.66-1.66,1.62-1.74a42.32,42.32,0,0,0,2.92-3.75,40.72,40.72,0,0,0,4.39-8.4,51.52,51.52,0,0,0,3.27-18.52,64.45,64.45,0,0,0-2.66-18.57l-.68-2.25-.34-1.12-.43-1.1-1.75-4.36-2.07-4.22a22.77,22.77,0,0,0-1.14-2.05l-1.21-2a76.08,76.08,0,0,0-11.69-14.66,78.36,78.36,0,0,0-15-11.25l-3-1.68c-.5-.27-1-.58-1.5-.82l-1.56-.71-3.12-1.42c-1.05-.44-2.15-.78-3.22-1.17a66,66,0,0,0-13.27-3.34,57.08,57.08,0,0,0-13.63-.46,47.44,47.44,0,0,0-13.21,3.09,49.36,49.36,0,0,0-11.74,6.72l-1.35,1-1.28,1.11c-.84.74-1.73,1.44-2.51,2.26l-2.45,2.44c-.51.48-1.08.9-1.64,1.36l-.1.08s-.06-.05-.09-.07l-.19-.19-.36-.39-.73-.77-9.38-9.94-4.63-4.93L222.32,176c-.2-.23-.36-.37-.6-.66a3.94,3.94,0,0,1-.48-.84,2.08,2.08,0,0,1-.06-2c2.38-4.27,2.93-9.13,4.89-13.65a17.69,17.69,0,0,1,4.15-6,15.7,15.7,0,0,0,3.8-5.91,26.59,26.59,0,0,0,.82-3.93c.23-1.33.41-2.67.58-4a64.19,64.19,0,0,0,.51-8.24,39.57,39.57,0,0,0-3.4-16.53,39.07,39.07,0,0,0-4.6-7.41l-1.42-1.68a9.15,9.15,0,0,1-1.28-1.72c-.69-1.26-1.34-2.61-2-3.91A78,78,0,0,0,213.14,84.7l.38.8A46.56,46.56,0,0,0,204,76.06c-3.47-2.67-6.76-4.84-8.76-6.66l.78.44a19,19,0,0,0-3-2c-1.12-.55-2.29-1-3.41-1.52a27.81,27.81,0,0,1-5.45-2.4l-.77-.08c-2.49-1.1-2.64-1.17-2.6-1.27s.21-.13-1.73-1c-1.49-.55-.71.16-3.78-1-.09-.3-.92-.73-2.14-1.17a42.65,42.65,0,0,0-4.45-1.26c-3.22-.77-6.43-1.38-6.49-2,2.94.62-4.52-1.4,2.13-.25-.93-.26-3.65-.84-6-1.27s-4.43-.77-4.09-.44c-.88.32-4.48,0,.88,1.6l1.18-.13c1.76.76,1.36.48,2,.9,7.13,1.53,8,2.22,12.87,3.8-.05,0-.09,0,0,0A31.56,31.56,0,0,1,176.68,62c1.88.72,3.63,1.51,4.9,2.08l.93.66c1.39,1,7.72,2.82,5.43,2.49A78.23,78.23,0,0,1,197.61,73c1.61,1.07,3.12,2.32,4.69,3.53s3,2.56,4.45,4,2.84,2.87,4.22,4.35c.68.76,1.32,1.55,2,2.33s1.29,1.58,1.9,2.4a82.7,82.7,0,0,1,6.71,10.27c.34.46.88,1.39,1.48,2.45.3.53.61,1.16,1,1.76a9.93,9.93,0,0,0,1.31,1.7c.8.88,1.48,1.61,1.84,1.94s.41.26-.07-.49a56.1,56.1,0,0,1,4.77,8.82A38.44,38.44,0,0,1,234.4,126a2.16,2.16,0,0,1-.25-1c.18,4.26.25,6.77.33,9.27a26.45,26.45,0,0,1-1.32,8.88,7.22,7.22,0,0,1-.34,2.78,14.26,14.26,0,0,1-2.29,4.54,11.57,11.57,0,0,1-.9,1.07c-.29.28-.72.72-1.13,1.15a16.43,16.43,0,0,0-2,2.73,14.87,14.87,0,0,0-1.87,4.87c-.5.95-.72,1.25-.73.84-.63,2-1.13,3.92-1.7,5.75-.28.92-.58,1.8-.92,2.64-.15.43-.35.81-.53,1.21a6.19,6.19,0,0,1-.28.58l-.4.74a2.75,2.75,0,0,0-.24,2,5,5,0,0,0,.3,1,5.93,5.93,0,0,0,.36.71,3.47,3.47,0,0,0,.54.72l.37.41.74.8,3,3.19,5.72,6.2,5.41,5.86,1.46,1.57,1.27,1.35.63.66.32.33c.11,0,.23-.17.35-.24l1.41-1.15a14.65,14.65,0,0,0,1.35-1.15l1.29-1.26a45.54,45.54,0,0,1,14.17-10.48,63.86,63.86,0,0,1,15.86-4.67,59.7,59.7,0,0,1,13.89.85l2,.34,2,.44,2,.45,2,.54,2,.53,1.93.64c1.28.44,2.57.81,3.81,1.25a8.48,8.48,0,0,0-1-.26,76.09,76.09,0,0,1,16.48,9,100.51,100.51,0,0,1,12.15,10.55,45.16,45.16,0,0,0,3.39,5.36,66.86,66.86,0,0,1,3.85,6.42c.52.83,1.14,1.76,1.74,2.82l1.77,3.51a40,40,0,0,1,1.74,4.06l.86,2.18c.26.75.47,1.52.71,2.3A67.47,67.47,0,0,1,348.6,248c-.17.93-.24,3.42-.49,5.74-.1,1.16-.29,2.27-.45,3.13a3.79,3.79,0,0,1-.55,1.57,41.49,41.49,0,0,1-4.05,12.18,37.89,37.89,0,0,1-3.63,5.59c-.36.44-.7.89-1.07,1.32l-1.14,1.26c-.79.84-1.62,1.69-2.44,2.53-6.61,6.75-13.79,13.36-21.07,20l-5.48,5-2.73,2.5a12.71,12.71,0,0,1-1.29,1.09,5.46,5.46,0,0,1-1.34.68,2.87,2.87,0,0,1-2.51-.21,5,5,0,0,1-1.75-2.29,11,11,0,0,1-.81-3.13c-.13-.22.6-1.25,1.39-2s1.79-1.59,2.69-2.38l2.75-2.37q3.56-3,7.05-6.08l2.45-2.15c.19-.18.44-.37.59-.53l-.79-.06-1.59-.12-3.21-.25c-1.08-.08-2.17-.16-3.2-.2l-7.1-.19.53,0a72.27,72.27,0,0,1-7.4.18,22.78,22.78,0,0,1-7.24-1.42c-.41-.23-.32-.29.59.11a21.32,21.32,0,0,1-7.7-5.63,27.05,27.05,0,0,1-4.81-8.16c.11,0,.07,0,.56,1a21.84,21.84,0,0,1-1.93-9.15c.05-3.42.11-7-.14-10.71l.12-.46a17,17,0,0,0-1.17-5c.1,0,.24.06.45.43a7.4,7.4,0,0,1,.71,2.48,15,15,0,0,0-2.09-5.69,14.74,14.74,0,0,0-4.27-4.31c-.42-.26-.84-.55-1.28-.77l-.65-.36-.72-.35c-.75-.37-1.5-.64-2.26-1l-.56-.23-.28-.12-.14,0-.06.13-.48,1.08-1,2.12-.59,1.16c-.37.79-.86,1.51-1.29,2.26a29.3,29.3,0,0,1-3.17,4.08,23.41,23.41,0,0,1-13.55,7,27.34,27.34,0,0,1-10.4-.17,25.47,25.47,0,0,1-4.9-1.72,27,27,0,0,1-4.43-2.78,30.74,30.74,0,0,1-3.86-3.63c-.6-.65-1.16-1.35-1.72-2.05l-.81-1.08c-.47-.64-.88-1.28-1.33-1.92l-.65-.95-.32-.48-.09-.12,0-.06s0,0,0,0l-.19.22-1.5,1.78-2.22,2.66c-1.18,1.42-2.38,2.83-3.61,4.21-19.4,22.39-41.71,42.39-64.43,61.64l1.55-1.55-8.61,7.72c0-.11.38-.5.77-.89L130,319.83l-1.63,1.36-.41.34c-.09.1-.14.2-.21.29l-.38.59c-.21.41-.68.72-.33,1.34l.12.42c.06.13,0,.33.22.3l.79.15a21.26,21.26,0,0,0,3.46.42l3,.07h2.82c1.86,0,3.71,0,5.54.07a37,37,0,0,1,5.4.59,23.92,23.92,0,0,1,5.06,1.63,21.54,21.54,0,0,1,8.15,6.46c-.11,0-1.57-1.48-.42.06a20.74,20.74,0,0,1,3.57,5.88,27,27,0,0,1,1.47,5.51c.16.85.19,1.68.31,2.46l.17,2.28a38.55,38.55,0,0,0,.46,4.2c0,.49-.28.82-.36-.26,0,1.85,0,3.71.09,5.6a18.4,18.4,0,0,0,1.19,5.79,14.78,14.78,0,0,0,3.22,5,14.12,14.12,0,0,0,5,3.27,17,17,0,0,0,5.83,1.08l5.63,0,11.26-.05,22.52,0a5,5,0,0,0,1.65-.2,7,7,0,0,0,1.49-.67,12.93,12.93,0,0,0,2.4-1.84l3.95-4,7.84-8c8.31-9.22,17.44-18.66,26.67-28.17l3.47-3.57c1.17-1.18,2.29-2.4,3.49-3.5s2.47-2.18,3.73-3.27a13,13,0,0,1,3.89-2.71,4.36,4.36,0,0,1,4.22.51,5.63,5.63,0,0,1,2.39,3.7,6,6,0,0,1-1.5,4.21,20.38,20.38,0,0,1-1.63,1.74l-1.72,1.71,0-.22c-6,5.84-12.18,11.58-18.27,17.59s-11.86,12.43-17.71,18.83-11.62,12.93-17.4,19.43l-8.66,9.74-4.35,4.85-4.41,4.76c-4.92,5.23-9,9.65-13.05,14.09a60.42,60.42,0,0,1-14.65,12.3l-.43,0A43.19,43.19,0,0,1,165.57,438a54.7,54.7,0,0,1-19-1.3,92.49,92.49,0,0,1-34.15-16.87l1.54.86c-.41-.26-.91-.61-1.45-1a16.35,16.35,0,0,1-1.71-1.44l-1.78-1.69a20,20,0,0,1-1.71-1.74c-1-1.16-2-2.19-2.65-2.84s-1-.95-.9-.52c-.84-1.24-1.75-2.43-2.51-3.71a58,58,0,0,1-10.64-22.21,104.89,104.89,0,0,1-2.31-12.78,62,62,0,0,1,.17-14.62l0,1.4A41.79,41.79,0,0,1,90.3,351a36.22,36.22,0,0,1,3.07-7c-.26.6-.07.35-.62,1.56a57.37,57.37,0,0,1,7.73-10.9c1.52-1.69,3.16-3.3,4.85-4.91l5-4.9L120.44,315l2.53-2.48.68-.67.34-.33.17-.16c0-.06.15-.11,0-.17L123,309.72c-1.48-1.82-2.94-3.64-4.39-5.44l1.6,1.41c-1.49-1.68-3.22-3.76-5.11-6.07-.94-1.16-1.94-2.37-2.91-3.63a33.13,33.13,0,0,1-2.68-4.09,26.17,26.17,0,0,1-3.11-9.46,5.91,5.91,0,0,0-.91-2.42L104.25,278c-.81-1.37-1.57-2.71-2.24-4l.48.56c-1-1.72-1.87-3.48-2.71-5.28l.27-.28a76.63,76.63,0,0,1-3.44-10.71c-.42-1.81-.81-3.62-1.11-5.45-.08-.41-.16-1-.25-1.52l-.12-.8-.06-.4s0-.08,0-.1h-.32l-3.06-.13C84.29,249.49,76.94,249.35,69.52,248.51Z" transform="translate(-6.59 -6.58)"/><path class="cls-2" d="M73.84,195l-.16,0C73.22,194.92,73.44,195,73.84,195Z" transform="translate(-6.59 -6.58)"/><path class="cls-2" d="M172.79,61l-1.73-.6C171.17,60.5,172.24,60.8,172.79,61Z" transform="translate(-6.59 -6.58)"/><polygon class="cls-3" points="206.21 377.42 206.02 377.46 205.97 377.96 206.21 377.42"/><path class="cls-3" d="M211.51,386.43c.09,0,.13.06.23,0l.41-1.73C211.33,384.94,212.06,386.29,211.51,386.43Z" transform="translate(-6.59 -6.58)"/><path class="cls-3" d="M211.14,386.71a.88.88,0,0,0-.42,1C210.64,387.32,211.55,386.9,211.14,386.71Z" transform="translate(-6.59 -6.58)"/><path class="cls-3" d="M173,423a.65.65,0,0,0,.16-.09A.31.31,0,0,0,173,423Z" transform="translate(-6.59 -6.58)"/><path class="cls-3" d="M159.75,427.06l-.14.32c2.61-.59,5.61-.39,8.3-1.23l-.16.14a31,31,0,0,0,9.54-3.85c.71-.46,1.45-.86,2.12-1.37l2-1.51c1.29-1.11,2.6-2.19,3.81-3.43,0,.1,0,.19-.08.29a3,3,0,0,1,.61-.93c.12,0,0,.18,0,.28a5.88,5.88,0,0,0,2-1.93,7.46,7.46,0,0,1,1.65-1.75c.24-.34.2-.63-.08-.57,3.6-4.11,7.71-8.25,11.11-12.61.23-.15.37-.09.45.09,2.52-4.11,6.06-7.59,9.39-11.11-.05-.29-.51.21-.36-.3-1.24,1-1.49,2.49-2.73,3.28l0-.28c-.78.67.26.51-.65,1.13-.41.19-.13-.27-.27-.13a32.6,32.6,0,0,0-4,5.15c-.68.06-1.57,1.74-2.43,2-.24.54-.66.92-.58,1.29-2.68,2.69-5.36,5.46-8,8.34l-3.93,4.36c-.66.68-1.28,1.42-2,2.06s-1.4,1.3-2.13,1.92a13.53,13.53,0,0,1-2,2,27.46,27.46,0,0,1-2.53,1.63c-.91.48-1.87.9-2.8,1.39s-1.93.85-2.87,1.34a.06.06,0,0,1,0-.09,22.65,22.65,0,0,1-2.19,1.06,17.45,17.45,0,0,1-2.53.71,10.45,10.45,0,0,1-1.28.68,52.91,52.91,0,0,1-29.61-4.75,66.08,66.08,0,0,1-14-8.66,92.62,92.62,0,0,1-11.71-11.29c.08,0,.06-.14.27.07a35.55,35.55,0,0,1-2.6-3.93c-.69-1.37-1.47-2.66-2.2-4l.08,0a44.5,44.5,0,0,1-4.58-10.77l-.75-2.86-.38-1.42-.31-1.41c-.11-.47-.23-.94-.34-1.4l-.27-1.4-.3-1.39-.26-1.38a44.49,44.49,0,0,1,0-6.93,38.9,38.9,0,0,1,7.56-20.12l.13.13c.56-.77,1.16-1.51,1.76-2.25s1.29-1.39,2-2.07,1.4-1.26,2.1-1.88a5.34,5.34,0,0,1,2.35-1.29,6.62,6.62,0,0,1,1.32-.22c.42,0,.9,0,1.38,0l2.83.09c1.89,0,3.79,0,5.7,0a108.48,108.48,0,0,0,12-.31,36.33,36.33,0,0,1,6.08-.09,10.86,10.86,0,0,1,5.49,2.33,21.42,21.42,0,0,1,4.78,6.36,12.61,12.61,0,0,1,1,4,15.52,15.52,0,0,1-.14,3.77,50,50,0,0,0-.44,7.1,34.86,34.86,0,0,0,.23,3.54c.06.59.18,1.18.29,1.77a14.82,14.82,0,0,0,.41,1.75,21,21,0,0,0,3.07,6.42,22.6,22.6,0,0,0,4.84,5.11,19.14,19.14,0,0,0,2.42,2.16,22.85,22.85,0,0,0,2.75,1.7,26.76,26.76,0,0,0,3,1.29,26.12,26.12,0,0,0,3.09.83,28.42,28.42,0,0,0,3.14.49c1.06.06,2.1.13,3.17.14,2.15,0,4.29.14,6.4.39,4-.63,8.45.8,12.92.61l-.16-.22c1.6.67,3.57-.93,4.57.06l-.17,0c.85.51,2-1.19,2.49-.59l.14-.25c1-.07.12.28.91.38.3,0,.12-.45.74-.31.13,1,2.52-.22,2.59.93-.56,0,.88.45-.38.68.36.12,2.08.07,1.92-.42.15-.52.82-1-.22-1.37l-.21.38c-.35-.38-.27-.19-.4-.47-1.36-.05-1.55-.6-2.53-.83,0,0,0,0,0,0a3.05,3.05,0,0,1-2.13.12l-.21-.21c-.33-.44-1.56.86-1.14.11-2.79.18-6,.17-9.08.18-.44.28-2.38,0-1.7.52-.78-.63-3.09-.79-3.95-.76,0-.06.07-.13.21-.1-1.66-.82-2,.75-3.54-.25-.24.71-2.83-.22-3.72.6q-.28-.23-.18-.42c-1.39,0-2.92-.05-4.27-.17-.66-.08-1.31-.12-1.92-.22s-1.19-.22-1.73-.31a6.84,6.84,0,0,1-3.12-.61,8.23,8.23,0,0,0-2.95-.77L169.36,380a24.93,24.93,0,0,0-2.43-1.61l.21,0c-1.72-1.25-3.56-3.17-4.82-4.09a1.9,1.9,0,0,0-.13-1.3c-.14-.41-.35-.82-.47-1.27-1.06-1-2.21-3.65-3-5.71.23-.39-.5-1.74,0-1.94a32.15,32.15,0,0,1-1.3-10.29c0-1.86.08-3.68.09-5.61a17.39,17.39,0,0,0-1-5.9l.09.09a5.72,5.72,0,0,0-1.32-1.1c-.48-.34-1-.61-1.46-.87,0-.1.06-.15.18,0-.87-1-1.4-2.28-2.6-3,.06-.07.06-.07.3,0-1.14-.59-2.08-1.87-3.71-2l0-.17a8.3,8.3,0,0,0-1-.1c.06-.16.18-.44.67-.21a14.83,14.83,0,0,0-4.48-.76c-1.4,0-2.76,0-4.15.05l-8.34.27-8.39.27-4.2.08h-.53a6,6,0,0,0-.61,0,7.55,7.55,0,0,0-1.17.22,7.66,7.66,0,0,0-2.2,1l.33-.41a5.86,5.86,0,0,0-1,.89l-.7.86c0-.07,0-.18,0-.28-2.33,1.65-3.9,4.23-5.65,6.32-.06-.06,0-.51-.26-.26a6.51,6.51,0,0,1-1.5,2.07,1.83,1.83,0,0,0-.61,1.71.2.2,0,0,1-.28-.23,46.65,46.65,0,0,0-5.32,16.34c.1,1.21.2,2.44.22,3.67s.07,2.49.21,3.75a25.27,25.27,0,0,0,1.47,7.32l-.19,0c2,5.95,3.65,12.46,7,18.13.31.6.62,1.15.91,1.66s.66,1,1,1.43c.68.92,1.28,1.88,2.14,2.94l-.15.19a25.61,25.61,0,0,1,2.36,2.61c.77.9,1.46,1.9,2.23,2.85s1.59,1.86,2.45,2.72a17.43,17.43,0,0,0,2.94,2.15l-.45,0c.84.14,2.19,1.91,2.46,1.09l.52.71a7.55,7.55,0,0,1,1.12.48,10.84,10.84,0,0,1,1,.55,18.5,18.5,0,0,1,1.84,1.39,16,16,0,0,0,2,1.43,10.27,10.27,0,0,0,2.49,1.19l-.33.06a9.79,9.79,0,0,1,2.79,1.26c-.12,0-.09,0-.34,0,.33.27.67.52,1,.76s.76.4,1.15.58a25.14,25.14,0,0,0,2.46,1c1.7.52,3.45.92,5.1,1.48l-.49.24a14.05,14.05,0,0,1,3.23.73,25.4,25.4,0,0,0,3.62.78l-.17.15,1.16-.05,0,.35A39.86,39.86,0,0,0,159.75,427.06Z" transform="translate(-6.59 -6.58)"/><path class="cls-3" d="M185.74,415.77h0C185.67,415.86,185.7,415.83,185.74,415.77Z" transform="translate(-6.59 -6.58)"/><path class="cls-3" d="M210.5,383.65l.35.07C210.83,383.65,210.61,383.67,210.5,383.65Z" transform="translate(-6.59 -6.58)"/><polygon class="cls-3" points="242.37 198.22 242.54 198.18 242.52 197.74 242.37 198.22"/><path class="cls-3" d="M249.88,202.64c-.09,0-.13-.06-.22,0l-.19,1.56C250.21,204,249.38,202.75,249.88,202.64Z" transform="translate(-6.59 -6.58)"/><path class="cls-3" d="M250.19,202.39a.73.73,0,0,0,.3-.87C250.58,201.84,249.8,202.21,250.19,202.39Z" transform="translate(-6.59 -6.58)"/><path class="cls-3" d="M291.37,190.14h-.16C291.29,190.16,291.34,190.16,291.37,190.14Z" transform="translate(-6.59 -6.58)"/><path class="cls-3" d="M303.18,193.23l.25-.23a13.26,13.26,0,0,1-3.38-1.28,26.37,26.37,0,0,0-3.45-1.33l.19,0a34.05,34.05,0,0,0-4.31-1.44c-.71-.23-1.45-.34-2.18-.5s-1.45-.29-2.18-.4l-2.2-.24-1.1-.11-1.11,0-2.23-.07-2.25.08c.09,0,.12-.12.22-.16a2.23,2.23,0,0,1-.94.28c-.08-.07.09-.15.2-.18a4.7,4.7,0,0,0-2.46.06,6.8,6.8,0,0,1-2.09.22c-.35.11-.47.35-.25.48a33.51,33.51,0,0,0-13.31,5.19.27.27,0,0,1-.37-.24c-3.06,2.74-6.47,5.1-9.35,8.1.05.26.46-.15.35.3a4.33,4.33,0,0,0,1.19-1.42,2.6,2.6,0,0,1,1.24-1.23l0,.26c.74-.47-.23-.52.63-.91.38-.1.11.26.24.16.33-.31.66-.64,1-.94l1.1-.85a18.52,18.52,0,0,0,2-1.87c.63.19,1.66-1.1,2.5-1,.33-.38.77-.56.79-.92a40.69,40.69,0,0,1,19-4.41,8.1,8.1,0,0,1,2.47-.18c.43,0,.86.06,1.3.11s.87.18,1.31.28c.88.22,1.78.37,2.66.66a21,21,0,0,0,2.72.62.06.06,0,0,1,0,.09,15.49,15.49,0,0,1,4.29,1.17l1.3.1c4,1.88,8,3.9,11.82,6.15l2.85,1.75,2.72,1.95a30.83,30.83,0,0,1,2.59,2.1,26.34,26.34,0,0,1,2.45,2.27A54.63,54.63,0,0,1,328.21,217a136.32,136.32,0,0,1,6.57,12.65c-.09,0-.11.1-.23-.13a40.7,40.7,0,0,1,1.16,4c.33,1.3.5,2.62.89,3.91h-.09a31.19,31.19,0,0,1,1.12,5l.2,1.28.11,1.28.1,1.28v1.29a66.45,66.45,0,0,1-.83,10,38.9,38.9,0,0,1-5.16,11.16,48.19,48.19,0,0,1-8.44,9.5l-.07-.17a5.45,5.45,0,0,1-2.28.76,20.45,20.45,0,0,1-2.48,0c-1.65,0-3.3-.1-5-.18-3.3-.15-6.59-.31-9.94-.17-1.72-.1-3.46-.08-5.22,0a38.53,38.53,0,0,1-5.26.06,13.94,13.94,0,0,1-5.07-1.42,10,10,0,0,1-3.88-3.49,39.09,39.09,0,0,1-2.74-6.45,14.25,14.25,0,0,1-.32-6.87A35.24,35.24,0,0,0,282,254a21.21,21.21,0,0,0-.91-6.18,22,22,0,0,0-6.64-10.31,18.64,18.64,0,0,0-6.53-4.94,30.35,30.35,0,0,0-3.8-1.51,9.4,9.4,0,0,1-2-.87,4.94,4.94,0,0,1-.92-.71,2.05,2.05,0,0,1-.62-1.12c-.37-2-.84-3.92-1.34-5.89a30.82,30.82,0,0,1-2.26-5,21.79,21.79,0,0,0-2.7-5.17l-.1.24c-.25-1.55-2.57-2-2.27-3.3l.12.09c0-.9-2-.69-1.76-1.41L250,208c-.59-.68.16-.25-.17-.87-.18-.19-.42.19-.63-.33.76-.7-1.48-1.64-.59-2.37.29.39-.1-.89.75-.14-.09-.32-1-1.5-1.34-1.11-.5.21-1.21,0-1,1l.41-.07c-.12.47,0,.3-.17.56.67,1,.32,1.44.64,2.26,0,0,0,0,0,0,.72.2,1,1,1.2,1.43l-.06.27c-.18.49,1.5.59.68.74a58.91,58.91,0,0,1,4.63,6.34c.44.16,1,1.75,1.21,1-.18.9.63,2.68,1,3.32-.07,0-.14,0-.17-.11-.12,1.6,1.42,1.18,1,2.78.76-.07.64,2.26,1.63,2.71-.1.2-.22.29-.35.27.14.5.26,1,.37,1.52l.27,1.59a3.47,3.47,0,0,0,1,1.82,6.85,6.85,0,0,0,1.14.92,10.35,10.35,0,0,0,2,1,6.12,6.12,0,0,1,2.69.89,6.15,6.15,0,0,0,2.52.92,37.18,37.18,0,0,0,3.71,3l-.19,0c1.43,1.19,2.89,2.95,4,3.75-.41.93.19,1.49.3,2.34.94.89,1.8,3.26,2.59,5-.3.38.51,1.53,0,1.73a21.29,21.29,0,0,1,1.14,8.86c-.05,1.61-.18,3.25-.28,4.89a27.93,27.93,0,0,0,.16,5.09l-.06-.08a5.45,5.45,0,0,0,1,1.13c.37.36.77.69,1.13,1,0,.1-.1.12-.17,0a13.09,13.09,0,0,1,.6,1.62,4.16,4.16,0,0,0,.81,1.56c-.08,0-.08,0-.27-.07.81.78,1.2,2.14,2.52,2.72l0,.16.82.34c-.12.13-.31.34-.65,0a14.82,14.82,0,0,0,7.3,2.94,22.85,22.85,0,0,0,3.85.16l3.65-.15c4.88-.2,9.79-.4,14.68-.34l-.36.17,1.9-.31c0,.09-.1.14-.19.18a18.74,18.74,0,0,0,3.67,0,8.76,8.76,0,0,0,3.93-1.18c.05.08-.27.5.17.33l.31-.33.21-.24a3.74,3.74,0,0,1,.42-.39,8.29,8.29,0,0,1,.83-.57,1.4,1.4,0,0,0,.85-1.35.22.22,0,0,1,.22.29,60.3,60.3,0,0,0,8.76-12.21c.53-2.06,1.21-4.12,1.85-6.24a19.29,19.29,0,0,0,.84-6.5l.18,0c-.13-5.52-.29-11.35-1.69-16.91a19.16,19.16,0,0,0-.84-3.05c-.34-.93-.59-1.9-1-3l.2-.13a13.19,13.19,0,0,1-1.29-2.8c-.31-1-.72-2-1-3a15.36,15.36,0,0,0-3-5.61l.41.1c-.73-.32-1.22-2.23-1.77-1.58l-.19-.76a7,7,0,0,1-1.46-1.48,13.82,13.82,0,0,1-1.09-1.68,19.32,19.32,0,0,0-1.13-1.83,10,10,0,0,0-1.74-1.68l.3,0a9.93,9.93,0,0,1-1.89-1.9c.1.06.1,0,.3.1a11.85,11.85,0,0,0-3.11-3.29L317,201.82l-1.88-1.34.51-.1c-1.47-.5-3.4-2.46-5.2-3.25l.19-.09-1-.31.16-.31a22.48,22.48,0,0,0-3.3-1.71C305.4,194.22,304.32,193.69,303.18,193.23Z" transform="translate(-6.59 -6.58)"/><path class="cls-3" d="M278.71,187.57s0,0,0,0S278.77,187.56,278.71,187.57Z" transform="translate(-6.59 -6.58)"/><path class="cls-3" d="M248.08,207.22l-.13-.3C247.91,207,248,207.13,248.08,207.22Z" transform="translate(-6.59 -6.58)"/><polygon class="cls-4" points="203.94 157.59 203.79 157.69 203.92 158.13 203.94 157.59"/><path class="cls-4" d="M210.19,166.67c.07,0,.14,0,.22,0l-.22-1.64C209.5,165.41,210.65,166.39,210.19,166.67Z" transform="translate(-6.59 -6.58)"/><path class="cls-4" d="M209.94,167a.76.76,0,0,0-.05,1C209.68,167.71,210.38,167.09,209.94,167Z" transform="translate(-6.59 -6.58)"/><path class="cls-4" d="M175.07,200.72l.16-.09A.26.26,0,0,0,175.07,200.72Z" transform="translate(-6.59 -6.58)"/><path class="cls-4" d="M163.08,206.16l-.06.34a16.54,16.54,0,0,1,3.7-1.21,31.72,31.72,0,0,0,3.79-1.25l-.13.16a63,63,0,0,0,16.92-9.14c-.06.09,0,.18-.1.27a2.65,2.65,0,0,1,.68-.81c.11,0,0,.18-.08.27a6.43,6.43,0,0,0,2.23-1.45c.73-.61,1.32-1.29,1.79-1.39.27-.29.26-.57,0-.56,1-.85,2-1.62,2.92-2.55l2.8-2.78c.91-.95,1.72-2,2.57-3,.41-.51.85-1,1.22-1.53s.72-1.09,1.08-1.62c.21-.15.35-.1.45.06,2.1-3.93,4.65-7.67,6.72-11.66-.14-.25-.39.32-.43-.18a7.94,7.94,0,0,0-.78,1.85,3.84,3.84,0,0,1-.87,1.7l-.11-.25c-.57.76.38.43-.32,1.16-.34.25-.19-.22-.29-.07l-.34.67-.41.64-.81,1.28a15.19,15.19,0,0,0-1.33,2.68c-.66.09-1.34,1.7-2.15,2-.17.53-.53.91-.41,1.26-4.66,5.28-9.87,10.42-16.07,14.27a16.17,16.17,0,0,1-4.65,3l-2.75,1.17c-.92.41-1.83.86-2.74,1.29a.07.07,0,0,1,0-.09,18.09,18.09,0,0,1-4.39,2l-1.15.78-3.47.9c-1.18.23-2.35.49-3.52.75l-1.75.4-1.78.3-3.55.62-3.6.38-1.8.2-1.8.05-3.62.09c-1.2-.05-2.41-.14-3.61-.23l-2-.13-2-.28c-1.31-.2-2.61-.35-3.89-.59-2.53-.57-5-1-7.47-1.76-2.47-.59-4.85-1.43-7.31-2.14-1.23-.37-2.43-.86-3.67-1.25l-1.88-.61-1.87-.7c0-.07,0-.15.26-.06a30.92,30.92,0,0,1-4-2c-1.23-.77-2.43-1.52-3.73-2.18l0-.07c-1.59-.85-3.14-1.84-4.69-2.87s-2.94-2.29-4.33-3.52l-2-1.91c-.66-.64-1.37-1.22-2-1.91s-1.26-1.3-1.9-1.93-1.3-1.22-1.89-1.87l-2-2.58a14.18,14.18,0,0,1-.93-1.36l-.9-1.41a60.83,60.83,0,0,1-3.36-5.92,12,12,0,0,1-.66-1.45l-.6-1.42-.62-1.46-.08-.18c0-.05-.1-.17,0-.12l.35.11.72.23,6.27,1.95-.08.16c1.74.49,3.45,1.05,5.13,1.65s3.33,1.31,5,1.88a33.78,33.78,0,0,0,10.59,2.14,24.82,24.82,0,0,0,11.33-1.6c3.62-1.37,6.91-3.32,10.3-4.95,2.25-.76,4.32-2.49,6.61-3.84s4.8-2.4,7-2.3a35,35,0,0,1,12.8,2.14c4.05,1.44,7.83,3.94,12,5.59a25.18,25.18,0,0,0,11.51,3.71,48.48,48.48,0,0,0,6-.17c2-.13,4-.28,6-.37a28.85,28.85,0,0,1,5.82-1.1,26.28,26.28,0,0,0,6.15-1.32L201,169c1.66.17,2.9-2,4.11-1.34l-.13.1c.92.21,1.36-1.74,2-1.34l0-.27c.9-.39.21.22,1,.07.25-.12-.05-.46.55-.52.45.92,2.17-1,2.61.07-.5.18.93.16-.12.77.36,0,1.87-.57,1.58-1,0-.53.43-1.16-.64-1.22l-.07.42c-.43-.25-.3-.1-.5-.33-1.24.37-1.58-.09-2.54,0,0,0,0,0,0,0-.45.64-1.36.68-1.86.78l-.26-.13c-.43-.31-1.1,1.3-1,.46a75.46,75.46,0,0,1-8,2.86c-.31.39-2.13.58-1.38.94-.86-.4-3,0-3.74.15,0-.07,0-.14.16-.15-1.67-.46-1.64,1.13-3.24.42-.1.74-2.6.21-3.3,1.12-.2-.13-.27-.27-.22-.4a34.74,34.74,0,0,1-3.95.23c-1.31,0-2.57,0-3.56-.07a4.32,4.32,0,0,1-1.45.13,11.79,11.79,0,0,1-1.54-.26,7.48,7.48,0,0,0-2.86-.3,33.87,33.87,0,0,0-4.8-2.1l.2,0c-1.89-.84-4.18-2.11-5.7-2.42-.11-1-1-1.37-1.62-2.08a25.32,25.32,0,0,1-2.82-1.32c-.56-.25-1.14-.53-1.73-.77s-1.19-.42-1.75-.57c-.19-.48-1.84-.5-1.78-1.06a41.48,41.48,0,0,0-10.53-.48A38.28,38.28,0,0,0,131.6,162l.07-.08a23.44,23.44,0,0,0-1.73,2.56c-.1,0-.14-.08,0-.17-1,.71-2.2.82-3.17,1.5,0-.09,0-.09.09-.26-.85.77-2.2.76-3.15,1.73l-.13-.09-.64.55c-.07-.17-.16-.42.26-.57a53.55,53.55,0,0,1-6.88,2.92,31.79,31.79,0,0,1-7.34,1.5,37,37,0,0,1-15.18-2.1l.41,0c-.67-.11-1.34-.22-2-.36,0-.08.15-.09.25-.09-2.32-1.16-5.1-1.51-7.48-2.4,0-.08.47-.13.16-.33a5.4,5.4,0,0,1-2.21-.75,2.74,2.74,0,0,0-.83-.31.94.94,0,0,0-.41,0,2.17,2.17,0,0,0-.56.12c-.1-.09-.17-.36.14-.34-2-.58-3.87-1.14-5.68-1.7-.37-.21-.09.19,0,.39l.29.68.57,1.34,1.1,2.63.54,1.31a4.82,4.82,0,0,0,.24.53l.24.45.91,1.81.9,1.81c.32.59.69,1.15,1,1.74a23.61,23.61,0,0,1,2.2,2.65c.75.88,1.47,1.81,2.2,2.75.36.46.7.95,1.1,1.4l1.21,1.29a21.22,21.22,0,0,0,2.59,2.35l-.15.12c4.61,3.74,9.19,8.08,14.58,11.11a51.17,51.17,0,0,0,6.1,3.07l0,.24a25.8,25.8,0,0,1,3.13,1.09c1,.44,2,1,3.07,1.49s2.12.91,3.21,1.28c.54.19,1.09.35,1.65.49a10.79,10.79,0,0,0,1.71.2l-.39.22c.81-.29,2.6.86,2.54,0l.71.44a10.93,10.93,0,0,1,2.24.09,16.26,16.26,0,0,1,2.1.55c.71.22,1.44.46,2.23.64a11.47,11.47,0,0,0,2.6.12l-.27.16a8.88,8.88,0,0,1,2.88.24c-.12,0-.07.08-.31.11,3.06,1,6.6.3,9.86.13l-.36.38a17.63,17.63,0,0,1,3.1-.35,34.55,34.55,0,0,0,3.47-.4l-.11.19,1-.35.08.34c1.35-.18,2.64-.52,3.92-.82l1.92-.46C161.81,206.52,162.44,206.33,163.08,206.16Z" transform="translate(-6.59 -6.58)"/><path class="cls-4" d="M187.8,194.79h0C187.72,194.86,187.75,194.84,187.8,194.79Z" transform="translate(-6.59 -6.58)"/><path class="cls-4" d="M208.47,164.45a2.11,2.11,0,0,1,.33,0C208.76,164.35,208.57,164.43,208.47,164.45Z" transform="translate(-6.59 -6.58)"/><polygon class="cls-5" points="76.42 92.05 76.59 92.02 76.56 91.58 76.42 92.05"/><path class="cls-5" d="M83.86,96.53c-.08,0-.13-.06-.21,0L83.5,98C84.23,97.85,83.38,96.63,83.86,96.53Z" transform="translate(-6.59 -6.58)"/><path class="cls-5" d="M84.17,96.29c.46-.26.28-.67.25-.85C84.55,95.77,83.77,96.11,84.17,96.29Z" transform="translate(-6.59 -6.58)"/><path class="cls-5" d="M119.32,71.53l-.14.07A.18.18,0,0,0,119.32,71.53Z" transform="translate(-6.59 -6.58)"/><path class="cls-5" d="M130.18,67.55l.06-.33a16,16,0,0,1-3.3.86,15,15,0,0,0-3.41.77l.12-.15a57.85,57.85,0,0,0-15.57,6.49c.06-.07,0-.16.11-.24-.19.23-.37.55-.66.67-.1,0,0-.17.09-.24-1.32.11-3,2-3.8,2-.27.23-.28.49,0,.53-.93.63-1.91,1.2-2.82,1.9l-2.76,2.08a50.23,50.23,0,0,0-5,4.7.27.27,0,0,1-.41-.16A41.27,41.27,0,0,1,88.88,91l-2.06,2.16c-.68.72-1.41,1.4-2,2.17.08.26.43-.17.37.28,1-.82,1.12-2.1,2.17-2.7l.06.26c.66-.53-.29-.49.5-.95.36-.13.14.25.26.14,1.11-1.39,2.61-2.49,3.41-4.07.61,0,1.43-1.26,2.21-1.37.22-.44.6-.71.53-1.06C99.13,82,104.17,78,110,75.29a11.27,11.27,0,0,1,4.32-2.21c.82-.26,1.66-.51,2.5-.79a23.17,23.17,0,0,0,2.51-.85.07.07,0,0,1,0,.09,12.09,12.09,0,0,1,1.86-.84,18,18,0,0,1,2.13-.54l1-.67c4.16-.55,8.3-1.26,12.53-1.56,1.05-.12,2.1-.17,3.16-.21s2.12-.12,3.18-.13c2.12,0,4.24,0,6.35.24A86.57,86.57,0,0,1,163.13,70c4.35,1,8.56,2.2,13.1,3.45,0,.07,0,.15-.23.08,2.58.86,4.62,2.29,7,3.3l-.05.07a39.48,39.48,0,0,1,4.28,2.21c1.35.9,2.75,1.77,4,2.78,2.61,2,5.07,4.06,7.56,5.88,1.32,1.32,2.72,2.65,4,4.13l2,2.18,1.71,2.06.88,1,.12.13s0,0,0,.06h-.08l-.32,0-.64,0-2.69.23-6,.51V98c-3.16.38-6.28.46-9.41.68A65.84,65.84,0,0,0,179,99.93c-6.51.7-13,3.43-19.51,4.29a21.73,21.73,0,0,0-6.53,1.5,13,13,0,0,1-6.47.77l-11.45-1.84c-3.8-.59-7.66-1.07-11.58-1.47-7-2-14.28-2.05-21.08-3.9-3.35.23-6.86-1.55-10.59-1.55L92,98c-1.3-.74-3,.81-3.78-.2l.14-.05c-.7-.51-1.65,1.17-2.07.57l-.11.24c-.85.07-.1-.28-.76-.38-.24,0-.09.45-.6.32-.09-.85-1.47-.12-1.94-.5a.38.38,0,0,1-.11-.4c.17,0,.06-.1,0-.23a.37.37,0,0,1,.19-.42.1.1,0,0,1,0,0l0,0c-.09,0-.21-.07-.36-.09-.32-.13-.66-.16-.7.06-.37.39-1.06.52-.52,1.28l.33-.23c0,.46.11.29.08.6a4.56,4.56,0,0,0,.51.32c.17.06.32.09.45.13a2.14,2.14,0,0,1,.74.34,2.53,2.53,0,0,0,.68.32s0,0,0,0c.55-.45,1.31-.2,1.74-.13l.17.21c.26.45,1.28-.84.93-.09a56.52,56.52,0,0,1,7.43.12c.37-.25,1.94.19,1.43-.41.59.67,2.45,1,3.16,1.06,0,.06-.07.12-.18.09,1.27.94,1.69-.59,2.85.56.28-.68,2.27.5,3.1-.21.13.18.16.32.09.44,2.28.33,4.75,1,6.67,1.35,1.75-.33,3.92,1,5.49.42a14.68,14.68,0,0,0,4.65,1.13l-.18.07a19.35,19.35,0,0,0,5.53.53c.37.92,1.2.93,1.94,1.36,1.31-.1,3.78.56,5.76.59.22.44,1.61.14,1.61.7,2.8,0,5.85.18,9,.28,1.57,0,3.16.07,4.74,0,.79,0,1.58-.08,2.36-.13l2.27-.2-.07.06c.66-.46,1.35-1.3,2-1.84.09,0,.1.12-.06.15,1-.32,2.08,0,3.08-.33,0,.09,0,.09-.14.21.91-.44,2.07,0,3.12-.65l.09.13.68-.35c0,.18,0,.45-.35.48,4.42-.84,8.85-1.9,13.34-2.9A111,111,0,0,1,190,99.82l-.31.2,1.74-.48c0,.09-.08.15-.17.19,2.29.1,4.6-.57,6.83-.63,0,.09-.33.28,0,.36,1.62-.59,2.68.49,3.45-.59a.24.24,0,0,1,0,.37l1.72-.22.86-.09,1.19-.12,2.54-.23,1.26-.1.63-.06h.23s0,0,0,0l-.19-.23-3-3.69-.74-.93-.37-.47-.29-.33-1.14-1.33a21.11,21.11,0,0,1-2.33-1.91c-.77-.67-1.51-1.39-2.25-2.11l-1.11-1.08c-.39-.34-.79-.68-1.19-1a19.62,19.62,0,0,0-2.51-1.77l.14-.13c-4.42-2.77-8.61-6.39-13.49-8.74a43.83,43.83,0,0,0-5.5-2.37l0-.24a17.73,17.73,0,0,1-2.8-.79c-.92-.34-1.81-.81-2.75-1.19a14.79,14.79,0,0,0-5.82-1.46l.34-.25c-.71.34-2.3-.7-2.24.17l-.63-.41c-2.81.63-4.71-1.37-8.07-1l.23-.17a8.47,8.47,0,0,1-2.53-.14c.11,0,.06-.09.27-.13a12,12,0,0,0-4.25-.49c-1.47.1-3,.3-4.39.28l.33-.36c-1.39.42-4,.17-5.77.46l.09-.19-.9.33,0-.34c-1.19.1-2.34.28-3.48.47S131.32,67.36,130.18,67.55Z" transform="translate(-6.59 -6.58)"/><path class="cls-5" d="M107.62,75.38h0C107.69,75.31,107.66,75.33,107.62,75.38Z" transform="translate(-6.59 -6.58)"/><path class="cls-5" d="M84.44,99.63l-.29-.06C84.17,99.64,84.34,99.62,84.44,99.63Z" transform="translate(-6.59 -6.58)"/><polygon class="cls-5" points="189.17 238.34 189.19 238.17 188.74 238.03 189.17 238.34"/><path class="cls-5" d="M193.93,243.37c0,.08-.1.11-.11.2l1.45.64C195.32,243.43,193.88,243.87,193.93,243.37Z" transform="translate(-6.59 -6.58)"/><path class="cls-5" d="M193.77,243a.71.71,0,0,0-.8-.48C193.33,242.48,193.49,243.34,193.77,243Z" transform="translate(-6.59 -6.58)"/><path class="cls-5" d="M152.91,236.47l.12-.12Q152.93,236.41,152.91,236.47Z" transform="translate(-6.59 -6.58)"/><path class="cls-5" d="M146.34,246.17l.22.26c.53-2.15,2.38-3.84,3.7-5.64l0,.19a35,35,0,0,1,6.36-5.36,26.1,26.1,0,0,1,7.66-3.4c-.08.05-.09.15-.17.2a2.22,2.22,0,0,1,.82-.46c.1,0,0,.16-.15.21a6.2,6.2,0,0,0,2.33-.27,4,4,0,0,1,2-.15c.33-.08.48-.29.29-.45A32,32,0,0,1,183.28,234a.27.27,0,0,1,0,.44,15.44,15.44,0,0,1,5.4,3.05,27.24,27.24,0,0,1,4.21,4.65c.27,0-.08-.48.35-.3a3.65,3.65,0,0,0-1.3-1.37,3.63,3.63,0,0,1-1.24-1.31l.27,0c-.56-.71-.52.26-1-.57-.14-.38.25-.14.14-.27a14.09,14.09,0,0,0-4.69-3.18c-.15-.6-1.72-1.08-2.16-1.76-.53,0-1-.32-1.25-.12a24,24,0,0,0-9.63-2.57,30.29,30.29,0,0,0-5,.12,34.67,34.67,0,0,0-4.95,1,31.62,31.62,0,0,1-4.66,2.05,16,16,0,0,0-4.77,2.77.08.08,0,0,1-.06-.08c-.85.9-2.08,2.14-3.15,3.11a9.42,9.42,0,0,0-.54,1.16,22,22,0,0,0-4,5.13c-.26.47-.53.95-.78,1.44l-.67,1.5c-.23.5-.4,1-.58,1.54l-.27.78-.13.39c-.05.15-.05.18-.08.27l-.23.91-.06.23c0,.07-.12,0-.18,0l-.39-.12-.4-.1c-.18-.06-.5-.14-.75-.2-.53-.13-1.07-.25-1.6-.36a39.66,39.66,0,0,0-6.55-.85,26.57,26.57,0,0,0-13.32,3,23.32,23.32,0,0,0-7.71,6.48,2.77,2.77,0,0,0-.28.42l-.19.34-.46.87,0,.06,0,0,0-.06-.12-.11-.25-.29c0-.1,0-.19.13-.12a3.71,3.71,0,0,1-.51-.95l-.66-1.74-.52-1.79c-.19-.59-.39-1.18-.56-1.79h.09a31.12,31.12,0,0,1-1.72-9.47c-.21-3.25,0-6.46-.19-9.54a66.4,66.4,0,0,1,2.22-11.47l.41-1.45.5-1.43c.34-.94.64-1.91,1.06-2.82s.75-1.88,1.23-2.75l.68-1.32.33-.64.16-.32c0-.08.08-.05.14,0l.17,0,.05.2,1,.18,1.15.25c.76.17,1.52.36,2.28.56,1.51.4,3,.85,4.5,1.28a57.41,57.41,0,0,0,9.18,2.09,39.65,39.65,0,0,0,10,.78c3.37-.07,6.7-.33,10-.31a17.64,17.64,0,0,0,6.64-.8c1.13-.29,2.23-.64,3.3-.85a12.62,12.62,0,0,1,3.08-.41,34.69,34.69,0,0,0,11.34-2.72c1.8-.69,3.54-1.69,5.26-2.42a4.32,4.32,0,0,1,2.82-.2,6.44,6.44,0,0,1,2.49,1.67c4.36,5.77,10,10.39,13.86,16.32a16.16,16.16,0,0,1,3.3,4l.33.53.15.24c0,.08-.17.16-.25.23l-.95.83a17,17,0,0,0-1.89,2l.25,0c-1.37.56-1.24,2.84-2.53,2.8l.06-.13c-.85.19-.18,2-.91,1.93l.11.25c-.51.68-.28-.12-.79.31-.14.21.28.37-.16.66-.85-.59-1.21,1.71-2.11,1,.31-.34-.81.26-.31-.68-.28.14-1.18,1.25-.73,1.47.31.43.28,1.15,1.15.76l-.16-.38c.47,0,.28,0,.56.07.79-.81,1.3-.57,2-1l0,0c0-.71.73-1.11,1.07-1.4h.27c.51.09.21-1.53.54-.77,1.38-1.85,3.12-3.82,4.81-5.75.15-.61,2.11-2.36.88-1.81a3,3,0,0,0,.55-.3l.08-.05s0,0,0-.05l0-.11a2.08,2.08,0,0,0-.1-.24,9,9,0,0,0-.73-1.21l-.75-1c-.18-.23-.34-.43-.46-.56.06,0,.14,0,.19.06-.28-1.57-1.64-.73-1.73-2.36-.66.31-1.36-1.91-2.46-1.92,0-.22.08-.35.22-.39-1.51-1.76-3-3.86-4.26-5.36-1.56-.87-2.45-3.25-4-3.78a14.16,14.16,0,0,0-3-3.75l.19.06-1-1.09-.54-.55a6.45,6.45,0,0,0-.66-.62,5.06,5.06,0,0,0-1.56-.92,3.24,3.24,0,0,0-1.55-.19,1.65,1.65,0,0,0-1.31-.71,11.72,11.72,0,0,0-1.57,0l-1.21.64c-.44.23-.84.42-1.31.64-.92.44-1.91.9-2.75,1.37-.4-.25-1.41.68-1.68.2-4.63,2.75-11.23,4.05-16.89,4l.08,0c-.68.41-1.43,1.18-2.14,1.63-.08,0-.08-.13.08-.14-1,.2-2-.21-3.06-.06,0-.09,0-.09.16-.19-.95.3-2-.27-3.13.17l-.07-.15-.72.23c0-.18,0-.46.42-.41-4.41.06-8.89,0-13.41-.36A82.91,82.91,0,0,1,121,215.2l.37-.09-1.81-.12c0-.09.12-.11.21-.13a16.6,16.6,0,0,0-3.35-.84l-1.7-.29-1.09-.22-1.17-.28c0-.1.4-.18-.12-.4h-.16a.33.33,0,0,0,0,.06l-.09.24-.19.43c-.13.27-.26.51-.39.73s-.27.43-.41.63l-.29.37a1.32,1.32,0,0,0-.36,1.47.22.22,0,0,1-.3-.2A89.15,89.15,0,0,0,105.79,230c.16,4-1.1,8.19-.38,12.24l-.19,0c.28,2.6.47,5.25.7,7.93a35.85,35.85,0,0,0,1.55,7.95,15.67,15.67,0,0,0,.47,1.5l.58,1.31c.2.4.4.92.66,1.37s.53.94.8,1.47l0,.4.24.29.12.15.06.07s0-.05.06-.07a14.7,14.7,0,0,1,3.83-4.38,42.61,42.61,0,0,0,4.17-3.54l0,.41c.22-.77,2.08-1,1.48-1.65l.73-.11a5.59,5.59,0,0,1,3.43-1.71,22.16,22.16,0,0,0,4.17-1l-.18.23a5.22,5.22,0,0,1,2.49-.39c-.1,0,0,.09-.25.16a20.15,20.15,0,0,0,4.2.25,19.56,19.56,0,0,1,4.33.29l-.39.3a7.47,7.47,0,0,1,2.66.41c1,.15,2.74,1.37,2.53-.38l.11.28.05-1.19.32.16c.19-.76.36-1.23.52-1.79s.29-1.11.49-1.63l.56-1.61C145.84,247.21,146.08,246.69,146.34,246.17Z" transform="translate(-6.59 -6.58)"/><path class="cls-5" d="M164.76,232.17h0C164.67,232.21,164.71,232.2,164.76,232.17Z" transform="translate(-6.59 -6.58)"/><path class="cls-5" d="M197.38,244.67l-.25.18C197.2,244.88,197.3,244.73,197.38,244.67Z" transform="translate(-6.59 -6.58)"/><polygon class="cls-5" points="52.35 230.13 52.41 230.17 52.34 229.74 52.35 230.13"/><path class="cls-5" d="M59,235.08s-.07-.11-.1-.13l.18,1.37C59.33,236.47,58.77,235,59,235.08Z" transform="translate(-6.59 -6.58)"/><path class="cls-5" d="M59,235c.16-.06,0-.52,0-.69C59.12,234.65,58.84,234.64,59,235Z" transform="translate(-6.59 -6.58)"/><path class="cls-5" d="M64.57,213.87s0,0,0,.08A.06.06,0,0,0,64.57,213.87Z" transform="translate(-6.59 -6.58)"/><path class="cls-5" d="M64.68,208l-.29-.15c.29,1.16-.52,2.09-.55,3.21l-.09-.11A72.54,72.54,0,0,0,62.38,219c0-.06-.09-.13-.1-.2,0,.19.18.46.12.59s-.11-.13-.12-.2c-.55.24-.16,1.86-.56,2a.45.45,0,0,0,.29.42c-.44,2.19-.95,4.51-1.29,7-.07.05-.16,0-.26-.22a17.26,17.26,0,0,1-1.33,5.94c.08.27.16,0,.21.41.31-.36.06-1.59.41-1.78l.08.26c.18-.29-.24-.55,0-.73.14,0,.13.28.16.21a9.31,9.31,0,0,0,.49-2.89c.32.18.26-.9.62-.87,0-.36,0-.55-.12-.88,1-2.81,1.52-6.21,2.34-9.25-.38-1.93,1-3.06,1.16-4.94a.14.14,0,0,1,.08.05,4.67,4.67,0,0,1,.32-2.12l-.21-.7a24.51,24.51,0,0,0,1.1-2.86l.26-.9.06-.18s.12,0,.18,0l.39,0,2.75.24c1,.1,2,.21,3,.38,4.58.64,8.56,1.64,13.13.86,0,.09,0,.14-.09.16,1.31-.07,2.44.39,3.71.26v.09a28.63,28.63,0,0,1,4.72-.28,17.2,17.2,0,0,0,4.55-.53,5.49,5.49,0,0,1,1.2.18,1.18,1.18,0,0,1,.84.74,2.63,2.63,0,0,1,0,1.19,13.86,13.86,0,0,1-.3,1.36c-.51,1.85-1,3.74-1.4,5.58l-.16-.06c-.47,3-2.14,5.56-2.66,8.54-1.21,2.87-.7,6.4-2.09,9.24a11.62,11.62,0,0,0-1,1.63,6.4,6.4,0,0,1-.56.87,1.2,1.2,0,0,1-.94.51,3.53,3.53,0,0,1-2.21-.34c-3.61-1.66-7.26-1.08-11-.57-3.38-.77-6.9.2-10.13-1.06-1.62.5-3.24-1.06-5-1l0,.23c-.57-.72-1.47.81-1.78-.21l.07,0c-.29-.53-.87,1.12-1,.51l-.08.24c-.41,0,0-.28-.32-.41-.12,0-.09.45-.32.29,0-1-1,.14-.92-1,0,0,.06,0,0-.07s0-.09,0,0v-.06s0-.07,0,0,0,.05,0,.1h0l0-.49h0l0,0,.09,0-.07,0h-.06l0,.63h0v-.06a1.31,1.31,0,0,1,.12-.38l-.05.09a4.49,4.49,0,0,1-.41.51c-.21.25-.34.17-.2.42l.09.07h0l.23.51h0l-.22-.49.18.41h0v-.09l0-.09,0-.18a3.59,3.59,0,0,0-.08-.35.9.9,0,0,0-.16-.29.77.77,0,0,0-.13-.12l0,0c-.09,0,.15-.12.32-.07h0l0,0-.14,0H58a.46.46,0,0,0-.19.09.61.61,0,0,0-.24.39c0,.34.05.25.05.29l0,.07.06.09.06.11a1.06,1.06,0,0,0,.33-.22c0,.42,0,.24,0,.52.18.11.43.2.55.27a1,1,0,0,1,.21.25,1.65,1.65,0,0,0,.4.51s0,0,0,0c.3-.43.64-.13.84,0l.07.22c.08.44.68-.81.45-.07a22.78,22.78,0,0,1,3.57.1c.19-.27.93.11.71-.47a1.72,1.72,0,0,0,1.48.89c0,.06,0,.13-.09.1.59.86.84-.69,1.37.35.15-.69,1.09.32,1.5-.48a.66.66,0,0,1,0,.43c1.1.1,2.29.46,3.22.57.84-.55,1.9.43,2.66-.36a3.27,3.27,0,0,0,2.25.38l-.08.1a4.59,4.59,0,0,0,2.67-.42c.2.84.6.71,1,1,.63-.33,1.82-.12,2.76-.39.11.39.76-.09.77.46a9.18,9.18,0,0,1,3.4-.38,13.43,13.43,0,0,1,1.77.24c.29.05.59.12.88.19s.47.14,1,.25a3.25,3.25,0,0,0,2.59-.8l0,.08a4.3,4.3,0,0,0-.17-1.93c.06,0,.14,0,.09.11a2.1,2.1,0,0,1,.56-.64,1.37,1.37,0,0,0,.46-.78c.09,0,.09,0,.15.14-.1-.52.69-.81.44-1.46h.15l-.1-.4c.17.06.43.15.32.31,1.35-4.08,1.59-8.59,2.89-12.78l.12.2-.07-.9a.25.25,0,0,1,.15.13c.58-1,.39-2.18.76-3.18.08,0,.2.23.34.12-.26-.89,1-1,.08-1.69a.42.42,0,0,1,.35.12,20.93,20.93,0,0,1,.67-3.22l.48-1.66a5.23,5.23,0,0,0,.17-2.2c-.67-1.25-2.2-1.49-3.21-1.52a6.49,6.49,0,0,0-3,.43v-.19c-2.43.76-5,.1-7.56,0-1-.17-1.78,0-2.83-.09v-.24c-1.85.72-3.68-1.12-5.62-.32l.16-.3c-.33.46-1.11-.27-1.07.57l-.31-.28c-1.35,1-2.25-.71-3.86-.14l.12-.19a1.5,1.5,0,0,1-1.2,0s0-.08.13-.13c-1.22-.89-2.73-.16-4.08-.31l.18-.35c-.69.37-1.86-.14-2.74,0l.07-.16a4.73,4.73,0,0,0-.5.2l-.06-.36c-.35,0-.7-.05-1-.06a3.54,3.54,0,0,0-.47,0l-.08.53C64.86,206.8,64.79,207.46,64.68,208Z" transform="translate(-6.59 -6.58)"/><path class="cls-5" d="M62.28,219.19h0C62.27,219.14,62.27,219.15,62.28,219.19Z" transform="translate(-6.59 -6.58)"/><path class="cls-5" d="M59.35,236.88a.57.57,0,0,1-.13-.08C59.22,236.87,59.3,236.86,59.35,236.88Z" transform="translate(-6.59 -6.58)"/><polygon class="cls-6" points="148.32 275.7 148.21 275.65 148.29 275.97 148.32 275.7"/><path class="cls-6" d="M154.62,283.39c.06,0,.11.1.16.12l-.12-1C154.16,282.31,155,283.52,154.62,283.39Z" transform="translate(-6.59 -6.58)"/><path class="cls-6" d="M154.44,283.43c-.29,0-.1.35-.05.48C154.25,283.63,154.76,283.72,154.44,283.43Z" transform="translate(-6.59 -6.58)"/><path class="cls-6" d="M140.23,295.94a.11.11,0,0,0,0-.06A0,0,0,0,0,140.23,295.94Z" transform="translate(-6.59 -6.58)"/><path class="cls-6" d="M137.36,300.19l.17.27c.33-1,1.49-1.28,2.07-2.1l0,.13a46.73,46.73,0,0,0,5-5.2s.05.13,0,.19c0-.16,0-.4.11-.47s.06.14.05.19c.73.05.94-1.25,1.45-1.15a.33.33,0,0,0-.19-.42,42.29,42.29,0,0,0,4.07-4.36c.12,0,.23.09.32.24.72-1.73,2.27-2.62,3.65-3.63-.09-.21-.28-.07-.31-.35-.59.15-.4,1.07-1,1.09l-.09-.21c-.36.14.3.46-.17.5-.22,0-.15-.23-.21-.2-.53.57-1.26,1-1.47,1.82-.44-.24-.64.53-1.15.38,0,.27-.21.36-.07.65-2.2,1.57-4,3.72-6.12,5.5-.39,1.52-2.27,1.72-3.23,3a.16.16,0,0,1-.06-.08A3.32,3.32,0,0,1,139,297.3l-.13.62a25.84,25.84,0,0,0-4.42,3.21l-1.5,1.31-.13.11s-.09.13-.12,0l-.2-.31a6.21,6.21,0,0,1-.35-.6c-2.34-3.47-4.1-6.68-7.44-9.2.07,0,.09-.1.18,0-.83-.82-1.19-1.87-2-2.65l.08-.05a12.25,12.25,0,0,1-2.56-3.28c-.36-.59-.71-1.19-1.09-1.76-.2-.28-.35-.55-.55-.82s-.42-.52-.6-.79a13.1,13.1,0,0,1-.77-4.81,16.07,16.07,0,0,1,1-5l.16.07a8.07,8.07,0,0,1,2.11-3.32c.93-.93,1.95-1.71,2.87-2.64,1.19-.64,2.22-1.55,3.44-2.32a6.94,6.94,0,0,1,4-1.23,5.36,5.36,0,0,0,2.85-.12,5.07,5.07,0,0,1,1.49-.11,1.9,1.9,0,0,1,1.27.51,30.52,30.52,0,0,0,4.19,2.53c.34.2.7.37,1.06.56s.7.41,1.07.61c.7.45,1.43.93,2.12,1.44,1.64,2.66,4.54,4.29,5.62,7.26,1.38.72,1.23,2.83,2.35,4l.13-.18c-.17.86,1.52.41,1,1.3l-.07,0c-.22.55,1.36-.19,1,.33l.23-.12c.28.24-.2.21-.1.49.09.06.38-.25.41,0-.78.68.72.56-.16,1.29-.12-.15-.15.53-.62.33,0,.17.41.61.76.26s.94-.38,1-.91l-.34.17c.21-.33.08-.19.28-.4-.26-.41.12-.8.09-1.21l0,0c-.5.09-.5-.33-.56-.52l.11-.19c.28-.36-1,.11-.33-.25a18.41,18.41,0,0,1-2.12-2.39c-.32.05-.5-.68-.79-.15a1.5,1.5,0,0,0-.26-1.57c.05,0,.11-.06.12,0,.28-1-1-.08-.58-1.13-.61.37-.44-.93-1.29-.66a.68.68,0,0,1,.29-.31c-.6-.79-1.1-1.81-1.6-2.49-.94-.18-.89-1.54-1.95-1.48a2.73,2.73,0,0,0-1.18-1.71h.13a3.72,3.72,0,0,0-2.08-1.41c.42-.75,0-.93-.07-1.39a3.53,3.53,0,0,1-1.17-.58,4.92,4.92,0,0,0-1.36-.63c.1-.41-.72-.25-.48-.74a24.6,24.6,0,0,1-4-1l-4.05-1.39,0,0a10.53,10.53,0,0,0-1.09,1.35s0-.14,0-.13c-.46.09-.93-.37-1.4-.24,0-.09,0-.09.06-.18-.42.26-1-.31-1.46.2l-.06-.13-.29.26c0-.18-.07-.45.12-.43a12.54,12.54,0,0,0-5.76,2.69,27.2,27.2,0,0,0-4.31,4.61l0-.23-.21.84a.22.22,0,0,1-.1-.17,3.11,3.11,0,0,0-.84,1.33,8.47,8.47,0,0,1-.55,1.46c-.08,0-.17-.25-.32-.16.19.88-1.06.93-.2,1.62a.39.39,0,0,1-.33-.13,30.27,30.27,0,0,0-.44,6.38,7.57,7.57,0,0,1,.67,1.25l.47,1.29a5.19,5.19,0,0,0,.58,1.24,3.14,3.14,0,0,0,.9,1l-.16.08c1.67,1.58,2.37,3.91,3.82,5.72a22,22,0,0,0,1.64,2l-.17.16c1.66.76,1.42,3.18,3.21,3.92l-.32.1c.55-.1.49.9,1.08.32v.38c1.57.23.87,1.95,2.29,2.63l-.22,0c.35.2.71.47.73.8,0,0-.08,0-.17,0a1.87,1.87,0,0,0,.28.9,5,5,0,0,0,.71.84c.26.25.51.45.73.65l.16.14c.06,0,.1.16.17,0a3.15,3.15,0,0,1,.38-.36c0,.19-.07.39-.12.59a3.36,3.36,0,0,1,1-1.13l.6-.47a2.33,2.33,0,0,0,.43-.46l.08.17.14-.45.24.26C136.11,301.72,136.64,300.86,137.36,300.19Z" transform="translate(-6.59 -6.58)"/><path class="cls-6" d="M144.86,293.2h0S144.85,293.23,144.86,293.2Z" transform="translate(-6.59 -6.58)"/><path class="cls-6" d="M156.58,281.69a.7.7,0,0,1,0,.14C156.66,281.78,156.6,281.73,156.58,281.69Z" transform="translate(-6.59 -6.58)"/><polygon class="cls-5" points="227.67 198.8 227.56 198.75 227.63 199.07 227.67 198.8"/><path class="cls-5" d="M233.91,206.46c.05,0,.09.1.15.13l-.07-1C233.52,205.35,234.23,206.62,233.91,206.46Z" transform="translate(-6.59 -6.58)"/><path class="cls-5" d="M233.73,206.48c-.29,0-.12.34-.08.48C233.53,206.67,234,206.8,233.73,206.48Z" transform="translate(-6.59 -6.58)"/><path class="cls-5" d="M218.94,217.71a.21.21,0,0,0,0-.06S218.93,217.68,218.94,217.71Z" transform="translate(-6.59 -6.58)"/><path class="cls-5" d="M215.85,221.67l.15.28c.39-1,1.55-1.14,2.17-1.9v.12a46.44,46.44,0,0,0,5.3-4.72s0,.13,0,.18c0-.16,0-.4.13-.45s.06.14.05.19c.71.11,1-1.16,1.49-1a.33.33,0,0,0-.16-.43,42.14,42.14,0,0,0,4.29-4c.12,0,.22.1.3.26.82-1.65,2.4-2.41,3.82-3.3-.08-.21-.27-.08-.28-.37-.6.1-.47,1-1.1,1l-.08-.21c-.37.1.27.47-.2.47-.22-.06-.13-.24-.19-.21-.56.52-1.31.84-1.57,1.68-.42-.27-.66.47-1.15.28,0,.26-.23.34-.11.63-2.27,1.39-4.17,3.36-6.37,5-.49,1.48-2.35,1.52-3.38,2.66l-.05-.07a3.21,3.21,0,0,1-1.31,1.24l-.17.6a21.23,21.23,0,0,0-3.68,2.18l-2.71,2a4.83,4.83,0,0,1-.34-.45l-.16-.22-.07-.12-.16-.22c-2.47-3.25-4.29-6.38-7.76-8.63.07-.05.08-.11.18-.06-.88-.75-1.31-1.75-2.15-2.45l.07-.06a14.38,14.38,0,0,1-2.92-2.91c-.44-.53-.88-1.06-1.35-1.54a5.67,5.67,0,0,0-.62-.56c-.21-.16-.46-.34-.77-.54l-.11-.14.73-.69.79-.75,1.74-1.73c1.17-1.18,2.32-2.4,3.41-3.61l.12.13c1.65-2.12,4.15-3.22,5.86-5.27,2.24-1.6,3.32-4.63,5.67-6.15a2.93,2.93,0,0,0,1.47-1.2c.33-.5.77-1.23,1.31-1.9a3.44,3.44,0,0,1,1.11,1.56c1.17,3.38,3.93,5.17,6.72,7.09,1.65,2.59,4.59,4,5.79,6.87,1.4.62,1.35,2.71,2.51,3.75l.13-.19c-.13.86,1.52.3,1,1.22h-.07c-.19.55,1.34-.28,1,.25l.22-.13c.29.22-.19.22-.08.49.09.06.37-.27.4,0-.73.71.75.5-.1,1.28-.12-.14-.13.52-.6.36,0,.17.44.58.77.21s.91-.43,1-1l-.33.19c.2-.34.08-.19.26-.41-.28-.39.09-.8,0-1.2,0,0,0,0,0,0-.49.13-.5-.29-.57-.47l.1-.19c.26-.38-1,.16-.34-.23a18,18,0,0,1-2.22-2.23c-.31.08-.53-.63-.78-.09a1.48,1.48,0,0,0-.34-1.53s.11-.06.12,0c.23-1-1,0-.63-1.08-.58.41-.48-.88-1.3-.56a.75.75,0,0,1,.27-.33c-.63-.74-1.15-1.71-1.68-2.35-.93-.11-.92-1.46-2-1.34a2.6,2.6,0,0,0-1.19-1.64l.13,0a3.73,3.73,0,0,0-2-1.31c.45-.72.11-.86.08-1.29-.64-.15-1.26-1-2-1.39.2-.34-.56-.39-.18-.78a7.53,7.53,0,0,1-2.36-1.69c-.17-.18-.33-.37-.49-.56l-.69-.86c-.5-.65-1-1.35-1.57-2.14-.68.49-1.42,1-2.25,1.55l0-.09a3.76,3.76,0,0,0-.25,1.14c.05.3.11.61.13.86,0,0-.11-.08-.06-.13-.25.38-.92.28-1.16.66-.06-.07-.06-.07-.07-.18-.13.46-.92.27-1,.92l-.12-.09-.08.36c-.12-.13-.31-.34-.15-.41-2.83,2.5-5,5.88-7.86,8.47v-.22l-.33.74a.29.29,0,0,1-.07-.18c-.9.45-1.26,1.5-2,2.1-.06-.07-.08-.29-.24-.28-.15.84-1.24.31-.78,1.29a.44.44,0,0,1-.24-.27,22,22,0,0,1-4.08,4.16,3.26,3.26,0,0,1-.25.61,7,7,0,0,1-.48.66,12.79,12.79,0,0,1-1.07,1.15A8.26,8.26,0,0,0,196,208l-.15.11c1.9,1.23,2.86,3.43,4.42,5.05a24.7,24.7,0,0,0,1.74,1.81l-.16.16c1.69.63,1.55,3,3.35,3.66l-.31.12c.53-.12.51.87,1.08.26v.38c1.56.14.93,1.88,2.36,2.46l-.21.06c.36.18.73.42.76.74,0,0-.08,0-.17,0a1.8,1.8,0,0,0,.26.78,3.12,3.12,0,0,0,.56.64c.48.45,1,.73,1.32,1.06a3.66,3.66,0,0,1,.4-.33c0,.18-.08.36-.13.55a3.18,3.18,0,0,1,1.05-1,5,5,0,0,0,1-.82l.07.17.16-.43.22.27C214.52,223.08,215.1,222.28,215.85,221.67Z" transform="translate(-6.59 -6.58)"/><path class="cls-5" d="M223.68,215.37h0S223.66,215.4,223.68,215.37Z" transform="translate(-6.59 -6.58)"/><path class="cls-5" d="M235.74,204.88a.68.68,0,0,1,0,.14C235.81,205,235.75,204.92,235.74,204.88Z" transform="translate(-6.59 -6.58)"/><polygon class="cls-6" points="178.24 246.61 178.13 246.56 178.26 246.85 178.24 246.61"/><path class="cls-6" d="M184.76,254.19c.05,0,.1.09.16.11l-.28-.91C184.16,253.2,185.07,254.32,184.76,254.19Z" transform="translate(-6.59 -6.58)"/><path class="cls-6" d="M184.6,254.23c-.26,0,0,.31,0,.43C184.46,254.41,184.93,254.5,184.6,254.23Z" transform="translate(-6.59 -6.58)"/><path class="cls-6" d="M173.86,265.35a.14.14,0,0,0,0-.06S173.85,265.32,173.86,265.35Z" transform="translate(-6.59 -6.58)"/><path class="cls-6" d="M172,269.16l.19.25c.13-.93,1.14-1.13,1.52-1.87l0,.11a31.91,31.91,0,0,0,3.69-4.63c0,.05.06.12.06.17,0-.15-.08-.37,0-.42s.08.12.08.17c.67.06.64-1.12,1.11-1a.37.37,0,0,0-.24-.39,29.71,29.71,0,0,0,3-3.89c.1,0,.21.09.32.23.36-1.57,1.61-2.35,2.69-3.24-.12-.2-.27-.07-.33-.33-.52.13-.2,1-.77,1l-.12-.19c-.3.11.35.42-.07.44-.21,0-.17-.21-.22-.18-.38.51-1,.84-1,1.63-.43-.22-.49.47-1,.32,0,.25-.14.33,0,.59-1.73,1.39-3,3.31-4.61,4.89-.1,1.38-1.75,1.53-2.42,2.63,0,0-.05,0-.07-.06a2.31,2.31,0,0,1-.89,1.21l0,.56c-2.62,1.54-4.34,4.06-6.67,5.95l-.48.41-.11.11-.06,0-.11.07a3.65,3.65,0,0,1-.36.21c-.05,0-.1.06-.14.05l-.1-.22c-.07-.12-.13-.23-.19-.32a7.25,7.25,0,0,0-.61-.71,9.88,9.88,0,0,0-.87-.84,11,11,0,0,0-2.06-1.41c.07-.06.09-.11.17-.07-.77-.59-1.09-1.44-1.79-2l.07-.06a7.08,7.08,0,0,1-2.2-2.48,21.93,21.93,0,0,0-1.73-2.78,18.41,18.41,0,0,1-.48-8.1l.17,0a6.46,6.46,0,0,1,1.16-3c.6-.89,1.26-1.7,1.8-2.62a21,21,0,0,0,2.16-2.61,5.46,5.46,0,0,1,2.83-2,1.69,1.69,0,0,0,1.11-.24,6.23,6.23,0,0,0,1-.66,5.73,5.73,0,0,1,1.09-.58,1.54,1.54,0,0,1,1.12,0,12,12,0,0,0,4,.57,38.21,38.21,0,0,1,4.13,0c1.1.7,2.29,1.16,3.41,1.83a5.35,5.35,0,0,1,2.53,2.81c1.26.48.93,2.38,1.84,3.28l.15-.17c-.25.77,1.37.26.75,1.09h-.06c-.26.5,1.29-.27.9.21l.22-.12c.24.19-.2.2-.14.44.07,0,.38-.25.37,0-.79.66.62.44-.28,1.16-.1-.13-.19.47-.61.33a.39.39,0,0,0,.68.18c.44-.28.91-.41,1-.89l-.33.18a2,2,0,0,1,.3-.38c-.2-.34.2-.71.21-1.07,0,0,0,0,0,0-.48.13-.42-.25-.47-.41l.14-.17c.29-.34-1,.16-.29-.2a12.53,12.53,0,0,1-1.73-2c-.3.07-.41-.57-.72-.07a1.2,1.2,0,0,0-.13-1.39c.06,0,.12-.06.12,0,.31-.91-.95,0-.49-1-.58.41-.4-.8-1.2-.44a.75.75,0,0,1,.27-.33,26.82,26.82,0,0,0-1.77-2,1.29,1.29,0,0,1-1-.51.93.93,0,0,0-1.08-.23c-.29-.38-.81-1.07-1.55-1l.1-.07a2.73,2.73,0,0,0-2.19-.16c0-.84-.32-.76-.57-1.1a2.9,2.9,0,0,1-1.06.1,3.18,3.18,0,0,0-1.23.11c-.07-.38-.61.1-.61-.45-2.14.91-4.43.78-6.84.78l0-.05a10.31,10.31,0,0,0-.37,1.57s-.08-.12,0-.14c-.31.24-.85-.11-1.17.14,0-.08,0-.08,0-.19-.22.37-.88,0-1.07.54l-.09-.12-.15.31c-.08-.15-.21-.4-.05-.42a10.74,10.74,0,0,0-3.88,3.49,29.31,29.31,0,0,0-2.5,4.55l-.1-.19,0,.73a.23.23,0,0,1-.14-.13,2.42,2.42,0,0,0-.45,1.21,4.55,4.55,0,0,1-.18,1.25c-.08,0-.23-.18-.35-.09.37.69-.83.86.14,1.33a.5.5,0,0,1-.36-.07c.09,1.73,0,3.43.11,5.19a3.44,3.44,0,0,1,.63,1c.14.35.25.7.38,1.05a3.43,3.43,0,0,0,1.15,1.9l-.17.07c1.4,1.32,2,3.22,3.32,4.6a13.72,13.72,0,0,0,1.49,1.46l-.16.17c1.54.39,1.27,2.56,2.87,3l-.3.13c.48-.19.54.91,1,.11,0,.14,0,.28,0,.43.55-.18.63.13.89.74.26,0,.76-.2,1-1l0,.25c.17-.39.3-.7.59-.73,0,.05,0,.07,0,.16,1.23-.12,1.36-1.48,2.09-2.17l.18.34c0-.65.94-1,1.25-1.59l.1.15.05-.4.25.24C171.1,270.52,171.44,269.76,172,269.16Z" transform="translate(-6.59 -6.58)"/><path class="cls-6" d="M177.58,262.94h0S177.57,263,177.58,262.94Z" transform="translate(-6.59 -6.58)"/><path class="cls-6" d="M186.79,252.7a.49.49,0,0,1,0,.12S186.8,252.73,186.79,252.7Z" transform="translate(-6.59 -6.58)"/><path class="cls-7" d="M144.51,195.78a22.18,22.18,0,0,0,16.26-7.1c2.55-2.74,2.6-6,.22-8.3s-5.21-2.29-8,.05c-6.2,5.18-10.35,5.2-16.46.09-3-2.46-6-2.45-8.28,0-2.16,2.31-2,5.73.57,8.36A22.53,22.53,0,0,0,144.51,195.78Z" transform="translate(-6.59 -6.58)"/><polygon class="cls-8" points="138.01 187.31 137.98 187.2 137.86 187.49 138.01 187.31"/><path class="cls-8" d="M143.87,194.49c0,.06,0,.14,0,.2l.47-.81C144.2,193.39,144,194.82,143.87,194.49Z" transform="translate(-6.59 -6.58)"/><path class="cls-8" d="M143.75,194.4c-.14-.21-.24.18-.29.31C143.54,194.41,143.75,194.82,143.75,194.4Z" transform="translate(-6.59 -6.58)"/><path class="cls-8" d="M131,189.42H131S131,189.4,131,189.42Z" transform="translate(-6.59 -6.58)"/><path class="cls-8" d="M127.49,187.54l-.29.12c.84.35.93,1.33,1.67,1.72l-.12,0a12.73,12.73,0,0,0,4.81,3s-.1.08-.14.1c.13-.05.32-.17.4-.1a.19.19,0,0,1-.15.13c.09.67,1.19.27,1.22.74.13,0,.27-.17.28-.34a11.65,11.65,0,0,0,4.38.93.5.5,0,0,1,0,.39c1.41-.51,2.57,0,3.84.28.07-.21-.1-.25,0-.46-.36-.33-.8.46-1.11,0l.07-.21c-.24-.17-.12.53-.36.22-.08-.2.07-.27,0-.29-.57,0-1.1-.3-1.73.1,0-.48-.59-.16-.68-.64-.19.15-.31.06-.45.34-1.82-.75-3.84-1.14-5.57-2.27-1.32.24-1.64-1.34-2.67-1.83a.22.22,0,0,1,.06-.07,1.79,1.79,0,0,1-1.14-.77h-.54a12.84,12.84,0,0,1-1.46-3.46,3.75,3.75,0,0,1,.72-3.29,5.18,5.18,0,0,1,1.48-1.21,4.69,4.69,0,0,1,1.57-.5,11.32,11.32,0,0,1,3.63.35c-.05.07-.06.12-.14.11a3.1,3.1,0,0,1,1,.72,4.21,4.21,0,0,0,1,.79l-.06.07a20.32,20.32,0,0,1,3.05,1.55,4.83,4.83,0,0,0,3.27.73,7.45,7.45,0,0,0,4-.34,12.46,12.46,0,0,0,3.51-2.07l.09.15a12.45,12.45,0,0,1,2.56-1.82,21,21,0,0,1,2.68-1.13,11.38,11.38,0,0,1,3,.09,3.52,3.52,0,0,1,2.53,2c0,.78.51,1.28.89,2a1.76,1.76,0,0,1,0,2.17,32,32,0,0,0-2.43,2.86c-.74,1-1.4,2.16-2.22,3.29a31.06,31.06,0,0,0-3.07,2,5.4,5.4,0,0,1-3.43,1.08c-.9,1-2.44-.15-3.56.22l.07.21c-.52-.6-.84,1.07-1.24.11l0-.05c-.27-.48-.41,1.23-.62.65v.25c-.28.1-.06-.28-.29-.36-.08,0,0,.46-.18.33-.1-1-.69.26-.76-.89.15,0-.25-.43.07-.69-.1-.11-.55,0-.5.45s-.19,1,.11,1.37l0-.38a1.64,1.64,0,0,1,.12.46c.39,0,.47.58.76.79v0c.17-.46.45-.21.61-.17l.07.21c.14.43.37-.9.32-.14a25.93,25.93,0,0,1,2.58-.56c.07-.29.67-.11.37-.61a1.15,1.15,0,0,0,1.28.48c0,.06,0,.13,0,.12.69.65.35-.89,1.07-.06-.14-.68.88-.05.85-.92a.94.94,0,0,1,.2.38c.78-.26,1.73-.4,2.39-.68.26-.82,1.46-.44,1.47-1.45.46,0,1.24-.16,1.54-.77v.12c.52-.44,1.17-1,1.16-1.7.68.49.8.19,1.19.18.09-.58.82-1.13,1-1.86.35.19.28-.54.72-.21a29.8,29.8,0,0,1,1.19-3.31,11.32,11.32,0,0,0,.84-3.79l0,0a4.86,4.86,0,0,0-1.58-.49s.11-.08.14,0c-.26-.3,0-.9-.28-1.2a.2.2,0,0,1,.19,0c-.41-.18-.13-1-.78-1l.09-.12-.34-.07c.13-.12.33-.31.4-.15a6.21,6.21,0,0,0-2.27-1.63,5.77,5.77,0,0,0-2.9-.4,10,10,0,0,0-4.74,2.33c0-.06,0-.13,0-.2-.1.21-.17.4-.26.6A.29.29,0,0,1,152,180c-.75.23-1.05,1.08-1.69,1.43,0-.08-.05-.28-.19-.31-.17.7-1-.1-.72.91a.65.65,0,0,1-.17-.32,5.35,5.35,0,0,1-3.8,1.58,2,2,0,0,1-1.8.44,6.27,6.27,0,0,0-2-.17l.07-.17a4,4,0,0,1-2.4-1c-.36-.26-.7-.56-1-.85s-.68-.57-1-.83a8.93,8.93,0,0,0-1.7-1.08l.11-.21c-.78,0-1.24-.42-1.87-.82a1.73,1.73,0,0,0-2.08-.11l.07-.32c-.17.47-.89,0-.64.75l-.28-.18a1.07,1.07,0,0,1-1.08.72,1.13,1.13,0,0,0-1.15.8l-.08-.2c-.11.33-.26.63-.52.68,0,0-.06-.07-.05-.16a1.34,1.34,0,0,0-1,1.09c-.13.52-.1,1.06-.2,1.54l-.34-.19c.29.55-.15,1.4.15,2l-.18,0a3.76,3.76,0,0,0,.29.28l-.34.08A5.67,5.67,0,0,0,127.49,187.54Z" transform="translate(-6.59 -6.58)"/><path class="cls-8" d="M133.67,192.52v0S133.65,192.52,133.67,192.52Z" transform="translate(-6.59 -6.58)"/><path class="cls-8" d="M145.63,197.32a.3.3,0,0,1-.11-.06C145.54,197.33,145.6,197.31,145.63,197.32Z" transform="translate(-6.59 -6.58)"/><polygon class="cls-4" points="137.98 191.1 138.03 191.2 138.13 190.9 137.98 191.1"/><path class="cls-4" d="M145.31,197s0-.14-.05-.19l-.41.86C145.08,198.11,145.16,196.67,145.31,197Z" transform="translate(-6.59 -6.58)"/><path class="cls-4" d="M145.45,197.06c.18.19.23-.21.26-.35C145.67,197,145.38,196.63,145.45,197.06Z" transform="translate(-6.59 -6.58)"/><path class="cls-4" d="M159.59,191.37a.08.08,0,0,0,0,0S159.6,191.4,159.59,191.37Z" transform="translate(-6.59 -6.58)"/><path class="cls-4" d="M161.35,187.63l-.24-.21c.08.91-.94,1.11-1.28,1.8l0-.11c-1.42,1.23-2.48,2.7-4,3.9,0,0,0-.13,0-.18,0,.14,0,.37-.12.4a.22.22,0,0,1,0-.19c-.6-.26-.9.86-1.31.61a.36.36,0,0,0,.09.43c-1.33.78-2.85,1.42-4.31,2.18a.48.48,0,0,1-.16-.37c-1.13,1.14-2.67,1-4,1,0,.23.16.22,0,.46.47.24.77-.61,1.22-.25l0,.22c.31.09,0-.55.33-.31.15.16,0,.27.07.28.62-.16,1.32-.1,1.81-.72.24.43.66-.13,1,.25.11-.22.29-.21.27-.52,2.24-.33,4.22-1.63,6.15-2.78.41-1.31,2-1.13,2.82-2.21a.13.13,0,0,1,.06.07,2.46,2.46,0,0,1,1-1.16l0-.56a6,6,0,0,0,2.87-3.59,6.9,6.9,0,0,0-.49-4.94,8.74,8.74,0,0,0-1.67-2.23,6.16,6.16,0,0,0-2.43-1.46,5,5,0,0,0-2.89,0,4.74,4.74,0,0,0-2.27,1.53c0-.07-.09-.1,0-.18a13.92,13.92,0,0,1-1.17.86,4,4,0,0,0-1,.8l-.05-.07a6,6,0,0,1-2.42,2,28.38,28.38,0,0,0-2.71,1.47,8.73,8.73,0,0,1-3.73-.1,15.06,15.06,0,0,1-3.66-1.49l.1-.15a5.39,5.39,0,0,1-1.31-.83c-.39-.35-.74-.73-1.1-1.11a5.13,5.13,0,0,0-2.78-1.75,3.25,3.25,0,0,0-1.78-.29,4.24,4.24,0,0,0-1.7.65c-1,.65-1.66,1.51-2.56,2.19a1.86,1.86,0,0,0-.91,2c.06.83.31,1.47,0,2.14a3.69,3.69,0,0,0,1.18,3.84,10.81,10.81,0,0,0,3.53,1.91,7.39,7.39,0,0,0,3,1.84,9.89,9.89,0,0,1,3.08,1.65c1.2-.26,2,1.43,3.3,1.47v-.22c.34.74,1.11-.78,1.24.25l-.05,0c.18.53.68-1.13.75-.51l.07-.25c.28,0,0,.29.2.41s.08-.45.23-.29c0,1,.7-.17.64,1-.16,0,.22.47-.15.68.09.13.59.1.57-.39s.27-.95,0-1.37l-.08.38a1.86,1.86,0,0,1-.08-.48c-.36-.08-.37-.63-.61-.87v0c-.22.44-.44.15-.57.07l0-.22c0-.44-.5.81-.31.07a7.39,7.39,0,0,1-2.36-.19c-.17.26-.59-.17-.55.41a1.14,1.14,0,0,0-.8-1c0-.05,0-.11.07-.08-.17-.9-.71.59-.78-.49-.29.64-.6-.44-1.1.25a.86.86,0,0,1,.11-.41,14.59,14.59,0,0,1-1.79-1.12c-.75.31-.93-.83-1.75-.33-.21-.36-.51-1-1.12-1l.11-.06a2.5,2.5,0,0,0-1.75-.57c.4-.74.11-.78.1-1.14-.52,0-1.06-.63-1.64-.78.23-.29-.4-.24,0-.59a2.17,2.17,0,0,1-1.56-1.79,2.24,2.24,0,0,1,.81-2.1l0,0a8.14,8.14,0,0,1-1-1.07c.06,0,.14,0,.11.08,0-.33.66-.28.74-.55a.23.23,0,0,1,.11.14c0-.37.65-.12.58-.63l.11.09V181c.11.14.29.35.18.38a5,5,0,0,1,2.91-1.36,5,5,0,0,1,3.62,1.49l-.2.06.67.14a.26.26,0,0,1-.16.1c.42.74,1.4.81,2,1.3-.05.07-.24.15-.2.29.75-.11.46,1.07,1.24.31a.48.48,0,0,1-.19.31,29.84,29.84,0,0,0,4.91,1.37,4.59,4.59,0,0,1,1.08-.43l1.07-.22a3,3,0,0,0,1.91-1l.06.17c1.33-1.27,3.17-1.73,4.51-3,.63-.41.85-.88,1.49-1.26l.13.19a1.53,1.53,0,0,1,1.68-.73,2.92,2.92,0,0,0,1.86-.15l-.14.3c.29-.46.64.33.82-.48l.13.32a.84.84,0,0,1,1.24.37c.27.4.45.83,1.07,1l-.19.09c.31.09.64.28.62.57,0,0-.08,0-.17,0a1.72,1.72,0,0,0,.48,1.28,2.5,2.5,0,0,1,.66,1.24l-.38,0c.51.38.11,1.21.16,1.78l-.16-.08.16.34-.34-.08A8.52,8.52,0,0,1,161.35,187.63Z" transform="translate(-6.59 -6.58)"/><path class="cls-4" d="M155.58,193a0,0,0,0,1,0,0S155.59,193,155.58,193Z" transform="translate(-6.59 -6.58)"/><path class="cls-4" d="M143.62,194.11l.09.08C143.71,194.12,143.65,194.13,143.62,194.11Z" transform="translate(-6.59 -6.58)"/></g></g></svg>