<svg xmlns="http://www.w3.org/2000/svg" viewBox="0 0 246.93 247.77"><defs><style>.cls-1{fill:none;}.cls-2{fill:#fff;}</style></defs><g id="Layer_2" data-name="Layer 2"><g id="Docs_summary" data-name="Docs summary"><path class="cls-1" d="M123.89,246.48c-22.32,0-44.65,0-67,0-26.27-.05-47.45-16.11-53.71-41a59.26,59.26,0,0,1-1.68-14.24Q1.34,124,1.47,56.72c0-27.14,17.2-48.52,43.45-54.15A58.36,58.36,0,0,1,57.1,1.48q66.84-.12,133.7,0c27.36,0,48.75,17,54.43,43.41a57.33,57.33,0,0,1,1.12,11.92q.1,67.14,0,134.29c0,25.42-14.94,46-38.71,53a63.18,63.18,0,0,1-17.06,2.3C168.37,246.64,146.13,246.48,123.89,246.48Zm0-17.24c22.77,0,45.54.07,68.31,0a36.59,36.59,0,0,0,36.89-36.95q.11-68.34,0-136.69a36.54,36.54,0,0,0-36.92-36.9q-68.33-.11-136.63,0A36.56,36.56,0,0,0,18.7,55.63q-.09,68.34,0,136.69a36.65,36.65,0,0,0,36.91,36.91C78.39,229.3,101.17,229.25,123.94,229.24Z" transform="translate(-0.84 -0.72)"/><polygon class="cls-2" points="123.09 226.63 122.73 226.53 121.77 226.82 123.09 226.63"/><path class="cls-2" d="M117.66,228c.19.06.1.14.29.2l3.68-.84C120,226.88,118.75,228.32,117.66,228Z" transform="translate(-0.84 -0.72)"/><path class="cls-2" d="M116.58,227.92a3.65,3.65,0,0,0-2.36.33C114.72,227.94,116.89,228.34,116.58,227.92Z" transform="translate(-0.84 -0.72)"/><path class="cls-2" d="M19.84,185.52a3.4,3.4,0,0,0,0,.45A1.29,1.29,0,0,0,19.84,185.52Z" transform="translate(-0.84 -0.72)"/><path class="cls-2" d="M18.5,152.7l-.32-.34c.56,6.12,0,13,.24,19.51l-.11-.44c0,4.11,0,8.14,0,12.13q0,3,.07,5.95c0,2,0,4,.21,5.93a37.66,37.66,0,0,0,9.63,21.43c-.2-.17-.31-.18-.51-.36.57.56,1.36,1,1.93,1.66.11.21-.27-.08-.49-.26a13.16,13.16,0,0,0,.89,1.12c.36.38.77.74,1.2,1.12s.87.77,1.36,1.12,1,.67,1.47,1c2,1.3,3.95,2.26,4.83,2.89.89.38,1.35.37.95,0A37.87,37.87,0,0,0,49,228a52.62,52.62,0,0,0,9.76.49c6.63-.09,13.3-.22,19.8-.42.62.07.74.21.56.39,11.12-.84,22.76-.5,34.13-.36.44-.22-1.16-.23,0-.46-3.65-.28-6.69.54-10,.13l.43-.21c-2.41-.14-.49.54-3,.26-1-.18.24-.27-.22-.29-5.12.09-10.47-.1-15.3.41-1.19-.46-5.51,0-7.4-.46a13.93,13.93,0,0,0-3.16.45q-6.73-.1-13.53-.08H57.6c-1.14,0-2.27,0-3.35-.05l-1.65-.06c-.54,0-1.09-.12-1.63-.18l-1.64-.21L47.72,227a35.49,35.49,0,0,1-12.17-5,34.59,34.59,0,0,1-9.4-9.32,27.78,27.78,0,0,1-5.68-12.25,33.43,33.43,0,0,1-.69-7.26c0-2.5,0-5.08,0-7.63,0-.07.07,0,.09,0-.22-3.32-.33-8.17-.22-12.15L19.24,170c.78-23.91.23-48.33.55-72.61.11-13.8.33-26.73.37-39.58,0-.8,0-1.62,0-2.4l.11-2.32L20.35,52l.17-1.15.33-2.29c.16-.76.36-1.5.54-2.26l.27-1.12c.1-.38.25-.74.37-1.1l.76-2.2c.29-.72.64-1.42,1-2.13l.48-1.07c.17-.35.38-.68.57-1l1.17-2,1.37-1.94c.23-.32.44-.65.69-1l.77-.91a36.41,36.41,0,0,1,7.1-6.56c0,.09.23,0-.33.4a33.12,33.12,0,0,1,9.9-4.54l2.58-.63c.87-.17,1.75-.26,2.62-.4.44-.06.87-.15,1.31-.19l1.32-.08c.89,0,1.76-.13,2.67-.16l0,.09c18.12-.74,37.71.1,55.18-.7,21.26.08,45.3,0,67.81-.23l-.05.17q6.75-.13,13.41-.07a37,37,0,0,1,32.14,19.62,40,40,0,0,1,3.94,13.17c.11,1.16.16,2.32.25,3.49s.06,2.37.1,3.55q.09,3.56.17,7.13c.24,9.52.46,19.06.19,28.38-.87,11.53,1,26.68.1,37.51-.69,11.13-.81,22.08-.66,33q.12,8.22.4,16.46c.09,2.75.19,5.51.28,8.27,0,1.38.14,2.76.09,4.16l0,2.09c0,.71-.13,1.4-.19,2.1a40.42,40.42,0,0,1-5.36,14.43,37.13,37.13,0,0,1-10.55,11.14A36.13,36.13,0,0,1,199,229.13a41.29,41.29,0,0,1-7.59.52c-2.5-.06-5-.15-7.48-.27-9.42.64-19.82-.79-30.3-.6l.37.22c-3.76-.67-8.38.94-10.73-.05l.4,0c-2-.51-4.63,1.19-5.84.59l-.32.25c-2.41.07-.29-.28-2.15-.38-.7,0-.26.45-1.72.31-.32-1-5.91.22-6.08-.92,1.32,0-2.06-.45.9-.69-.84-.12-4.89-.06-4.52.43-.35.52-1.93,1,.53,1.37l.49-.38c.83.38.63.19.93.47,3.21.05,3.64.6,5.94.82,0,0-.05,0,0,0a16.6,16.6,0,0,1,5-.12l.5.21c.76.44,3.65-.86,2.68-.1,6.52-.19,14-.19,21.29-.2,1-.28,5.58,0,4-.52,1.83.62,7.25.78,9.27.76-.08.06-.16.12-.48.1,3.91.81,4.63-.76,8.3.24.57-.7,6.65.22,8.72-.61.45.16.6.3.44.43a41.15,41.15,0,0,0,19.64-4.52c1-.8,2.19-1.49,3.34-2.35a43.76,43.76,0,0,0,3.47-2.7l1.62-1.45c.51-.5,1-1.05,1.4-1.56s.85-1,1.2-1.52a16.81,16.81,0,0,0,.83-1.53,20.5,20.5,0,0,0,1.83-2.4,28.54,28.54,0,0,0,3.44-6.54,20.12,20.12,0,0,0,1.05-3.68l0,.5.51-2.09c.08-.36.19-.72.24-1.09l.16-1.11c.1-.74.19-1.49.29-2.23s.07-1.49.1-2.21l0-2.13c0-.67-.07-1.31-.1-1.93-.08-1.22-.19-2.33-.32-3.25.82-1.58.65-3.89.91-6.2-.38-3.57-.26-10.78-.61-16.23.38-.84-.16-4.5.39-4.78-1.06-15.27-.69-34.15.11-50.45l0,.24c-.3-2.12-1-4.56-1.35-6.71.05-.21.14-.19.13.26-.1-3,.44-5.76.34-8.73.09,0,.09,0,.18.5-.25-2.79.43-5.77,0-9.06l.14-.19-.2-2.09c.18,0,.45.13.4,1.25,0-6.39,0-12.83-.05-19.31q0-4.86-.11-9.75a40.74,40.74,0,0,0-1.4-10,38,38,0,0,0-10.1-17.3,41.34,41.34,0,0,0-3.87-3.25c-.69-.48-1.34-1-2.06-1.45L211,22.59a38.36,38.36,0,0,0-9.37-3.67l1,.08L200,18.51l-2.6-.24c0-.09.29-.1.55-.1a26.85,26.85,0,0,0-5-.53c-1.68-.07-3.3,0-5,0-3.28.08-6.54.19-9.7.15,0-.09,1-.26.1-.36-4.67.49-7.51-.64-9.85.38-.22-.05-.37-.28.11-.36-13,.34-26.38.32-39.49.15-10.91.93-23.12.09-34.46.83l.06-.19c-7.34.33-14.91.32-22.54.24l-11.48-.13c-1.91,0-3.82-.06-5.74,0l-2.88.15c-1,.06-1.91.27-2.86.4l-1.16.16c-.37.07-.74.18-1.1.26l-2.09.54c-1.34.38-2.57.93-3.82,1.38s-2.41,1.16-3.64,1.83l-1.83,1.14-1,.59-.94.71-.26-.09A48.16,48.16,0,0,0,22.63,38.08a30.6,30.6,0,0,0-4.1,16.46l-.28-.79a8.45,8.45,0,0,1,.11,1.79v2.17c0,1.39.05,2.48.46,2.15l-.25,2c1.1,7.57-.5,13.78.21,23.07l-.2-.61a51.6,51.6,0,0,1,.1,7.17,4.52,4.52,0,0,1-.14-.74c-.78,7.73.08,16.34.05,24.5l-.37-.93c.44,3.94,0,11.18.23,16.36l-.17-.32.25,2.63-.35.06C18.15,139.77,18.46,146.12,18.5,152.7Z" transform="translate(-0.84 -0.72)"/><path class="cls-2" d="M29.17,217.91a.15.15,0,0,1,0-.06C29,217.73,29,217.8,29.17,217.91Z" transform="translate(-0.84 -0.72)"/><path class="cls-2" d="M132.66,230.84l-.83-.07A2.9,2.9,0,0,0,132.66,230.84Z" transform="translate(-0.84 -0.72)"/><polygon class="cls-2" points="123.05 247.66 123.47 247.77 124.56 247.47 123.05 247.66"/><path class="cls-2" d="M131,247.71c-.21-.05-.11-.14-.32-.19l-4.2.85C128.4,248.84,129.8,247.4,131,247.71Z" transform="translate(-0.84 -0.72)"/><path class="cls-2" d="M132.27,247.8a4.58,4.58,0,0,0,2.68-.34C134.38,247.77,131.92,247.37,132.27,247.8Z" transform="translate(-0.84 -0.72)"/><path class="cls-2" d="M247.39,194.11c0,.15,0,.36,0,.51A1.89,1.89,0,0,0,247.39,194.11Z" transform="translate(-0.84 -0.72)"/><path class="cls-2" d="M246.16,156.69l-.32-.39c.57,7,0,14.83.24,22.21L246,178c0,4.68,0,9.26,0,13.8a66.21,66.21,0,0,1-1.45,13.34A58.42,58.42,0,0,1,240,217.82a50.34,50.34,0,0,1-7.7,11.34c.17-.23.17-.36.35-.61a19.16,19.16,0,0,1-1.78,2.32c-.23.14.09-.31.29-.57-.74.65-1.7,1.4-2.66,2.28l-1.48,1.35-1.58,1.29L224,236.48c-.51.37-1,.7-1.49,1a16,16,0,0,1-2.31,1.35c-.94.57-1.27,1-.64.85a52.2,52.2,0,0,1-5,2.49c-.85.37-1.7.77-2.57,1.11l-2.67.93a51.64,51.64,0,0,1-11.12,2.49,101.43,101.43,0,0,1-11.38.62l-11.21.27c-.72-.07-.85-.22-.65-.39-12.65.86-25.91.54-38.85.43-.5.22,1.32.23,0,.46,4.17.27,7.62-.55,11.4-.16l-.48.22c2.74.13.55-.54,3.4-.27,1.13.18-.28.27.24.29,5.84-.1,11.93.09,17.42-.44,1.37.46,6.28,0,8.44.44a17.15,17.15,0,0,0,3.59-.45l7.69.05c2.54,0,5.17,0,7.79-.2a54.22,54.22,0,0,0,15.5-3.26,54.8,54.8,0,0,0,25.4-18.73,86.66,86.66,0,0,0,7.29-14.38,52,52,0,0,0,3.48-17.12c0-.08.07-.06.09,0,0-1,0-2,0-3.18s-.06-2.31-.09-3.51c0-2.42,0-4.93,0-7.2l-.38-3.83c.77-27.21.22-55,.54-82.65.07-7.85.14-15.46.2-22.93,0-3.74.07-7.44.1-11.13a79,79,0,0,0-.42-11.16A57.65,57.65,0,0,0,240,27.37a49.65,49.65,0,0,0-15.71-16.45c.08,0-.09-.23.58.21-1.8-1.35-3.74-2.39-5.58-3.52-.95-.52-1.93-1-2.87-1.45L215,5.45c-.48-.22-1-.4-1.47-.6l-2.94-1.16c-1-.33-2-.61-3-.91a50.62,50.62,0,0,0-6.15-1.35l0-.08A108.48,108.48,0,0,0,185.59.76l-16,0c-10.64,0-21.19,0-31.13.38-24.2-.07-51.57,0-77.19.25l.06-.18c-5.11.09-10.24,0-15.25.94A64.16,64.16,0,0,0,31.65,6.73,55.62,55.62,0,0,0,18.89,15,48.53,48.53,0,0,0,9.11,26.81,49.23,49.23,0,0,0,2.83,41.59a64.15,64.15,0,0,0-1.6,16.18c.24,10.84.47,21.7.2,32.3-.87,13.13,1,30.37.11,42.7C.86,145.43.75,157.91.9,170.38c.08,6.24.23,12.48.41,18.74a57.52,57.52,0,0,0,2.92,18.54,50.27,50.27,0,0,0,19.48,27.88c9.38,6.69,20.66,10.08,31.9,10.73,10.72-.53,22.56.82,34.49.67l-.43-.23c4.28.68,9.54-.93,12.22.06l-.46,0c2.27.51,5.27-1.19,6.65-.59l.37-.25c2.74-.07.32.29,2.44.39.79,0,.3-.46,2-.32.36,1,6.73-.22,6.92.93-1.51,0,2.35.45-1,.69,1,.11,5.56.06,5.14-.43.4-.52,2.19-1-.6-1.37l-.56.38c-.94-.38-.72-.19-1.06-.47-3.65-.05-4.14-.6-6.76-.83,0,0,.06,0,0,0a20.65,20.65,0,0,1-5.68.12l-.57-.21c-.86-.44-4.15.86-3,.11-7.43.18-15.94.17-24.24.18-1.16.29-6.35,0-4.54.52-2.08-.62-8.25-.78-10.54-.76.08-.06.18-.13.54-.1-4.45-.82-5.27.75-9.44-.25-.34.38-2.17.22-4.23.11-1,0-2.09-.22-3-.28a8.56,8.56,0,0,0-2.43.06c-.47-.23-.6-.42-.41-.5l-2.7-.56-1.37-.29-1.35-.39-2.69-.82c-.88-.29-1.73-.67-2.59-1a57,57,0,0,1-9.12-4.67A35.17,35.17,0,0,1,23.84,234c-1.19-.92-2.37-2-3.54-3s-2.17-2.15-3.17-3.15a25.75,25.75,0,0,0-2.79-2.7c-1-1.59-2.44-3.59-3.65-5.94-.32-.57-.67-1.15-1-1.74l-.89-1.83-.93-1.81c-.3-.61-.55-1.23-.83-1.82l.28.43a68.82,68.82,0,0,1-2.95-8.87c-.75-3-1.21-5.85-1.62-7.87.67-1.83.47-4.32.75-7-.38-4.07-.27-12.27-.62-18.47.38-1-.16-5.12.39-5.44-1.07-17.38-.7-38.87.09-57.43l0,.27c-.31-2.41-1-5.18-1.36-7.63,0-.24.14-.22.14.3-.11-3.39.43-6.56.33-10,.09,0,.09,0,.18.58-.25-3.18.43-6.56,0-10.32l.15-.2-.2-2.39c.18.06.45.15.39,1.42,0-7.27,0-14.6,0-22,0-1.84.1-3.61.14-5.42s.36-3.6.6-5.39a57.13,57.13,0,0,1,2.74-10.5A49.94,49.94,0,0,1,18.11,17.9,51.14,51.14,0,0,1,36.48,6.07a8.87,8.87,0,0,0-.94.55c.84-.43,1.74-.74,2.62-1.11s1.75-.76,2.66-1c0,.1-.26.2-.51.32,1.78-.38,3.55-.84,5.33-1.25s3.6-.63,5.42-.82a98.33,98.33,0,0,1,11-.38c0,.09-1.12.26-.11.36,5.32-.49,8.55.64,11.21-.38.25,0,.42.27-.12.36,14.81-.35,30-.33,44.94-.17,12.43-.93,26.32-.1,39.23-.84l-.07.19c8.36-.33,17-.32,25.66-.24l6.52.06c1.09,0,2.18,0,3.26.1l3.25.16,3.23.41,1.61.2,1.59.32,3.18.65,3.1.89A62,62,0,0,1,217.37,8,50.07,50.07,0,0,1,225.53,13v.28a40.72,40.72,0,0,1,12.44,14,85.17,85.17,0,0,1,7.08,17.79c-.16-.26-.34-.52-.52-.77a14.41,14.41,0,0,1,1,4.33c.2,1.55.33,2.78.71,2.37,0,.76-.06,1.51-.1,2.26a37.23,37.23,0,0,1,.48,6.24c0,2-.06,4.07-.15,6.15a119.76,119.76,0,0,0,0,13.86l-.2-.69a66.82,66.82,0,0,1,.1,8.16,5.8,5.8,0,0,1-.14-.84c-.78,8.8.09,18.6.06,27.88l-.37-1c.43,4.49,0,12.72.23,18.62l-.17-.36.24,3-.34.07C245.81,142,246.12,149.2,246.16,156.69Z" transform="translate(-0.84 -0.72)"/><path class="cls-2" d="M231.2,230.3a.15.15,0,0,1,.06-.05C231.4,230.06,231.32,230.14,231.2,230.3Z" transform="translate(-0.84 -0.72)"/><path class="cls-2" d="M114,244.88l.94.07A4.29,4.29,0,0,0,114,244.88Z" transform="translate(-0.84 -0.72)"/><polygon class="cls-2" points="147.28 82.61 147.38 82.47 147.07 82.16 147.28 82.61"/><path class="cls-2" d="M147.24,81.29c0,.07-.13.06-.17.13a10.64,10.64,0,0,1,1,1.1C148.49,81.88,147,81.67,147.24,81.29Z" transform="translate(-0.84 -0.72)"/><path class="cls-2" d="M147.25,80.92c.09-.52-.37-.59-.53-.65C147.08,80.33,146.86,81.12,147.25,80.92Z" transform="translate(-0.84 -0.72)"/><path class="cls-2" d="M123.88,93.35a.59.59,0,0,0,0-.13A.17.17,0,0,0,123.88,93.35Z" transform="translate(-0.84 -0.72)"/><path class="cls-2" d="M122.14,102.84l.26.2c0-1.87,1.21-3.6,1.57-5.47l.07.16c1.63-4.5,2.52-8.85,3.79-13.43,0,.08.09.13.1.21a1.52,1.52,0,0,1,0-.79c.08,0,.11.12.12.2.81-.78.61-2.89,1.19-3.36,0-.28-.1-.48-.32-.39a10.27,10.27,0,0,1,3.45-4.93,9.89,9.89,0,0,1,6-2.1.28.28,0,0,1,.15.41,7,7,0,0,1,5.25,1.65,9.67,9.67,0,0,1,3.07,4.7c.26.07.1-.45.44-.16a3,3,0,0,0-.82-1.55,3.85,3.85,0,0,1-.92-1.37h.26c-.41-.75-.51.18-.86-.63-.09-.37.26-.12.17-.25-1.23-1.24-2.82-2.46-4.57-2.47-.24-.62-1.79-.48-2.42-.92-.48.15-.95.12-1.1.45a9.4,9.4,0,0,0-7.58,4.49,14.4,14.4,0,0,0-1.64,4c-.39,1.28-.79,2.56-1.22,3.82.06,2.66-1.91,5.17-2.56,8.08a.08.08,0,0,1-.09,0,12.15,12.15,0,0,1-.91,3.43l0,1c-2.94,6.35-4.66,13.27-7.2,19.88-2.75,7.55-5.59,14-6.93,21.81-.08,0-.15,0-.12-.19-.54,2.2-1.5,4-2,6.12l-.08,0c-1,5.23-3.57,10.38-4.41,15.46a11.5,11.5,0,0,0-.84,4.79,8.93,8.93,0,0,0,1.8,4.74,8.51,8.51,0,0,0,4.18,2.92,8.66,8.66,0,0,0,5,0l0,.17a10.58,10.58,0,0,0,6-5,35.81,35.81,0,0,0,1.5-3.61c.45-1.22.86-2.44,1.21-3.71,2.08-5,2.53-10.82,4.76-15.79,1.89-2.91,1.5-7.69,3.36-10.39,3.34-5.71,4.49-11.95,5.76-18.36,2.36-5.51,3-11.57,5.83-16.74.26-2.8,2.57-5.22,3.36-8.18l-.24,0c1-.83-.12-2.61,1-3V89c.67-.39-.7-1.66,0-1.8l-.2-.17c.15-.69.29,0,.56-.47,0-.2-.41-.22-.14-.57,1,.21.21-1.68,1.32-1.49-.08.39.56-.51.62.4.17-.25.34-1.37-.16-1.36-.48-.21-.81-.77-1.37-.15l.34.22c-.42.17-.22.15-.51.18-.23.9-.79.9-1.16,1.42h0c.33.5-.13,1-.31,1.34l-.24.07c-.49.07.48,1.28-.15.78-.42,1.86-1.12,3.92-1.78,5.94.18.37-.54,1.53.13,1.26-.76.31-1.41,1.76-1.58,2.32,0,0-.1-.08-.05-.16-1.13.82.29,1.51-1,2.21.61.38-.83,1.77-.23,2.6a.42.42,0,0,1-.44,0c-.63,1.81-1.54,3.74-2.08,5.27.15,1.52-1.33,3.1-.9,4.5a9.89,9.89,0,0,0-1.43,3.71l-.06-.16a12.87,12.87,0,0,0-.85,4.53c-.92.18-1,.87-1.44,1.43,0,1.1-.74,3.06-.91,4.67-.44.12-.26,1.3-.81,1.2-.4,4.55-2.49,9.65-4.75,13.9v-.08c.09.68.49,1.56.66,2.28-.06,0-.15,0-.1-.12-.18.86-1,1.46-1.12,2.31-.09,0-.09,0-.13-.2,0,.85-.94,1.46-.84,2.5h-.16v.64c-.16-.07-.42-.18-.26-.47-1.26,3.5-2.27,7.15-3.29,10.82-.51,1.84-1,3.68-1.56,5.52l-.84,2.74a9,9,0,0,1-1.07,2.4l0-.3a8.52,8.52,0,0,1-.51,1.26.21.21,0,0,1-.05-.21c-.65.56-1.22,1.16-1.88,1.68a5.31,5.31,0,0,1-2.23,1.13c0-.09.18-.31-.06-.36a1.6,1.6,0,0,1-1.42.19.86.86,0,0,0-1.05.36.3.3,0,0,1,.06-.36,6.56,6.56,0,0,1-4.57-1.82,7.15,7.15,0,0,1-2.12-4.53,6.06,6.06,0,0,1,.15-4.57,22.91,22.91,0,0,0,1.28-4.91l.17.07c.73-4.25,2.82-8.34,4.1-12.58.65-1.72.83-3,1.41-4.73l.23,0c.15-3.23,2.81-6,2.92-9.34l.23.31c-.3-.63.78-1.81-.07-1.89l.42-.46c-.34-2.44,1.75-3.65,1.93-6.44l.13.23a4.5,4.5,0,0,1,.57-2c0,.09.07.07.06.25,1.46-1.89,1.43-4.54,2.21-6.79l.26.38c0-1.23,1-3.1,1.29-4.59l.13.14v-.8l.34.09C121.27,106.52,121.57,104.67,122.14,102.84Z" transform="translate(-0.84 -0.72)"/><path class="cls-2" d="M128,83.92l0,0C128,84,128,84,128,83.92Z" transform="translate(-0.84 -0.72)"/><path class="cls-2" d="M144.13,85.38a1.27,1.27,0,0,1,.13-.19C144.18,85.19,144.16,85.32,144.13,85.38Z" transform="translate(-0.84 -0.72)"/><polygon class="cls-2" points="68.37 124.54 68.51 124.54 68.47 124.16 68.37 124.54"/><path class="cls-2" d="M69.86,123.62c-.07,0-.12-.08-.19-.08l0,1.28C70.25,124.84,69.44,123.61,69.86,123.62Z" transform="translate(-0.84 -0.72)"/><path class="cls-2" d="M70.12,123.48c.39-.13.22-.52.18-.68C70.43,123.11,69.76,123.24,70.12,123.48Z" transform="translate(-0.84 -0.72)"/><path class="cls-2" d="M92.37,98.57a.57.57,0,0,0,0,.13C92.39,98.64,92.39,98.59,92.37,98.57Z" transform="translate(-0.84 -0.72)"/><path class="cls-2" d="M88.72,90.59l-.28.17a3.46,3.46,0,0,1,1.67,1.74A19.94,19.94,0,0,1,91,94.83l-.13-.09a9.63,9.63,0,0,1-.71,5.9,10.51,10.51,0,0,1-1.71,2.56l-2.07,2.4c0-.07,0-.15,0-.23-.07.22-.09.53-.27.67s-.06-.15,0-.22c-1,.27-1.64,2.11-2.32,2.23-.14.22-.07.45.15.47-2.27,2.46-4.73,5.07-6.85,7.78-.17.06-.29,0-.39-.17-1.45,2.66-3.86,4.59-6,6.61.08.24.37,0,.33.32.87-.49.86-1.63,1.75-2l.08.23c.54-.36-.29-.48.37-.75.31,0,.14.24.24.17a12.48,12.48,0,0,0,2.54-3.14c.55.1,1-1,1.7-1,.12-.38.4-.59.27-.91,3.5-3.16,6.58-6.89,10-10.28a10.55,10.55,0,0,1,2.38-2.94,7.28,7.28,0,0,0,2-3.89.08.08,0,0,1,.09,0c0-1,0-2.4-.11-3.56-.17-.3-.38-.59-.57-.86a8.59,8.59,0,0,0-7-6.91,9.89,9.89,0,0,0-2.66-.1,10.75,10.75,0,0,0-2.57.64,11.11,11.11,0,0,0-2.32,1.27,18.32,18.32,0,0,0-1.94,1.64c-5.28,5-10.23,9-14.38,14.82-.05-.07-.13-.06,0-.21-1.31,1.56-2.86,2.65-4.08,4.14l-.06-.07a45.53,45.53,0,0,1-4.93,5.4c-.87.86-1.74,1.72-2.56,2.61a7.72,7.72,0,0,0-1.82,3.21,8,8,0,0,0-.7,4.36,8.71,8.71,0,0,0,1.8,4.21,38,38,0,0,0,3.2,3.26L55,135.49l-.14.12c3.61,3.08,6.17,7,9.71,10.11,3.14,3.72,7.77,6.34,10.85,10.18A6.27,6.27,0,0,0,77,157.76,7,7,0,0,0,79.27,159a12.46,12.46,0,0,0,2.45.48c.79.1,1.53.16,2.26.3a7.16,7.16,0,0,0,7.26-4.59,7.75,7.75,0,0,0,.39-4.48,8.53,8.53,0,0,0-1.94-3.85,11.71,11.71,0,0,0-2.55-3c-1-.93-2-1.82-3-2.72a34.48,34.48,0,0,1-5.38-5.83c-2.2-1.31-3.11-4.24-5.18-6.06l-.09.22c-.22-1.17-2.22-.89-2-2l.11,0c0-.73-1.71,0-1.5-.67l-.24.12c-.5-.4.15-.26-.13-.67-.14-.12-.37.27-.53-.12.67-.77-1.23-1-.43-1.8.24.25,0-.7.65-.31-.06-.24-.82-1-1.11-.56s-1,.3-.9,1l.36-.16c-.12.42,0,.25-.17.5.54.65.23,1.11.49,1.72,0,0,0,0,0,0,.61,0,.82.6,1,.87l0,.24c-.17.45,1.28.07.57.42,1.34,1.08,2.72,2.48,4.08,3.83.39,0,1,1,1.11.37-.11.78.78,1.9,1.17,2.26,0,0-.12.06-.16,0,.15,1.3,1.4.33,1.37,1.71.6-.38,1.07,1.4,2,1.2a.46.46,0,0,1-.22.38c1.21,1.24,2.38,2.77,3.39,3.83,1.32.45,1.94,2.34,3.31,2.5a15.53,15.53,0,0,0,1,1.38,5.42,5.42,0,0,0,.65.71,3,3,0,0,0,.65.51h-.14c.83.84,1.46,2.09,2.17,2.77-.69.55-.44,1-.66,1.47.45.71.23,2.23,0,3.41-.39,0-.33.95-.83.7a5.1,5.1,0,0,1-4,3.49,5.82,5.82,0,0,1-5.2-1.63h.06c-.27,0-.6.09-1,.12a3.83,3.83,0,0,1-1.06,0c0-.07,0-.13.13-.05-.6-.39-.75-1.36-1.37-1.82.07-.06.07-.06.22,0-.69-.34-.76-1.38-1.67-1.69l.06-.14-.53-.24c.14-.12.35-.3.51-.05-4.61-4.87-10.17-9.11-15-14.07l.3,0L59,138.29a.22.22,0,0,1,.22,0c-1-1.42-2.59-2.31-3.71-3.54.07-.06.37,0,.27-.24-1.21-.52-.93-1.84-2.1-1.56,0-.07.13-.26.28-.23a50.33,50.33,0,0,1-3.81-3.46,7.33,7.33,0,0,1-2-4.08,3.69,3.69,0,0,1-.49-1.94,5.92,5.92,0,0,1,.46-2,25.82,25.82,0,0,1,2.29-3.73l.12.14c2.27-3.18,5.65-5.59,8.38-8.5,1.23-1.12,1.86-2.07,3-3.26l.2.13c1.36-2.6,4.72-3.61,6.11-6.36l.08.36c0-.66,1.37-1.13.66-1.6l.54-.18c.63-2.19,2.92-2.2,4.14-4.43l0,.25a3.63,3.63,0,0,1,1.26-1.4c0,.08,0,.09,0,.24a7.15,7.15,0,0,0,2.43-2,6.89,6.89,0,0,1,2.49-2c0,.14,0,.29-.07.44a3.13,3.13,0,0,1,1.78-.77,21.8,21.8,0,0,1,2.19-.15l-.09.17a4,4,0,0,1,.68-.17l0,.35A8.42,8.42,0,0,1,88.72,90.59Z" transform="translate(-0.84 -0.72)"/><path class="cls-2" d="M86.07,105.82h0C86.11,105.75,86.09,105.78,86.07,105.82Z" transform="translate(-0.84 -0.72)"/><path class="cls-2" d="M68.27,126.74a1.31,1.31,0,0,1-.1-.21C68.13,126.59,68.23,126.68,68.27,126.74Z" transform="translate(-0.84 -0.72)"/><polygon class="cls-2" points="177.78 121.94 177.64 121.94 177.69 122.32 177.78 121.94"/><path class="cls-2" d="M178,124.29c.07,0,.12.09.19.09l0-1.28C177.59,123.08,178.41,124.31,178,124.29Z" transform="translate(-0.84 -0.72)"/><path class="cls-2" d="M177.74,124.44c-.4.13-.22.52-.19.68C177.43,124.81,178.1,124.68,177.74,124.44Z" transform="translate(-0.84 -0.72)"/><path class="cls-2" d="M155.46,149.36v-.14A.14.14,0,0,0,155.46,149.36Z" transform="translate(-0.84 -0.72)"/><path class="cls-2" d="M159.12,157.33l.29-.17a3.5,3.5,0,0,1-1.67-1.74c-.37-.76-.61-1.56-.9-2.33l.14.08a9.56,9.56,0,0,1,.68-5.9,10,10,0,0,1,1.73-2.54l2.08-2.4c0,.07,0,.15,0,.23.07-.23.09-.53.27-.68.09,0,.06.15,0,.23,1-.28,1.64-2.12,2.32-2.24.15-.21.07-.45-.15-.46,2.27-2.47,4.74-5.08,6.86-7.79a.3.3,0,0,1,.38.17c1.46-2.66,3.86-4.59,6.07-6.61-.08-.24-.38,0-.34-.32-.87.48-.86,1.63-1.76,2l-.07-.23c-.54.35.29.47-.37.74-.31.06-.15-.23-.24-.16a12.74,12.74,0,0,0-2.55,3.14c-.55-.1-1,1-1.7,1.05-.11.38-.39.6-.27.91-3.5,3.16-6.58,6.89-10,10.29a5.39,5.39,0,0,1-1,1.5c-.21.23-.43.44-.66.67s-.5.48-.74.75a7.15,7.15,0,0,0-2,3.9.08.08,0,0,1-.08,0c0,1,0,2.4.13,3.55a8.54,8.54,0,0,0,.57.86,8.17,8.17,0,0,0,2.34,4.5,9,9,0,0,0,4.64,2.42,10.23,10.23,0,0,0,2.65.11,10.88,10.88,0,0,0,2.59-.62,10.55,10.55,0,0,0,2.32-1.3c.36-.25.7-.57,1-.84l.88-.81c5.29-5,10.24-9,14.39-14.83,0,.07.13.06,0,.21,1.31-1.56,2.85-2.65,4.07-4.14l.06.07a44.85,44.85,0,0,1,4.94-5.4c.87-.87,1.74-1.73,2.56-2.61a7.64,7.64,0,0,0,1.83-3.2,8,8,0,0,0,.7-4.36,8.52,8.52,0,0,0-1.8-4.22,41.08,41.08,0,0,0-3.21-3.25l-3.28-3.07.13-.12c-3.61-3.08-6.17-7-9.71-10.12-3.15-3.72-7.78-6.33-10.86-10.18a7,7,0,0,0-1.56-1.86,6.55,6.55,0,0,0-2.31-1.24,35.34,35.34,0,0,0-4.71-.75,7.18,7.18,0,0,0-7.27,4.59,7.75,7.75,0,0,0-.41,4.48,8.4,8.4,0,0,0,1.92,3.85,13.09,13.09,0,0,0,2.59,3c1,.93,2,1.82,3,2.73a33.73,33.73,0,0,1,5.38,5.83c2.2,1.3,3.11,4.24,5.19,6.06l.08-.22c.23,1.17,2.22.89,2,2l-.1,0c0,.73,1.7,0,1.5.67l.23-.11c.5.39-.14.25.13.66.15.11.37-.27.54.11-.67.78,1.22,1,.43,1.81-.24-.25,0,.7-.66.3.07.24.82,1,1.12.57s1-.3.9-1l-.37.16c.13-.42,0-.25.18-.5-.55-.65-.23-1.12-.49-1.72t0,0c-.6,0-.81-.6-1-.87l.06-.24c.17-.45-1.29-.07-.57-.42a53,53,0,0,1-4.08-3.83c-.4,0-1-1.06-1.12-.37.11-.79-.78-1.91-1.17-2.26,0,0,.12-.06.16,0-.14-1.3-1.39-.33-1.36-1.71-.61.39-1.08-1.39-2-1.2a.47.47,0,0,1,.22-.38c-1.21-1.23-2.38-2.77-3.39-3.83-1.32-.45-1.94-2.34-3.31-2.5a15.53,15.53,0,0,0-1-1.38,5.27,5.27,0,0,0-1.33-1.24h.15a13.44,13.44,0,0,1-1.15-1.42,8.21,8.21,0,0,0-1-1.32c.7-.55.45-1,.68-1.46-.45-.71-.22-2.23,0-3.42.39,0,.33-1,.82-.7a5.12,5.12,0,0,1,4-3.5A5.7,5.7,0,0,1,168.43,91h-.06a9.66,9.66,0,0,1,2-.14c0,.07-.06.13-.14,0,.62.44.76,1.37,1.38,1.84-.07.06-.07.06-.22,0,.69.35.77,1.39,1.68,1.7l-.07.13.53.25c-.14.12-.34.3-.51,0,4.62,4.87,10.18,9.1,15,14.07l-.3-.06,1.16.73a.22.22,0,0,1-.22,0c1,1.42,2.6,2.31,3.72,3.54-.07,0-.37,0-.28.23,1.22.53.94,1.85,2.1,1.56,0,.08-.13.27-.28.24a50.43,50.43,0,0,1,3.83,3.46,7.21,7.21,0,0,1,2,4.07,3.69,3.69,0,0,1,.49,1.94,5.87,5.87,0,0,1-.46,2,25.56,25.56,0,0,1-2.3,3.73l-.12-.14c-2.27,3.18-5.65,5.58-8.39,8.5-1.22,1.12-1.86,2.07-3,3.26l-.19-.13c-1.37,2.6-4.73,3.61-6.12,6.36l-.08-.36c0,.66-1.37,1.13-.66,1.6l-.55.18c-.63,2.19-2.91,2.21-4.13,4.44l0-.26a3.64,3.64,0,0,1-1.27,1.4c0-.07,0-.09,0-.23-2,.84-2.8,3.27-4.88,4l.07-.43a3.09,3.09,0,0,1-1.79.76c-.75.11-1.53.08-2.19.13l.09-.17a5.17,5.17,0,0,1-.68.16l0-.34A8.78,8.78,0,0,1,159.12,157.33Z" transform="translate(-0.84 -0.72)"/><path class="cls-2" d="M161.77,142.11h0C161.73,142.17,161.75,142.15,161.77,142.11Z" transform="translate(-0.84 -0.72)"/><path class="cls-2" d="M179.58,121.17a2,2,0,0,1,.1.21C179.72,121.32,179.62,121.23,179.58,121.17Z" transform="translate(-0.84 -0.72)"/></g></g></svg>