<svg xmlns="http://www.w3.org/2000/svg" viewBox="0 0 912.26 116.79"><defs><style>.cls-1,.cls-2,.cls-3{fill:#212120;}.cls-1,.cls-3{stroke:#212120;stroke-miterlimit:10;}.cls-1{stroke-linecap:round;stroke-width:8.5px;}.cls-3{stroke-linecap:square;stroke-width:11.34px;}.cls-4{fill:#58bb5f;}.cls-5{fill:#fff;}.cls-6{fill:#64bd5e;}.cls-7{fill:#010101;}.cls-8{fill:#f8ee57;}</style></defs><g id="Layer_2" data-name="Layer 2"><g id="Mina_Docusaurus" data-name="Mina Docusaurus"><g id="logo-black"><line class="cls-1" x1="73.65" y1="51.3" x2="73.65" y2="72.65"/><rect class="cls-2" x="34.1" y="0.26" width="77.12" height="50.51" rx="12"/><rect class="cls-2" x="34.1" y="65.8" width="77.12" height="50.51" rx="12"/><line class="cls-3" x1="18.65" y1="31.64" x2="7.5" y2="56.46"/><line class="cls-3" x1="18.65" y1="86.05" x2="7.5" y2="61.24"/><line class="cls-3" x1="126.67" y1="86.05" x2="137.83" y2="61.24"/><line class="cls-3" x1="126.67" y1="31.64" x2="137.83" y2="56.46"/></g><path class="cls-2" d="M180.46,28.46l20,43.8,20.13-43.8h6.12V78.09h-4.59V56.48l.37-22.16L202.31,78.09h-3.55L178.6,34.49,179,56.34V78.09h-4.59V28.46Z"/><path class="cls-2" d="M239.23,30.55a2.59,2.59,0,0,1,.82-1.94,3.1,3.1,0,0,1,2.24-.8,3.15,3.15,0,0,1,2.26.8,2.57,2.57,0,0,1,.84,1.94,2.51,2.51,0,0,1-.84,1.93,3.18,3.18,0,0,1-2.26.78,3.13,3.13,0,0,1-2.24-.78A2.53,2.53,0,0,1,239.23,30.55Zm5.27,47.54H240V41.21h4.48Z"/><path class="cls-2" d="M260.89,41.21l.15,6.3a15.28,15.28,0,0,1,5.67-5.19,15.76,15.76,0,0,1,7.5-1.79q6.51,0,9.67,3.34t3.21,10v24.2h-4.44V53.85c0-3.29-.79-5.74-2.29-7.36s-3.92-2.42-7.23-2.42a12,12,0,0,0-7.33,2.37,13.91,13.91,0,0,0-4.73,6.39V78.09h-4.44V41.21Z"/><path class="cls-2" d="M324.13,78.09a17.84,17.84,0,0,1-.86-5.14,15.37,15.37,0,0,1-6,4.31,19.88,19.88,0,0,1-7.71,1.51,14.37,14.37,0,0,1-9.43-3,9.32,9.32,0,0,1-3.6-7.5,9.66,9.66,0,0,1,4.91-8.52c3.27-2.09,7.84-3.14,13.68-3.14h8.11V52.46a7.72,7.72,0,0,0-2.67-6.22c-1.78-1.52-4.38-2.27-7.79-2.27a13,13,0,0,0-7.73,2.18A6.33,6.33,0,0,0,302,51.4l-4.48,0q0-4.41,4.48-7.62a18.37,18.37,0,0,1,11-3.22q6.75,0,10.66,3.08a10.68,10.68,0,0,1,4,8.61V69.67q0,5.35,1.23,8v.41Zm-14-2.93a16.07,16.07,0,0,0,8-2,12,12,0,0,0,5.14-5.28V59.79h-8q-6.69.06-10.46,2.23C302.28,63.46,301,65.45,301,68a6.37,6.37,0,0,0,2.52,5.15A10.1,10.1,0,0,0,310.09,75.16Z"/><path class="cls-4" d="M358.37,78.09V28.46h15.34a26.57,26.57,0,0,1,12.55,2.86,20.3,20.3,0,0,1,8.42,8.15,24.56,24.56,0,0,1,3,12.13v3.18a24.77,24.77,0,0,1-3,12.3,20,20,0,0,1-8.48,8.12,28.3,28.3,0,0,1-12.82,2.89Zm7.17-44.28V72.74h7.54c5.53,0,9.82-1.57,12.9-4.71s4.61-7.61,4.61-13.41v-2.9q0-8.46-4.35-13.15T373.9,33.81Z"/><path class="cls-4" d="M405.6,59.31a20.3,20.3,0,0,1,2.33-9.75,16.47,16.47,0,0,1,6.5-6.68,18.93,18.93,0,0,1,9.5-2.35q8.25,0,13.35,5.21t5.09,13.88v.44a20.42,20.42,0,0,1-2.25,9.66,16.22,16.22,0,0,1-6.46,6.67A19.22,19.22,0,0,1,424,78.77q-8.21,0-13.3-5.21t-5.1-13.81Zm6.94.75q0,6.14,3.12,9.85a11.19,11.19,0,0,0,16.71,0q3.09-3.77,3.1-10.55a14.79,14.79,0,0,0-3.16-9.84,11.12,11.12,0,0,0-16.63,0Q412.54,53.14,412.54,60.06Z"/><path class="cls-4" d="M467.24,73.63a10.53,10.53,0,0,0,6.46-2,7.06,7.06,0,0,0,3.06-5.11h6.54a10.94,10.94,0,0,1-2.39,6A15.46,15.46,0,0,1,475,77.07a18.2,18.2,0,0,1-7.78,1.7q-8.25,0-13.12-5T449.24,60V58.93a20.64,20.64,0,0,1,2.17-9.58,15.62,15.62,0,0,1,6.22-6.51,19,19,0,0,1,9.57-2.31,17.14,17.14,0,0,1,11.3,3.71,12.86,12.86,0,0,1,4.8,9.65h-6.54a8.38,8.38,0,0,0-3-5.88,9.7,9.7,0,0,0-6.59-2.3,10,10,0,0,0-8.15,3.46q-2.9,3.45-2.9,10v1.2q0,6.38,2.88,9.81T467.24,73.63Z"/><path class="cls-4" d="M516,74.45q-4,4.32-11.83,4.32-6.46,0-9.84-3.42c-2.26-2.29-3.39-5.67-3.42-10.14v-24h6.91V65q0,8.38,7.47,8.38,7.9,0,10.52-5.38V41.21h6.91V78.09h-6.57Z"/><path class="cls-4" d="M556.73,68.31a4.5,4.5,0,0,0-2.11-4q-2.1-1.43-7.35-2.44a37.42,37.42,0,0,1-8.33-2.45A11.78,11.78,0,0,1,534.39,56a7.69,7.69,0,0,1-1.48-4.71q0-4.53,4.2-7.67a17.47,17.47,0,0,1,10.74-3.13q6.87,0,11.14,3.23a10,10,0,0,1,4.28,8.29h-6.95a5.54,5.54,0,0,0-2.4-4.47,9.59,9.59,0,0,0-6.07-1.87,10.1,10.1,0,0,0-5.9,1.5,4.59,4.59,0,0,0-2.13,3.92,3.74,3.74,0,0,0,2,3.44A26.15,26.15,0,0,0,549,56.79a39.27,39.27,0,0,1,8.38,2.52,12,12,0,0,1,4.76,3.53,8.14,8.14,0,0,1,1.55,5,9.19,9.19,0,0,1-4.33,7.92q-4.34,3-11.24,3a22.16,22.16,0,0,1-8.59-1.56,13.91,13.91,0,0,1-5.84-4.38,10,10,0,0,1-2.11-6.09h6.91a6.36,6.36,0,0,0,2.78,5,11.5,11.5,0,0,0,6.85,1.86,12,12,0,0,0,6.29-1.45A4.39,4.39,0,0,0,556.73,68.31Z"/><path class="cls-4" d="M597.58,78.09a12.21,12.21,0,0,1-1-3.88,16.15,16.15,0,0,1-11.5,4.56,15.1,15.1,0,0,1-9.8-3.08,9.63,9.63,0,0,1-3.83-7.82,10.14,10.14,0,0,1,4.8-9q4.8-3.2,13.5-3.19h6.72v-2.9a6.75,6.75,0,0,0-2.17-5.26q-2.16-2-6.38-2a10.73,10.73,0,0,0-6.2,1.71,4.92,4.92,0,0,0-2.5,4.12h-7a8.26,8.26,0,0,1,2.15-5.33A14.51,14.51,0,0,1,580.27,42a21.22,21.22,0,0,1,8.09-1.5q7,0,10.94,3.18a11.09,11.09,0,0,1,4.1,8.78v17a19.26,19.26,0,0,0,1.42,8.08v.54Zm-11.46-4.8a13.08,13.08,0,0,0,6.16-1.54,9.74,9.74,0,0,0,4.22-4V60.2h-5.42q-12.69,0-12.69,6.78a5.54,5.54,0,0,0,2.16,4.64A8.89,8.89,0,0,0,586.12,73.29Z"/><path class="cls-4" d="M639.17,74.45q-4,4.32-11.83,4.32-6.47,0-9.84-3.42c-2.26-2.29-3.39-5.67-3.42-10.14v-24H621V65q0,8.38,7.47,8.38,7.9,0,10.52-5.38V41.21h6.91V78.09h-6.57Z"/><path class="cls-4" d="M675.91,46.87a22.58,22.58,0,0,0-3.4-.24q-6.79,0-9.22,5.28V78.09h-6.91V41.21h6.72l.11,4.26a11,11,0,0,1,9.64-4.94,7.65,7.65,0,0,1,3.06.47Z"/><path class="cls-4" d="M707.2,74.45q-4,4.32-11.84,4.32c-4.31,0-7.58-1.14-9.84-3.42s-3.39-5.67-3.41-10.14v-24H689V65q0,8.38,7.47,8.38,7.92,0,10.53-5.38V41.21h6.91V78.09h-6.57Z"/><path class="cls-4" d="M747.93,68.31a4.5,4.5,0,0,0-2.11-4q-2.12-1.43-7.36-2.44a37.31,37.31,0,0,1-8.32-2.45A11.9,11.9,0,0,1,725.58,56a7.68,7.68,0,0,1-1.47-4.71q0-4.53,4.2-7.67A17.46,17.46,0,0,1,739,40.53q6.87,0,11.15,3.23a10,10,0,0,1,4.27,8.29h-6.94a5.52,5.52,0,0,0-2.41-4.47A9.59,9.59,0,0,0,739,45.71a10.12,10.12,0,0,0-5.9,1.5A4.6,4.6,0,0,0,731,51.13a3.73,3.73,0,0,0,2,3.44,26.06,26.06,0,0,0,7.14,2.22,39.38,39.38,0,0,1,8.39,2.52,12.09,12.09,0,0,1,4.76,3.53,8.14,8.14,0,0,1,1.55,5,9.2,9.2,0,0,1-4.34,7.92q-4.32,3-11.23,3a22.12,22.12,0,0,1-8.59-1.56,13.79,13.79,0,0,1-5.84-4.38,9.94,9.94,0,0,1-2.11-6.09h6.9a6.4,6.4,0,0,0,2.79,5,11.5,11.5,0,0,0,6.85,1.86,12,12,0,0,0,6.29-1.45A4.39,4.39,0,0,0,747.93,68.31Z"/><g id="Layer_1-2" data-name="Layer 1"><path class="cls-5" d="M842.51,24.5h59.18v24H842.51Z"/><path class="cls-4" d="M789,102.7a14.08,14.08,0,0,1-12.19-7A14.08,14.08,0,0,0,789,116.79h14.09V102.7Z"/><path class="cls-4" d="M852.36,28.29l49.33-3.09v-7A14.09,14.09,0,0,0,887.6,4.07H824.19L822.43,1a2,2,0,0,0-3.52,0l-1.76,3.05L815.39,1a2,2,0,0,0-3.52,0L810.1,4.07,808.34,1a2,2,0,0,0-3.52,0l-1.76,3.05h0l-2.92-2.92a2,2,0,0,0-3.4.91l-1,3.6-3.66-1a2,2,0,0,0-2.49,2.49l1,3.66-3.6,1a2,2,0,0,0-.91,3.4L789,18.11v.05l-3.05,1.76a2,2,0,0,0,0,3.52L789,25.2,785.92,27a2,2,0,0,0,0,3.53L789,32.25,785.92,34a2,2,0,0,0,0,3.52L789,39.29l-3.05,1.76a2,2,0,0,0,0,3.53L789,46.34l-3.05,1.76a2,2,0,0,0,0,3.52L789,53.38l-3.05,1.76a2,2,0,0,0,0,3.53L789,60.43l-3.05,1.76a2,2,0,0,0,0,3.52L789,67.47l-3.05,1.77a2,2,0,0,0,0,3.52L789,74.52l-3.05,1.76a2,2,0,0,0,0,3.52L789,81.56l-3.05,1.77a2,2,0,0,0,0,3.52L789,88.61l-3.05,1.76a2,2,0,0,0,0,3.52L789,95.65l-3.05,1.77a2,2,0,0,0,0,3.52L789,102.7a14.09,14.09,0,0,0,14.09,14.09H887.6a14.09,14.09,0,0,0,14.09-14.09V46.34l-49.33-3.08a7.5,7.5,0,0,1,0-15"/><path class="cls-4" d="M873.51,116.79h21.13V88.61H873.51Z"/><path class="cls-6" d="M908.74,99.18a3.42,3.42,0,0,0-.46,0c0-.1,0-.21-.08-.32a3.52,3.52,0,1,0-3.48-6c-.08-.08-.15-.16-.23-.23a3.52,3.52,0,1,0-6-3.49l-.32-.08a3.44,3.44,0,0,0,0-.45,3.53,3.53,0,0,0-7,0,3.44,3.44,0,0,0,0,.45l-.32.08a3.52,3.52,0,1,0-6.05,3.49,14.08,14.08,0,1,0,23.49,13.55,3.14,3.14,0,0,0,.45,0,3.52,3.52,0,0,0,0-7"/><path class="cls-4" d="M880.55,74.52h21.14V60.43H880.55Z"/><path class="cls-6" d="M908.74,69.24a1.77,1.77,0,0,0,0-3.53,1.6,1.6,0,0,0-.23,0c0-.06,0-.11,0-.16a1.76,1.76,0,1,0-1.74-3l-.12-.11a1.78,1.78,0,0,0,.36-1.06,1.76,1.76,0,0,0-3.38-.69,7.45,7.45,0,0,0-1.9-.26,7,7,0,1,0,1.9,13.82,1.76,1.76,0,1,0,3-1.74l.12-.12a1.71,1.71,0,0,0,1.06.37,1.76,1.76,0,0,0,.68-3.39c0-.05,0-.1,0-.16a1.6,1.6,0,0,0,.23,0"/><path class="cls-7" d="M817.15,27a1.76,1.76,0,0,1-1.76-1.76,5.29,5.29,0,0,0-10.57,0,1.76,1.76,0,1,1-3.52,0,8.81,8.81,0,0,1,17.61,0A1.76,1.76,0,0,1,817.15,27"/><path class="cls-8" d="M845.33,116.79H887.6a14.09,14.09,0,0,0,14.09-14.09V53.38H859.42a14.09,14.09,0,0,0-14.09,14.09Z"/><path class="cls-7" d="M891.14,75.22H855.88a.7.7,0,0,1-.7-.7.7.7,0,0,1,.7-.71h35.26a.7.7,0,0,1,.7.71.7.7,0,0,1-.7.7"/><path class="cls-7" d="M891.14,89.31H855.88a.7.7,0,0,1-.7-.7.7.7,0,0,1,.7-.71h35.26a.7.7,0,0,1,.7.71.7.7,0,0,1-.7.7"/><path class="cls-7" d="M891.14,103.4H855.88a.7.7,0,1,1,0-1.4h35.26a.7.7,0,0,1,0,1.4"/><path class="cls-7" d="M891.14,68.31H855.88a.7.7,0,0,1-.7-.71.7.7,0,0,1,.7-.7h35.26a.7.7,0,0,1,.7.7.7.7,0,0,1-.7.71"/><path class="cls-7" d="M891.14,82.27H855.88a.7.7,0,0,1-.7-.71.7.7,0,0,1,.7-.7h35.26a.7.7,0,0,1,.7.7.7.7,0,0,1-.7.71"/><path class="cls-7" d="M891.14,96.36H855.88a.7.7,0,0,1-.7-.71.7.7,0,0,1,.7-.7h35.26a.7.7,0,0,1,.7.7.7.7,0,0,1-.7.71"/><path class="cls-7" d="M901.69,31.27h0c-2.18.07-3.21,2.25-4.12,4.17s-1.68,3.31-2.88,3.27-2.09-1.55-2.9-3.14c-.93-1.83-2-3.9-4.2-3.82s-3.18,2-4.09,3.64-1.63,2.86-2.91,2.81-2.08-1.27-2.91-2.68c-.93-1.58-2-3.35-4.18-3.29s-3.15,1.68-4.06,3.1-1.65,2.42-2.94,2.36-2.1-1.06-2.94-2.24-2-2.81-4.15-2.74-3.1,1.39-4,2.55-1.55,2-3,1.92a.7.7,0,0,0-.73.68.71.71,0,0,0,.68.73c2.12.07,3.2-1.27,4.14-2.46s1.54-2,3-2,2,.79,3,2.15,2,2.75,4,2.83,3.24-1.56,4.17-3c.83-1.29,1.55-2.4,2.93-2.45s2,1,2.92,2.59,1.94,3.3,4.07,3.38,3.27-1.85,4.19-3.55c.81-1.47,1.56-2.86,2.91-2.9s1.92,1.12,2.89,3.05,1.94,3.83,4.11,3.91h.12c2.15,0,3.18-2.16,4.08-4.08.81-1.7,1.57-3.3,2.87-3.36Z"/><path class="cls-4" d="M831.24,116.79h28.18V88.61H831.24Z"/><path class="cls-6" d="M873.51,99.18a3.42,3.42,0,0,0-.45,0c0-.1,0-.21-.08-.32a3.52,3.52,0,1,0-3.48-6l-.24-.23a3.52,3.52,0,1,0-6-3.49l-.31-.08a3.42,3.42,0,0,0,0-.45,3.52,3.52,0,0,0-7,0,3.42,3.42,0,0,0,0,.45l-.31.08a3.52,3.52,0,1,0-6,3.49,14.08,14.08,0,1,0,23.48,13.55,3.42,3.42,0,0,0,.45,0,3.52,3.52,0,0,0,0-7"/><path class="cls-4" d="M831.24,74.52h28.18V60.43H831.24Z"/><path class="cls-6" d="M866.46,69.24a1.77,1.77,0,1,0,0-3.53l-.22,0c0-.06,0-.11,0-.16A1.78,1.78,0,0,0,867.28,64a1.76,1.76,0,0,0-2.82-1.4l-.12-.11a1.76,1.76,0,1,0-3-1.75,7.31,7.31,0,0,0-1.89-.26,7,7,0,1,0,0,14.09,6.9,6.9,0,0,0,1.89-.27,1.76,1.76,0,1,0,3-1.74l.12-.12a1.71,1.71,0,0,0,1.06.37,1.76,1.76,0,0,0,.68-3.39c0-.05,0-.1,0-.16l.22,0"/><path class="cls-7" d="M873.51,17.28a2.21,2.21,0,0,1-.35,0,1.39,1.39,0,0,1-.33-.1,2.19,2.19,0,0,1-.3-.16,2.61,2.61,0,0,1-.27-.22L872,16.5a1.91,1.91,0,0,1-.26-.64,2,2,0,0,1,0-.34,2,2,0,0,1,0-.35,2.07,2.07,0,0,1,.1-.33,1.73,1.73,0,0,1,.16-.3l.22-.27a2.61,2.61,0,0,1,.27-.22,2.19,2.19,0,0,1,.3-.16,2.07,2.07,0,0,1,.33-.1,1.61,1.61,0,0,1,.69,0,1.91,1.91,0,0,1,.34.1,2.19,2.19,0,0,1,.3.16,2.61,2.61,0,0,1,.27.22,2.78,2.78,0,0,1,.21.27,1.78,1.78,0,0,1,.17.3c0,.11.07.22.1.33a2,2,0,0,1,0,.35,1.78,1.78,0,0,1-.51,1.24,2.61,2.61,0,0,1-.27.22,2.19,2.19,0,0,1-.3.16,1.33,1.33,0,0,1-.34.1,2,2,0,0,1-.34,0"/><path class="cls-7" d="M887.6,16.4a1.77,1.77,0,0,1-1.25-.52,3.2,3.2,0,0,1-.22-.27,1.43,1.43,0,0,1-.16-.3,1.8,1.8,0,0,1-.1-.33,2,2,0,0,1,0-.34,1.81,1.81,0,0,1,.51-1.25,2.61,2.61,0,0,1,.27-.22,2.19,2.19,0,0,1,.3-.16,2.07,2.07,0,0,1,.33-.1,1.65,1.65,0,0,1,.7,0,2.07,2.07,0,0,1,.33.1,2.19,2.19,0,0,1,.3.16,2.61,2.61,0,0,1,.27.22,1.81,1.81,0,0,1,.51,1.25,2,2,0,0,1,0,.34,3.18,3.18,0,0,1-.1.33,2.11,2.11,0,0,1-.16.3,3.2,3.2,0,0,1-.22.27,2.61,2.61,0,0,1-.27.22,2.19,2.19,0,0,1-.3.16,1.39,1.39,0,0,1-.33.1,2.21,2.21,0,0,1-.35,0"/></g></g></g></svg>