<svg xmlns="http://www.w3.org/2000/svg" viewBox="0 0 603.63 116.05"><defs><style>.cls-1,.cls-2,.cls-3{fill:#212120;}.cls-2,.cls-3{stroke:#212120;stroke-miterlimit:10;}.cls-2{stroke-linecap:round;stroke-width:8.5px;}.cls-3{stroke-linecap:square;stroke-width:11.34px;}</style></defs><g id="Layer_2" data-name="Layer 2"><g id="Layer_3" data-name="Layer 3"><path class="cls-1" d="M192.64,53.2,185,60.08V77.84h-4.6V28.21H185V55l27.85-26.76h5.79L195.85,50.3l24.53,27.54h-5.6Z"/><path class="cls-1" d="M242.26,78.52a18.89,18.89,0,0,1-9.32-2.31,16.47,16.47,0,0,1-6.47-6.46,18.65,18.65,0,0,1-2.32-9.29V59a20.1,20.1,0,0,1,2.26-9.58,17,17,0,0,1,6.29-6.7,16.63,16.63,0,0,1,8.74-2.43q7.35,0,11.66,4.58t4.32,12.53v2.28H228.59v.79a14.68,14.68,0,0,0,3.94,10.45,13.07,13.07,0,0,0,9.92,4.17,15.83,15.83,0,0,0,6.32-1.19,14,14,0,0,0,5-3.82l2.8,1.94Q251.63,78.52,242.26,78.52Zm-.82-34.77a11.72,11.72,0,0,0-8.5,3.38,15,15,0,0,0-4.2,9.07H253v-.45a12.83,12.83,0,0,0-3.32-8.66A10.77,10.77,0,0,0,241.44,43.75Z"/><path class="cls-1" d="M291.62,77.84a17.5,17.5,0,0,1-.86-5.14,15.52,15.52,0,0,1-6,4.31,19.88,19.88,0,0,1-7.71,1.51,14.33,14.33,0,0,1-9.43-3,9.32,9.32,0,0,1-3.6-7.5,9.66,9.66,0,0,1,4.9-8.52q4.92-3.13,13.69-3.14h8.1V52.21A7.72,7.72,0,0,0,288.05,46c-1.78-1.52-4.37-2.27-7.78-2.27a13,13,0,0,0-7.73,2.18,6.33,6.33,0,0,0-3.06,5.25l-4.48,0q0-4.41,4.48-7.62a18.32,18.32,0,0,1,11-3.22q6.75,0,10.66,3.08a10.65,10.65,0,0,1,4,8.61V69.42q0,5.35,1.24,8v.41Zm-14-2.93a16.1,16.1,0,0,0,8-2,12,12,0,0,0,5.13-5.28V59.54h-8q-6.69.06-10.45,2.23c-2.52,1.44-3.77,3.43-3.77,5.95A6.37,6.37,0,0,0,271,72.87,10.08,10.08,0,0,0,277.58,74.91Z"/><path class="cls-1" d="M305.28,59.06q0-8.6,4.2-13.69a14,14,0,0,1,11.41-5.09q8.17,0,12.47,5.89V25.48h4.44V77.84h-4.18l-.19-4.91q-4.29,5.59-12.62,5.59a13.93,13.93,0,0,1-11.25-5.13q-4.28-5.13-4.28-13.85Zm4.52.72q0,7.05,3.1,11.13A10.34,10.34,0,0,0,321.63,75q8.25,0,11.73-6.65V51q-3.48-7.18-11.65-7.19a10.47,10.47,0,0,0-8.77,4Q309.79,51.9,309.8,59.78Z"/><path class="cls-1" d="M365.2,78.52a18.85,18.85,0,0,1-9.31-2.31,16.43,16.43,0,0,1-6.48-6.46,18.75,18.75,0,0,1-2.31-9.29V59a20.1,20.1,0,0,1,2.26-9.58,16.92,16.92,0,0,1,6.29-6.7,16.62,16.62,0,0,1,8.73-2.43q7.37,0,11.67,4.58t4.31,12.53v2.28H351.54v.79a14.63,14.63,0,0,0,3.94,10.45,13.06,13.06,0,0,0,9.91,4.17,15.85,15.85,0,0,0,6.33-1.19,13.83,13.83,0,0,0,5-3.82L379.5,72Q374.58,78.52,365.2,78.52Zm-.82-34.77a11.68,11.68,0,0,0-8.49,3.38,15,15,0,0,0-4.2,9.07h24.23v-.45a12.83,12.83,0,0,0-3.32-8.66A10.77,10.77,0,0,0,364.38,43.75Z"/><path class="cls-1" d="M401.76,55.92l10.9-15H418l-13.7,18.1,14.3,18.78h-5.27l-11.5-15.61-11.5,15.61H385l14.26-18.78L385.59,41h5.26Z"/><path class="cls-1" d="M454.29,28.21l17.77,40.5,17.77-40.5h9.3V77.84H492V58.51l.67-20.86L474.78,77.84H469.3L451.49,37.75l.71,20.76V77.84H445V28.21Z"/><path class="cls-1" d="M510.74,31.17a3.57,3.57,0,0,1,1-2.59,4.06,4.06,0,0,1,3-1,4.15,4.15,0,0,1,3.06,1,3.55,3.55,0,0,1,1,2.59,3.42,3.42,0,0,1-1,2.56,4.22,4.22,0,0,1-3.06,1,4.14,4.14,0,0,1-3-1A3.44,3.44,0,0,1,510.74,31.17Zm7.47,46.67H511.3V41h6.91Z"/><path class="cls-1" d="M535.79,41l.23,4.63a15.26,15.26,0,0,1,12.09-5.31q12.81,0,12.92,13.19V77.84h-6.91V53.43c0-2.65-.69-4.62-2-5.89s-3.35-1.91-6.11-1.91a10.67,10.67,0,0,0-5.9,1.63,11.52,11.52,0,0,0-4,4.3V77.84h-6.9V41Z"/><path class="cls-1" d="M596.39,77.84a12.21,12.21,0,0,1-1-3.88,16.15,16.15,0,0,1-11.5,4.56,15.1,15.1,0,0,1-9.8-3.08,9.63,9.63,0,0,1-3.83-7.82,10.14,10.14,0,0,1,4.8-9q4.8-3.2,13.49-3.19h6.72v-2.9a6.74,6.74,0,0,0-2.16-5.26q-2.16-2-6.39-2a10.69,10.69,0,0,0-6.19,1.71,4.92,4.92,0,0,0-2.5,4.12h-6.95a8.26,8.26,0,0,1,2.15-5.33,14.51,14.51,0,0,1,5.82-4.07,21.22,21.22,0,0,1,8.09-1.5q7,0,10.94,3.18a11.09,11.09,0,0,1,4.1,8.78v17a19.1,19.1,0,0,0,1.42,8.08v.54ZM584.93,73a13.11,13.11,0,0,0,6.16-1.54,9.66,9.66,0,0,0,4.21-4V60h-5.41q-12.69,0-12.69,6.78a5.54,5.54,0,0,0,2.16,4.64A8.89,8.89,0,0,0,584.93,73Z"/><g id="logo-black"><line class="cls-2" x1="73.65" y1="51.05" x2="73.65" y2="72.4"/><rect class="cls-1" x="34.1" width="77.12" height="50.51" rx="12"/><rect class="cls-1" x="34.1" y="65.54" width="77.12" height="50.51" rx="12"/><line class="cls-3" x1="18.65" y1="31.39" x2="7.5" y2="56.2"/><line class="cls-3" x1="18.65" y1="85.79" x2="7.5" y2="60.98"/><line class="cls-3" x1="126.67" y1="85.79" x2="137.83" y2="60.98"/><line class="cls-3" x1="126.67" y1="31.39" x2="137.83" y2="56.2"/></g></g></g></svg>