<svg xmlns="http://www.w3.org/2000/svg" viewBox="0 0 1311 349"><g id="Layer_2" data-name="Layer 2"><g id="Layer_1-2" data-name="Layer 1"><rect width="1311" height="349" rx="18.33" style="fill:#262626"/><g id="Logo"><path d="M560.9,82.09l-6.38,5.74v14.8h-3.83V61.26h3.83v22.3l23.22-22.3h4.82l-19,18.41,20.44,23h-4.66Z" style="fill:#bbbdbf"/><path d="M602.26,103.2a15.65,15.65,0,0,1-7.76-1.93,13.59,13.59,0,0,1-5.4-5.39,15.54,15.54,0,0,1-1.93-7.74V86.92a16.85,16.85,0,0,1,1.88-8,14,14,0,0,1,5.25-5.58,13.75,13.75,0,0,1,7.28-2q6.13,0,9.72,3.82t3.6,10.44v1.91h-24v.65a12.19,12.19,0,0,0,3.29,8.71,10.86,10.86,0,0,0,8.26,3.48,13.14,13.14,0,0,0,5.27-1,11.62,11.62,0,0,0,4.16-3.19l2.33,1.62Q610.07,103.2,602.26,103.2Zm-.68-29A9.73,9.73,0,0,0,594.5,77a12.4,12.4,0,0,0-3.5,7.56h20.2v-.37A10.75,10.75,0,0,0,608.43,77,9,9,0,0,0,601.58,74.21Z" style="fill:#bbbdbf"/><path d="M643.41,102.63a15,15,0,0,1-.72-4.29,12.84,12.84,0,0,1-5,3.6,16.64,16.64,0,0,1-6.43,1.26,12,12,0,0,1-7.86-2.47,7.76,7.76,0,0,1-3-6.25,8.06,8.06,0,0,1,4.09-7.11q4.1-2.61,11.41-2.61h6.75v-3.5a6.45,6.45,0,0,0-2.22-5.18q-2.24-1.89-6.49-1.89A10.81,10.81,0,0,0,627.5,76,5.28,5.28,0,0,0,625,80.38l-3.73,0q0-3.66,3.73-6.35a15.31,15.31,0,0,1,9.18-2.68c3.76,0,6.72.85,8.89,2.57a8.88,8.88,0,0,1,3.35,7.17V95.61a16.72,16.72,0,0,0,1,6.68v.34Zm-11.7-2.44a13.38,13.38,0,0,0,6.67-1.65,10.08,10.08,0,0,0,4.28-4.4V87.37H636c-3.71,0-6.62.66-8.71,1.86a5.53,5.53,0,0,0-3.15,5,5.28,5.28,0,0,0,2.1,4.29A8.4,8.4,0,0,0,631.71,100.19Z" style="fill:#bbbdbf"/><path d="M654.8,87q0-7.17,3.5-11.42a11.69,11.69,0,0,1,9.51-4.24q6.81,0,10.4,4.91V59h3.7v43.65h-3.49l-.15-4.09q-3.59,4.67-10.52,4.66a11.63,11.63,0,0,1-9.39-4.27q-3.55-4.29-3.56-11.56Zm3.77.59c0,3.92.86,7,2.58,9.28a8.63,8.63,0,0,0,7.28,3.4q6.89,0,9.78-5.54V80.27a10,10,0,0,0-9.71-6,8.72,8.72,0,0,0-7.32,3.37C659.44,79.88,658.57,83.2,658.57,87.57Z" style="fill:#bbbdbf"/><path d="M704.75,103.2a15.65,15.65,0,0,1-7.76-1.93,13.72,13.72,0,0,1-5.4-5.39,15.54,15.54,0,0,1-1.93-7.74V86.92a16.85,16.85,0,0,1,1.88-8,14.11,14.11,0,0,1,5.25-5.58,13.77,13.77,0,0,1,7.28-2q6.13,0,9.73,3.82t3.59,10.44v1.91h-24v.65a12.19,12.19,0,0,0,3.29,8.71,10.87,10.87,0,0,0,8.26,3.48,13.23,13.23,0,0,0,5.28-1,11.59,11.59,0,0,0,4.15-3.19l2.34,1.62Q712.57,103.2,704.75,103.2Zm-.68-29A9.73,9.73,0,0,0,697,77a12.4,12.4,0,0,0-3.5,7.56h20.2v-.37A10.75,10.75,0,0,0,710.92,77,9,9,0,0,0,704.07,74.21Z" style="fill:#bbbdbf"/><path d="M735.23,84.36l9.08-12.48h4.42L737.31,87l11.92,15.65h-4.39l-9.58-13-9.59,13h-4.39L733.17,87l-11.42-15.1h4.39Z" style="fill:#bbbdbf"/><path d="M779,61.26,793.83,95l14.82-33.76h7.75v41.37h-6V86.52L811,69.13l-14.87,33.5h-4.58L776.68,69.21l.59,17.31v16.11h-6V61.26Z" style="fill:#bbbdbf"/><path d="M826.08,63.73a3,3,0,0,1,.85-2.16,3.38,3.38,0,0,1,2.54-.88,3.42,3.42,0,0,1,2.55.88,3,3,0,0,1,.87,2.16,2.87,2.87,0,0,1-.87,2.13,3.49,3.49,0,0,1-2.55.85,3.45,3.45,0,0,1-2.54-.85A2.89,2.89,0,0,1,826.08,63.73Zm6.22,38.9h-5.76V71.88h5.76Z" style="fill:#bbbdbf"/><path d="M847,71.88l.19,3.87a12.7,12.7,0,0,1,10.08-4.43q10.68,0,10.77,11v20.32h-5.76V82.29a6.68,6.68,0,0,0-1.66-4.92q-1.64-1.59-5.09-1.59a8.87,8.87,0,0,0-4.92,1.36,9.62,9.62,0,0,0-3.3,3.58v21.91h-5.76V71.88Z" style="fill:#bbbdbf"/><path d="M897.48,102.63a9.75,9.75,0,0,1-.81-3.24,13.46,13.46,0,0,1-9.59,3.81,12.58,12.58,0,0,1-8.17-2.57,8,8,0,0,1-3.19-6.52,8.45,8.45,0,0,1,4-7.46Q883.72,84,891,84h5.6V81.58a5.66,5.66,0,0,0-1.8-4.4,7.73,7.73,0,0,0-5.32-1.63A8.94,8.94,0,0,0,884.28,77a4.13,4.13,0,0,0-2.09,3.44h-5.78A6.86,6.86,0,0,1,878.2,76a12.09,12.09,0,0,1,4.85-3.39,17.55,17.55,0,0,1,6.74-1.25q5.82,0,9.12,2.65a9.22,9.22,0,0,1,3.42,7.32V95.44a16.11,16.11,0,0,0,1.18,6.74v.45Zm-9.56-4a10.9,10.9,0,0,0,5.14-1.28A8,8,0,0,0,896.57,94V87.71h-4.51q-10.57,0-10.58,5.66a4.59,4.59,0,0,0,1.8,3.86A7.38,7.38,0,0,0,887.92,98.63Z" style="fill:#bbbdbf"/><g id="logo-black"><line x1="461.7" y1="80.3" x2="461.7" y2="98.09" style="fill:none;stroke:#808184;stroke-linecap:round;stroke-miterlimit:10;stroke-width:7.089156589425679px"/><rect x="428.74" y="37.74" width="64.29" height="42.11" rx="10" style="fill:#929497"/><rect x="428.74" y="92.38" width="64.29" height="42.11" rx="10" style="fill:#bbbdbf"/><line x1="415.86" y1="63.91" x2="406.56" y2="84.59" style="fill:none;stroke:#1b75bb;stroke-linecap:square;stroke-miterlimit:10;stroke-width:9.45220931591005px"/><line x1="415.86" y1="109.26" x2="406.56" y2="88.58" style="fill:none;stroke:#1b75bb;stroke-linecap:square;stroke-miterlimit:10;stroke-width:9.45220931591005px"/><line x1="505.91" y1="109.26" x2="515.21" y2="88.58" style="fill:none;stroke:#1b75bb;stroke-linecap:square;stroke-miterlimit:10;stroke-width:9.45220931591005px"/><line x1="505.91" y1="63.91" x2="515.21" y2="84.59" style="fill:none;stroke:#1b75bb;stroke-linecap:square;stroke-miterlimit:10;stroke-width:9.45220931591005px"/></g></g><path d="M338.52,228.16H332.1l-1.46,4h-1.25L334.74,218h1.14l5.35,14.15H340Zm-6-1h5.67l-2.84-7.7Z" style="fill:#bbbdbf"/><path d="M344.77,232.14h-1.2V218h1.2Z" style="fill:#bbbdbf"/><path d="M375.59,228.16h-6.42l-1.46,4h-1.25L371.81,218H373l5.35,14.15h-1.24Zm-6-1h5.67l-2.84-7.7Z" style="fill:#bbbdbf"/><path d="M386.76,230.81a3.79,3.79,0,0,1-3.35,1.52,3.25,3.25,0,0,1-2.56-1,4.27,4.27,0,0,1-.89-2.89v-6.83h1.16v6.69c0,2,.81,3,2.42,3a3,3,0,0,0,3.2-2.09v-7.6h1.17v10.51h-1.13Z" style="fill:#bbbdbf"/><path d="M392.73,218.94v2.69h2.18v1h-2.18v7a2.18,2.18,0,0,0,.32,1.3,1.21,1.21,0,0,0,1.05.43,6.59,6.59,0,0,0,.95-.1l0,.95a3.73,3.73,0,0,1-1.24.16,2.07,2.07,0,0,1-1.74-.69,3.32,3.32,0,0,1-.54-2v-7h-1.93v-1h1.93v-2.69Z" style="fill:#bbbdbf"/><path d="M396.48,226.73a6.21,6.21,0,0,1,.59-2.73,4.43,4.43,0,0,1,4.1-2.57,4.34,4.34,0,0,1,3.4,1.47,5.7,5.7,0,0,1,1.3,3.9v.25a6.26,6.26,0,0,1-.59,2.74,4.35,4.35,0,0,1-1.66,1.88,4.52,4.52,0,0,1-2.43.66,4.33,4.33,0,0,1-3.4-1.47,5.66,5.66,0,0,1-1.31-3.9Zm1.17.32a4.73,4.73,0,0,0,1,3.09,3.3,3.3,0,0,0,5.11,0,4.93,4.93,0,0,0,1-3.19v-.22a5.32,5.32,0,0,0-.45-2.21A3.52,3.52,0,0,0,403,223a3.24,3.24,0,0,0-1.84-.55,3.11,3.11,0,0,0-2.54,1.22,5,5,0,0,0-1,3.19Z" style="fill:#bbbdbf"/><path d="M414.58,231.13h7v1h-8.19V218h1.2Z" style="fill:#bbbdbf"/><path d="M430.22,232.14a5.3,5.3,0,0,1-.22-1.47,4.11,4.11,0,0,1-1.56,1.23,4.75,4.75,0,0,1-2,.43,3.52,3.52,0,0,1-2.45-.84,2.76,2.76,0,0,1-.94-2.14,2.83,2.83,0,0,1,1.28-2.43,6.11,6.11,0,0,1,3.56-.89H430v-1.2a2.28,2.28,0,0,0-.7-1.77,2.87,2.87,0,0,0-2-.65,3.14,3.14,0,0,0-2,.63,1.84,1.84,0,0,0-.8,1.49h-1.17a2.7,2.7,0,0,1,1.17-2.17,4.51,4.51,0,0,1,2.87-.92,4.07,4.07,0,0,1,2.77.88,3.14,3.14,0,0,1,1,2.45v5a6.28,6.28,0,0,0,.32,2.28v.12Zm-3.65-.84a3.93,3.93,0,0,0,2.08-.56,3.37,3.37,0,0,0,1.34-1.51v-2.31h-2.08a5.18,5.18,0,0,0-2.72.64,2,2,0,0,0-.33,3.16A2.48,2.48,0,0,0,426.57,231.3Z" style="fill:#bbbdbf"/><path d="M437.43,230.47l3.07-8.84h1.25l-4.49,12.29-.23.55a2.83,2.83,0,0,1-2.67,1.91,3.32,3.32,0,0,1-.9-.13v-1l.61.06a2.14,2.14,0,0,0,1.38-.42,3.29,3.29,0,0,0,.9-1.45l.51-1.42-4-10.42h1.27Z" style="fill:#bbbdbf"/><path d="M442.76,226.73a6.21,6.21,0,0,1,.59-2.73,4.43,4.43,0,0,1,1.66-1.89,4.49,4.49,0,0,1,2.43-.68,4.31,4.31,0,0,1,3.4,1.47,5.66,5.66,0,0,1,1.3,3.9v.25a6.26,6.26,0,0,1-.58,2.74,4.41,4.41,0,0,1-1.66,1.88,4.53,4.53,0,0,1-2.44.66,4.32,4.32,0,0,1-3.39-1.47,5.66,5.66,0,0,1-1.31-3.9Zm1.17.32a4.78,4.78,0,0,0,1,3.09,3.3,3.3,0,0,0,5.11,0,4.94,4.94,0,0,0,1-3.19v-.22a5.32,5.32,0,0,0-.45-2.21,3.59,3.59,0,0,0-1.25-1.55,3.25,3.25,0,0,0-1.85-.55,3.11,3.11,0,0,0-2.53,1.22,4.92,4.92,0,0,0-1,3.19Z" style="fill:#bbbdbf"/><path d="M461.31,230.81a3.8,3.8,0,0,1-3.36,1.52,3.21,3.21,0,0,1-2.55-1,4.27,4.27,0,0,1-.89-2.89v-6.83h1.15v6.69q0,3,2.43,3a3,3,0,0,0,3.2-2.09v-7.6h1.16v10.51h-1.13Z" style="fill:#bbbdbf"/><path d="M467.28,218.94v2.69h2.18v1h-2.18v7a2.19,2.19,0,0,0,.31,1.3,1.24,1.24,0,0,0,1.06.43,6.49,6.49,0,0,0,.94-.1l.05.95a3.77,3.77,0,0,1-1.24.16,2.07,2.07,0,0,1-1.74-.69,3.25,3.25,0,0,1-.55-2v-7h-1.93v-1h1.93v-2.69Z" style="fill:#bbbdbf"/><path d="M491.49,232.14V218h3.95a6.14,6.14,0,0,1,3.12.8,5.4,5.4,0,0,1,2.15,2.26,7.11,7.11,0,0,1,.77,3.36v1.31a7.05,7.05,0,0,1-.77,3.36,5.48,5.48,0,0,1-2.16,2.26,6.33,6.33,0,0,1-3.2.8ZM492.68,219v12.13h2.68a4.63,4.63,0,0,0,3.59-1.49,5.71,5.71,0,0,0,1.35-4v-1.24a5.63,5.63,0,0,0-1.33-3.91,4.56,4.56,0,0,0-3.51-1.48Z" style="fill:#bbbdbf"/><path d="M508.31,232.33a4.56,4.56,0,0,1-2.42-.66,4.49,4.49,0,0,1-1.69-1.84,5.77,5.77,0,0,1-.6-2.65v-.42a6.14,6.14,0,0,1,.59-2.72,4.62,4.62,0,0,1,1.63-1.91,4,4,0,0,1,2.28-.7,3.79,3.79,0,0,1,3,1.31,5.29,5.29,0,0,1,1.12,3.57V227h-7.49v.22a4.42,4.42,0,0,0,1,3,3.26,3.26,0,0,0,2.58,1.19A3.77,3.77,0,0,0,510,231a3.73,3.73,0,0,0,1.29-1.09l.73.56A4.24,4.24,0,0,1,508.31,232.33Zm-.21-9.91a2.9,2.9,0,0,0-2.21,1,4.49,4.49,0,0,0-1.1,2.59h6.31v-.13a3.78,3.78,0,0,0-.87-2.46A2.65,2.65,0,0,0,508.1,222.42Z" style="fill:#bbbdbf"/><path d="M518.59,232.33a4.56,4.56,0,0,1-2.42-.66,4.43,4.43,0,0,1-1.69-1.84,5.77,5.77,0,0,1-.6-2.65v-.42a6,6,0,0,1,.59-2.72,4.62,4.62,0,0,1,1.63-1.91,4,4,0,0,1,2.28-.7,3.8,3.8,0,0,1,3,1.31,5.29,5.29,0,0,1,1.12,3.57V227H515v.22a4.42,4.42,0,0,0,1,3,3.26,3.26,0,0,0,2.58,1.19,3.45,3.45,0,0,0,2.94-1.43l.73.56A4.26,4.26,0,0,1,518.59,232.33Zm-.21-9.91a2.89,2.89,0,0,0-2.21,1,4.49,4.49,0,0,0-1.1,2.59h6.31v-.13a3.84,3.84,0,0,0-.87-2.46A2.65,2.65,0,0,0,518.38,222.42Z" style="fill:#bbbdbf"/><path d="M533.25,227a6.36,6.36,0,0,1-1.09,3.9,3.48,3.48,0,0,1-2.91,1.44,3.91,3.91,0,0,1-3.31-1.51v5.36h-1.15V221.63h1.07l.06,1.48a3.74,3.74,0,0,1,3.3-1.68,3.49,3.49,0,0,1,2.95,1.43,6.43,6.43,0,0,1,1.08,4Zm-1.17-.21a5.37,5.37,0,0,0-.82-3.17,2.67,2.67,0,0,0-2.31-1.17,3.15,3.15,0,0,0-1.83.52,3.23,3.23,0,0,0-1.18,1.49v5a3,3,0,0,0,1.2,1.38,3.42,3.42,0,0,0,1.83.48,2.64,2.64,0,0,0,2.29-1.17A5.87,5.87,0,0,0,532.08,226.78Z" style="fill:#bbbdbf"/><path d="M542.14,231.13h7v1h-8.19V218h1.21Z" style="fill:#bbbdbf"/><path d="M551.07,218.59a.74.74,0,0,1,.22-.55.72.72,0,0,1,.58-.23.77.77,0,0,1,.59.23.8.8,0,0,1,0,1.1.8.8,0,0,1-.59.22.75.75,0,0,1-.58-.22A.74.74,0,0,1,551.07,218.59Zm1.37,13.55h-1.16V221.63h1.16Z" style="fill:#bbbdbf"/><path d="M556.71,221.63l0,1.79a4.17,4.17,0,0,1,1.47-1.48,3.84,3.84,0,0,1,1.95-.51,3.17,3.17,0,0,1,2.52.95,4.34,4.34,0,0,1,.84,2.86v6.9h-1.16v-6.91a3.25,3.25,0,0,0-.6-2.1,2.34,2.34,0,0,0-1.88-.69,3,3,0,0,0-1.91.68,3.89,3.89,0,0,0-1.22,1.82v7.2H555.6V221.63Z" style="fill:#bbbdbf"/><path d="M569,226.84l-1.33,1.28v4h-1.16V217.22h1.16v9.54l1.1-1.18,4-4h1.47l-4.46,4.43,4.85,6.08h-1.39Z" style="fill:#bbbdbf"/><path d="M582.57,229.47a1.67,1.67,0,0,0-.7-1.39,5.22,5.22,0,0,0-2.09-.82,9.82,9.82,0,0,1-2.17-.68,2.91,2.91,0,0,1-1.15-.94,2.34,2.34,0,0,1-.37-1.34,2.49,2.49,0,0,1,1-2.06,4.19,4.19,0,0,1,2.66-.81,4.32,4.32,0,0,1,2.82.87,2.79,2.79,0,0,1,1.06,2.27h-1.16a1.85,1.85,0,0,0-.78-1.53,3.45,3.45,0,0,0-3.78-.11,1.56,1.56,0,0,0-.7,1.33,1.43,1.43,0,0,0,.58,1.22,6.14,6.14,0,0,0,2.11.79,9.54,9.54,0,0,1,2.29.77,2.9,2.9,0,0,1,1.13,1,2.46,2.46,0,0,1,.37,1.39,2.52,2.52,0,0,1-1.07,2.12,4.53,4.53,0,0,1-2.8.8,4.66,4.66,0,0,1-3-.89,2.73,2.73,0,0,1-1.14-2.25h1.16a2,2,0,0,0,.86,1.59,3.53,3.53,0,0,0,2.1.57,3.36,3.36,0,0,0,2-.53A1.61,1.61,0,0,0,582.57,229.47Z" style="fill:#bbbdbf"/><path d="M606,232.14V218h3.95a6.14,6.14,0,0,1,3.12.8,5.4,5.4,0,0,1,2.15,2.26,7.11,7.11,0,0,1,.77,3.36v1.31a7.05,7.05,0,0,1-.77,3.36,5.48,5.48,0,0,1-2.16,2.26,6.33,6.33,0,0,1-3.2.8ZM607.16,219v12.13h2.68a4.63,4.63,0,0,0,3.59-1.49,5.71,5.71,0,0,0,1.35-4v-1.24a5.63,5.63,0,0,0-1.33-3.91,4.56,4.56,0,0,0-3.51-1.48Z" style="fill:#bbbdbf"/><path d="M622.79,232.33a4.56,4.56,0,0,1-2.42-.66,4.49,4.49,0,0,1-1.69-1.84,5.77,5.77,0,0,1-.6-2.65v-.42a6.14,6.14,0,0,1,.59-2.72,4.62,4.62,0,0,1,1.63-1.91,4,4,0,0,1,2.28-.7,3.79,3.79,0,0,1,3,1.31,5.29,5.29,0,0,1,1.12,3.57V227h-7.49v.22a4.42,4.42,0,0,0,1,3,3.26,3.26,0,0,0,2.58,1.19,3.77,3.77,0,0,0,1.65-.34,3.73,3.73,0,0,0,1.29-1.09l.73.56A4.24,4.24,0,0,1,622.79,232.33Zm-.21-9.91a2.9,2.9,0,0,0-2.21,1,4.49,4.49,0,0,0-1.1,2.59h6.31v-.13a3.78,3.78,0,0,0-.87-2.46A2.65,2.65,0,0,0,622.58,222.42Z" style="fill:#bbbdbf"/><path d="M637.45,227a6.29,6.29,0,0,1-1.09,3.9,3.45,3.45,0,0,1-2.91,1.44,3.87,3.87,0,0,1-3.3-1.51v5.36H629V221.63h1.08l.06,1.48a3.71,3.71,0,0,1,3.29-1.68,3.52,3.52,0,0,1,3,1.43,6.49,6.49,0,0,1,1.07,4Zm-1.17-.21a5.37,5.37,0,0,0-.82-3.17,2.66,2.66,0,0,0-2.3-1.17,3.16,3.16,0,0,0-1.84.52,3.21,3.21,0,0,0-1.17,1.49v5a2.94,2.94,0,0,0,1.19,1.38,3.43,3.43,0,0,0,1.84.48,2.63,2.63,0,0,0,2.28-1.17A5.87,5.87,0,0,0,636.28,226.78Z" style="fill:#bbbdbf"/><path d="M644.09,232.33a4.56,4.56,0,0,1-2.42-.66,4.47,4.47,0,0,1-1.68-1.84,5.65,5.65,0,0,1-.61-2.65v-.42A6.14,6.14,0,0,1,640,224a4.65,4.65,0,0,1,1.64-1.91,4,4,0,0,1,2.27-.7,3.81,3.81,0,0,1,3,1.31,5.34,5.34,0,0,1,1.12,3.57V227h-7.5v.22a4.42,4.42,0,0,0,1,3,3.29,3.29,0,0,0,2.58,1.19,3.77,3.77,0,0,0,1.65-.34,3.67,3.67,0,0,0,1.3-1.09l.72.56A4.24,4.24,0,0,1,644.09,232.33Zm-.21-9.91a2.92,2.92,0,0,0-2.21,1,4.49,4.49,0,0,0-1.09,2.59h6.3v-.13a3.83,3.83,0,0,0-.86-2.46A2.68,2.68,0,0,0,643.88,222.42Z" style="fill:#bbbdbf"/><path d="M651.41,221.63l0,1.79a4.17,4.17,0,0,1,1.47-1.48,3.85,3.85,0,0,1,2-.51,3.16,3.16,0,0,1,2.51.95,4.34,4.34,0,0,1,.84,2.86v6.9h-1.16v-6.91a3.13,3.13,0,0,0-.6-2.1,2.32,2.32,0,0,0-1.87-.69,2.94,2.94,0,0,0-1.91.68,3.84,3.84,0,0,0-1.23,1.82v7.2H650.3V221.63Z" style="fill:#bbbdbf"/><path d="M660.76,226.78a6.33,6.33,0,0,1,1.1-3.9,3.51,3.51,0,0,1,3-1.45,3.67,3.67,0,0,1,3.25,1.68v-5.89h1.15v14.92h-1.08l0-1.4a3.77,3.77,0,0,1-3.29,1.59,3.5,3.5,0,0,1-2.92-1.46,6.33,6.33,0,0,1-1.12-4Zm1.18.21a5.45,5.45,0,0,0,.81,3.17,2.6,2.6,0,0,0,2.27,1.16,3.13,3.13,0,0,0,3.05-1.89v-4.94a3.1,3.1,0,0,0-3-2.05,2.67,2.67,0,0,0-2.29,1.15A5.91,5.91,0,0,0,661.94,227Z" style="fill:#bbbdbf"/><path d="M676.35,232.33a4.56,4.56,0,0,1-2.42-.66,4.47,4.47,0,0,1-1.68-1.84,5.65,5.65,0,0,1-.61-2.65v-.42a6.14,6.14,0,0,1,.59-2.72,4.65,4.65,0,0,1,1.64-1.91,4,4,0,0,1,2.27-.7,3.81,3.81,0,0,1,3,1.31,5.34,5.34,0,0,1,1.12,3.57V227h-7.5v.22a4.42,4.42,0,0,0,1,3,3.29,3.29,0,0,0,2.58,1.19,3.74,3.74,0,0,0,1.65-.34,3.67,3.67,0,0,0,1.3-1.09l.73.56A4.27,4.27,0,0,1,676.35,232.33Zm-.21-9.91a2.92,2.92,0,0,0-2.21,1,4.49,4.49,0,0,0-1.09,2.59h6.3v-.13a3.83,3.83,0,0,0-.86-2.46A2.68,2.68,0,0,0,676.14,222.42Z" style="fill:#bbbdbf"/><path d="M683.67,221.63l0,1.79a4.25,4.25,0,0,1,1.47-1.48,3.85,3.85,0,0,1,2-.51,3.16,3.16,0,0,1,2.51.95,4.34,4.34,0,0,1,.84,2.86v6.9h-1.16v-6.91a3.13,3.13,0,0,0-.6-2.1,2.32,2.32,0,0,0-1.87-.69,2.94,2.94,0,0,0-1.91.68,3.84,3.84,0,0,0-1.23,1.82v7.2h-1.16V221.63Z" style="fill:#bbbdbf"/><path d="M697.38,231.35a3.09,3.09,0,0,0,2-.68,2.43,2.43,0,0,0,.89-1.78h1.12a3.39,3.39,0,0,1-.61,1.76,3.63,3.63,0,0,1-1.47,1.23,4.37,4.37,0,0,1-2,.45,4.05,4.05,0,0,1-3.28-1.44,5.78,5.78,0,0,1-1.21-3.86v-.35a6.58,6.58,0,0,1,.54-2.75,4.18,4.18,0,0,1,1.56-1.85,4.35,4.35,0,0,1,2.38-.65,4.09,4.09,0,0,1,2.85,1,3.79,3.79,0,0,1,1.2,2.71H700.3a2.82,2.82,0,0,0-2.93-2.75,2.91,2.91,0,0,0-2.45,1.14,5.15,5.15,0,0,0-.87,3.19v.33a5,5,0,0,0,.87,3.14A2.93,2.93,0,0,0,697.38,231.35Z" style="fill:#bbbdbf"/><path d="M707.07,230.47l3.07-8.84h1.25l-4.48,12.29-.24.55a2.81,2.81,0,0,1-2.67,1.91,3.19,3.19,0,0,1-.89-.13v-1l.6.06a2.14,2.14,0,0,0,1.38-.42,3.12,3.12,0,0,0,.9-1.45l.52-1.42-4-10.42h1.28Z" style="fill:#bbbdbf"/><path d="M727.51,219h-4.85v13.14h-1.19V219h-4.84v-1h10.88Z" style="fill:#bbbdbf"/><path d="M735.06,232.14a5.63,5.63,0,0,1-.23-1.47,4,4,0,0,1-1.56,1.23,4.73,4.73,0,0,1-2,.43,3.52,3.52,0,0,1-2.45-.84,2.76,2.76,0,0,1-.94-2.14,2.81,2.81,0,0,1,1.28-2.43,6.07,6.07,0,0,1,3.55-.89h2.11v-1.2a2.3,2.3,0,0,0-.69-1.77,2.88,2.88,0,0,0-2-.65,3.14,3.14,0,0,0-2,.63,1.83,1.83,0,0,0-.79,1.49h-1.17a2.7,2.7,0,0,1,1.17-2.17,4.48,4.48,0,0,1,2.86-.92,4.06,4.06,0,0,1,2.77.88,3.15,3.15,0,0,1,1.05,2.45v5a6.28,6.28,0,0,0,.32,2.28v.12Zm-3.66-.84a4,4,0,0,0,2.09-.56,3.35,3.35,0,0,0,1.33-1.51v-2.31h-2.08a5.2,5.2,0,0,0-2.72.64,1.91,1.91,0,0,0-1,1.69,1.88,1.88,0,0,0,.66,1.47A2.45,2.45,0,0,0,731.4,231.3Z" style="fill:#bbbdbf"/><path d="M747.54,227a6.29,6.29,0,0,1-1.09,3.9,3.47,3.47,0,0,1-2.92,1.44,3.76,3.76,0,0,1-3.32-1.63l-.05,1.44h-1.09V217.22h1.15v5.93a3.66,3.66,0,0,1,3.29-1.72,3.53,3.53,0,0,1,3,1.43,6.37,6.37,0,0,1,1.08,3.95Zm-1.17-.21a5.56,5.56,0,0,0-.8-3.21,2.65,2.65,0,0,0-2.28-1.13,3.17,3.17,0,0,0-1.89.55,3.37,3.37,0,0,0-1.18,1.61v4.74a3.13,3.13,0,0,0,3.09,2,2.61,2.61,0,0,0,2.25-1.14A5.84,5.84,0,0,0,746.37,226.78Z" style="fill:#bbbdbf"/><path d="M751.41,232.14h-1.17V217.22h1.17Z" style="fill:#bbbdbf"/><path d="M758.63,232.33a4.56,4.56,0,0,1-2.42-.66,4.49,4.49,0,0,1-1.69-1.84,5.77,5.77,0,0,1-.6-2.65v-.42a6.14,6.14,0,0,1,.59-2.72,4.65,4.65,0,0,1,1.64-1.91,4,4,0,0,1,2.27-.7,3.79,3.79,0,0,1,3,1.31,5.29,5.29,0,0,1,1.13,3.57V227h-7.5v.22a4.42,4.42,0,0,0,1,3,3.28,3.28,0,0,0,2.58,1.19,3.77,3.77,0,0,0,1.65-.34,3.64,3.64,0,0,0,1.29-1.09l.73.56A4.24,4.24,0,0,1,758.63,232.33Zm-.21-9.91a2.9,2.9,0,0,0-2.21,1,4.49,4.49,0,0,0-1.09,2.59h6.3v-.13a3.83,3.83,0,0,0-.86-2.46A2.68,2.68,0,0,0,758.42,222.42Z" style="fill:#bbbdbf"/><path d="M784.46,232.14V218h4a6.1,6.1,0,0,1,3.11.8,5.48,5.48,0,0,1,2.16,2.26,7.23,7.23,0,0,1,.77,3.36v1.31a7.17,7.17,0,0,1-.77,3.36,5.48,5.48,0,0,1-2.16,2.26,6.36,6.36,0,0,1-3.2.8Zm1.2-13.14v12.13h2.68a4.6,4.6,0,0,0,3.58-1.49,5.71,5.71,0,0,0,1.35-4v-1.24a5.58,5.58,0,0,0-1.33-3.91,4.54,4.54,0,0,0-3.5-1.48Z" style="fill:#bbbdbf"/><path d="M797.15,218.59a.77.77,0,0,1,.21-.55.74.74,0,0,1,.59-.23.79.79,0,0,1,.58,1.33.76.76,0,0,1-.58.22.74.74,0,0,1-.8-.77Zm1.37,13.55h-1.17V221.63h1.17Z" style="fill:#bbbdbf"/><path d="M808.31,232.14a5.3,5.3,0,0,1-.22-1.47,4.11,4.11,0,0,1-1.56,1.23,4.75,4.75,0,0,1-2,.43,3.52,3.52,0,0,1-2.45-.84,2.76,2.76,0,0,1-.94-2.14,2.83,2.83,0,0,1,1.28-2.43A6.11,6.11,0,0,1,806,226h2.11v-1.2a2.28,2.28,0,0,0-.7-1.77,2.87,2.87,0,0,0-2-.65,3.14,3.14,0,0,0-2,.63,1.84,1.84,0,0,0-.8,1.49h-1.17a2.7,2.7,0,0,1,1.17-2.17,4.51,4.51,0,0,1,2.87-.92,4.07,4.07,0,0,1,2.77.88,3.14,3.14,0,0,1,1,2.45v5a6.28,6.28,0,0,0,.32,2.28v.12Zm-3.65-.84a4,4,0,0,0,2.08-.56,3.37,3.37,0,0,0,1.34-1.51v-2.31H806a5.18,5.18,0,0,0-2.72.64,2,2,0,0,0-.33,3.16A2.48,2.48,0,0,0,804.66,231.3Z" style="fill:#bbbdbf"/><path d="M811.87,226.78a6.29,6.29,0,0,1,1.09-3.9,3.52,3.52,0,0,1,3-1.45,3.64,3.64,0,0,1,3.26,1.71l.06-1.51h1.09v10.29a4.44,4.44,0,0,1-1.14,3.22,4.06,4.06,0,0,1-3.08,1.18,4.62,4.62,0,0,1-2.09-.49,4,4,0,0,1-1.57-1.3l.65-.7a3.67,3.67,0,0,0,2.93,1.51,3,3,0,0,0,2.28-.86,3.44,3.44,0,0,0,.84-2.38v-1.32a3.76,3.76,0,0,1-3.25,1.55,3.5,3.5,0,0,1-2.94-1.46,6.32,6.32,0,0,1-1.1-3.93ZM813,227a5.45,5.45,0,0,0,.81,3.17,2.6,2.6,0,0,0,2.27,1.16,3.11,3.11,0,0,0,3-1.92v-4.89A3.31,3.31,0,0,0,818,223a3.22,3.22,0,0,0-1.85-.53,2.64,2.64,0,0,0-2.28,1.15A5.82,5.82,0,0,0,813,227Z" style="fill:#bbbdbf"/><path d="M828.22,222.62a3.84,3.84,0,0,0-.78-.07,2.8,2.8,0,0,0-1.84.61,3.3,3.3,0,0,0-1.08,1.76v7.22h-1.15V221.63h1.13l0,1.67a3.1,3.1,0,0,1,3-1.87,1.76,1.76,0,0,1,.76.13Z" style="fill:#bbbdbf"/><path d="M836.31,232.14a5.24,5.24,0,0,1-.23-1.47,4.11,4.11,0,0,1-1.56,1.23,4.73,4.73,0,0,1-2,.43,3.56,3.56,0,0,1-2.46-.84,2.78,2.78,0,0,1-.93-2.14,2.82,2.82,0,0,1,1.27-2.43A6.13,6.13,0,0,1,834,226h2.11v-1.2a2.3,2.3,0,0,0-.69-1.77,2.88,2.88,0,0,0-2-.65,3.14,3.14,0,0,0-2,.63,1.84,1.84,0,0,0-.8,1.49h-1.16a2.72,2.72,0,0,1,1.16-2.17,4.53,4.53,0,0,1,2.87-.92,4.06,4.06,0,0,1,2.77.88,3.15,3.15,0,0,1,1.05,2.45v5a6.06,6.06,0,0,0,.32,2.28v.12Zm-3.66-.84a4,4,0,0,0,2.09-.56,3.35,3.35,0,0,0,1.33-1.51v-2.31H834a5.2,5.2,0,0,0-2.72.64,1.91,1.91,0,0,0-1,1.69,1.88,1.88,0,0,0,.66,1.47A2.44,2.44,0,0,0,832.65,231.3Z" style="fill:#bbbdbf"/><path d="M841.39,221.63l0,1.71a3.75,3.75,0,0,1,1.45-1.43,4,4,0,0,1,2-.48,2.94,2.94,0,0,1,3.15,2,4,4,0,0,1,1.51-1.51,4.21,4.21,0,0,1,2.08-.53q3.38,0,3.45,3.69v7h-1.17v-6.93a3.16,3.16,0,0,0-.61-2.09,2.48,2.48,0,0,0-2-.68,3.14,3.14,0,0,0-2.11.81,2.83,2.83,0,0,0-1,1.93v7h-1.17v-7a2.86,2.86,0,0,0-.64-2,2.49,2.49,0,0,0-1.92-.67,2.93,2.93,0,0,0-1.89.63,3.7,3.7,0,0,0-1.16,1.86v7.21h-1.17V221.63Z" style="fill:#bbbdbf"/><path d="M864.25,229.47a1.66,1.66,0,0,0-.69-1.39,5.22,5.22,0,0,0-2.09-.82,9.93,9.93,0,0,1-2.18-.68,2.94,2.94,0,0,1-1.14-.94,2.35,2.35,0,0,1-.38-1.34,2.52,2.52,0,0,1,1-2.06,4.22,4.22,0,0,1,2.67-.81,4.32,4.32,0,0,1,2.82.87,2.79,2.79,0,0,1,1.06,2.27H864.2a1.85,1.85,0,0,0-.78-1.53,3,3,0,0,0-1.94-.62,3.07,3.07,0,0,0-1.85.51,1.58,1.58,0,0,0-.69,1.33,1.43,1.43,0,0,0,.58,1.22,6.06,6.06,0,0,0,2.11.79,9.54,9.54,0,0,1,2.29.77,3,3,0,0,1,1.13,1,2.46,2.46,0,0,1,.37,1.39,2.52,2.52,0,0,1-1.07,2.12,4.55,4.55,0,0,1-2.81.8,4.65,4.65,0,0,1-3-.89,2.72,2.72,0,0,1-1.15-2.25h1.17a2,2,0,0,0,.86,1.59,3.52,3.52,0,0,0,2.09.57,3.37,3.37,0,0,0,2-.53A1.63,1.63,0,0,0,864.25,229.47Z" style="fill:#bbbdbf"/><path d="M883.59,225.83a8.17,8.17,0,0,1-.67,3.43,5.08,5.08,0,0,1-1.93,2.27,5.19,5.19,0,0,1-2.89.8,5,5,0,0,1-4-1.77,7.13,7.13,0,0,1-1.52-4.79v-1.45a8.27,8.27,0,0,1,.68-3.43,5.42,5.42,0,0,1,7.71-2.3,5.1,5.1,0,0,1,1.92,2.22,7.77,7.77,0,0,1,.71,3.33Zm-1.19-1.53a6.28,6.28,0,0,0-1.16-4,4.17,4.17,0,0,0-6.31,0,6.31,6.31,0,0,0-1.17,4.06v1.47a6.23,6.23,0,0,0,1.17,4,3.83,3.83,0,0,0,3.17,1.47,3.78,3.78,0,0,0,3.16-1.45,6.42,6.42,0,0,0,1.14-4.05Z" style="fill:#bbbdbf"/><path d="M891.19,222.62a4,4,0,0,0-.79-.07,2.82,2.82,0,0,0-1.84.61,3.29,3.29,0,0,0-1.07,1.76v7.22h-1.16V221.63h1.14l0,1.67a3.08,3.08,0,0,1,3-1.87,1.81,1.81,0,0,1,.77.13Z" style="fill:#bbbdbf"/><path d="M892.38,226.78a6.29,6.29,0,0,1,1.09-3.9,3.52,3.52,0,0,1,3-1.45,3.64,3.64,0,0,1,3.26,1.71l.06-1.51h1.09v10.29a4.44,4.44,0,0,1-1.14,3.22,4.08,4.08,0,0,1-3.08,1.18,4.62,4.62,0,0,1-2.09-.49,4,4,0,0,1-1.57-1.3l.65-.7a3.67,3.67,0,0,0,2.93,1.51,3,3,0,0,0,2.28-.86,3.44,3.44,0,0,0,.84-2.38v-1.32a3.76,3.76,0,0,1-3.25,1.55,3.5,3.5,0,0,1-2.94-1.46,6.32,6.32,0,0,1-1.1-3.93Zm1.17.21a5.45,5.45,0,0,0,.81,3.17,2.6,2.6,0,0,0,2.27,1.16,3.11,3.11,0,0,0,3-1.92v-4.89A3.31,3.31,0,0,0,898.5,223a3.22,3.22,0,0,0-1.85-.53,2.64,2.64,0,0,0-2.28,1.15A5.82,5.82,0,0,0,893.55,227Z" style="fill:#bbbdbf"/><path d="M910.51,232.14a5.3,5.3,0,0,1-.22-1.47,4.11,4.11,0,0,1-1.56,1.23,4.75,4.75,0,0,1-2,.43,3.54,3.54,0,0,1-2.45-.84,2.79,2.79,0,0,1-.94-2.14,2.83,2.83,0,0,1,1.28-2.43,6.11,6.11,0,0,1,3.56-.89h2.11v-1.2a2.28,2.28,0,0,0-.7-1.77,2.85,2.85,0,0,0-2-.65,3.14,3.14,0,0,0-2,.63,1.84,1.84,0,0,0-.8,1.49h-1.17a2.7,2.7,0,0,1,1.17-2.17,4.51,4.51,0,0,1,2.87-.92,4.07,4.07,0,0,1,2.77.88,3.11,3.11,0,0,1,1,2.45v5a6.28,6.28,0,0,0,.32,2.28v.12Zm-3.65-.84a3.93,3.93,0,0,0,2.08-.56,3.37,3.37,0,0,0,1.34-1.51v-2.31H908.2a5.18,5.18,0,0,0-2.72.64,2,2,0,0,0-.33,3.16A2.48,2.48,0,0,0,906.86,231.3Z" style="fill:#bbbdbf"/><path d="M915.64,221.63l0,1.79a4.19,4.19,0,0,1,1.48-1.48,3.84,3.84,0,0,1,2-.51,3.15,3.15,0,0,1,2.51.95,4.34,4.34,0,0,1,.84,2.86v6.9H921.3v-6.91a3.19,3.19,0,0,0-.59-2.1,2.35,2.35,0,0,0-1.88-.69,2.94,2.94,0,0,0-1.91.68,3.84,3.84,0,0,0-1.23,1.82v7.2h-1.16V221.63Z" style="fill:#bbbdbf"/><path d="M925.39,218.59a.74.74,0,0,1,.22-.55.72.72,0,0,1,.58-.23.75.75,0,0,1,.59.23.77.77,0,0,1-.59,1.32.75.75,0,0,1-.58-.22A.74.74,0,0,1,925.39,218.59Zm1.37,13.55H925.6V221.63h1.16Z" style="fill:#bbbdbf"/><path d="M930.69,231.16h6.83v1h-8.27v-.86l6.37-8.64h-6.18v-1h7.65v.87Z" style="fill:#bbbdbf"/><path d="M946.23,232.14a5.3,5.3,0,0,1-.22-1.47,4.11,4.11,0,0,1-1.56,1.23,4.75,4.75,0,0,1-2,.43,3.52,3.52,0,0,1-2.45-.84,2.76,2.76,0,0,1-.94-2.14,2.83,2.83,0,0,1,1.28-2.43,6.11,6.11,0,0,1,3.56-.89H946v-1.2a2.28,2.28,0,0,0-.7-1.77,2.87,2.87,0,0,0-2-.65,3.14,3.14,0,0,0-2,.63,1.84,1.84,0,0,0-.8,1.49H939.3a2.7,2.7,0,0,1,1.17-2.17,4.5,4.5,0,0,1,2.86-.92,4.08,4.08,0,0,1,2.78.88,3.14,3.14,0,0,1,1,2.45v5a6.28,6.28,0,0,0,.32,2.28v.12Zm-3.65-.84a4,4,0,0,0,2.08-.56,3.37,3.37,0,0,0,1.34-1.51v-2.31h-2.08a5.18,5.18,0,0,0-2.72.64,2,2,0,0,0-.33,3.16A2.48,2.48,0,0,0,942.58,231.3Z" style="fill:#bbbdbf"/><path d="M952.06,218.94v2.69h2.17v1h-2.17v7a2.19,2.19,0,0,0,.31,1.3,1.23,1.23,0,0,0,1.06.43,6.49,6.49,0,0,0,.94-.1l0,.95a3.81,3.81,0,0,1-1.24.16,2.07,2.07,0,0,1-1.74-.69,3.25,3.25,0,0,1-.55-2v-7H949v-1h1.93v-2.69Z" style="fill:#bbbdbf"/><path d="M956.58,218.59a.77.77,0,0,1,.21-.55.73.73,0,0,1,.58-.23.75.75,0,0,1,.59.23.8.8,0,0,1,0,1.1.78.78,0,0,1-.59.22.76.76,0,0,1-.58-.22A.77.77,0,0,1,956.58,218.59ZM958,232.14h-1.17V221.63H958Z" style="fill:#bbbdbf"/><path d="M960.46,226.73a6.21,6.21,0,0,1,.59-2.73,4.43,4.43,0,0,1,1.66-1.89,4.49,4.49,0,0,1,2.43-.68,4.31,4.31,0,0,1,3.4,1.47,5.66,5.66,0,0,1,1.3,3.9v.25a6.26,6.26,0,0,1-.58,2.74,4.41,4.41,0,0,1-1.66,1.88,4.53,4.53,0,0,1-2.44.66,4.32,4.32,0,0,1-3.39-1.47,5.66,5.66,0,0,1-1.31-3.9Zm1.17.32a4.78,4.78,0,0,0,1,3.09,3.3,3.3,0,0,0,5.11,0,4.94,4.94,0,0,0,1-3.19v-.22a5.32,5.32,0,0,0-.45-2.21A3.59,3.59,0,0,0,967,223a3.25,3.25,0,0,0-1.85-.55,3.11,3.11,0,0,0-2.53,1.22,4.92,4.92,0,0,0-1,3.19Z" style="fill:#bbbdbf"/><path d="M973.35,221.63l0,1.79a4.28,4.28,0,0,1,1.48-1.48,3.84,3.84,0,0,1,2-.51,3.15,3.15,0,0,1,2.51.95,4.28,4.28,0,0,1,.84,2.86v6.9H979v-6.91a3.19,3.19,0,0,0-.59-2.1,2.34,2.34,0,0,0-1.88-.69,2.94,2.94,0,0,0-1.91.68,4,4,0,0,0-1.23,1.82v7.2h-1.16V221.63Z" style="fill:#bbbdbf"/><path d="M353.55,267.59h-6.62v5.77h7.61v1h-8.8V260.23h8.75v1h-7.56v5.34h6.62Z" style="fill:#bbbdbf"/><path d="M360.08,268.13l2.84-4.27h1.38L360.74,269l3.72,5.35h-1.37l-3-4.45-3,4.45h-1.37l3.71-5.35-3.56-5.16h1.37Z" style="fill:#bbbdbf"/><path d="M374.91,269.22a6.29,6.29,0,0,1-1.09,3.9,3.45,3.45,0,0,1-2.91,1.45,3.91,3.91,0,0,1-3.31-1.52v5.36h-1.15V263.86h1.08l.05,1.49a3.74,3.74,0,0,1,3.3-1.68,3.46,3.46,0,0,1,2.95,1.43,6.43,6.43,0,0,1,1.08,4Zm-1.17-.2a5.43,5.43,0,0,0-.82-3.18,2.68,2.68,0,0,0-2.31-1.16,3.22,3.22,0,0,0-1.83.51,3.38,3.38,0,0,0-1.18,1.5v5a3.12,3.12,0,0,0,1.2,1.38,3.42,3.42,0,0,0,1.83.48,2.64,2.64,0,0,0,2.29-1.17A5.89,5.89,0,0,0,373.74,269Z" style="fill:#bbbdbf"/><path d="M376.84,269a6.21,6.21,0,0,1,.59-2.73,4.43,4.43,0,0,1,1.66-1.89,4.49,4.49,0,0,1,2.43-.67,4.31,4.31,0,0,1,3.4,1.47,5.66,5.66,0,0,1,1.31,3.9v.24a6.3,6.3,0,0,1-.59,2.75,4.41,4.41,0,0,1-1.66,1.88,4.53,4.53,0,0,1-2.44.66,4.32,4.32,0,0,1-3.39-1.47,5.69,5.69,0,0,1-1.31-3.9Zm1.17.32a4.79,4.79,0,0,0,1,3.1,3.3,3.3,0,0,0,5.11,0,4.94,4.94,0,0,0,1-3.19V269a5.28,5.28,0,0,0-.45-2.2,3.53,3.53,0,0,0-1.25-1.55,3.18,3.18,0,0,0-1.85-.55,3.11,3.11,0,0,0-2.53,1.22,4.88,4.88,0,0,0-1,3.19Z" style="fill:#bbbdbf"/><path d="M393.48,264.85a4.88,4.88,0,0,0-.79-.06,2.88,2.88,0,0,0-1.84.6,3.31,3.31,0,0,0-1.07,1.77v7.21h-1.16V263.86h1.14l0,1.67a3.09,3.09,0,0,1,3-1.86,2,2,0,0,1,.77.12Z" style="fill:#bbbdbf"/><path d="M397.61,261.17v2.69h2.18v.95h-2.18v7a2.13,2.13,0,0,0,.32,1.3,1.23,1.23,0,0,0,1.05.43,8.37,8.37,0,0,0,.94-.1l.05.94a3.73,3.73,0,0,1-1.24.17,2.05,2.05,0,0,1-1.74-.7,3.26,3.26,0,0,1-.55-2v-7h-1.93v-.95h1.93v-2.69Z" style="fill:#bbbdbf"/><path d="M432.3,274.37h-1.21v-6.78H423v6.78h-1.19V260.23H423v6.35h8.08v-6.35h1.21Z" style="fill:#bbbdbf"/><path d="M435,269a6.21,6.21,0,0,1,.59-2.73,4.4,4.4,0,0,1,4.09-2.56,4.33,4.33,0,0,1,3.4,1.47,5.66,5.66,0,0,1,1.3,3.9v.24a6.3,6.3,0,0,1-.58,2.75,4.48,4.48,0,0,1-1.66,1.88,4.55,4.55,0,0,1-2.44.66,4.32,4.32,0,0,1-3.39-1.47,5.69,5.69,0,0,1-1.31-3.9Zm1.17.32a4.79,4.79,0,0,0,1,3.1,3.3,3.3,0,0,0,5.11,0,4.94,4.94,0,0,0,1-3.19V269a5.28,5.28,0,0,0-.45-2.2,3.6,3.6,0,0,0-1.25-1.55,3.2,3.2,0,0,0-1.85-.55,3.11,3.11,0,0,0-2.53,1.22,4.88,4.88,0,0,0-1,3.19Z" style="fill:#bbbdbf"/><path d="M446.12,269a6.21,6.21,0,0,1,.59-2.73,4.43,4.43,0,0,1,1.66-1.89,4.49,4.49,0,0,1,2.43-.67,4.31,4.31,0,0,1,3.4,1.47,5.66,5.66,0,0,1,1.31,3.9v.24a6.3,6.3,0,0,1-.59,2.75,4.41,4.41,0,0,1-1.66,1.88,4.53,4.53,0,0,1-2.44.66,4.32,4.32,0,0,1-3.39-1.47,5.69,5.69,0,0,1-1.31-3.9Zm1.17.32a4.79,4.79,0,0,0,1,3.1,3.3,3.3,0,0,0,5.11,0,4.94,4.94,0,0,0,1-3.19V269a5.28,5.28,0,0,0-.45-2.2,3.53,3.53,0,0,0-1.25-1.55,3.18,3.18,0,0,0-1.85-.55,3.11,3.11,0,0,0-2.53,1.22,4.88,4.88,0,0,0-1,3.19Z" style="fill:#bbbdbf"/><path d="M460.4,269.08l-1.33,1.28v4h-1.16V259.45h1.16V269l1.1-1.18,4-4h1.47l-4.46,4.43,4.85,6.08h-1.39Z" style="fill:#bbbdbf"/><path d="M473.94,271.7a1.66,1.66,0,0,0-.69-1.39,5.36,5.36,0,0,0-2.1-.82,9.47,9.47,0,0,1-2.17-.68,2.86,2.86,0,0,1-1.14-.94,2.32,2.32,0,0,1-.38-1.34,2.51,2.51,0,0,1,1-2,4.21,4.21,0,0,1,2.66-.81,4.33,4.33,0,0,1,2.83.87,2.78,2.78,0,0,1,1.06,2.27h-1.17a1.87,1.87,0,0,0-.77-1.54,3,3,0,0,0-1.95-.61,3.06,3.06,0,0,0-1.84.51,1.58,1.58,0,0,0-.69,1.33,1.4,1.4,0,0,0,.58,1.21,6,6,0,0,0,2.11.8,10.08,10.08,0,0,1,2.29.76,3,3,0,0,1,1.13,1,2.7,2.7,0,0,1-.7,3.52,4.61,4.61,0,0,1-2.81.8,4.71,4.71,0,0,1-3-.89,2.72,2.72,0,0,1-1.15-2.25h1.17a2,2,0,0,0,.86,1.59,3.5,3.5,0,0,0,2.09.57,3.25,3.25,0,0,0,2-.54A1.59,1.59,0,0,0,473.94,271.7Z" style="fill:#bbbdbf"/><path d="M498.8,274.37h-1.19V260.23h1.19Z" style="fill:#bbbdbf"/><path d="M503.47,263.86l0,1.8a4.19,4.19,0,0,1,1.48-1.48,3.84,3.84,0,0,1,1.95-.51,3.17,3.17,0,0,1,2.52.95,4.26,4.26,0,0,1,.83,2.86v6.89h-1.15v-6.9a3.25,3.25,0,0,0-.6-2.1,2.34,2.34,0,0,0-1.88-.69,2.93,2.93,0,0,0-1.91.67,4,4,0,0,0-1.23,1.82v7.2h-1.15V263.86Z" style="fill:#bbbdbf"/><path d="M515.1,261.17v2.69h2.18v.95H515.1v7a2.2,2.2,0,0,0,.32,1.3,1.23,1.23,0,0,0,1.05.43,8.14,8.14,0,0,0,.94-.1l.05.94a3.73,3.73,0,0,1-1.24.17,2.05,2.05,0,0,1-1.74-.7,3.27,3.27,0,0,1-.54-2v-7H512v-.95h1.94v-2.69Z" style="fill:#bbbdbf"/><path d="M523.76,274.57a4.49,4.49,0,0,1-4.11-2.5,5.78,5.78,0,0,1-.61-2.65V269a6.21,6.21,0,0,1,.59-2.73,4.71,4.71,0,0,1,1.64-1.91,4.06,4.06,0,0,1,2.27-.69,3.8,3.8,0,0,1,3,1.3,5.32,5.32,0,0,1,1.12,3.57v.66h-7.5v.22a4.39,4.39,0,0,0,1,3,3.26,3.26,0,0,0,2.58,1.19,3.84,3.84,0,0,0,1.64-.34,3.67,3.67,0,0,0,1.3-1.09l.73.55A4.25,4.25,0,0,1,523.76,274.57Zm-.22-9.91a2.92,2.92,0,0,0-2.21,1,4.43,4.43,0,0,0-1.09,2.59h6.3v-.13a3.88,3.88,0,0,0-.86-2.47A2.69,2.69,0,0,0,523.54,264.66Z" style="fill:#bbbdbf"/><path d="M531.27,274.37H530.1V259.45h1.17Z" style="fill:#bbbdbf"/><path d="M535.72,274.37h-1.16V259.45h1.16Z" style="fill:#bbbdbf"/><path d="M538.81,260.83a.76.76,0,0,1,.22-.56.75.75,0,0,1,.58-.23.79.79,0,0,1,.59.23.8.8,0,0,1,.22.56.75.75,0,0,1-.81.77.75.75,0,0,1-.58-.22A.74.74,0,0,1,538.81,260.83Zm1.37,13.54H539V263.86h1.16Z" style="fill:#bbbdbf"/><path d="M551.62,270.9a2.28,2.28,0,0,0-.83-1.86,8.63,8.63,0,0,0-3-1.31,10.87,10.87,0,0,1-3.21-1.34,3.27,3.27,0,0,1-.1-5.34,5.47,5.47,0,0,1,3.42-1,5.69,5.69,0,0,1,2.52.54,4.16,4.16,0,0,1,1.72,1.51,4,4,0,0,1,.61,2.17h-1.2a3,3,0,0,0-1-2.33,3.85,3.85,0,0,0-2.66-.89,4.21,4.21,0,0,0-2.59.73,2.25,2.25,0,0,0-1,1.89,2.13,2.13,0,0,0,.87,1.76,7.66,7.66,0,0,0,2.76,1.2,13.45,13.45,0,0,1,2.89,1.08,4.22,4.22,0,0,1,1.48,1.34,3.35,3.35,0,0,1,.49,1.84,3.2,3.2,0,0,1-1.33,2.68,5.75,5.75,0,0,1-3.53,1,6.84,6.84,0,0,1-2.74-.54,4.14,4.14,0,0,1-1.89-1.49,3.81,3.81,0,0,1-.65-2.21h1.19a2.83,2.83,0,0,0,1.12,2.36,4.72,4.72,0,0,0,3,.87,4.48,4.48,0,0,0,2.66-.73A2.3,2.3,0,0,0,551.62,270.9Z" style="fill:#bbbdbf"/><path d="M559.19,274.57a4.56,4.56,0,0,1-2.42-.66,4.62,4.62,0,0,1-1.69-1.84,5.77,5.77,0,0,1-.6-2.65V269a6.21,6.21,0,0,1,.59-2.73,4.71,4.71,0,0,1,1.64-1.91,4,4,0,0,1,2.27-.69,3.8,3.8,0,0,1,3,1.3,5.37,5.37,0,0,1,1.12,3.57v.66h-7.5v.22a4.44,4.44,0,0,0,1,3,3.29,3.29,0,0,0,2.58,1.19,3.92,3.92,0,0,0,1.65-.34,3.75,3.75,0,0,0,1.3-1.09l.72.55A4.23,4.23,0,0,1,559.19,274.57Zm-.21-9.91a2.92,2.92,0,0,0-2.21,1,4.43,4.43,0,0,0-1.09,2.59H562v-.13a3.88,3.88,0,0,0-.86-2.47A2.71,2.71,0,0,0,559,264.66Z" style="fill:#bbbdbf"/><path d="M566.51,263.86l0,1.8a4.09,4.09,0,0,1,1.47-1.48,3.85,3.85,0,0,1,2-.51,3.16,3.16,0,0,1,2.51.95,4.32,4.32,0,0,1,.84,2.86v6.89h-1.16v-6.9a3.13,3.13,0,0,0-.6-2.1,2.33,2.33,0,0,0-1.88-.69,2.92,2.92,0,0,0-1.9.67,3.89,3.89,0,0,0-1.23,1.82v7.2H565.4V263.86Z" style="fill:#bbbdbf"/><path d="M582.62,271.7a1.66,1.66,0,0,0-.69-1.39,5.37,5.37,0,0,0-2.09-.82,9.42,9.42,0,0,1-2.18-.68,2.86,2.86,0,0,1-1.14-.94,2.32,2.32,0,0,1-.38-1.34,2.51,2.51,0,0,1,1-2,4.22,4.22,0,0,1,2.67-.81,4.32,4.32,0,0,1,2.82.87,2.78,2.78,0,0,1,1.06,2.27h-1.16a1.88,1.88,0,0,0-.78-1.54,3,3,0,0,0-1.94-.61,3.07,3.07,0,0,0-1.85.51,1.58,1.58,0,0,0-.69,1.33,1.4,1.4,0,0,0,.58,1.21,6,6,0,0,0,2.11.8,10.08,10.08,0,0,1,2.29.76,3,3,0,0,1,1.13,1,2.7,2.7,0,0,1-.7,3.52,4.61,4.61,0,0,1-2.81.8,4.71,4.71,0,0,1-3-.89,2.72,2.72,0,0,1-1.15-2.25H577a2,2,0,0,0,.86,1.59,3.52,3.52,0,0,0,2.09.57,3.3,3.3,0,0,0,2-.54A1.6,1.6,0,0,0,582.62,271.7Z" style="fill:#bbbdbf"/><path d="M590.47,274.57a4.52,4.52,0,0,1-4.11-2.5,5.77,5.77,0,0,1-.6-2.65V269a6.21,6.21,0,0,1,.59-2.73,4.71,4.71,0,0,1,1.64-1.91,4,4,0,0,1,2.27-.69,3.78,3.78,0,0,1,3,1.3,5.32,5.32,0,0,1,1.13,3.57v.66h-7.5v.22a4.44,4.44,0,0,0,1,3,3.26,3.26,0,0,0,2.58,1.19,3.92,3.92,0,0,0,1.65-.34,3.64,3.64,0,0,0,1.29-1.09l.73.55A4.23,4.23,0,0,1,590.47,274.57Zm-.21-9.91a2.9,2.9,0,0,0-2.21,1,4.43,4.43,0,0,0-1.09,2.59h6.3v-.13a3.88,3.88,0,0,0-.86-2.47A2.71,2.71,0,0,0,590.26,264.66Z" style="fill:#bbbdbf"/><path d="M617.51,273.36h7v1H616.3V260.23h1.21Z" style="fill:#bbbdbf"/><path d="M626.44,260.83a.76.76,0,0,1,.22-.56.75.75,0,0,1,.58-.23.79.79,0,0,1,.59.23.8.8,0,0,1,.22.56.75.75,0,0,1-.81.77.75.75,0,0,1-.58-.22A.74.74,0,0,1,626.44,260.83Zm1.37,13.54h-1.16V263.86h1.16Z" style="fill:#bbbdbf"/><path d="M639.43,269.22a6.29,6.29,0,0,1-1.09,3.9,3.45,3.45,0,0,1-2.92,1.45,3.79,3.79,0,0,1-3.32-1.63l-.05,1.43H631V259.45h1.16v5.94a3.63,3.63,0,0,1,3.28-1.72,3.51,3.51,0,0,1,3,1.42,6.43,6.43,0,0,1,1.08,4Zm-1.16-.2a5.44,5.44,0,0,0-.81-3.21,2.64,2.64,0,0,0-2.27-1.13,3.18,3.18,0,0,0-1.9.55,3.26,3.26,0,0,0-1.17,1.6v4.75a3.11,3.11,0,0,0,3.09,2,2.6,2.6,0,0,0,2.24-1.14A5.78,5.78,0,0,0,638.27,269Z" style="fill:#bbbdbf"/><path d="M646.85,264.85a4.84,4.84,0,0,0-.78-.06,2.85,2.85,0,0,0-1.84.6,3.33,3.33,0,0,0-1.08,1.77v7.21H642V263.86h1.13l0,1.67a3.09,3.09,0,0,1,3-1.86,2,2,0,0,1,.77.12Z" style="fill:#bbbdbf"/><path d="M654.93,274.37a5.69,5.69,0,0,1-.22-1.46,4,4,0,0,1-1.56,1.22,4.74,4.74,0,0,1-2,.44,3.52,3.52,0,0,1-2.46-.85,2.75,2.75,0,0,1-.93-2.14,2.79,2.79,0,0,1,1.27-2.42,6.1,6.1,0,0,1,3.56-.9h2.11v-1.19a2.34,2.34,0,0,0-.69-1.78,2.89,2.89,0,0,0-2-.64,3.19,3.19,0,0,0-2,.62,1.86,1.86,0,0,0-.8,1.5H648a2.7,2.7,0,0,1,1.16-2.17,4.47,4.47,0,0,1,2.87-.92,4.06,4.06,0,0,1,2.77.88,3.13,3.13,0,0,1,1.05,2.45v5a6.09,6.09,0,0,0,.32,2.29v.11Zm-3.65-.83a3.9,3.9,0,0,0,2.09-.57,3.27,3.27,0,0,0,1.33-1.5v-2.31h-2.08a5.21,5.21,0,0,0-2.72.63,1.92,1.92,0,0,0-1,1.7,1.88,1.88,0,0,0,.66,1.47A2.48,2.48,0,0,0,651.28,273.54Z" style="fill:#bbbdbf"/><path d="M663.81,264.85a4.84,4.84,0,0,0-.78-.06,2.85,2.85,0,0,0-1.84.6,3.33,3.33,0,0,0-1.08,1.77v7.21H659V263.86h1.13l0,1.67a3.1,3.1,0,0,1,3-1.86,2,2,0,0,1,.76.12Z" style="fill:#bbbdbf"/><path d="M669.16,272.7l3.07-8.84h1.25L669,276.16l-.23.54a2.83,2.83,0,0,1-2.67,1.92,3.35,3.35,0,0,1-.9-.14v-1l.61.06a2.14,2.14,0,0,0,1.38-.42,3.33,3.33,0,0,0,.9-1.46l.51-1.41-4-10.43h1.27Z" style="fill:#bbbdbf"/><path d="M696.1,273.36h7v1H694.9V260.23h1.2Z" style="fill:#bbbdbf"/><path d="M705,260.83a.75.75,0,0,1,.8-.79.77.77,0,0,1,.8.79.74.74,0,0,1-.22.55.76.76,0,0,1-.58.22.78.78,0,0,1-.59-.22A.77.77,0,0,1,705,260.83Zm1.37,13.54h-1.17V263.86h1.17Z" style="fill:#bbbdbf"/><path d="M710.67,263.86l0,1.8a4.19,4.19,0,0,1,1.48-1.48,3.84,3.84,0,0,1,1.95-.51,3.17,3.17,0,0,1,2.52.95,4.26,4.26,0,0,1,.83,2.86v6.89h-1.15v-6.9a3.25,3.25,0,0,0-.6-2.1,2.34,2.34,0,0,0-1.88-.69,2.93,2.93,0,0,0-1.91.67,4,4,0,0,0-1.23,1.82v7.2h-1.15V263.86Z" style="fill:#bbbdbf"/><path d="M723,269.08l-1.33,1.28v4H720.5V259.45h1.16V269l1.1-1.18,4-4h1.47l-4.46,4.43,4.85,6.08h-1.39Z" style="fill:#bbbdbf"/><path d="M736.53,271.7a1.66,1.66,0,0,0-.69-1.39,5.37,5.37,0,0,0-2.09-.82,9.42,9.42,0,0,1-2.18-.68,2.86,2.86,0,0,1-1.14-.94,2.32,2.32,0,0,1-.38-1.34,2.51,2.51,0,0,1,1-2,4.21,4.21,0,0,1,2.66-.81,4.33,4.33,0,0,1,2.83.87,2.78,2.78,0,0,1,1.06,2.27h-1.17a1.87,1.87,0,0,0-.77-1.54,3,3,0,0,0-2-.61,3.06,3.06,0,0,0-1.84.51,1.58,1.58,0,0,0-.69,1.33,1.4,1.4,0,0,0,.58,1.21,5.94,5.94,0,0,0,2.11.8,10.25,10.25,0,0,1,2.29.76,3,3,0,0,1,1.13,1,2.69,2.69,0,0,1-.71,3.52,4.56,4.56,0,0,1-2.8.8,4.76,4.76,0,0,1-3-.89,2.73,2.73,0,0,1-1.14-2.25h1.17a2,2,0,0,0,.86,1.59,3.52,3.52,0,0,0,2.09.57,3.3,3.3,0,0,0,2-.54A1.6,1.6,0,0,0,736.53,271.7Z" style="fill:#bbbdbf"/><path d="M761.14,273.36h7v1h-8.19V260.23h1.21Z" style="fill:#bbbdbf"/><path d="M769.5,269a6.21,6.21,0,0,1,.59-2.73,4.4,4.4,0,0,1,4.09-2.56,4.31,4.31,0,0,1,3.4,1.47,5.66,5.66,0,0,1,1.31,3.9v.24a6.3,6.3,0,0,1-.59,2.75,4.41,4.41,0,0,1-1.66,1.88,4.53,4.53,0,0,1-2.44.66,4.32,4.32,0,0,1-3.39-1.47,5.69,5.69,0,0,1-1.31-3.9Zm1.17.32a4.79,4.79,0,0,0,1,3.1,3.3,3.3,0,0,0,5.11,0,4.94,4.94,0,0,0,1-3.19V269a5.28,5.28,0,0,0-.45-2.2,3.47,3.47,0,0,0-1.25-1.55,3.18,3.18,0,0,0-1.85-.55,3.11,3.11,0,0,0-2.53,1.22,4.94,4.94,0,0,0-1,3.19Z" style="fill:#bbbdbf"/><path d="M783.8,272l.18.91.23-.95,2.52-8.05h1l2.49,8,.27,1.11.23-1,2.15-8.06h1.21L791,274.37h-1l-2.7-8.33-.13-.58-.13.59-2.65,8.32h-1l-3-10.51h1.2Z" style="fill:#bbbdbf"/><path d="M799.9,268.62h-4.66v-1h4.66Z" style="fill:#bbbdbf"/><path d="M812.26,270a5.07,5.07,0,0,1-1.59,3.42,5.31,5.31,0,0,1-3.61,1.19,5.06,5.06,0,0,1-2.79-.79,5.16,5.16,0,0,1-1.87-2.23,8,8,0,0,1-.67-3.3v-1.83a8,8,0,0,1,.66-3.34,5,5,0,0,1,1.9-2.25,5.18,5.18,0,0,1,2.85-.79,5,5,0,0,1,3.59,1.22,5.12,5.12,0,0,1,1.53,3.39h-1.2c-.3-2.4-1.6-3.61-3.92-3.61a3.73,3.73,0,0,0-3.06,1.44,6.26,6.26,0,0,0-1.14,4v1.73a6.3,6.3,0,0,0,1.11,3.91,3.59,3.59,0,0,0,3,1.46,4,4,0,0,0,2.82-.9,4.3,4.3,0,0,0,1.18-2.7Z" style="fill:#bbbdbf"/><path d="M814.25,269a6.21,6.21,0,0,1,.59-2.73,4.4,4.4,0,0,1,4.1-2.56,4.34,4.34,0,0,1,3.4,1.47,5.7,5.7,0,0,1,1.3,3.9v.24a6.3,6.3,0,0,1-.59,2.75,4.35,4.35,0,0,1-1.66,1.88,4.52,4.52,0,0,1-2.43.66,4.33,4.33,0,0,1-3.4-1.47,5.69,5.69,0,0,1-1.31-3.9Zm1.17.32a4.79,4.79,0,0,0,1,3.1,3.3,3.3,0,0,0,5.11,0,4.93,4.93,0,0,0,1-3.19V269a5.44,5.44,0,0,0-.44-2.2,3.55,3.55,0,0,0-1.26-1.55,3.17,3.17,0,0,0-1.84-.55,3.11,3.11,0,0,0-2.54,1.22,4.94,4.94,0,0,0-1,3.19Z" style="fill:#bbbdbf"/><path d="M825.57,269a6.4,6.4,0,0,1,1.09-3.9,3.52,3.52,0,0,1,3-1.45,3.67,3.67,0,0,1,3.25,1.68v-5.9H834v14.92h-1.09l0-1.4a3.75,3.75,0,0,1-3.29,1.6,3.52,3.52,0,0,1-2.93-1.46,6.41,6.41,0,0,1-1.11-3.95Zm1.18.2a5.56,5.56,0,0,0,.8,3.18,2.63,2.63,0,0,0,2.28,1.16,3.13,3.13,0,0,0,3-1.9v-4.93a3.11,3.11,0,0,0-3-2.05,2.65,2.65,0,0,0-2.29,1.15A5.89,5.89,0,0,0,826.75,269.22Z" style="fill:#bbbdbf"/><path d="M837,260.83a.8.8,0,0,1,.22-.56.77.77,0,0,1,.58-.23.79.79,0,0,1,.59.23.8.8,0,0,1,.22.56.75.75,0,0,1-.81.77.76.76,0,0,1-.58-.22A.78.78,0,0,1,837,260.83Zm1.37,13.54h-1.16V263.86h1.16Z" style="fill:#bbbdbf"/><path d="M842.66,263.86l0,1.8a4.09,4.09,0,0,1,1.47-1.48,3.85,3.85,0,0,1,2-.51,3.16,3.16,0,0,1,2.51.95,4.32,4.32,0,0,1,.84,2.86v6.89h-1.16v-6.9a3.13,3.13,0,0,0-.6-2.1,2.33,2.33,0,0,0-1.88-.69,2.92,2.92,0,0,0-1.9.67,3.89,3.89,0,0,0-1.23,1.82v7.2h-1.16V263.86Z" style="fill:#bbbdbf"/><path d="M852,269a6.33,6.33,0,0,1,1.1-3.91,3.5,3.5,0,0,1,3-1.44,3.67,3.67,0,0,1,3.27,1.71l.06-1.52h1.08v10.3a4.52,4.52,0,0,1-1.13,3.22,4.08,4.08,0,0,1-3.08,1.18,4.69,4.69,0,0,1-2.1-.49,4,4,0,0,1-1.56-1.31l.65-.7a3.68,3.68,0,0,0,2.93,1.52,3,3,0,0,0,2.27-.86,3.4,3.4,0,0,0,.85-2.39V273a3.76,3.76,0,0,1-3.26,1.56,3.52,3.52,0,0,1-2.93-1.46,6.33,6.33,0,0,1-1.11-3.93Zm1.18.2a5.48,5.48,0,0,0,.81,3.18,2.6,2.6,0,0,0,2.27,1.16,3.11,3.11,0,0,0,3-1.93v-4.88a3.27,3.27,0,0,0-1.18-1.54,3.1,3.1,0,0,0-1.84-.53,2.65,2.65,0,0,0-2.29,1.15A5.89,5.89,0,0,0,853.19,269.22Z" style="fill:#bbbdbf"/><path d="M884.33,268.61v5.76h-1.19V260.23H888a5.09,5.09,0,0,1,3.48,1.13,3.91,3.91,0,0,1,1.27,3.1,3.87,3.87,0,0,1-1.22,3.07,5.24,5.24,0,0,1-3.56,1.08Zm0-1H888a3.84,3.84,0,0,0,2.65-.82,3,3,0,0,0,.91-2.31,3.07,3.07,0,0,0-.91-2.34,3.61,3.61,0,0,0-2.58-.89h-3.7Z" style="fill:#bbbdbf"/><path d="M896.42,274.37h-1.17V259.45h1.17Z" style="fill:#bbbdbf"/><path d="M906.21,274.37a5.62,5.62,0,0,1-.23-1.46,3.86,3.86,0,0,1-1.56,1.22,4.74,4.74,0,0,1-2,.44,3.48,3.48,0,0,1-2.45-.85,2.73,2.73,0,0,1-.94-2.14,2.8,2.8,0,0,1,1.28-2.42,6.08,6.08,0,0,1,3.56-.9H906v-1.19a2.34,2.34,0,0,0-.69-1.78,2.88,2.88,0,0,0-2-.64,3.21,3.21,0,0,0-2,.62,1.85,1.85,0,0,0-.79,1.5h-1.17a2.69,2.69,0,0,1,1.17-2.17,4.42,4.42,0,0,1,2.86-.92,4.08,4.08,0,0,1,2.78.88,3.16,3.16,0,0,1,1,2.45v5a6.3,6.3,0,0,0,.32,2.29v.11Zm-3.65-.83a3.87,3.87,0,0,0,2.08-.57,3.22,3.22,0,0,0,1.33-1.5v-2.31H903.9a5.18,5.18,0,0,0-2.72.63,1.91,1.91,0,0,0-1,1.7,1.88,1.88,0,0,0,.66,1.47A2.53,2.53,0,0,0,902.56,273.54Z" style="fill:#bbbdbf"/><path d="M911.34,263.86l0,1.8a4.09,4.09,0,0,1,1.47-1.48,3.84,3.84,0,0,1,1.95-.51,3.17,3.17,0,0,1,2.52.95,4.32,4.32,0,0,1,.84,2.86v6.89H917v-6.9a3.25,3.25,0,0,0-.6-2.1,2.34,2.34,0,0,0-1.88-.69,3,3,0,0,0-1.91.67,4,4,0,0,0-1.23,1.82v7.2h-1.15V263.86Z" style="fill:#bbbdbf"/><path d="M923,261.17v2.69h2.18v.95H923v7a2.2,2.2,0,0,0,.32,1.3,1.23,1.23,0,0,0,1.05.43,8.49,8.49,0,0,0,.95-.1l.05.94a3.8,3.8,0,0,1-1.25.17,2.08,2.08,0,0,1-1.74-.7,3.27,3.27,0,0,1-.54-2v-7h-1.93v-.95h1.93v-2.69Z" style="fill:#bbbdbf"/><path d="M937.56,260.23v9.65a4.75,4.75,0,0,1-.63,2.49,4.12,4.12,0,0,1-1.75,1.63,5.69,5.69,0,0,1-2.6.57,5.15,5.15,0,0,1-3.58-1.22,4.45,4.45,0,0,1-1.39-3.38v-9.74h1.18v9.57a3.68,3.68,0,0,0,1,2.77,3.82,3.82,0,0,0,2.77,1,3.76,3.76,0,0,0,2.76-1,3.67,3.67,0,0,0,1-2.76v-9.58Z" style="fill:#bbbdbf"/><path d="M942.48,260.23l5.22,12.48,5.23-12.48h1.6v14.14h-1.2v-6.16l.1-6.31-5.27,12.47h-.92L942,262l.1,6.23v6.19H940.9V260.23Z" style="fill:#bbbdbf"/><path d="M959.31,273.36h7v1h-8.19V260.23h1.2Z" style="fill:#bbbdbf"/><path d="M503.61,313.13a2.3,2.3,0,0,0-.82-1.86,8.85,8.85,0,0,0-3-1.3,10.47,10.47,0,0,1-3.21-1.35,3.25,3.25,0,0,1-.1-5.33,5.46,5.46,0,0,1,3.41-1,5.63,5.63,0,0,1,2.53.55,4.09,4.09,0,0,1,1.72,1.51,4,4,0,0,1,.61,2.17h-1.2a3,3,0,0,0-1-2.34,3.91,3.91,0,0,0-2.67-.88,4.14,4.14,0,0,0-2.58.73,2.25,2.25,0,0,0-1,1.89,2.15,2.15,0,0,0,.86,1.76,8.19,8.19,0,0,0,2.77,1.2,13.45,13.45,0,0,1,2.89,1.08,4.09,4.09,0,0,1,1.47,1.34,3.32,3.32,0,0,1,.5,1.83,3.19,3.19,0,0,1-1.34,2.68,5.64,5.64,0,0,1-3.52,1,7,7,0,0,1-2.74-.53,4.26,4.26,0,0,1-1.9-1.5,3.84,3.84,0,0,1-.64-2.2h1.19a2.81,2.81,0,0,0,1.12,2.36,4.76,4.76,0,0,0,3,.86,4.36,4.36,0,0,0,2.65-.73A2.26,2.26,0,0,0,503.61,313.13Z" style="fill:#bbbdbf"/><path d="M511.19,316.8a4.56,4.56,0,0,1-2.42-.66,4.49,4.49,0,0,1-1.69-1.84,5.73,5.73,0,0,1-.6-2.64v-.42a6.21,6.21,0,0,1,.59-2.73,4.7,4.7,0,0,1,1.63-1.91,4.08,4.08,0,0,1,2.28-.7,3.79,3.79,0,0,1,3,1.31,5.29,5.29,0,0,1,1.13,3.57v.65h-7.5v.23a4.39,4.39,0,0,0,1,3,3.23,3.23,0,0,0,2.58,1.19,3.77,3.77,0,0,0,1.65-.34,3.62,3.62,0,0,0,1.29-1.09l.73.56A4.22,4.22,0,0,1,511.19,316.8Zm-.21-9.9a2.9,2.9,0,0,0-2.21,1,4.36,4.36,0,0,0-1.09,2.58H514v-.13a3.78,3.78,0,0,0-.87-2.46A2.64,2.64,0,0,0,511,306.9Z" style="fill:#bbbdbf"/><path d="M524,316.61a5.71,5.71,0,0,1-.22-1.47,4.11,4.11,0,0,1-1.56,1.23,4.73,4.73,0,0,1-2,.43,3.55,3.55,0,0,1-2.46-.84,2.77,2.77,0,0,1-.94-2.14,2.83,2.83,0,0,1,1.28-2.43,6.18,6.18,0,0,1,3.56-.89h2.11v-1.2a2.3,2.3,0,0,0-.69-1.77,2.89,2.89,0,0,0-2-.64,3.13,3.13,0,0,0-2,.62,1.84,1.84,0,0,0-.8,1.49h-1.16a2.72,2.72,0,0,1,1.16-2.17,4.53,4.53,0,0,1,2.87-.92,4.11,4.11,0,0,1,2.77.88,3.17,3.17,0,0,1,1.05,2.46v5a6,6,0,0,0,.32,2.28v.12Zm-3.65-.84a3.84,3.84,0,0,0,2.08-.56,3.34,3.34,0,0,0,1.34-1.5v-2.32h-2.08A5.3,5.3,0,0,0,519,312a1.92,1.92,0,0,0-1,1.69,1.88,1.88,0,0,0,.66,1.47A2.44,2.44,0,0,0,520.38,315.77Z" style="fill:#bbbdbf"/><path d="M532.91,307.09a3.94,3.94,0,0,0-.79-.07,2.83,2.83,0,0,0-1.84.61,3.29,3.29,0,0,0-1.07,1.76v7.22h-1.15V306.1h1.13l0,1.67a3.1,3.1,0,0,1,3-1.87,2,2,0,0,1,.77.13Z" style="fill:#bbbdbf"/><path d="M538.45,315.82a3.07,3.07,0,0,0,2-.68,2.39,2.39,0,0,0,.89-1.77h1.12a3.26,3.26,0,0,1-.6,1.75,3.79,3.79,0,0,1-1.47,1.24,4.58,4.58,0,0,1-2,.44,4.09,4.09,0,0,1-3.28-1.43A5.8,5.8,0,0,1,534,311.5v-.35a6.62,6.62,0,0,1,.54-2.75,4.23,4.23,0,0,1,1.56-1.84,4.28,4.28,0,0,1,2.38-.66,4.09,4.09,0,0,1,2.85,1,3.75,3.75,0,0,1,1.2,2.71h-1.12A3,3,0,0,0,536,308a5.15,5.15,0,0,0-.87,3.19v.34a5.05,5.05,0,0,0,.87,3.14A2.91,2.91,0,0,0,538.45,315.82Z" style="fill:#bbbdbf"/><path d="M546,307.88a4.08,4.08,0,0,1,1.46-1.46,3.91,3.91,0,0,1,2-.52,3.13,3.13,0,0,1,2.51,1,4.29,4.29,0,0,1,.84,2.85v6.9h-1.16V309.7a3.13,3.13,0,0,0-.6-2.1,2.31,2.31,0,0,0-1.87-.68,2.93,2.93,0,0,0-1.91.67,3.89,3.89,0,0,0-1.23,1.82v7.2h-1.16V301.69H546Z" style="fill:#bbbdbf"/><path d="M584.56,303.48h-4.85v13.13h-1.19V303.48h-4.84v-1h10.88Z" style="fill:#bbbdbf"/><path d="M592.11,316.61a5.3,5.3,0,0,1-.22-1.47,4.11,4.11,0,0,1-1.56,1.23,4.75,4.75,0,0,1-2,.43,3.52,3.52,0,0,1-2.45-.84,2.74,2.74,0,0,1-.94-2.14,2.83,2.83,0,0,1,1.28-2.43,6.18,6.18,0,0,1,3.56-.89h2.11v-1.2a2.28,2.28,0,0,0-.7-1.77,2.87,2.87,0,0,0-2-.64,3.13,3.13,0,0,0-2,.62,1.82,1.82,0,0,0-.8,1.49h-1.17a2.7,2.7,0,0,1,1.17-2.17,4.5,4.5,0,0,1,2.86-.92,4.14,4.14,0,0,1,2.78.88,3.2,3.2,0,0,1,1,2.46v5a6.2,6.2,0,0,0,.32,2.28v.12Zm-3.65-.84a3.86,3.86,0,0,0,2.08-.56,3.4,3.4,0,0,0,1.34-1.5v-2.32H589.8a5.28,5.28,0,0,0-2.72.64,1.9,1.9,0,0,0-1,1.69,1.87,1.87,0,0,0,.65,1.47A2.48,2.48,0,0,0,588.46,315.77Z" style="fill:#bbbdbf"/><path d="M595.67,311.26a6.3,6.3,0,0,1,1.09-3.91,3.54,3.54,0,0,1,3-1.45,3.66,3.66,0,0,1,3.26,1.71l.06-1.51h1.09v10.3a4.44,4.44,0,0,1-1.14,3.21,4.08,4.08,0,0,1-3.08,1.19,4.75,4.75,0,0,1-2.09-.49,4.08,4.08,0,0,1-1.57-1.31l.65-.7a3.68,3.68,0,0,0,2.93,1.52,3,3,0,0,0,2.27-.86,3.42,3.42,0,0,0,.85-2.39v-1.32a3.74,3.74,0,0,1-3.25,1.55,3.51,3.51,0,0,1-2.94-1.45,6.35,6.35,0,0,1-1.1-3.94Zm1.17.2a5.45,5.45,0,0,0,.81,3.17,2.58,2.58,0,0,0,2.27,1.16,3.11,3.11,0,0,0,3-1.92V309a3.31,3.31,0,0,0-1.18-1.54,3.16,3.16,0,0,0-1.84-.52,2.62,2.62,0,0,0-2.28,1.15A5.77,5.77,0,0,0,596.84,311.46Z" style="fill:#bbbdbf"/><path d="M613.46,313.94a1.66,1.66,0,0,0-.69-1.39,5.42,5.42,0,0,0-2.1-.82,10,10,0,0,1-2.17-.68,2.87,2.87,0,0,1-1.14-.94,2.35,2.35,0,0,1-.38-1.34,2.5,2.5,0,0,1,1-2,4.14,4.14,0,0,1,2.66-.82,4.3,4.3,0,0,1,2.82.87,2.8,2.8,0,0,1,1.07,2.27H613.4a1.87,1.87,0,0,0-.77-1.53,3.49,3.49,0,0,0-3.79-.1,1.57,1.57,0,0,0-.69,1.32,1.42,1.42,0,0,0,.58,1.22,6,6,0,0,0,2.1.79,10.12,10.12,0,0,1,2.3.77,3.06,3.06,0,0,1,1.13,1,2.57,2.57,0,0,1,.37,1.39,2.51,2.51,0,0,1-1.08,2.13,4.58,4.58,0,0,1-2.8.79,4.73,4.73,0,0,1-3-.88,2.76,2.76,0,0,1-1.14-2.25h1.17a2,2,0,0,0,.86,1.58,3.5,3.5,0,0,0,2.09.57,3.34,3.34,0,0,0,2-.53A1.61,1.61,0,0,0,613.46,313.94Z" style="fill:#bbbdbf"/><path d="M646.07,303.48h-4.85v13.13H640V303.48h-4.84v-1h10.88Z" style="fill:#bbbdbf"/><path d="M649.24,307.88a4.08,4.08,0,0,1,1.46-1.46,3.91,3.91,0,0,1,2-.52,3.13,3.13,0,0,1,2.51,1,4.29,4.29,0,0,1,.84,2.85v6.9h-1.16V309.7a3.13,3.13,0,0,0-.6-2.1,2.31,2.31,0,0,0-1.87-.68,2.93,2.93,0,0,0-1.91.67,3.89,3.89,0,0,0-1.23,1.82v7.2h-1.16V301.69h1.16Z" style="fill:#bbbdbf"/><path d="M663.07,316.8a4.56,4.56,0,0,1-2.42-.66A4.43,4.43,0,0,1,659,314.3a5.73,5.73,0,0,1-.6-2.64v-.42a6.08,6.08,0,0,1,.59-2.73,4.62,4.62,0,0,1,1.63-1.91,4.08,4.08,0,0,1,2.28-.7,3.8,3.8,0,0,1,3,1.31,5.29,5.29,0,0,1,1.12,3.57v.65h-7.49v.23a4.39,4.39,0,0,0,1,3,3.23,3.23,0,0,0,2.58,1.19,3.77,3.77,0,0,0,1.65-.34,3.62,3.62,0,0,0,1.29-1.09l.73.56A4.22,4.22,0,0,1,663.07,316.8Zm-.21-9.9a2.9,2.9,0,0,0-2.21,1,4.43,4.43,0,0,0-1.1,2.58h6.31v-.13a3.78,3.78,0,0,0-.87-2.46A2.64,2.64,0,0,0,662.86,306.9Z" style="fill:#bbbdbf"/><path d="M670.34,306.1l0,1.71a3.82,3.82,0,0,1,1.45-1.43,4,4,0,0,1,1.95-.48,2.94,2.94,0,0,1,3.15,2,4.05,4.05,0,0,1,1.51-1.51,4.21,4.21,0,0,1,2.08-.53q3.38,0,3.44,3.7v7H682.8v-6.93a3.16,3.16,0,0,0-.61-2.09,2.49,2.49,0,0,0-2-.67,3.05,3.05,0,0,0-2.11.81,2.81,2.81,0,0,0-1,1.92v7H676v-7a2.89,2.89,0,0,0-.64-2,2.52,2.52,0,0,0-1.92-.66,2.92,2.92,0,0,0-1.89.62,3.78,3.78,0,0,0-1.17,1.86v7.21h-1.16V306.1Z" style="fill:#bbbdbf"/><path d="M691,316.8a4.59,4.59,0,0,1-2.43-.66,4.47,4.47,0,0,1-1.68-1.84,5.73,5.73,0,0,1-.6-2.64v-.42a6.08,6.08,0,0,1,.59-2.73,4.62,4.62,0,0,1,1.63-1.91,4.08,4.08,0,0,1,2.28-.7,3.8,3.8,0,0,1,3,1.31,5.29,5.29,0,0,1,1.12,3.57v.65h-7.5v.23a4.35,4.35,0,0,0,1,3,3.23,3.23,0,0,0,2.58,1.19,3.7,3.7,0,0,0,1.64-.34,3.56,3.56,0,0,0,1.3-1.09l.73.56A4.24,4.24,0,0,1,691,316.8Zm-.21-9.9a2.92,2.92,0,0,0-2.22,1,4.49,4.49,0,0,0-1.09,2.58h6.31v-.13a3.84,3.84,0,0,0-.87-2.46A2.64,2.64,0,0,0,690.77,306.9Z" style="fill:#bbbdbf"/><path d="M703.48,313.94a1.66,1.66,0,0,0-.69-1.39,5.49,5.49,0,0,0-2.1-.82,10,10,0,0,1-2.17-.68,2.87,2.87,0,0,1-1.14-.94,2.35,2.35,0,0,1-.38-1.34,2.5,2.5,0,0,1,1-2,4.14,4.14,0,0,1,2.66-.82,4.28,4.28,0,0,1,2.82.87,2.8,2.8,0,0,1,1.07,2.27h-1.17a1.87,1.87,0,0,0-.77-1.53,3.49,3.49,0,0,0-3.79-.1,1.57,1.57,0,0,0-.69,1.32,1.42,1.42,0,0,0,.58,1.22,6,6,0,0,0,2.1.79,10.12,10.12,0,0,1,2.3.77,3.06,3.06,0,0,1,1.13,1,2.57,2.57,0,0,1,.37,1.39,2.51,2.51,0,0,1-1.08,2.13,4.58,4.58,0,0,1-2.8.79,4.73,4.73,0,0,1-3-.88,2.76,2.76,0,0,1-1.14-2.25h1.17a2,2,0,0,0,.86,1.58,3.5,3.5,0,0,0,2.09.57,3.34,3.34,0,0,0,2-.53A1.61,1.61,0,0,0,703.48,313.94Z" style="fill:#bbbdbf"/><path d="M731.15,314.86l.07.3.09-.3,4.45-12.39h1.31l-5.26,14.14h-1.15l-5.26-14.14h1.3Z" style="fill:#bbbdbf"/><path d="M742.52,316.8a4.56,4.56,0,0,1-2.42-.66,4.49,4.49,0,0,1-1.69-1.84,5.73,5.73,0,0,1-.6-2.64v-.42a6.21,6.21,0,0,1,.59-2.73A4.62,4.62,0,0,1,740,306.6a4.08,4.08,0,0,1,2.28-.7,3.8,3.8,0,0,1,3,1.31,5.29,5.29,0,0,1,1.12,3.57v.65H739v.23a4.39,4.39,0,0,0,1,3,3.23,3.23,0,0,0,2.58,1.19,3.77,3.77,0,0,0,1.65-.34,3.62,3.62,0,0,0,1.29-1.09l.73.56A4.22,4.22,0,0,1,742.52,316.8Zm-.21-9.9a2.9,2.9,0,0,0-2.21,1,4.43,4.43,0,0,0-1.1,2.58h6.31v-.13a3.78,3.78,0,0,0-.87-2.46A2.64,2.64,0,0,0,742.31,306.9Z" style="fill:#bbbdbf"/><path d="M753.58,307.09a3.84,3.84,0,0,0-.78-.07,2.8,2.8,0,0,0-1.84.61,3.36,3.36,0,0,0-1.08,1.76v7.22h-1.15V306.1h1.14v1.67a3.11,3.11,0,0,1,3-1.87,1.93,1.93,0,0,1,.76.13Z" style="fill:#bbbdbf"/><path d="M761.72,313.94a1.67,1.67,0,0,0-.7-1.39,5.37,5.37,0,0,0-2.09-.82,9.82,9.82,0,0,1-2.17-.68,2.91,2.91,0,0,1-1.15-.94,2.34,2.34,0,0,1-.37-1.34,2.47,2.47,0,0,1,1-2,4.14,4.14,0,0,1,2.66-.82,4.32,4.32,0,0,1,2.82.87,2.79,2.79,0,0,1,1.06,2.27h-1.16a1.89,1.89,0,0,0-.77-1.53,3,3,0,0,0-1.95-.61,3,3,0,0,0-1.84.51,1.56,1.56,0,0,0-.7,1.32A1.45,1.45,0,0,0,757,310a6.14,6.14,0,0,0,2.11.79,10,10,0,0,1,2.29.77,2.9,2.9,0,0,1,1.13,1,2.49,2.49,0,0,1,.37,1.39,2.53,2.53,0,0,1-1.07,2.13,4.6,4.6,0,0,1-2.8.79,4.72,4.72,0,0,1-3-.88,2.76,2.76,0,0,1-1.14-2.25h1.16a2,2,0,0,0,.86,1.58,3.53,3.53,0,0,0,2.1.57,3.34,3.34,0,0,0,2-.53A1.61,1.61,0,0,0,761.72,313.94Z" style="fill:#bbbdbf"/><path d="M765.43,303.06a.81.81,0,0,1,1.38-.55.74.74,0,0,1,.22.55.72.72,0,0,1-.22.55.77.77,0,0,1-.59.22.74.74,0,0,1-.79-.77Zm1.37,13.55h-1.17V306.1h1.17Z" style="fill:#bbbdbf"/><path d="M769.31,311.2a6.21,6.21,0,0,1,.59-2.73,4.43,4.43,0,0,1,4.1-2.57,4.31,4.31,0,0,1,3.39,1.48,5.66,5.66,0,0,1,1.31,3.9v.24a6.23,6.23,0,0,1-.59,2.74,4.29,4.29,0,0,1-1.66,1.88,4.53,4.53,0,0,1-2.44.66,4.32,4.32,0,0,1-3.39-1.47,5.66,5.66,0,0,1-1.31-3.9Zm1.17.32a4.69,4.69,0,0,0,1,3.09,3.29,3.29,0,0,0,5.1,0,4.92,4.92,0,0,0,1-3.19v-.22a5.36,5.36,0,0,0-.45-2.21,3.58,3.58,0,0,0-1.25-1.55,3.23,3.23,0,0,0-1.84-.54,3.1,3.1,0,0,0-2.54,1.21,5,5,0,0,0-1,3.2Z" style="fill:#bbbdbf"/><path d="M782.2,306.1l0,1.8a4.22,4.22,0,0,1,1.48-1.49,3.84,3.84,0,0,1,1.95-.51,3.14,3.14,0,0,1,2.52,1,4.23,4.23,0,0,1,.83,2.85v6.9h-1.15V309.7a3.25,3.25,0,0,0-.6-2.1,2.34,2.34,0,0,0-1.88-.68,2.93,2.93,0,0,0-1.91.67,4,4,0,0,0-1.23,1.82v7.2H781.1V306.1Z" style="fill:#bbbdbf"/><path d="M792,303.06a.75.75,0,0,1,.79-.78.79.79,0,0,1,.59.23.74.74,0,0,1,.22.55.72.72,0,0,1-.22.55.78.78,0,0,1-.59.22.74.74,0,0,1-.79-.77Zm1.37,13.55h-1.17V306.1h1.17Z" style="fill:#bbbdbf"/><path d="M797.59,306.1l0,1.8a4.14,4.14,0,0,1,1.48-1.49,3.84,3.84,0,0,1,1.95-.51,3.12,3.12,0,0,1,2.51,1,4.29,4.29,0,0,1,.84,2.85v6.9h-1.16V309.7a3.19,3.19,0,0,0-.59-2.1,2.35,2.35,0,0,0-1.88-.68,2.93,2.93,0,0,0-1.91.67,3.89,3.89,0,0,0-1.23,1.82v7.2h-1.16V306.1Z" style="fill:#bbbdbf"/><path d="M806.94,311.26a6.31,6.31,0,0,1,1.1-3.91,3.52,3.52,0,0,1,3-1.45,3.66,3.66,0,0,1,3.27,1.71l.06-1.51h1.09v10.3a4.44,4.44,0,0,1-1.14,3.21,4.08,4.08,0,0,1-3.08,1.19,4.75,4.75,0,0,1-2.09-.49,4.08,4.08,0,0,1-1.57-1.31l.65-.7a3.68,3.68,0,0,0,2.93,1.52,3,3,0,0,0,2.27-.86,3.42,3.42,0,0,0,.85-2.39v-1.32A3.74,3.74,0,0,1,811,316.8a3.51,3.51,0,0,1-2.94-1.45,6.36,6.36,0,0,1-1.11-3.94Zm1.18.2a5.45,5.45,0,0,0,.81,3.17,2.58,2.58,0,0,0,2.27,1.16,3.11,3.11,0,0,0,3-1.92V309a3.31,3.31,0,0,0-1.18-1.54,3.16,3.16,0,0,0-1.84-.52,2.62,2.62,0,0,0-2.28,1.15A5.77,5.77,0,0,0,808.12,311.46Z" style="fill:#bbbdbf"/><g id="Layer_3" data-name="Layer 3"><rect x="359" y="162" width="594" height="32" rx="16" style="fill:#1b75bb"/><line x1="358" y1="178" x2="81" y2="178" style="fill:none;stroke:#1b75bb;stroke-linecap:square;stroke-miterlimit:10;stroke-width:2px"/><line x1="1232" y1="178" x2="953" y2="178" style="fill:none;stroke:#1b75bb;stroke-linecap:square;stroke-miterlimit:10;stroke-width:2px"/><path d="M418.56,181.91V171.19h3.16a5,5,0,0,1,2.53.63,4.29,4.29,0,0,1,1.7,1.8,5.74,5.74,0,0,1,.61,2.67v.53a5.73,5.73,0,0,1-.61,2.68,4.33,4.33,0,0,1-1.73,1.79,5.29,5.29,0,0,1-2.58.62Zm1.86-9.22v7.73h1.22a2.82,2.82,0,0,0,2.25-.91,4,4,0,0,0,.8-2.64v-.59a4.14,4.14,0,0,0-.76-2.67,2.71,2.71,0,0,0-2.21-.92Z" style="fill:#bbbdbf"/><path d="M431.75,182.06A3.72,3.72,0,0,1,429,181a3.93,3.93,0,0,1-1.06-2.86v-.22a4.9,4.9,0,0,1,.46-2.13,3.49,3.49,0,0,1,1.3-1.46,3.38,3.38,0,0,1,1.85-.52,3.13,3.13,0,0,1,2.52,1,4.43,4.43,0,0,1,.89,2.94v.73h-5.21a2.38,2.38,0,0,0,.66,1.56,2,2,0,0,0,1.45.57,2.45,2.45,0,0,0,2-1l1,.92a3.3,3.3,0,0,1-1.28,1.11A4,4,0,0,1,431.75,182.06Zm-.21-6.83a1.48,1.48,0,0,0-1.19.52,2.57,2.57,0,0,0-.58,1.43h3.41v-.13a2.19,2.19,0,0,0-.48-1.36A1.52,1.52,0,0,0,431.54,175.23Z" style="fill:#bbbdbf"/><path d="M440.8,179.75a.82.82,0,0,0-.39-.73,4,4,0,0,0-1.31-.44,6.47,6.47,0,0,1-1.52-.49,2,2,0,0,1-1.35-1.88,2.11,2.11,0,0,1,.87-1.72,3.45,3.45,0,0,1,2.21-.69,3.56,3.56,0,0,1,2.31.7,2.25,2.25,0,0,1,.88,1.84h-1.79a1.12,1.12,0,0,0-.38-.86,1.46,1.46,0,0,0-1-.34,1.6,1.6,0,0,0-1,.27.85.85,0,0,0-.37.73.73.73,0,0,0,.35.64,4.91,4.91,0,0,0,1.4.46,6.59,6.59,0,0,1,1.65.55,2.36,2.36,0,0,1,.89.77,2,2,0,0,1,.29,1.09,2.07,2.07,0,0,1-.89,1.74,3.75,3.75,0,0,1-2.33.67,4.2,4.2,0,0,1-1.75-.35,2.83,2.83,0,0,1-1.19-1,2.24,2.24,0,0,1-.43-1.33h1.74a1.25,1.25,0,0,0,.48,1,1.89,1.89,0,0,0,1.17.34,1.78,1.78,0,0,0,1.07-.27A.82.82,0,0,0,440.8,179.75Z" style="fill:#bbbdbf"/><path d="M446.71,178.5l-.8.81v2.6h-1.79V170.6h1.79v6.52l.56-.69,2.21-2.49h2.15l-3,3.33,3.27,4.64h-2.07Z" style="fill:#bbbdbf"/><path d="M454.24,172v1.93h1.4v1.33h-1.4v4.45a1,1,0,0,0,.18.66.84.84,0,0,0,.64.2,3.38,3.38,0,0,0,.63-.07v1.38a4.55,4.55,0,0,1-1.18.17c-1.38,0-2.06-.76-2.06-2.28v-4.51h-1.31v-1.33h1.31V172Z" style="fill:#bbbdbf"/><path d="M456.45,177.85a4.71,4.71,0,0,1,.47-2.11,3.43,3.43,0,0,1,1.3-1.44,3.63,3.63,0,0,1,1.93-.5,3.48,3.48,0,0,1,2.62,1,4.13,4.13,0,0,1,1.09,2.76V178a4.8,4.8,0,0,1-.45,2.11,3.34,3.34,0,0,1-1.3,1.43,3.67,3.67,0,0,1-1.94.51,3.44,3.44,0,0,1-2.7-1.12,4.3,4.3,0,0,1-1-3Zm1.79.16a3.23,3.23,0,0,0,.51,1.93,1.66,1.66,0,0,0,1.42.69,1.62,1.62,0,0,0,1.41-.71,3.59,3.59,0,0,0,.5-2.07,3.14,3.14,0,0,0-.52-1.91,1.67,1.67,0,0,0-1.41-.71,1.63,1.63,0,0,0-1.39.7A3.43,3.43,0,0,0,458.24,178Z" style="fill:#bbbdbf"/><path d="M472.36,178a4.76,4.76,0,0,1-.84,3,2.93,2.93,0,0,1-4.36.24V185h-1.79v-11H467l.08.81a2.64,2.64,0,0,1,2.14-.95,2.74,2.74,0,0,1,2.29,1.08,4.9,4.9,0,0,1,.83,3Zm-1.79-.16a3.39,3.39,0,0,0-.47-1.89,1.54,1.54,0,0,0-1.36-.7,1.65,1.65,0,0,0-1.58.91v3.53a1.67,1.67,0,0,0,1.59.93,1.54,1.54,0,0,0,1.34-.69A3.67,3.67,0,0,0,470.57,177.85Z" style="fill:#bbbdbf"/><path d="M482.39,181.91a2.7,2.7,0,0,1-.21-.74,2.8,2.8,0,0,1-2.09.89,2.85,2.85,0,0,1-2-.68,2.2,2.2,0,0,1-.76-1.7,2.25,2.25,0,0,1,.95-2A4.53,4.53,0,0,1,481,177h1.1v-.52a1.24,1.24,0,0,0-1.4-1.36,1.59,1.59,0,0,0-1,.3,1,1,0,0,0-.39.78h-1.79A2,2,0,0,1,478,175a2.91,2.91,0,0,1,1.18-.89,4.08,4.08,0,0,1,1.67-.32,3.35,3.35,0,0,1,2.23.7,2.51,2.51,0,0,1,.85,2v3.59a4.12,4.12,0,0,0,.3,1.72v.12Zm-2-1.29a2.06,2.06,0,0,0,1-.25,1.81,1.81,0,0,0,.7-.7v-1.5h-1a2.66,2.66,0,0,0-1.5.35,1.12,1.12,0,0,0-.5,1,1.08,1.08,0,0,0,.34.82A1.36,1.36,0,0,0,480.42,180.62Z" style="fill:#bbbdbf"/><path d="M492.77,178a4.76,4.76,0,0,1-.84,3,2.93,2.93,0,0,1-4.36.24V185h-1.79v-11h1.65l.08.81a2.64,2.64,0,0,1,2.14-.95,2.74,2.74,0,0,1,2.29,1.08,4.9,4.9,0,0,1,.83,3Zm-1.79-.16a3.39,3.39,0,0,0-.47-1.89,1.54,1.54,0,0,0-1.36-.7,1.65,1.65,0,0,0-1.58.91v3.53a1.67,1.67,0,0,0,1.59.93,1.54,1.54,0,0,0,1.34-.69A3.67,3.67,0,0,0,491,177.85Z" style="fill:#bbbdbf"/><path d="M501.26,178a4.76,4.76,0,0,1-.84,3,2.7,2.7,0,0,1-2.26,1.1,2.74,2.74,0,0,1-2.1-.86V185h-1.79v-11h1.65l.08.81a2.64,2.64,0,0,1,2.14-.95,2.73,2.73,0,0,1,2.29,1.08,4.9,4.9,0,0,1,.83,3Zm-1.78-.16A3.31,3.31,0,0,0,499,176a1.54,1.54,0,0,0-1.36-.7,1.65,1.65,0,0,0-1.58.91v3.53a1.68,1.68,0,0,0,1.6.93,1.53,1.53,0,0,0,1.33-.69A3.66,3.66,0,0,0,499.48,177.85Z" style="fill:#bbbdbf"/><path d="M508.77,172v1.93h1.41v1.33h-1.41v4.45a1,1,0,0,0,.18.66.87.87,0,0,0,.65.2,3.37,3.37,0,0,0,.62-.07v1.38a4.55,4.55,0,0,1-1.18.17c-1.37,0-2.06-.76-2.06-2.28v-4.51h-1.31v-1.33H507V172Z" style="fill:#bbbdbf"/><path d="M511,177.85a4.7,4.7,0,0,1,.46-2.11,3.45,3.45,0,0,1,1.31-1.44,3.61,3.61,0,0,1,1.93-.5,3.47,3.47,0,0,1,2.61,1,4.09,4.09,0,0,1,1.09,2.76V178a4.67,4.67,0,0,1-.46,2.11,3.38,3.38,0,0,1-1.29,1.43,3.68,3.68,0,0,1-1.95.51,3.47,3.47,0,0,1-2.7-1.12,4.34,4.34,0,0,1-1-3Zm1.79.16a3.23,3.23,0,0,0,.51,1.93,1.64,1.64,0,0,0,1.41.69,1.62,1.62,0,0,0,1.41-.71,3.52,3.52,0,0,0,.5-2.07,3.2,3.2,0,0,0-.51-1.91,1.67,1.67,0,0,0-1.41-.71,1.65,1.65,0,0,0-1.4.7A3.5,3.5,0,0,0,512.78,178Z" style="fill:#bbbdbf"/><path d="M527.18,182.06a3.71,3.71,0,0,1-2.76-1.07,3.89,3.89,0,0,1-1.06-2.86v-.22a4.9,4.9,0,0,1,.46-2.13,3.53,3.53,0,0,1,1.29-1.46,3.43,3.43,0,0,1,1.86-.52,3.14,3.14,0,0,1,2.52,1,4.43,4.43,0,0,1,.88,2.94v.73h-5.2a2.38,2.38,0,0,0,.66,1.56,2,2,0,0,0,1.45.57,2.41,2.41,0,0,0,2-1l1,.92a3.37,3.37,0,0,1-1.28,1.11A4,4,0,0,1,527.18,182.06Zm-.22-6.83a1.5,1.5,0,0,0-1.19.52,2.64,2.64,0,0,0-.57,1.43h3.41v-.13a2.19,2.19,0,0,0-.48-1.36A1.53,1.53,0,0,0,527,175.23Z" style="fill:#bbbdbf"/><path d="M536.52,181.91a3.22,3.22,0,0,1-.2-.74,3,3,0,0,1-4.05.21,2.2,2.2,0,0,1-.76-1.7,2.24,2.24,0,0,1,.94-2,4.58,4.58,0,0,1,2.71-.69h1.1v-.52a1.41,1.41,0,0,0-.35-1,1.36,1.36,0,0,0-1-.37,1.59,1.59,0,0,0-1,.3,1,1,0,0,0-.39.78h-1.79a2,2,0,0,1,.43-1.23,3,3,0,0,1,1.18-.89,4.11,4.11,0,0,1,1.67-.32,3.31,3.31,0,0,1,2.23.7,2.52,2.52,0,0,1,.86,2v3.59a4.12,4.12,0,0,0,.3,1.72v.12Zm-2-1.29a2.09,2.09,0,0,0,1-.25,1.81,1.81,0,0,0,.7-.7v-1.5h-1a2.62,2.62,0,0,0-1.49.35,1.1,1.1,0,0,0-.5,1,1.05,1.05,0,0,0,.34.82A1.34,1.34,0,0,0,534.56,180.62Z" style="fill:#bbbdbf"/><path d="M544.39,179.75A.82.82,0,0,0,544,179a4,4,0,0,0-1.31-.44,6.72,6.72,0,0,1-1.53-.49,2,2,0,0,1-1.34-1.88,2.11,2.11,0,0,1,.87-1.72,3.45,3.45,0,0,1,2.21-.69,3.58,3.58,0,0,1,2.31.7,2.25,2.25,0,0,1,.88,1.84H544.3a1.12,1.12,0,0,0-.38-.86,1.46,1.46,0,0,0-1-.34,1.6,1.6,0,0,0-1,.27.85.85,0,0,0-.37.73.73.73,0,0,0,.35.64,4.91,4.91,0,0,0,1.4.46,6.59,6.59,0,0,1,1.65.55,2.36,2.36,0,0,1,.89.77,2,2,0,0,1,.29,1.09,2.07,2.07,0,0,1-.89,1.74,3.76,3.76,0,0,1-2.34.67,4.19,4.19,0,0,1-1.74-.35,2.83,2.83,0,0,1-1.19-1,2.24,2.24,0,0,1-.43-1.33h1.74a1.25,1.25,0,0,0,.48,1,1.89,1.89,0,0,0,1.17.34,1.78,1.78,0,0,0,1.07-.27A.82.82,0,0,0,544.39,179.75Z" style="fill:#bbbdbf"/><path d="M547.71,171.87a1,1,0,0,1,.26-.68,1,1,0,0,1,.75-.27,1,1,0,0,1,.75.27,1,1,0,0,1,0,1.36,1,1,0,0,1-.75.27,1,1,0,0,1-.75-.27A1,1,0,0,1,547.71,171.87Zm1.9,10h-1.79v-8h1.79Z" style="fill:#bbbdbf"/><path d="M553.46,181.91h-1.79V170.6h1.79Z" style="fill:#bbbdbf"/><path d="M558.2,179.35l1.62-5.41h1.91l-3.17,9.18a2.57,2.57,0,0,1-2.47,2,3.1,3.1,0,0,1-.86-.13v-1.39l.33,0a1.41,1.41,0,0,0,1.57-1.08l.25-.68-2.8-7.93h1.93Z" style="fill:#bbbdbf"/><path d="M569.79,180.63a1.64,1.64,0,0,0,1.11-.39,1.35,1.35,0,0,0,.47-1h1.69a2.63,2.63,0,0,1-.47,1.38,3,3,0,0,1-1.18,1,3.49,3.49,0,0,1-1.6.38,3.39,3.39,0,0,1-2.65-1.08,4.26,4.26,0,0,1-1-3v-.19a4.21,4.21,0,0,1,1-2.91,3.36,3.36,0,0,1,2.65-1.09,3.29,3.29,0,0,1,2.32.82,3,3,0,0,1,.94,2.18h-1.69a1.66,1.66,0,0,0-.47-1.13,1.51,1.51,0,0,0-1.11-.44,1.57,1.57,0,0,0-1.34.63,3.14,3.14,0,0,0-.48,1.91v.29a3.19,3.19,0,0,0,.47,1.93A1.56,1.56,0,0,0,569.79,180.63Z" style="fill:#bbbdbf"/><path d="M574.07,177.85a4.71,4.71,0,0,1,.47-2.11,3.43,3.43,0,0,1,1.3-1.44,3.63,3.63,0,0,1,1.93-.5,3.48,3.48,0,0,1,2.62,1,4.13,4.13,0,0,1,1.09,2.76V178a4.8,4.8,0,0,1-.45,2.11,3.34,3.34,0,0,1-1.3,1.43,3.67,3.67,0,0,1-1.94.51,3.44,3.44,0,0,1-2.7-1.12,4.3,4.3,0,0,1-1-3Zm1.79.16a3.23,3.23,0,0,0,.51,1.93,1.66,1.66,0,0,0,1.42.69,1.62,1.62,0,0,0,1.41-.71,3.59,3.59,0,0,0,.5-2.07,3.14,3.14,0,0,0-.52-1.91,1.65,1.65,0,0,0-1.41-.71,1.63,1.63,0,0,0-1.39.7A3.5,3.5,0,0,0,575.86,178Z" style="fill:#bbbdbf"/><path d="M582.66,177.87a4.75,4.75,0,0,1,.86-3,2.74,2.74,0,0,1,2.29-1.11,2.59,2.59,0,0,1,2,.88V170.6h1.79v11.31H588l-.08-.82a2.64,2.64,0,0,1-2.15,1,2.71,2.71,0,0,1-2.26-1.13A4.88,4.88,0,0,1,582.66,177.87Zm1.79.15a3.33,3.33,0,0,0,.47,1.9,1.52,1.52,0,0,0,1.33.68,1.68,1.68,0,0,0,1.6-1v-3.4a1.65,1.65,0,0,0-1.59-1,1.53,1.53,0,0,0-1.34.69A3.73,3.73,0,0,0,584.45,178Z" style="fill:#bbbdbf"/><path d="M595,182.06a3.74,3.74,0,0,1-2.76-1.07,3.92,3.92,0,0,1-1-2.86v-.22a4.76,4.76,0,0,1,.46-2.13,3.42,3.42,0,0,1,3.14-2,3.13,3.13,0,0,1,2.52,1,4.43,4.43,0,0,1,.89,2.94v.73H593a2.38,2.38,0,0,0,.66,1.56,2,2,0,0,0,1.45.57,2.45,2.45,0,0,0,2-1l1,.92a3.3,3.3,0,0,1-1.28,1.11A4,4,0,0,1,595,182.06Zm-.21-6.83a1.49,1.49,0,0,0-1.19.52,2.64,2.64,0,0,0-.58,1.43h3.41v-.13a2.19,2.19,0,0,0-.48-1.36A1.52,1.52,0,0,0,594.81,175.23Z" style="fill:#bbbdbf"/><path d="M608.12,181.91a3.22,3.22,0,0,1-.2-.74,3,3,0,0,1-4,.21,2.2,2.2,0,0,1-.76-1.7,2.23,2.23,0,0,1,.95-2,4.53,4.53,0,0,1,2.7-.69h1.1v-.52a1.41,1.41,0,0,0-.35-1,1.36,1.36,0,0,0-1-.37,1.59,1.59,0,0,0-1,.3,1,1,0,0,0-.39.78h-1.79a2,2,0,0,1,.43-1.23,2.94,2.94,0,0,1,1.19-.89,4,4,0,0,1,1.66-.32,3.31,3.31,0,0,1,2.23.7,2.52,2.52,0,0,1,.86,2v3.59a4.12,4.12,0,0,0,.3,1.72v.12Zm-2-1.29a2.09,2.09,0,0,0,1-.25,1.81,1.81,0,0,0,.7-.7v-1.5h-1a2.62,2.62,0,0,0-1.49.35,1.12,1.12,0,0,0-.5,1,1.05,1.05,0,0,0,.34.82A1.34,1.34,0,0,0,606.16,180.62Z" style="fill:#bbbdbf"/><path d="M613.18,173.94l.06.92a2.86,2.86,0,0,1,2.32-1.06c1.66,0,2.5.95,2.53,2.85v5.26H616.3v-5.16a1.61,1.61,0,0,0-.33-1.12,1.35,1.35,0,0,0-1.07-.37,1.72,1.72,0,0,0-1.61,1v5.67H611.5v-8Z" style="fill:#bbbdbf"/><path d="M619.58,177.87a4.75,4.75,0,0,1,.85-3,2.75,2.75,0,0,1,2.29-1.11,2.59,2.59,0,0,1,2,.88V170.6h1.79v11.31h-1.62l-.09-.82a2.62,2.62,0,0,1-2.14,1,2.75,2.75,0,0,1-2.27-1.13A4.94,4.94,0,0,1,619.58,177.87Zm1.79.15a3.26,3.26,0,0,0,.47,1.9,1.52,1.52,0,0,0,1.33.68,1.69,1.69,0,0,0,1.6-1v-3.4a1.67,1.67,0,0,0-1.59-1,1.52,1.52,0,0,0-1.34.69A3.64,3.64,0,0,0,621.37,178Z" style="fill:#bbbdbf"/><path d="M631.85,177.85a4.7,4.7,0,0,1,.46-2.11,3.45,3.45,0,0,1,1.31-1.44,3.63,3.63,0,0,1,1.93-.5,3.51,3.51,0,0,1,2.62,1,4.13,4.13,0,0,1,1.08,2.76V178a4.8,4.8,0,0,1-.45,2.11,3.46,3.46,0,0,1-1.3,1.43,3.68,3.68,0,0,1-2,.51,3.47,3.47,0,0,1-2.7-1.12,4.34,4.34,0,0,1-1-3Zm1.79.16a3.23,3.23,0,0,0,.51,1.93,1.66,1.66,0,0,0,1.41.69,1.6,1.6,0,0,0,1.41-.71,3.51,3.51,0,0,0,.51-2.07,3.2,3.2,0,0,0-.52-1.91,1.67,1.67,0,0,0-1.41-.71,1.65,1.65,0,0,0-1.4.7A3.5,3.5,0,0,0,633.64,178Z" style="fill:#bbbdbf"/><path d="M644.94,175.58a4.2,4.2,0,0,0-.72-.06,1.64,1.64,0,0,0-1.66.94v5.45h-1.79v-8h1.71l0,.89a2,2,0,0,1,1.8-1,1.63,1.63,0,0,1,.63.1Z" style="fill:#bbbdbf"/><path d="M645.62,177.87a4.63,4.63,0,0,1,.88-3,2.81,2.81,0,0,1,2.31-1.1,2.63,2.63,0,0,1,2.15.95l.08-.81h1.61v7.73a3.19,3.19,0,0,1-1,2.47,3.67,3.67,0,0,1-2.63.91,4.27,4.27,0,0,1-1.71-.36,3.12,3.12,0,0,1-1.27-1l.84-1.07a2.57,2.57,0,0,0,2,1,1.93,1.93,0,0,0,1.4-.49,1.81,1.81,0,0,0,.52-1.41v-.54a2.65,2.65,0,0,1-2.06.86,2.79,2.79,0,0,1-2.29-1.11A4.83,4.83,0,0,1,645.62,177.87Zm1.78.15a3.19,3.19,0,0,0,.5,1.89,1.55,1.55,0,0,0,1.35.69,1.72,1.72,0,0,0,1.61-.93v-3.5a1.69,1.69,0,0,0-1.59-.91,1.56,1.56,0,0,0-1.37.7A3.58,3.58,0,0,0,647.4,178Z" style="fill:#bbbdbf"/><path d="M659.25,181.91a2.7,2.7,0,0,1-.21-.74,2.79,2.79,0,0,1-2.09.89,2.85,2.85,0,0,1-2-.68,2.38,2.38,0,0,1,.19-3.65,4.54,4.54,0,0,1,2.71-.69H659v-.52a1.4,1.4,0,0,0-.34-1,1.37,1.37,0,0,0-1.06-.37,1.61,1.61,0,0,0-1,.3,1,1,0,0,0-.39.78H654.4a2,2,0,0,1,.44-1.23,2.91,2.91,0,0,1,1.18-.89,4.08,4.08,0,0,1,1.67-.32,3.35,3.35,0,0,1,2.23.7,2.51,2.51,0,0,1,.85,2v3.59a4,4,0,0,0,.31,1.72v.12Zm-2-1.29a2,2,0,0,0,1-.25,1.75,1.75,0,0,0,.7-.7v-1.5h-1a2.68,2.68,0,0,0-1.5.35,1.12,1.12,0,0,0-.5,1,1.06,1.06,0,0,0,.35.82A1.31,1.31,0,0,0,657.28,180.62Z" style="fill:#bbbdbf"/><path d="M664.31,173.94l.05.92a2.86,2.86,0,0,1,2.32-1.06c1.66,0,2.51.95,2.53,2.85v5.26h-1.79v-5.16a1.61,1.61,0,0,0-.32-1.12,1.36,1.36,0,0,0-1.07-.37,1.74,1.74,0,0,0-1.62,1v5.67h-1.79v-8Z" style="fill:#bbbdbf"/><path d="M671,171.87a1,1,0,0,1,.26-.68,1.18,1.18,0,0,1,1.5,0,1,1,0,0,1,0,1.36,1.18,1.18,0,0,1-1.5,0A1,1,0,0,1,671,171.87Zm1.9,10h-1.79v-8h1.79Z" style="fill:#bbbdbf"/><path d="M676.8,180.48H681v1.43h-6.46v-1.17l4-5.35h-4v-1.45h6.24v1.14Z" style="fill:#bbbdbf"/><path d="M685.87,182.06a3.71,3.71,0,0,1-2.76-1.07,3.89,3.89,0,0,1-1.06-2.86v-.22a4.9,4.9,0,0,1,.46-2.13,3.53,3.53,0,0,1,1.29-1.46,3.43,3.43,0,0,1,1.86-.52,3.14,3.14,0,0,1,2.52,1,4.43,4.43,0,0,1,.88,2.94v.73h-5.2a2.38,2.38,0,0,0,.66,1.56,2,2,0,0,0,1.45.57,2.41,2.41,0,0,0,2-1l1,.92a3.37,3.37,0,0,1-1.28,1.11A4,4,0,0,1,685.87,182.06Zm-.22-6.83a1.5,1.5,0,0,0-1.19.52,2.64,2.64,0,0,0-.57,1.43h3.41v-.13a2.19,2.19,0,0,0-.48-1.36A1.53,1.53,0,0,0,685.65,175.23Z" style="fill:#bbbdbf"/><path d="M699,181.91a2.7,2.7,0,0,1-.21-.74,2.77,2.77,0,0,1-2.09.89,2.85,2.85,0,0,1-2-.68,2.4,2.4,0,0,1,.19-3.65,4.54,4.54,0,0,1,2.71-.69h1.1v-.52a1.41,1.41,0,0,0-.35-1,1.36,1.36,0,0,0-1.05-.37,1.62,1.62,0,0,0-1,.3,1,1,0,0,0-.39.78h-1.79a2,2,0,0,1,.44-1.23,2.91,2.91,0,0,1,1.18-.89,4.11,4.11,0,0,1,1.67-.32,3.33,3.33,0,0,1,2.23.7,2.52,2.52,0,0,1,.86,2v3.59a4.12,4.12,0,0,0,.3,1.72v.12Zm-2-1.29a2,2,0,0,0,1-.25,1.84,1.84,0,0,0,.71-.7v-1.5h-1a2.62,2.62,0,0,0-1.49.35,1.1,1.1,0,0,0-.5,1,1.05,1.05,0,0,0,.34.82A1.33,1.33,0,0,0,697,180.62Z" style="fill:#bbbdbf"/><path d="M704.61,172v1.93H706v1.33h-1.41v4.45a1,1,0,0,0,.18.66.87.87,0,0,0,.65.2,3.37,3.37,0,0,0,.62-.07v1.38a4.47,4.47,0,0,1-1.17.17q-2.07,0-2.07-2.28v-4.51h-1.31v-1.33h1.31V172Z" style="fill:#bbbdbf"/><path d="M715.9,181.91a3.22,3.22,0,0,1-.2-.74,3,3,0,0,1-4.05.21,2.2,2.2,0,0,1-.76-1.7,2.24,2.24,0,0,1,.94-2,4.58,4.58,0,0,1,2.71-.69h1.1v-.52a1.41,1.41,0,0,0-.35-1,1.36,1.36,0,0,0-1-.37,1.59,1.59,0,0,0-1,.3,1,1,0,0,0-.39.78h-1.79a2,2,0,0,1,.43-1.23,3,3,0,0,1,1.18-.89,4.11,4.11,0,0,1,1.67-.32,3.31,3.31,0,0,1,2.23.7,2.52,2.52,0,0,1,.86,2v3.59a4.12,4.12,0,0,0,.3,1.72v.12Zm-2-1.29a2.09,2.09,0,0,0,1-.25,1.81,1.81,0,0,0,.7-.7v-1.5h-1a2.62,2.62,0,0,0-1.49.35,1.1,1.1,0,0,0-.5,1,1.05,1.05,0,0,0,.34.82A1.34,1.34,0,0,0,713.94,180.62Z" style="fill:#bbbdbf"/><path d="M727.53,179.75a.81.81,0,0,0-.4-.73,3.93,3.93,0,0,0-1.3-.44,6.72,6.72,0,0,1-1.53-.49,2,2,0,0,1-1.34-1.88,2.11,2.11,0,0,1,.87-1.72,3.45,3.45,0,0,1,2.21-.69,3.59,3.59,0,0,1,2.31.7,2.27,2.27,0,0,1,.88,1.84h-1.79a1.12,1.12,0,0,0-.38-.86,1.48,1.48,0,0,0-1-.34,1.6,1.6,0,0,0-1,.27.85.85,0,0,0-.37.73.72.72,0,0,0,.34.64,5,5,0,0,0,1.4.46,6.68,6.68,0,0,1,1.66.55,2.52,2.52,0,0,1,.89.77,2,2,0,0,1,.29,1.09,2.07,2.07,0,0,1-.89,1.74,3.8,3.8,0,0,1-2.34.67,4.19,4.19,0,0,1-1.74-.35,2.86,2.86,0,0,1-1.2-1,2.3,2.3,0,0,1-.42-1.33h1.73a1.31,1.31,0,0,0,.48,1,1.93,1.93,0,0,0,1.17.34,1.83,1.83,0,0,0,1.08-.27A.84.84,0,0,0,727.53,179.75Z" style="fill:#bbbdbf"/><path d="M734.12,180.63a1.6,1.6,0,0,0,1.11-.39,1.31,1.31,0,0,0,.47-1h1.69a2.61,2.61,0,0,1-.46,1.38,3.09,3.09,0,0,1-1.18,1,3.53,3.53,0,0,1-1.61.38,3.4,3.4,0,0,1-2.65-1.08,4.31,4.31,0,0,1-1-3v-.19a4.21,4.21,0,0,1,1-2.91,3.36,3.36,0,0,1,2.65-1.09,3.29,3.29,0,0,1,2.32.82,3,3,0,0,1,.94,2.18H735.7a1.66,1.66,0,0,0-.46-1.13,1.55,1.55,0,0,0-1.12-.44,1.57,1.57,0,0,0-1.34.63,3.21,3.21,0,0,0-.48,1.91v.29a3.27,3.27,0,0,0,.47,1.93A1.56,1.56,0,0,0,734.12,180.63Z" style="fill:#bbbdbf"/><path d="M743.5,181.91a2.77,2.77,0,0,1-.2-.74,3,3,0,0,1-4,.21,2.2,2.2,0,0,1-.76-1.7,2.24,2.24,0,0,1,.94-2,4.56,4.56,0,0,1,2.71-.69h1.1v-.52a1.41,1.41,0,0,0-.35-1,1.36,1.36,0,0,0-1-.37,1.59,1.59,0,0,0-1,.3,1,1,0,0,0-.39.78h-1.79a2,2,0,0,1,.43-1.23,2.91,2.91,0,0,1,1.18-.89,4.11,4.11,0,0,1,1.67-.32,3.33,3.33,0,0,1,2.23.7,2.52,2.52,0,0,1,.86,2v3.59a4.12,4.12,0,0,0,.3,1.72v.12Zm-2-1.29a2,2,0,0,0,1-.25,1.77,1.77,0,0,0,.71-.7v-1.5h-1a2.62,2.62,0,0,0-1.49.35,1.1,1.1,0,0,0-.5,1,1.05,1.05,0,0,0,.34.82A1.34,1.34,0,0,0,741.54,180.62Z" style="fill:#bbbdbf"/><path d="M748.81,181.91H747V170.6h1.79Z" style="fill:#bbbdbf"/><path d="M754.26,182.06a3.7,3.7,0,0,1-2.75-1.07,3.89,3.89,0,0,1-1.06-2.86v-.22a4.76,4.76,0,0,1,.46-2.13,3.53,3.53,0,0,1,1.29-1.46,3.43,3.43,0,0,1,1.86-.52,3.12,3.12,0,0,1,2.51,1,4.38,4.38,0,0,1,.89,2.94v.73h-5.21a2.48,2.48,0,0,0,.66,1.56,2,2,0,0,0,1.46.57,2.41,2.41,0,0,0,2-1l1,.92a3.37,3.37,0,0,1-1.28,1.11A4,4,0,0,1,754.26,182.06Zm-.21-6.83a1.49,1.49,0,0,0-1.19.52,2.72,2.72,0,0,0-.58,1.43h3.41v-.13a2.13,2.13,0,0,0-.48-1.36A1.51,1.51,0,0,0,754.05,175.23Z" style="fill:#bbbdbf"/><path d="M771,178.42a3.89,3.89,0,0,1-1.26,2.68,4.34,4.34,0,0,1-2.94,1,4.13,4.13,0,0,1-2.26-.61,4,4,0,0,1-1.51-1.72,6.26,6.26,0,0,1-.55-2.61v-1a6.24,6.24,0,0,1,.54-2.67,4,4,0,0,1,1.54-1.78,4.29,4.29,0,0,1,2.32-.63,4.14,4.14,0,0,1,2.86,1,4,4,0,0,1,1.26,2.72h-1.85a2.64,2.64,0,0,0-.68-1.66,2.19,2.19,0,0,0-1.59-.52,2.16,2.16,0,0,0-1.86.89,4.4,4.4,0,0,0-.67,2.61v1a4.74,4.74,0,0,0,.62,2.65,2.09,2.09,0,0,0,1.83.92,2.41,2.41,0,0,0,1.65-.5,2.61,2.61,0,0,0,.7-1.64Z" style="fill:#bbbdbf"/><path d="M778.39,178.09h1.34v1.44h-1.34v2.38H776.6v-2.38H772l-.05-1.09,4.62-7.25h1.85Zm-4.59,0h2.8v-4.48l-.13.24Z" style="fill:#bbbdbf"/><path d="M787.37,171.19l3.1,8.22,3.08-8.22H796v10.72H794.1v-3.53l.19-4.73-3.17,8.26h-1.33l-3.16-8.25.18,4.72v3.53H785V171.19Z" style="fill:#bbbdbf"/><path d="M797.65,177.85a4.71,4.71,0,0,1,.47-2.11,3.43,3.43,0,0,1,1.3-1.44,3.63,3.63,0,0,1,1.93-.5,3.48,3.48,0,0,1,2.62,1,4.13,4.13,0,0,1,1.09,2.76V178a4.8,4.8,0,0,1-.45,2.11,3.34,3.34,0,0,1-1.3,1.43,3.67,3.67,0,0,1-1.94.51,3.44,3.44,0,0,1-2.7-1.12,4.3,4.3,0,0,1-1-3Zm1.79.16a3.23,3.23,0,0,0,.51,1.93,1.66,1.66,0,0,0,1.42.69,1.62,1.62,0,0,0,1.41-.71,3.59,3.59,0,0,0,.5-2.07,3.14,3.14,0,0,0-.52-1.91,1.65,1.65,0,0,0-1.41-.71,1.63,1.63,0,0,0-1.39.7A3.5,3.5,0,0,0,799.44,178Z" style="fill:#bbbdbf"/><path d="M806.24,177.87a4.75,4.75,0,0,1,.86-3,2.74,2.74,0,0,1,2.29-1.11,2.61,2.61,0,0,1,2.05.88V170.6h1.79v11.31h-1.62l-.09-.82a2.64,2.64,0,0,1-2.15,1,2.73,2.73,0,0,1-2.26-1.13A4.88,4.88,0,0,1,806.24,177.87ZM808,178a3.33,3.33,0,0,0,.47,1.9,1.53,1.53,0,0,0,1.33.68,1.7,1.7,0,0,0,1.61-1v-3.4a1.67,1.67,0,0,0-1.6-1,1.54,1.54,0,0,0-1.34.69A3.73,3.73,0,0,0,808,178Z" style="fill:#bbbdbf"/><path d="M818.6,182.06a3.74,3.74,0,0,1-2.76-1.07,3.92,3.92,0,0,1-1.05-2.86v-.22a4.76,4.76,0,0,1,.46-2.13,3.46,3.46,0,0,1,1.29-1.46,3.39,3.39,0,0,1,1.86-.52,3.12,3.12,0,0,1,2.51,1,4.43,4.43,0,0,1,.89,2.94v.73h-5.21a2.48,2.48,0,0,0,.66,1.56,2,2,0,0,0,1.46.57,2.43,2.43,0,0,0,2-1l1,.92a3.34,3.34,0,0,1-1.27,1.11A4.06,4.06,0,0,1,818.6,182.06Zm-.21-6.83a1.49,1.49,0,0,0-1.19.52,2.64,2.64,0,0,0-.58,1.43H820v-.13a2.19,2.19,0,0,0-.48-1.36A1.52,1.52,0,0,0,818.39,175.23Z" style="fill:#bbbdbf"/><path d="M825.09,181.91H823.3V170.6h1.79Z" style="fill:#bbbdbf"/><path d="M830.46,177.87a4.75,4.75,0,0,1,.86-3,2.73,2.73,0,0,1,2.29-1.11,2.59,2.59,0,0,1,2,.88V170.6h1.79v11.31h-1.62l-.09-.82a2.62,2.62,0,0,1-2.14,1,2.71,2.71,0,0,1-2.26-1.13A4.88,4.88,0,0,1,830.46,177.87Zm1.79.15a3.33,3.33,0,0,0,.47,1.9,1.52,1.52,0,0,0,1.33.68,1.69,1.69,0,0,0,1.6-1v-3.4a1.67,1.67,0,0,0-1.59-1,1.53,1.53,0,0,0-1.34.69A3.73,3.73,0,0,0,832.25,178Z" style="fill:#bbbdbf"/><path d="M839.31,171.87a.93.93,0,0,1,.27-.68,1.16,1.16,0,0,1,1.49,0,1,1,0,0,1,0,1.36,1.16,1.16,0,0,1-1.49,0A.93.93,0,0,1,839.31,171.87Zm1.9,10h-1.79v-8h1.79Z" style="fill:#bbbdbf"/><path d="M847.92,181.91a3.22,3.22,0,0,1-.2-.74,3,3,0,0,1-4.05.21,2.2,2.2,0,0,1-.76-1.7,2.24,2.24,0,0,1,.94-2,4.58,4.58,0,0,1,2.71-.69h1.1v-.52a1.41,1.41,0,0,0-.35-1,1.36,1.36,0,0,0-1-.37,1.59,1.59,0,0,0-1,.3,1,1,0,0,0-.39.78h-1.79a2,2,0,0,1,.43-1.23,3,3,0,0,1,1.18-.89,4.11,4.11,0,0,1,1.67-.32,3.33,3.33,0,0,1,2.23.7,2.52,2.52,0,0,1,.86,2v3.59a4.12,4.12,0,0,0,.3,1.72v.12Zm-2-1.29a2.09,2.09,0,0,0,1-.25,1.81,1.81,0,0,0,.7-.7v-1.5h-1a2.62,2.62,0,0,0-1.49.35,1.1,1.1,0,0,0-.5,1,1.05,1.05,0,0,0,.34.82A1.34,1.34,0,0,0,846,180.62Z" style="fill:#bbbdbf"/><path d="M851,177.87a4.68,4.68,0,0,1,.87-3,2.83,2.83,0,0,1,2.32-1.1,2.6,2.6,0,0,1,2.14.95l.08-.81H858v7.73a3.19,3.19,0,0,1-1,2.47,3.69,3.69,0,0,1-2.63.91,4.23,4.23,0,0,1-1.71-.36,3.15,3.15,0,0,1-1.28-1l.85-1.07a2.57,2.57,0,0,0,2,1,1.93,1.93,0,0,0,1.4-.49,1.81,1.81,0,0,0,.52-1.41v-.54a2.67,2.67,0,0,1-2.07.86A2.79,2.79,0,0,1,851.9,181,4.83,4.83,0,0,1,851,177.87Zm1.78.15a3.26,3.26,0,0,0,.49,1.89,1.58,1.58,0,0,0,1.36.69,1.73,1.73,0,0,0,1.61-.93v-3.5a1.69,1.69,0,0,0-1.59-.91,1.59,1.59,0,0,0-1.38.7A3.66,3.66,0,0,0,852.79,178Z" style="fill:#bbbdbf"/><path d="M864.05,175.58a4.4,4.4,0,0,0-.73-.06,1.65,1.65,0,0,0-1.66.94v5.45h-1.79v-8h1.71l0,.89a2,2,0,0,1,1.8-1,1.6,1.6,0,0,1,.63.1Z" style="fill:#bbbdbf"/><path d="M869.72,181.91a2.7,2.7,0,0,1-.21-.74,2.79,2.79,0,0,1-2.09.89,2.85,2.85,0,0,1-2-.68,2.38,2.38,0,0,1,.19-3.65,4.54,4.54,0,0,1,2.71-.69h1.09v-.52a1.4,1.4,0,0,0-.34-1,1.37,1.37,0,0,0-1.06-.37,1.61,1.61,0,0,0-1,.3,1,1,0,0,0-.39.78h-1.79a2,2,0,0,1,.44-1.23,2.91,2.91,0,0,1,1.18-.89,4.08,4.08,0,0,1,1.67-.32,3.35,3.35,0,0,1,2.23.7,2.51,2.51,0,0,1,.85,2v3.59a4,4,0,0,0,.31,1.72v.12Zm-2-1.29a2,2,0,0,0,1-.25,1.75,1.75,0,0,0,.7-.7v-1.5h-1a2.68,2.68,0,0,0-1.5.35,1.12,1.12,0,0,0-.5,1,1.08,1.08,0,0,0,.34.82A1.36,1.36,0,0,0,867.75,180.62Z" style="fill:#bbbdbf"/><path d="M874.8,173.94l.05.84a2.85,2.85,0,0,1,2.3-1,2.19,2.19,0,0,1,2.19,1.22,2.81,2.81,0,0,1,2.44-1.22,2.52,2.52,0,0,1,2,.72,3.24,3.24,0,0,1,.66,2.16v5.23h-1.79v-5.18a1.52,1.52,0,0,0-.34-1.11,1.42,1.42,0,0,0-1.09-.36,1.49,1.49,0,0,0-1,.33,1.68,1.68,0,0,0-.54.86v5.46h-1.79v-5.24a1.28,1.28,0,0,0-1.44-1.41,1.57,1.57,0,0,0-1.53.88v5.77h-1.79v-8Z" style="fill:#bbbdbf"/><path d="M890.71,179.75a.82.82,0,0,0-.39-.73,4,4,0,0,0-1.31-.44,6.72,6.72,0,0,1-1.53-.49,2,2,0,0,1-1.34-1.88,2.11,2.11,0,0,1,.87-1.72,3.45,3.45,0,0,1,2.21-.69,3.58,3.58,0,0,1,2.31.7,2.25,2.25,0,0,1,.88,1.84h-1.79a1.12,1.12,0,0,0-.38-.86,1.48,1.48,0,0,0-1-.34,1.6,1.6,0,0,0-1,.27.85.85,0,0,0-.37.73.71.71,0,0,0,.35.64,4.93,4.93,0,0,0,1.39.46,6.54,6.54,0,0,1,1.66.55,2.36,2.36,0,0,1,.89.77,2,2,0,0,1,.29,1.09,2.07,2.07,0,0,1-.89,1.74,3.75,3.75,0,0,1-2.33.67,4.2,4.2,0,0,1-1.75-.35,2.83,2.83,0,0,1-1.19-1,2.24,2.24,0,0,1-.43-1.33h1.74a1.25,1.25,0,0,0,.48,1,1.89,1.89,0,0,0,1.17.34,1.78,1.78,0,0,0,1.07-.27A.82.82,0,0,0,890.71,179.75Z" style="fill:#bbbdbf"/></g></g></g></svg>