<svg xmlns="http://www.w3.org/2000/svg" viewBox="0 0 597.92 116.94"><g id="Layer_2" data-name="Layer 2"><g id="Mina_Live" data-name="Mina Live"><g id="logo-black"><line x1="73.65" y1="51.05" x2="73.65" y2="72.4" style="fill:#212120;stroke:#212120;stroke-linecap:round;stroke-miterlimit:10;stroke-width:8.50393676757813px"/><rect x="34.1" width="77.12" height="50.51" rx="12" style="fill:#212120"/><rect x="34.1" y="65.54" width="77.12" height="50.51" rx="12" style="fill:#212120"/><line x1="18.65" y1="31.39" x2="7.5" y2="56.2" style="fill:#212120;stroke:#212120;stroke-linecap:square;stroke-miterlimit:10;stroke-width:11.3385829925537px"/><line x1="18.65" y1="85.79" x2="7.5" y2="60.98" style="fill:#212120;stroke:#212120;stroke-linecap:square;stroke-miterlimit:10;stroke-width:11.3385829925537px"/><line x1="126.67" y1="85.79" x2="137.83" y2="60.98" style="fill:#212120;stroke:#212120;stroke-linecap:square;stroke-miterlimit:10;stroke-width:11.3385829925537px"/><line x1="126.67" y1="31.39" x2="137.83" y2="56.2" style="fill:#212120;stroke:#212120;stroke-linecap:square;stroke-miterlimit:10;stroke-width:11.3385829925537px"/></g><path d="M186.63,40.44,179,47.33V65.09h-4.59V15.45H179V42.21l27.85-26.76h5.79L189.84,37.54l24.53,27.55h-5.6Z" style="fill:#212120"/><path d="M236.24,65.77a18.75,18.75,0,0,1-9.31-2.32A16.37,16.37,0,0,1,220.45,57a18.75,18.75,0,0,1-2.31-9.29V46.24a20.07,20.07,0,0,1,2.26-9.58,16.85,16.85,0,0,1,6.29-6.7,16.51,16.51,0,0,1,8.73-2.44q7.37,0,11.67,4.59t4.31,12.52v2.29H222.58v.78a14.62,14.62,0,0,0,3.94,10.45,13.06,13.06,0,0,0,9.91,4.18,15.67,15.67,0,0,0,6.33-1.2,13.69,13.69,0,0,0,5-3.81l2.8,1.94Q245.62,65.77,236.24,65.77ZM235.42,31a11.67,11.67,0,0,0-8.49,3.37,15,15,0,0,0-4.2,9.07H247V43a12.81,12.81,0,0,0-3.32-8.66A10.74,10.74,0,0,0,235.42,31Z" style="fill:#212120"/><path d="M285.6,65.09a17.92,17.92,0,0,1-.86-5.15,15.44,15.44,0,0,1-6,4.31A19.89,19.89,0,0,1,271,65.77a14.37,14.37,0,0,1-9.43-3,9.29,9.29,0,0,1-3.6-7.5,9.66,9.66,0,0,1,4.91-8.52q4.9-3.14,13.68-3.13h8.11v-4.2A7.73,7.73,0,0,0,282,33.23Q279.37,31,274.25,31a13,13,0,0,0-7.73,2.19,6.33,6.33,0,0,0-3.06,5.25l-4.48,0q0-4.39,4.48-7.62a18.37,18.37,0,0,1,11-3.22q6.75,0,10.66,3.09a10.64,10.64,0,0,1,4,8.6V56.67q0,5.36,1.23,8v.41Zm-14-2.93a16.07,16.07,0,0,0,8-2,12.07,12.07,0,0,0,5.14-5.29V46.78h-8Q270,46.86,266.26,49t-3.77,6A6.36,6.36,0,0,0,265,60.11,10.1,10.1,0,0,0,271.56,62.16Z" style="fill:#212120"/><path d="M299.27,46.3c0-5.72,1.4-10.29,4.2-13.68a14,14,0,0,1,11.4-5.1q8.17,0,12.47,5.9V12.73h4.45V65.09H327.6l-.18-4.91q-4.31,5.59-12.62,5.59a13.93,13.93,0,0,1-11.26-5.13q-4.28-5.13-4.27-13.86Zm4.51.72q0,7,3.1,11.13a10.33,10.33,0,0,0,8.74,4.07q8.25,0,11.72-6.64V38.26q-3.46-7.2-11.65-7.19a10.46,10.46,0,0,0-8.77,4Q303.78,39.14,303.78,47Z" style="fill:#212120"/><path d="M359.19,65.77a18.75,18.75,0,0,1-9.31-2.32A16.37,16.37,0,0,1,343.4,57a18.65,18.65,0,0,1-2.32-9.29V46.24a20.19,20.19,0,0,1,2.26-9.58,16.92,16.92,0,0,1,6.29-6.7,16.55,16.55,0,0,1,8.74-2.44q7.35,0,11.67,4.59t4.31,12.52v2.29H345.53v.78a14.65,14.65,0,0,0,3.93,10.45,13.08,13.08,0,0,0,9.92,4.18,15.67,15.67,0,0,0,6.33-1.2,13.69,13.69,0,0,0,5-3.81l2.8,1.94Q368.57,65.77,359.19,65.77ZM358.37,31a11.67,11.67,0,0,0-8.49,3.37,15,15,0,0,0-4.21,9.07h24.24V43a12.87,12.87,0,0,0-3.33-8.66A10.73,10.73,0,0,0,358.37,31Z" style="fill:#212120"/><path d="M395.74,43.17l10.9-15H412L398.24,46.3l14.3,18.79h-5.26l-11.5-15.62-11.5,15.62H379L393.28,46.3l-13.7-18.1h5.26Z" style="fill:#212120"/><path d="M448.57,15.45,466.34,56l17.78-40.5h9.29V65.09h-7.17V45.76l.68-20.86L469.07,65.09h-5.49L445.77,25l.71,20.76V65.09h-7.17V15.45Z" style="fill:#212120"/><path d="M505,18.42a3.59,3.59,0,0,1,1-2.59,4,4,0,0,1,3-1.06,4.08,4.08,0,0,1,3.06,1.06,3.53,3.53,0,0,1,1.05,2.59A3.41,3.41,0,0,1,512.15,21a4.15,4.15,0,0,1-3.06,1,4.1,4.1,0,0,1-3-1A3.47,3.47,0,0,1,505,18.42Zm7.47,46.67h-6.91V28.2h6.91Z" style="fill:#212120"/><path d="M530.08,28.2l.22,4.64a15.27,15.27,0,0,1,12.1-5.32q12.79,0,12.92,13.19V65.09h-6.91V40.68c0-2.66-.69-4.63-2-5.9s-3.34-1.91-6.1-1.91a10.65,10.65,0,0,0-5.9,1.64,11.41,11.41,0,0,0-4,4.29V65.09h-6.91V28.2Z" style="fill:#212120"/><path d="M590.67,65.09a12.29,12.29,0,0,1-1-3.89,16.1,16.1,0,0,1-11.5,4.57,15.11,15.11,0,0,1-9.8-3.09,9.62,9.62,0,0,1-3.83-7.82,10.16,10.16,0,0,1,4.8-9q4.8-3.18,13.5-3.19h6.72V39.83a6.74,6.74,0,0,0-2.17-5.27q-2.16-2-6.38-2a10.82,10.82,0,0,0-6.2,1.7,4.94,4.94,0,0,0-2.5,4.13H565.4a8.28,8.28,0,0,1,2.14-5.34A14.64,14.64,0,0,1,573.37,29a21.17,21.17,0,0,1,8.08-1.5q7,0,10.94,3.19a11.05,11.05,0,0,1,4.11,8.78v17a19.07,19.07,0,0,0,1.42,8.08v.55Zm-11.46-4.81a13,13,0,0,0,6.16-1.53,9.8,9.8,0,0,0,4.22-4V47.19h-5.41q-12.7,0-12.7,6.78a5.51,5.51,0,0,0,2.17,4.64A8.84,8.84,0,0,0,579.21,60.28Z" style="fill:#212120"/><path d="M356.22,116.5V94.88h-4.31V92.73h4.31V89.85a7.42,7.42,0,0,1,2-5.61,7.86,7.86,0,0,1,5.67-1.95,11.86,11.86,0,0,1,3.05.37l-.21,2.18a12.07,12.07,0,0,0-2.63-.27,4.91,4.91,0,0,0-3.7,1.36,5.27,5.27,0,0,0-1.33,3.84v3h6.21v2.15H359.1V116.5Z" style="fill:#70cff0"/><path d="M368.88,104.26a13,13,0,0,1,1.45-6.17,10.49,10.49,0,0,1,4.12-4.28,11.84,11.84,0,0,1,6-1.52,11.24,11.24,0,0,1,8.43,3.32,12.16,12.16,0,0,1,3.22,8.83V105a13,13,0,0,1-1.45,6.2,10.27,10.27,0,0,1-4.11,4.25,12,12,0,0,1-6,1.5,11.21,11.21,0,0,1-8.41-3.33,12.1,12.1,0,0,1-3.23-8.82Zm2.88.73a10.16,10.16,0,0,0,2.42,7,8.68,8.68,0,0,0,12.66,0,10.5,10.5,0,0,0,2.42-7.21v-.51a11.17,11.17,0,0,0-1.11-5,8.33,8.33,0,0,0-3.1-3.5,8.5,8.5,0,0,0-4.58-1.24,8,8,0,0,0-6.28,2.75,10.53,10.53,0,0,0-2.43,7.22Z" style="fill:#70cff0"/><path d="M410.1,95a11,11,0,0,0-2-.16,7.08,7.08,0,0,0-7.22,5.36V116.5h-2.87V92.73h2.82l.05,3.77a7.74,7.74,0,0,1,7.34-4.21,5.18,5.18,0,0,1,1.9.28Z" style="fill:#70cff0"/><path d="M431.1,86.64v6.09h5.4v2.15h-5.4v15.86a4.66,4.66,0,0,0,.79,3,3.18,3.18,0,0,0,2.61,1,18.75,18.75,0,0,0,2.33-.22l.12,2.14a10.12,10.12,0,0,1-3.08.37,5.39,5.39,0,0,1-4.31-1.57,7,7,0,0,1-1.34-4.63V94.88h-4.79V92.73h4.79V86.64Z" style="fill:#70cff0"/><path d="M445.33,96.75a9.74,9.74,0,0,1,3.63-3.3,10.2,10.2,0,0,1,4.84-1.16c2.79,0,4.87.71,6.23,2.15s2.05,3.59,2.07,6.46v15.6h-2.86V100.88a6.85,6.85,0,0,0-1.48-4.75c-1-1-2.53-1.56-4.66-1.56a7.72,7.72,0,0,0-4.73,1.53,8.91,8.91,0,0,0-3,4.12V116.5h-2.87V82.75h2.87Z" style="fill:#70cff0"/><path d="M479.59,116.94a12.09,12.09,0,0,1-6-1.5,10.5,10.5,0,0,1-4.17-4.16,12,12,0,0,1-1.5-6v-.94a13,13,0,0,1,1.46-6.18,10.85,10.85,0,0,1,4.05-4.31,10.69,10.69,0,0,1,5.64-1.57,9.84,9.84,0,0,1,7.52,2.95,11.33,11.33,0,0,1,2.78,8.08v1.47H470.79v.5a9.42,9.42,0,0,0,2.54,6.74,8.41,8.41,0,0,0,6.38,2.69,10.17,10.17,0,0,0,4.08-.77,8.93,8.93,0,0,0,3.22-2.46l1.8,1.25Q485.63,116.94,479.59,116.94Zm-.52-22.41a7.53,7.53,0,0,0-5.48,2.17,9.66,9.66,0,0,0-2.71,5.85H486.5v-.29a8.27,8.27,0,0,0-2.14-5.58A6.9,6.9,0,0,0,479.07,94.53Z" style="fill:#70cff0"/><path d="M514.83,106.41l.67,4.22,1-3.8,6.93-22.32h3.89l6.77,22.32,1,3.87.75-4.31,5.43-21.88h4.65l-8.5,32h-4.21l-7.22-23.31-.55-2.44-.55,2.44-7.49,23.31h-4.21l-8.47-32h4.62Z" style="fill:#70cff0"/><path d="M560.36,116.94a12,12,0,0,1-8.62-3.18,11.19,11.19,0,0,1-3.32-8.49v-.74a13.19,13.19,0,0,1,1.48-6.32A10.85,10.85,0,0,1,554,93.86a11.09,11.09,0,0,1,5.76-1.57c3.39,0,6,1,7.9,3s2.81,5,2.81,8.75v1.69H552.87a8.1,8.1,0,0,0,2.25,5.68,7.41,7.41,0,0,0,5.48,2.16,8.29,8.29,0,0,0,4-.88,9.72,9.72,0,0,0,2.87-2.33l2.71,1.94Q566.9,116.94,560.36,116.94Zm-.56-21.31a6.17,6.17,0,0,0-4.52,1.79,8.25,8.25,0,0,0-2.26,5h13v-.31a7.33,7.33,0,0,0-1.83-4.8A5.84,5.84,0,0,0,559.8,95.63Z" style="fill:#70cff0"/><path d="M597.7,104.88a13.25,13.25,0,0,1-2.74,8.75,9.06,9.06,0,0,1-7.36,3.31,9.42,9.42,0,0,1-7.63-3.19l-.22,2.75h-4.09V82.75h4.45V95.34a9.4,9.4,0,0,1,7.44-3A9.16,9.16,0,0,1,595,95.56q2.7,3.27,2.7,9Zm-4.45-.47A10.21,10.21,0,0,0,591.49,98a6,6,0,0,0-5-2.26,6.59,6.59,0,0,0-6.33,3.73v10.28a6.8,6.8,0,0,0,6.38,3.74,6,6,0,0,0,5-2.26Q593.25,109,593.25,104.41Z" style="fill:#70cff0"/></g></g></svg>