<svg xmlns="http://www.w3.org/2000/svg" viewBox="0 0 749.98 116.05"><g id="Layer_2" data-name="Layer 2"><g id="Mina_MCP_Server" data-name="Mina MCP Server"><g id="logo-black"><line x1="73.65" y1="51.05" x2="73.65" y2="72.4" style="fill:#212120;stroke:#212120;stroke-linecap:round;stroke-miterlimit:10;stroke-width:8.50393676757813px"/><rect x="34.1" width="77.12" height="50.51" rx="12" style="fill:#212120"/><rect x="34.1" y="65.54" width="77.12" height="50.51" rx="12" style="fill:#212120"/><line x1="18.65" y1="31.39" x2="7.5" y2="56.2" style="fill:#212120;stroke:#212120;stroke-linecap:square;stroke-miterlimit:10;stroke-width:11.3385829925537px"/><line x1="18.65" y1="85.79" x2="7.5" y2="60.98" style="fill:#212120;stroke:#212120;stroke-linecap:square;stroke-miterlimit:10;stroke-width:11.3385829925537px"/><line x1="126.67" y1="85.79" x2="137.83" y2="60.98" style="fill:#212120;stroke:#212120;stroke-linecap:square;stroke-miterlimit:10;stroke-width:11.3385829925537px"/><line x1="126.67" y1="31.39" x2="137.83" y2="56.2" style="fill:#212120;stroke:#212120;stroke-linecap:square;stroke-miterlimit:10;stroke-width:11.3385829925537px"/></g><path d="M180.46,28.2l20,43.81L220.64,28.2h6.12V77.84h-4.59V56.22l.37-22.15L202.31,77.84h-3.55L178.6,34.24,179,56.09V77.84h-4.59V28.2Z" style="fill:#212120"/><path d="M239.23,30.3a2.6,2.6,0,0,1,.82-1.95,3.1,3.1,0,0,1,2.24-.8,3.15,3.15,0,0,1,2.26.8,2.58,2.58,0,0,1,.84,1.95,2.52,2.52,0,0,1-.84,1.93,3.18,3.18,0,0,1-2.26.78,3.13,3.13,0,0,1-2.24-.78A2.54,2.54,0,0,1,239.23,30.3Zm5.27,47.54H240V41h4.48Z" style="fill:#212120"/><path d="M260.89,41l.15,6.31a15.31,15.31,0,0,1,5.67-5.2,15.88,15.88,0,0,1,7.5-1.79q6.51,0,9.67,3.34t3.21,10V77.84h-4.44V53.6c0-3.3-.79-5.75-2.29-7.36s-3.92-2.43-7.23-2.43a12,12,0,0,0-7.33,2.37,13.88,13.88,0,0,0-4.73,6.4V77.84h-4.44V41Z" style="fill:#212120"/><path d="M324.13,77.84a17.92,17.92,0,0,1-.86-5.15,15.37,15.37,0,0,1-6,4.31,19.89,19.89,0,0,1-7.71,1.52,14.37,14.37,0,0,1-9.43-3,9.3,9.3,0,0,1-3.6-7.5,9.66,9.66,0,0,1,4.91-8.52c3.27-2.09,7.84-3.14,13.68-3.14h8.11V52.2A7.72,7.72,0,0,0,320.57,46q-2.67-2.26-7.79-2.27a13,13,0,0,0-7.73,2.18A6.35,6.35,0,0,0,302,51.14l-4.48,0q0-4.39,4.48-7.62a18.37,18.37,0,0,1,11-3.22q6.75,0,10.66,3.08a10.68,10.68,0,0,1,4,8.61V69.42c0,3.57.41,6.23,1.23,8v.41Zm-14-2.94a16.07,16.07,0,0,0,8-2,12,12,0,0,0,5.14-5.29V59.53h-8q-6.69.07-10.46,2.23T301,67.71a6.36,6.36,0,0,0,2.52,5.15A10.1,10.1,0,0,0,310.09,74.9Z" style="fill:#212120"/><path d="M367.63,28.2,385.4,68.7l17.77-40.5h9.3V77.84H405.3V58.51L406,37.64l-17.84,40.2h-5.49L364.83,37.75l.71,20.76V77.84h-7.17V28.2Z" style="fill:#9e9d9e"/><path d="M465.11,62.09q-1,7.88-6.36,12.15T444.5,78.52q-9.63,0-15.44-6.31t-5.8-16.87V50.56A26.26,26.26,0,0,1,426,38.39a19.16,19.16,0,0,1,7.68-8.06,23,23,0,0,1,11.5-2.81q8.66,0,13.89,4.41t6.08,12.22h-7.2q-.95-5.94-4.06-8.61c-2.07-1.78-5-2.67-8.71-2.67q-6.87,0-10.77,4.64t-3.91,13.21v4.81q0,8.09,3.7,12.86a12.35,12.35,0,0,0,10.34,4.78q6,0,9.17-2.48t4.24-8.6Z" style="fill:#9e9d9e"/><path d="M482.06,58.4V77.84h-7.17V28.2h20.05q8.93,0,14,4.16a13.52,13.52,0,0,1,5.06,11Q514,50.6,509,54.5t-14.17,3.9Zm0-5.35h12.88c3.84,0,6.77-.82,8.81-2.47a8.65,8.65,0,0,0,3.07-7.16,8.92,8.92,0,0,0-3.07-7.1q-3.06-2.67-8.4-2.77H482.06Z" style="fill:#9e9d9e"/><path d="M558.08,55.71q-9.23-2.41-13.42-6a10.94,10.94,0,0,1-4.2-8.71,11.66,11.66,0,0,1,5.13-9.7q5.13-3.83,13.35-3.83a24,24,0,0,1,10,2,16,16,0,0,1,6.8,5.45,13.11,13.11,0,0,1,2.41,7.6h-7.21a8.71,8.71,0,0,0-3.13-7.1c-2.1-1.72-5-2.58-8.85-2.58-3.54,0-6.29.71-8.27,2.14a6.87,6.87,0,0,0-3,5.92,6.23,6.23,0,0,0,2.82,5.14q2.82,2.1,9.59,3.84a47.06,47.06,0,0,1,10.61,3.84,15.59,15.59,0,0,1,5.67,4.89,11.69,11.69,0,0,1,1.85,6.58,11.28,11.28,0,0,1-5.15,9.67q-5.16,3.63-13.78,3.63a27.76,27.76,0,0,1-10.45-2,17.5,17.5,0,0,1-7.49-5.37,12.35,12.35,0,0,1-2.63-7.74h7.2a8.31,8.31,0,0,0,3.64,7.11q3.64,2.61,9.73,2.61,5.67,0,8.7-2.12a6.66,6.66,0,0,0,3-5.76,6.51,6.51,0,0,0-2.8-5.64Q565.44,57.66,558.08,55.71Z" style="fill:#9e9d9e"/><path d="M603.1,78.52q-8.21,0-13.36-4.93t-5.15-13.17V59.26a20.51,20.51,0,0,1,2.29-9.8,16.84,16.84,0,0,1,6.42-6.75,17.23,17.23,0,0,1,9-2.44q7.88,0,12.24,4.74t4.37,13.57V61.2H591.49A12.47,12.47,0,0,0,595,70a11.48,11.48,0,0,0,8.5,3.36A12.9,12.9,0,0,0,609.67,72a15.18,15.18,0,0,0,4.45-3.62l4.22,3Q613.26,78.52,603.1,78.52Zm-.85-33.07a9.65,9.65,0,0,0-7,2.78A12.89,12.89,0,0,0,591.72,56H612v-.48a11.41,11.41,0,0,0-2.83-7.45A9.11,9.11,0,0,0,602.25,45.45Z" style="fill:#9e9d9e"/><path d="M646.38,46.61a22.58,22.58,0,0,0-3.4-.24q-6.79,0-9.22,5.28V77.84h-6.91V41h6.72l.11,4.26a11,11,0,0,1,9.64-4.94,7.63,7.63,0,0,1,3.06.48Z" style="fill:#9e9d9e"/><path d="M666.72,69.28l10-28.33h7.06L669.3,77.84H664L649.4,41h7.06Z" style="fill:#9e9d9e"/><path d="M706.71,78.52q-8.22,0-13.37-4.93t-5.15-13.17V59.26a20.52,20.52,0,0,1,2.3-9.8,16.84,16.84,0,0,1,6.42-6.75,17.22,17.22,0,0,1,8.94-2.44q7.88,0,12.25,4.74t4.37,13.57V61.2H695.1A12.42,12.42,0,0,0,698.59,70a11.48,11.48,0,0,0,8.49,3.36,12.94,12.94,0,0,0,6.2-1.36,15.14,15.14,0,0,0,4.44-3.62l4.22,3Q716.87,78.52,706.71,78.52Zm-.86-33.07a9.65,9.65,0,0,0-7,2.78A13,13,0,0,0,695.32,56h20.24v-.48a11.42,11.42,0,0,0-2.84-7.45A9.08,9.08,0,0,0,705.85,45.45Z" style="fill:#9e9d9e"/><path d="M750,46.61a22.44,22.44,0,0,0-3.39-.24q-6.81,0-9.23,5.28V77.84h-6.9V41h6.72l.11,4.26a11,11,0,0,1,9.63-4.94,7.56,7.56,0,0,1,3.06.48Z" style="fill:#9e9d9e"/></g></g></svg>